# Blender v2.93.2 OBJ File: 'banana.blend'
# www.blender.org
mtllib quickMod_model_couple_front.mtl
o Coupler.001_Cube.001
v 0.000300 0.023550 -0.090561
v 0.000300 0.031950 -0.090561
v 0.004200 0.023550 -0.089061
v 0.004200 0.031950 -0.089061
v 0.002400 0.023550 -0.090561
v 0.003655 0.023550 -0.089734
v 0.003655 0.031950 -0.089734
v 0.002400 0.031950 -0.090561
v 0.001200 0.023550 -0.089061
v 0.000300 0.023550 -0.089961
v 0.000300 0.031950 -0.089961
v 0.001200 0.031950 -0.089061
v -0.007500 0.023700 -0.046461
v -0.007500 0.023700 -0.061461
v -0.007500 0.032700 -0.046461
v -0.007500 0.032700 -0.061461
v -0.000000 0.023700 -0.046461
v 0.007500 0.023700 -0.046461
v -0.000000 0.023700 -0.061461
v 0.007500 0.023700 -0.061461
v -0.000000 0.032700 -0.046461
v 0.007500 0.032700 -0.046461
v 0.007500 0.032700 -0.061461
v -0.000000 0.032700 -0.061461
v -0.003300 0.032700 -0.058461
v -0.004500 0.030300 -0.058461
v -0.003300 0.030300 -0.058461
v -0.004500 0.026100 -0.058461
v -0.003300 0.023700 -0.058461
v -0.003300 0.026100 -0.058461
v -0.004500 0.030300 -0.070461
v -0.003300 0.032700 -0.070461
v -0.003300 0.030300 -0.070461
v -0.003300 0.023700 -0.070461
v -0.004500 0.026100 -0.070461
v -0.003300 0.026100 -0.070461
v -0.003300 0.026100 -0.073761
v -0.003300 0.025200 -0.073761
v -0.004500 0.026100 -0.073761
v -0.003300 0.031200 -0.073761
v -0.003300 0.030300 -0.073761
v -0.004500 0.030300 -0.073761
v -0.000000 0.032700 -0.058461
v -0.000000 0.023700 -0.058461
v -0.000000 0.032700 -0.070461
v -0.000000 0.023700 -0.070461
v 0.003300 0.032700 -0.058461
v 0.004500 0.030300 -0.058461
v 0.003300 0.030300 -0.058461
v 0.004500 0.026100 -0.058461
v 0.003300 0.023700 -0.058461
v 0.003300 0.026100 -0.058461
v 0.004500 0.030300 -0.070461
v 0.003300 0.032700 -0.070461
v 0.003300 0.030300 -0.070461
v 0.003300 0.023700 -0.070461
v 0.004500 0.026100 -0.070461
v 0.003300 0.026100 -0.070461
v -0.000000 0.025200 -0.073761
v -0.000000 0.031200 -0.073761
v 0.003300 0.026100 -0.073761
v 0.003300 0.025200 -0.073761
v 0.004500 0.026100 -0.073761
v 0.003300 0.031200 -0.073761
v 0.003300 0.030300 -0.073761
v 0.004500 0.030300 -0.073761
v 0.004200 0.023700 -0.087861
v 0.004200 0.031800 -0.087861
v 0.005100 0.022200 -0.085761
v 0.005100 0.033300 -0.084561
v 0.004200 0.023700 -0.089061
v 0.005100 0.022200 -0.080961
v 0.005100 0.033300 -0.080961
v 0.003000 0.022200 -0.080061
v 0.003000 0.033300 -0.080061
v 0.002400 0.025200 -0.063861
v 0.002400 0.030300 -0.063861
v 0.002400 0.025200 -0.080061
v 0.002400 0.030300 -0.080061
v 0.004200 0.023900 -0.087861
v 0.004200 0.031600 -0.087861
v 0.005100 0.025050 -0.080961
v 0.005100 0.030450 -0.080961
v 0.005100 0.024290 -0.085523
v 0.005100 0.031092 -0.084814
v 0.006000 0.024450 -0.084561
v 0.005473 0.023920 -0.087743
v 0.006000 0.031050 -0.084561
v 0.004200 0.031800 -0.089061
v 0.005473 0.031580 -0.087743
v 0.006000 0.024850 -0.082161
v 0.003900 0.025200 -0.080061
v 0.005385 0.025097 -0.080676
v 0.003900 0.030300 -0.080061
v 0.006000 0.030650 -0.082161
v 0.005385 0.030402 -0.080676
v 0.003900 0.022200 -0.085761
v 0.003900 0.022200 -0.085761
v 0.003327 0.023700 -0.087861
v 0.003900 0.033300 -0.084561
v 0.003900 0.032755 -0.085761
v 0.003327 0.031800 -0.087861
v 0.003900 0.022200 -0.083661
v 0.002400 0.022200 -0.082161
v 0.003461 0.022200 -0.082601
v 0.002400 0.033300 -0.082161
v 0.003461 0.033300 -0.082601
v 0.003900 0.033300 -0.083661
v 0.003000 0.031800 -0.089061
v 0.003000 0.023700 -0.089061
v -0.005100 0.033300 -0.084561
v -0.000000 0.022200 -0.080961
v -0.005100 0.022200 -0.080961
v -0.000000 0.033300 -0.080961
v -0.005100 0.033300 -0.080961
v -0.000000 0.022200 -0.080061
v -0.003000 0.022200 -0.080061
v -0.000000 0.033300 -0.080061
v -0.003000 0.033300 -0.080061
v -0.002400 0.025200 -0.063861
v -0.000000 0.025200 -0.063861
v -0.000000 0.030300 -0.063861
v -0.002400 0.030300 -0.063861
v -0.000000 0.025200 -0.080061
v -0.002400 0.025200 -0.080061
v -0.000000 0.030300 -0.080061
v -0.002400 0.030300 -0.080061
v -0.005100 0.025050 -0.080961
v -0.005100 0.030450 -0.080961
v -0.005100 0.031092 -0.084814
v -0.006000 0.024850 -0.082161
v -0.003900 0.025200 -0.080061
v -0.005385 0.025097 -0.080676
v -0.003900 0.030300 -0.080061
v -0.006000 0.030650 -0.082161
v -0.005385 0.030402 -0.080676
v -0.003900 0.033300 -0.084561
v -0.003900 0.022200 -0.083661
v -0.002400 0.022200 -0.082161
v -0.003461 0.022200 -0.082601
v -0.000000 0.022200 -0.082161
v -0.002400 0.033300 -0.082161
v -0.000000 0.033300 -0.082161
v -0.003461 0.033300 -0.082601
v -0.003900 0.033300 -0.083661
v -0.003900 0.032891 -0.085461
v -0.005005 0.033142 -0.084909
v -0.003900 0.022200 -0.085461
v -0.005100 0.022200 -0.084861
v -0.006000 0.024475 -0.084411
v -0.005100 0.024400 -0.084861
v -0.005083 0.031101 -0.084870
v -0.006000 0.031025 -0.084411
v -0.005083 0.031105 -0.084870
vt 0.356181 0.921929
vt 0.356181 0.922069
vt 0.356172 0.922069
vt 0.356172 0.921929
vt 0.363175 0.922030
vt 0.363175 0.922169
vt 0.363165 0.922169
vt 0.363165 0.922030
vt 0.361752 0.914144
vt 0.361763 0.914153
vt 0.361777 0.914174
vt 0.361777 0.914209
vt 0.361767 0.914209
vt 0.361752 0.914194
vt 0.356237 0.921929
vt 0.356237 0.922069
vt 0.356202 0.922069
vt 0.356202 0.921929
vt 0.363462 0.913533
vt 0.363462 0.913672
vt 0.363413 0.913672
vt 0.363413 0.913533
vt 0.363190 0.922030
vt 0.363190 0.922169
vt 0.361945 0.922083
vt 0.361958 0.922062
vt 0.361969 0.922053
vt 0.361969 0.922103
vt 0.361954 0.922118
vt 0.361945 0.922118
vt 0.364634 0.854376
vt 0.364434 0.854376
vt 0.364434 0.853976
vt 0.364634 0.853976
vt 0.363006 0.861528
vt 0.363006 0.861928
vt 0.362806 0.861928
vt 0.362806 0.861528
vt 0.365352 0.855945
vt 0.365352 0.856345
vt 0.365112 0.856345
vt 0.365112 0.855945
vt 0.357403 0.861712
vt 0.357603 0.861712
vt 0.357603 0.861952
vt 0.357403 0.861952
vt 0.357179 0.861712
vt 0.357379 0.861712
vt 0.357379 0.861952
vt 0.357179 0.861952
vt 0.364634 0.854376
vt 0.364634 0.853976
vt 0.363006 0.861528
vt 0.363006 0.861928
vt 0.360711 0.861307
vt 0.360471 0.861307
vt 0.360471 0.861708
vt 0.360711 0.861708
vt 0.365352 0.855945
vt 0.365112 0.855945
vt 0.365112 0.856345
vt 0.365352 0.856345
vt 0.357603 0.861952
vt 0.357603 0.861712
vt 0.357179 0.861712
vt 0.357179 0.861952
vt 0.359748 0.884279
vt 0.359748 0.884131
vt 0.359800 0.884131
vt 0.359800 0.884279
vt 0.354183 0.887449
vt 0.354153 0.887449
vt 0.354172 0.887409
vt 0.354183 0.887409
vt 0.358459 0.887955
vt 0.358459 0.887966
vt 0.358418 0.887966
vt 0.354277 0.887975
vt 0.354277 0.887828
vt 0.354317 0.887828
vt 0.354317 0.887975
vt 0.360104 0.885085
vt 0.360104 0.885232
vt 0.360074 0.885232
vt 0.360074 0.885085
vt 0.360495 0.884255
vt 0.360495 0.884108
vt 0.360509 0.884108
vt 0.360509 0.884255
vt 0.354153 0.887597
vt 0.354183 0.887597
vt 0.356121 0.885855
vt 0.356121 0.885709
vt 0.356136 0.885709
vt 0.356136 0.885855
vt 0.358888 0.886868
vt 0.358888 0.886721
vt 0.358929 0.886721
vt 0.358929 0.886868
vt 0.359748 0.884091
vt 0.359800 0.884091
vt 0.356121 0.885668
vt 0.356136 0.885668
vt 0.354277 0.887786
vt 0.354317 0.887786
vt 0.358888 0.886679
vt 0.358929 0.886679
vt 0.360509 0.884296
vt 0.360495 0.884296
vt 0.360074 0.885044
vt 0.360086 0.885044
vt 0.360458 0.887892
vt 0.360473 0.887892
vt 0.360473 0.887840
vt 0.360458 0.887840
vt 0.358459 0.887903
vt 0.358473 0.887903
vt 0.358473 0.887955
vt 0.359748 0.884279
vt 0.359800 0.884279
vt 0.359800 0.884131
vt 0.359748 0.884131
vt 0.354183 0.887449
vt 0.354183 0.887409
vt 0.354172 0.887409
vt 0.354153 0.887449
vt 0.359964 0.885232
vt 0.360074 0.885232
vt 0.360074 0.885085
vt 0.359964 0.885085
vt 0.354237 0.921754
vt 0.354237 0.921773
vt 0.354203 0.921754
vt 0.354277 0.887975
vt 0.354277 0.887828
vt 0.360104 0.885085
vt 0.360074 0.885085
vt 0.360074 0.885232
vt 0.360104 0.885232
vt 0.360495 0.884255
vt 0.360509 0.884255
vt 0.360509 0.884108
vt 0.360495 0.884108
vt 0.354153 0.887597
vt 0.354183 0.887597
vt 0.356121 0.885855
vt 0.356136 0.885855
vt 0.356136 0.885709
vt 0.356121 0.885709
vt 0.358929 0.886868
vt 0.358929 0.886721
vt 0.359800 0.884091
vt 0.359748 0.884091
vt 0.356136 0.885668
vt 0.356121 0.885668
vt 0.354277 0.887786
vt 0.360056 0.885044
vt 0.359982 0.885044
vt 0.358929 0.886679
vt 0.360495 0.884296
vt 0.360509 0.884296
vt 0.360086 0.885044
vt 0.360074 0.885044
vt 0.358459 0.887966
vt 0.358459 0.887955
vt 0.358459 0.887903
vt 0.358473 0.887955
vt 0.358473 0.887903
vt 0.354237 0.921754
vt 0.354271 0.921744
vt 0.354178 0.921729
vt 0.354185 0.921746
vt 0.354158 0.921773
vt 0.354158 0.921689
vt 0.361413 0.916967
vt 0.361440 0.916995
vt 0.361433 0.917012
vt 0.361413 0.917052
vt 0.354407 0.922044
vt 0.354400 0.922005
vt 0.354405 0.921979
vt 0.354410 0.921982
vt 0.354425 0.922057
vt 0.354143 0.921739
vt 0.354143 0.921689
vt 0.361398 0.917052
vt 0.361398 0.917002
vt 0.360959 0.915833
vt 0.360959 0.915917
vt 0.360919 0.915917
vt 0.360919 0.915833
vt 0.362083 0.921942
vt 0.362043 0.921942
vt 0.362043 0.921674
vt 0.362083 0.921674
vt 0.363249 0.921906
vt 0.363165 0.921906
vt 0.363165 0.921638
vt 0.363249 0.921638
vt 0.356252 0.921929
vt 0.356212 0.921929
vt 0.356212 0.921661
vt 0.356252 0.921661
vt 0.358547 0.922026
vt 0.358566 0.921976
vt 0.358591 0.921959
vt 0.358587 0.921978
vt 0.358562 0.922025
vt 0.358566 0.922107
vt 0.358544 0.922092
vt 0.358550 0.922088
vt 0.358591 0.922112
vt 0.359954 0.921993
vt 0.359954 0.922013
vt 0.359951 0.922013
vt 0.355547 0.921999
vt 0.355547 0.922019
vt 0.355543 0.922019
vt 0.359907 0.922122
vt 0.359920 0.922044
vt 0.359954 0.922053
vt 0.359954 0.922130
vt 0.355571 0.922075
vt 0.355571 0.922134
vt 0.355524 0.922134
vt 0.355535 0.922070
vt 0.363068 0.922171
vt 0.363048 0.922171
vt 0.363048 0.922037
vt 0.363068 0.922037
vt 0.354291 0.921759
vt 0.354271 0.921759
vt 0.354291 0.921739
vt 0.361526 0.916997
vt 0.361526 0.916982
vt 0.361546 0.916982
vt 0.361546 0.917002
vt 0.363476 0.918117
vt 0.363429 0.918117
vt 0.363429 0.918083
vt 0.363479 0.918073
vt 0.358601 0.914560
vt 0.358551 0.914550
vt 0.358551 0.914515
vt 0.358598 0.914515
vt 0.363429 0.918033
vt 0.363479 0.918033
vt 0.358601 0.914599
vt 0.358551 0.914599
vt 0.361182 0.915919
vt 0.361182 0.915834
vt 0.361207 0.915834
vt 0.361207 0.915919
vt 0.355658 0.921830
vt 0.355524 0.921830
vt 0.355528 0.921807
vt 0.355655 0.921807
vt 0.355537 0.921754
vt 0.355646 0.921754
vt 0.355639 0.921715
vt 0.355543 0.921715
vt 0.355547 0.921691
vt 0.355635 0.921691
vt 0.361232 0.915833
vt 0.361232 0.915921
vt 0.361433 0.917052
vt 0.361433 0.917092
vt 0.356537 0.921858
vt 0.356498 0.921858
vt 0.356498 0.921675
vt 0.356537 0.921675
vt 0.356480 0.921675
vt 0.356480 0.921858
vt 0.359441 0.921685
vt 0.359441 0.921869
vt 0.359423 0.921869
vt 0.359423 0.921685
vt 0.359456 0.921685
vt 0.359475 0.921694
vt 0.359475 0.921869
vt 0.359475 0.921869
vt 0.361478 0.917135
vt 0.361473 0.917136
vt 0.361473 0.917116
vt 0.361487 0.917116
vt 0.358274 0.922105
vt 0.358258 0.922084
vt 0.358264 0.922082
vt 0.358296 0.922117
vt 0.358236 0.922037
vt 0.358258 0.922025
vt 0.358226 0.922060
vt 0.358220 0.922058
vt 0.354158 0.921605
vt 0.354143 0.921639
vt 0.361413 0.917136
vt 0.361398 0.917102
vt 0.360879 0.915833
vt 0.360879 0.915917
vt 0.362123 0.921674
vt 0.362123 0.921942
vt 0.359373 0.921337
vt 0.359373 0.921605
vt 0.359289 0.921605
vt 0.359289 0.921337
vt 0.363342 0.919123
vt 0.363342 0.919392
vt 0.363257 0.919392
vt 0.363257 0.919123
vt 0.356172 0.921929
vt 0.356172 0.921661
vt 0.359423 0.921605
vt 0.359423 0.921619
vt 0.358257 0.922116
vt 0.358258 0.922116
vt 0.358241 0.922117
vt 0.359662 0.913756
vt 0.359662 0.913821
vt 0.359615 0.913821
vt 0.359626 0.913756
vt 0.359568 0.913762
vt 0.359604 0.913758
vt 0.359615 0.913821
vt 0.359568 0.913821
vt 0.359423 0.921639
vt 0.359239 0.921639
vt 0.359239 0.921619
vt 0.363476 0.917948
vt 0.363479 0.917993
vt 0.363429 0.917983
vt 0.363429 0.917948
vt 0.358601 0.914639
vt 0.358598 0.914684
vt 0.358551 0.914684
vt 0.358551 0.914649
vt 0.363556 0.914510
vt 0.363571 0.914508
vt 0.363571 0.914619
vt 0.363556 0.914618
vt 0.354547 0.919997
vt 0.354571 0.919997
vt 0.354571 0.920082
vt 0.354547 0.920082
vt 0.360757 0.922088
vt 0.360732 0.922084
vt 0.360732 0.921996
vt 0.360757 0.921992
vt 0.354596 0.920083
vt 0.354596 0.919996
vt 0.360794 0.921986
vt 0.360794 0.922094
vt 0.356577 0.921675
vt 0.356577 0.921858
vt 0.356594 0.921675
vt 0.356594 0.921858
vt 0.355994 0.921934
vt 0.356012 0.921934
vt 0.356012 0.922117
vt 0.355994 0.922117
vt 0.355979 0.921934
vt 0.355964 0.922117
vt 0.355964 0.921940
vt 0.360458 0.887840
vt 0.360473 0.887840
vt 0.360473 0.887892
vt 0.360458 0.887892
vt 0.360514 0.887921
vt 0.360473 0.887921
vt 0.358459 0.887892
vt 0.358418 0.887892
vt 0.360473 0.887810
vt 0.360514 0.887810
vt 0.360473 0.887921
vt 0.360473 0.887810
vt 0.361492 0.916987
vt 0.361473 0.916987
vt 0.361473 0.916967
vt 0.358459 0.887892
vt 0.354178 0.921689
vt 0.354426 0.922094
vt 0.354447 0.922092
vt 0.354451 0.922112
vt 0.361458 0.916987
vt 0.354223 0.921605
vt 0.354233 0.921624
vt 0.354203 0.921624
vt 0.358539 0.922066
vt 0.354427 0.921964
vt 0.354451 0.921959
vt 0.359510 0.921710
vt 0.359510 0.921844
vt 0.354185 0.921632
vt 0.354178 0.921649
vt 0.361458 0.917116
vt 0.359530 0.921844
vt 0.359530 0.921710
vt 0.361440 0.917109
vt 0.358261 0.922058
vt 0.358279 0.922025
vt 0.358296 0.922026
vt 0.359604 0.913757
vt 0.359604 0.913757
vt 0.358223 0.922084
vt 0.363571 0.914508
vt 0.363573 0.914475
vt 0.363592 0.914479
vt 0.359570 0.913756
vt 0.359239 0.921605
vt 0.363592 0.914656
vt 0.363571 0.914656
vn 0.7768 -0.0000 -0.6298
vn -1.0000 0.0000 0.0000
vn 0.0000 1.0000 0.0000
vn 0.0000 0.0000 -1.0000
vn 0.5505 -0.0000 -0.8348
vn 0.0000 0.0000 1.0000
vn -0.7071 0.0000 0.7071
vn 0.0000 -1.0000 -0.0000
vn 1.0000 0.0000 -0.0000
vn 0.0000 -0.9104 -0.4138
vn 0.0000 0.9104 -0.4138
vn 0.0000 0.9285 0.3714
vn 0.0000 -0.9864 0.1644
vn -0.0000 0.9864 0.1644
vn 0.9605 0.0290 -0.2769
vn 0.9293 0.0383 -0.3673
vn 0.3519 -0.0361 0.9353
vn 0.3519 0.0361 0.9353
vn 0.7193 0.0000 -0.6947
vn 0.9866 0.0000 -0.1635
vn 0.9239 0.0000 0.3827
vn 0.3827 0.0000 0.9239
vn -0.3827 0.0000 -0.9239
vn -0.9239 0.0000 -0.3827
vn -0.3519 -0.0361 0.9353
vn -0.3519 0.0361 0.9353
vn -0.4472 -0.0000 -0.8944
vn -0.9239 0.0000 0.3827
vn -0.3827 0.0000 0.9239
vn 0.3827 0.0000 -0.9239
vn 0.9239 0.0000 -0.3827
vn 0.0000 -0.8137 -0.5812
vn -0.9648 0.0000 0.2631
vn -0.9591 0.0000 -0.2831
vn -0.9605 0.0316 -0.2763
usemtl Material.004
s off
f 6/1/1 7/2/1 4/3/1 3/4/1
f 10/5/2 11/6/2 2/7/2 1/8/2
f 4/9/3 7/10/3 8/11/3 2/12/3 11/13/3 12/14/3
f 1/15/4 2/16/4 8/17/4 5/18/4
f 7/2/5 6/1/5 5/18/5 8/17/5
f 3/19/6 4/20/6 12/21/6 9/22/6
f 11/6/7 10/5/7 9/23/7 12/24/7
f 5/25/8 6/26/8 3/27/8 9/28/8 10/29/8 1/30/8
f 14/31/8 19/32/8 17/33/8 13/34/8
f 16/35/3 15/36/3 21/37/3 24/38/3
f 14/39/2 13/40/2 15/41/2 16/42/2
f 19/43/4 14/44/4 16/45/4 24/46/4
f 13/47/6 17/48/6 21/49/6 15/50/6
f 20/51/8 18/52/8 17/33/8 19/32/8
f 23/53/3 24/38/3 21/37/3 22/54/3
f 17/55/2 21/56/2 24/57/2 19/58/2
f 20/59/9 23/60/9 22/61/9 18/62/9
f 19/43/4 24/46/4 23/63/4 20/64/4
f 18/65/6 22/66/6 21/49/6 17/48/6
f 26/67/2 31/68/2 35/69/2 28/70/2
f 33/71/2 32/72/2 40/73/2 41/74/2
f 41/75/4 40/76/4 60/77/4
f 29/78/8 34/79/8 46/80/8 44/81/8
f 34/82/2 29/83/2 30/84/2 36/85/2
f 36/86/8 30/87/8 28/88/8 35/89/8
f 25/90/2 32/72/2 33/71/2 27/91/2
f 27/92/3 33/93/3 31/94/3 26/95/3
f 43/96/3 45/97/3 32/98/3 25/99/3
f 35/69/2 31/68/2 42/100/2 39/101/2
f 31/94/3 33/93/3 41/102/3 42/103/3
f 46/80/10 34/79/10 38/104/10 59/105/10
f 32/98/11 45/97/11 60/106/11 40/107/11
f 36/86/8 35/89/8 39/108/8 37/109/8
f 34/82/2 36/85/2 37/110/2 38/111/2
f 48/112/6 49/113/6 52/114/6 50/115/6
f 37/116/4 39/117/4 42/118/4 41/75/4
f 48/119/9 50/120/9 57/121/9 53/122/9
f 55/123/9 65/124/9 64/125/9 54/126/9
f 44/127/2 43/128/2 45/129/2 46/130/2
f 98/131/8 69/132/8 103/133/8
f 51/134/8 44/81/8 46/80/8 56/135/8
f 56/136/9 58/137/9 52/138/9 51/139/9
f 58/140/8 57/141/8 50/142/8 52/143/8
f 47/144/9 49/145/9 55/123/9 54/126/9
f 49/146/3 48/147/3 53/148/3 55/149/3
f 43/96/3 47/150/3 54/151/3 45/97/3
f 57/121/9 63/152/9 66/153/9 53/122/9
f 53/148/3 66/154/3 65/155/3 55/149/3
f 46/80/10 59/105/10 62/156/10 56/135/10
f 45/129/2 60/157/2 59/158/2 46/130/2
f 54/151/11 64/159/11 60/106/11 45/97/11
f 58/140/8 61/160/8 63/161/8 57/141/8
f 56/136/9 62/162/9 61/163/9 58/137/9
f 60/77/4 64/164/4 65/165/4
f 61/166/4 65/165/4 66/167/4 63/168/4
f 98/131/12 97/169/12 99/170/12
f 104/171/8 105/172/8 72/173/8 112/174/8
f 73/175/3 107/176/3 106/177/3 114/178/3
f 86/179/13 91/180/13 93/181/13 82/182/13 84/183/13
f 72/173/8 74/184/8 116/185/8 112/174/8
f 114/178/3 118/186/3 75/187/3 73/175/3
f 76/188/6 77/189/6 122/190/6 121/191/6
f 122/192/3 77/193/3 79/194/3 126/195/3
f 77/196/9 76/197/9 78/198/9 79/199/9
f 76/200/8 121/201/8 124/202/8 78/203/8
f 88/204/14 90/205/14 89/206/14 81/207/14 85/208/14
f 94/209/14 96/210/14 83/211/14 79/212/14
f 71/213/9 80/214/9 67/215/9
f 89/216/9 68/217/9 81/218/9
f 72/219/9 69/220/9 84/221/9 82/222/9
f 70/223/9 73/224/9 83/225/9 85/226/9
f 68/217/15 70/223/15 85/226/15 81/218/15
f 84/221/16 69/220/16 67/215/16 80/214/16
f 109/227/4 89/228/4 71/229/4 110/230/4
f 71/231/8 67/232/8 99/170/8 110/233/8
f 102/234/3 68/235/3 89/236/3 109/237/3
f 83/238/17 73/239/17 75/240/17 79/241/17
f 78/242/18 74/243/18 72/244/18 82/245/18
f 79/241/6 75/240/6 118/246/6 126/247/6
f 124/248/6 116/249/6 74/243/6 78/242/6
f 79/250/6 78/251/6 92/252/6 94/253/6
f 71/254/19 89/255/19 90/256/19 87/257/19
f 87/257/20 90/256/20 88/258/20 86/259/20
f 91/260/21 95/261/21 96/262/21 93/263/21
f 93/264/22 96/265/22 94/253/22 92/252/22
f 95/261/9 91/260/9 86/259/9 88/258/9
f 114/178/3 143/266/3 142/267/3
f 143/268/4 106/269/4 104/270/4 141/271/4
f 105/272/23 104/270/23 106/269/23 107/273/23
f 108/274/24 103/275/24 105/276/24 107/277/24
f 108/274/2 100/278/2 101/279/2 97/280/2 98/281/2 103/275/2
f 147/282/11 111/283/11 137/284/11 146/285/11
f 132/286/13 133/287/13 128/288/13 125/289/13
f 134/290/14 127/291/14 129/292/14 136/293/14
f 113/294/8 112/174/8 116/185/8 117/295/8
f 114/178/3 115/296/3 119/297/3 118/186/3
f 120/298/6 121/191/6 122/190/6 123/299/6
f 122/192/3 126/195/3 127/300/3 123/301/3
f 121/302/9 124/303/9 126/304/9 122/305/9
f 123/306/2 127/307/2 125/308/2 120/309/2
f 120/310/8 125/311/8 124/202/8 121/201/8
f 124/303/9 116/312/9 112/313/9
f 130/314/14 152/315/14 153/316/14
f 149/317/2 113/318/2 128/319/2 151/320/2
f 111/321/2 130/322/2 129/323/2 115/324/2
f 126/304/9 124/303/9 112/313/9 141/325/9 143/326/9 114/327/9
f 129/328/25 127/329/25 119/330/25 115/331/25
f 125/332/26 128/333/26 113/334/26 117/335/26
f 127/329/6 126/247/6 118/246/6 119/330/6
f 124/248/6 125/332/6 117/335/6 116/249/6
f 153/336/27 152/337/27 151/338/27 150/339/27
f 127/340/6 134/341/6 132/342/6 125/343/6
f 131/344/28 133/345/28 136/346/28 135/347/28
f 133/348/29 132/342/29 134/341/29 136/349/29
f 131/344/2 135/347/2 153/350/2 150/351/2
f 143/268/4 141/271/4 139/352/4 142/353/4
f 140/354/30 144/355/30 142/353/30 139/352/30
f 145/356/31 144/357/31 140/358/31 138/359/31
f 137/360/9 145/356/9 138/359/9 148/361/9 146/362/9
f 28/363/6 30/364/6 27/365/6 26/366/6
f 43/367/6 25/368/6 27/365/6
f 38/369/4 37/116/4 59/370/4
f 30/364/6 29/371/6 44/372/6
f 47/373/6 43/367/6 49/113/6
f 27/365/6 30/364/6 44/372/6 43/367/6
f 60/77/4 59/370/4 37/116/4 41/75/4
f 44/372/6 51/374/6 52/114/6
f 101/375/11 100/376/11 70/377/11
f 61/166/4 62/378/4 59/370/4
f 44/372/6 52/114/6 49/113/6 43/367/6
f 61/166/4 59/370/4 60/77/4 65/165/4
f 67/232/32 69/132/32 98/131/32 99/170/32
f 68/235/11 102/234/11 101/375/11 70/377/11
f 143/266/3 114/178/3 106/177/3
f 112/174/8 141/379/8 104/171/8
f 87/380/13 86/179/13 84/183/13 80/381/13 71/382/13
f 72/173/8 105/172/8 103/133/8 69/132/8
f 70/377/3 100/376/3 108/383/3
f 149/384/8 148/385/8 138/386/8
f 108/383/3 107/176/3 73/175/3 70/377/3
f 85/208/14 83/211/14 96/210/14 95/387/14 88/204/14
f 93/181/13 92/388/13 78/389/13 82/182/13
f 101/279/33 102/390/33 99/391/33 97/280/33
f 140/392/8 139/393/8 112/174/8 113/294/8
f 145/394/3 137/284/3 111/283/3
f 141/379/8 112/174/8 139/393/8
f 110/395/33 99/391/33 102/390/33 109/396/33
f 138/386/8 140/392/8 113/294/8 149/384/8
f 142/267/3 144/397/3 115/296/3 114/178/3
f 131/398/13 150/399/13 151/400/13 128/288/13 133/287/13
f 115/296/3 144/397/3 145/394/3 111/283/3
f 154/401/34 152/402/34 130/322/34
f 129/292/14 130/314/14 153/316/14 135/403/14 136/293/14
f 152/337/27 154/404/27 147/405/27 146/406/27
f 154/401/35 130/322/35 111/321/35 147/407/35
f 114/327/9 118/408/9 126/304/9
f 151/338/27 152/337/27 146/406/27 148/409/27 149/410/27
