# Blender v2.93.2 OBJ File: '5AE2-5500E-P (Export).blend'
# www.blender.org
mtllib quickMod_model_couple_front.mtl
o Coupler_Cube.134
v 0.000300 0.025050 -0.083200
v 0.000300 0.033450 -0.083200
v 0.004200 0.025050 -0.081700
v 0.004200 0.033450 -0.081700
v 0.002400 0.025050 -0.083200
v 0.003655 0.025050 -0.082372
v 0.003655 0.033450 -0.082372
v 0.002400 0.033450 -0.083200
v 0.001200 0.025050 -0.081700
v 0.000300 0.025050 -0.082600
v 0.000300 0.033450 -0.082600
v 0.001200 0.033450 -0.081700
v -0.003300 0.034200 -0.051100
v -0.004500 0.031800 -0.051100
v -0.003300 0.031800 -0.051100
v -0.004500 0.027600 -0.051100
v -0.003300 0.025200 -0.051100
v -0.003300 0.027600 -0.051100
v -0.004500 0.031800 -0.063100
v -0.003300 0.034200 -0.063100
v -0.003300 0.031800 -0.063100
v -0.003300 0.025200 -0.063100
v -0.004500 0.027600 -0.063100
v -0.003300 0.027600 -0.063100
v -0.003300 0.027600 -0.066400
v -0.003300 0.026700 -0.066400
v -0.004500 0.027600 -0.066400
v -0.003300 0.032700 -0.066400
v -0.003300 0.031800 -0.066400
v -0.004500 0.031800 -0.066400
v 0.000000 0.034200 -0.051100
v 0.000000 0.025200 -0.051100
v 0.000000 0.034200 -0.063100
v 0.000000 0.025200 -0.063100
v 0.003300 0.034200 -0.051100
v 0.004500 0.031800 -0.051100
v 0.003300 0.031800 -0.051100
v 0.004500 0.027600 -0.051100
v 0.003300 0.025200 -0.051100
v 0.003300 0.027600 -0.051100
v 0.004500 0.031800 -0.063100
v 0.003300 0.034200 -0.063100
v 0.003300 0.031800 -0.063100
v 0.003300 0.025200 -0.063100
v 0.004500 0.027600 -0.063100
v 0.003300 0.027600 -0.063100
v 0.000000 0.026700 -0.066400
v 0.000000 0.032700 -0.066400
v 0.003300 0.027600 -0.066400
v 0.003300 0.026700 -0.066400
v 0.004500 0.027600 -0.066400
v 0.003300 0.032700 -0.066400
v 0.003300 0.031800 -0.066400
v 0.004500 0.031800 -0.066400
v 0.004200 0.025200 -0.080500
v 0.004200 0.033300 -0.080500
v 0.005100 0.023700 -0.078400
v 0.005100 0.034800 -0.077200
v 0.004200 0.025200 -0.081700
v 0.005100 0.023700 -0.073600
v 0.005100 0.034800 -0.073600
v 0.003000 0.023700 -0.072700
v 0.003000 0.034800 -0.072700
v 0.002400 0.026700 -0.056500
v 0.002400 0.031800 -0.056500
v 0.002400 0.026700 -0.072700
v 0.002400 0.031800 -0.072700
v 0.004200 0.025400 -0.080500
v 0.004200 0.033100 -0.080500
v 0.005100 0.026550 -0.073600
v 0.005100 0.031950 -0.073600
v 0.005100 0.025790 -0.078161
v 0.005100 0.032592 -0.077452
v 0.006000 0.025950 -0.077200
v 0.005473 0.025420 -0.080382
v 0.006000 0.032550 -0.077200
v 0.004200 0.033300 -0.081700
v 0.005473 0.033080 -0.080382
v 0.006000 0.026350 -0.074800
v 0.003900 0.026700 -0.072700
v 0.005385 0.026597 -0.073315
v 0.003900 0.031800 -0.072700
v 0.006000 0.032150 -0.074800
v 0.005385 0.031902 -0.073315
v 0.003900 0.023700 -0.078400
v 0.003900 0.023700 -0.078400
v 0.003327 0.025200 -0.080500
v 0.003900 0.034800 -0.077200
v 0.003900 0.034255 -0.078400
v 0.003327 0.033300 -0.080500
v 0.003900 0.023700 -0.076300
v 0.002400 0.023700 -0.074800
v 0.003461 0.023700 -0.075239
v 0.002400 0.034800 -0.074800
v 0.003461 0.034800 -0.075239
v 0.003900 0.034800 -0.076300
v 0.003000 0.033300 -0.081700
v 0.003000 0.025200 -0.081700
v -0.005100 0.034800 -0.077200
v 0.000000 0.023700 -0.073600
v -0.005100 0.023700 -0.073600
v 0.000000 0.034800 -0.073600
v -0.005100 0.034800 -0.073600
v 0.000000 0.023700 -0.072700
v -0.003000 0.023700 -0.072700
v 0.000000 0.034800 -0.072700
v -0.003000 0.034800 -0.072700
v -0.002400 0.026700 -0.056500
v 0.000000 0.026700 -0.056500
v 0.000000 0.031800 -0.056500
v -0.002400 0.031800 -0.056500
v 0.000000 0.026700 -0.072700
v -0.002400 0.026700 -0.072700
v 0.000000 0.031800 -0.072700
v -0.002400 0.031800 -0.072700
v -0.005100 0.026550 -0.073600
v -0.005100 0.031950 -0.073600
v -0.005100 0.032592 -0.077452
v -0.006000 0.026350 -0.074800
v -0.003900 0.026700 -0.072700
v -0.005385 0.026597 -0.073315
v -0.003900 0.031800 -0.072700
v -0.006000 0.032150 -0.074800
v -0.005385 0.031902 -0.073315
v -0.003900 0.034800 -0.077200
v -0.003900 0.023700 -0.076300
v -0.002400 0.023700 -0.074800
v -0.003461 0.023700 -0.075239
v 0.000000 0.023700 -0.074800
v -0.002400 0.034800 -0.074800
v 0.000000 0.034800 -0.074800
v -0.003461 0.034800 -0.075239
v -0.003900 0.034800 -0.076300
v -0.003900 0.034391 -0.078100
v -0.005005 0.034642 -0.077547
v -0.003900 0.023700 -0.078100
v -0.005100 0.023700 -0.077500
v -0.006000 0.025975 -0.077050
v -0.005100 0.025900 -0.077500
v -0.005083 0.032601 -0.077508
v -0.006000 0.032525 -0.077050
v -0.005083 0.032605 -0.077508
v -0.007500 0.025200 -0.039100
v -0.007500 0.025200 -0.054100
v -0.007500 0.034200 -0.039100
v -0.007500 0.034200 -0.054100
v 0.000000 0.025200 -0.039100
v 0.007500 0.025200 -0.039100
v 0.000000 0.025200 -0.054100
v 0.007500 0.025200 -0.054100
v 0.000000 0.034200 -0.039100
v 0.007500 0.034200 -0.039100
v 0.007500 0.034200 -0.054100
v 0.000000 0.034200 -0.054100
vt 0.365992 0.927763
vt 0.365992 0.927348
vt 0.365922 0.927348
vt 0.365922 0.927763
vt 0.365419 0.927763
vt 0.365419 0.927348
vt 0.365350 0.927348
vt 0.365350 0.927763
vt 0.354583 0.928038
vt 0.354614 0.928064
vt 0.354652 0.928124
vt 0.354652 0.928223
vt 0.354625 0.928223
vt 0.354583 0.928181
vt 0.365235 0.927348
vt 0.365235 0.927763
vt 0.365648 0.927763
vt 0.365648 0.927348
vt 0.365579 0.927348
vt 0.365579 0.927763
vt 0.365533 0.927763
vt 0.365533 0.927348
vt 0.365464 0.927348
vt 0.365464 0.927763
vt 0.365877 0.927302
vt 0.365877 0.926887
vt 0.365808 0.926887
vt 0.365808 0.927302
vt 0.354501 0.928223
vt 0.354478 0.928121
vt 0.354469 0.928038
vt 0.354522 0.928038
vt 0.354538 0.928149
vt 0.354538 0.928223
vt 0.361988 0.895619
vt 0.361988 0.895281
vt 0.361838 0.895281
vt 0.361838 0.895619
vt 0.369080 0.892561
vt 0.369023 0.892561
vt 0.369023 0.892618
vt 0.369080 0.892618
vt 0.357546 0.893803
vt 0.357546 0.893780
vt 0.357602 0.893780
vt 0.367120 0.892243
vt 0.367120 0.891905
vt 0.367064 0.891905
vt 0.367064 0.892243
vt 0.367400 0.892243
vt 0.367400 0.891905
vt 0.367344 0.891905
vt 0.367344 0.892243
vt 0.367251 0.891905
vt 0.367251 0.892243
vt 0.366840 0.892243
vt 0.366840 0.891905
vt 0.366784 0.891905
vt 0.366784 0.892243
vt 0.366747 0.892243
vt 0.366747 0.891905
vt 0.366691 0.891905
vt 0.366691 0.892243
vt 0.367027 0.892243
vt 0.367027 0.891905
vt 0.366971 0.891905
vt 0.366971 0.892243
vt 0.357509 0.893931
vt 0.357509 0.893780
vt 0.357453 0.893780
vt 0.357453 0.893931
vt 0.368986 0.892561
vt 0.368930 0.892561
vt 0.368930 0.892618
vt 0.368986 0.892618
vt 0.357416 0.893780
vt 0.357359 0.893780
vt 0.357359 0.893931
vt 0.357416 0.893931
vt 0.357696 0.893780
vt 0.357639 0.893780
vt 0.357639 0.893931
vt 0.357696 0.893931
vt 0.369080 0.892467
vt 0.369023 0.892467
vt 0.369023 0.892524
vt 0.369080 0.892524
vt 0.368986 0.892467
vt 0.368930 0.892467
vt 0.368930 0.892524
vt 0.368986 0.892524
vt 0.362398 0.894404
vt 0.362438 0.894404
vt 0.362438 0.894246
vt 0.362398 0.894246
vt 0.357509 0.893968
vt 0.357453 0.893968
vt 0.357453 0.894118
vt 0.357509 0.894118
vt 0.361988 0.895619
vt 0.361838 0.895619
vt 0.361838 0.895281
vt 0.361988 0.895281
vt 0.369080 0.892561
vt 0.369080 0.892618
vt 0.369023 0.892618
vt 0.369023 0.892561
vt 0.355829 0.895656
vt 0.355829 0.895994
vt 0.355493 0.895994
vt 0.355493 0.895656
vt 0.361084 0.922617
vt 0.361084 0.922592
vt 0.361038 0.922617
vt 0.367120 0.892243
vt 0.367120 0.891905
vt 0.367400 0.892243
vt 0.367344 0.892243
vt 0.367344 0.891905
vt 0.367400 0.891905
vt 0.367251 0.892243
vt 0.367251 0.891905
vt 0.366840 0.892243
vt 0.366784 0.892243
vt 0.366784 0.891905
vt 0.366840 0.891905
vt 0.366747 0.892243
vt 0.366691 0.892243
vt 0.366691 0.891905
vt 0.366747 0.891905
vt 0.366971 0.892243
vt 0.366971 0.891905
vt 0.357509 0.893931
vt 0.357453 0.893931
vt 0.357453 0.893780
vt 0.357509 0.893780
vt 0.368986 0.892561
vt 0.368986 0.892618
vt 0.368930 0.892618
vt 0.368930 0.892561
vt 0.357359 0.893931
vt 0.357359 0.893780
vt 0.362361 0.894494
vt 0.362212 0.894494
vt 0.362212 0.894155
vt 0.362361 0.894155
vt 0.357696 0.893780
vt 0.357696 0.893931
vt 0.369080 0.892467
vt 0.369080 0.892524
vt 0.369023 0.892524
vt 0.369023 0.892467
vt 0.368986 0.892467
vt 0.368986 0.892524
vt 0.368930 0.892524
vt 0.368930 0.892467
vt 0.357546 0.893780
vt 0.357546 0.893803
vt 0.357509 0.893968
vt 0.357509 0.894118
vt 0.357453 0.894118
vt 0.357453 0.893968
vt 0.360317 0.925515
vt 0.360317 0.925540
vt 0.360317 0.925540
vt 0.361004 0.922648
vt 0.361014 0.922626
vt 0.360978 0.922592
vt 0.360978 0.922698
vt 0.361110 0.922565
vt 0.361158 0.922531
vt 0.361145 0.922509
vt 0.361110 0.922459
vt 0.362306 0.922326
vt 0.362300 0.922265
vt 0.362304 0.922224
vt 0.362308 0.922230
vt 0.362320 0.922346
vt 0.361084 0.925647
vt 0.361044 0.925647
vt 0.361044 0.925754
vt 0.361084 0.925754
vt 0.361018 0.925647
vt 0.360978 0.925647
vt 0.360978 0.925754
vt 0.361018 0.925754
vt 0.361216 0.925754
vt 0.361216 0.925647
vt 0.361176 0.925647
vt 0.361176 0.925754
vt 0.360753 0.922724
vt 0.360714 0.922724
vt 0.360714 0.923230
vt 0.360753 0.923230
vt 0.355664 0.927508
vt 0.355558 0.927508
vt 0.355558 0.928013
vt 0.355664 0.928013
vt 0.360952 0.922724
vt 0.360912 0.922724
vt 0.360912 0.923230
vt 0.360952 0.923230
vt 0.362499 0.922310
vt 0.362506 0.922227
vt 0.362521 0.922193
vt 0.362521 0.922225
vt 0.362509 0.922305
vt 0.362521 0.922431
vt 0.362505 0.922414
vt 0.362508 0.922406
vt 0.362538 0.922433
vt 0.363992 0.928118
vt 0.363965 0.928146
vt 0.363992 0.928146
vt 0.354765 0.928930
vt 0.354765 0.928836
vt 0.354792 0.928836
vt 0.361150 0.925754
vt 0.361150 0.925647
vt 0.361110 0.925647
vt 0.361110 0.925754
vt 0.361084 0.925887
vt 0.361084 0.925780
vt 0.361044 0.925780
vt 0.361044 0.925887
vt 0.354144 0.928172
vt 0.354104 0.928172
vt 0.354104 0.928212
vt 0.354144 0.928212
vt 0.354342 0.928238
vt 0.354302 0.928238
vt 0.354302 0.928278
vt 0.354342 0.928278
vt 0.362198 0.924319
vt 0.362168 0.924319
vt 0.362168 0.924558
vt 0.362198 0.924558
vt 0.360978 0.925887
vt 0.361018 0.925887
vt 0.361018 0.925865
vt 0.360978 0.925856
vt 0.361176 0.925865
vt 0.361176 0.925887
vt 0.361216 0.925887
vt 0.361216 0.925856
vt 0.354276 0.928238
vt 0.354236 0.928238
vt 0.354236 0.928278
vt 0.354276 0.928278
vt 0.354342 0.928172
vt 0.354302 0.928172
vt 0.354302 0.928212
vt 0.354342 0.928212
vt 0.354276 0.928172
vt 0.354236 0.928172
vt 0.354236 0.928212
vt 0.354276 0.928212
vt 0.353946 0.928105
vt 0.353906 0.928105
vt 0.353906 0.928146
vt 0.353946 0.928146
vt 0.361150 0.925887
vt 0.361150 0.925780
vt 0.361110 0.925780
vt 0.361110 0.925887
vt 0.363199 0.922698
vt 0.363199 0.922459
vt 0.363159 0.922459
vt 0.363159 0.922698
vt 0.363133 0.922698
vt 0.363133 0.922459
vt 0.363093 0.922459
vt 0.363093 0.922698
vt 0.360820 0.925754
vt 0.360820 0.925647
vt 0.360780 0.925647
vt 0.360780 0.925754
vt 0.360714 0.925647
vt 0.360714 0.925754
vt 0.360952 0.925754
vt 0.360952 0.925647
vt 0.360912 0.925647
vt 0.360912 0.925754
vt 0.361145 0.922459
vt 0.361145 0.922509
vt 0.355055 0.928829
vt 0.355055 0.928829
vt 0.355055 0.912130
vt 0.355055 0.912130
vt 0.355716 0.912130
vt 0.355716 0.928829
vt 0.357312 0.928829
vt 0.357312 0.912130
vt 0.358666 0.928829
vt 0.360471 0.928008
vt 0.360471 0.912130
vt 0.360471 0.912130
vt 0.361121 0.922698
vt 0.361110 0.922698
vt 0.361110 0.922673
vt 0.361139 0.922677
vt 0.362321 0.922200
vt 0.362304 0.922224
vt 0.362308 0.922230
vt 0.362340 0.922193
vt 0.362521 0.922431
vt 0.362538 0.922433
vt 0.362508 0.922406
vt 0.362505 0.922414
vt 0.361084 0.925647
vt 0.361044 0.925647
vt 0.361018 0.925754
vt 0.360978 0.925754
vt 0.361216 0.925754
vt 0.361216 0.925647
vt 0.360714 0.923230
vt 0.360714 0.922724
vt 0.355267 0.928039
vt 0.355267 0.928544
vt 0.355161 0.928544
vt 0.355161 0.928039
vt 0.355664 0.927508
vt 0.355664 0.928013
vt 0.355558 0.928013
vt 0.355558 0.927508
vt 0.360952 0.922724
vt 0.360952 0.923230
vt 0.362474 0.925355
vt 0.362538 0.925355
vt 0.362538 0.925328
vt 0.362509 0.922305
vt 0.362510 0.922303
vt 0.362499 0.922314
vt 0.361150 0.925667
vt 0.361150 0.925754
vt 0.361110 0.925754
vt 0.361110 0.925663
vt 0.361084 0.925887
vt 0.361044 0.925887
vt 0.361044 0.925780
vt 0.361084 0.925780
vt 0.362364 0.925355
vt 0.362538 0.925291
vt 0.362300 0.925291
vt 0.362300 0.925328
vt 0.354276 0.928238
vt 0.354276 0.928278
vt 0.354236 0.928278
vt 0.354236 0.928238
vt 0.354342 0.928172
vt 0.354342 0.928212
vt 0.354302 0.928212
vt 0.354302 0.928172
vt 0.354276 0.928172
vt 0.354236 0.928172
vt 0.353946 0.928146
vt 0.353906 0.928146
vt 0.358440 0.925406
vt 0.359130 0.925521
vt 0.359117 0.915439
vt 0.358440 0.915552
vt 0.361150 0.925887
vt 0.361110 0.925887
vt 0.361110 0.925780
vt 0.361150 0.925780
vt 0.360820 0.925754
vt 0.360780 0.925754
vt 0.360780 0.925647
vt 0.360820 0.925647
vt 0.360714 0.925754
vt 0.360714 0.925647
vt 0.360952 0.925647
vt 0.360952 0.925754
vt 0.360914 0.925754
vt 0.360914 0.925647
vt 0.355055 0.912130
vt 0.355055 0.928829
vt 0.355716 0.912130
vt 0.355716 0.928829
vt 0.357312 0.928829
vt 0.357312 0.912130
vt 0.358666 0.928829
vt 0.360020 0.912130
vt 0.360020 0.928213
vt 0.352628 0.866113
vt 0.352186 0.866113
vt 0.352186 0.867052
vt 0.352628 0.867052
vt 0.352137 0.868039
vt 0.352137 0.867101
vt 0.351695 0.867101
vt 0.351695 0.868039
vt 0.353120 0.868039
vt 0.353120 0.867101
vt 0.352677 0.867101
vt 0.352677 0.868039
vt 0.365892 0.854264
vt 0.365449 0.854264
vt 0.365449 0.854709
vt 0.365892 0.854709
vt 0.365400 0.854264
vt 0.364958 0.854264
vt 0.364958 0.854709
vt 0.365400 0.854709
vt 0.352628 0.866113
vt 0.352628 0.867052
vt 0.352137 0.868039
vt 0.352137 0.867101
vt 0.351646 0.868039
vt 0.351203 0.868039
vt 0.351203 0.867101
vt 0.351646 0.867101
vt 0.353120 0.868039
vt 0.352677 0.868039
vt 0.352677 0.867101
vt 0.353120 0.867101
vt 0.365449 0.854709
vt 0.365449 0.854264
vt 0.365400 0.854264
vt 0.365400 0.854709
vt 0.362398 0.894246
vt 0.362438 0.894246
vt 0.362438 0.894404
vt 0.362398 0.894404
vt 0.362548 0.894494
vt 0.362438 0.894494
vt 0.357546 0.893931
vt 0.357546 0.893908
vt 0.357602 0.893931
vt 0.362438 0.894155
vt 0.362548 0.894155
vt 0.362438 0.894494
vt 0.362438 0.894155
vt 0.361149 0.922679
vt 0.361110 0.922673
vt 0.361110 0.922698
vt 0.357546 0.893908
vt 0.357546 0.893931
vt 0.360357 0.925515
vt 0.360357 0.925537
vt 0.361216 0.922698
vt 0.361216 0.922676
vt 0.361004 0.922698
vt 0.362321 0.922405
vt 0.362337 0.922402
vt 0.362340 0.922433
vt 0.361216 0.922565
vt 0.361216 0.922540
vt 0.361190 0.922540
vt 0.361064 0.922592
vt 0.361077 0.922617
vt 0.361038 0.922617
vt 0.362498 0.922374
vt 0.362321 0.922200
vt 0.362340 0.922193
vt 0.363631 0.926572
vt 0.363630 0.914386
vt 0.361014 0.922626
vt 0.361004 0.922648
vt 0.360978 0.922592
vt 0.361190 0.922540
vt 0.361216 0.922540
vt 0.361216 0.922565
vt 0.365436 0.914386
vt 0.365436 0.926572
vt 0.361158 0.922531
vt 0.361110 0.922565
vt 0.362300 0.922265
vt 0.362306 0.922322
vt 0.362318 0.922329
vt 0.354105 0.928212
vt 0.354105 0.928212
vt 0.354104 0.928212
vt 0.362498 0.922374
vt 0.359130 0.925527
vt 0.359188 0.928591
vt 0.354104 0.928172
vt 0.354108 0.928172
vt 0.362300 0.925355
vt 0.359117 0.912130
vn 0.7768 -0.0000 -0.6298
vn -1.0000 0.0000 -0.0000
vn 0.0000 1.0000 0.0000
vn 0.0000 0.0000 -1.0000
vn 0.5505 -0.0000 -0.8348
vn 0.0000 0.0000 1.0000
vn -0.7071 0.0000 0.7071
vn 0.0000 -1.0000 -0.0000
vn 0.0000 -0.9104 -0.4138
vn 0.0000 0.9104 -0.4138
vn 1.0000 0.0000 0.0000
vn 0.0000 -0.9565 -0.2919
vn 0.0000 -0.9864 0.1644
vn -0.0000 0.9864 0.1644
vn 0.9605 0.0290 -0.2769
vn 0.9293 0.0383 -0.3673
vn 0.3519 -0.0361 0.9353
vn 0.3519 0.0361 0.9353
vn 0.7193 0.0000 -0.6947
vn 0.9866 0.0000 -0.1635
vn 0.9239 0.0000 0.3827
vn 0.3827 0.0000 0.9239
vn -0.3827 0.0000 -0.9239
vn -0.9239 0.0000 -0.3827
vn 0.0000 0.9864 0.1643
vn -0.3519 -0.0361 0.9353
vn -0.3519 0.0361 0.9353
vn -0.4472 0.0000 -0.8944
vn -0.9239 0.0000 0.3827
vn -0.3827 0.0000 0.9239
vn 0.3827 0.0000 -0.9239
vn 0.9239 0.0000 -0.3827
vn 0.0000 -0.8137 -0.5812
vn -0.9648 0.0000 0.2631
vn -0.9588 0.0000 -0.2840
vn -0.9605 0.0316 -0.2763
usemtl Material.008
s off
f 6/1/1 7/2/1 4/3/1 3/4/1
f 10/5/2 11/6/2 2/7/2 1/8/2
f 4/9/3 7/10/3 8/11/3 2/12/3 11/13/3 12/14/3
f 1/8/4 2/7/4 8/15/4 5/16/4
f 7/17/5 6/18/5 5/19/5 8/20/5
f 3/21/6 4/22/6 12/23/6 9/24/6
f 11/25/7 10/26/7 9/27/7 12/28/7
f 5/29/8 6/30/8 3/31/8 9/32/8 10/33/8 1/34/8
f 14/35/2 19/36/2 23/37/2 16/38/2
f 21/39/2 20/40/2 28/41/2 29/42/2
f 29/43/4 28/44/4 48/45/4
f 17/46/8 22/47/8 34/48/8 32/49/8
f 22/50/2 17/51/2 18/52/2 24/53/2
f 24/53/8 18/52/8 16/54/8 23/55/8
f 13/56/2 20/57/2 21/58/2 15/59/2
f 15/60/3 21/61/3 19/62/3 14/63/3
f 31/64/3 33/65/3 20/66/3 13/67/3
f 23/68/2 19/69/2 30/70/2 27/71/2
f 19/72/3 21/73/3 29/74/3 30/75/3
f 34/76/9 22/77/9 26/78/9 47/79/9
f 20/80/10 33/81/10 48/82/10 28/83/10
f 24/84/8 23/85/8 27/86/8 25/87/8
f 22/88/2 24/89/2 25/90/2 26/91/2
f 36/92/6 37/93/6 40/94/6 38/95/6
f 25/96/4 27/97/4 30/98/4 29/99/4
f 36/100/11 38/101/11 45/102/11 41/103/11
f 43/104/11 53/105/11 52/106/11 42/107/11
f 32/108/2 31/109/2 33/110/2 34/111/2
f 86/112/8 57/113/8 91/114/8
f 39/115/8 32/49/8 34/48/8 44/116/8
f 44/117/11 46/118/11 40/119/11 39/120/11
f 46/118/8 45/121/8 38/122/8 40/119/8
f 35/123/11 37/124/11 43/125/11 42/126/11
f 37/127/3 36/128/3 41/129/3 43/130/3
f 31/64/3 35/131/3 42/132/3 33/65/3
f 45/133/11 51/134/11 54/135/11 41/136/11
f 41/137/3 54/138/3 53/139/3 43/140/3
f 34/76/9 47/79/9 50/141/9 44/142/9
f 33/143/2 48/144/2 47/145/2 34/146/2
f 42/147/10 52/148/10 48/82/10 33/81/10
f 46/149/8 49/150/8 51/151/8 45/152/8
f 44/153/11 50/154/11 49/155/11 46/156/11
f 48/45/4 52/157/4 53/158/4
f 49/159/4 53/160/4 54/161/4 51/162/4
f 57/163/12 86/164/12 85/165/12
f 92/166/8 93/167/8 60/168/8 100/169/8
f 61/170/3 95/171/3 94/172/3 102/173/3
f 74/174/13 79/175/13 81/176/13 70/177/13 72/178/13
f 60/179/8 62/180/8 104/181/8 100/182/8
f 102/183/3 106/184/3 63/185/3 61/186/3
f 64/187/6 65/188/6 110/189/6 109/190/6
f 110/191/3 65/192/3 67/193/3 114/194/3
f 65/195/11 64/196/11 66/197/11 67/198/11
f 64/199/8 109/200/8 112/201/8 66/202/8
f 76/203/14 78/204/14 77/205/14 69/206/14 73/207/14
f 82/208/14 84/209/14 71/210/14 67/211/14
f 59/212/11 68/213/11 55/214/11
f 77/215/11 56/216/11 69/217/11
f 60/218/11 57/219/11 72/220/11 70/221/11
f 58/222/11 61/223/11 71/224/11 73/225/11
f 56/226/15 58/227/15 73/228/15 69/229/15
f 72/230/16 57/231/16 55/232/16 68/233/16
f 97/234/4 77/235/4 59/236/4 98/237/4
f 59/238/8 55/239/8 87/240/8 98/241/8
f 90/242/3 56/243/3 77/244/3 97/245/3
f 71/246/17 61/247/17 63/248/17 67/249/17
f 66/250/18 62/251/18 60/252/18 70/253/18
f 67/254/6 63/255/6 106/256/6 114/257/6
f 112/258/6 104/259/6 62/260/6 66/261/6
f 67/262/6 66/263/6 80/264/6 82/265/6
f 59/266/19 77/267/19 78/268/19 75/269/19
f 75/270/20 78/271/20 76/272/20 74/273/20
f 79/274/21 83/275/21 84/276/21 81/277/21
f 81/277/22 84/276/22 82/278/22 80/279/22
f 83/280/11 79/281/11 74/282/11 76/283/11
f 102/173/3 131/284/3 130/285/3
f 131/286/4 94/287/4 92/288/4 129/289/4
f 93/290/23 92/288/23 94/287/23 95/291/23
f 96/292/24 91/293/24 93/290/24 95/291/24
f 96/292/2 88/294/2 89/295/2 85/296/2 86/297/2 91/293/2
f 135/298/10 99/299/10 125/300/10 134/301/10
f 120/302/13 121/303/13 116/304/13 113/305/13
f 122/306/14 115/307/14 117/308/14 124/309/14
f 101/310/8 100/182/8 104/181/8 105/311/8
f 102/183/3 103/312/3 107/313/3 106/184/3
f 108/314/6 109/190/6 110/189/6 111/315/6
f 110/191/3 114/194/3 115/316/3 111/317/3
f 109/318/11 112/319/11 114/320/11 110/321/11
f 111/322/2 115/323/2 113/324/2 108/325/2
f 108/326/8 113/327/8 112/201/8 109/200/8
f 112/328/11 104/329/11 100/330/11
f 118/331/25 140/332/25 141/333/25
f 137/334/2 101/335/2 116/336/2 139/337/2
f 99/338/2 118/339/2 117/340/2 103/341/2
f 114/342/11 112/328/11 100/330/11 129/343/11 131/344/11 102/345/11
f 117/346/26 115/347/26 107/348/26 103/349/26
f 113/350/27 116/351/27 101/352/27 105/353/27
f 115/354/6 114/257/6 106/256/6 107/355/6
f 112/258/6 113/356/6 105/357/6 104/259/6
f 141/358/28 140/359/28 139/360/28 138/361/28
f 115/362/6 122/363/6 120/364/6 113/365/6
f 119/366/29 121/367/29 124/368/29 123/369/29
f 121/367/30 120/370/30 122/371/30 124/368/30
f 119/372/2 123/373/2 141/374/2 138/375/2
f 131/286/4 129/289/4 127/376/4 130/377/4
f 128/378/31 132/379/31 130/377/31 127/376/31
f 133/380/32 132/379/32 128/378/32 126/381/32
f 125/382/11 133/380/11 126/381/11 136/383/11 134/384/11
f 144/385/8 149/386/8 147/387/8 143/388/8
f 146/389/3 145/390/3 151/391/3 154/392/3
f 144/393/2 143/394/2 145/395/2 146/396/2
f 149/397/4 144/398/4 146/399/4 154/400/4
f 143/401/6 147/402/6 151/403/6 145/404/6
f 150/405/8 148/406/8 147/387/8 149/386/8
f 153/407/3 154/392/3 151/391/3 152/408/3
f 147/409/2 151/410/2 154/411/2 149/412/2
f 150/413/11 153/414/11 152/415/11 148/416/11
f 149/397/4 154/400/4 153/417/4 150/418/4
f 148/419/6 152/420/6 151/403/6 147/402/6
f 16/421/6 18/422/6 15/423/6 14/424/6
f 31/425/6 13/426/6 15/423/6
f 26/427/4 25/428/4 47/429/4
f 18/422/6 17/430/6 32/431/6
f 35/432/6 31/425/6 37/93/6
f 15/423/6 18/422/6 32/431/6 31/425/6
f 48/45/4 47/429/4 25/428/4 29/43/4
f 32/431/6 39/433/6 40/94/6
f 89/434/10 88/435/10 58/436/10
f 49/437/4 50/438/4 47/429/4
f 32/431/6 40/94/6 37/93/6 31/425/6
f 49/437/4 47/429/4 48/45/4 53/158/4
f 55/439/33 57/163/33 85/165/33 87/440/33
f 56/441/10 90/442/10 89/434/10 58/436/10
f 131/284/3 102/173/3 94/172/3
f 100/169/8 129/443/8 92/166/8
f 75/444/13 74/174/13 72/178/13 68/445/13 59/446/13
f 60/168/8 93/167/8 91/114/8 57/113/8
f 58/447/3 88/448/3 96/449/3
f 137/450/8 136/451/8 126/452/8
f 96/449/3 95/171/3 61/170/3 58/447/3
f 73/207/14 71/210/14 84/209/14 83/453/14 76/203/14
f 81/176/13 80/454/13 66/455/13 70/177/13
f 89/295/34 90/456/34 87/457/34 85/296/34
f 128/458/8 127/459/8 100/169/8 101/460/8
f 133/461/3 125/462/3 99/463/3
f 129/443/8 100/169/8 127/459/8
f 98/464/34 87/457/34 90/456/34 97/465/34
f 126/452/8 128/458/8 101/460/8 137/450/8
f 130/285/3 132/466/3 103/467/3 102/173/3
f 119/468/13 138/469/13 139/470/13 116/304/13 121/303/13
f 103/467/3 132/466/3 133/461/3 99/463/3
f 142/471/35 140/472/35 118/473/35
f 117/308/14 118/331/14 141/333/14 123/474/14 124/309/14
f 140/359/28 142/475/28 135/476/28 134/384/28
f 142/471/36 118/473/36 99/477/36 135/478/36
f 102/345/11 106/479/11 114/342/11
f 139/360/28 140/359/28 134/384/28 136/383/28 137/480/28
