# Blender v3.0.1 OBJ File: 'Main.blend'
# www.blender.org
o Cube.5421_0158
v -1.441501 -0.000000 2.874000
v -1.441501 0.366000 2.874000
v -1.404001 -0.000000 2.874000
v -1.404001 0.366000 2.874000
v -1.441501 -0.000000 2.910000
v -1.441501 0.366000 2.910000
v -1.404001 -0.000000 2.910000
v -1.404001 0.366000 2.910000
v -1.441501 -0.000000 2.949000
v -1.441501 0.366000 2.949000
v -1.380001 -0.000000 2.910000
v -1.380001 0.366000 2.910000
v -1.380001 -0.000000 2.949000
v -1.380001 0.366000 2.949000
v -1.398001 -0.000000 3.003000
v -1.398001 0.366000 3.003000
v -1.368001 -0.000000 2.949000
v -1.368001 0.366000 2.949000
v -1.368001 -0.000000 3.003000
v -1.368001 0.366000 3.003000
vt 0.072938 0.903270
vt 0.072261 0.896665
vt 0.072938 0.896665
vt 0.695340 0.896907
vt 0.694691 0.903512
vt 0.694691 0.896907
vt 0.810646 0.878164
vt 0.811152 0.871560
vt 0.811152 0.878164
vt 0.810098 0.878164
vt 0.810646 0.871560
vt 0.190778 0.896508
vt 0.190075 0.903113
vt 0.190075 0.896508
vt 0.910552 0.188582
vt 0.910335 0.195186
vt 0.910335 0.188582
vt 0.006715 0.899940
vt 0.006282 0.906545
vt 0.006282 0.899940
vt 0.808508 0.878164
vt 0.808848 0.871560
vt 0.808848 0.878164
vt 0.810098 0.871560
vt 0.591425 0.891926
vt 0.590451 0.898530
vt 0.590451 0.891926
vt 0.803982 0.517769
vt 0.803549 0.517065
vt 0.804658 0.517065
vt 0.777929 0.204404
vt 0.777929 0.205053
vt 0.777253 0.205053
vt 0.072261 0.903270
vt 0.695340 0.903512
vt 0.190778 0.903113
vt 0.910552 0.195186
vt 0.006715 0.906545
vt 0.808508 0.871560
vt 0.591425 0.898530
vt 0.804658 0.518418
vt 0.803982 0.518418
vt 0.803549 0.517769
vt 0.803332 0.517065
vt 0.803332 0.516090
vt 0.803873 0.516090
vt 0.804658 0.517769
vt 0.777253 0.204404
vt 0.777253 0.203700
vt 0.778038 0.202726
vt 0.778362 0.203700
vt 0.778579 0.202726
vt 0.778579 0.203700
vt 0.778362 0.204404
vn 0.0000 0.0000 -1.0000
vn 1.0000 0.0000 0.0000
vn -1.0000 0.0000 0.0000
vn 0.0000 0.0000 1.0000
vn -0.7788 0.0000 0.6273
vn 0.0000 -1.0000 -0.0000
vn 0.0000 1.0000 0.0000
s off
f 3/1/1 2/2/1 4/3/1
f 8/4/2 3/5/2 4/6/2
f 5/7/3 2/8/3 1/9/3
f 9/10/3 6/11/3 5/7/3
f 14/12/2 11/13/2 12/14/2
f 18/15/1 13/16/1 14/17/1
f 12/18/1 7/19/1 8/20/1
f 19/21/4 16/22/4 15/23/4
f 15/23/5 10/24/5 9/10/5
f 20/25/2 17/26/2 18/27/2
f 7/28/6 13/29/6 9/30/6
f 8/31/7 4/32/7 2/33/7
f 3/1/1 1/34/1 2/2/1
f 8/4/2 7/35/2 3/5/2
f 5/7/3 6/11/3 2/8/3
f 9/10/3 10/24/3 6/11/3
f 14/12/2 13/36/2 11/13/2
f 18/15/1 17/37/1 13/16/1
f 12/18/1 11/38/1 7/19/1
f 19/21/4 20/39/4 16/22/4
f 15/23/5 16/22/5 10/24/5
f 20/25/2 19/40/2 17/26/2
f 1/41/6 3/42/6 7/28/6
f 7/28/6 11/43/6 13/29/6
f 13/29/6 17/44/6 19/45/6
f 19/45/6 15/46/6 13/29/6
f 15/46/6 9/30/6 13/29/6
f 5/47/6 1/41/6 7/28/6
f 9/30/6 5/47/6 7/28/6
f 6/48/7 10/49/7 8/31/7
f 10/49/7 16/50/7 14/51/7
f 8/31/7 10/49/7 14/51/7
f 16/50/7 20/52/7 14/51/7
f 20/52/7 18/53/7 14/51/7
f 14/51/7 12/54/7 8/31/7
f 2/33/7 6/48/7 8/31/7
