# Blender v3.0.1 OBJ File: 'Main.blend'
# www.blender.org
o Cube.5260_0314
v -0.495223 0.429000 -1.059000
v -0.503071 0.429000 -1.059000
v -0.495223 0.429000 -1.071000
v -0.503071 0.429000 -1.071000
v -0.547547 0.429000 -1.059000
v -0.555395 0.429000 -1.059000
v -0.547547 0.429000 -1.071000
v -0.555395 0.429000 -1.071000
v -0.599870 0.429000 -1.059000
v -0.607719 0.429000 -1.059000
v -0.599870 0.429000 -1.071000
v -0.607719 0.429000 -1.071000
v -0.652194 0.429000 -1.059000
v -0.660043 0.429000 -1.059000
v -0.652194 0.429000 -1.071000
v -0.660043 0.429000 -1.071000
v -0.704518 0.429000 -1.059000
v -0.712366 0.429000 -1.059000
v -0.704518 0.429000 -1.071000
v -0.712366 0.429000 -1.071000
v -0.756841 0.429000 -1.059000
v -0.764690 0.429000 -1.059000
v -0.756841 0.429000 -1.071000
v -0.764690 0.429000 -1.071000
v -0.809165 0.429000 -1.059000
v -0.817014 0.429000 -1.059000
v -0.809165 0.429000 -1.071000
v -0.817014 0.429000 -1.071000
v -0.861489 0.429000 -1.059000
v -0.869337 0.429000 -1.059000
v -0.861489 0.429000 -1.071000
v -0.869337 0.429000 -1.071000
v -0.913813 0.429000 -1.059000
v -0.921661 0.429000 -1.059000
v -0.913813 0.429000 -1.071000
v -0.921661 0.429000 -1.071000
v -0.966136 0.429000 -1.059000
v -0.973985 0.429000 -1.059000
v -0.966136 0.429000 -1.071000
v -0.973985 0.429000 -1.071000
v -1.018460 0.429000 -1.059000
v -1.026309 0.429000 -1.059000
v -1.018460 0.429000 -1.071000
v -1.026309 0.429000 -1.071000
v -1.070784 0.429000 -1.059000
v -1.078632 0.429000 -1.059000
v -1.070784 0.429000 -1.071000
v -1.078632 0.429000 -1.071000
v -1.123108 0.429000 -1.059000
v -1.130956 0.429000 -1.059000
v -1.123108 0.429000 -1.071000
v -1.130956 0.429000 -1.071000
v -0.497512 0.559088 -1.059000
v -0.495223 0.555046 -1.059000
v -0.503071 0.568192 -1.059000
v -1.130956 0.555046 -1.059000
v -0.503071 0.568192 -1.071000
v -1.130956 0.555046 -1.071000
v -0.817014 0.751422 -1.059000
v -0.495223 0.555046 -1.071000
v -0.497512 0.559088 -1.071000
v -0.866066 0.747252 -1.059000
v -0.866066 0.747252 -1.071000
v -0.869337 0.746658 -1.059000
v -1.128667 0.559088 -1.071000
v -0.813089 0.751500 -1.059000
v -0.547547 0.627710 -1.059000
v -0.817014 0.751422 -1.071000
v -0.809165 0.751422 -1.071000
v -0.548664 0.628992 -1.059000
v -0.813089 0.751500 -1.071000
v -1.123108 0.568192 -1.071000
v -0.555395 0.636190 -1.059000
v -0.809165 0.751422 -1.059000
v -0.555395 0.636190 -1.071000
v -0.861489 0.747897 -1.059000
v -1.123108 0.568192 -1.059000
v -0.547547 0.627710 -1.071000
v -0.548664 0.628992 -1.071000
v -0.869337 0.746658 -1.071000
v -0.861489 0.747897 -1.071000
v -1.128667 0.559088 -1.059000
v -0.760113 0.747252 -1.059000
v -0.756841 0.746658 -1.071000
v -0.760113 0.747252 -1.071000
v -0.600230 0.676875 -1.059000
v -0.599870 0.676586 -1.059000
v -0.756841 0.746658 -1.059000
v -0.918012 0.734591 -1.059000
v -0.913813 0.735881 -1.059000
v -0.607719 0.682452 -1.059000
v -0.764690 0.747897 -1.071000
v -0.921661 0.733312 -1.059000
v -0.764690 0.747897 -1.059000
v -0.607719 0.682452 -1.071000
v -0.708167 0.734591 -1.059000
v -0.704518 0.733312 -1.071000
v -0.708167 0.734591 -1.071000
v -0.921661 0.733312 -1.071000
v -1.077515 0.628992 -1.059000
v -1.070784 0.636189 -1.071000
v -0.704518 0.733312 -1.059000
v -1.077515 0.628992 -1.071000
v -0.918012 0.734591 -1.071000
v -0.712366 0.735881 -1.071000
v -1.070784 0.636190 -1.059000
v -0.599870 0.676586 -1.071000
v -0.600230 0.676875 -1.071000
v -0.913813 0.735881 -1.071000
v -1.078632 0.627710 -1.071000
v -0.712366 0.735881 -1.059000
v -1.078632 0.627710 -1.059000
v -0.967916 0.713763 -1.059000
v -0.966136 0.714629 -1.059000
v -0.973985 0.710518 -1.059000
v -0.658263 0.713763 -1.059000
v -0.652194 0.710518 -1.071000
v -0.652194 0.710518 -1.059000
v -0.658263 0.713763 -1.071000
v -0.660043 0.714629 -1.059000
v -0.973985 0.710518 -1.071000
v -0.660043 0.714629 -1.071000
v -0.967916 0.713763 -1.071000
v -0.966136 0.714629 -1.071000
v -1.025949 0.676875 -1.059000
v -1.026309 0.676586 -1.059000
v -1.026309 0.676586 -1.071000
v -1.025949 0.676875 -1.071000
v -1.018460 0.682452 -1.071000
v -1.018460 0.682452 -1.059000
vt 0.937987 0.323124
vt 0.938102 0.325472
vt 0.937940 0.323197
vt 0.769467 0.935047
vt 0.769684 0.937558
vt 0.769467 0.937558
vt 0.937986 0.384671
vt 0.937986 0.382159
vt 0.938101 0.382324
vt 0.638503 0.937519
vt 0.638287 0.935246
vt 0.638503 0.935246
vt 0.986071 0.486746
vt 0.986233 0.486963
vt 0.986071 0.486963
vt 0.930371 0.322641
vt 0.930510 0.326250
vt 0.930348 0.322664
vt 0.929864 0.548457
vt 0.930081 0.544719
vt 0.930081 0.548457
vt 0.930446 0.597888
vt 0.930446 0.601474
vt 0.930283 0.601474
vt 0.930021 0.201423
vt 0.929805 0.197840
vt 0.930021 0.197840
vt 0.986038 0.972244
vt 0.986200 0.972460
vt 0.986038 0.972460
vt 0.286581 0.919404
vt 0.286736 0.923877
vt 0.286574 0.919410
vt 0.923334 0.665738
vt 0.923551 0.661164
vt 0.923551 0.665738
vt 0.829173 0.727220
vt 0.829173 0.731793
vt 0.829018 0.731693
vt 0.371599 0.923702
vt 0.371383 0.919238
vt 0.371599 0.919238
vt 0.986038 0.795966
vt 0.986200 0.796183
vt 0.986038 0.796183
vt 0.918603 0.773980
vt 0.918441 0.774053
vt 0.918566 0.773995
vt 0.917483 0.481398
vt 0.917266 0.486552
vt 0.917266 0.481398
vt 0.918368 0.557450
vt 0.918531 0.552370
vt 0.918531 0.557523
vt 0.423333 0.917912
vt 0.423116 0.912836
vt 0.423333 0.912836
vt 0.986082 0.985586
vt 0.986244 0.985802
vt 0.986082 0.985802
vt 0.462194 0.910435
vt 0.462031 0.910481
vt 0.462107 0.910458
vt 0.154407 0.915116
vt 0.154623 0.909579
vt 0.154623 0.915116
vt 0.458334 0.910482
vt 0.458171 0.915973
vt 0.458171 0.910435
vt 0.006715 0.915728
vt 0.006499 0.910241
vt 0.006715 0.910241
vt 0.529204 0.985909
vt 0.529367 0.986126
vt 0.529204 0.986126
vt 0.914663 0.204107
vt 0.914500 0.204128
vt 0.914568 0.204118
vt 0.564944 0.913726
vt 0.565161 0.907971
vt 0.565161 0.913726
vt 0.914541 0.881867
vt 0.914379 0.887599
vt 0.914379 0.881845
vt 0.913895 0.675209
vt 0.913678 0.669481
vt 0.913895 0.669481
vt 0.332458 0.985882
vt 0.332621 0.986098
vt 0.332458 0.986098
vt 0.752104 0.852806
vt 0.751942 0.858624
vt 0.751942 0.852806
vt 0.082320 0.913433
vt 0.082537 0.907615
vt 0.082537 0.913433
vt 0.914059 0.506161
vt 0.913897 0.511979
vt 0.913897 0.506161
vt 0.387332 0.913504
vt 0.387115 0.907691
vt 0.387332 0.907691
vt 0.986071 0.482833
vt 0.986233 0.483049
vt 0.986071 0.483049
vt 0.914671 0.552392
vt 0.914509 0.558124
vt 0.914509 0.552370
vt 0.913538 0.542357
vt 0.913755 0.536626
vt 0.913755 0.542357
vt 0.914685 0.178856
vt 0.914523 0.178856
vt 0.914523 0.173124
vt 0.913755 0.295957
vt 0.913538 0.290207
vt 0.913755 0.290207
vt 0.986341 0.911958
vt 0.986503 0.912174
vt 0.986341 0.912174
vt 0.131714 0.910502
vt 0.131801 0.910526
vt 0.131876 0.910549
vt 0.286574 0.915607
vt 0.286790 0.910116
vt 0.286790 0.915607
vt 0.113187 0.916235
vt 0.113025 0.916235
vt 0.113025 0.910743
vt 0.279737 0.915200
vt 0.279520 0.909667
vt 0.279737 0.909667
vt 0.986299 0.692331
vt 0.986462 0.692547
vt 0.986299 0.692547
vt 0.136980 0.918460
vt 0.136980 0.913306
vt 0.137142 0.913380
vt 0.844641 0.638123
vt 0.844858 0.633043
vt 0.844858 0.638123
vt 0.918544 0.178856
vt 0.918382 0.178856
vt 0.918382 0.173776
vt 0.790494 0.917860
vt 0.790277 0.912710
vt 0.790494 0.912710
vt 0.986200 0.641937
vt 0.986362 0.642154
vt 0.986200 0.642154
vt 0.465929 0.923729
vt 0.465929 0.919156
vt 0.466084 0.919257
vt 0.837952 0.923684
vt 0.838169 0.919216
vt 0.838169 0.923684
vt 0.245349 0.923936
vt 0.245187 0.919469
vt 0.245194 0.919463
vt 0.701290 0.923555
vt 0.701073 0.918986
vt 0.701290 0.918986
vt 0.986201 0.292550
vt 0.986363 0.292767
vt 0.986201 0.292767
vt 0.930359 0.352200
vt 0.930499 0.348591
vt 0.930522 0.348614
vt 0.930479 0.582281
vt 0.930696 0.578695
vt 0.930696 0.582281
vt 0.930531 0.589828
vt 0.930369 0.589828
vt 0.930369 0.586242
vt 0.929871 0.222382
vt 0.930088 0.226118
vt 0.929871 0.226118
vt 0.986189 0.078076
vt 0.986351 0.078292
vt 0.986189 0.078292
vt 0.938018 0.897973
vt 0.938018 0.895461
vt 0.938133 0.895625
vt 0.776857 0.937559
vt 0.777074 0.935284
vt 0.777074 0.937559
vt 0.938130 0.238582
vt 0.937968 0.238582
vt 0.937968 0.236307
vt 0.501134 0.937566
vt 0.500918 0.935056
vt 0.501134 0.935056
vt 0.986408 0.666698
vt 0.986570 0.666914
vt 0.986408 0.666914
vt 0.777074 0.935211
vt 0.776857 0.935047
vt 0.777074 0.935047
vt 0.776857 0.935211
vt 0.776857 0.935284
vt 0.657877 0.985905
vt 0.657733 0.985688
vt 0.657877 0.985688
vt 0.657709 0.985905
vt 0.657709 0.985688
vt 0.753794 0.985693
vt 0.753786 0.985909
vt 0.753786 0.985693
vt 0.753794 0.985909
vt 0.753952 0.985693
vt 0.753952 0.985909
vt 0.013350 0.985975
vt 0.013388 0.985759
vt 0.013388 0.985975
vt 0.013350 0.985759
vt 0.013223 0.985975
vt 0.013223 0.985759
vt 0.022389 0.986027
vt 0.022477 0.985811
vt 0.022477 0.986027
vt 0.022313 0.985811
vt 0.022313 0.986027
vt 0.820845 0.986040
vt 0.820940 0.985823
vt 0.820940 0.986040
vt 0.820845 0.985823
vt 0.820777 0.986040
vt 0.820777 0.985823
vt 0.986613 0.512937
vt 0.986532 0.512720
vt 0.986613 0.512720
vt 0.986451 0.512720
vt 0.986532 0.512937
vt 0.986451 0.512937
vt 0.617997 0.986435
vt 0.618065 0.986651
vt 0.617997 0.986651
vt 0.618065 0.986435
vt 0.618158 0.986651
vt 0.122848 0.986653
vt 0.122773 0.986436
vt 0.122848 0.986436
vt 0.122773 0.986653
vt 0.122688 0.986436
vt 0.194948 0.986678
vt 0.195071 0.986461
vt 0.195071 0.986678
vt 0.194912 0.986461
vt 0.194912 0.986678
vt 0.366283 0.986467
vt 0.366132 0.986684
vt 0.366132 0.986467
vt 0.366283 0.986684
vt 0.366290 0.986467
vt 0.366290 0.986684
vt 0.929805 0.197817
vt 0.930021 0.197817
vt 0.929805 0.197681
vt 0.930021 0.197681
vt 0.638287 0.935172
vt 0.638503 0.935003
vt 0.638287 0.935003
vt 0.938102 0.322960
vt 0.937940 0.325472
vt 0.769684 0.935047
vt 0.938149 0.382397
vt 0.938149 0.384671
vt 0.638287 0.937519
vt 0.986233 0.486746
vt 0.930510 0.322511
vt 0.930348 0.326250
vt 0.929864 0.544719
vt 0.930283 0.597735
vt 0.930422 0.597865
vt 0.929805 0.201423
vt 0.986200 0.972244
vt 0.286736 0.919304
vt 0.286574 0.923877
vt 0.923334 0.661164
vt 0.829010 0.731687
vt 0.829010 0.727220
vt 0.371383 0.923702
vt 0.986200 0.795966
vt 0.918603 0.779133
vt 0.918441 0.779133
vt 0.917483 0.486552
vt 0.918494 0.557508
vt 0.918368 0.552370
vt 0.423116 0.917912
vt 0.986244 0.985586
vt 0.462194 0.915972
vt 0.462031 0.915972
vt 0.154407 0.909579
vt 0.458259 0.910458
vt 0.458334 0.915973
vt 0.006499 0.915728
vt 0.529367 0.985909
vt 0.914663 0.209860
vt 0.914500 0.209860
vt 0.564944 0.907971
vt 0.914474 0.881857
vt 0.914541 0.887599
vt 0.913678 0.675209
vt 0.332621 0.985882
vt 0.752023 0.852805
vt 0.752104 0.858624
vt 0.082320 0.907615
vt 0.913978 0.506160
vt 0.914059 0.511979
vt 0.387115 0.913504
vt 0.986233 0.482833
vt 0.914605 0.552382
vt 0.914671 0.558124
vt 0.913538 0.536626
vt 0.914590 0.173113
vt 0.914685 0.173102
vt 0.913538 0.295957
vt 0.986503 0.911958
vt 0.131876 0.916040
vt 0.131714 0.916040
vt 0.286574 0.910116
vt 0.113099 0.910720
vt 0.113187 0.910697
vt 0.279520 0.915200
vt 0.986462 0.692331
vt 0.137016 0.913321
vt 0.137142 0.918460
vt 0.844641 0.633043
vt 0.918508 0.173717
vt 0.918544 0.173702
vt 0.790277 0.917860
vt 0.986362 0.641937
vt 0.466092 0.919262
vt 0.466092 0.923729
vt 0.837952 0.919216
vt 0.245349 0.919363
vt 0.245187 0.923936
vt 0.701073 0.923555
vt 0.986363 0.292550
vt 0.930522 0.352200
vt 0.930359 0.348461
vt 0.930479 0.578695
vt 0.930392 0.586219
vt 0.930531 0.586089
vt 0.930088 0.222382
vt 0.986351 0.078076
vt 0.938181 0.895698
vt 0.938181 0.897973
vt 0.938015 0.236234
vt 0.938130 0.236070
vt 0.500918 0.937566
vt 0.986570 0.666698
vt 0.657733 0.985905
vt 0.022389 0.985811
vt 0.618158 0.986435
vt 0.122688 0.986653
vt 0.194948 0.986461
vt 0.638503 0.935172
vn -0.0001 0.0000 1.0000
vn -1.0000 0.0000 0.0000
vn 0.0000 0.0000 -1.0000
vn 1.0000 0.0000 0.0000
vn 0.0000 -1.0000 0.0000
vn 0.0000 0.0000 1.0000
vn -0.0004 0.0000 1.0000
vn -0.0002 0.0000 1.0000
vn 0.0004 0.0000 1.0000
vn 0.0005 0.0000 -1.0000
vn -0.8535 0.5211 0.0000
vn -0.8702 0.4928 0.0000
vn -0.7304 0.6830 -0.0000
vn -0.7536 0.6573 0.0000
vn -0.6261 0.7797 0.0000
vn -0.5973 0.8020 0.0000
vn -0.4376 0.8992 0.0000
vn -0.4715 0.8818 0.0000
vn -0.2937 0.9559 0.0000
vn -0.3308 0.9437 0.0000
vn -0.1394 0.9902 0.0000
vn -0.1787 0.9839 0.0000
vn 0.0200 0.9998 0.0000
vn -0.0200 0.9998 0.0000
vn 0.1787 0.9839 0.0000
vn 0.1394 0.9902 0.0000
vn 0.3308 0.9437 0.0000
vn 0.2937 0.9559 0.0000
vn 0.4715 0.8818 0.0000
vn 0.4377 0.8991 0.0000
vn 0.5973 0.8020 0.0000
vn 0.6260 0.7798 0.0000
vn 0.7537 0.6572 0.0000
vn 0.7304 0.6830 0.0000
vn 0.8701 0.4928 0.0000
vn 0.8535 0.5211 0.0000
vn -0.0007 0.0000 -1.0000
vn 0.0002 0.0000 -1.0000
vn 0.0002 0.0000 1.0000
vn 0.0001 0.0000 1.0000
vn -0.8535 0.5212 0.0000
vn -0.7537 0.6572 0.0000
vn 0.6261 0.7797 0.0000
vn 0.8702 0.4928 0.0000
vn 0.8535 0.5212 0.0000
s off
f 53/1/1 2/2/1 54/3/1
f 4/4/2 55/5/2 57/6/2
f 4/7/3 57/8/3 61/9/3
f 1/10/4 60/11/4 54/12/4
f 4/13/5 1/14/5 2/15/5
f 70/16/1 6/17/1 67/18/1
f 6/19/2 75/20/2 8/21/2
f 78/22/3 7/23/3 8/24/3
f 5/25/4 78/26/4 67/27/4
f 8/28/5 5/29/5 6/30/5
f 86/31/6 10/32/6 87/33/6
f 10/34/2 95/35/2 12/36/2
f 12/37/3 95/38/3 108/39/3
f 9/40/4 107/41/4 87/42/4
f 12/43/5 9/44/5 10/45/5
f 120/46/6 118/47/6 116/48/6
f 14/49/2 122/50/2 16/51/2
f 117/52/3 16/53/3 122/54/3
f 13/55/4 117/56/4 118/57/4
f 16/58/5 13/59/5 14/60/5
f 111/61/7 102/62/7 96/63/7
f 18/64/2 105/65/2 20/66/2
f 97/67/3 20/68/3 105/69/3
f 17/70/4 97/71/4 102/72/4
f 20/73/5 17/74/5 18/75/5
f 94/76/8 88/77/8 83/78/8
f 22/79/2 92/80/2 24/81/2
f 84/82/3 24/83/3 92/84/3
f 21/85/4 84/86/4 88/87/4
f 24/88/5 21/89/5 22/90/5
f 59/91/6 25/92/6 74/93/6
f 26/94/2 68/95/2 28/96/2
f 69/97/3 28/98/3 68/99/3
f 25/100/4 69/101/4 74/102/4
f 28/103/5 25/104/5 26/105/5
f 64/106/6 29/107/6 76/108/6
f 30/109/2 80/110/2 32/111/2
f 31/112/3 32/113/3 80/114/3
f 29/115/4 81/116/4 76/117/4
f 32/118/5 29/119/5 30/120/5
f 90/121/9 89/122/9 93/123/9
f 34/124/2 99/125/2 36/126/2
f 35/127/3 36/128/3 99/129/3
f 33/130/4 109/131/4 90/132/4
f 36/133/5 33/134/5 34/135/5
f 37/136/6 114/137/6 115/138/6
f 38/139/2 121/140/2 40/141/2
f 39/142/3 40/143/3 121/144/3
f 37/145/4 124/146/4 114/147/4
f 40/148/5 37/149/5 38/150/5
f 41/151/6 130/152/6 125/153/6
f 42/154/2 127/155/2 44/156/2
f 43/157/10 127/158/10 128/159/10
f 41/160/4 129/161/4 130/162/4
f 44/163/5 41/164/5 42/165/5
f 45/166/6 100/167/6 112/168/6
f 46/169/2 110/170/2 48/171/2
f 47/172/3 48/173/3 110/174/3
f 45/175/4 101/176/4 106/177/4
f 48/178/5 45/179/5 46/180/5
f 49/181/6 77/182/6 82/183/6
f 50/184/2 58/185/2 52/186/2
f 51/187/3 52/188/3 58/189/3
f 49/190/4 72/191/4 77/192/4
f 52/193/5 49/194/5 50/195/5
f 65/196/11 77/197/11 72/198/11
f 82/199/12 58/185/12 56/200/12
f 101/201/13 100/202/13 106/203/13
f 100/202/14 110/204/14 112/205/14
f 125/206/15 127/207/15 126/208/15
f 128/209/16 130/210/16 129/211/16
f 123/212/17 114/213/17 124/214/17
f 113/215/18 121/216/18 115/217/18
f 104/218/19 90/219/19 109/220/19
f 93/221/20 104/218/20 99/222/20
f 63/223/21 76/224/21 81/225/21
f 62/226/22 80/227/22 64/228/22
f 69/229/23 66/230/23 74/231/23
f 59/232/24 71/233/24 68/234/24
f 84/235/25 83/236/25 88/237/25
f 85/238/26 94/239/26 83/236/26
f 97/240/27 96/241/27 102/242/27
f 98/243/28 111/244/28 96/241/28
f 119/245/29 118/246/29 117/247/29
f 120/248/30 119/245/30 122/249/30
f 86/250/31 95/251/31 91/252/31
f 108/253/32 87/254/32 107/255/32
f 79/256/33 67/27/33 78/26/33
f 70/257/34 75/258/34 73/259/34
f 61/260/35 54/12/35 60/11/35
f 55/261/36 61/260/36 57/262/36
f 55/263/6 2/2/6 53/1/6
f 2/2/6 1/264/6 54/3/6
f 4/4/2 2/265/2 55/5/2
f 61/9/3 60/266/3 4/7/3
f 60/266/3 3/267/3 4/7/3
f 1/10/4 3/268/4 60/11/4
f 4/13/5 3/269/5 1/14/5
f 73/270/6 6/17/6 70/16/6
f 6/17/6 5/271/6 67/18/6
f 6/19/2 73/272/2 75/20/2
f 75/273/3 79/274/3 8/24/3
f 79/274/3 78/22/3 8/24/3
f 5/25/4 7/275/4 78/26/4
f 8/28/5 7/276/5 5/29/5
f 91/277/6 10/32/6 86/31/6
f 10/32/6 9/278/6 87/33/6
f 10/34/2 91/279/2 95/35/2
f 108/39/37 107/280/37 12/37/37
f 107/280/3 11/281/3 12/37/3
f 9/40/4 11/282/4 107/41/4
f 12/43/5 11/283/5 9/44/5
f 120/46/6 14/284/6 118/47/6
f 14/284/6 13/285/6 118/47/6
f 14/49/2 120/286/2 122/50/2
f 122/54/3 119/287/3 117/52/3
f 117/52/3 15/288/3 16/53/3
f 13/55/4 15/289/4 117/56/4
f 16/58/5 15/290/5 13/59/5
f 111/61/6 18/291/6 102/62/6
f 18/291/6 17/292/6 102/62/6
f 18/64/2 111/293/2 105/65/2
f 105/69/3 98/294/3 97/67/3
f 97/67/3 19/295/3 20/68/3
f 17/70/4 19/296/4 97/71/4
f 20/73/5 19/297/5 17/74/5
f 94/76/6 22/298/6 88/77/6
f 22/298/6 21/299/6 88/77/6
f 22/79/2 94/300/2 92/80/2
f 92/84/38 85/301/38 84/82/38
f 84/82/3 23/302/3 24/83/3
f 21/85/4 23/303/4 84/86/4
f 24/88/5 23/304/5 21/89/5
f 74/93/6 66/305/6 59/91/6
f 59/91/6 26/306/6 25/92/6
f 26/94/2 59/307/2 68/95/2
f 68/99/3 71/308/3 69/97/3
f 69/97/3 27/309/3 28/98/3
f 25/100/4 27/310/4 69/101/4
f 28/103/5 27/311/5 25/104/5
f 76/108/39 62/312/39 64/106/39
f 64/106/6 30/313/6 29/107/6
f 30/109/2 64/314/2 80/110/2
f 63/315/3 81/316/3 80/114/3
f 81/316/3 31/112/3 80/114/3
f 29/115/4 31/317/4 81/116/4
f 32/118/5 31/318/5 29/119/5
f 93/123/6 34/319/6 33/320/6
f 33/320/6 90/121/6 93/123/6
f 34/124/2 93/321/2 99/125/2
f 99/129/3 104/322/3 109/323/3
f 109/323/3 35/127/3 99/129/3
f 33/130/4 35/324/4 109/131/4
f 36/133/5 35/325/5 33/134/5
f 113/326/6 115/138/6 114/137/6
f 115/138/6 38/327/6 37/136/6
f 38/139/2 115/328/2 121/140/2
f 121/144/37 123/329/37 124/330/37
f 124/330/3 39/142/3 121/144/3
f 37/145/4 39/331/4 124/146/4
f 40/148/5 39/332/5 37/149/5
f 125/153/6 126/333/6 41/151/6
f 126/333/6 42/334/6 41/151/6
f 42/154/2 126/335/2 127/155/2
f 128/159/3 129/336/3 43/157/3
f 43/157/3 44/337/3 127/158/3
f 41/160/4 43/338/4 129/161/4
f 44/163/5 43/339/5 41/164/5
f 112/168/6 46/340/6 45/166/6
f 45/166/6 106/341/6 100/167/6
f 46/169/2 112/342/2 110/170/2
f 110/174/3 103/343/3 47/172/3
f 103/343/3 101/344/3 47/172/3
f 45/175/4 47/345/4 101/176/4
f 48/178/5 47/346/5 45/179/5
f 82/183/40 56/347/40 49/181/40
f 56/347/6 50/348/6 49/181/6
f 50/184/2 56/200/2 58/185/2
f 58/189/3 65/349/3 51/187/3
f 65/349/3 72/350/3 51/187/3
f 49/190/4 51/351/4 72/191/4
f 52/193/5 51/352/5 49/194/5
f 65/196/41 82/199/41 77/197/41
f 82/199/12 65/196/12 58/185/12
f 101/201/13 103/353/13 100/202/13
f 100/202/42 103/353/42 110/204/42
f 125/206/15 128/209/15 127/207/15
f 128/209/16 125/206/16 130/210/16
f 123/212/17 113/215/17 114/213/17
f 113/215/18 123/212/18 121/216/18
f 104/218/19 89/354/19 90/219/19
f 93/221/20 89/354/20 104/218/20
f 63/223/21 62/226/21 76/224/21
f 62/226/22 63/223/22 80/227/22
f 69/229/23 71/233/23 66/230/23
f 59/232/24 66/230/24 71/233/24
f 84/235/25 85/238/25 83/236/25
f 85/238/26 92/355/26 94/239/26
f 97/240/27 98/243/27 96/241/27
f 98/243/28 105/356/28 111/244/28
f 119/245/29 116/357/29 118/246/29
f 120/248/30 116/357/30 119/245/30
f 86/250/31 108/253/31 95/251/31
f 108/253/43 86/250/43 87/254/43
f 79/256/33 70/257/33 67/27/33
f 70/257/34 79/256/34 75/258/34
f 61/260/44 53/358/44 54/12/44
f 55/261/45 53/358/45 61/260/45
