# Blender v3.0.1 OBJ File: 'Main.blend'
# www.blender.org
o Cube.5532_0112
v 0.448500 -0.123000 -0.480000
v 0.448500 -0.123000 -0.405000
v 0.367500 -0.123000 -0.480000
v 0.367500 -0.123000 -0.405000
v 0.448500 0.045000 -0.480000
v 0.448500 0.045000 -0.405000
v 0.367500 0.045000 -0.480000
v 0.367500 0.045000 -0.405000
vt 0.916179 0.631728
vt 0.917533 0.628697
vt 0.917533 0.631728
vt 0.126392 0.915690
vt 0.127854 0.912658
vt 0.127854 0.915690
vt 0.887215 0.801217
vt 0.888569 0.799755
vt 0.888569 0.801217
vt 0.882164 0.799755
vt 0.883518 0.801217
vt 0.882164 0.801217
vt 0.753438 0.917593
vt 0.754791 0.914562
vt 0.754791 0.917593
vt 0.912320 0.647925
vt 0.913781 0.644894
vt 0.913781 0.647925
vt 0.916179 0.628697
vt 0.126392 0.912658
vt 0.887215 0.799755
vt 0.883518 0.799755
vt 0.753438 0.914562
vt 0.912320 0.644894
vn -1.0000 0.0000 0.0000
vn 0.0000 0.0000 -1.0000
vn 0.0000 -1.0000 0.0000
vn 0.0000 1.0000 0.0000
vn 1.0000 0.0000 0.0000
vn 0.0000 0.0000 1.0000
s off
f 4/1/1 7/2/1 3/3/1
f 3/4/2 5/5/2 1/6/2
f 2/7/3 3/8/3 1/9/3
f 6/10/4 7/11/4 8/12/4
f 1/13/5 6/14/5 2/15/5
f 2/16/6 8/17/6 4/18/6
f 4/1/1 8/19/1 7/2/1
f 3/4/2 7/20/2 5/5/2
f 2/7/3 4/21/3 3/8/3
f 6/10/4 5/22/4 7/11/4
f 1/13/5 5/23/5 6/14/5
f 2/16/6 6/24/6 8/17/6
