# Blender v3.0.1 OBJ File: 'Main.blend'
# www.blender.org
o Cube.5682_0141
v 1.061998 -0.067530 0.054000
v 1.061998 -0.067530 -0.105000
v 1.055997 -0.067530 0.054000
v 1.055997 -0.067530 -0.105000
v 1.061998 -0.070080 0.054000
v 1.061998 -0.070080 -0.105000
v 1.055997 -0.070080 0.054000
v 1.055997 -0.070080 -0.105000
v 1.055997 -0.070050 0.054000
v 1.055997 -0.070050 -0.105000
v 1.049997 -0.070050 0.054000
v 1.049997 -0.070050 -0.105000
v 1.055997 -0.072600 0.054000
v 1.055997 -0.072600 -0.105000
v 1.049997 -0.072600 0.054000
v 1.049997 -0.072600 -0.105000
v 1.049997 -0.072570 0.054000
v 1.049997 -0.072570 -0.105000
v 1.043998 -0.072570 0.054000
v 1.043998 -0.072570 -0.105000
v 1.049997 -0.075120 0.054000
v 1.049997 -0.075120 -0.105000
v 1.043998 -0.075120 0.054000
v 1.043998 -0.075120 -0.105000
v 1.043998 -0.075090 0.054000
v 1.043998 -0.075090 -0.105000
v 1.037997 -0.075090 0.054000
v 1.037997 -0.075090 -0.105000
v 1.043998 -0.077640 0.054000
v 1.043998 -0.077640 -0.105000
v 1.037997 -0.077640 0.054000
v 1.037997 -0.077640 -0.105000
v 1.037997 -0.077610 0.054000
v 1.037997 -0.077610 -0.105000
v 1.031997 -0.077610 0.054000
v 1.031997 -0.077610 -0.105000
v 1.037997 -0.080160 0.054000
v 1.037997 -0.080160 -0.105000
v 1.031997 -0.080160 0.054000
v 1.031997 -0.080160 -0.105000
v 1.031997 -0.080130 0.054000
v 1.031997 -0.080130 -0.105000
v 1.025998 -0.080130 0.054000
v 1.025998 -0.080130 -0.105000
v 1.031997 -0.082680 0.054000
v 1.031997 -0.082680 -0.105000
v 1.025998 -0.082680 0.054000
v 1.025998 -0.082680 -0.105000
v 1.025998 -0.082650 0.054000
v 1.025998 -0.082650 -0.105000
v 1.019997 -0.082650 0.054000
v 1.019997 -0.082650 -0.105000
v 1.025998 -0.085200 0.054000
v 1.025998 -0.085200 -0.105000
v 1.019997 -0.085200 0.054000
v 1.019997 -0.085200 -0.105000
v 1.019997 -0.085170 0.054000
v 1.019997 -0.085170 -0.105000
v 1.013997 -0.085170 0.054000
v 1.013997 -0.085170 -0.105000
v 1.019997 -0.087720 0.054000
v 1.019997 -0.087720 -0.105000
v 1.013997 -0.087720 0.054000
v 1.013997 -0.087720 -0.105000
v 1.013997 -0.087690 0.054000
v 1.013997 -0.087690 -0.105000
v 1.007998 -0.087690 0.054000
v 1.007998 -0.087690 -0.105000
v 1.013997 -0.090240 0.054000
v 1.013997 -0.090240 -0.105000
v 1.007998 -0.090240 0.054000
v 1.007998 -0.090240 -0.105000
v 1.007998 -0.090210 0.054000
v 1.007998 -0.090210 -0.105000
v 1.001997 -0.090210 0.054000
v 1.001997 -0.090210 -0.105000
v 1.007998 -0.092760 0.054000
v 1.007998 -0.092760 -0.105000
v 1.001997 -0.092760 0.054000
v 1.001997 -0.092760 -0.105000
v 1.001997 -0.092730 0.054000
v 1.001997 -0.092730 -0.105000
v 0.995997 -0.092730 0.054000
v 0.995997 -0.092730 -0.105000
v 1.001997 -0.095280 0.054000
v 1.001997 -0.095280 -0.105000
v 0.995997 -0.095280 0.054000
v 0.995997 -0.095280 -0.105000
v 0.995997 -0.095250 0.054000
v 0.995997 -0.095250 -0.105000
v 0.989998 -0.095250 0.054000
v 0.989998 -0.095250 -0.105000
v 0.995997 -0.097800 0.054000
v 0.995997 -0.097800 -0.105000
v 0.989998 -0.097800 0.054000
v 0.989998 -0.097800 -0.105000
v 0.989998 -0.097770 0.054000
v 0.989998 -0.097770 -0.105000
v 0.983997 -0.097770 0.054000
v 0.983997 -0.097770 -0.105000
v 0.989998 -0.100320 0.054000
v 0.989998 -0.100320 -0.105000
v 0.983997 -0.100320 0.054000
v 0.983997 -0.100320 -0.105000
v 0.983997 -0.100290 0.054000
v 0.983997 -0.100290 -0.105000
v 0.977997 -0.100290 0.054000
v 0.977997 -0.100290 -0.105000
v 0.983997 -0.102840 0.054000
v 0.983997 -0.102840 -0.105000
v 0.977997 -0.102840 0.054000
v 0.977997 -0.102840 -0.105000
v 0.977997 -0.102810 0.054000
v 0.977997 -0.102810 -0.105000
v 0.971997 -0.102810 0.054000
v 0.971997 -0.102810 -0.105000
v 0.977997 -0.105360 0.054000
v 0.977997 -0.105360 -0.105000
v 0.971997 -0.105360 0.054000
v 0.971997 -0.105360 -0.105000
v 0.971997 -0.105330 0.054000
v 0.971997 -0.105330 -0.105000
v 0.965997 -0.105330 0.054000
v 0.965997 -0.105330 -0.105000
v 0.971997 -0.107880 0.054000
v 0.971997 -0.107880 -0.105000
v 0.965997 -0.107880 0.054000
v 0.965997 -0.107880 -0.105000
v 0.965997 -0.107850 0.054000
v 0.965997 -0.107850 -0.105000
v 0.959997 -0.107850 0.054000
v 0.959997 -0.107850 -0.105000
v 0.965997 -0.110400 0.054000
v 0.965997 -0.110400 -0.105000
v 0.959997 -0.110400 0.054000
v 0.959997 -0.110400 -0.105000
v 0.959997 -0.110370 0.054000
v 0.959997 -0.110370 -0.105000
v 0.953997 -0.110370 0.054000
v 0.953997 -0.110370 -0.105000
v 0.959997 -0.112920 0.054000
v 0.959997 -0.112920 -0.105000
v 0.953997 -0.112920 0.054000
v 0.953997 -0.112920 -0.105000
v 0.953997 -0.112890 0.054000
v 0.953997 -0.112890 -0.105000
v 0.947997 -0.112890 0.054000
v 0.947997 -0.112890 -0.105000
v 0.953997 -0.115440 0.054000
v 0.953997 -0.115440 -0.105000
v 0.947997 -0.115440 0.054000
v 0.947997 -0.115440 -0.105000
v 0.947997 -0.115410 0.054000
v 0.947997 -0.115410 -0.105000
v 0.941997 -0.115410 0.054000
v 0.941997 -0.115410 -0.105000
v 0.947997 -0.117960 0.054000
v 0.947997 -0.117960 -0.105000
v 0.941997 -0.117960 0.054000
v 0.941997 -0.117960 -0.105000
vt 0.936784 0.440931
vt 0.936893 0.440931
vt 0.936893 0.438062
vt 0.936741 0.686112
vt 0.936741 0.688981
vt 0.936850 0.688981
vt 0.995652 0.594070
vt 0.995652 0.593961
vt 0.995607 0.593961
vt 0.937392 0.681970
vt 0.937392 0.679101
vt 0.937346 0.679101
vt 0.995621 0.181368
vt 0.995621 0.181260
vt 0.995576 0.181260
vt 0.937590 0.631657
vt 0.937590 0.628788
vt 0.937544 0.628788
vt 0.936784 0.440931
vt 0.936893 0.440931
vt 0.936893 0.438062
vt 0.936741 0.686112
vt 0.936741 0.688981
vt 0.936850 0.688981
vt 0.995652 0.594070
vt 0.995652 0.593961
vt 0.995607 0.593961
vt 0.937392 0.681970
vt 0.937392 0.679101
vt 0.937346 0.679101
vt 0.995621 0.181368
vt 0.995621 0.181260
vt 0.995576 0.181260
vt 0.937590 0.631657
vt 0.937590 0.628788
vt 0.937544 0.628788
vt 0.936784 0.440931
vt 0.936893 0.440931
vt 0.936893 0.438062
vt 0.936741 0.686112
vt 0.936741 0.688981
vt 0.936850 0.688981
vt 0.995652 0.594070
vt 0.995652 0.593961
vt 0.995607 0.593961
vt 0.937392 0.681970
vt 0.937392 0.679101
vt 0.937346 0.679101
vt 0.995621 0.181368
vt 0.995621 0.181260
vt 0.995576 0.181260
vt 0.937590 0.631657
vt 0.937590 0.628788
vt 0.937544 0.628788
vt 0.936784 0.440931
vt 0.936893 0.440931
vt 0.936893 0.438062
vt 0.936741 0.686112
vt 0.936741 0.688981
vt 0.936850 0.688981
vt 0.995652 0.594070
vt 0.995652 0.593961
vt 0.995607 0.593961
vt 0.937392 0.681970
vt 0.937392 0.679101
vt 0.937346 0.679101
vt 0.995621 0.181368
vt 0.995621 0.181260
vt 0.995576 0.181260
vt 0.937590 0.631657
vt 0.937590 0.628788
vt 0.937544 0.628788
vt 0.936784 0.440931
vt 0.936893 0.440931
vt 0.936893 0.438062
vt 0.936741 0.686112
vt 0.936741 0.688981
vt 0.936850 0.688981
vt 0.995652 0.594070
vt 0.995652 0.593961
vt 0.995607 0.593961
vt 0.937392 0.681970
vt 0.937392 0.679101
vt 0.937346 0.679101
vt 0.995621 0.181368
vt 0.995621 0.181260
vt 0.995576 0.181260
vt 0.937590 0.631657
vt 0.937590 0.628788
vt 0.937544 0.628788
vt 0.936784 0.440931
vt 0.936893 0.440931
vt 0.936893 0.438062
vt 0.936741 0.686112
vt 0.936741 0.688981
vt 0.936850 0.688981
vt 0.995652 0.594070
vt 0.995652 0.593961
vt 0.995607 0.593961
vt 0.937392 0.681970
vt 0.937392 0.679101
vt 0.937346 0.679101
vt 0.995621 0.181368
vt 0.995621 0.181260
vt 0.995576 0.181260
vt 0.937590 0.631657
vt 0.937590 0.628788
vt 0.937544 0.628788
vt 0.936784 0.440931
vt 0.936893 0.440931
vt 0.936893 0.438062
vt 0.936741 0.686112
vt 0.936741 0.688981
vt 0.936850 0.688981
vt 0.995652 0.594070
vt 0.995652 0.593961
vt 0.995607 0.593961
vt 0.937392 0.681970
vt 0.937392 0.679101
vt 0.937346 0.679101
vt 0.995621 0.181368
vt 0.995621 0.181260
vt 0.995576 0.181260
vt 0.937590 0.631657
vt 0.937590 0.628788
vt 0.937544 0.628788
vt 0.936784 0.440931
vt 0.936893 0.440931
vt 0.936893 0.438062
vt 0.936741 0.686112
vt 0.936741 0.688981
vt 0.936850 0.688981
vt 0.995652 0.594070
vt 0.995652 0.593961
vt 0.995607 0.593961
vt 0.937392 0.681970
vt 0.937392 0.679101
vt 0.937346 0.679101
vt 0.995621 0.181368
vt 0.995621 0.181260
vt 0.995576 0.181260
vt 0.937590 0.631657
vt 0.937590 0.628788
vt 0.937544 0.628788
vt 0.936784 0.440931
vt 0.936893 0.440931
vt 0.936893 0.438062
vt 0.936741 0.686112
vt 0.936741 0.688981
vt 0.936850 0.688981
vt 0.995652 0.594070
vt 0.995652 0.593961
vt 0.995607 0.593961
vt 0.937392 0.681970
vt 0.937392 0.679101
vt 0.937346 0.679101
vt 0.995621 0.181368
vt 0.995621 0.181260
vt 0.995576 0.181260
vt 0.937590 0.631657
vt 0.937590 0.628788
vt 0.937544 0.628788
vt 0.936784 0.440931
vt 0.936893 0.440931
vt 0.936893 0.438062
vt 0.936741 0.686112
vt 0.936741 0.688981
vt 0.936850 0.688981
vt 0.995652 0.594070
vt 0.995652 0.593961
vt 0.995607 0.593961
vt 0.937392 0.681970
vt 0.937392 0.679101
vt 0.937346 0.679101
vt 0.995621 0.181368
vt 0.995621 0.181260
vt 0.995576 0.181260
vt 0.937590 0.631657
vt 0.937590 0.628788
vt 0.937544 0.628788
vt 0.936784 0.440931
vt 0.936893 0.440931
vt 0.936893 0.438062
vt 0.936741 0.686112
vt 0.936741 0.688981
vt 0.936850 0.688981
vt 0.995652 0.594070
vt 0.995652 0.593961
vt 0.995607 0.593961
vt 0.937392 0.681970
vt 0.937392 0.679101
vt 0.937346 0.679101
vt 0.995621 0.181368
vt 0.995621 0.181260
vt 0.995576 0.181260
vt 0.937590 0.631657
vt 0.937590 0.628788
vt 0.937544 0.628788
vt 0.936784 0.440931
vt 0.936893 0.440931
vt 0.936893 0.438062
vt 0.936741 0.686112
vt 0.936741 0.688981
vt 0.936850 0.688981
vt 0.995652 0.594070
vt 0.995652 0.593961
vt 0.995607 0.593961
vt 0.937392 0.681970
vt 0.937392 0.679101
vt 0.937346 0.679101
vt 0.995621 0.181368
vt 0.995621 0.181260
vt 0.995576 0.181260
vt 0.937590 0.631657
vt 0.937590 0.628788
vt 0.937544 0.628788
vt 0.936784 0.440931
vt 0.936893 0.440931
vt 0.936893 0.438062
vt 0.936741 0.686112
vt 0.936741 0.688981
vt 0.936850 0.688981
vt 0.995652 0.594070
vt 0.995652 0.593961
vt 0.995607 0.593961
vt 0.937392 0.681970
vt 0.937392 0.679101
vt 0.937346 0.679101
vt 0.995621 0.181368
vt 0.995621 0.181260
vt 0.995576 0.181260
vt 0.937590 0.631657
vt 0.937590 0.628788
vt 0.937544 0.628788
vt 0.936784 0.440931
vt 0.936893 0.440931
vt 0.936893 0.438062
vt 0.936741 0.686112
vt 0.936741 0.688981
vt 0.936850 0.688981
vt 0.995652 0.594070
vt 0.995652 0.593961
vt 0.995607 0.593961
vt 0.937392 0.681970
vt 0.937392 0.679101
vt 0.937346 0.679101
vt 0.995621 0.181368
vt 0.995621 0.181260
vt 0.995576 0.181260
vt 0.937590 0.631657
vt 0.937590 0.628788
vt 0.937544 0.628788
vt 0.936784 0.440931
vt 0.936893 0.440931
vt 0.936893 0.438062
vt 0.936741 0.686112
vt 0.936741 0.688981
vt 0.936850 0.688981
vt 0.995652 0.594070
vt 0.995652 0.593961
vt 0.995607 0.593961
vt 0.937392 0.681970
vt 0.937392 0.679101
vt 0.937346 0.679101
vt 0.995621 0.181368
vt 0.995621 0.181260
vt 0.995576 0.181260
vt 0.937590 0.631657
vt 0.937590 0.628788
vt 0.937544 0.628788
vt 0.936784 0.440931
vt 0.936893 0.440931
vt 0.936893 0.438062
vt 0.936741 0.686112
vt 0.936741 0.688981
vt 0.936850 0.688981
vt 0.995652 0.594070
vt 0.995652 0.593961
vt 0.995607 0.593961
vt 0.937392 0.681970
vt 0.937392 0.679101
vt 0.937346 0.679101
vt 0.995621 0.181368
vt 0.995621 0.181260
vt 0.995576 0.181260
vt 0.937590 0.631657
vt 0.937590 0.628788
vt 0.937544 0.628788
vt 0.936784 0.440931
vt 0.936893 0.440931
vt 0.936893 0.438062
vt 0.936741 0.686112
vt 0.936741 0.688981
vt 0.936850 0.688981
vt 0.995652 0.594070
vt 0.995652 0.593961
vt 0.995607 0.593961
vt 0.937392 0.681970
vt 0.937392 0.679101
vt 0.937346 0.679101
vt 0.995621 0.181368
vt 0.995621 0.181260
vt 0.995576 0.181260
vt 0.937590 0.631657
vt 0.937590 0.628788
vt 0.937544 0.628788
vt 0.936784 0.440931
vt 0.936893 0.440931
vt 0.936893 0.438062
vt 0.936741 0.686112
vt 0.936741 0.688981
vt 0.936850 0.688981
vt 0.995652 0.594070
vt 0.995652 0.593961
vt 0.995607 0.593961
vt 0.937392 0.681970
vt 0.937392 0.679101
vt 0.937346 0.679101
vt 0.995621 0.181368
vt 0.995621 0.181260
vt 0.995576 0.181260
vt 0.937590 0.631657
vt 0.937590 0.628788
vt 0.937544 0.628788
vt 0.936784 0.440931
vt 0.936893 0.440931
vt 0.936893 0.438062
vt 0.936741 0.686112
vt 0.936741 0.688981
vt 0.936850 0.688981
vt 0.995652 0.594070
vt 0.995652 0.593961
vt 0.995607 0.593961
vt 0.937392 0.681970
vt 0.937392 0.679101
vt 0.937346 0.679101
vt 0.995621 0.181368
vt 0.995621 0.181260
vt 0.995576 0.181260
vt 0.937590 0.631657
vt 0.937590 0.628788
vt 0.937544 0.628788
vt 0.936784 0.440931
vt 0.936893 0.440931
vt 0.936893 0.438062
vt 0.936741 0.686112
vt 0.936741 0.688981
vt 0.936850 0.688981
vt 0.995652 0.594070
vt 0.995652 0.593961
vt 0.995607 0.593961
vt 0.937392 0.681970
vt 0.937392 0.679101
vt 0.937346 0.679101
vt 0.995621 0.181368
vt 0.995621 0.181260
vt 0.995576 0.181260
vt 0.937590 0.631657
vt 0.937590 0.628788
vt 0.937544 0.628788
vt 0.936784 0.438062
vt 0.936850 0.686112
vt 0.995607 0.594070
vt 0.937346 0.681970
vt 0.995576 0.181368
vt 0.937544 0.631657
vt 0.936784 0.438062
vt 0.936850 0.686112
vt 0.995607 0.594070
vt 0.937346 0.681970
vt 0.995576 0.181368
vt 0.937544 0.631657
vt 0.936784 0.438062
vt 0.936850 0.686112
vt 0.995607 0.594070
vt 0.937346 0.681970
vt 0.995576 0.181368
vt 0.937544 0.631657
vt 0.936784 0.438062
vt 0.936850 0.686112
vt 0.995607 0.594070
vt 0.937346 0.681970
vt 0.995576 0.181368
vt 0.937544 0.631657
vt 0.936784 0.438062
vt 0.936850 0.686112
vt 0.995607 0.594070
vt 0.937346 0.681970
vt 0.995576 0.181368
vt 0.937544 0.631657
vt 0.936784 0.438062
vt 0.936850 0.686112
vt 0.995607 0.594070
vt 0.937346 0.681970
vt 0.995576 0.181368
vt 0.937544 0.631657
vt 0.936784 0.438062
vt 0.936850 0.686112
vt 0.995607 0.594070
vt 0.937346 0.681970
vt 0.995576 0.181368
vt 0.937544 0.631657
vt 0.936784 0.438062
vt 0.936850 0.686112
vt 0.995607 0.594070
vt 0.937346 0.681970
vt 0.995576 0.181368
vt 0.937544 0.631657
vt 0.936784 0.438062
vt 0.936850 0.686112
vt 0.995607 0.594070
vt 0.937346 0.681970
vt 0.995576 0.181368
vt 0.937544 0.631657
vt 0.936784 0.438062
vt 0.936850 0.686112
vt 0.995607 0.594070
vt 0.937346 0.681970
vt 0.995576 0.181368
vt 0.937544 0.631657
vt 0.936784 0.438062
vt 0.936850 0.686112
vt 0.995607 0.594070
vt 0.937346 0.681970
vt 0.995576 0.181368
vt 0.937544 0.631657
vt 0.936784 0.438062
vt 0.936850 0.686112
vt 0.995607 0.594070
vt 0.937346 0.681970
vt 0.995576 0.181368
vt 0.937544 0.631657
vt 0.936784 0.438062
vt 0.936850 0.686112
vt 0.995607 0.594070
vt 0.937346 0.681970
vt 0.995576 0.181368
vt 0.937544 0.631657
vt 0.936784 0.438062
vt 0.936850 0.686112
vt 0.995607 0.594070
vt 0.937346 0.681970
vt 0.995576 0.181368
vt 0.937544 0.631657
vt 0.936784 0.438062
vt 0.936850 0.686112
vt 0.995607 0.594070
vt 0.937346 0.681970
vt 0.995576 0.181368
vt 0.937544 0.631657
vt 0.936784 0.438062
vt 0.936850 0.686112
vt 0.995607 0.594070
vt 0.937346 0.681970
vt 0.995576 0.181368
vt 0.937544 0.631657
vt 0.936784 0.438062
vt 0.936850 0.686112
vt 0.995607 0.594070
vt 0.937346 0.681970
vt 0.995576 0.181368
vt 0.937544 0.631657
vt 0.936784 0.438062
vt 0.936850 0.686112
vt 0.995607 0.594070
vt 0.937346 0.681970
vt 0.995576 0.181368
vt 0.937544 0.631657
vt 0.936784 0.438062
vt 0.936850 0.686112
vt 0.995607 0.594070
vt 0.937346 0.681970
vt 0.995576 0.181368
vt 0.937544 0.631657
vt 0.936784 0.438062
vt 0.936850 0.686112
vt 0.995607 0.594070
vt 0.937346 0.681970
vt 0.995576 0.181368
vt 0.937544 0.631657
vn 0.0000 1.0000 0.0000
vn 0.0000 -1.0000 0.0000
vn 0.0000 0.0000 1.0000
vn -1.0000 0.0000 0.0000
vn 0.0000 0.0000 -1.0000
vn 1.0000 0.0000 0.0000
s off
f 3/1/1 1/2/1 2/3/1
f 6/4/2 5/5/2 7/6/2
f 1/7/3 3/8/3 7/9/3
f 3/10/4 4/11/4 8/12/4
f 4/13/5 2/14/5 6/15/5
f 2/16/6 1/17/6 5/18/6
f 11/19/1 9/20/1 10/21/1
f 14/22/2 13/23/2 15/24/2
f 9/25/3 11/26/3 15/27/3
f 11/28/4 12/29/4 16/30/4
f 12/31/5 10/32/5 14/33/5
f 10/34/6 9/35/6 13/36/6
f 19/37/1 17/38/1 18/39/1
f 22/40/2 21/41/2 23/42/2
f 17/43/3 19/44/3 23/45/3
f 19/46/4 20/47/4 24/48/4
f 20/49/5 18/50/5 22/51/5
f 18/52/6 17/53/6 21/54/6
f 27/55/1 25/56/1 26/57/1
f 30/58/2 29/59/2 31/60/2
f 25/61/3 27/62/3 31/63/3
f 27/64/4 28/65/4 32/66/4
f 28/67/5 26/68/5 30/69/5
f 26/70/6 25/71/6 29/72/6
f 35/73/1 33/74/1 34/75/1
f 38/76/2 37/77/2 39/78/2
f 33/79/3 35/80/3 39/81/3
f 35/82/4 36/83/4 40/84/4
f 36/85/5 34/86/5 38/87/5
f 34/88/6 33/89/6 37/90/6
f 43/91/1 41/92/1 42/93/1
f 46/94/2 45/95/2 47/96/2
f 41/97/3 43/98/3 47/99/3
f 43/100/4 44/101/4 48/102/4
f 44/103/5 42/104/5 46/105/5
f 42/106/6 41/107/6 45/108/6
f 51/109/1 49/110/1 50/111/1
f 54/112/2 53/113/2 55/114/2
f 49/115/3 51/116/3 55/117/3
f 51/118/4 52/119/4 56/120/4
f 52/121/5 50/122/5 54/123/5
f 50/124/6 49/125/6 53/126/6
f 59/127/1 57/128/1 58/129/1
f 62/130/2 61/131/2 63/132/2
f 57/133/3 59/134/3 63/135/3
f 59/136/4 60/137/4 64/138/4
f 60/139/5 58/140/5 62/141/5
f 58/142/6 57/143/6 61/144/6
f 67/145/1 65/146/1 66/147/1
f 70/148/2 69/149/2 71/150/2
f 65/151/3 67/152/3 71/153/3
f 67/154/4 68/155/4 72/156/4
f 68/157/5 66/158/5 70/159/5
f 66/160/6 65/161/6 69/162/6
f 75/163/1 73/164/1 74/165/1
f 78/166/2 77/167/2 79/168/2
f 73/169/3 75/170/3 79/171/3
f 75/172/4 76/173/4 80/174/4
f 76/175/5 74/176/5 78/177/5
f 74/178/6 73/179/6 77/180/6
f 83/181/1 81/182/1 82/183/1
f 86/184/2 85/185/2 87/186/2
f 81/187/3 83/188/3 87/189/3
f 83/190/4 84/191/4 88/192/4
f 84/193/5 82/194/5 86/195/5
f 82/196/6 81/197/6 85/198/6
f 91/199/1 89/200/1 90/201/1
f 94/202/2 93/203/2 95/204/2
f 89/205/3 91/206/3 95/207/3
f 91/208/4 92/209/4 96/210/4
f 92/211/5 90/212/5 94/213/5
f 90/214/6 89/215/6 93/216/6
f 99/217/1 97/218/1 98/219/1
f 102/220/2 101/221/2 103/222/2
f 97/223/3 99/224/3 103/225/3
f 99/226/4 100/227/4 104/228/4
f 100/229/5 98/230/5 102/231/5
f 98/232/6 97/233/6 101/234/6
f 107/235/1 105/236/1 106/237/1
f 110/238/2 109/239/2 111/240/2
f 105/241/3 107/242/3 111/243/3
f 107/244/4 108/245/4 112/246/4
f 108/247/5 106/248/5 110/249/5
f 106/250/6 105/251/6 109/252/6
f 115/253/1 113/254/1 114/255/1
f 118/256/2 117/257/2 119/258/2
f 113/259/3 115/260/3 119/261/3
f 115/262/4 116/263/4 120/264/4
f 116/265/5 114/266/5 118/267/5
f 114/268/6 113/269/6 117/270/6
f 123/271/1 121/272/1 122/273/1
f 126/274/2 125/275/2 127/276/2
f 121/277/3 123/278/3 127/279/3
f 123/280/4 124/281/4 128/282/4
f 124/283/5 122/284/5 126/285/5
f 122/286/6 121/287/6 125/288/6
f 131/289/1 129/290/1 130/291/1
f 134/292/2 133/293/2 135/294/2
f 129/295/3 131/296/3 135/297/3
f 131/298/4 132/299/4 136/300/4
f 132/301/5 130/302/5 134/303/5
f 130/304/6 129/305/6 133/306/6
f 139/307/1 137/308/1 138/309/1
f 142/310/2 141/311/2 143/312/2
f 137/313/3 139/314/3 143/315/3
f 139/316/4 140/317/4 144/318/4
f 140/319/5 138/320/5 142/321/5
f 138/322/6 137/323/6 141/324/6
f 147/325/1 145/326/1 146/327/1
f 150/328/2 149/329/2 151/330/2
f 145/331/3 147/332/3 151/333/3
f 147/334/4 148/335/4 152/336/4
f 148/337/5 146/338/5 150/339/5
f 146/340/6 145/341/6 149/342/6
f 155/343/1 153/344/1 154/345/1
f 158/346/2 157/347/2 159/348/2
f 153/349/3 155/350/3 159/351/3
f 155/352/4 156/353/4 160/354/4
f 156/355/5 154/356/5 158/357/5
f 154/358/6 153/359/6 157/360/6
f 3/1/1 2/3/1 4/361/1
f 6/4/2 7/6/2 8/362/2
f 1/7/3 7/9/3 5/363/3
f 3/10/4 8/12/4 7/364/4
f 4/13/5 6/15/5 8/365/5
f 2/16/6 5/18/6 6/366/6
f 11/19/1 10/21/1 12/367/1
f 14/22/2 15/24/2 16/368/2
f 9/25/3 15/27/3 13/369/3
f 11/28/4 16/30/4 15/370/4
f 12/31/5 14/33/5 16/371/5
f 10/34/6 13/36/6 14/372/6
f 19/37/1 18/39/1 20/373/1
f 22/40/2 23/42/2 24/374/2
f 17/43/3 23/45/3 21/375/3
f 19/46/4 24/48/4 23/376/4
f 20/49/5 22/51/5 24/377/5
f 18/52/6 21/54/6 22/378/6
f 27/55/1 26/57/1 28/379/1
f 30/58/2 31/60/2 32/380/2
f 25/61/3 31/63/3 29/381/3
f 27/64/4 32/66/4 31/382/4
f 28/67/5 30/69/5 32/383/5
f 26/70/6 29/72/6 30/384/6
f 35/73/1 34/75/1 36/385/1
f 38/76/2 39/78/2 40/386/2
f 33/79/3 39/81/3 37/387/3
f 35/82/4 40/84/4 39/388/4
f 36/85/5 38/87/5 40/389/5
f 34/88/6 37/90/6 38/390/6
f 43/91/1 42/93/1 44/391/1
f 46/94/2 47/96/2 48/392/2
f 41/97/3 47/99/3 45/393/3
f 43/100/4 48/102/4 47/394/4
f 44/103/5 46/105/5 48/395/5
f 42/106/6 45/108/6 46/396/6
f 51/109/1 50/111/1 52/397/1
f 54/112/2 55/114/2 56/398/2
f 49/115/3 55/117/3 53/399/3
f 51/118/4 56/120/4 55/400/4
f 52/121/5 54/123/5 56/401/5
f 50/124/6 53/126/6 54/402/6
f 59/127/1 58/129/1 60/403/1
f 62/130/2 63/132/2 64/404/2
f 57/133/3 63/135/3 61/405/3
f 59/136/4 64/138/4 63/406/4
f 60/139/5 62/141/5 64/407/5
f 58/142/6 61/144/6 62/408/6
f 67/145/1 66/147/1 68/409/1
f 70/148/2 71/150/2 72/410/2
f 65/151/3 71/153/3 69/411/3
f 67/154/4 72/156/4 71/412/4
f 68/157/5 70/159/5 72/413/5
f 66/160/6 69/162/6 70/414/6
f 75/163/1 74/165/1 76/415/1
f 78/166/2 79/168/2 80/416/2
f 73/169/3 79/171/3 77/417/3
f 75/172/4 80/174/4 79/418/4
f 76/175/5 78/177/5 80/419/5
f 74/178/6 77/180/6 78/420/6
f 83/181/1 82/183/1 84/421/1
f 86/184/2 87/186/2 88/422/2
f 81/187/3 87/189/3 85/423/3
f 83/190/4 88/192/4 87/424/4
f 84/193/5 86/195/5 88/425/5
f 82/196/6 85/198/6 86/426/6
f 91/199/1 90/201/1 92/427/1
f 94/202/2 95/204/2 96/428/2
f 89/205/3 95/207/3 93/429/3
f 91/208/4 96/210/4 95/430/4
f 92/211/5 94/213/5 96/431/5
f 90/214/6 93/216/6 94/432/6
f 99/217/1 98/219/1 100/433/1
f 102/220/2 103/222/2 104/434/2
f 97/223/3 103/225/3 101/435/3
f 99/226/4 104/228/4 103/436/4
f 100/229/5 102/231/5 104/437/5
f 98/232/6 101/234/6 102/438/6
f 107/235/1 106/237/1 108/439/1
f 110/238/2 111/240/2 112/440/2
f 105/241/3 111/243/3 109/441/3
f 107/244/4 112/246/4 111/442/4
f 108/247/5 110/249/5 112/443/5
f 106/250/6 109/252/6 110/444/6
f 115/253/1 114/255/1 116/445/1
f 118/256/2 119/258/2 120/446/2
f 113/259/3 119/261/3 117/447/3
f 115/262/4 120/264/4 119/448/4
f 116/265/5 118/267/5 120/449/5
f 114/268/6 117/270/6 118/450/6
f 123/271/1 122/273/1 124/451/1
f 126/274/2 127/276/2 128/452/2
f 121/277/3 127/279/3 125/453/3
f 123/280/4 128/282/4 127/454/4
f 124/283/5 126/285/5 128/455/5
f 122/286/6 125/288/6 126/456/6
f 131/289/1 130/291/1 132/457/1
f 134/292/2 135/294/2 136/458/2
f 129/295/3 135/297/3 133/459/3
f 131/298/4 136/300/4 135/460/4
f 132/301/5 134/303/5 136/461/5
f 130/304/6 133/306/6 134/462/6
f 139/307/1 138/309/1 140/463/1
f 142/310/2 143/312/2 144/464/2
f 137/313/3 143/315/3 141/465/3
f 139/316/4 144/318/4 143/466/4
f 140/319/5 142/321/5 144/467/5
f 138/322/6 141/324/6 142/468/6
f 147/325/1 146/327/1 148/469/1
f 150/328/2 151/330/2 152/470/2
f 145/331/3 151/333/3 149/471/3
f 147/334/4 152/336/4 151/472/4
f 148/337/5 150/339/5 152/473/5
f 146/340/6 149/342/6 150/474/6
f 155/343/1 154/345/1 156/475/1
f 158/346/2 159/348/2 160/476/2
f 153/349/3 159/351/3 157/477/3
f 155/352/4 160/354/4 159/478/4
f 156/355/5 158/357/5 160/479/5
f 154/358/6 157/360/6 158/480/6
