# Blender v3.0.1 OBJ File: 'Main.blend'
# www.blender.org
o Cube.5238_0063
v -1.200000 0.348042 -2.427381
v -1.200000 0.368511 -2.411619
v -1.200000 0.348042 -2.216619
v -1.200000 0.368511 -2.232381
v -1.200000 0.385309 -2.392413
v -1.194000 0.348042 -2.216619
v -1.194000 0.368511 -2.232381
v -1.200000 0.385309 -2.251587
v -1.194000 0.385309 -2.251587
v -1.200000 0.397791 -2.273499
v -1.200000 0.397791 -2.370501
v -1.194000 0.397791 -2.273499
v -1.200000 0.405477 -2.297274
v -1.200000 0.405477 -2.346725
v -1.200000 0.408073 -2.322000
v -1.194000 0.405477 -2.297274
v -1.194000 0.408073 -2.322000
v -1.194000 0.348042 -2.427381
v -1.194000 0.368511 -2.411619
v -1.194000 0.405477 -2.346725
v -1.194000 0.397791 -2.370501
v -1.194000 0.385309 -2.392413
v -1.200000 0.333847 -2.209500
v -1.200000 0.414000 -2.209500
v -1.194000 0.414000 -2.209500
v -1.194000 0.333847 -2.209500
v -1.200000 0.333848 -2.434500
v -1.200000 0.414000 -2.434500
v -1.194000 0.414000 -2.434500
v -1.194000 0.333848 -2.434500
vt 0.957108 0.348462
vt 0.957216 0.349908
vt 0.957108 0.349908
vt 0.895056 0.003923
vt 0.895010 0.003476
vt 0.895163 0.001891
vt 0.929439 0.653216
vt 0.929547 0.657279
vt 0.929439 0.657279
vt 0.570196 0.907292
vt 0.570150 0.906845
vt 0.570303 0.905262
vt 0.956993 0.237625
vt 0.957101 0.236179
vt 0.957101 0.237625
vt 0.957216 0.348462
vt 0.895163 0.005955
vt 0.893717 0.005955
vt 0.893973 0.005825
vt 0.894342 0.005538
vt 0.893973 0.002021
vt 0.893717 0.001891
vt 0.894342 0.002308
vt 0.894645 0.005195
vt 0.894871 0.004798
vt 0.894645 0.002651
vt 0.894871 0.003049
vt 0.895010 0.004370
vt 0.929547 0.653216
vt 0.570303 0.909322
vt 0.568858 0.909322
vt 0.569113 0.909194
vt 0.569482 0.908909
vt 0.569113 0.905390
vt 0.568858 0.905262
vt 0.569482 0.905675
vt 0.569785 0.908562
vt 0.570011 0.908167
vt 0.569785 0.906022
vt 0.570011 0.906417
vt 0.570150 0.907739
vt 0.956993 0.236179
vn 0.0000 0.0000 1.0000
vn -1.0000 0.0000 0.0000
vn 0.0000 1.0000 0.0000
vn 1.0000 -0.0000 0.0000
vn 0.0000 0.0000 -1.0000
s off
f 25/1/1 23/2/1 26/3/1
f 15/4/2 13/5/2 24/6/2
f 24/7/3 29/8/3 28/9/3
f 17/10/4 20/11/4 29/12/4
f 27/13/5 29/14/5 30/15/5
f 25/1/1 24/16/1 23/2/1
f 28/17/2 27/18/2 1/19/2
f 28/17/2 1/19/2 2/20/2
f 3/21/2 23/22/2 24/6/2
f 4/23/2 3/21/2 24/6/2
f 28/17/2 2/20/2 5/24/2
f 28/17/2 5/24/2 11/25/2
f 8/26/2 4/23/2 24/6/2
f 10/27/2 8/26/2 24/6/2
f 28/17/2 11/25/2 14/28/2
f 28/17/2 14/28/2 15/4/2
f 13/5/2 10/27/2 24/6/2
f 24/6/2 28/17/2 15/4/2
f 24/7/3 25/29/3 29/8/3
f 25/30/4 26/31/4 6/32/4
f 25/30/4 6/32/4 7/33/4
f 18/34/4 30/35/4 29/12/4
f 19/36/4 18/34/4 29/12/4
f 25/30/4 7/33/4 9/37/4
f 25/30/4 9/37/4 12/38/4
f 22/39/4 19/36/4 29/12/4
f 21/40/4 22/39/4 29/12/4
f 25/30/4 12/38/4 16/41/4
f 25/30/4 16/41/4 17/10/4
f 20/11/4 21/40/4 29/12/4
f 29/12/4 25/30/4 17/10/4
f 27/13/5 28/42/5 29/14/5
