# Blender v3.0.1 OBJ File: 'Main.blend'
# www.blender.org
o Cube.5229_0312
v 1.203000 0.333000 -1.561500
v 1.197000 0.333000 -1.561500
v 1.197000 0.333653 -1.561500
v 1.197000 0.348042 -1.553808
v 1.197000 0.348042 -1.329191
v 1.203000 0.348042 -1.329191
v 1.203000 0.368511 -1.345989
v 1.197000 0.368511 -1.345989
v 1.197000 0.368511 -1.537010
v 1.197000 0.385309 -1.366457
v 1.197000 0.385309 -1.516542
v 1.203000 0.385309 -1.366457
v 1.197000 0.397791 -1.389810
v 1.203000 0.397791 -1.389810
v 1.197000 0.397791 -1.493190
v 1.197000 0.405477 -1.415148
v 1.197000 0.405477 -1.467851
v 1.203000 0.405477 -1.415148
v 1.197000 0.408073 -1.441500
v 1.203000 0.408073 -1.441500
v 1.203000 0.405477 -1.467851
v 1.203000 0.348042 -1.553808
v 1.203000 0.333653 -1.561500
v 1.203000 0.397791 -1.493190
v 1.203000 0.385309 -1.516542
v 1.203000 0.368511 -1.537010
v 1.197000 0.333653 -1.321500
v 1.197000 0.414000 -1.321500
v 1.203000 0.414000 -1.321500
v 1.203000 0.333653 -1.321500
v 1.197000 0.414000 -1.561500
v 1.203000 0.414000 -1.561500
vt 0.286683 0.904254
vt 0.286637 0.903778
vt 0.286790 0.902089
vt 0.925204 0.669481
vt 0.925312 0.673812
vt 0.925204 0.673812
vt 0.903330 0.484388
vt 0.903284 0.483912
vt 0.903437 0.482222
vt 0.895437 0.237452
vt 0.895545 0.236002
vt 0.895545 0.237452
vt 0.956868 0.844044
vt 0.956976 0.842595
vt 0.956976 0.844044
vt 0.286790 0.906419
vt 0.285341 0.906419
vt 0.285601 0.906281
vt 0.285969 0.905977
vt 0.285601 0.902227
vt 0.285341 0.902089
vt 0.285969 0.902531
vt 0.286273 0.905609
vt 0.286498 0.905187
vt 0.286273 0.902900
vt 0.286498 0.903321
vt 0.286637 0.904729
vt 0.925312 0.669481
vt 0.903437 0.486553
vt 0.901988 0.486553
vt 0.902247 0.486414
vt 0.902616 0.486111
vt 0.902247 0.482361
vt 0.901988 0.482222
vt 0.902616 0.482664
vt 0.902919 0.485742
vt 0.903145 0.485321
vt 0.902919 0.483034
vt 0.903145 0.483455
vt 0.903284 0.484863
vt 0.895545 0.237464
vt 0.895437 0.237464
vt 0.895437 0.236002
vt 0.956868 0.842595
vn -1.0000 -0.0000 0.0000
vn 0.0000 1.0000 0.0000
vn 1.0000 0.0000 0.0000
vn 0.0000 0.0000 -1.0000
vn 0.0000 0.0000 1.0000
s off
f 19/1/1 16/2/1 28/3/1
f 28/4/2 32/5/2 31/6/2
f 20/7/3 21/8/3 32/9/3
f 3/10/4 32/11/4 23/12/4
f 30/13/5 28/14/5 27/15/5
f 31/16/1 3/17/1 4/18/1
f 31/16/1 4/18/1 9/19/1
f 5/20/1 27/21/1 28/3/1
f 8/22/1 5/20/1 28/3/1
f 31/16/1 9/19/1 11/23/1
f 31/16/1 11/23/1 15/24/1
f 10/25/1 8/22/1 28/3/1
f 13/26/1 10/25/1 28/3/1
f 31/16/1 15/24/1 17/27/1
f 31/16/1 17/27/1 19/1/1
f 16/2/1 13/26/1 28/3/1
f 28/3/1 31/16/1 19/1/1
f 28/4/2 29/28/2 32/5/2
f 29/29/3 30/30/3 6/31/3
f 29/29/3 6/31/3 7/32/3
f 22/33/3 23/34/3 32/9/3
f 26/35/3 22/33/3 32/9/3
f 29/29/3 7/32/3 12/36/3
f 29/29/3 12/36/3 14/37/3
f 25/38/3 26/35/3 32/9/3
f 24/39/3 25/38/3 32/9/3
f 29/29/3 14/37/3 18/40/3
f 29/29/3 18/40/3 20/7/3
f 21/8/3 24/39/3 32/9/3
f 32/9/3 29/29/3 20/7/3
f 23/12/4 1/41/4 2/42/4
f 3/10/4 31/43/4 32/11/4
f 23/12/4 2/42/4 3/10/4
f 30/13/5 29/44/5 28/14/5
