# Blender v3.0.1 OBJ File: 'Main.blend'
# www.blender.org
o Cube.5388_0275
v -1.437000 -0.123000 0.318000
v -1.437000 -0.123000 1.029000
v -1.437000 0.693000 1.029000
v -1.431000 -0.123000 0.318000
v -1.431000 -0.123000 1.029000
v -1.431000 0.693000 1.029000
v -1.437000 0.663000 0.464998
v -1.437000 0.693000 0.464998
v -1.437000 0.663000 0.318000
v -1.431000 0.663000 0.318000
v -1.431000 0.663000 0.464998
v -1.431000 0.693000 0.464998
vt 0.752142 0.034698
vt 0.762319 0.034698
vt 0.762319 0.035240
vt 0.781500 0.034698
vt 0.781500 0.048880
vt 0.778846 0.048880
vt 0.879247 0.198921
vt 0.879140 0.184196
vt 0.879247 0.184196
vt 0.348050 0.885793
vt 0.347943 0.872962
vt 0.348050 0.872962
vt 0.881730 0.094847
vt 0.881837 0.080664
vt 0.881837 0.094847
vt 0.894592 0.667687
vt 0.894699 0.677868
vt 0.894592 0.677868
vt 0.983732 0.237514
vt 0.983626 0.236973
vt 0.983732 0.236973
vt 0.937855 0.598820
vt 0.937962 0.601474
vt 0.937855 0.601474
vt 0.764973 0.035240
vt 0.764973 0.049423
vt 0.752142 0.049423
vt 0.778846 0.049422
vt 0.768669 0.049422
vt 0.768669 0.034698
vt 0.879140 0.198921
vt 0.347943 0.885793
vt 0.881730 0.080664
vt 0.894699 0.667687
vt 0.983626 0.237514
vt 0.937962 0.598820
vn -1.0000 0.0000 0.0000
vn 1.0000 0.0000 0.0000
vn 0.0000 0.0000 1.0000
vn 0.0000 -1.0000 0.0000
vn 0.0000 0.0000 -1.0000
vn 0.0000 1.0000 0.0000
s off
f 3/1/1 8/2/1 7/3/1
f 4/4/2 10/5/2 11/6/2
f 2/7/3 6/8/3 3/9/3
f 1/10/4 5/11/4 2/12/4
f 1/13/5 10/14/5 4/15/5
f 3/16/6 12/17/6 8/18/6
f 11/19/5 8/20/5 12/21/5
f 7/22/6 10/23/6 9/24/6
f 9/25/1 1/26/1 7/3/1
f 1/26/1 2/27/1 7/3/1
f 2/27/1 3/1/1 7/3/1
f 12/28/2 6/29/2 11/6/2
f 6/29/2 5/30/2 11/6/2
f 5/30/2 4/4/2 11/6/2
f 2/7/3 5/31/3 6/8/3
f 1/10/4 4/32/4 5/11/4
f 1/13/5 9/33/5 10/14/5
f 3/16/6 6/34/6 12/17/6
f 11/19/5 7/35/5 8/20/5
f 7/22/6 11/36/6 10/23/6
