# Blender v3.0.1 OBJ File: 'Main.blend'
# www.blender.org
o Cube.5822_0296
v -1.395000 0.039000 2.937000
v 0.003000 0.039000 2.937000
v 0.003000 0.045000 2.937000
v -1.395000 0.045000 2.937000
v -1.395000 0.039000 3.382500
v 0.003000 0.039000 3.382500
v 0.003000 0.045000 3.382500
v -1.395000 0.045000 3.382500
vt 0.862127 0.449484
vt 0.862019 0.424257
vt 0.862127 0.424257
vt 0.862404 0.228717
vt 0.862512 0.203491
vt 0.862512 0.228717
vt 0.764049 0.905243
vt 0.764157 0.897200
vt 0.764157 0.905243
vt 0.185332 0.897189
vt 0.185224 0.905231
vt 0.185224 0.897189
vt 0.123914 0.797540
vt 0.115872 0.772313
vt 0.123914 0.772313
vt 0.797959 0.029880
vt 0.789917 0.004653
vt 0.797959 0.004653
vt 0.862019 0.449484
vt 0.862404 0.203491
vt 0.764049 0.897200
vt 0.185332 0.905231
vt 0.115872 0.797540
vt 0.789917 0.029880
vn 0.0000 0.0000 -1.0000
vn 0.0000 0.0000 1.0000
vn -1.0000 0.0000 0.0000
vn 1.0000 0.0000 0.0000
vn 0.0000 1.0000 0.0000
vn 0.0000 -1.0000 0.0000
s off
f 3/1/1 1/2/1 4/3/1
f 5/4/2 7/5/2 8/6/2
f 1/7/3 8/8/3 4/9/3
f 3/10/4 6/11/4 2/12/4
f 4/13/5 7/14/5 3/15/5
f 2/16/6 5/17/6 1/18/6
f 3/1/1 2/19/1 1/2/1
f 5/4/2 6/20/2 7/5/2
f 1/7/3 5/21/3 8/8/3
f 3/10/4 7/22/4 6/11/4
f 4/13/5 8/23/5 7/14/5
f 2/16/6 6/24/6 5/17/6
