# Blender v3.0.1 OBJ File: 'Main.blend'
# www.blender.org
o Cube.851_0337
v 0.039000 -0.231000 -2.504968
v 0.039000 -0.210000 -2.504968
v 0.039000 -0.231000 -2.498968
v 0.039000 -0.210000 -2.498968
v 0.082500 -0.210000 -2.504968
v 0.082500 -0.231000 -2.504968
v 0.082500 -0.210000 -2.498968
v 0.082500 -0.231000 -2.498968
vt 0.361187 0.985640
vt 0.361294 0.985261
vt 0.361294 0.985640
vt 0.985524 0.924047
vt 0.985631 0.924426
vt 0.985524 0.924426
vt 0.868401 0.178568
vt 0.868294 0.179353
vt 0.868294 0.178568
vt 0.832328 0.573738
vt 0.832707 0.572953
vt 0.832707 0.573738
vt 0.975524 0.022021
vt 0.975631 0.021236
vt 0.975631 0.022021
vt 0.758838 0.962878
vt 0.758459 0.963662
vt 0.758459 0.962878
vt 0.361187 0.985261
vt 0.985631 0.924047
vt 0.868401 0.179353
vt 0.832328 0.572953
vt 0.975524 0.021236
vt 0.758838 0.963662
vn -1.0000 0.0000 0.0000
vn 1.0000 0.0000 0.0000
vn 0.0000 1.0000 0.0000
vn 0.0000 0.0000 1.0000
vn 0.0000 -1.0000 0.0000
vn 0.0000 0.0000 -1.0000
s off
f 3/1/1 2/2/1 1/3/1
f 5/4/2 8/5/2 6/6/2
f 4/7/3 5/8/3 2/9/3
f 3/10/4 7/11/4 4/12/4
f 1/13/5 8/14/5 3/15/5
f 2/16/6 6/17/6 1/18/6
f 3/1/1 4/19/1 2/2/1
f 5/4/2 7/20/2 8/5/2
f 4/7/3 7/21/3 5/8/3
f 3/10/4 8/22/4 7/11/4
f 1/13/5 6/23/5 8/14/5
f 2/16/6 5/24/6 6/17/6
