# Blender v3.0.1 OBJ File: 'Main.blend'
# www.blender.org
o Cube.3568_0018
v 0.405000 0.663000 0.465000
v 1.263001 0.663000 0.465000
v 1.203001 0.663000 1.032000
v 1.446001 0.663000 0.465000
v 1.446001 0.663000 1.032000
v 1.263001 0.663000 0.321000
v 1.446001 0.663000 0.321000
v 0.405000 0.663000 1.320000
v 0.606000 0.663000 1.032000
v 0.606001 0.663000 1.320000
v 0.195000 0.663000 0.465000
v 0.195000 0.663000 1.320000
v 0.405000 0.657000 0.465000
v 1.263001 0.657000 0.465000
v 1.446001 0.657000 1.032000
v 1.446001 0.657000 0.465000
v 1.203001 0.657000 1.032000
v 1.263001 0.657000 0.321000
v 1.446001 0.657000 0.321000
v 0.405000 0.657000 1.320000
v 0.606000 0.657000 1.032000
v 0.606001 0.657000 1.320000
v 0.195000 0.657000 1.320000
v 0.195000 0.657000 0.465000
vt 0.875789 0.501355
vt 0.875897 0.485927
vt 0.875897 0.501355
vt 0.938213 0.878768
vt 0.938321 0.876169
vt 0.938321 0.878768
vt 0.885502 0.404708
vt 0.885609 0.402111
vt 0.885609 0.404708
vt 0.907992 0.259219
vt 0.908100 0.255591
vt 0.908100 0.259219
vt 0.868153 0.772005
vt 0.868261 0.756524
vt 0.868261 0.772005
vt 0.919863 0.430885
vt 0.919971 0.425688
vt 0.919971 0.430885
vt 0.885502 0.414942
vt 0.885609 0.414942
vt 0.907992 0.263007
vt 0.908100 0.263007
vt 0.876128 0.829375
vt 0.876236 0.824991
vt 0.876236 0.829375
vt 0.876128 0.840151
vt 0.876236 0.840151
vt 0.868153 0.756524
vt 0.868261 0.752728
vt 0.933533 0.555677
vt 0.933641 0.552370
vt 0.933641 0.555677
vt 0.545426 0.132412
vt 0.540759 0.128127
vt 0.541267 0.124370
vt 0.533561 0.124721
vt 0.536135 0.124370
vt 0.534004 0.127990
vt 0.875789 0.485927
vt 0.938213 0.876169
vt 0.885502 0.402111
vt 0.907992 0.255591
vt 0.919863 0.425688
vt 0.876128 0.824991
vt 0.868153 0.752728
vt 0.933533 0.552370
vt 0.556557 0.126432
vt 0.556050 0.130189
vt 0.553984 0.145533
vt 0.556557 0.145877
vt 0.556114 0.149153
vt 0.540274 0.131724
vt 0.553541 0.148802
vt 0.543986 0.143089
vt 0.543402 0.147435
vt 0.536070 0.143333
vt 0.536578 0.147091
vt 0.525446 0.141111
vt 0.521287 0.149153
vt 0.520779 0.145396
vt 0.520294 0.141798
vt 0.536578 0.127646
vt 0.524006 0.130434
vt 0.523422 0.126088
vn -1.0000 0.0000 0.0000
vn 1.0000 0.0000 0.0000
vn -0.0000 0.0000 1.0000
vn 0.0000 0.0000 -1.0000
vn 0.0000 -1.0000 -0.0000
vn 0.0000 1.0000 0.0000
s off
f 24/1/1 12/2/1 11/3/1
f 18/4/1 2/5/1 6/6/1
f 16/7/2 7/8/2 4/9/2
f 20/10/3 10/11/3 8/12/3
f 14/13/4 1/14/4 2/15/4
f 22/16/2 9/17/2 10/18/2
f 15/19/2 4/9/2 5/20/2
f 23/21/3 8/12/3 12/22/3
f 17/23/3 5/24/3 3/25/3
f 21/26/3 3/25/3 9/27/3
f 13/28/4 11/29/4 1/14/4
f 19/30/4 6/31/4 7/32/4
f 21/33/5 20/34/5 23/35/5
f 4/36/6 7/37/6 2/38/6
f 24/1/1 23/39/1 12/2/1
f 18/4/1 14/40/1 2/5/1
f 16/7/2 19/41/2 7/8/2
f 20/10/3 22/42/3 10/11/3
f 14/13/4 13/28/4 1/14/4
f 22/16/2 21/43/2 9/17/2
f 15/19/2 16/7/2 4/9/2
f 23/21/3 20/10/3 8/12/3
f 17/23/3 15/44/3 5/24/3
f 21/26/3 17/23/3 3/25/3
f 13/28/4 24/45/4 11/29/4
f 19/30/4 18/46/4 6/31/4
f 23/35/5 24/47/5 21/33/5
f 24/47/5 13/48/5 21/33/5
f 14/49/5 18/50/5 19/51/5
f 13/48/5 14/49/5 21/33/5
f 21/33/5 22/52/5 20/34/5
f 14/49/5 19/51/5 16/53/5
f 21/33/5 14/49/5 17/54/5
f 16/53/5 15/55/5 14/49/5
f 15/55/5 17/54/5 14/49/5
f 1/56/6 11/57/6 9/58/6
f 11/57/6 12/59/6 9/58/6
f 8/60/6 10/61/6 9/58/6
f 12/59/6 8/60/6 9/58/6
f 7/37/6 6/62/6 2/38/6
f 3/63/6 5/64/6 2/38/6
f 5/64/6 4/36/6 2/38/6
f 1/56/6 9/58/6 2/38/6
f 9/58/6 3/63/6 2/38/6
