# Blender v3.0.1 OBJ File: 'Main.blend'
# www.blender.org
o Cube.4076_0247
v 0.187500 0.375000 1.858500
v 0.187500 0.375000 1.843500
v 0.202500 0.375000 1.858500
v 0.202500 0.375000 1.843500
v 0.187500 0.459000 1.858500
v 0.187500 0.459000 1.843500
v 0.202500 0.459000 1.858500
v 0.202500 0.459000 1.843500
vt 0.291221 0.947123
vt 0.291492 0.945607
vt 0.291492 0.947123
vt 0.960218 0.496781
vt 0.959948 0.496510
vt 0.960218 0.496510
vt 0.951809 0.042490
vt 0.952079 0.042220
vt 0.952079 0.042490
vt 0.946850 0.370107
vt 0.947120 0.368591
vt 0.947120 0.370107
vt 0.249479 0.947128
vt 0.249750 0.945612
vt 0.249750 0.947128
vt 0.253585 0.947128
vt 0.253855 0.945612
vt 0.253855 0.947128
vt 0.291221 0.945607
vt 0.959948 0.496781
vt 0.951809 0.042220
vt 0.946850 0.368591
vt 0.249479 0.945612
vt 0.253585 0.945612
vn 0.0000 0.0000 1.0000
vn 0.0000 -1.0000 0.0000
vn 0.0000 1.0000 0.0000
vn 0.0000 0.0000 -1.0000
vn 1.0000 0.0000 0.0000
vn -1.0000 0.0000 0.0000
s off
f 3/1/1 5/2/1 1/3/1
f 2/4/2 3/5/2 1/6/2
f 6/7/3 7/8/3 8/9/3
f 2/10/4 8/11/4 4/12/4
f 4/13/5 7/14/5 3/15/5
f 1/16/6 6/17/6 2/18/6
f 3/1/1 7/19/1 5/2/1
f 2/4/2 4/20/2 3/5/2
f 6/7/3 5/21/3 7/8/3
f 2/10/4 6/22/4 8/11/4
f 4/13/5 8/23/5 7/14/5
f 1/16/6 5/24/6 6/17/6
