# Blender v3.0.1 OBJ File: 'Main.blend'
# www.blender.org
o Cube.2648_0256
v -0.807000 -0.231000 0.471000
v -0.807000 -0.210000 0.471000
v -0.807000 -0.231000 0.465000
v -0.807000 -0.210000 0.465000
v 1.203000 -0.231000 0.471000
v 1.203000 -0.210000 0.471000
v 1.203000 -0.231000 0.465000
v 1.203000 -0.210000 0.465000
vt 0.370819 0.984848
vt 0.370928 0.985227
vt 0.370819 0.985227
vt 0.847398 0.735490
vt 0.847019 0.771761
vt 0.847019 0.735490
vt 0.985079 0.398908
vt 0.985187 0.399287
vt 0.985079 0.399287
vt 0.847453 0.695262
vt 0.847075 0.731533
vt 0.847075 0.695262
vt 0.848620 0.591079
vt 0.848728 0.627349
vt 0.848620 0.627349
vt 0.848360 0.490528
vt 0.848468 0.526798
vt 0.848360 0.526798
vt 0.370928 0.984848
vt 0.847398 0.771761
vt 0.985187 0.398908
vt 0.847453 0.731533
vt 0.848728 0.591079
vt 0.848468 0.490528
vn -1.0000 0.0000 0.0000
vn 0.0000 0.0000 -1.0000
vn 1.0000 0.0000 0.0000
vn 0.0000 0.0000 1.0000
vn 0.0000 -1.0000 0.0000
vn 0.0000 1.0000 0.0000
s off
f 2/1/1 3/2/1 1/3/1
f 4/4/2 7/5/2 3/6/2
f 8/7/3 5/8/3 7/9/3
f 6/10/4 1/11/4 5/12/4
f 7/13/5 1/14/5 3/15/5
f 4/16/6 6/17/6 8/18/6
f 2/1/1 4/19/1 3/2/1
f 4/4/2 8/20/2 7/5/2
f 8/7/3 6/21/3 5/8/3
f 6/10/4 2/22/4 1/11/4
f 7/13/5 5/23/5 1/14/5
f 4/16/6 2/24/6 6/17/6
