# Blender v3.0.1 OBJ File: 'Main.blend'
# www.blender.org
o Cube.1114_0121
v 3.273001 -0.390000 -12.339000
v 2.025001 -0.390000 -12.339000
v 2.280000 -0.390000 -12.339000
v 2.025001 -0.210000 -12.339000
v 1.701001 -0.390000 -12.339000
v 2.319000 -0.210000 -12.339000
v 3.273001 -0.390000 -21.068998
v 3.273001 -0.390000 -3.411000
v 3.273001 -0.210000 -3.411000
v 1.941000 -0.390000 -12.339000
v 1.941000 -0.210000 -12.339000
v 2.280000 -0.390000 -3.411000
v 2.319000 -0.210000 -3.411000
v 1.701001 -0.210000 -12.339000
v 3.273001 -0.210000 -12.339000
v 2.025001 -0.390000 -11.454000
v 0.987000 -0.390000 -12.339000
v 2.025001 -0.210000 -11.454000
v 3.273001 -0.210000 -21.068998
v 1.941000 -0.390000 -11.454000
v 0.987000 -0.210000 -12.339000
v 1.941000 -0.210000 -11.454000
v 0.915001 -0.390000 -12.339000
v 1.701001 -0.390000 -11.454000
v 0.915001 -0.390000 -21.068998
v 1.701001 -0.210000 -11.454000
v 0.915001 -0.210000 -12.339000
v 0.987000 -0.390000 -11.454000
v 0.915001 -0.210000 -21.068998
v 0.987000 -0.210000 -11.454000
v 0.915001 -0.390000 -19.320000
v 0.915001 -0.210000 -19.320000
v 0.195001 -0.390000 -21.068998
v 0.195001 -0.210000 -21.068998
v 0.195001 -0.390000 -19.320000
v 0.195001 -0.210000 -19.320000
v 0.195001 -0.390000 -19.770000
v 0.195001 -0.210000 -19.770000
v 0.135001 -0.390000 -21.068998
v 0.135001 -0.210000 -21.068998
v 0.135001 -0.390000 -19.770000
v 0.135001 -0.210000 -19.770000
vt 0.244564 0.324182
vt 0.241316 0.481713
vt 0.241316 0.324182
vt 0.535920 0.663437
vt 0.539166 0.789425
vt 0.535920 0.789425
vt 0.203306 0.159380
vt 0.202008 0.033407
vt 0.216198 0.159380
vt 0.915821 0.182552
vt 0.914523 0.185800
vt 0.914523 0.182552
vt 0.461212 0.839639
vt 0.457964 0.835041
vt 0.461212 0.834339
vt 0.723335 0.323884
vt 0.720087 0.319553
vt 0.723335 0.319553
vt 0.150134 0.159380
vt 0.144833 0.159380
vt 0.170167 0.033407
vt 0.733635 0.247135
vt 0.730388 0.289684
vt 0.730388 0.247135
vt 0.170167 0.001848
vt 0.183158 0.025288
vt 0.699520 0.862373
vt 0.702766 0.870500
vt 0.699520 0.870500
vt 0.834094 0.846899
vt 0.830846 0.859890
vt 0.830846 0.846899
vt 0.733635 0.289684
vt 0.730388 0.302675
vt 0.189024 0.033407
vt 0.189024 0.025288
vt 0.733635 0.302675
vt 0.730388 0.303759
vt 0.615048 0.812162
vt 0.618294 0.835625
vt 0.615048 0.835625
vt 0.187940 0.001848
vt 0.189024 0.001848
vt 0.183158 0.001848
vt 0.184243 0.025288
vt 0.274688 0.916305
vt 0.275773 0.919553
vt 0.274688 0.919553
vt 0.607277 0.847208
vt 0.604029 0.860093
vt 0.604029 0.847208
vt 0.203306 0.175350
vt 0.851608 0.546442
vt 0.848360 0.530495
vt 0.851608 0.530495
vt 0.168868 0.159380
vt 0.155984 0.175350
vt 0.155984 0.159380
vt 0.680459 0.836884
vt 0.677213 0.852831
vt 0.677213 0.836884
vt 0.892443 0.461821
vt 0.893955 0.465068
vt 0.892443 0.465068
vt 0.222049 0.159380
vt 0.220521 0.175350
vt 0.220521 0.159380
vt 0.380812 0.852751
vt 0.377564 0.836803
vt 0.380812 0.836803
vt 0.151654 0.159380
vt 0.150134 0.175350
vt 0.854386 0.665014
vt 0.851140 0.680961
vt 0.851140 0.665014
vt 0.845713 0.848205
vt 0.842465 0.830990
vt 0.845713 0.830287
vt 0.244564 0.159380
vt 0.226646 0.320485
vt 0.226646 0.159380
vt 0.244564 0.481713
vt 0.241316 0.642818
vt 0.127618 0.320485
vt 0.127618 0.159380
vt 0.759391 0.683252
vt 0.762662 0.522146
vt 0.762662 0.683252
vt 0.539166 0.663437
vt 0.202008 0.001848
vt 0.244564 0.001848
vt 0.202008 0.159380
vt 0.915821 0.185800
vt 0.457964 0.839639
vt 0.720087 0.323884
vt 0.127618 0.001848
vt 0.170167 0.159380
vt 0.183158 0.033407
vt 0.702766 0.862373
vt 0.834094 0.859890
vt 0.733635 0.303759
vt 0.618294 0.812162
vt 0.187940 0.025288
vt 0.184243 0.001848
vt 0.275773 0.916305
vt 0.607277 0.860093
vt 0.216198 0.175350
vt 0.848360 0.546442
vt 0.168868 0.175350
vt 0.680459 0.852831
vt 0.893955 0.461821
vt 0.222049 0.175350
vt 0.377564 0.852751
vt 0.151654 0.175350
vt 0.854386 0.680961
vt 0.842465 0.848205
vt 0.244564 0.320485
vt 0.244564 0.642818
vt 0.144833 0.320485
vt 0.759391 0.522146
vn 1.0000 0.0000 0.0000
vn -1.0000 0.0000 0.0000
vn 0.0000 -1.0000 0.0000
vn 0.0000 0.0000 1.0000
vn 0.0000 1.0000 0.0000
vn 0.0000 0.0000 -1.0000
vn -0.9773 0.2118 0.0000
s off
f 19/1/1 1/2/1 7/3/1
f 23/4/2 32/5/2 31/6/2
f 17/7/3 31/8/3 5/9/3
f 27/10/4 17/11/4 21/12/4
f 4/13/4 3/14/4 6/15/4
f 14/16/4 10/17/4 11/18/4
f 4/19/5 6/20/5 32/21/5
f 7/22/6 29/23/6 19/24/6
f 29/25/5 38/26/5 32/21/5
f 35/27/2 38/28/2 37/29/2
f 32/30/4 35/31/4 31/32/4
f 25/33/6 34/34/6 29/23/6
f 31/8/3 35/35/3 37/36/3
f 33/37/6 40/38/6 34/34/6
f 41/39/2 40/40/2 39/41/2
f 37/36/3 39/42/3 33/43/3
f 34/44/5 42/45/5 38/26/5
f 38/46/4 41/47/4 37/48/4
f 26/49/4 28/50/4 24/51/4
f 5/9/3 28/52/3 17/7/3
f 26/53/1 5/54/1 14/55/1
f 21/56/5 26/57/5 14/58/5
f 30/59/2 17/60/2 28/61/2
f 18/62/4 20/63/4 16/64/4
f 2/65/3 20/66/3 10/67/3
f 18/68/1 2/69/1 4/70/1
f 11/71/5 18/72/5 4/19/5
f 22/73/2 10/74/2 20/75/2
f 8/76/4 13/77/4 12/78/4
f 1/79/3 12/80/3 3/81/3
f 15/82/1 8/83/1 1/2/1
f 6/20/5 9/84/5 15/85/5
f 13/86/7 3/87/7 12/88/7
f 19/1/1 15/82/1 1/2/1
f 23/4/2 27/89/2 32/5/2
f 31/8/3 25/90/3 7/91/3
f 7/91/3 1/79/3 31/8/3
f 1/79/3 3/81/3 31/8/3
f 2/65/3 10/67/3 31/8/3
f 10/67/3 5/9/3 31/8/3
f 2/65/3 31/8/3 3/81/3
f 23/92/3 31/8/3 17/7/3
f 27/10/4 23/93/4 17/11/4
f 4/13/4 2/94/4 3/14/4
f 14/16/4 5/95/4 10/17/4
f 29/25/5 32/21/5 19/96/5
f 32/21/5 27/97/5 21/56/5
f 21/56/5 14/58/5 32/21/5
f 14/58/5 11/71/5 32/21/5
f 32/21/5 11/71/5 4/19/5
f 15/85/5 19/96/5 32/21/5
f 15/85/5 32/21/5 6/20/5
f 7/22/6 25/33/6 29/23/6
f 34/44/5 38/26/5 29/25/5
f 38/26/5 36/98/5 32/21/5
f 35/27/2 36/99/2 38/28/2
f 32/30/4 36/100/4 35/31/4
f 25/33/6 33/37/6 34/34/6
f 33/43/3 25/90/3 37/36/3
f 25/90/3 31/8/3 37/36/3
f 33/37/6 39/101/6 40/38/6
f 41/39/2 42/102/2 40/40/2
f 37/36/3 41/103/3 39/42/3
f 34/44/5 40/104/5 42/45/5
f 38/46/4 42/105/4 41/47/4
f 26/49/4 30/106/4 28/50/4
f 5/9/3 24/107/3 28/52/3
f 26/53/1 24/108/1 5/54/1
f 21/56/5 30/109/5 26/57/5
f 30/59/2 21/110/2 17/60/2
f 18/62/4 22/111/4 20/63/4
f 2/65/3 16/112/3 20/66/3
f 18/68/1 16/113/1 2/69/1
f 11/71/5 22/114/5 18/72/5
f 22/73/2 11/115/2 10/74/2
f 8/76/4 9/116/4 13/77/4
f 1/79/3 8/117/3 12/80/3
f 15/82/1 9/118/1 8/83/1
f 6/20/5 13/119/5 9/84/5
f 13/86/7 6/120/7 3/87/7
