# Blender v3.0.1 OBJ File: 'Main.blend'
# www.blender.org
o Cube.4483_0263
v -0.354000 0.060000 -1.068000
v -0.354000 0.237000 -1.068000
v -0.343888 0.270334 -1.068000
v -0.349433 0.259961 -1.068000
v -0.352847 0.248705 -1.068000
v -0.336426 0.279426 -1.068000
v -0.316961 0.292433 -1.068000
v -0.327334 0.286888 -1.068000
v -0.294000 0.297000 -1.068000
v -0.282295 0.295847 -1.068000
v -0.305705 0.295847 -1.068000
v -0.251574 0.279426 -1.068000
v -0.260666 0.286888 -1.068000
v -0.271039 0.292433 -1.068000
v -0.238567 0.259961 -1.068000
v -0.234000 0.237000 -1.068000
v -0.234000 0.060000 -1.068000
v -0.235153 0.248705 -1.068000
v -0.244112 0.270334 -1.068000
v -0.316961 0.292433 -1.065000
v -0.327334 0.286888 -1.065000
v -0.305705 0.295847 -1.065000
v -0.238567 0.259961 -1.065000
v -0.235153 0.248705 -1.065000
v -0.244112 0.270334 -1.065000
v -0.234000 0.237000 -1.065000
v -0.234000 0.060000 -1.065000
v -0.354000 0.060000 -1.065000
v -0.354000 0.237000 -1.065000
v -0.294000 0.297000 -1.065000
v -0.282295 0.295847 -1.065000
v -0.352847 0.248705 -1.065000
v -0.271039 0.292433 -1.065000
v -0.343888 0.270334 -1.065000
v -0.349433 0.259961 -1.065000
v -0.336426 0.279426 -1.065000
v -0.251574 0.279426 -1.065000
v -0.260666 0.286888 -1.065000
vt 0.000000 0.000000
vt 0.000000 0.000000
vt 0.000000 0.000000
vt 0.000000 0.000000
vt 0.000000 0.000000
vt 0.000000 0.000000
vt 0.000000 0.000000
vt 0.000000 0.000000
vt 0.000000 0.000000
vt 0.000000 0.000000
vt 0.000000 0.000000
vt 0.000000 0.000000
vt 0.000000 0.000000
vt 0.000000 0.000000
vt 0.000000 0.000000
vt 0.000000 0.000000
vt 0.000000 0.000000
vt 0.000000 0.000000
vt 0.000000 0.000000
vt 0.000000 0.000000
vt 0.000000 0.000000
vt 0.000000 0.000000
vt 0.000000 0.000000
vt 0.000000 0.000000
vt 0.000000 0.000000
vt 0.000000 0.000000
vt 0.000000 0.000000
vt 0.000000 0.000000
vt 0.000000 0.000000
vt 0.000000 0.000000
vt 0.000000 0.000000
vt 0.000000 0.000000
vt 0.000000 0.000000
vt 0.000000 0.000000
vt 0.000000 0.000000
vt 0.000000 0.000000
vt 0.000000 0.000000
vt 0.000000 0.000000
vn 0.0000 0.0000 -1.0000
vn -0.0000 0.0000 1.0000
vn 0.9569 0.2903 0.0000
vn 0.4714 0.8819 0.0000
vn -0.9952 0.0980 0.0000
vn 0.8819 0.4714 0.0000
vn -0.6344 0.7730 0.0000
vn 0.2903 0.9569 0.0000
vn 1.0000 0.0000 0.0000
vn -0.8819 0.4714 0.0000
vn 0.9952 0.0980 0.0000
vn -0.7730 0.6344 0.0000
vn -1.0000 0.0000 0.0000
vn -0.9569 0.2903 0.0000
vn 0.0980 0.9952 0.0000
vn -0.4714 0.8819 0.0000
vn 0.6344 0.7730 0.0000
vn -0.0980 0.9952 0.0000
vn -0.2903 0.9569 0.0000
vn 0.7730 0.6344 0.0000
vn 0.0000 -1.0000 0.0000
vn 0.0001 0.0000 -1.0000
vn -0.0001 0.0000 1.0000
s off
f 14/1/1 15/2/1 3/3/1
f 36/4/2 29/5/2 38/6/2
f 15/2/3 24/7/3 18/8/3
f 14/1/4 38/6/4 13/9/4
f 2/10/5 32/11/5 5/12/5
f 19/13/6 23/14/6 15/2/6
f 6/15/7 21/16/7 8/17/7
f 10/18/8 33/19/8 14/1/8
f 16/20/9 27/21/9 17/22/9
f 4/23/10 34/24/10 3/3/10
f 18/8/11 26/25/11 16/20/11
f 3/3/12 36/4/12 6/15/12
f 1/26/13 29/5/13 2/10/13
f 5/12/14 35/27/14 4/23/14
f 9/28/15 31/29/15 10/18/15
f 8/17/16 20/30/16 7/31/16
f 13/9/17 37/32/17 12/33/17
f 11/34/18 30/35/18 9/28/18
f 7/31/19 22/36/19 11/34/19
f 12/33/20 25/37/20 19/13/20
f 17/22/21 28/38/21 1/26/21
f 6/15/1 8/17/1 7/31/1
f 7/31/1 11/34/1 9/28/1
f 9/28/1 10/18/1 14/1/1
f 14/1/1 13/9/1 12/33/1
f 12/33/22 19/13/22 15/2/22
f 15/2/22 18/8/22 16/20/22
f 16/20/1 17/22/1 1/26/1
f 1/26/1 2/10/1 16/20/1
f 2/10/1 5/12/1 16/20/1
f 5/12/22 4/23/22 3/3/22
f 3/3/1 6/15/1 14/1/1
f 6/15/1 7/31/1 14/1/1
f 7/31/1 9/28/1 14/1/1
f 14/1/1 12/33/1 15/2/1
f 15/2/1 16/20/1 5/12/1
f 5/12/1 3/3/1 15/2/1
f 20/30/23 21/16/23 36/4/23
f 36/4/2 34/24/2 29/5/2
f 34/24/2 35/27/2 29/5/2
f 35/27/2 32/11/2 29/5/2
f 29/5/2 28/38/2 27/21/2
f 27/21/2 26/25/2 29/5/2
f 26/25/2 24/7/2 29/5/2
f 24/7/23 23/14/23 25/37/23
f 25/37/2 37/32/2 38/6/2
f 38/6/2 33/19/2 31/29/2
f 31/29/2 30/35/2 38/6/2
f 30/35/2 22/36/2 38/6/2
f 22/36/2 20/30/2 36/4/2
f 24/7/2 25/37/2 29/5/2
f 25/37/2 38/6/2 29/5/2
f 22/36/2 36/4/2 38/6/2
f 15/2/3 23/14/3 24/7/3
f 14/1/4 33/19/4 38/6/4
f 2/10/5 29/5/5 32/11/5
f 19/13/6 25/37/6 23/14/6
f 6/15/7 36/4/7 21/16/7
f 10/18/8 31/29/8 33/19/8
f 16/20/9 26/25/9 27/21/9
f 4/23/10 35/27/10 34/24/10
f 18/8/11 24/7/11 26/25/11
f 3/3/12 34/24/12 36/4/12
f 1/26/13 28/38/13 29/5/13
f 5/12/14 32/11/14 35/27/14
f 9/28/15 30/35/15 31/29/15
f 8/17/16 21/16/16 20/30/16
f 13/9/17 38/6/17 37/32/17
f 11/34/18 22/36/18 30/35/18
f 7/31/19 20/30/19 22/36/19
f 12/33/20 37/32/20 25/37/20
f 17/22/21 27/21/21 28/38/21
