# Blender v3.0.1 OBJ File: 'Main.blend'
# www.blender.org
o Cube.5645_0202
v -1.440001 0.465000 0.318000
v -1.899001 0.465000 0.318000
v -1.440001 0.465000 -0.369000
v -1.899001 0.465000 -0.369000
v -1.440001 0.615000 0.318000
v -1.899001 0.615000 0.318000
v -1.440001 0.615000 -0.369000
v -1.899001 0.615000 -0.369000
vt 0.529424 0.816707
vt 0.521141 0.816707
vt 0.521141 0.829103
vt 0.640992 0.828966
vt 0.640992 0.816570
vt 0.632705 0.816570
vt 0.128466 0.850215
vt 0.128466 0.862612
vt 0.131172 0.862612
vt 0.227460 0.863890
vt 0.227460 0.872173
vt 0.230165 0.872173
vt 0.842465 0.851902
vt 0.842465 0.864298
vt 0.845171 0.864298
vt 0.152080 0.863867
vt 0.152080 0.872154
vt 0.154785 0.872154
vt 0.529424 0.829103
vt 0.632705 0.828966
vt 0.131172 0.850215
vt 0.230165 0.863890
vt 0.845171 0.851902
vt 0.154785 0.863867
vn 0.0000 -1.0000 0.0000
vn 0.0000 1.0000 0.0000
vn 1.0000 0.0000 0.0000
vn 0.0000 0.0000 1.0000
vn -1.0000 0.0000 0.0000
vn 0.0000 0.0000 -1.0000
s off
f 1/1/1 2/2/1 4/3/1
f 8/4/2 6/5/2 5/6/2
f 1/7/3 3/8/3 7/9/3
f 2/10/4 1/11/4 5/12/4
f 4/13/5 2/14/5 6/15/5
f 3/16/6 4/17/6 8/18/6
f 1/1/1 4/3/1 3/19/1
f 8/4/2 5/6/2 7/20/2
f 1/7/3 7/9/3 5/21/3
f 2/10/4 5/12/4 6/22/4
f 4/13/5 6/15/5 8/23/5
f 3/16/6 8/18/6 7/24/6
