# Blender v3.0.1 OBJ File: 'Main.blend'
# www.blender.org
o Cube.5555_0238
v 1.445998 1.200000 0.458998
v 1.445998 1.200000 -0.021000
v -1.430998 1.200000 -0.509998
v 1.445998 1.200000 -0.509998
v -1.430998 1.200000 0.458998
v -1.430998 1.200000 -0.021000
v -1.430998 1.206000 -0.509998
v -1.430998 1.206000 -0.021000
v 1.445998 1.206000 0.458998
v 1.445998 1.206000 -0.021000
v 1.445998 1.206000 -0.509998
v -1.430998 1.206000 0.458998
vt 0.456488 0.663440
vt 0.465313 0.715356
vt 0.465313 0.663440
vt 0.499210 0.719969
vt 0.490550 0.668054
vt 0.490550 0.719969
vt 0.831020 0.086358
vt 0.830909 0.086358
vt 0.830909 0.138274
vt 0.872202 0.247459
vt 0.872091 0.247459
vt 0.872091 0.256121
vt 0.872116 0.347057
vt 0.872005 0.347057
vt 0.872005 0.355718
vt 0.831020 0.030741
vt 0.830909 0.030741
vt 0.830909 0.082657
vt 0.872116 0.355718
vt 0.872005 0.364543
vt 0.872202 0.238636
vt 0.872091 0.238636
vt 0.456488 0.715356
vt 0.447827 0.715356
vt 0.447827 0.663440
vt 0.499210 0.668054
vt 0.508036 0.668054
vt 0.508036 0.719969
vt 0.831020 0.138274
vt 0.872202 0.256121
vt 0.831020 0.082657
vt 0.872116 0.364543
vn 0.0000 -1.0000 0.0000
vn 0.0000 1.0000 0.0000
vn -0.0000 0.0000 1.0000
vn -1.0000 0.0000 0.0000
vn 1.0000 0.0000 0.0000
vn 0.0000 0.0000 -1.0000
s off
f 2/1/1 3/2/1 4/3/1
f 10/4/2 12/5/2 9/6/2
f 12/7/3 5/8/3 1/9/3
f 8/10/4 6/11/4 5/12/4
f 9/13/5 1/14/5 2/15/5
f 11/16/6 4/17/6 3/18/6
f 10/19/5 2/15/5 4/20/5
f 7/21/4 3/22/4 6/11/4
f 3/2/1 2/1/1 6/23/1
f 6/23/1 2/1/1 5/24/1
f 5/24/1 2/1/1 1/25/1
f 12/5/2 10/4/2 8/26/2
f 8/26/2 10/4/2 7/27/2
f 7/27/2 10/4/2 11/28/2
f 12/7/3 1/9/3 9/29/3
f 8/10/4 5/12/4 12/30/4
f 9/13/5 2/15/5 10/19/5
f 11/16/6 3/18/6 7/31/6
f 10/19/5 4/20/5 11/32/5
f 7/21/4 6/11/4 8/10/4
