# Blender v3.0.1 OBJ File: 'Main.blend'
# www.blender.org
o Cube.2649_0324
v 1.203000 -0.231000 0.465000
v 1.203000 -0.210000 0.465000
v 1.209000 -0.231000 0.465000
v 1.209000 -0.210000 0.465000
v 1.203000 -0.231000 0.057000
v 1.203000 -0.210000 0.057000
v 1.209000 -0.231000 0.057000
v 1.209000 -0.210000 0.057000
vt 0.068364 0.984979
vt 0.068255 0.984600
vt 0.068364 0.984600
vt 0.397245 0.984583
vt 0.397134 0.984962
vt 0.397134 0.984583
vt 0.724904 0.908051
vt 0.724793 0.900688
vt 0.724904 0.900688
vt 0.107827 0.903912
vt 0.107448 0.896550
vt 0.107827 0.896550
vt 0.205782 0.908070
vt 0.205673 0.900707
vt 0.205782 0.900707
vt 0.082158 0.896556
vt 0.082537 0.903918
vt 0.082158 0.903918
vt 0.068255 0.984979
vt 0.397245 0.984962
vt 0.724793 0.908051
vt 0.107448 0.903912
vt 0.205673 0.908070
vt 0.082537 0.896556
vn 0.0000 0.0000 1.0000
vn 0.0000 0.0000 -1.0000
vn 0.0000 1.0000 0.0000
vn 1.0000 0.0000 0.0000
vn 0.0000 -1.0000 0.0000
vn -1.0000 0.0000 0.0000
s off
f 1/1/1 4/2/1 2/3/1
f 8/4/2 5/5/2 6/6/2
f 8/7/3 2/8/3 4/9/3
f 7/10/4 4/11/4 3/12/4
f 5/13/5 3/14/5 1/15/5
f 6/16/6 1/17/6 2/18/6
f 1/1/1 3/19/1 4/2/1
f 8/4/2 7/20/2 5/5/2
f 8/7/3 6/21/3 2/8/3
f 7/10/4 8/22/4 4/11/4
f 5/13/5 7/23/5 3/14/5
f 6/16/6 5/24/6 1/17/6
