# Blender v3.0.1 OBJ File: 'Main.blend'
# www.blender.org
o Cube.5502_0223
v -1.440002 0.465000 1.269000
v -1.896002 0.465000 1.266000
v -1.896002 0.582000 1.266000
v -1.440002 0.582000 1.269000
v -1.440002 0.465000 0.318000
v -1.896002 0.465000 0.318000
v -1.896002 0.582000 0.318000
v -1.440002 0.582000 0.318000
v -1.896002 0.582000 0.975000
v -1.896002 0.465000 0.975000
v -1.899002 0.465000 1.266000
v -1.899002 0.582000 1.266000
v -1.899002 0.465000 0.975000
v -1.899002 0.582000 0.975000
v -1.440002 0.582000 1.035000
v -1.440002 0.465000 1.035000
v -1.410002 0.465000 1.269000
v -1.410002 0.582000 1.269000
v -1.410002 0.582000 1.035000
v -1.410002 0.465000 1.035000
vt 0.874326 0.865855
vt 0.872215 0.865855
vt 0.872215 0.874083
vt 0.236850 0.877601
vt 0.236850 0.869372
vt 0.234738 0.869372
vt 0.866810 0.312711
vt 0.866810 0.324564
vt 0.868922 0.324564
vt 0.201406 0.797379
vt 0.193178 0.796299
vt 0.193178 0.809237
vt 0.166087 0.798523
vt 0.174316 0.797442
vt 0.166087 0.793272
vt 0.867176 0.388888
vt 0.867176 0.375950
vt 0.865065 0.375950
vt 0.166034 0.798523
vt 0.193065 0.887557
vt 0.193065 0.892811
vt 0.195177 0.892811
vt 0.943650 0.816877
vt 0.943596 0.816877
vt 0.943596 0.818988
vt 0.874326 0.874137
vt 0.874326 0.874083
vt 0.201461 0.792129
vt 0.201406 0.792129
vt 0.872215 0.865313
vt 0.838142 0.309014
vt 0.838142 0.304790
vt 0.836030 0.304790
vt 0.568963 0.936862
vt 0.569504 0.936862
vt 0.569504 0.934751
vt 0.192636 0.796299
vt 0.193178 0.792075
vt 0.174857 0.793219
vt 0.174316 0.793219
vt 0.234738 0.877601
vt 0.868922 0.312711
vt 0.201406 0.809237
vt 0.174316 0.810380
vt 0.166087 0.810380
vt 0.865065 0.388888
vt 0.166034 0.793272
vt 0.195177 0.887557
vt 0.943650 0.818988
vt 0.872215 0.874137
vt 0.201461 0.797379
vt 0.874326 0.865313
vt 0.836030 0.309014
vt 0.568963 0.934751
vt 0.192636 0.792075
vt 0.174857 0.797442
vn -0.0066 0.0000 1.0000
vn 0.0000 0.0000 -1.0000
vn -1.0000 0.0000 0.0000
vn 0.0000 1.0000 0.0000
vn 0.0000 -1.0000 0.0000
vn 1.0000 0.0000 0.0000
vn 0.0000 0.0000 1.0000
s off
f 1/1/1 4/2/1 3/3/1
f 7/4/2 8/5/2 5/6/2
f 6/7/3 10/8/3 9/9/3
f 9/10/4 15/11/4 8/12/4
f 10/13/5 16/14/5 2/15/5
f 8/16/6 15/17/6 16/18/6
f 13/19/5 10/13/5 2/15/5
f 13/20/3 11/21/3 12/22/3
f 14/23/2 9/24/2 10/25/2
f 11/26/7 2/27/7 3/3/7
f 12/28/4 3/29/4 9/10/4
f 18/30/7 4/2/7 1/1/7
f 19/31/6 18/32/6 17/33/6
f 20/34/2 16/35/2 15/36/2
f 19/37/4 15/11/4 4/38/4
f 17/39/5 1/40/5 16/14/5
f 1/1/1 3/3/1 2/27/1
f 7/4/2 5/6/2 6/41/2
f 6/7/3 9/9/3 7/42/3
f 4/38/4 15/11/4 3/29/4
f 3/29/4 15/11/4 9/10/4
f 9/10/4 8/12/4 7/43/4
f 2/15/5 16/14/5 1/40/5
f 16/14/5 10/13/5 5/44/5
f 5/44/5 10/13/5 6/45/5
f 8/16/6 16/18/6 5/46/6
f 13/19/5 2/15/5 11/47/5
f 13/20/3 12/22/3 14/48/3
f 14/23/2 10/25/2 13/49/2
f 11/26/7 3/3/7 12/50/7
f 12/28/4 9/10/4 14/51/4
f 18/30/7 1/1/7 17/52/7
f 19/31/6 17/33/6 20/53/6
f 20/34/2 15/36/2 19/54/2
f 19/37/4 4/38/4 18/55/4
f 17/39/5 16/14/5 20/56/5
