# Blender v3.0.1 OBJ File: 'Main.blend'
# www.blender.org
o Cube.1690_0287
v -2.370000 -0.420000 -3.411000
v 3.273001 -0.420000 -3.411000
v -2.370000 -0.390000 -3.411000
v 3.273001 -0.390000 -3.411000
v -2.370000 -0.420000 -12.339000
v 3.273001 -0.420000 -12.339000
v -2.370000 -0.390000 -12.339000
v 3.273001 -0.390000 -12.339000
vt 0.394376 0.808126
vt 0.393835 0.706302
vt 0.394376 0.706302
vt 0.076101 0.801441
vt 0.076641 0.699614
vt 0.076641 0.801441
vt 0.084989 0.648716
vt 0.085529 0.809821
vt 0.084989 0.809821
vt 0.350084 0.327726
vt 0.248261 0.166635
vt 0.350084 0.166635
vt 0.810221 0.191832
vt 0.809681 0.030741
vt 0.810221 0.030741
vt 0.350088 0.162939
vt 0.248261 0.001848
vt 0.350088 0.001848
vt 0.393835 0.808126
vt 0.076101 0.699614
vt 0.085529 0.648716
vt 0.248261 0.327726
vt 0.809681 0.191832
vt 0.248261 0.162939
vn 0.0000 0.0000 1.0000
vn 0.0000 0.0000 -1.0000
vn -1.0000 0.0000 0.0000
vn 0.0000 1.0000 0.0000
vn 1.0000 0.0000 0.0000
vn 0.0000 -1.0000 0.0000
s off
f 2/1/1 3/2/1 1/3/1
f 7/4/2 6/5/2 5/6/2
f 7/7/3 1/8/3 3/9/3
f 8/10/4 3/11/4 4/12/4
f 6/13/5 4/14/5 2/15/5
f 5/16/6 2/17/6 1/18/6
f 2/1/1 4/19/1 3/2/1
f 7/4/2 8/20/2 6/5/2
f 7/7/3 5/21/3 1/8/3
f 8/10/4 7/22/4 3/11/4
f 6/13/5 8/23/5 4/14/5
f 5/16/6 6/24/6 2/17/6
