# Blender v3.0.1 OBJ File: 'Main.blend'
# www.blender.org
o Cube.5241_0177
v -1.189500 0.414000 -2.685000
v -1.189500 0.414000 -2.691000
v -1.027500 0.414000 -2.685000
v -1.027500 0.414000 -2.691000
v -1.189500 0.334724 -2.685000
v -1.189500 0.334724 -2.691000
v -1.184672 0.348042 -2.685000
v -1.173279 0.368511 -2.685000
v -1.159396 0.385309 -2.685000
v -1.143558 0.397791 -2.685000
v -1.126372 0.405477 -2.685000
v -1.108500 0.408073 -2.685000
v -1.090628 0.405477 -2.685000
v -1.032328 0.348042 -2.685000
v -1.032328 0.348042 -2.691000
v -1.057604 0.385309 -2.685000
v -1.073442 0.397791 -2.685000
v -1.027500 0.334724 -2.685000
v -1.043721 0.368511 -2.685000
v -1.043721 0.368511 -2.691000
v -1.057604 0.385309 -2.691000
v -1.073442 0.397791 -2.691000
v -1.090628 0.405477 -2.691000
v -1.184672 0.348042 -2.691000
v -1.173279 0.368511 -2.691000
v -1.159396 0.385309 -2.691000
v -1.108500 0.408073 -2.691000
v -1.126372 0.405477 -2.691000
v -1.143558 0.397791 -2.691000
v -1.027500 0.334724 -2.691000
vt 0.958215 0.168494
vt 0.958323 0.169866
vt 0.958215 0.169866
vt 0.908016 0.766042
vt 0.908016 0.768965
vt 0.907909 0.767503
vt 0.786187 0.202673
vt 0.786080 0.204134
vt 0.786035 0.203813
vt 0.936373 0.035910
vt 0.936265 0.038833
vt 0.936265 0.035910
vt 0.958184 0.407111
vt 0.958292 0.408483
vt 0.958184 0.408483
vt 0.958323 0.168494
vt 0.906826 0.766129
vt 0.906586 0.766042
vt 0.906586 0.768965
vt 0.906826 0.768878
vt 0.907195 0.768672
vt 0.907195 0.766334
vt 0.907499 0.766585
vt 0.907499 0.768422
vt 0.907724 0.768136
vt 0.907724 0.766871
vt 0.907863 0.767181
vt 0.907863 0.767826
vt 0.786187 0.205596
vt 0.784757 0.205596
vt 0.784998 0.205509
vt 0.785366 0.205304
vt 0.784998 0.202761
vt 0.784757 0.202673
vt 0.785366 0.202966
vt 0.785670 0.205053
vt 0.785895 0.204767
vt 0.785670 0.203216
vt 0.785895 0.203502
vt 0.786035 0.204457
vt 0.936373 0.038833
vt 0.958292 0.407111
vt 0.948581 0.287678
vt 0.948689 0.287933
vt 0.948581 0.287933
vt 0.948689 0.287266
vt 0.948581 0.287266
vt 0.948689 0.286905
vt 0.948581 0.286905
vt 0.948581 0.286608
vt 0.948581 0.286387
vt 0.948689 0.286608
vt 0.948581 0.286251
vt 0.948689 0.286387
vt 0.948752 0.680424
vt 0.948644 0.680288
vt 0.948752 0.680288
vt 0.948752 0.680645
vt 0.948644 0.680424
vt 0.948752 0.680942
vt 0.948644 0.680645
vt 0.948752 0.681302
vt 0.948644 0.680942
vt 0.948752 0.681715
vt 0.948644 0.681302
vt 0.948752 0.681970
vt 0.948644 0.681715
vt 0.948689 0.287678
vt 0.948689 0.286251
vt 0.948644 0.681970
vn -1.0000 0.0000 0.0000
vn 0.0000 0.0000 1.0000
vn 0.0000 0.0000 -1.0000
vn 0.0000 1.0000 0.0000
vn 1.0000 0.0000 0.0000
vn -0.6261 -0.2855 0.7255
vn 0.1457 -0.8296 -0.5390
vn 0.1457 -0.8296 0.5390
vn -0.5659 -0.3865 -0.7282
vn -0.5659 -0.3865 0.7282
vn -0.4763 -0.4875 -0.7318
vn -0.4763 -0.4875 0.7318
vn -0.3504 -0.5793 0.7359
vn -0.1876 -0.6465 0.7395
vn -0.3504 -0.5793 -0.7359
vn 0.0000 -0.6716 0.7409
vn -0.1876 -0.6465 -0.7395
vn 0.1876 -0.6465 0.7395
vn 0.0000 -0.6716 -0.7409
vn 0.3504 -0.5793 0.7359
vn 0.1876 -0.6465 -0.7395
vn 0.4763 -0.4875 0.7318
vn 0.3504 -0.5793 -0.7359
vn 0.5659 -0.3865 0.7282
vn 0.4763 -0.4874 -0.7318
vn 0.6261 -0.2855 0.7255
vn 0.5659 -0.3865 -0.7282
vn -0.1457 -0.8296 0.5390
vn 0.6261 -0.2855 -0.7255
vn -0.6261 -0.2855 -0.7255
vn -0.1457 -0.8296 -0.5389
s off
f 1/1/1 6/2/1 5/3/1
f 3/4/2 1/5/2 12/6/2
f 2/7/3 27/8/3 28/9/3
f 1/10/4 4/11/4 2/12/4
f 4/13/5 18/14/5 30/15/5
f 1/1/1 2/16/1 6/2/1
f 14/17/2 18/18/2 3/4/2
f 1/5/2 5/19/2 7/20/2
f 1/5/2 7/20/2 8/21/2
f 19/22/2 14/17/2 3/4/2
f 16/23/2 19/22/2 3/4/2
f 1/5/2 8/21/2 9/24/2
f 1/5/2 9/24/2 10/25/2
f 17/26/2 16/23/2 3/4/2
f 13/27/2 17/26/2 3/4/2
f 1/5/2 10/25/2 11/28/2
f 12/6/2 13/27/2 3/4/2
f 1/5/2 11/28/2 12/6/2
f 4/29/3 30/30/3 15/31/3
f 4/29/3 15/31/3 20/32/3
f 24/33/3 6/34/3 2/7/3
f 25/35/3 24/33/3 2/7/3
f 4/29/3 20/32/3 21/36/3
f 4/29/3 21/36/3 22/37/3
f 26/38/3 25/35/3 2/7/3
f 29/39/3 26/38/3 2/7/3
f 4/29/3 22/37/3 23/40/3
f 4/29/3 23/40/3 27/8/3
f 28/9/3 29/39/3 2/7/3
f 2/7/3 4/29/3 27/8/3
f 1/10/4 3/41/4 4/11/4
f 4/13/5 3/42/5 18/14/5
s 1
f 14/43/6 30/44/7 18/45/8
f 20/46/9 14/43/6 19/47/10
f 21/48/11 19/47/10 16/49/12
f 17/50/13 21/48/11 16/49/12
f 13/51/14 22/52/15 17/50/13
f 12/53/16 23/54/17 13/51/14
f 11/55/18 27/56/19 12/57/16
f 10/58/20 28/59/21 11/55/18
f 9/60/22 29/61/23 10/58/20
f 8/62/24 26/63/25 9/60/22
f 7/64/26 25/65/27 8/62/24
f 5/66/28 24/67/29 7/64/26
f 14/43/6 15/68/30 30/44/7
f 20/46/9 15/68/30 14/43/6
f 21/48/11 20/46/9 19/47/10
f 17/50/13 22/52/15 21/48/11
f 13/51/14 23/54/17 22/52/15
f 12/53/16 27/69/19 23/54/17
f 11/55/18 28/59/21 27/56/19
f 10/58/20 29/61/23 28/59/21
f 9/60/22 26/63/25 29/61/23
f 8/62/24 25/65/27 26/63/25
f 7/64/26 24/67/29 25/65/27
f 5/66/28 6/70/31 24/67/29
