# Blender v3.0.1 OBJ File: 'Main.blend'
# www.blender.org
o Cube.5083_0162
v 1.192500 0.429000 -2.680500
v 1.192500 0.429000 -2.695499
v 1.192500 0.414000 -2.680500
v 1.192500 0.414000 -2.695499
v -1.189500 0.429000 -2.680500
v -1.189500 0.429000 -2.695499
v -1.189500 0.414000 -2.680500
v -1.189500 0.414000 -2.695499
vt 0.859298 0.156424
vt 0.859569 0.156153
vt 0.859569 0.156424
vt 0.855331 0.156153
vt 0.855602 0.156424
vt 0.855331 0.156424
vt 0.106295 0.836832
vt 0.106024 0.793848
vt 0.106295 0.793848
vt 0.839743 0.355695
vt 0.839472 0.312711
vt 0.839743 0.312711
vt 0.838792 0.079858
vt 0.839063 0.122841
vt 0.838792 0.122841
vt 0.839656 0.160144
vt 0.839927 0.203127
vt 0.839656 0.203127
vt 0.859298 0.156153
vt 0.855602 0.156153
vt 0.106024 0.836832
vt 0.839472 0.355695
vt 0.839063 0.079858
vt 0.839927 0.160144
vn 1.0000 0.0000 0.0000
vn -1.0000 0.0000 0.0000
vn 0.0000 0.0000 1.0000
vn 0.0000 -1.0000 0.0000
vn 0.0000 0.0000 -1.0000
vn 0.0000 1.0000 0.0000
s off
f 1/1/1 4/2/1 2/3/1
f 8/4/2 5/5/2 6/6/2
f 5/7/3 3/8/3 1/9/3
f 7/10/4 4/11/4 3/12/4
f 8/13/5 2/14/5 4/15/5
f 6/16/6 1/17/6 2/18/6
f 1/1/1 3/19/1 4/2/1
f 8/4/2 7/20/2 5/5/2
f 5/7/3 7/21/3 3/8/3
f 7/10/4 8/22/4 4/11/4
f 8/13/5 6/23/5 2/14/5
f 6/16/6 5/24/6 1/17/6
