# Blender v3.0.1 OBJ File: 'Main.blend'
# www.blender.org
o Cube.5504_0242
v 1.446001 0.465000 -1.335000
v 1.902001 0.465000 -1.332001
v 1.902001 0.582000 -1.332001
v 1.446001 0.582000 -1.335000
v 1.446001 0.465000 -0.366001
v 1.902001 0.465000 -0.366001
v 1.902001 0.582000 -0.366001
v 1.446001 0.582000 -0.366001
v 1.902001 0.582000 -1.041000
v 1.902001 0.465000 -1.041000
v 1.905001 0.465000 -1.332001
v 1.905001 0.582000 -1.332001
v 1.905001 0.465000 -1.041000
v 1.905001 0.582000 -1.041000
vt 0.874669 0.687324
vt 0.872558 0.687324
vt 0.872558 0.695552
vt 0.027712 0.877985
vt 0.027712 0.869756
vt 0.025600 0.869756
vt 0.808508 0.855681
vt 0.808508 0.867863
vt 0.810620 0.867863
vt 0.434693 0.801835
vt 0.426465 0.796531
vt 0.426465 0.814017
vt 0.640988 0.812873
vt 0.632760 0.800691
vt 0.632760 0.812873
vt 0.245203 0.858460
vt 0.245203 0.840974
vt 0.243091 0.840974
vt 0.632705 0.800691
vt 0.632760 0.795437
vt 0.257445 0.887542
vt 0.257445 0.892797
vt 0.259557 0.892797
vt 0.943660 0.789212
vt 0.943605 0.789212
vt 0.943605 0.791323
vt 0.874669 0.695606
vt 0.874669 0.695552
vt 0.434748 0.796584
vt 0.434693 0.796584
vt 0.025600 0.877985
vt 0.810620 0.855681
vt 0.434693 0.814017
vt 0.640988 0.795383
vt 0.243091 0.858460
vt 0.632705 0.795437
vt 0.259557 0.887542
vt 0.943660 0.791323
vt 0.872558 0.695606
vt 0.434748 0.801835
vn 0.0066 0.0000 -1.0000
vn 0.0000 0.0000 1.0000
vn 1.0000 0.0000 0.0000
vn 0.0000 1.0000 0.0000
vn 0.0000 -1.0000 0.0000
vn -1.0000 0.0000 0.0000
vn 0.0000 0.0000 -1.0000
s off
f 1/1/1 4/2/1 3/3/1
f 7/4/2 8/5/2 5/6/2
f 6/7/3 10/8/3 9/9/3
f 9/10/4 4/11/4 8/12/4
f 5/13/5 10/14/5 6/15/5
f 8/16/6 4/17/6 1/18/6
f 13/19/5 10/14/5 2/20/5
f 13/21/3 11/22/3 12/23/3
f 14/24/2 9/25/2 10/26/2
f 11/27/7 2/28/7 3/3/7
f 12/29/4 3/30/4 9/10/4
f 1/1/1 3/3/1 2/28/1
f 7/4/2 5/6/2 6/31/2
f 6/7/3 9/9/3 7/32/3
f 4/11/4 9/10/4 3/30/4
f 9/10/4 8/12/4 7/33/4
f 2/20/5 10/14/5 1/34/5
f 1/34/5 10/14/5 5/13/5
f 8/16/6 1/18/6 5/35/6
f 13/19/5 2/20/5 11/36/5
f 13/21/3 12/23/3 14/37/3
f 14/24/2 10/26/2 13/38/2
f 11/27/7 3/3/7 12/39/7
f 12/29/4 9/10/4 14/40/4
