# Blender v3.0.1 OBJ File: 'Main.blend'
# www.blender.org
o Cube.380_0072
v -2.370000 -0.390000 10.139999
v -2.370000 -0.210000 10.139999
v -2.370000 -0.390000 6.090000
v -2.370000 -0.210000 6.090000
v -0.156000 -0.390000 10.139999
v -0.156000 -0.210000 10.139999
v -0.156000 -0.390000 6.090000
v -0.156000 -0.210000 6.090000
v -2.370000 -0.210000 5.820000
v -2.370000 -0.390000 5.820000
v -0.168000 -0.390000 5.820000
v -0.168000 -0.210000 5.820000
v -2.370000 -0.210000 5.489999
v -2.370000 -0.390000 5.489999
v -0.195000 -0.390000 5.489999
v -0.195000 -0.210000 5.489999
v -2.370000 -0.210000 5.130000
v -2.370000 -0.390000 5.130000
v -0.252000 -0.390000 5.130000
v -0.252000 -0.210000 5.130000
v -2.370000 -0.210000 4.679999
v -2.370000 -0.390000 4.679999
v -0.354000 -0.390000 4.679999
v -0.354000 -0.210000 4.679999
v -2.370000 -0.210000 4.469999
v -2.370000 -0.390000 4.469999
v -0.411000 -0.390000 4.469999
v -0.411000 -0.210000 4.469999
v -2.370000 -0.210000 4.289999
v -2.370000 -0.390000 4.289999
v -0.474000 -0.390000 4.289999
v -0.474000 -0.210000 4.289999
v -2.370000 -0.210000 4.110000
v -2.370000 -0.390000 4.110000
v -0.540000 -0.390000 4.110000
v -0.540000 -0.210000 4.110000
v -2.370000 -0.210000 3.554999
v -2.370000 -0.390000 3.554999
v -0.756000 -0.390000 3.554999
v -0.756000 -0.210000 3.554999
vt 0.123921 0.041808
vt 0.120674 0.114883
vt 0.120674 0.041808
vt 0.047592 0.041808
vt 0.042720 0.002078
vt 0.047592 0.001848
vt 0.797833 0.100191
vt 0.794585 0.171766
vt 0.794585 0.100191
vt 0.123921 0.001848
vt 0.120674 0.001848
vt 0.603899 0.239711
vt 0.643850 0.166635
vt 0.643850 0.239711
vt 0.794585 0.095376
vt 0.797833 0.089445
vt 0.797833 0.095376
vt 0.643629 0.244584
vt 0.603899 0.244584
vt 0.123921 0.114883
vt 0.120674 0.119756
vt 0.603899 0.250541
vt 0.642117 0.257033
vt 0.603899 0.257033
vt 0.042720 0.041808
vt 0.036765 0.002551
vt 0.643148 0.250541
vt 0.123921 0.119756
vt 0.120674 0.125713
vt 0.030269 0.041808
vt 0.022149 0.005423
vt 0.030269 0.003590
vt 0.123921 0.125713
vt 0.120674 0.132205
vt 0.794585 0.089445
vt 0.797833 0.082875
vt 0.036765 0.041808
vt 0.603899 0.265159
vt 0.639245 0.268947
vt 0.603899 0.268947
vt 0.640276 0.265159
vt 0.123921 0.132205
vt 0.120674 0.140332
vt 0.794585 0.082875
vt 0.797833 0.074550
vt 0.794585 0.070632
vt 0.797833 0.067222
vt 0.797833 0.070632
vt 0.123921 0.140332
vt 0.120674 0.144120
vt 0.794585 0.074550
vt 0.022149 0.041808
vt 0.018359 0.006461
vt 0.603899 0.272201
vt 0.636923 0.275439
vt 0.603899 0.275439
vt 0.018359 0.041808
vt 0.015111 0.007592
vt 0.638107 0.272201
vt 0.123921 0.144120
vt 0.120674 0.147373
vt 0.633020 0.285460
vt 0.603899 0.285460
vt 0.123921 0.147373
vt 0.120674 0.150612
vt 0.794585 0.067222
vt 0.797833 0.063800
vt 0.015111 0.041808
vt 0.011863 0.008783
vt 0.662617 0.785128
vt 0.659370 0.814254
vt 0.659370 0.785128
vt 0.123921 0.150612
vt 0.120674 0.160632
vt 0.794585 0.063800
vt 0.797833 0.053203
vt 0.011863 0.041808
vt 0.001848 0.012678
vt 0.797833 0.171766
vt 0.603899 0.166635
vt 0.662617 0.814254
vt 0.123921 0.160632
vt 0.794585 0.053203
vt 0.001848 0.041808
vn -1.0000 0.0000 0.0000
vn 0.0000 -1.0000 -0.0000
vn 1.0000 0.0000 0.0000
vn 0.0000 0.0000 1.0000
vn 0.0000 1.0000 0.0000
vn 0.9967 0.0000 -0.0815
vn 0.9990 0.0000 -0.0444
vn 0.9877 0.0000 -0.1564
vn 0.9753 0.0000 -0.2211
vn 0.9439 0.0000 -0.3303
vn 0.9651 0.0000 -0.2620
vn 0.9389 0.0000 -0.3443
vn 0.0000 0.0000 -1.0000
vn 0.9319 0.0000 -0.3627
vn 0.9439 0.0000 -0.3304
s off
f 2/1/1 3/2/1 1/3/1
f 3/4/2 11/5/2 7/6/2
f 8/7/3 5/8/3 7/9/3
f 6/10/4 1/3/4 5/11/4
f 7/6/2 1/3/2 3/4/2
f 4/12/5 6/13/5 8/14/5
f 11/15/6 16/16/6 12/17/6
f 4/12/5 12/18/5 9/19/5
f 4/20/1 10/21/1 3/2/1
f 7/9/7 12/17/7 8/7/7
f 13/22/5 20/23/5 17/24/5
f 10/25/2 15/26/2 11/5/2
f 9/19/5 16/27/5 13/22/5
f 9/28/1 14/29/1 10/21/1
f 18/30/2 23/31/2 19/32/2
f 13/33/1 18/34/1 14/29/1
f 15/35/8 20/36/8 16/16/8
f 14/37/2 19/32/2 15/26/2
f 21/38/5 28/39/5 25/40/5
f 17/24/5 24/41/5 21/38/5
f 17/42/1 22/43/1 18/34/1
f 19/44/9 24/45/9 20/36/9
f 27/46/10 32/47/10 28/48/10
f 21/49/1 26/50/1 22/43/1
f 23/51/11 28/48/11 24/45/11
f 22/52/2 27/53/2 23/31/2
f 29/54/5 36/55/5 33/56/5
f 26/57/2 31/58/2 27/53/2
f 25/40/5 32/59/5 29/54/5
f 25/60/1 30/61/1 26/50/1
f 33/56/5 40/62/5 37/63/5
f 29/64/1 34/65/1 30/61/1
f 31/66/12 36/67/12 32/47/12
f 30/68/2 35/69/2 31/58/2
f 37/70/13 39/71/13 38/72/13
f 33/73/1 38/74/1 34/65/1
f 35/75/14 40/76/14 36/67/14
f 34/77/2 39/78/2 35/69/2
f 2/1/1 4/20/1 3/2/1
f 3/4/2 10/25/2 11/5/2
f 8/7/3 6/79/3 5/8/3
f 6/10/4 2/1/4 1/3/4
f 7/6/2 5/11/2 1/3/2
f 4/12/5 2/80/5 6/13/5
f 11/15/6 15/35/6 16/16/6
f 4/12/5 8/14/5 12/18/5
f 4/20/1 9/28/1 10/21/1
f 7/9/7 11/15/7 12/17/7
f 13/22/5 16/27/5 20/23/5
f 10/25/2 14/37/2 15/26/2
f 9/19/5 12/18/5 16/27/5
f 9/28/1 13/33/1 14/29/1
f 18/30/2 22/52/2 23/31/2
f 13/33/1 17/42/1 18/34/1
f 15/35/8 19/44/8 20/36/8
f 14/37/2 18/30/2 19/32/2
f 21/38/5 24/41/5 28/39/5
f 17/24/5 20/23/5 24/41/5
f 17/42/1 21/49/1 22/43/1
f 19/44/9 23/51/9 24/45/9
f 27/46/15 31/66/15 32/47/15
f 21/49/1 25/60/1 26/50/1
f 23/51/11 27/46/11 28/48/11
f 22/52/2 26/57/2 27/53/2
f 29/54/5 32/59/5 36/55/5
f 26/57/2 30/68/2 31/58/2
f 25/40/5 28/39/5 32/59/5
f 25/60/1 29/64/1 30/61/1
f 33/56/5 36/55/5 40/62/5
f 29/64/1 33/73/1 34/65/1
f 31/66/12 35/75/12 36/67/12
f 30/68/2 34/77/2 35/69/2
f 37/70/13 40/81/13 39/71/13
f 33/73/1 37/82/1 38/74/1
f 35/75/14 39/83/14 40/76/14
f 34/77/2 38/84/2 39/78/2
