# Blender v3.0.1 OBJ File: 'Main.blend'
# www.blender.org
o Cube.4749_0232
v 1.450500 0.000000 -1.569000
v 1.450500 0.477000 -1.569000
v 1.438500 0.000000 -1.569000
v 1.438500 0.477000 -1.569000
v 1.438500 0.000000 -1.314000
v 1.438500 0.477000 -1.314000
v 1.450500 0.477000 -1.314000
v 1.450500 0.000000 -1.314000
v 1.438500 0.060000 -1.380000
v 1.438500 0.237000 -1.380000
v 1.438500 0.259961 -1.384567
v 1.438500 0.248705 -1.381153
v 1.438500 0.279426 -1.397573
v 1.438500 0.292433 -1.417039
v 1.438500 0.286888 -1.406666
v 1.450500 0.295847 -1.428294
v 1.438500 0.295847 -1.428294
v 1.438500 0.270334 -1.390112
v 1.438500 0.297000 -1.440000
v 1.438500 0.295847 -1.451705
v 1.438500 0.292433 -1.462961
v 1.438500 0.279426 -1.482426
v 1.438500 0.259961 -1.495432
v 1.438500 0.270334 -1.489888
v 1.438500 0.237000 -1.500000
v 1.438500 0.060000 -1.500000
v 1.438500 0.248705 -1.498847
v 1.438500 0.286888 -1.473334
v 1.450500 0.292433 -1.417039
v 1.450500 0.060000 -1.380000
v 1.450500 0.286888 -1.406666
v 1.450500 0.279426 -1.397573
v 1.450500 0.270334 -1.390112
v 1.450500 0.237000 -1.380000
v 1.450500 0.259961 -1.384567
v 1.450500 0.248705 -1.381153
v 1.450500 0.295847 -1.451705
v 1.450500 0.279426 -1.482426
v 1.450500 0.286888 -1.473334
v 1.450500 0.292433 -1.462961
v 1.450500 0.259961 -1.495432
v 1.450500 0.237000 -1.500000
v 1.450500 0.060000 -1.500000
v 1.450500 0.248705 -1.498847
v 1.450500 0.270334 -1.489888
v 1.450500 0.297000 -1.440000
vt 0.753734 0.901376
vt 0.753950 0.892902
vt 0.753950 0.901376
vt 0.575642 0.855988
vt 0.575428 0.856009
vt 0.573366 0.852740
vt 0.926480 0.835140
vt 0.926263 0.838285
vt 0.926263 0.835140
vt 0.926126 0.391385
vt 0.926343 0.388240
vt 0.926343 0.391385
vt 0.940714 0.337802
vt 0.940930 0.335633
vt 0.940930 0.337802
vt 0.728722 0.948151
vt 0.728505 0.947945
vt 0.728722 0.947945
vt 0.728505 0.948357
vt 0.728505 0.948151
vt 0.728722 0.948540
vt 0.728505 0.948540
vt 0.728722 0.948708
vt 0.728505 0.948708
vt 0.926126 0.387430
vt 0.926343 0.387616
vt 0.926126 0.387616
vt 0.926343 0.387818
vt 0.926126 0.387818
vt 0.926343 0.388028
vt 0.926126 0.388028
vt 0.926126 0.388240
vt 0.728505 0.947731
vt 0.728505 0.947525
vt 0.728722 0.947731
vt 0.728505 0.947341
vt 0.728722 0.947525
vt 0.728505 0.947173
vt 0.728722 0.947341
vt 0.926480 0.834331
vt 0.926263 0.834516
vt 0.926263 0.834331
vt 0.926480 0.834516
vt 0.926263 0.834718
vt 0.926480 0.834718
vt 0.926263 0.834929
vt 0.926480 0.834929
vt 0.576726 0.860264
vt 0.573366 0.861347
vt 0.574557 0.860264
vt 0.737455 0.861296
vt 0.734094 0.860213
vt 0.736263 0.860213
vt 0.154623 0.918813
vt 0.154407 0.923418
vt 0.154407 0.918813
vt 0.735179 0.855936
vt 0.734965 0.855957
vt 0.732849 0.852688
vt 0.922957 0.694218
vt 0.923174 0.698824
vt 0.922957 0.698824
vt 0.442372 0.901801
vt 0.442588 0.893327
vt 0.442588 0.901801
vt 0.753734 0.892902
vt 0.574557 0.857070
vt 0.577971 0.852740
vt 0.577971 0.861347
vt 0.576726 0.857070
vt 0.574580 0.856859
vt 0.576703 0.856859
vt 0.576642 0.856656
vt 0.574641 0.856656
vt 0.574741 0.856469
vt 0.576543 0.856469
vt 0.576406 0.856305
vt 0.574878 0.856305
vt 0.575038 0.856170
vt 0.576245 0.856170
vt 0.576054 0.856070
vt 0.575229 0.856070
vt 0.575856 0.856009
vt 0.926480 0.838285
vt 0.940714 0.335633
vt 0.728722 0.948357
vt 0.926343 0.387430
vt 0.728722 0.947173
vt 0.732849 0.861296
vt 0.154623 0.923418
vt 0.734094 0.857019
vt 0.737455 0.852688
vt 0.736263 0.857019
vt 0.734117 0.856808
vt 0.736241 0.856808
vt 0.736179 0.856605
vt 0.734178 0.856605
vt 0.734278 0.856418
vt 0.736080 0.856418
vt 0.735943 0.856253
vt 0.734415 0.856253
vt 0.734576 0.856119
vt 0.735782 0.856119
vt 0.735591 0.856019
vt 0.734766 0.856019
vt 0.735393 0.855957
vt 0.923174 0.694218
vt 0.442372 0.893327
vn 0.0000 0.0000 -1.0000
vn -1.0000 -0.0000 0.0000
vn 0.0000 0.0000 1.0000
vn 0.0000 1.0000 0.0000
vn 0.0000 -0.9952 -0.0980
vn 0.0000 -0.9569 -0.2903
vn 0.0000 -0.8819 -0.4714
vn 0.0000 -0.7730 -0.6344
vn 0.0000 -0.6344 -0.7730
vn 0.0000 -0.4714 -0.8819
vn 0.0000 -0.2903 -0.9569
vn 0.0000 -0.0980 -0.9952
vn 0.0000 -0.9952 0.0980
vn 0.0000 -0.9569 0.2903
vn 0.0000 -0.8819 0.4714
vn 0.0000 -0.7730 0.6344
vn 0.0000 -0.6344 0.7730
vn 0.0000 -0.4714 0.8819
vn 0.0000 -0.2903 0.9569
vn 0.0000 -0.0980 0.9952
vn 1.0000 0.0000 0.0000
vn 0.0000 -1.0000 0.0000
s off
f 3/1/1 2/2/1 1/3/1
f 19/4/2 17/5/2 6/6/2
f 25/7/3 43/8/3 42/9/3
f 9/10/1 34/11/1 30/12/1
f 26/13/4 30/14/4 43/15/4
f 16/16/5 19/17/5 46/18/5
f 16/16/6 14/19/6 17/20/6
f 14/19/7 31/21/7 15/22/7
f 15/22/8 32/23/8 13/24/8
f 13/25/9 33/26/9 18/27/9
f 18/27/10 35/28/10 11/29/10
f 11/29/11 36/30/11 12/31/11
f 12/31/12 34/11/12 10/32/12
f 20/33/13 46/18/13 19/17/13
f 21/34/14 37/35/14 20/33/14
f 28/36/15 40/37/15 21/34/15
f 22/38/16 39/39/16 28/36/16
f 22/40/17 45/41/17 38/42/17
f 24/43/18 41/44/18 45/41/18
f 23/45/19 44/46/19 41/44/19
f 27/47/20 42/9/20 44/46/20
f 26/48/2 5/49/2 9/50/2
f 8/51/21 43/52/21 30/53/21
f 5/54/22 1/55/22 8/56/22
f 46/57/21 37/58/21 2/59/21
f 6/60/4 2/61/4 4/62/4
f 8/63/3 6/64/3 5/65/3
f 3/1/1 4/66/1 2/2/1
f 9/50/2 5/49/2 10/67/2
f 5/49/2 6/6/2 10/67/2
f 4/68/2 3/69/2 25/70/2
f 3/69/2 26/48/2 25/70/2
f 12/71/2 10/67/2 6/6/2
f 4/68/2 25/70/2 27/72/2
f 4/68/2 27/72/2 23/73/2
f 11/74/2 12/71/2 6/6/2
f 18/75/2 11/74/2 6/6/2
f 4/68/2 23/73/2 24/76/2
f 4/68/2 24/76/2 22/77/2
f 13/78/2 18/75/2 6/6/2
f 15/79/2 13/78/2 6/6/2
f 6/6/2 4/68/2 19/4/2
f 4/68/2 22/77/2 28/80/2
f 4/68/2 28/80/2 21/81/2
f 14/82/2 15/79/2 6/6/2
f 17/5/2 14/82/2 6/6/2
f 4/68/2 21/81/2 20/83/2
f 4/68/2 20/83/2 19/4/2
f 25/7/3 26/84/3 43/8/3
f 9/10/1 10/32/1 34/11/1
f 26/13/4 9/85/4 30/14/4
f 16/16/5 17/20/5 19/17/5
f 16/16/6 29/86/6 14/19/6
f 14/19/7 29/86/7 31/21/7
f 15/22/8 31/21/8 32/23/8
f 13/25/9 32/87/9 33/26/9
f 18/27/10 33/26/10 35/28/10
f 11/29/11 35/28/11 36/30/11
f 12/31/12 36/30/12 34/11/12
f 20/33/13 37/35/13 46/18/13
f 21/34/14 40/37/14 37/35/14
f 28/36/15 39/39/15 40/37/15
f 22/38/16 38/88/16 39/39/16
f 22/40/17 24/43/17 45/41/17
f 24/43/18 23/45/18 41/44/18
f 23/45/19 27/47/19 44/46/19
f 27/47/20 25/7/20 42/9/20
f 26/48/2 3/69/2 5/49/2
f 8/51/21 1/89/21 43/52/21
f 5/54/22 3/90/22 1/55/22
f 42/91/21 43/52/21 1/89/21
f 7/92/21 8/51/21 34/93/21
f 8/51/21 30/53/21 34/93/21
f 42/91/21 1/89/21 2/59/21
f 44/94/21 42/91/21 2/59/21
f 7/92/21 34/93/21 36/95/21
f 7/92/21 36/95/21 35/96/21
f 41/97/21 44/94/21 2/59/21
f 45/98/21 41/97/21 2/59/21
f 7/92/21 35/96/21 33/99/21
f 7/92/21 33/99/21 32/100/21
f 38/101/21 45/98/21 2/59/21
f 39/102/21 38/101/21 2/59/21
f 2/59/21 7/92/21 46/57/21
f 7/92/21 32/100/21 31/103/21
f 7/92/21 31/103/21 29/104/21
f 40/105/21 39/102/21 2/59/21
f 37/58/21 40/105/21 2/59/21
f 7/92/21 29/104/21 16/106/21
f 7/92/21 16/106/21 46/57/21
f 6/60/4 7/107/4 2/61/4
f 8/63/3 7/108/3 6/64/3
