# Blender v3.0.1 OBJ File: 'Main.blend'
# www.blender.org
o Cube.5327_0282
v -1.441502 0.369000 -1.950000
v -1.459502 0.369000 -1.950000
v -1.459502 0.369000 -1.938000
v -1.602002 0.369000 -1.938000
v -1.602002 0.369000 -1.950000
v -1.689002 0.369000 -1.950000
v -1.689002 0.369000 -1.938000
v -1.896002 0.369000 -1.938000
v -1.896002 0.369000 -1.974000
v -1.887002 0.369000 -1.974000
v -1.887002 0.369000 -1.986000
v -1.869002 0.369000 -1.986000
v -1.869002 0.369000 -1.962000
v -1.441502 0.369000 -1.962000
v -1.441502 0.459000 -1.950000
v -1.459502 0.459000 -1.950000
v -1.459502 0.459000 -1.938000
v -1.602002 0.459000 -1.938000
v -1.602002 0.459000 -1.950000
v -1.689002 0.459000 -1.950000
v -1.689002 0.459000 -1.938000
v -1.896002 0.459000 -1.938000
v -1.896002 0.459000 -1.974000
v -1.887002 0.459000 -1.974000
v -1.887002 0.459000 -1.986000
v -1.869002 0.459000 -1.986000
v -1.869002 0.459000 -1.962000
v -1.441502 0.459000 -1.962000
vt 0.583093 0.884892
vt 0.583742 0.884730
vt 0.583093 0.884730
vt 0.158482 0.884454
vt 0.158918 0.884942
vt 0.159131 0.884617
vt 0.945697 0.588933
vt 0.945918 0.588933
vt 0.945918 0.587309
vt 0.033497 0.642354
vt 0.033497 0.644925
vt 0.035120 0.644925
vt 0.898996 0.944534
vt 0.899320 0.944534
vt 0.899320 0.942910
vt 0.945688 0.350085
vt 0.945909 0.350085
vt 0.945909 0.348461
vt 0.021717 0.943747
vt 0.022152 0.943747
vt 0.022152 0.942123
vt 0.845896 0.234520
vt 0.847466 0.234520
vt 0.847466 0.232896
vt 0.069079 0.882241
vt 0.069079 0.874527
vt 0.067455 0.874527
vt 0.316802 0.945968
vt 0.317024 0.945968
vt 0.317024 0.944344
vt 0.945707 0.897085
vt 0.945928 0.897085
vt 0.945928 0.895461
vt 0.569144 0.832787
vt 0.569144 0.836522
vt 0.570767 0.836522
vt 0.533165 0.939953
vt 0.533815 0.939953
vt 0.533815 0.938329
vt 0.039782 0.944383
vt 0.040107 0.944383
vt 0.040107 0.942759
vt 0.270055 0.948620
vt 0.270218 0.948620
vt 0.270218 0.946996
vt 0.945693 0.282413
vt 0.945914 0.282413
vt 0.945914 0.280789
vt 0.583520 0.892606
vt 0.583307 0.892931
vt 0.583520 0.892931
vt 0.583307 0.885217
vt 0.582871 0.885217
vt 0.582871 0.884892
vt 0.583520 0.890035
vt 0.583520 0.888465
vt 0.583742 0.890035
vt 0.583742 0.892606
vt 0.583742 0.888465
vt 0.158704 0.892331
vt 0.158482 0.889759
vt 0.158482 0.892331
vt 0.158704 0.889759
vt 0.158918 0.892656
vt 0.158704 0.892656
vt 0.159353 0.884617
vt 0.159353 0.884942
vt 0.158704 0.888190
vt 0.158482 0.888190
vt 0.159131 0.884454
vt 0.945697 0.587309
vt 0.035120 0.642354
vt 0.898996 0.942910
vt 0.945688 0.348461
vt 0.021717 0.942123
vt 0.845896 0.232896
vt 0.067455 0.882241
vt 0.316802 0.944344
vt 0.945707 0.895461
vt 0.570767 0.832787
vt 0.533165 0.938329
vt 0.039782 0.942759
vt 0.270055 0.946996
vt 0.945693 0.280789
vn 0.0000 -1.0000 0.0000
vn 0.0000 1.0000 0.0000
vn -1.0000 0.0000 0.0000
vn 0.0000 0.0000 1.0000
vn 0.0000 0.0000 -1.0000
vn 1.0000 0.0000 0.0000
s off
f 10/1/1 8/2/1 9/3/1
f 22/4/2 27/5/2 24/6/2
f 11/7/3 10/8/3 24/9/3
f 4/10/4 3/11/4 17/12/4
f 12/13/5 11/14/5 25/15/5
f 5/16/3 4/17/3 18/18/3
f 13/19/6 12/20/6 26/21/6
f 6/22/4 5/23/4 19/24/4
f 14/25/5 13/26/5 27/27/5
f 7/28/6 6/29/6 20/30/6
f 1/31/6 14/32/6 28/33/6
f 8/34/4 7/35/4 21/36/4
f 9/37/3 8/38/3 22/39/3
f 2/40/4 1/41/4 15/42/4
f 10/43/5 9/44/5 23/45/5
f 3/46/6 2/47/6 16/48/6
f 2/49/1 14/50/1 1/51/1
f 13/52/1 10/1/1 12/53/1
f 12/53/1 10/1/1 11/54/1
f 2/49/1 5/55/1 14/50/1
f 14/50/1 6/56/1 13/52/1
f 5/55/1 6/56/1 14/50/1
f 4/57/1 2/49/1 3/58/1
f 5/55/1 2/49/1 4/57/1
f 8/2/1 13/52/1 7/59/1
f 7/59/1 13/52/1 6/56/1
f 13/52/1 8/2/1 10/1/1
f 16/60/2 18/61/2 17/62/2
f 16/60/2 19/63/2 18/61/2
f 28/64/2 16/60/2 15/65/2
f 25/66/2 24/6/2 26/67/2
f 26/67/2 24/6/2 27/5/2
f 27/5/2 20/68/2 28/64/2
f 28/64/2 19/63/2 16/60/2
f 19/63/2 28/64/2 20/68/2
f 20/68/2 27/5/2 21/69/2
f 21/69/2 27/5/2 22/4/2
f 22/4/2 24/6/2 23/70/2
f 11/7/3 24/9/3 25/71/3
f 4/10/4 17/12/4 18/72/4
f 12/13/5 25/15/5 26/73/5
f 5/16/3 18/18/3 19/74/3
f 13/19/6 26/21/6 27/75/6
f 6/22/4 19/24/4 20/76/4
f 14/25/5 27/27/5 28/77/5
f 7/28/6 20/30/6 21/78/6
f 1/31/6 28/33/6 15/79/6
f 8/34/4 21/36/4 22/80/4
f 9/37/3 22/39/3 23/81/3
f 2/40/4 15/42/4 16/82/4
f 10/43/5 23/45/5 24/83/5
f 3/46/6 16/48/6 17/84/6
