# Blender v3.0.1 OBJ File: 'Main.blend'
# www.blender.org
o Cube.5565_0188
v 1.451998 1.206000 -0.419998
v 1.457998 1.206000 -0.419998
v 1.457998 1.206000 -0.521998
v 1.241248 1.206000 -0.521998
v 1.452000 0.465000 -0.420001
v 1.241248 1.206000 -0.515998
v 1.451998 1.206000 -0.515998
v 1.458000 0.465000 -0.420001
v 1.458000 0.465000 -0.522001
v 1.241250 0.465000 -0.522001
v 1.241250 0.465000 -0.516001
v 1.452000 0.465000 -0.516001
vt 0.854591 0.308702
vt 0.854483 0.308702
vt 0.854483 0.304899
vt 0.847321 0.304899
vt 0.847213 0.308702
vt 0.847213 0.304790
vt 0.658815 0.843910
vt 0.662617 0.857282
vt 0.658815 0.857282
vt 0.883534 0.766803
vt 0.883426 0.753432
vt 0.883534 0.753432
vt 0.596259 0.856880
vt 0.600171 0.843509
vt 0.600171 0.856880
vt 0.866934 0.505052
vt 0.865202 0.518423
vt 0.865202 0.505052
vt 0.883507 0.487984
vt 0.883615 0.501355
vt 0.883507 0.501355
vt 0.569669 0.866111
vt 0.567828 0.852740
vt 0.569669 0.852740
vt 0.852750 0.304899
vt 0.852750 0.304790
vt 0.854591 0.304790
vt 0.849054 0.304790
vt 0.849054 0.304899
vt 0.847321 0.308702
vt 0.662617 0.843910
vt 0.883426 0.766803
vt 0.596259 0.843509
vt 0.866934 0.518423
vt 0.883615 0.487984
vt 0.567828 0.866111
vn 0.0000 1.0000 0.0000
vn 0.0000 -1.0000 -0.0000
vn 0.0000 -0.0000 1.0000
vn 0.0000 0.0000 -1.0000
vn -1.0000 -0.0000 0.0000
vn 1.0000 0.0000 0.0000
s off
f 4/1/1 6/2/1 7/3/1
f 12/4/2 10/5/2 9/6/2
f 11/7/3 7/8/3 6/9/3
f 5/10/3 2/11/3 1/12/3
f 3/13/4 10/14/4 4/15/4
f 7/16/5 5/17/5 1/18/5
f 10/19/5 6/20/5 4/21/5
f 8/22/6 3/23/6 2/24/6
f 1/25/1 2/26/1 7/3/1
f 2/26/1 3/27/1 7/3/1
f 3/27/1 4/1/1 7/3/1
f 9/6/2 8/28/2 12/4/2
f 8/28/2 5/29/2 12/4/2
f 12/4/2 11/30/2 10/5/2
f 11/7/3 12/31/3 7/8/3
f 5/10/3 8/32/3 2/11/3
f 3/13/4 9/33/4 10/14/4
f 7/16/5 12/34/5 5/17/5
f 10/19/5 11/35/5 6/20/5
f 8/22/6 9/36/6 3/23/6
