# Blender v3.0.1 OBJ File: 'Main.blend'
# www.blender.org
o Cube.5432_0360
v 1.892997 -0.123000 1.302000
v 1.892997 0.366000 1.302000
v 1.892997 0.366000 2.874000
v 1.874997 -0.123000 1.302000
v 1.874997 0.366000 1.302000
v 1.874997 0.366000 2.874000
v 1.892997 -0.123000 1.323000
v 1.892997 -0.004581 2.874000
v 1.874997 -0.123000 1.323000
v 1.874997 -0.004581 2.874000
v 1.874997 0.066000 1.989000
v 1.892997 0.066000 1.989000
v 1.874997 0.186000 2.034000
v 1.892997 0.186000 2.034000
v 1.892997 0.186000 2.169000
v 1.892997 0.186000 2.124000
v 1.892997 0.186000 1.989000
v 1.892997 0.186000 1.854000
v 1.892997 0.066000 1.854000
v 1.892997 0.186000 1.899000
v 1.892997 0.066000 1.764000
v 1.892997 0.066000 1.719000
v 1.892997 0.186000 1.764000
v 1.874997 0.186000 2.439000
v 1.892997 0.186000 2.439000
v 1.892997 0.066000 1.899000
v 1.892997 0.066000 1.629000
v 1.892997 0.066000 1.494000
v 1.892997 0.066000 1.584000
v 1.892997 0.186000 1.494000
v 1.892997 0.186000 1.584000
v 1.892997 0.186000 1.629000
v 1.892997 0.066000 1.359000
v 1.892997 0.066000 1.449000
v 1.892997 0.186000 1.359000
v 1.892997 0.186000 1.449000
v 1.892997 0.186000 1.314000
v 1.892997 0.066000 1.314000
v 1.874997 0.186000 1.989000
v 1.892997 0.186000 2.394000
v 1.874997 0.186000 2.394000
v 1.892997 0.186000 1.719000
v 1.892997 0.186000 2.529000
v 1.874997 0.186000 2.529000
v 1.874997 0.186000 2.124000
v 1.874997 0.066000 2.529000
v 1.892997 0.066000 2.529000
v 1.874997 0.186000 2.574000
v 1.892997 0.186000 2.574000
v 1.874997 0.066000 2.574000
v 1.892997 0.066000 2.574000
v 1.874997 0.066000 2.124000
v 1.892997 0.066000 2.124000
v 1.874997 0.186000 2.169000
v 1.892997 0.186000 2.664000
v 1.874997 0.186000 2.664000
v 1.892997 0.066000 2.169000
v 1.874997 0.066000 2.169000
v 1.874997 0.066000 2.664000
v 1.892997 0.066000 2.664000
v 1.874997 0.186000 2.709000
v 1.892997 0.186000 2.709000
v 1.892997 0.066000 2.709000
v 1.874997 0.066000 2.709000
v 1.892997 0.066000 2.844000
v 1.892997 0.186000 2.844000
v 1.892997 0.066000 2.799000
v 1.892997 0.186000 2.799000
v 1.874997 0.186000 2.799000
v 1.892997 0.066000 2.439000
v 1.874997 0.066000 2.799000
v 1.892997 0.186000 2.259000
v 1.892997 0.066000 2.259000
v 1.892997 0.186000 2.304000
v 1.892997 0.066000 2.304000
v 1.892997 0.066000 2.394000
v 1.892997 0.066000 2.034000
v 1.874997 0.186000 2.844000
v 1.874997 0.186000 2.259000
v 1.874997 0.066000 2.259000
v 1.874997 0.066000 2.844000
v 1.874997 0.186000 2.304000
v 1.874997 0.066000 2.304000
v 1.874997 0.066000 2.394000
v 1.874997 0.066000 1.314000
v 1.874997 0.066000 2.439000
v 1.874997 0.066000 2.034000
v 1.874997 0.186000 1.899000
v 1.874997 0.066000 1.899000
v 1.874997 0.066000 1.854000
v 1.874997 0.186000 1.764000
v 1.874997 0.066000 1.764000
v 1.874997 0.186000 1.854000
v 1.874997 0.066000 1.719000
v 1.874997 0.066000 1.629000
v 1.874997 0.186000 1.719000
v 1.874997 0.066000 1.584000
v 1.874997 0.186000 1.629000
v 1.874997 0.186000 1.494000
v 1.874997 0.186000 1.584000
v 1.874997 0.066000 1.359000
v 1.874997 0.066000 1.449000
v 1.874997 0.066000 1.494000
v 1.874997 0.186000 1.449000
v 1.874997 0.186000 1.359000
v 1.874997 0.186000 1.314000
v 1.874997 0.066000 1.330313
vt 0.526255 0.730036
vt 0.528421 0.731655
vt 0.526255 0.731655
vt 0.528421 0.729226
vt 0.528421 0.727607
vt 0.531668 0.719267
vt 0.450195 0.644547
vt 0.450195 0.646167
vt 0.446785 0.656561
vt 0.455608 0.656943
vt 0.452360 0.648603
vt 0.452360 0.646984
vt 0.059348 0.900920
vt 0.059673 0.907608
vt 0.059348 0.907608
vt 0.855280 0.729639
vt 0.854955 0.701273
vt 0.855280 0.701273
vt 0.608591 0.897985
vt 0.608266 0.889160
vt 0.608591 0.889160
vt 0.854851 0.059122
vt 0.855176 0.058740
vt 0.855176 0.059122
vt 0.854851 0.030741
vt 0.854851 0.058740
vt 0.608537 0.938801
vt 0.608862 0.936636
vt 0.608862 0.938801
vt 0.529287 0.936395
vt 0.528962 0.938561
vt 0.528962 0.936395
vt 0.968184 0.746178
vt 0.967860 0.746178
vt 0.967860 0.745880
vt 0.701262 0.971457
vt 0.701587 0.970639
vt 0.701587 0.971457
vt 0.158529 0.938703
vt 0.158853 0.936538
vt 0.158853 0.938703
vt 0.022152 0.936260
vt 0.021827 0.938426
vt 0.021827 0.936260
vt 0.895370 0.971441
vt 0.895045 0.970624
vt 0.895370 0.970624
vt 0.969007 0.568742
vt 0.969332 0.567925
vt 0.969332 0.568742
vt 0.890683 0.938577
vt 0.891008 0.936411
vt 0.891008 0.938577
vt 0.628431 0.936640
vt 0.628107 0.938805
vt 0.628107 0.936640
vt 0.964163 0.746178
vt 0.963838 0.745361
vt 0.964163 0.745361
vt 0.969115 0.042904
vt 0.969440 0.042086
vt 0.969440 0.042904
vt 0.785153 0.938910
vt 0.785478 0.936744
vt 0.785478 0.938910
vt 0.332650 0.936382
vt 0.332325 0.938547
vt 0.332325 0.936382
vt 0.965310 0.568742
vt 0.964986 0.567925
vt 0.965310 0.567925
vt 0.437918 0.971162
vt 0.438243 0.970345
vt 0.438243 0.971162
vt 0.938614 0.110959
vt 0.938939 0.108794
vt 0.938939 0.110959
vt 0.938924 0.229483
vt 0.938599 0.231649
vt 0.938599 0.229483
vt 0.142921 0.971404
vt 0.142596 0.970587
vt 0.142921 0.970587
vt 0.244971 0.971417
vt 0.245296 0.970600
vt 0.245296 0.971417
vt 0.235375 0.938554
vt 0.235700 0.936389
vt 0.235700 0.938554
vt 0.781396 0.936556
vt 0.781071 0.938722
vt 0.781071 0.936556
vt 0.154243 0.970523
vt 0.154567 0.971340
vt 0.154243 0.971340
vt 0.965093 0.042909
vt 0.965418 0.042091
vt 0.965418 0.042909
vt 0.758513 0.938903
vt 0.758838 0.936738
vt 0.758838 0.938903
vt 0.931789 0.938883
vt 0.932114 0.936718
vt 0.932114 0.938883
vt 0.511809 0.971232
vt 0.512134 0.970415
vt 0.512134 0.971232
vt 0.964963 0.033201
vt 0.965288 0.032384
vt 0.965288 0.033201
vt 0.820588 0.938548
vt 0.820912 0.936382
vt 0.820912 0.938548
vt 0.936136 0.936646
vt 0.935811 0.938811
vt 0.935811 0.936646
vt 0.877721 0.971272
vt 0.877396 0.970454
vt 0.877721 0.970454
vt 0.560093 0.971416
vt 0.560418 0.970599
vt 0.560418 0.971416
vt 0.865496 0.938558
vt 0.865820 0.936393
vt 0.865820 0.938558
vt 0.096169 0.936527
vt 0.095845 0.938692
vt 0.095845 0.936527
vt 0.201158 0.971663
vt 0.200833 0.970845
vt 0.201158 0.970845
vt 0.031408 0.971245
vt 0.031733 0.970428
vt 0.031733 0.971245
vt 0.938844 0.610531
vt 0.938519 0.612696
vt 0.938519 0.610531
vt 0.482584 0.936374
vt 0.482260 0.938540
vt 0.482260 0.936374
vt 0.968985 0.033201
vt 0.969310 0.032384
vt 0.969310 0.033201
vt 0.569667 0.970663
vt 0.569342 0.971480
vt 0.569342 0.970663
vt 0.658417 0.936375
vt 0.658092 0.938541
vt 0.658092 0.936375
vt 0.376494 0.938918
vt 0.376819 0.936752
vt 0.376819 0.938918
vt 0.249562 0.971632
vt 0.249887 0.970815
vt 0.249887 0.971632
vt 0.002485 0.970837
vt 0.002160 0.971655
vt 0.002160 0.970837
vt 0.938592 0.357464
vt 0.938917 0.355298
vt 0.938917 0.357464
vt 0.407380 0.936333
vt 0.407055 0.938498
vt 0.407055 0.936333
vt 0.971694 0.621690
vt 0.971369 0.620881
vt 0.971694 0.620881
vt 0.971369 0.343337
vt 0.971694 0.342528
vt 0.971694 0.343337
vt 0.526255 0.746273
vt 0.526255 0.747083
vt 0.524982 0.747633
vt 0.522845 0.719649
vt 0.526255 0.737353
vt 0.522845 0.719267
vt 0.526255 0.719481
vt 0.526255 0.738972
vt 0.526255 0.720290
vt 0.526255 0.721910
vt 0.526255 0.722734
vt 0.526255 0.724354
vt 0.526255 0.744654
vt 0.526255 0.743845
vt 0.526255 0.742210
vt 0.526255 0.741400
vt 0.526255 0.725163
vt 0.528421 0.725163
vt 0.528421 0.726782
vt 0.526255 0.739781
vt 0.526255 0.726782
vt 0.526255 0.736528
vt 0.528421 0.737353
vt 0.528421 0.738972
vt 0.526255 0.734909
vt 0.526255 0.734099
vt 0.526255 0.727607
vt 0.526255 0.729226
vt 0.526255 0.732480
vt 0.528421 0.730036
vt 0.528421 0.741400
vt 0.528421 0.739781
vt 0.531668 0.747633
vt 0.528421 0.736528
vt 0.528421 0.742210
vt 0.528421 0.743845
vt 0.528421 0.734909
vt 0.528421 0.744654
vt 0.528421 0.746273
vt 0.528421 0.747083
vt 0.528421 0.734099
vt 0.528421 0.719481
vt 0.528421 0.720290
vt 0.528421 0.721910
vt 0.528421 0.722734
vt 0.528421 0.732480
vt 0.528421 0.724354
vt 0.450195 0.632366
vt 0.452360 0.632366
vt 0.452360 0.633985
vt 0.450195 0.633985
vt 0.452360 0.629929
vt 0.452360 0.631556
vt 0.450195 0.631556
vt 0.448921 0.628577
vt 0.450195 0.634802
vt 0.450195 0.636421
vt 0.450195 0.629929
vt 0.450195 0.629120
vt 0.450195 0.638858
vt 0.450195 0.655912
vt 0.450195 0.656431
vt 0.450195 0.651857
vt 0.450195 0.653476
vt 0.450195 0.654285
vt 0.452360 0.634802
vt 0.452360 0.636421
vt 0.450195 0.637238
vt 0.452360 0.649420
vt 0.452360 0.651039
vt 0.450195 0.651039
vt 0.450195 0.639675
vt 0.450195 0.641294
vt 0.450195 0.649420
vt 0.450195 0.642111
vt 0.450195 0.643730
vt 0.450195 0.646984
vt 0.450195 0.648603
vt 0.452360 0.644547
vt 0.452360 0.646167
vt 0.452360 0.637238
vt 0.455608 0.628577
vt 0.452360 0.638858
vt 0.452360 0.629120
vt 0.446785 0.656943
vt 0.450195 0.656722
vt 0.452360 0.642111
vt 0.452360 0.639675
vt 0.452360 0.656722
vt 0.452360 0.641294
vt 0.452360 0.655912
vt 0.452360 0.654285
vt 0.452360 0.653476
vt 0.452360 0.643730
vt 0.452360 0.651857
vt 0.059673 0.900920
vt 0.854955 0.729639
vt 0.608266 0.897985
vt 0.855176 0.030741
vt 0.608537 0.936636
vt 0.529287 0.938561
vt 0.967860 0.745361
vt 0.968184 0.745361
vt 0.701262 0.970639
vt 0.158529 0.936538
vt 0.022152 0.938426
vt 0.895045 0.971441
vt 0.969007 0.567925
vt 0.890683 0.936411
vt 0.628431 0.938805
vt 0.963838 0.746178
vt 0.969115 0.042086
vt 0.785153 0.936744
vt 0.332650 0.938547
vt 0.964986 0.568742
vt 0.437918 0.970345
vt 0.938614 0.108794
vt 0.938924 0.231649
vt 0.142596 0.971404
vt 0.244971 0.970600
vt 0.235375 0.936389
vt 0.781396 0.938722
vt 0.154567 0.970523
vt 0.965093 0.042091
vt 0.758513 0.936738
vt 0.931789 0.936718
vt 0.511809 0.970415
vt 0.964963 0.032384
vt 0.820588 0.936382
vt 0.936136 0.938811
vt 0.877396 0.971272
vt 0.560093 0.970599
vt 0.865496 0.936393
vt 0.096169 0.938692
vt 0.200833 0.971663
vt 0.031408 0.970428
vt 0.938844 0.612696
vt 0.482584 0.938540
vt 0.968985 0.032384
vt 0.569667 0.971480
vt 0.658417 0.938541
vt 0.376494 0.936752
vt 0.249562 0.970815
vt 0.002485 0.971655
vt 0.938592 0.355298
vt 0.407380 0.938498
vt 0.971369 0.621690
vt 0.971369 0.342528
vn 1.0000 0.0000 0.0000
vn -1.0000 0.0000 0.0000
vn 0.0000 0.0000 1.0000
vn 0.0000 1.0000 0.0000
vn 0.0000 0.0000 -1.0000
vn 0.0000 -1.0000 0.0000
vn 0.0000 -0.9971 0.0761
s off
f 26/1/1 17/2/1 12/3/1
f 18/4/1 23/5/1 2/6/1
f 11/7/2 89/8/2 9/9/2
f 5/10/2 91/11/2 93/12/2
f 3/13/3 10/14/3 8/15/3
f 2/16/4 6/17/4 3/18/4
f 1/19/5 5/20/5 2/21/5
f 1/22/6 9/23/6 4/24/6
f 8/25/7 9/23/7 7/26/7
f 38/27/3 106/28/3 85/29/3
f 35/30/5 101/31/5 105/32/5
f 38/33/4 85/34/4 107/35/4
f 37/36/6 105/37/6 106/38/6
f 34/39/3 104/40/3 102/41/3
f 30/42/5 103/43/5 99/44/5
f 34/45/4 103/46/4 28/47/4
f 36/48/6 99/49/6 104/50/6
f 29/51/3 100/52/3 97/53/3
f 32/54/5 95/55/5 98/56/5
f 29/57/4 95/58/4 27/59/4
f 31/60/6 98/61/6 100/62/6
f 22/63/3 96/64/3 94/65/3
f 23/66/5 92/67/5 91/68/5
f 22/69/4 92/70/4 21/71/4
f 42/72/6 91/73/6 96/74/6
f 19/75/3 93/76/3 90/77/3
f 20/78/5 89/79/5 88/80/5
f 19/81/4 89/82/4 26/83/4
f 18/84/6 88/85/6 93/86/6
f 12/87/3 39/88/3 11/89/3
f 14/90/5 87/91/5 13/92/5
f 87/93/4 12/94/4 11/95/4
f 17/96/6 13/97/6 39/98/6
f 53/99/3 45/100/3 52/101/3
f 58/102/5 15/103/5 57/104/5
f 52/105/4 57/106/4 53/107/4
f 16/108/6 54/109/6 45/110/6
f 73/111/3 79/112/3 80/113/3
f 74/114/5 83/115/5 82/116/5
f 73/117/4 83/118/4 75/119/4
f 72/120/6 82/121/6 79/122/6
f 76/123/3 41/124/3 84/125/3
f 25/126/5 86/127/5 24/128/5
f 76/129/4 86/130/4 70/131/4
f 40/132/6 24/133/6 41/134/6
f 44/135/3 47/136/3 43/137/3
f 49/138/5 50/139/5 48/140/5
f 46/141/4 51/142/4 47/143/4
f 48/144/6 43/145/6 49/146/6
f 56/147/3 60/148/3 55/149/3
f 64/150/5 62/151/5 63/152/5
f 59/153/4 63/154/4 60/155/4
f 61/156/6 55/157/6 62/158/6
f 67/159/3 69/160/3 71/161/3
f 66/162/5 81/163/5 78/164/5
f 67/165/4 81/166/4 65/167/4
f 68/168/6 78/169/6 69/170/6
f 67/171/1 65/172/1 8/173/1
f 8/173/1 7/174/1 75/175/1
f 7/174/1 1/176/1 38/177/1
f 8/173/1 75/175/1 76/178/1
f 38/177/1 33/179/1 7/174/1
f 34/180/1 28/181/1 7/174/1
f 28/181/1 29/182/1 7/174/1
f 34/180/1 7/174/1 33/179/1
f 67/171/1 8/173/1 63/183/1
f 63/183/1 8/173/1 60/184/1
f 51/185/1 60/184/1 8/173/1
f 51/185/1 8/173/1 47/186/1
f 27/187/1 32/188/1 42/189/1
f 29/182/1 27/187/1 7/174/1
f 47/186/1 8/173/1 70/190/1
f 76/178/1 70/190/1 8/173/1
f 27/187/1 42/189/1 22/191/1
f 75/175/1 7/174/1 73/192/1
f 74/193/1 40/194/1 76/178/1
f 57/195/1 73/192/1 7/174/1
f 57/195/1 7/174/1 53/196/1
f 75/175/1 74/193/1 76/178/1
f 27/187/1 22/191/1 7/174/1
f 21/197/1 19/198/1 7/174/1
f 19/198/1 26/1/1 7/174/1
f 21/197/1 7/174/1 22/191/1
f 77/199/1 53/196/1 7/174/1
f 77/199/1 7/174/1 12/3/1
f 26/1/1 20/200/1 17/2/1
f 12/3/1 7/174/1 26/1/1
f 43/201/1 47/186/1 70/190/1
f 25/202/1 40/194/1 3/203/1
f 40/194/1 74/193/1 3/203/1
f 3/203/1 74/193/1 72/204/1
f 43/201/1 70/190/1 25/202/1
f 60/184/1 51/185/1 49/205/1
f 43/201/1 25/202/1 3/203/1
f 55/206/1 60/184/1 49/205/1
f 3/203/1 72/204/1 15/207/1
f 62/208/1 55/206/1 3/203/1
f 55/206/1 49/205/1 3/203/1
f 3/203/1 49/205/1 43/201/1
f 67/171/1 63/183/1 62/208/1
f 68/209/1 67/171/1 62/208/1
f 8/173/1 65/172/1 66/210/1
f 68/209/1 62/208/1 3/203/1
f 3/203/1 8/173/1 66/210/1
f 66/210/1 68/209/1 3/203/1
f 2/6/1 3/203/1 16/211/1
f 38/177/1 1/176/1 2/6/1
f 37/212/1 38/177/1 2/6/1
f 72/204/1 73/192/1 57/195/1
f 72/204/1 57/195/1 15/207/1
f 35/213/1 37/212/1 2/6/1
f 34/180/1 33/179/1 35/213/1
f 36/214/1 34/180/1 35/213/1
f 3/203/1 15/207/1 16/211/1
f 16/211/1 53/196/1 77/199/1
f 36/214/1 35/213/1 2/6/1
f 29/182/1 28/181/1 30/215/1
f 30/215/1 36/214/1 2/6/1
f 16/211/1 77/199/1 14/216/1
f 17/2/1 20/200/1 2/6/1
f 20/200/1 18/4/1 2/6/1
f 2/6/1 16/211/1 14/216/1
f 14/216/1 17/2/1 2/6/1
f 31/217/1 29/182/1 30/215/1
f 23/5/1 42/189/1 2/6/1
f 42/189/1 32/188/1 2/6/1
f 31/217/1 30/215/1 2/6/1
f 32/188/1 31/217/1 2/6/1
f 18/4/1 19/198/1 21/197/1
f 18/4/1 21/197/1 23/5/1
f 59/218/2 56/219/2 48/220/2
f 59/218/2 48/220/2 50/221/2
f 69/222/2 61/223/2 64/224/2
f 59/218/2 50/221/2 10/225/2
f 50/221/2 46/226/2 10/225/2
f 10/225/2 46/226/2 86/227/2
f 71/228/2 69/222/2 64/224/2
f 64/224/2 59/218/2 10/225/2
f 10/225/2 81/229/2 71/228/2
f 71/228/2 64/224/2 10/225/2
f 9/9/2 10/225/2 83/230/2
f 101/231/2 107/232/2 9/9/2
f 97/233/2 103/234/2 9/9/2
f 103/234/2 102/235/2 9/9/2
f 102/235/2 101/231/2 9/9/2
f 46/226/2 44/236/2 24/237/2
f 86/227/2 84/238/2 10/225/2
f 84/238/2 83/230/2 10/225/2
f 46/226/2 24/237/2 86/227/2
f 96/239/2 98/240/2 95/241/2
f 95/241/2 97/233/2 9/9/2
f 83/230/2 80/242/2 9/9/2
f 80/242/2 58/243/2 9/9/2
f 94/244/2 96/239/2 95/241/2
f 52/245/2 87/246/2 9/9/2
f 87/246/2 11/7/2 9/9/2
f 9/9/2 58/243/2 52/245/2
f 94/244/2 95/241/2 9/9/2
f 89/8/2 90/247/2 9/9/2
f 90/247/2 92/248/2 9/9/2
f 92/248/2 94/244/2 9/9/2
f 11/7/2 39/249/2 88/250/2
f 11/7/2 88/250/2 89/8/2
f 41/251/2 24/237/2 6/252/2
f 24/237/2 44/236/2 6/252/2
f 41/251/2 6/252/2 82/253/2
f 48/220/2 56/219/2 6/252/2
f 56/219/2 61/223/2 6/252/2
f 48/220/2 6/252/2 44/236/2
f 61/223/2 69/222/2 6/252/2
f 69/222/2 78/254/2 6/252/2
f 78/254/2 81/229/2 10/225/2
f 78/254/2 10/225/2 6/252/2
f 4/255/2 9/9/2 85/256/2
f 9/9/2 107/232/2 85/256/2
f 6/252/2 5/10/2 45/257/2
f 83/230/2 84/238/2 41/251/2
f 82/253/2 6/252/2 79/258/2
f 5/10/2 4/255/2 85/256/2
f 5/10/2 85/256/2 106/259/2
f 82/253/2 83/230/2 41/251/2
f 58/243/2 80/242/2 79/258/2
f 79/258/2 6/252/2 54/260/2
f 54/260/2 58/243/2 79/258/2
f 54/260/2 6/252/2 45/257/2
f 5/10/2 106/259/2 105/261/2
f 105/261/2 101/231/2 102/235/2
f 105/261/2 102/235/2 104/262/2
f 87/246/2 52/245/2 45/257/2
f 5/10/2 105/261/2 104/262/2
f 99/263/2 103/234/2 97/233/2
f 5/10/2 104/262/2 99/263/2
f 13/264/2 87/246/2 45/257/2
f 93/12/2 88/250/2 5/10/2
f 88/250/2 39/249/2 5/10/2
f 13/264/2 45/257/2 5/10/2
f 39/249/2 13/264/2 5/10/2
f 99/263/2 97/233/2 100/265/2
f 98/240/2 96/239/2 5/10/2
f 96/239/2 91/11/2 5/10/2
f 5/10/2 99/263/2 100/265/2
f 100/265/2 98/240/2 5/10/2
f 92/248/2 90/247/2 93/12/2
f 91/11/2 92/248/2 93/12/2
f 3/13/3 6/266/3 10/14/3
f 2/16/4 5/267/4 6/17/4
f 1/19/5 4/268/5 5/20/5
f 1/22/6 7/26/6 9/23/6
f 8/25/7 10/269/7 9/23/7
f 38/27/3 37/270/3 106/28/3
f 35/30/5 33/271/5 101/31/5
f 101/272/4 33/273/4 107/35/4
f 33/273/4 38/33/4 107/35/4
f 37/36/6 35/274/6 105/37/6
f 34/39/3 36/275/3 104/40/3
f 30/42/5 28/276/5 103/43/5
f 34/45/4 102/277/4 103/46/4
f 36/48/6 30/278/6 99/49/6
f 29/51/3 31/279/3 100/52/3
f 32/54/5 27/280/5 95/55/5
f 29/57/4 97/281/4 95/58/4
f 31/60/6 32/282/6 98/61/6
f 22/63/3 42/283/3 96/64/3
f 23/66/5 21/284/5 92/67/5
f 22/69/4 94/285/4 92/70/4
f 42/72/6 23/286/6 91/73/6
f 19/75/3 18/287/3 93/76/3
f 20/78/5 26/288/5 89/79/5
f 19/81/4 90/289/4 89/82/4
f 18/84/6 20/290/6 88/85/6
f 12/87/3 17/291/3 39/88/3
f 14/90/5 77/292/5 87/91/5
f 87/93/4 77/293/4 12/94/4
f 17/96/6 14/294/6 13/97/6
f 53/99/3 16/295/3 45/100/3
f 58/102/5 54/296/5 15/103/5
f 52/105/4 58/297/4 57/106/4
f 16/108/6 15/298/6 54/109/6
f 73/111/3 72/299/3 79/112/3
f 74/114/5 75/300/5 83/115/5
f 73/117/4 80/301/4 83/118/4
f 72/120/6 74/302/6 82/121/6
f 76/123/3 40/303/3 41/124/3
f 25/126/5 70/304/5 86/127/5
f 76/129/4 84/305/4 86/130/4
f 40/132/6 25/306/6 24/133/6
f 44/135/3 46/307/3 47/136/3
f 49/138/5 51/308/5 50/139/5
f 46/141/4 50/309/4 51/142/4
f 48/144/6 44/310/6 43/145/6
f 56/147/3 59/311/3 60/148/3
f 64/150/5 61/312/5 62/151/5
f 59/153/4 64/313/4 63/154/4
f 61/156/6 56/314/6 55/157/6
f 67/159/3 68/315/3 69/160/3
f 66/162/5 65/316/5 81/163/5
f 67/165/4 71/317/4 81/166/4
f 68/168/6 66/318/6 78/169/6
