# Blender v3.0.1 OBJ File: 'Main.blend'
# www.blender.org
o Cube.5333_0272
v -1.491001 0.369000 -3.396000
v -1.491001 0.369000 -3.411000
v -1.812001 0.369000 -3.396000
v -1.812001 0.369000 -3.411000
v -1.491001 0.459000 -3.396000
v -1.491001 0.459000 -3.411000
v -1.812001 0.459000 -3.396000
v -1.812001 0.459000 -3.411000
vt 0.895027 0.912785
vt 0.895298 0.906988
vt 0.895298 0.912785
vt 0.118322 0.912861
vt 0.118051 0.907072
vt 0.118322 0.907072
vt 0.894267 0.125663
vt 0.892644 0.131453
vt 0.892644 0.125663
vt 0.903558 0.943500
vt 0.903828 0.945124
vt 0.903558 0.945124
vt 0.856748 0.346179
vt 0.855125 0.351976
vt 0.855125 0.346179
vt 0.194990 0.943350
vt 0.195261 0.944974
vt 0.194990 0.944974
vt 0.895027 0.906988
vt 0.118051 0.912861
vt 0.894267 0.131453
vt 0.903828 0.943500
vt 0.856748 0.351976
vt 0.195261 0.943350
vn 0.0000 -1.0000 0.0000
vn 0.0000 1.0000 0.0000
vn 0.0000 0.0000 1.0000
vn 1.0000 0.0000 0.0000
vn 0.0000 0.0000 -1.0000
vn -1.0000 0.0000 0.0000
s off
f 1/1/1 4/2/1 2/3/1
f 8/4/2 5/5/2 6/6/2
f 5/7/3 3/8/3 1/9/3
f 6/10/4 1/11/4 2/12/4
f 8/13/5 2/14/5 4/15/5
f 7/16/6 4/17/6 3/18/6
f 1/1/1 3/19/1 4/2/1
f 8/4/2 7/20/2 5/5/2
f 5/7/3 7/21/3 3/8/3
f 6/10/4 5/22/4 1/11/4
f 8/13/5 6/23/5 2/14/5
f 7/16/6 8/24/6 4/17/6
