# Blender v3.0.1 OBJ File: 'Main.blend'
# www.blender.org
o Cube.4791_0351
v 1.450500 0.000000 -2.688000
v 1.450500 0.477000 -2.688000
v 1.438500 0.000000 -2.688000
v 1.438500 0.477000 -2.688000
v 1.438500 0.000000 -2.442000
v 1.438500 0.477000 -2.442000
v 1.450500 0.477000 -2.442000
v 1.450500 0.000000 -2.442000
v 1.438500 0.060000 -2.503500
v 1.438500 0.237000 -2.503500
v 1.438500 0.259961 -2.508067
v 1.438500 0.248705 -2.504653
v 1.438500 0.279426 -2.521073
v 1.438500 0.292433 -2.540539
v 1.438500 0.286888 -2.530166
v 1.450500 0.295847 -2.551794
v 1.438500 0.295847 -2.551794
v 1.438500 0.270334 -2.513612
v 1.438500 0.297000 -2.563500
v 1.438500 0.295847 -2.575205
v 1.438500 0.292433 -2.586461
v 1.438500 0.279426 -2.605926
v 1.438500 0.259961 -2.618932
v 1.438500 0.270334 -2.613388
v 1.438500 0.237000 -2.623500
v 1.438500 0.060000 -2.623500
v 1.438500 0.248705 -2.622347
v 1.438500 0.286888 -2.596834
v 1.450500 0.292433 -2.540539
v 1.450500 0.060000 -2.503500
v 1.450500 0.286888 -2.530166
v 1.450500 0.279426 -2.521073
v 1.450500 0.270334 -2.513612
v 1.450500 0.237000 -2.503500
v 1.450500 0.259961 -2.508067
v 1.450500 0.248705 -2.504653
v 1.450500 0.295847 -2.575205
v 1.450500 0.279426 -2.605926
v 1.450500 0.286888 -2.596834
v 1.450500 0.292433 -2.586461
v 1.450500 0.259961 -2.618932
v 1.450500 0.237000 -2.623500
v 1.450500 0.060000 -2.623500
v 1.450500 0.248705 -2.622347
v 1.450500 0.270334 -2.613388
v 1.450500 0.297000 -2.563500
vt 0.900862 0.089138
vt 0.901079 0.080664
vt 0.901079 0.089138
vt 0.830444 0.580683
vt 0.830230 0.580703
vt 0.828252 0.577434
vt 0.926447 0.848614
vt 0.926230 0.851759
vt 0.926230 0.848614
vt 0.095845 0.926157
vt 0.096061 0.923012
vt 0.096061 0.926157
vt 0.694191 0.940892
vt 0.694407 0.938722
vt 0.694407 0.940892
vt 0.402649 0.948085
vt 0.402432 0.947879
vt 0.402649 0.947879
vt 0.402432 0.948291
vt 0.402432 0.948085
vt 0.402649 0.948474
vt 0.402432 0.948474
vt 0.402649 0.948642
vt 0.402432 0.948642
vt 0.095845 0.922202
vt 0.096061 0.922388
vt 0.095845 0.922388
vt 0.096061 0.922590
vt 0.095845 0.922590
vt 0.096061 0.922800
vt 0.095845 0.922800
vt 0.095845 0.923012
vt 0.402432 0.947665
vt 0.402432 0.947459
vt 0.402649 0.947665
vt 0.402432 0.947275
vt 0.402649 0.947459
vt 0.402432 0.947107
vt 0.402649 0.947275
vt 0.926447 0.847805
vt 0.926230 0.847991
vt 0.926230 0.847805
vt 0.926447 0.847991
vt 0.926230 0.848192
vt 0.926447 0.848192
vt 0.926230 0.848403
vt 0.926447 0.848403
vt 0.831521 0.584959
vt 0.828252 0.586042
vt 0.829359 0.584959
vt 0.805949 0.235106
vt 0.802672 0.234023
vt 0.804833 0.234023
vt 0.297018 0.919503
vt 0.296801 0.923940
vt 0.296801 0.919503
vt 0.803757 0.229746
vt 0.803543 0.229767
vt 0.801511 0.226498
vt 0.312693 0.919468
vt 0.312909 0.923905
vt 0.312693 0.923905
vt 0.886878 0.901752
vt 0.887094 0.893278
vt 0.887094 0.901752
vt 0.900862 0.080664
vt 0.829359 0.581765
vt 0.832689 0.577434
vt 0.832689 0.586042
vt 0.831521 0.581765
vt 0.829382 0.581554
vt 0.831506 0.581554
vt 0.831444 0.581351
vt 0.829443 0.581351
vt 0.829543 0.581164
vt 0.831345 0.581164
vt 0.831208 0.581000
vt 0.829673 0.581000
vt 0.829841 0.580865
vt 0.831040 0.580865
vt 0.830856 0.580765
vt 0.830024 0.580765
vt 0.830650 0.580703
vt 0.926447 0.851759
vt 0.694191 0.938722
vt 0.402649 0.948291
vt 0.096061 0.922202
vt 0.402649 0.947107
vt 0.801511 0.235106
vt 0.297018 0.923940
vt 0.802672 0.230829
vt 0.805949 0.226498
vt 0.804833 0.230829
vt 0.802695 0.230618
vt 0.804818 0.230618
vt 0.804757 0.230415
vt 0.802756 0.230415
vt 0.802855 0.230227
vt 0.804658 0.230227
vt 0.804520 0.230063
vt 0.802985 0.230063
vt 0.803153 0.229929
vt 0.804352 0.229929
vt 0.804169 0.229829
vt 0.803337 0.229829
vt 0.803963 0.229767
vt 0.312909 0.919468
vt 0.886878 0.893278
vn 0.0000 0.0000 -1.0000
vn -1.0000 0.0000 0.0000
vn 0.0000 0.0000 1.0000
vn 0.0000 1.0000 0.0000
vn 0.0000 -0.9952 -0.0980
vn 0.0000 -0.9569 -0.2903
vn 0.0000 -0.8819 -0.4714
vn 0.0000 -0.7730 -0.6344
vn 0.0000 -0.6344 -0.7730
vn 0.0000 -0.4714 -0.8819
vn 0.0000 -0.2903 -0.9569
vn 0.0000 -0.0980 -0.9952
vn 0.0000 -0.9952 0.0980
vn 0.0000 -0.9569 0.2903
vn 0.0000 -0.8819 0.4714
vn 0.0000 -0.7730 0.6344
vn 0.0000 -0.6344 0.7730
vn 0.0000 -0.4714 0.8819
vn 0.0000 -0.2903 0.9569
vn 0.0000 -0.0980 0.9952
vn 1.0000 0.0000 0.0000
vn 0.0000 -1.0000 0.0000
s off
f 3/1/1 2/2/1 1/3/1
f 19/4/2 17/5/2 6/6/2
f 25/7/3 43/8/3 42/9/3
f 9/10/1 34/11/1 30/12/1
f 26/13/4 30/14/4 43/15/4
f 16/16/5 19/17/5 46/18/5
f 16/16/6 14/19/6 17/20/6
f 14/19/7 31/21/7 15/22/7
f 15/22/8 32/23/8 13/24/8
f 13/25/9 33/26/9 18/27/9
f 18/27/10 35/28/10 11/29/10
f 11/29/11 36/30/11 12/31/11
f 12/31/12 34/11/12 10/32/12
f 20/33/13 46/18/13 19/17/13
f 21/34/14 37/35/14 20/33/14
f 28/36/15 40/37/15 21/34/15
f 22/38/16 39/39/16 28/36/16
f 22/40/17 45/41/17 38/42/17
f 24/43/18 41/44/18 45/41/18
f 23/45/19 44/46/19 41/44/19
f 27/47/20 42/9/20 44/46/20
f 26/48/2 5/49/2 9/50/2
f 8/51/21 43/52/21 30/53/21
f 5/54/22 1/55/22 8/56/22
f 46/57/21 37/58/21 2/59/21
f 6/60/4 2/61/4 4/62/4
f 8/63/3 6/64/3 5/65/3
f 3/1/1 4/66/1 2/2/1
f 9/50/2 5/49/2 10/67/2
f 5/49/2 6/6/2 10/67/2
f 4/68/2 3/69/2 25/70/2
f 3/69/2 26/48/2 25/70/2
f 12/71/2 10/67/2 6/6/2
f 4/68/2 25/70/2 27/72/2
f 4/68/2 27/72/2 23/73/2
f 11/74/2 12/71/2 6/6/2
f 18/75/2 11/74/2 6/6/2
f 4/68/2 23/73/2 24/76/2
f 4/68/2 24/76/2 22/77/2
f 13/78/2 18/75/2 6/6/2
f 15/79/2 13/78/2 6/6/2
f 6/6/2 4/68/2 19/4/2
f 4/68/2 22/77/2 28/80/2
f 4/68/2 28/80/2 21/81/2
f 14/82/2 15/79/2 6/6/2
f 17/5/2 14/82/2 6/6/2
f 4/68/2 21/81/2 20/83/2
f 4/68/2 20/83/2 19/4/2
f 25/7/3 26/84/3 43/8/3
f 9/10/1 10/32/1 34/11/1
f 26/13/4 9/85/4 30/14/4
f 16/16/5 17/20/5 19/17/5
f 16/16/6 29/86/6 14/19/6
f 14/19/7 29/86/7 31/21/7
f 15/22/8 31/21/8 32/23/8
f 13/25/9 32/87/9 33/26/9
f 18/27/10 33/26/10 35/28/10
f 11/29/11 35/28/11 36/30/11
f 12/31/12 36/30/12 34/11/12
f 20/33/13 37/35/13 46/18/13
f 21/34/14 40/37/14 37/35/14
f 28/36/15 39/39/15 40/37/15
f 22/38/16 38/88/16 39/39/16
f 22/40/17 24/43/17 45/41/17
f 24/43/18 23/45/18 41/44/18
f 23/45/19 27/47/19 44/46/19
f 27/47/20 25/7/20 42/9/20
f 26/48/2 3/69/2 5/49/2
f 8/51/21 1/89/21 43/52/21
f 5/54/22 3/90/22 1/55/22
f 42/91/21 43/52/21 1/89/21
f 7/92/21 8/51/21 34/93/21
f 8/51/21 30/53/21 34/93/21
f 42/91/21 1/89/21 2/59/21
f 44/94/21 42/91/21 2/59/21
f 7/92/21 34/93/21 36/95/21
f 7/92/21 36/95/21 35/96/21
f 41/97/21 44/94/21 2/59/21
f 45/98/21 41/97/21 2/59/21
f 7/92/21 35/96/21 33/99/21
f 7/92/21 33/99/21 32/100/21
f 38/101/21 45/98/21 2/59/21
f 39/102/21 38/101/21 2/59/21
f 2/59/21 7/92/21 46/57/21
f 7/92/21 32/100/21 31/103/21
f 7/92/21 31/103/21 29/104/21
f 40/105/21 39/102/21 2/59/21
f 37/58/21 40/105/21 2/59/21
f 7/92/21 29/104/21 16/106/21
f 7/92/21 16/106/21 46/57/21
f 6/60/4 7/107/4 2/61/4
f 8/63/3 7/108/3 6/64/3
