# Blender v3.0.1 OBJ File: 'Main.blend'
# www.blender.org
o Cube.4510_0243
v -0.318000 0.201750 -1.069500
v -0.270000 0.201750 -1.069500
v -0.318000 0.201750 -1.063500
v -0.270000 0.201750 -1.063500
v -0.318000 0.200250 -1.069500
v -0.270000 0.200250 -1.069500
v -0.318000 0.200250 -1.063500
v -0.270000 0.200250 -1.063500
v -0.318000 0.165750 -1.069500
v -0.270000 0.165750 -1.069500
v -0.318000 0.165750 -1.063500
v -0.270000 0.165750 -1.063500
v -0.318000 0.164250 -1.069500
v -0.270000 0.164250 -1.069500
v -0.318000 0.164250 -1.063500
v -0.270000 0.164250 -1.063500
v -0.318000 0.129750 -1.069500
v -0.270000 0.129750 -1.069500
v -0.318000 0.129750 -1.063500
v -0.270000 0.129750 -1.063500
v -0.318000 0.128250 -1.069500
v -0.270000 0.128250 -1.069500
v -0.318000 0.128250 -1.063500
v -0.270000 0.128250 -1.063500
v -0.318000 0.093750 -1.069500
v -0.270000 0.093750 -1.069500
v -0.318000 0.093750 -1.063500
v -0.270000 0.093750 -1.063500
v -0.318000 0.092250 -1.069500
v -0.270000 0.092250 -1.069500
v -0.318000 0.092250 -1.063500
v -0.270000 0.092250 -1.063500
vt 0.932871 0.532613
vt 0.932763 0.533480
vt 0.932763 0.532613
vt 0.973661 0.369181
vt 0.973769 0.370046
vt 0.973661 0.370046
vt 0.427563 0.996542
vt 0.427536 0.996434
vt 0.427563 0.996434
vt 0.975690 0.616966
vt 0.975663 0.616101
vt 0.975690 0.616101
vt 0.524776 0.996548
vt 0.524749 0.996440
vt 0.524776 0.996440
vt 0.855341 0.975450
vt 0.855314 0.974584
vt 0.855341 0.974584
vt 0.932871 0.532613
vt 0.932763 0.533480
vt 0.932763 0.532613
vt 0.973661 0.369181
vt 0.973769 0.370046
vt 0.973661 0.370046
vt 0.427563 0.996542
vt 0.427536 0.996434
vt 0.427563 0.996434
vt 0.975690 0.616966
vt 0.975663 0.616101
vt 0.975690 0.616101
vt 0.524776 0.996548
vt 0.524749 0.996440
vt 0.524776 0.996440
vt 0.855341 0.975450
vt 0.855314 0.974584
vt 0.855341 0.974584
vt 0.932871 0.532613
vt 0.932763 0.533480
vt 0.932763 0.532613
vt 0.973661 0.369181
vt 0.973769 0.370046
vt 0.973661 0.370046
vt 0.427563 0.996542
vt 0.427536 0.996434
vt 0.427563 0.996434
vt 0.975690 0.616966
vt 0.975663 0.616101
vt 0.975690 0.616101
vt 0.524776 0.996548
vt 0.524749 0.996440
vt 0.524776 0.996440
vt 0.855341 0.975450
vt 0.855314 0.974584
vt 0.855341 0.974584
vt 0.932871 0.532613
vt 0.932763 0.533480
vt 0.932763 0.532613
vt 0.973661 0.369181
vt 0.973769 0.370046
vt 0.973661 0.370046
vt 0.427563 0.996542
vt 0.427536 0.996434
vt 0.427563 0.996434
vt 0.975690 0.616966
vt 0.975663 0.616101
vt 0.975690 0.616101
vt 0.524776 0.996548
vt 0.524749 0.996440
vt 0.524776 0.996440
vt 0.855341 0.975450
vt 0.855314 0.974584
vt 0.855341 0.974584
vt 0.932871 0.533480
vt 0.973769 0.369181
vt 0.427536 0.996542
vt 0.975663 0.616966
vt 0.524749 0.996548
vt 0.855314 0.975450
vt 0.932871 0.533480
vt 0.973769 0.369181
vt 0.427536 0.996542
vt 0.975663 0.616966
vt 0.524749 0.996548
vt 0.855314 0.975450
vt 0.932871 0.533480
vt 0.973769 0.369181
vt 0.427536 0.996542
vt 0.975663 0.616966
vt 0.524749 0.996548
vt 0.855314 0.975450
vt 0.932871 0.533480
vt 0.973769 0.369181
vt 0.427536 0.996542
vt 0.975663 0.616966
vt 0.524749 0.996548
vt 0.855314 0.975450
vn 0.0000 1.0000 0.0000
vn 0.0000 -1.0000 0.0000
vn 1.0000 0.0000 0.0000
vn 0.0000 0.0000 1.0000
vn -1.0000 0.0000 0.0000
vn 0.0000 0.0000 -1.0000
s off
f 3/1/1 2/2/1 1/3/1
f 6/4/2 7/5/2 5/6/2
f 4/7/3 6/8/3 2/9/3
f 3/10/4 8/11/4 4/12/4
f 1/13/5 7/14/5 3/15/5
f 2/16/6 5/17/6 1/18/6
f 11/19/1 10/20/1 9/21/1
f 14/22/2 15/23/2 13/24/2
f 12/25/3 14/26/3 10/27/3
f 11/28/4 16/29/4 12/30/4
f 9/31/5 15/32/5 11/33/5
f 10/34/6 13/35/6 9/36/6
f 19/37/1 18/38/1 17/39/1
f 22/40/2 23/41/2 21/42/2
f 20/43/3 22/44/3 18/45/3
f 19/46/4 24/47/4 20/48/4
f 17/49/5 23/50/5 19/51/5
f 18/52/6 21/53/6 17/54/6
f 27/55/1 26/56/1 25/57/1
f 30/58/2 31/59/2 29/60/2
f 28/61/3 30/62/3 26/63/3
f 27/64/4 32/65/4 28/66/4
f 25/67/5 31/68/5 27/69/5
f 26/70/6 29/71/6 25/72/6
f 3/1/1 4/73/1 2/2/1
f 6/4/2 8/74/2 7/5/2
f 4/7/3 8/75/3 6/8/3
f 3/10/4 7/76/4 8/11/4
f 1/13/5 5/77/5 7/14/5
f 2/16/6 6/78/6 5/17/6
f 11/19/1 12/79/1 10/20/1
f 14/22/2 16/80/2 15/23/2
f 12/25/3 16/81/3 14/26/3
f 11/28/4 15/82/4 16/29/4
f 9/31/5 13/83/5 15/32/5
f 10/34/6 14/84/6 13/35/6
f 19/37/1 20/85/1 18/38/1
f 22/40/2 24/86/2 23/41/2
f 20/43/3 24/87/3 22/44/3
f 19/46/4 23/88/4 24/47/4
f 17/49/5 21/89/5 23/50/5
f 18/52/6 22/90/6 21/53/6
f 27/55/1 28/91/1 26/56/1
f 30/58/2 32/92/2 31/59/2
f 28/61/3 32/93/3 30/62/3
f 27/64/4 31/94/4 32/65/4
f 25/67/5 29/95/5 31/68/5
f 26/70/6 30/96/6 29/71/6
