# Blender v3.0.1 OBJ File: 'Main.blend'
# www.blender.org
o Cube.5839_0363
v -0.192000 -0.231000 -2.504968
v -0.192000 -0.204000 -2.504968
v -0.186000 -0.231000 -2.504968
v -0.186000 -0.204000 -2.504968
v -0.192000 -0.204000 -2.552968
v -0.192000 -0.231000 -2.561968
v -0.186000 -0.204000 -2.552968
v -0.186000 -0.231000 -2.561968
v -0.192000 -0.144000 -2.654968
v -0.192000 -0.144000 -2.699968
v -0.186000 -0.144000 -2.654968
v -0.186000 -0.144000 -2.699968
vt 0.983837 0.163068
vt 0.983945 0.162581
vt 0.983945 0.163068
vt 0.930420 0.282667
vt 0.930528 0.279841
vt 0.930528 0.282667
vt 0.930420 0.283659
vt 0.930528 0.283659
vt 0.915811 0.562725
vt 0.915945 0.563711
vt 0.915429 0.563680
vt 0.728611 0.931360
vt 0.728719 0.930505
vt 0.728719 0.931360
vt 0.915803 0.218373
vt 0.915936 0.217388
vt 0.916257 0.218198
vt 0.728719 0.928504
vt 0.728611 0.927702
vt 0.728719 0.927702
vt 0.916266 0.565826
vt 0.915964 0.566575
vt 0.728611 0.930505
vt 0.915421 0.217419
vt 0.916257 0.215280
vt 0.983837 0.162581
vt 0.930420 0.279841
vt 0.916266 0.562909
vt 0.728611 0.928504
vt 0.915956 0.214524
vn 0.0000 0.0000 1.0000
vn 0.0000 -0.8459 -0.5333
vn 0.0000 -1.0000 0.0000
vn -1.0000 0.0000 0.0000
vn 0.0000 1.0000 0.0000
vn 1.0000 0.0000 0.0000
vn 0.0000 0.8619 0.5070
s off
f 3/1/1 2/2/1 1/3/1
f 6/4/2 12/5/2 8/6/2
f 1/7/3 8/6/3 3/8/3
f 1/9/4 5/10/4 6/11/4
f 4/12/5 5/13/5 2/14/5
f 3/15/6 7/16/6 4/17/6
f 9/18/5 12/19/5 10/20/5
f 6/11/4 9/21/4 10/22/4
f 7/23/7 9/18/7 5/13/7
f 8/24/6 11/25/6 7/16/6
f 3/1/1 4/26/1 2/2/1
f 6/4/2 10/27/2 12/5/2
f 1/7/3 6/4/3 8/6/3
f 1/9/4 2/28/4 5/10/4
f 4/12/5 7/23/5 5/13/5
f 3/15/6 8/24/6 7/16/6
f 9/18/5 11/29/5 12/19/5
f 6/11/4 5/10/4 9/21/4
f 7/23/7 11/29/7 9/18/7
f 8/24/6 12/30/6 11/25/6
