# Blender v3.0.1 OBJ File: 'Main.blend'
# www.blender.org
o Cube.2641_0054
v -1.425000 -0.231000 0.747000
v -1.425000 -0.210000 0.747000
v -1.425000 -0.231000 0.741000
v -1.425000 -0.210000 0.741000
v 1.440000 -0.231000 0.747000
v 1.440000 -0.210000 0.747000
v 1.440000 -0.231000 0.741000
v 1.440000 -0.210000 0.741000
vt 0.167959 0.984866
vt 0.168068 0.985245
vt 0.167959 0.985245
vt 0.828165 0.384183
vt 0.827786 0.435885
vt 0.827786 0.384183
vt 0.035519 0.984937
vt 0.035627 0.985316
vt 0.035519 0.985316
vt 0.179156 0.614858
vt 0.178777 0.666560
vt 0.178777 0.614858
vt 0.831591 0.312711
vt 0.831699 0.364413
vt 0.831591 0.364413
vt 0.831776 0.160144
vt 0.831884 0.211846
vt 0.831776 0.211846
vt 0.168068 0.984866
vt 0.828165 0.435885
vt 0.035627 0.984937
vt 0.179156 0.666560
vt 0.831699 0.312711
vt 0.831884 0.160144
vn -1.0000 0.0000 0.0000
vn 0.0000 0.0000 -1.0000
vn 1.0000 0.0000 0.0000
vn 0.0000 0.0000 1.0000
vn 0.0000 -1.0000 0.0000
vn 0.0000 1.0000 0.0000
s off
f 2/1/1 3/2/1 1/3/1
f 4/4/2 7/5/2 3/6/2
f 8/7/3 5/8/3 7/9/3
f 6/10/4 1/11/4 5/12/4
f 7/13/5 1/14/5 3/15/5
f 4/16/6 6/17/6 8/18/6
f 2/1/1 4/19/1 3/2/1
f 4/4/2 8/20/2 7/5/2
f 8/7/3 6/21/3 5/8/3
f 6/10/4 2/22/4 1/11/4
f 7/13/5 5/23/5 1/14/5
f 4/16/6 2/24/6 6/17/6
