# Blender v3.0.1 OBJ File: 'Main.blend'
# www.blender.org
o Cube.5231_0027
v 1.203000 0.333000 -2.194473
v 1.197000 0.333000 -2.194473
v 1.197000 0.348042 -2.186878
v 1.197000 0.333653 -2.194473
v 1.197000 0.348042 -1.965069
v 1.197000 0.368511 -2.170290
v 1.203000 0.348042 -1.965069
v 1.197000 0.368511 -1.981657
v 1.203000 0.368511 -1.981657
v 1.203000 0.385309 -2.001869
v 1.197000 0.385309 -2.001869
v 1.197000 0.385309 -2.150078
v 1.203000 0.397791 -2.024930
v 1.197000 0.397791 -2.024930
v 1.197000 0.397791 -2.127017
v 1.203000 0.405477 -2.049951
v 1.197000 0.405477 -2.049951
v 1.197000 0.405477 -2.101995
v 1.197000 0.408073 -2.075973
v 1.203000 0.408073 -2.075973
v 1.203000 0.405477 -2.101995
v 1.203000 0.333653 -2.194473
v 1.203000 0.397791 -2.127017
v 1.203000 0.348042 -2.186878
v 1.203000 0.385309 -2.150078
v 1.203000 0.368511 -2.170290
v 1.197000 0.333703 -1.957500
v 1.197000 0.414000 -1.957500
v 1.203000 0.414000 -1.957500
v 1.203000 0.333703 -1.957500
v 1.203000 0.333000 -2.194499
v 1.197000 0.333000 -2.194499
v 1.197000 0.414000 -2.194499
v 1.203000 0.414000 -2.194499
vt 0.956898 0.598820
vt 0.957006 0.600268
vt 0.956898 0.600268
vt 0.590451 0.902227
vt 0.590605 0.903898
vt 0.590558 0.904367
vt 0.925365 0.506976
vt 0.925474 0.511253
vt 0.925365 0.511253
vt 0.512218 0.904360
vt 0.512265 0.904826
vt 0.512111 0.906499
vt 0.956387 0.022331
vt 0.956495 0.020869
vt 0.956495 0.022331
vt 0.957006 0.598820
vt 0.591913 0.902227
vt 0.591901 0.902229
vt 0.591913 0.902229
vt 0.591641 0.906368
vt 0.591900 0.906504
vt 0.590451 0.906504
vt 0.591272 0.906069
vt 0.591641 0.902364
vt 0.591272 0.902664
vt 0.590969 0.905704
vt 0.590744 0.905288
vt 0.590969 0.903029
vt 0.590744 0.903445
vt 0.590605 0.904835
vt 0.925474 0.506976
vt 0.512111 0.902222
vt 0.513561 0.902222
vt 0.513302 0.902355
vt 0.512932 0.902657
vt 0.513573 0.906495
vt 0.513573 0.906499
vt 0.513562 0.906495
vt 0.512630 0.903020
vt 0.512404 0.903436
vt 0.513302 0.906361
vt 0.512932 0.906060
vt 0.512265 0.903890
vt 0.512630 0.905697
vt 0.512404 0.905280
vt 0.956495 0.022331
vt 0.956387 0.022331
vt 0.956387 0.020869
vn 0.0000 0.0000 1.0000
vn -1.0000 0.0000 0.0000
vn 0.0000 1.0000 0.0000
vn 1.0000 0.0000 0.0000
vn 0.0000 0.0000 -1.0000
vn 0.0000 -1.0000 0.0000
s off
f 29/1/1 27/2/1 30/3/1
f 33/4/2 18/5/2 19/6/2
f 28/7/3 34/8/3 33/9/3
f 20/10/4 21/11/4 34/12/4
f 32/13/5 34/14/5 31/15/5
f 29/1/1 28/16/1 27/2/1
f 33/4/2 32/17/2 4/18/2
f 32/17/2 2/19/2 4/18/2
f 5/20/2 27/21/2 28/22/2
f 8/23/2 5/20/2 28/22/2
f 33/4/2 4/18/2 3/24/2
f 33/4/2 3/24/2 6/25/2
f 11/26/2 8/23/2 28/22/2
f 14/27/2 11/26/2 28/22/2
f 33/4/2 6/25/2 12/28/2
f 33/4/2 12/28/2 15/29/2
f 17/30/2 14/27/2 28/22/2
f 19/6/2 17/30/2 28/22/2
f 33/4/2 15/29/2 18/5/2
f 19/6/2 28/22/2 33/4/2
f 28/7/3 29/31/3 34/8/3
f 29/32/4 30/33/4 7/34/4
f 29/32/4 7/34/4 9/35/4
f 1/36/4 31/37/4 22/38/4
f 31/37/4 34/12/4 22/38/4
f 29/32/4 9/35/4 10/39/4
f 29/32/4 10/39/4 13/40/4
f 24/41/4 22/38/4 34/12/4
f 26/42/4 24/41/4 34/12/4
f 29/32/4 13/40/4 16/43/4
f 29/32/4 16/43/4 20/10/4
f 25/44/4 26/42/4 34/12/4
f 23/45/4 25/44/4 34/12/4
f 34/12/4 29/32/4 20/10/4
f 21/11/4 23/45/4 34/12/4
f 31/15/6 1/46/6 2/47/6
f 32/13/5 33/48/5 34/14/5
f 31/15/6 2/47/6 32/13/6
