# Blender v3.0.1 OBJ File: 'Main.blend'
# www.blender.org
o Cube.1698_0070
v 3.273001 -0.210000 -3.411000
v 3.273001 -0.210000 -12.339000
v 3.273001 -0.009000 -3.411000
v 3.273001 -0.009000 -12.339000
v -2.369999 -0.210000 -3.411000
v -2.369999 -0.210000 -12.339000
v -2.369999 -0.009000 -3.411000
v -2.369999 -0.009000 -12.339000
vt 0.751140 0.488999
vt 0.754767 0.327909
vt 0.754767 0.488999
vt 0.754581 0.214309
vt 0.750954 0.053203
vt 0.754581 0.053203
vt 0.001848 0.164329
vt 0.103675 0.325419
vt 0.001848 0.325419
vt 0.754581 0.218006
vt 0.750954 0.319833
vt 0.750954 0.218006
vt 0.752068 0.785243
vt 0.755695 0.683420
vt 0.755695 0.785243
vt 0.455608 0.162939
vt 0.353785 0.001848
vt 0.455608 0.001848
vt 0.751140 0.327909
vt 0.750954 0.214309
vt 0.103675 0.164329
vt 0.754581 0.319833
vt 0.752068 0.683420
vt 0.353785 0.162939
vn 1.0000 0.0000 0.0000
vn -1.0000 0.0000 0.0000
vn 0.0000 -1.0000 0.0000
vn 0.0000 0.0000 1.0000
vn 0.0000 0.0000 -1.0000
vn 0.0000 1.0000 0.0000
s off
f 4/1/1 1/2/1 2/3/1
f 5/4/2 8/5/2 6/6/2
f 1/7/3 6/8/3 2/9/3
f 3/10/4 5/11/4 1/12/4
f 2/13/5 8/14/5 4/15/5
f 4/16/6 7/17/6 3/18/6
f 4/1/1 3/19/1 1/2/1
f 5/4/2 7/20/2 8/5/2
f 1/7/3 5/21/3 6/8/3
f 3/10/4 7/22/4 5/11/4
f 2/13/5 6/23/5 8/14/5
f 4/16/6 8/24/6 7/17/6
