# Blender v3.0.1 OBJ File: 'Main.blend'
# www.blender.org
o Cube.2659_0043
v -2.271000 -0.231000 -0.525000
v -2.271000 -0.210000 -0.525000
v -2.271000 -0.231000 -0.531000
v -2.271000 -0.210000 -0.531000
v -1.425000 -0.231000 -0.524968
v -1.425000 -0.210000 -0.524968
v -1.431000 -0.231000 -0.530968
v -1.431000 -0.210000 -0.530968
v -1.425000 -0.231000 -1.490968
v -1.425000 -0.210000 -1.490968
v -1.431000 -0.231000 -1.484968
v -1.431000 -0.210000 -1.484968
v -2.079000 -0.231000 -1.490968
v -2.079000 -0.210000 -1.490968
v -2.085000 -0.231000 -1.484968
v -2.085000 -0.210000 -1.484968
v -2.079000 -0.231000 -2.012968
v -2.079000 -0.210000 -2.012968
v -2.085000 -0.231000 -2.018968
v -2.085000 -0.210000 -2.018968
v -1.842000 -0.231000 -2.012968
v -1.842000 -0.210000 -2.012968
v -1.848000 -0.231000 -2.018968
v -1.848000 -0.210000 -2.018968
v -1.842000 -0.231000 -2.960968
v -1.842000 -0.210000 -2.960968
v -1.848000 -0.231000 -2.954968
v -1.848000 -0.210000 -2.954968
v -2.271000 -0.231000 -2.960968
v -2.271000 -0.210000 -2.960968
v -2.271000 -0.231000 -2.954968
v -2.271000 -0.210000 -2.954968
vt 0.132584 0.984369
vt 0.132473 0.984748
vt 0.132473 0.984369
vt 0.870152 0.648812
vt 0.869773 0.631597
vt 0.870152 0.631597
vt 0.419670 0.688845
vt 0.434826 0.688960
vt 0.419670 0.688960
vt 0.874954 0.551633
vt 0.874575 0.536472
vt 0.874954 0.536472
vt 0.024314 0.737105
vt 0.009157 0.737214
vt 0.009157 0.737105
vt 0.873849 0.633544
vt 0.874227 0.648812
vt 0.873849 0.648812
vt 0.423133 0.706282
vt 0.434826 0.706167
vt 0.434937 0.706282
vt 0.024425 0.719783
vt 0.024425 0.737214
vt 0.869055 0.108782
vt 0.869433 0.126213
vt 0.869055 0.126213
vt 0.434937 0.688845
vt 0.012514 0.719892
vt 0.012621 0.710364
vt 0.012621 0.719783
vt 0.884218 0.595669
vt 0.884597 0.607473
vt 0.884218 0.607473
vt 0.024314 0.719892
vt 0.884668 0.357598
vt 0.884289 0.345798
vt 0.884668 0.345798
vt 0.016791 0.710255
vt 0.012514 0.710255
vt 0.893702 0.785334
vt 0.894081 0.794755
vt 0.893702 0.794755
vt 0.423133 0.715699
vt 0.423026 0.706167
vt 0.893906 0.710637
vt 0.893528 0.700998
vt 0.893906 0.700998
vt 0.427410 0.732807
vt 0.427303 0.715806
vt 0.427410 0.715699
vt 0.597977 0.922750
vt 0.597598 0.918473
vt 0.597977 0.918473
vt 0.423026 0.715806
vt 0.632507 0.918475
vt 0.632886 0.922752
vt 0.632507 0.922752
vt 0.016791 0.693365
vt 0.009157 0.693256
vt 0.016898 0.693256
vt 0.842999 0.688744
vt 0.843378 0.705638
vt 0.842999 0.705638
vt 0.016898 0.710364
vt 0.870317 0.799092
vt 0.869938 0.781984
vt 0.870317 0.781984
vt 0.985633 0.906235
vt 0.985526 0.905856
vt 0.985633 0.905856
vt 0.446653 0.894237
vt 0.447031 0.901981
vt 0.446653 0.901981
vt 0.419670 0.732807
vt 0.427303 0.732700
vt 0.493519 0.902787
vt 0.493140 0.895149
vt 0.493519 0.895149
vt 0.132584 0.984748
vt 0.869773 0.648812
vt 0.874575 0.551633
vt 0.874227 0.633544
vt 0.869433 0.108782
vt 0.884597 0.595669
vt 0.884289 0.357598
vt 0.894081 0.785334
vt 0.893528 0.710637
vt 0.597598 0.922750
vt 0.632886 0.918475
vt 0.009157 0.693365
vt 0.843378 0.688744
vt 0.869938 0.799092
vt 0.985526 0.906235
vt 0.447031 0.894237
vt 0.419670 0.732700
vt 0.493140 0.902787
vn -1.0000 0.0000 -0.0000
vn 0.0000 1.0000 0.0000
vn 0.0000 0.0000 -1.0000
vn 0.0000 -1.0000 -0.0000
vn -0.0000 0.0000 1.0000
vn 1.0000 0.0000 0.0000
s off
f 4/1/1 1/2/1 2/3/1
f 12/4/1 7/5/1 8/6/1
f 2/7/2 8/8/2 4/9/2
f 8/10/3 3/11/3 4/12/3
f 7/13/4 1/14/4 3/15/4
f 5/16/5 2/17/5 1/18/5
f 14/19/2 12/20/2 10/21/2
f 7/13/4 9/22/4 5/23/4
f 9/24/6 6/25/6 5/26/6
f 10/21/2 8/8/2 6/27/2
f 15/28/4 17/29/4 13/30/4
f 16/31/5 11/32/5 12/33/5
f 11/34/4 13/30/4 9/22/4
f 13/35/3 10/36/3 9/37/3
f 23/38/4 17/29/4 19/39/4
f 17/40/6 14/41/6 13/42/6
f 18/43/2 16/44/2 14/19/2
f 20/45/1 15/46/1 16/47/1
f 26/48/2 24/49/2 22/50/2
f 21/51/5 18/52/5 17/53/5
f 18/43/2 24/49/2 20/54/2
f 24/55/3 19/56/3 20/57/3
f 27/58/4 29/59/4 25/60/4
f 28/61/1 23/62/1 24/63/1
f 23/38/4 25/60/4 21/64/4
f 25/65/6 22/66/6 21/67/6
f 29/68/1 32/69/1 30/70/1
f 29/71/3 26/72/3 25/73/3
f 30/74/2 28/75/2 26/48/2
f 32/76/5 27/77/5 28/78/5
f 4/1/1 3/79/1 1/2/1
f 12/4/1 11/80/1 7/5/1
f 2/7/2 6/27/2 8/8/2
f 8/10/3 7/81/3 3/11/3
f 7/13/4 5/23/4 1/14/4
f 5/16/5 6/82/5 2/17/5
f 14/19/2 16/44/2 12/20/2
f 7/13/4 11/34/4 9/22/4
f 9/24/6 10/83/6 6/25/6
f 10/21/2 12/20/2 8/8/2
f 15/28/4 19/39/4 17/29/4
f 16/31/5 15/84/5 11/32/5
f 11/34/4 15/28/4 13/30/4
f 13/35/3 14/85/3 10/36/3
f 23/38/4 21/64/4 17/29/4
f 17/40/6 18/86/6 14/41/6
f 18/43/2 20/54/2 16/44/2
f 20/45/1 19/87/1 15/46/1
f 26/48/2 28/75/2 24/49/2
f 21/51/5 22/88/5 18/52/5
f 18/43/2 22/50/2 24/49/2
f 24/55/3 23/89/3 19/56/3
f 27/58/4 31/90/4 29/59/4
f 28/61/1 27/91/1 23/62/1
f 23/38/4 27/58/4 25/60/4
f 25/65/6 26/92/6 22/66/6
f 29/68/1 31/93/1 32/69/1
f 29/71/3 30/94/3 26/72/3
f 30/74/2 32/95/2 28/75/2
f 32/76/5 31/96/5 27/77/5
