# Blender v3.0.1 OBJ File: 'Main.blend'
# www.blender.org
o Cube.378_0171
v -2.370000 -0.420000 3.555000
v 3.273001 -0.420000 3.555000
v -2.370000 -0.390000 3.555000
v 3.273001 -0.390000 3.555000
v -2.370000 -0.420000 10.139999
v 3.273001 -0.420000 10.139999
v -2.370000 -0.390000 10.139999
v 3.273001 -0.390000 10.139999
vt 0.065480 0.801441
vt 0.066020 0.699614
vt 0.066020 0.801441
vt 0.404665 0.808126
vt 0.404125 0.706302
vt 0.404665 0.706302
vt 0.260961 0.698041
vt 0.260420 0.816850
vt 0.260420 0.698041
vt 0.353785 0.446734
vt 0.455612 0.327909
vt 0.455612 0.446734
vt 0.349519 0.572768
vt 0.350061 0.453944
vt 0.350061 0.572768
vt 0.459305 0.120673
vt 0.561128 0.001848
vt 0.561128 0.120673
vt 0.065480 0.699614
vt 0.404125 0.808126
vt 0.260961 0.816850
vt 0.353785 0.327909
vt 0.349519 0.453944
vt 0.459305 0.001848
vn 0.0000 0.0000 -1.0000
vn 0.0000 0.0000 1.0000
vn 1.0000 0.0000 0.0000
vn 0.0000 -1.0000 0.0000
vn -1.0000 0.0000 0.0000
vn 0.0000 1.0000 0.0000
s off
f 3/1/1 2/2/1 1/3/1
f 6/4/2 7/5/2 5/6/2
f 4/7/3 6/8/3 2/9/3
f 2/10/4 5/11/4 1/12/4
f 1/13/5 7/14/5 3/15/5
f 3/16/6 8/17/6 4/18/6
f 3/1/1 4/19/1 2/2/1
f 6/4/2 8/20/2 7/5/2
f 4/7/3 8/21/3 6/8/3
f 2/10/4 6/22/4 5/11/4
f 1/13/5 5/23/5 7/14/5
f 3/16/6 7/24/6 8/17/6
