# Blender v3.0.1 OBJ File: 'Main.blend'
# www.blender.org
o Cube.5244_0229
v -0.411687 0.348042 -2.685000
v -0.203313 0.348042 -2.685000
v -0.396104 0.368511 -2.685000
v -0.218896 0.368511 -2.685000
v -0.203313 0.348042 -2.691000
v -0.218896 0.368511 -2.691000
v -0.377115 0.385309 -2.685000
v -0.237885 0.385309 -2.685000
v -0.237885 0.385309 -2.691000
v -0.355452 0.397791 -2.685000
v -0.259548 0.397791 -2.685000
v -0.259548 0.397791 -2.691000
v -0.331946 0.405477 -2.685000
v -0.283054 0.405477 -2.685000
v -0.283054 0.405477 -2.691000
v -0.307500 0.408073 -2.685000
v -0.307500 0.408073 -2.691000
v -0.331946 0.405477 -2.691000
v -0.355452 0.397791 -2.691000
v -0.411687 0.348042 -2.691000
v -0.377115 0.385309 -2.691000
v -0.396104 0.368511 -2.691000
v -0.196500 0.334302 -2.685000
v -0.196500 0.414000 -2.685000
v -0.196500 0.414000 -2.691000
v -0.196500 0.334302 -2.691000
v -0.418500 0.334302 -2.685000
v -0.418500 0.414000 -2.685000
v -0.418500 0.414000 -2.691000
v -0.418500 0.334302 -2.691000
vt 0.785154 0.907332
vt 0.785108 0.906891
vt 0.785261 0.905329
vt 0.477039 0.907316
vt 0.476993 0.906877
vt 0.477146 0.905315
vt 0.229407 0.929864
vt 0.229515 0.925858
vt 0.229515 0.929864
vt 0.044892 0.957824
vt 0.044784 0.956424
vt 0.044892 0.956424
vt 0.397430 0.956423
vt 0.397322 0.957824
vt 0.397322 0.956423
vt 0.785261 0.909335
vt 0.783823 0.909335
vt 0.784072 0.909213
vt 0.784440 0.908932
vt 0.784072 0.905454
vt 0.783823 0.905329
vt 0.784440 0.905734
vt 0.784744 0.908589
vt 0.784969 0.908197
vt 0.784744 0.906076
vt 0.784969 0.906467
vt 0.785108 0.907773
vt 0.477146 0.909321
vt 0.475708 0.909321
vt 0.475956 0.909194
vt 0.476325 0.908916
vt 0.475956 0.905437
vt 0.475708 0.905315
vt 0.476325 0.905716
vt 0.476628 0.908572
vt 0.476854 0.908183
vt 0.476628 0.906059
vt 0.476854 0.906449
vt 0.476993 0.907759
vt 0.229407 0.925858
vt 0.044784 0.957824
vt 0.397430 0.957824
vt 0.863005 0.341297
vt 0.863113 0.341567
vt 0.863005 0.341567
vt 0.863113 0.340873
vt 0.863005 0.340873
vt 0.863005 0.340500
vt 0.938846 0.426678
vt 0.938738 0.426313
vt 0.938846 0.426313
vt 0.938846 0.427085
vt 0.938738 0.426678
vt 0.938846 0.427518
vt 0.938738 0.427085
vt 0.938846 0.427963
vt 0.938738 0.427518
vt 0.938846 0.428398
vt 0.938738 0.427963
vt 0.938846 0.428811
vt 0.938738 0.428398
vt 0.971482 0.363198
vt 0.971373 0.362826
vt 0.971482 0.362826
vt 0.971373 0.363622
vt 0.971373 0.363198
vt 0.971482 0.363891
vt 0.971373 0.363891
vt 0.863113 0.341297
vt 0.863113 0.340500
vt 0.938738 0.428811
vt 0.971482 0.363622
vn 0.0000 0.0000 1.0000
vn 0.0000 0.0000 -1.0000
vn 0.0000 1.0000 0.0000
vn 1.0000 0.0000 0.0000
vn -1.0000 0.0000 0.0000
vn -0.5814 -0.3609 0.7291
vn 0.1919 -0.8192 -0.5404
vn 0.1919 -0.8192 0.5404
vn -0.5009 -0.4653 -0.7298
vn -0.5009 -0.4653 0.7298
vn -0.3988 -0.5544 0.7305
vn -0.2778 -0.6232 0.7311
vn -0.3988 -0.5544 -0.7305
vn -0.1427 -0.6667 0.7315
vn -0.2778 -0.6232 -0.7311
vn 0.0000 -0.6817 0.7317
vn -0.1427 -0.6667 -0.7315
vn 0.1427 -0.6667 0.7315
vn 0.0000 -0.6817 -0.7317
vn 0.2778 -0.6232 0.7311
vn 0.1427 -0.6667 -0.7315
vn 0.3987 -0.5544 0.7305
vn 0.2778 -0.6232 -0.7311
vn 0.5009 -0.4653 0.7298
vn 0.3988 -0.5544 -0.7305
vn 0.5814 -0.3609 -0.7291
vn 0.5009 -0.4653 -0.7298
vn -0.1919 -0.8192 0.5404
vn -0.1919 -0.8192 -0.5404
vn -0.5814 -0.3609 -0.7291
vn 0.5814 -0.3609 0.7291
s off
f 16/1/1 14/2/1 24/3/1
f 17/4/2 18/5/2 29/6/2
f 25/7/3 28/8/3 24/9/3
f 23/10/4 25/11/4 24/12/4
f 29/13/5 27/14/5 28/15/5
f 28/16/1 27/17/1 1/18/1
f 28/16/1 1/18/1 3/19/1
f 2/20/1 23/21/1 24/3/1
f 4/22/1 2/20/1 24/3/1
f 28/16/1 3/19/1 7/23/1
f 28/16/1 7/23/1 10/24/1
f 8/25/1 4/22/1 24/3/1
f 11/26/1 8/25/1 24/3/1
f 28/16/1 10/24/1 13/27/1
f 28/16/1 13/27/1 16/1/1
f 14/2/1 11/26/1 24/3/1
f 24/3/1 28/16/1 16/1/1
f 25/28/2 26/29/2 5/30/2
f 25/28/2 5/30/2 6/31/2
f 20/32/2 30/33/2 29/6/2
f 22/34/2 20/32/2 29/6/2
f 25/28/2 6/31/2 9/35/2
f 25/28/2 9/35/2 12/36/2
f 21/37/2 22/34/2 29/6/2
f 19/38/2 21/37/2 29/6/2
f 25/28/2 12/36/2 15/39/2
f 25/28/2 15/39/2 17/4/2
f 18/5/2 19/38/2 29/6/2
f 29/6/2 25/28/2 17/4/2
f 25/7/3 29/40/3 28/8/3
f 23/10/4 26/41/4 25/11/4
f 29/13/5 30/42/5 27/14/5
s 1
f 2/43/6 26/44/7 23/45/8
f 6/46/9 2/43/6 4/47/10
f 8/48/11 6/46/9 4/47/10
f 11/49/12 9/50/13 8/51/11
f 14/52/14 12/53/15 11/49/12
f 16/54/16 15/55/17 14/52/14
f 13/56/18 17/57/19 16/54/16
f 10/58/20 18/59/21 13/56/18
f 7/60/22 19/61/23 10/58/20
f 3/62/24 21/63/25 7/64/22
f 3/62/24 20/65/26 22/66/27
f 20/65/26 27/67/28 30/68/29
f 2/43/6 5/69/30 26/44/7
f 6/46/9 5/69/30 2/43/6
f 8/48/11 9/70/13 6/46/9
f 11/49/12 12/53/15 9/50/13
f 14/52/14 15/55/17 12/53/15
f 16/54/16 17/57/19 15/55/17
f 13/56/18 18/59/21 17/57/19
f 10/58/20 19/61/23 18/59/21
f 7/60/22 21/71/25 19/61/23
f 3/62/24 22/66/27 21/63/25
f 3/62/24 1/72/31 20/65/26
f 20/65/26 1/72/31 27/67/28
