# Blender v3.0.1 OBJ File: 'Main.blend'
# www.blender.org
o Cube.009_Cube.005
v -0.000600 0.010500 0.006000
v 0.000600 0.010500 0.006000
v -0.000600 0.022500 0.006000
v 0.000600 0.022500 0.006000
v -0.000600 0.009900 0.006600
v 0.000600 0.009900 0.006600
v -0.000600 0.023100 0.006600
v 0.000600 0.023100 0.006600
v -0.000600 0.022500 -0.006000
v -0.000600 0.010500 -0.006000
v 0.000600 0.010500 -0.006000
v -0.000600 0.009900 -0.006600
v 0.000600 0.009900 -0.006600
v 0.000600 0.022500 -0.006000
v -0.000600 0.023100 -0.006600
v 0.000600 0.023100 -0.006600
vt 0.000000 0.000000
vt 0.000000 0.000000
vt 0.000000 0.000000
vt 0.000000 0.000000
vt 0.000000 0.000000
vt 0.000000 0.000000
vt 0.000000 0.000000
vt 0.000000 0.000000
vt 0.000000 0.000000
vt 0.000000 0.000000
vt 0.000000 0.000000
vt 0.000000 0.000000
vt 0.000000 0.000000
vt 0.000000 0.000000
vt 0.000000 0.000000
vt 0.000000 0.000000
vn 0.0000 0.0000 -1.0000
vn 0.0000 0.0000 1.0000
vn 0.0000 -1.0000 0.0000
vn -1.0000 0.0000 0.0000
vn 1.0000 -0.0000 0.0000
vn 0.0000 1.0000 -0.0000
s 1
f 1/1/1 4/2/1 2/3/1
f 8/4/2 5/5/2 6/6/2
f 12/7/3 6/6/3 5/5/3
f 1/1/4 7/8/4 3/9/4
f 14/10/5 8/4/5 4/2/5
f 4/2/5 6/6/5 2/3/5
f 16/11/6 7/8/6 8/4/6
f 9/12/3 4/2/3 3/9/3
f 15/13/4 3/9/4 7/8/4
f 16/11/5 11/14/5 13/15/5
f 11/14/6 1/1/6 2/3/6
f 13/15/5 2/3/5 6/6/5
f 1/1/4 12/7/4 5/5/4
f 15/13/1 13/15/1 12/7/1
f 10/16/4 15/13/4 12/7/4
f 14/10/2 10/16/2 11/14/2
f 1/1/1 3/9/1 4/2/1
f 8/4/2 7/8/2 5/5/2
f 12/7/3 13/15/3 6/6/3
f 1/1/4 5/5/4 7/8/4
f 14/10/5 16/11/5 8/4/5
f 4/2/5 8/4/5 6/6/5
f 16/11/6 15/13/6 7/8/6
f 9/12/3 14/10/3 4/2/3
f 15/13/4 9/12/4 3/9/4
f 16/11/5 14/10/5 11/14/5
f 11/14/6 10/16/6 1/1/6
f 13/15/5 11/14/5 2/3/5
f 1/1/4 10/16/4 12/7/4
f 15/13/1 16/11/1 13/15/1
f 10/16/4 9/12/4 15/13/4
f 14/10/2 9/12/2 10/16/2
