# Blender v3.0.1 OBJ File: 'Main.blend'
# www.blender.org
o Cube.5632_0277
v -1.429502 0.776925 -0.008551
v -1.429502 1.117923 -0.008551
v -1.435503 1.117923 -0.008551
v -1.435503 0.776925 -0.008551
v -1.429502 0.776925 0.124930
v -1.429502 1.080483 0.124930
v -1.429502 0.776925 -0.275514
v -1.429502 0.995975 -0.275514
v -1.435503 0.776925 -0.010140
v -1.435503 1.118062 -0.010140
v -1.435503 1.080483 0.124930
v -1.435503 0.776925 0.124930
v -1.435503 0.995975 -0.275514
v -1.435503 0.776925 -0.275514
v -1.435503 0.776925 0.123341
v -1.435503 1.081226 0.123341
v -1.429502 0.776925 -0.010140
v -1.429502 1.118062 -0.010140
v -1.435503 0.776925 -0.277103
v -1.435503 0.993698 -0.277103
v -1.429502 0.776925 0.123341
v -1.429502 1.081226 0.123341
v -1.435503 0.776925 0.258411
v -1.435503 0.776925 0.256822
v -1.429502 0.776925 -0.277103
v -1.435503 0.776925 0.225571
v -1.435503 0.776925 0.223982
v -1.429502 0.776925 -0.041392
v -1.429502 1.118062 -0.041392
v -1.429502 0.993698 -0.277103
v -1.435503 1.118062 -0.041392
v -1.435503 0.776925 -0.041392
v -1.429502 0.776925 0.256822
v -1.429502 0.776925 0.258411
v -1.429502 0.776925 0.223982
v -1.429502 0.776925 0.225571
v -1.429502 0.776925 0.092089
v -1.429502 1.095844 0.092089
v -1.435503 0.776925 -0.042981
v -1.435503 1.117923 -0.042981
v -1.435503 1.095844 0.092089
v -1.429502 0.776925 -0.308354
v -1.429502 0.943180 -0.308354
v -1.435503 0.776925 0.092089
v -1.429502 0.776925 -0.042981
v -1.435503 0.943180 -0.308354
v -1.435503 0.776925 -0.308354
v -1.429502 1.117923 -0.042981
v -1.435503 0.776925 0.090500
v -1.435503 1.096588 0.090500
v -1.435503 0.776925 -0.309944
v -1.435503 0.939761 -0.309944
v -1.429502 0.776925 0.090500
v -1.429502 0.776925 -0.142033
v -1.429502 1.096588 -0.142033
v -1.429502 1.096588 0.090500
v -1.435503 1.096588 -0.142033
v -1.435503 0.776925 -0.142033
v -1.429502 0.776925 -0.309944
v -1.429502 0.939761 -0.309944
v -1.435503 0.776925 -0.143622
v -1.435503 1.095845 -0.143622
v -1.429502 0.939758 0.258411
v -1.435503 0.776925 -0.174873
v -1.435503 0.776925 -0.176462
v -1.435503 0.939758 0.258411
v -1.429502 0.776925 -0.143622
v -1.429502 0.776925 -0.176462
v -1.429502 0.776925 -0.174873
v -1.429502 1.095845 -0.143622
v -1.435503 0.943177 0.256822
v -1.429502 1.081227 -0.174873
v -1.429502 0.943177 0.256822
v -1.435503 1.081227 -0.174873
v -1.435503 0.993696 0.225571
v -1.435503 0.995973 0.223982
v -1.429502 0.993696 0.225571
v -1.435503 1.080484 -0.176462
v -1.429502 0.995973 0.223982
v -1.429502 1.080484 -0.176462
vt 0.704987 0.909485
vt 0.705095 0.915289
vt 0.704987 0.915289
vt 0.917531 0.126591
vt 0.917557 0.132400
vt 0.917531 0.132400
vt 0.914887 0.032598
vt 0.914995 0.026791
vt 0.914995 0.032598
vt 0.773651 0.895295
vt 0.773678 0.889486
vt 0.773678 0.895295
vt 0.915079 0.321937
vt 0.915187 0.327744
vt 0.915079 0.327744
vt 0.917266 0.477701
vt 0.917293 0.471893
vt 0.917293 0.477701
vt 0.035213 0.915342
vt 0.035321 0.909538
vt 0.035321 0.915342
vt 0.658285 0.917600
vt 0.658258 0.911792
vt 0.658285 0.911790
vt 0.017562 0.912074
vt 0.017670 0.917515
vt 0.017562 0.917515
vt 0.919021 0.900227
vt 0.919048 0.894795
vt 0.919048 0.900227
vt 0.917800 0.334192
vt 0.917908 0.339620
vt 0.917800 0.339620
vt 0.919439 0.455376
vt 0.919412 0.449944
vt 0.919439 0.449932
vt 0.919933 0.641197
vt 0.920041 0.636018
vt 0.920041 0.641197
vt 0.921967 0.195186
vt 0.921994 0.190016
vt 0.921994 0.195186
vt 0.194692 0.920439
vt 0.194584 0.915272
vt 0.194692 0.915272
vt 0.922261 0.227565
vt 0.922234 0.222395
vt 0.922261 0.222382
vt 0.920234 0.914420
vt 0.920342 0.919586
vt 0.920234 0.919586
vt 0.922168 0.204221
vt 0.922194 0.209392
vt 0.922168 0.209392
vt 0.920093 0.464817
vt 0.919985 0.459638
vt 0.920093 0.459638
vt 0.921866 0.726656
vt 0.921893 0.721485
vt 0.921893 0.726656
vt 0.917864 0.506551
vt 0.917756 0.511979
vt 0.917756 0.506551
vt 0.490649 0.914111
vt 0.490676 0.919543
vt 0.490649 0.919543
vt 0.469788 0.912155
vt 0.469896 0.917596
vt 0.469788 0.917596
vt 0.918937 0.352551
vt 0.918964 0.347119
vt 0.918964 0.352551
vt 0.371383 0.937172
vt 0.371491 0.934401
vt 0.371491 0.937172
vt 0.887840 0.839976
vt 0.887813 0.837202
vt 0.887840 0.837144
vt 0.937305 0.016470
vt 0.937197 0.013640
vt 0.937305 0.013640
vt 0.937717 0.245749
vt 0.937691 0.248523
vt 0.937691 0.245691
vt 0.587782 0.927558
vt 0.587891 0.931248
vt 0.587782 0.931248
vt 0.235402 0.932692
vt 0.235375 0.928999
vt 0.235402 0.928961
vt 0.591913 0.927573
vt 0.591804 0.931302
vt 0.591804 0.927573
vt 0.013582 0.928871
vt 0.013555 0.932563
vt 0.013555 0.928832
vt 0.931227 0.100925
vt 0.931335 0.097197
vt 0.931335 0.100925
vt 0.690384 0.932535
vt 0.690411 0.928842
vt 0.690411 0.932535
vt 0.931098 0.661204
vt 0.931206 0.664894
vt 0.931098 0.664894
vt 0.932072 0.138734
vt 0.932099 0.142426
vt 0.932072 0.142426
vt 0.937105 0.344422
vt 0.937213 0.341592
vt 0.937213 0.344422
vt 0.937734 0.574320
vt 0.937761 0.571547
vt 0.937761 0.574320
vt 0.937032 0.723159
vt 0.937140 0.725931
vt 0.937032 0.725931
vt 0.858744 0.935087
vt 0.858771 0.937860
vt 0.858744 0.937860
vt 0.705095 0.909485
vt 0.917557 0.126589
vt 0.914887 0.026791
vt 0.773651 0.889484
vt 0.915187 0.321937
vt 0.917266 0.471891
vt 0.035213 0.909538
vt 0.658258 0.917600
vt 0.017670 0.912074
vt 0.919021 0.894782
vt 0.917908 0.334192
vt 0.919412 0.455376
vt 0.919933 0.636018
vt 0.921967 0.190003
vt 0.194584 0.920439
vt 0.922234 0.227565
vt 0.920342 0.914420
vt 0.922194 0.204209
vt 0.919985 0.464817
vt 0.921866 0.721473
vt 0.917864 0.511979
vt 0.490676 0.914098
vt 0.469896 0.912155
vt 0.918937 0.347107
vt 0.371383 0.934401
vt 0.887813 0.839976
vt 0.937197 0.016470
vt 0.937717 0.248523
vt 0.587891 0.927558
vt 0.235375 0.932692
vt 0.591913 0.931302
vt 0.013582 0.932563
vt 0.931227 0.097197
vt 0.690384 0.928804
vt 0.931206 0.661204
vt 0.932099 0.138695
vt 0.937105 0.341592
vt 0.937734 0.571489
vt 0.937140 0.723159
vt 0.858771 0.935029
vt 0.265903 0.996682
vt 0.265876 0.996790
vt 0.265876 0.996682
vt 0.996762 0.732705
vt 0.996789 0.732597
vt 0.996789 0.732705
vt 0.996444 0.762276
vt 0.996417 0.762168
vt 0.996444 0.762168
vt 0.996356 0.126390
vt 0.996383 0.126282
vt 0.996383 0.126390
vt 0.996564 0.890952
vt 0.996537 0.890844
vt 0.996564 0.890844
vt 0.872206 0.995892
vt 0.872233 0.995784
vt 0.872233 0.995892
vt 0.154311 0.995844
vt 0.154284 0.995735
vt 0.154311 0.995735
vt 0.995790 0.042338
vt 0.995817 0.042230
vt 0.995817 0.042338
vt 0.684881 0.996228
vt 0.684854 0.996120
vt 0.684881 0.996120
vt 0.667166 0.996033
vt 0.667193 0.995925
vt 0.667193 0.996033
vt 0.597682 0.996267
vt 0.597709 0.996159
vt 0.597709 0.996267
vt 0.701475 0.996029
vt 0.701502 0.995921
vt 0.701502 0.996029
vt 0.002141 0.996251
vt 0.002114 0.996143
vt 0.002141 0.996143
vt 0.587891 0.931287
vt 0.587782 0.931287
vt 0.371491 0.934342
vt 0.549810 0.996158
vt 0.549837 0.996266
vt 0.549810 0.996266
vt 0.279380 0.995869
vt 0.279408 0.995760
vt 0.279408 0.995869
vt 0.168040 0.996755
vt 0.168013 0.996647
vt 0.168040 0.996647
vt 0.931206 0.661164
vt 0.937140 0.723100
vt 0.265903 0.996790
vt 0.996762 0.732597
vt 0.996417 0.762276
vt 0.996356 0.126282
vt 0.996537 0.890952
vt 0.872206 0.995784
vt 0.154284 0.995844
vt 0.995790 0.042230
vt 0.684854 0.996228
vt 0.667166 0.995925
vt 0.597682 0.996159
vt 0.701475 0.995921
vt 0.002114 0.996251
vt 0.371383 0.934342
vt 0.549837 0.996158
vt 0.279380 0.995760
vt 0.168013 0.996755
vt 0.931098 0.661164
vt 0.937032 0.723100
vn -0.0000 0.0000 1.0000
vn -1.0000 0.0000 0.0000
vn 0.0000 0.0000 -1.0000
vn 1.0000 0.0000 0.0000
vn 0.5773 -0.5773 0.5773
vn -0.5773 -0.5773 -0.5773
vn 0.5773 -0.5773 -0.5773
vn -0.5773 -0.5773 0.5773
vn -0.5820 0.5492 0.5996
vn 0.5729 0.6043 -0.5537
vn -0.5729 0.6044 -0.5536
vn -0.6039 0.4279 0.6724
vn 0.5578 0.7003 -0.4455
vn -0.5577 0.7002 -0.4456
vn -0.5578 0.7002 -0.4455
vn 0.6039 0.4278 0.6724
vn 0.5577 0.7002 -0.4455
vn -0.6454 0.2292 0.7286
vn 0.5430 0.8010 -0.2519
vn -0.5430 0.8010 -0.2519
vn 0.6616 0.1618 0.7322
vn -0.5400 0.8218 -0.1816
vn -0.6616 0.1618 0.7322
vn 0.5729 0.6044 0.5537
vn -0.5821 0.5492 -0.5996
vn -0.5729 0.6044 0.5536
vn -0.5578 0.7002 0.4455
vn 0.6039 0.4278 -0.6725
vn -0.6039 0.4279 -0.6724
vn -0.6039 0.4278 -0.6725
vn 0.5578 0.7002 0.4455
vn 0.6039 0.4279 -0.6724
vn -0.6454 0.2291 -0.7286
vn 0.5430 0.8010 0.2519
vn 0.6454 0.2291 -0.7286
vn -0.6616 0.1618 -0.7322
vn 0.5400 0.8218 0.1816
vn 0.6616 0.1618 -0.7322
vn 0.5821 0.5493 0.5995
vn 0.6039 0.4278 0.6725
vn -0.6039 0.4278 0.6725
vn 0.6454 0.2292 0.7286
vn 0.5400 0.8218 -0.1817
vn 0.5821 0.5492 -0.5995
vn -0.5430 0.8010 0.2519
vn -0.5400 0.8218 0.1817
s off
f 2/1/1 4/2/1 1/3/1
f 3/4/2 9/5/2 4/6/2
f 9/7/3 18/8/3 17/9/3
f 17/10/4 2/11/4 1/12/4
f 29/13/1 32/14/1 28/15/1
f 32/16/2 40/17/2 39/18/2
f 39/19/3 48/20/3 45/21/3
f 28/22/4 48/23/4 29/24/4
f 55/25/1 58/26/1 54/27/1
f 58/28/2 62/29/2 61/30/2
f 62/31/3 67/32/3 61/33/3
f 54/34/4 70/35/4 55/36/4
f 69/37/1 74/38/1 64/39/1
f 64/40/2 78/41/2 65/42/2
f 68/43/3 78/44/3 80/45/3
f 69/46/4 80/47/4 72/48/4
f 6/49/1 12/50/1 5/51/1
f 11/52/2 15/53/2 12/54/2
f 21/55/3 16/56/3 22/57/3
f 21/58/4 6/59/4 5/60/4
f 41/61/1 37/62/1 38/63/1
f 41/64/2 49/65/2 44/66/2
f 50/67/3 53/68/3 49/69/3
f 53/70/4 38/71/4 37/72/4
f 34/73/1 66/74/1 23/75/1
f 24/76/2 66/77/2 71/78/2
f 33/79/3 71/80/3 73/81/3
f 63/82/4 33/83/4 73/84/4
f 26/85/1 77/86/1 75/87/1
f 27/88/2 75/89/2 76/90/2
f 79/91/3 27/92/3 76/93/3
f 77/94/4 35/95/4 79/96/4
f 13/97/1 7/98/1 8/99/1
f 14/100/2 20/101/2 19/102/2
f 20/103/3 25/104/3 19/105/3
f 30/106/4 7/107/4 25/108/4
f 42/109/1 46/110/1 47/111/1
f 47/112/2 52/113/2 51/114/2
f 52/115/3 59/116/3 51/117/3
f 60/118/4 42/119/4 59/120/4
f 2/1/1 3/121/1 4/2/1
f 3/4/2 10/122/2 9/5/2
f 9/7/3 10/123/3 18/8/3
f 17/10/4 18/124/4 2/11/4
f 29/13/1 31/125/1 32/14/1
f 32/16/2 31/126/2 40/17/2
f 39/19/3 40/127/3 48/20/3
f 28/22/4 45/128/4 48/23/4
f 55/25/1 57/129/1 58/26/1
f 58/28/2 57/130/2 62/29/2
f 62/31/3 70/131/3 67/32/3
f 54/34/4 67/132/4 70/35/4
f 69/37/1 72/133/1 74/38/1
f 64/40/2 74/134/2 78/41/2
f 68/43/3 65/135/3 78/44/3
f 69/46/4 68/136/4 80/47/4
f 6/49/1 11/137/1 12/50/1
f 11/52/2 16/138/2 15/53/2
f 21/55/3 15/139/3 16/56/3
f 21/58/4 22/140/4 6/59/4
f 41/61/1 44/141/1 37/62/1
f 41/64/2 50/142/2 49/65/2
f 50/67/3 56/143/3 53/68/3
f 53/70/4 56/144/4 38/71/4
f 34/73/1 63/145/1 66/74/1
f 24/76/2 23/146/2 66/77/2
f 33/79/3 24/147/3 71/80/3
f 63/82/4 34/148/4 33/83/4
f 26/85/1 36/149/1 77/86/1
f 27/88/2 26/150/2 75/89/2
f 79/91/3 35/151/3 27/92/3
f 77/94/4 36/152/4 35/95/4
f 13/97/1 14/153/1 7/98/1
f 14/100/2 13/154/2 20/101/2
f 20/103/3 30/155/3 25/104/3
f 30/106/4 8/156/4 7/107/4
f 42/109/1 43/157/1 46/110/1
f 47/112/2 46/158/2 52/113/2
f 52/115/3 60/159/3 59/116/3
f 60/118/4 43/160/4 42/119/4
s 1
f 34/161/5 24/162/6 33/163/7
f 27/164/6 36/165/5 26/166/8
f 4/167/8 17/168/7 1/169/5
f 39/170/6 28/171/5 32/172/8
f 12/173/8 21/174/7 5/175/5
f 49/176/6 37/177/5 44/178/8
f 14/179/8 25/180/7 7/181/5
f 51/182/6 42/183/5 47/184/8
f 58/185/8 67/186/7 54/187/5
f 65/188/6 69/189/5 64/190/8
f 3/191/9 18/192/10 10/193/11
f 11/194/12 22/195/13 16/196/14
f 50/197/15 38/198/16 56/199/17
f 75/87/18 79/200/19 76/201/20
f 63/145/21 71/202/22 66/74/23
f 29/203/24 40/204/25 31/205/26
f 57/206/27 70/207/28 62/208/29
f 78/209/30 72/210/31 80/211/32
f 20/103/33 8/212/34 30/155/35
f 52/115/36 43/213/37 60/159/38
f 34/161/5 23/214/8 24/162/6
f 27/164/6 35/215/7 36/165/5
f 4/167/8 9/216/6 17/168/7
f 39/170/6 45/217/7 28/171/5
f 12/173/8 15/218/6 21/174/7
f 49/176/6 53/219/7 37/177/5
f 14/179/8 19/220/6 25/180/7
f 51/182/6 59/221/7 42/183/5
f 58/185/8 61/222/6 67/186/7
f 65/188/6 68/223/7 69/189/5
f 3/191/9 2/224/39 18/192/10
f 11/194/12 6/225/40 22/195/13
f 50/197/15 41/226/41 38/198/16
f 75/87/18 77/86/42 79/200/19
f 63/145/21 73/227/43 71/202/22
f 29/203/24 48/228/44 40/204/25
f 57/206/27 55/229/31 70/207/28
f 78/209/30 74/230/27 72/210/31
f 20/103/33 13/231/45 8/212/34
f 52/115/36 46/232/46 43/213/37
