# Blender v3.0.1 OBJ File: 'Main.blend'
# www.blender.org
o Cube.4693_0270
v 1.264500 0.165000 -1.070250
v 1.384500 0.165000 -1.070250
v 1.264500 0.237000 -1.070250
v 1.384500 0.237000 -1.070250
v 1.264500 0.165000 -1.062000
v 1.384500 0.165000 -1.062000
v 1.264500 0.237000 -1.062000
v 1.384500 0.237000 -1.062000
vt 0.863394 0.232414
vt 0.864693 0.234579
vt 0.863394 0.234579
vt 0.836880 0.232842
vt 0.835580 0.235007
vt 0.835580 0.232842
vt 0.958346 0.370266
vt 0.958495 0.368967
vt 0.958495 0.370266
vt 0.942463 0.329169
vt 0.942314 0.331334
vt 0.942314 0.329169
vt 0.958477 0.829936
vt 0.958328 0.831235
vt 0.958328 0.829936
vt 0.035709 0.940311
vt 0.035560 0.942476
vt 0.035560 0.940311
vt 0.864693 0.232414
vt 0.836880 0.235007
vt 0.958346 0.368967
vt 0.942463 0.331334
vt 0.958477 0.831235
vt 0.035709 0.942476
vn 0.0000 0.0000 -1.0000
vn 0.0000 0.0000 1.0000
vn -1.0000 0.0000 0.0000
vn 0.0000 1.0000 0.0000
vn 1.0000 0.0000 0.0000
vn 0.0000 -1.0000 0.0000
s off
f 1/1/1 4/2/1 2/3/1
f 8/4/2 5/5/2 6/6/2
f 5/7/3 3/8/3 1/9/3
f 7/10/4 4/11/4 3/12/4
f 8/13/5 2/14/5 4/15/5
f 6/16/6 1/17/6 2/18/6
f 1/1/1 3/19/1 4/2/1
f 8/4/2 7/20/2 5/5/2
f 5/7/3 7/21/3 3/8/3
f 7/10/4 8/22/4 4/11/4
f 8/13/5 6/23/5 2/14/5
f 6/16/6 5/24/6 1/17/6
