# Blender v3.0.1 OBJ File: 'Main.blend'
# www.blender.org
o Cube.5344_0357
v -0.459001 0.459000 -3.411000
v -0.459001 0.459000 -3.402000
v -0.471001 0.459000 -3.402000
v -0.228001 0.459000 -3.411000
v -0.228001 0.459000 -3.483000
v 0.002999 0.459000 -3.483000
v -0.459001 0.480000 -3.411000
v -0.459001 0.480000 -3.402000
v -0.471001 0.480000 -3.402000
v -0.228001 0.480000 -3.411000
v -0.228001 0.480000 -3.483000
v 0.002999 0.480000 -3.483000
v -0.453001 0.459000 -3.396000
v -0.453001 0.459000 -3.405000
v -0.471001 0.459000 -3.396000
v -0.222001 0.459000 -3.405000
v -0.222001 0.459000 -3.477000
v 0.002999 0.459000 -3.477000
v -0.453001 0.480000 -3.396000
v -0.453001 0.480000 -3.405000
v -0.471001 0.480000 -3.396000
v -0.222001 0.480000 -3.405000
v -0.222001 0.480000 -3.477000
v 0.002999 0.480000 -3.477000
vt 0.758460 0.947890
vt 0.758838 0.949188
vt 0.758460 0.949188
vt 0.031408 0.984333
vt 0.031571 0.983955
vt 0.031571 0.984333
vt 0.685144 0.919206
vt 0.685522 0.923376
vt 0.685144 0.923376
vt 0.981663 0.737025
vt 0.981884 0.736647
vt 0.981884 0.737025
vt 0.253910 0.919193
vt 0.254288 0.923363
vt 0.253910 0.923363
vt 0.235753 0.947624
vt 0.235375 0.948924
vt 0.235375 0.947624
vt 0.259346 0.983948
vt 0.259508 0.984326
vt 0.259346 0.984326
vt 0.512274 0.919510
vt 0.511896 0.923573
vt 0.511896 0.919510
vt 0.894961 0.750575
vt 0.895290 0.750953
vt 0.894961 0.750953
vt 0.250213 0.919193
vt 0.249835 0.923363
vt 0.249835 0.919193
vt 0.633911 0.873454
vt 0.633892 0.873332
vt 0.634048 0.873385
vt 0.596736 0.877466
vt 0.597839 0.877008
vt 0.597977 0.877080
vt 0.985438 0.415530
vt 0.985330 0.415908
vt 0.985330 0.415530
vt 0.632807 0.877364
vt 0.633853 0.873095
vt 0.633957 0.873125
vt 0.596736 0.873097
vt 0.985355 0.732946
vt 0.985464 0.732568
vt 0.985464 0.732946
vt 0.597820 0.881495
vt 0.597839 0.881373
vt 0.597977 0.881445
vt 0.633911 0.877823
vt 0.634048 0.877746
vt 0.597782 0.881732
vt 0.597885 0.881701
vt 0.632807 0.881733
vt 0.758838 0.947890
vt 0.031408 0.983955
vt 0.685522 0.919206
vt 0.981663 0.736647
vt 0.254288 0.919193
vt 0.235753 0.948924
vt 0.259508 0.983948
vt 0.512274 0.923573
vt 0.895290 0.750575
vt 0.250213 0.923363
vt 0.633758 0.873408
vt 0.596598 0.877394
vt 0.985438 0.415908
vt 0.632670 0.877433
vt 0.596633 0.873132
vt 0.985355 0.732568
vt 0.597687 0.881422
vt 0.632704 0.881695
vn -1.0000 0.0000 0.0000
vn 0.0000 0.0000 -1.0000
vn 1.0000 0.0000 0.0000
vn 0.0000 0.0000 1.0000
vn 0.0000 -1.0000 0.0000
vn 0.0000 1.0000 0.0000
s off
f 4/1/1 11/2/1 5/3/1
f 2/4/1 7/5/1 1/6/1
f 5/7/2 12/8/2 6/9/2
f 3/10/2 8/11/2 2/12/2
f 1/13/2 10/14/2 4/15/2
f 23/16/3 16/17/3 17/18/3
f 20/19/3 13/20/3 14/21/3
f 24/22/4 17/23/4 18/24/4
f 19/25/4 15/26/4 13/27/4
f 22/28/4 14/29/4 16/30/4
f 14/31/5 2/32/5 1/33/5
f 10/34/6 23/35/6 11/36/6
f 24/37/3 6/38/3 12/39/3
f 4/40/5 14/31/5 1/33/5
f 2/32/5 15/41/5 3/42/5
f 23/35/6 12/43/6 11/36/6
f 15/44/1 9/45/1 3/46/1
f 8/47/6 20/48/6 7/49/6
f 17/50/5 4/40/5 5/51/5
f 20/48/6 10/34/6 7/49/6
f 21/52/6 8/47/6 9/53/6
f 6/54/5 17/50/5 5/51/5
f 4/1/1 10/55/1 11/2/1
f 2/4/1 8/56/1 7/5/1
f 5/7/2 11/57/2 12/8/2
f 3/10/2 9/58/2 8/11/2
f 1/13/2 7/59/2 10/14/2
f 23/16/3 22/60/3 16/17/3
f 20/19/3 19/61/3 13/20/3
f 24/22/4 23/62/4 17/23/4
f 19/25/4 21/63/4 15/26/4
f 22/28/4 20/64/4 14/29/4
f 14/31/5 13/65/5 2/32/5
f 10/34/6 22/66/6 23/35/6
f 24/37/3 18/67/3 6/38/3
f 4/40/5 16/68/5 14/31/5
f 2/32/5 13/65/5 15/41/5
f 23/35/6 24/69/6 12/43/6
f 15/44/1 21/70/1 9/45/1
f 8/47/6 19/71/6 20/48/6
f 17/50/5 16/68/5 4/40/5
f 20/48/6 22/66/6 10/34/6
f 21/52/6 19/71/6 8/47/6
f 6/54/5 18/72/5 17/50/5
