# Blender v3.0.1 OBJ File: 'Main.blend'
# www.blender.org
o Cube.5418_0055
v 1.911000 0.459000 0.975000
v 1.911000 0.459000 1.272000
v 1.902000 0.459000 1.272000
v 1.901998 0.459000 2.910000
v 1.925998 0.459000 2.910000
v 1.925998 0.459000 2.949000
v 1.937998 0.459000 2.949000
v 1.937998 0.459000 3.425999
v 1.883998 0.459000 3.425999
v 1.436999 0.459000 3.426000
v 0.455998 0.459000 3.426000
v 0.455998 0.459000 3.444000
v 0.359998 0.459000 3.444000
v 0.359998 0.459000 3.537000
v 0.002998 0.459000 3.537000
v 1.911000 0.480000 0.975000
v 1.911000 0.480000 1.272000
v 1.902000 0.480000 1.272000
v 1.901998 0.480000 2.910000
v 1.925998 0.480000 2.910000
v 1.925998 0.480000 2.949000
v 1.937998 0.480000 2.949000
v 1.937998 0.480000 3.425999
v 1.883998 0.480000 3.425999
v 1.436999 0.480000 3.426000
v 0.455998 0.480000 3.426000
v 0.455998 0.480000 3.444000
v 0.359998 0.480000 3.444000
v 0.359998 0.480000 3.537000
v 0.002998 0.480000 3.537000
v 1.905000 0.459000 0.975000
v 1.905000 0.459000 1.266000
v 1.896000 0.459000 1.266000
v 1.895998 0.459000 2.916000
v 1.919998 0.459000 2.916000
v 1.919998 0.459000 2.955000
v 1.931998 0.459000 2.955000
v 1.931998 0.459000 3.419999
v 1.877998 0.459000 3.419999
v 1.442999 0.459000 3.420000
v 0.449999 0.459000 3.420000
v 0.449998 0.459000 3.438000
v 0.353998 0.459000 3.438000
v 0.353998 0.459000 3.531000
v 0.002998 0.459000 3.531000
v 1.905000 0.480000 0.975000
v 1.905000 0.480000 1.266000
v 1.896000 0.480000 1.266000
v 1.895998 0.480000 2.916000
v 1.919998 0.480000 2.916000
v 1.919998 0.480000 2.955000
v 1.931998 0.480000 2.955000
v 1.931998 0.480000 3.419999
v 1.877998 0.480000 3.419999
v 1.442999 0.480000 3.420000
v 0.449999 0.480000 3.420000
v 0.449998 0.480000 3.438000
v 0.353998 0.480000 3.438000
v 0.353998 0.480000 3.531000
v 0.002998 0.480000 3.531000
vt 0.956360 0.311771
vt 0.956039 0.312149
vt 0.956039 0.311771
vt 0.982494 0.666914
vt 0.982711 0.666535
vt 0.982711 0.666914
vt 0.361056 0.941650
vt 0.361434 0.943383
vt 0.361056 0.943383
vt 0.017562 0.889461
vt 0.017940 0.898076
vt 0.017562 0.898076
vt 0.943384 0.500219
vt 0.943762 0.501899
vt 0.943384 0.501899
vt 0.163958 0.858096
vt 0.163579 0.857121
vt 0.163958 0.857121
vt 0.343570 0.908175
vt 0.343948 0.913537
vt 0.343570 0.913537
vt 0.332272 0.901864
vt 0.332650 0.908310
vt 0.332272 0.908310
vt 0.437894 0.984140
vt 0.438056 0.983761
vt 0.438056 0.984140
vt 0.163579 0.849056
vt 0.163958 0.849056
vt 0.854524 0.199588
vt 0.854902 0.229145
vt 0.854524 0.229145
vt 0.926478 0.593605
vt 0.926856 0.594039
vt 0.926478 0.594039
vt 0.163579 0.831353
vt 0.163958 0.831353
vt 0.967311 0.865112
vt 0.967689 0.865815
vt 0.967311 0.865815
vt 0.946559 0.616230
vt 0.946879 0.616609
vt 0.946559 0.616609
vt 0.317003 0.983351
vt 0.317219 0.983730
vt 0.317003 0.983730
vt 0.690411 0.941677
vt 0.690033 0.943411
vt 0.690033 0.941677
vt 0.336725 0.890633
vt 0.336347 0.899019
vt 0.336347 0.890633
vt 0.943748 0.214025
vt 0.943370 0.215705
vt 0.943370 0.214025
vt 0.859308 0.338479
vt 0.858930 0.339454
vt 0.858930 0.338479
vt 0.185332 0.908928
vt 0.184954 0.914183
vt 0.184954 0.908928
vt 0.574565 0.902382
vt 0.574187 0.908718
vt 0.574187 0.902382
vt 0.694186 0.983611
vt 0.694349 0.983990
vt 0.694186 0.983990
vt 0.859308 0.330629
vt 0.858930 0.330629
vt 0.408740 0.822196
vt 0.408362 0.851975
vt 0.408362 0.822196
vt 0.927324 0.253429
vt 0.926946 0.253862
vt 0.926946 0.253429
vt 0.859308 0.312711
vt 0.858930 0.312711
vt 0.965141 0.512741
vt 0.964763 0.513444
vt 0.964763 0.512741
vt 0.150271 0.620052
vt 0.149034 0.621106
vt 0.148881 0.621090
vt 0.151363 0.668229
vt 0.154411 0.672506
vt 0.151218 0.668198
vt 0.190108 0.655448
vt 0.204459 0.665995
vt 0.204306 0.666014
vt 0.149423 0.618723
vt 0.149271 0.618707
vt 0.837490 0.985160
vt 0.837598 0.984781
vt 0.837598 0.985160
vt 0.151348 0.668107
vt 0.204268 0.666255
vt 0.204116 0.666278
vt 0.154434 0.614858
vt 0.985598 0.097169
vt 0.985491 0.097548
vt 0.985491 0.097169
vt 0.133721 0.644247
vt 0.133698 0.644400
vt 0.205506 0.667312
vt 0.209645 0.614858
vt 0.206598 0.619135
vt 0.206453 0.619158
vt 0.133377 0.644507
vt 0.133354 0.644660
vt 0.204658 0.668634
vt 0.204505 0.668657
vt 0.206582 0.619257
vt 0.132934 0.644094
vt 0.209668 0.672502
vt 0.206728 0.619234
vt 0.188932 0.642968
vt 0.132781 0.644064
vt 0.132758 0.644217
vt 0.188611 0.642861
vt 0.188589 0.642712
vt 0.127771 0.637328
vt 0.127618 0.637312
vt 0.188168 0.643273
vt 0.128405 0.636732
vt 0.188016 0.643296
vt 0.187993 0.643147
vt 0.182853 0.650052
vt 0.134851 0.632073
vt 0.134874 0.631920
vt 0.183005 0.650029
vt 0.183639 0.650632
vt 0.149225 0.621365
vt 0.149072 0.621350
vt 0.190085 0.655295
vt 0.956360 0.312149
vt 0.982494 0.666535
vt 0.361434 0.941650
vt 0.017940 0.889461
vt 0.943762 0.500219
vt 0.163579 0.858096
vt 0.343948 0.908175
vt 0.332650 0.901864
vt 0.437894 0.983761
vt 0.854902 0.199588
vt 0.926856 0.593605
vt 0.967689 0.865112
vt 0.946879 0.616230
vt 0.317219 0.983351
vt 0.690411 0.943411
vt 0.336725 0.899019
vt 0.943748 0.215705
vt 0.859308 0.339454
vt 0.185332 0.914183
vt 0.574565 0.908718
vt 0.694349 0.983611
vt 0.408740 0.851975
vt 0.927324 0.253862
vt 0.965141 0.513444
vt 0.150424 0.620067
vt 0.154502 0.672445
vt 0.837490 0.984781
vt 0.151493 0.668122
vt 0.154502 0.614950
vt 0.985598 0.097548
vt 0.205658 0.667290
vt 0.209737 0.614923
vt 0.132957 0.643942
vt 0.209737 0.672414
vt 0.188955 0.643121
vt 0.188191 0.643426
vt 0.128550 0.636747
vt 0.183785 0.650609
vn 1.0000 0.0000 0.0000
vn 0.0000 0.0000 -1.0000
vn 0.0000 0.0000 1.0000
vn -1.0000 0.0000 -0.0000
vn 0.0000 -1.0000 0.0000
vn 0.0000 1.0000 -0.0000
s off
f 11/1/1 27/2/1 12/3/1
f 6/4/2 22/5/2 7/6/2
f 12/7/3 28/8/3 13/9/3
f 7/10/1 23/11/1 8/12/1
f 13/13/1 29/14/1 14/15/1
f 8/16/3 24/17/3 9/18/3
f 1/19/1 17/20/1 2/21/1
f 14/22/3 30/23/3 15/24/3
f 2/25/3 18/26/3 3/27/3
f 9/18/3 25/28/3 10/29/3
f 3/30/1 19/31/1 4/32/1
f 4/33/2 20/34/2 5/35/2
f 10/29/3 26/36/3 11/37/3
f 5/38/1 21/39/1 6/40/1
f 57/41/4 41/42/4 42/43/4
f 52/44/3 36/45/3 37/46/3
f 58/47/2 42/48/2 43/49/2
f 53/50/4 37/51/4 38/52/4
f 59/53/4 43/54/4 44/55/4
f 54/56/2 38/57/2 39/58/2
f 47/59/4 31/60/4 32/61/4
f 60/62/2 44/63/2 45/64/2
f 48/65/2 32/66/2 33/67/2
f 55/68/2 39/58/2 40/69/2
f 49/70/4 33/71/4 34/72/4
f 50/73/3 34/74/3 35/75/3
f 56/76/2 40/69/2 41/77/2
f 51/78/4 35/79/4 36/80/4
f 13/81/5 42/82/5 12/83/5
f 32/84/5 1/85/5 2/86/5
f 25/87/6 56/88/6 26/89/6
f 44/90/5 13/81/5 14/91/5
f 31/92/2 16/93/2 1/94/2
f 3/95/5 32/84/5 2/86/5
f 26/89/6 57/96/6 27/97/6
f 15/98/5 44/90/5 14/91/5
f 60/99/4 15/100/4 30/101/4
f 34/102/5 3/95/5 4/103/5
f 57/96/6 28/104/6 27/97/6
f 16/105/6 47/106/6 17/107/6
f 35/108/5 4/103/5 5/109/5
f 28/104/6 59/110/6 29/111/6
f 47/106/6 18/112/6 17/107/6
f 6/113/5 35/108/5 5/109/5
f 59/110/6 30/114/6 29/111/6
f 48/115/6 19/116/6 18/112/6
f 37/117/5 6/113/5 7/118/5
f 19/116/6 50/119/6 20/120/6
f 38/121/5 7/118/5 8/122/5
f 50/119/6 21/123/6 20/120/6
f 9/124/5 38/121/5 8/122/5
f 21/123/6 52/125/6 22/126/6
f 52/125/6 23/127/6 22/126/6
f 40/128/5 9/124/5 10/129/5
f 53/130/6 24/131/6 23/127/6
f 41/132/5 10/129/5 11/133/5
f 24/131/6 55/134/6 25/87/6
f 42/82/5 11/133/5 12/83/5
f 11/1/1 26/135/1 27/2/1
f 6/4/2 21/136/2 22/5/2
f 12/7/3 27/137/3 28/8/3
f 7/10/1 22/138/1 23/11/1
f 13/13/1 28/139/1 29/14/1
f 8/16/3 23/140/3 24/17/3
f 1/19/1 16/141/1 17/20/1
f 14/22/3 29/142/3 30/23/3
f 2/25/3 17/143/3 18/26/3
f 9/18/3 24/17/3 25/28/3
f 3/30/1 18/144/1 19/31/1
f 4/33/2 19/145/2 20/34/2
f 10/29/3 25/28/3 26/36/3
f 5/38/1 20/146/1 21/39/1
f 57/41/4 56/147/4 41/42/4
f 52/44/3 51/148/3 36/45/3
f 58/47/2 57/149/2 42/48/2
f 53/50/4 52/150/4 37/51/4
f 59/53/4 58/151/4 43/54/4
f 54/56/2 53/152/2 38/57/2
f 47/59/4 46/153/4 31/60/4
f 60/62/2 59/154/2 44/63/2
f 48/65/2 47/155/2 32/66/2
f 55/68/2 54/56/2 39/58/2
f 49/70/4 48/156/4 33/71/4
f 50/73/3 49/157/3 34/74/3
f 56/76/2 55/68/2 40/69/2
f 51/78/4 50/158/4 35/79/4
f 13/81/5 43/159/5 42/82/5
f 32/84/5 31/160/5 1/85/5
f 25/87/6 55/134/6 56/88/6
f 44/90/5 43/159/5 13/81/5
f 31/92/2 46/161/2 16/93/2
f 3/95/5 33/162/5 32/84/5
f 26/89/6 56/88/6 57/96/6
f 15/98/5 45/163/5 44/90/5
f 60/99/4 45/164/4 15/100/4
f 34/102/5 33/162/5 3/95/5
f 57/96/6 58/165/6 28/104/6
f 16/105/6 46/166/6 47/106/6
f 35/108/5 34/102/5 4/103/5
f 28/104/6 58/165/6 59/110/6
f 47/106/6 48/115/6 18/112/6
f 6/113/5 36/167/5 35/108/5
f 59/110/6 60/168/6 30/114/6
f 48/115/6 49/169/6 19/116/6
f 37/117/5 36/167/5 6/113/5
f 19/116/6 49/169/6 50/119/6
f 38/121/5 37/117/5 7/118/5
f 50/119/6 51/170/6 21/123/6
f 9/124/5 39/171/5 38/121/5
f 21/123/6 51/170/6 52/125/6
f 52/125/6 53/130/6 23/127/6
f 40/128/5 39/171/5 9/124/5
f 53/130/6 54/172/6 24/131/6
f 41/132/5 40/128/5 10/129/5
f 24/131/6 54/172/6 55/134/6
f 42/82/5 41/132/5 11/133/5
