# Blender v3.0.1 OBJ File: 'Main.blend'
# www.blender.org
o Cube.014_0192
v 1.387500 -0.354000 1.615375
v 1.372500 -0.339000 1.615500
v 1.387500 -0.354000 -0.895125
v 1.372500 -0.339000 -0.895500
v 1.747500 -0.354000 1.615500
v 1.762500 -0.339000 1.615500
v 1.762500 -0.345000 -0.895500
v 1.762500 -0.339000 -0.895500
v 1.399492 -0.354000 2.334898
v 1.384500 -0.339000 2.335500
v 1.747500 -0.354000 2.335500
v 1.762500 -0.339000 2.335500
v 1.420453 -0.354000 2.664277
v 1.405500 -0.339000 2.665500
v 1.747500 -0.354000 2.665500
v 1.762500 -0.339000 2.665500
v 1.450411 -0.354000 2.963860
v 1.435500 -0.339000 2.965500
v 1.747500 -0.354000 2.965500
v 1.762500 -0.339000 2.965500
v 1.486352 -0.354000 3.263372
v 1.471500 -0.339000 3.265500
v 1.747500 -0.354000 3.265500
v 1.762500 -0.339000 3.265500
v 1.546256 -0.354000 3.622795
v 1.531500 -0.339000 3.625500
v 1.747500 -0.354000 3.625949
v 1.762500 -0.339000 3.625500
v 1.576191 -0.354000 3.772470
v 1.561500 -0.339000 3.775500
v 1.756539 -0.354000 3.776603
v 1.771500 -0.339000 3.775500
v 1.627184 -0.354000 4.012434
v 1.612500 -0.339000 4.015500
v 1.777587 -0.354000 4.017146
v 1.792500 -0.339000 4.015500
v 1.648307 -0.354000 4.115410
v 1.636500 -0.339000 4.132500
v 1.787702 -0.354000 4.093007
v 1.804500 -0.339000 4.105500
v 1.399463 -0.354000 -1.134378
v 1.384500 -0.339000 -1.135500
v 1.762500 -0.345000 -1.135500
v 1.762500 -0.339000 -1.135500
v 1.423366 -0.354000 -1.373409
v 1.408500 -0.339000 -1.375500
v 1.762500 -0.345000 -1.375500
v 1.762500 -0.339000 -1.375500
v 1.483349 -0.354000 -1.703317
v 1.468500 -0.339000 -1.705500
v 1.762500 -0.345000 -1.705500
v 1.762500 -0.339000 -1.705500
v 1.510292 -0.354000 -1.942810
v 1.495500 -0.339000 -1.945500
v 1.762500 -0.345000 -1.945500
v 1.762500 -0.339000 -1.945500
v 1.636178 -0.354000 -2.440500
v 1.624500 -0.339000 -2.455500
v 1.732934 -0.354000 -2.440500
v 1.747500 -0.339000 -2.455500
v 1.372500 -0.345000 -0.895500
v 1.372500 -0.345000 1.615500
v 1.762500 -0.345000 1.615500
v 1.747500 -0.354000 -0.895500
v 1.762500 -0.345000 2.335500
v 1.384500 -0.345000 2.335500
v 1.762500 -0.345000 2.665500
v 1.405500 -0.345000 2.665500
v 1.762500 -0.345000 2.965500
v 1.435500 -0.345000 2.965500
v 1.762500 -0.345000 3.265500
v 1.471500 -0.345000 3.265500
v 1.762500 -0.345000 3.625500
v 1.531500 -0.345000 3.625500
v 1.771500 -0.345000 3.775500
v 1.561500 -0.345000 3.775500
v 1.612500 -0.345000 4.015500
v 1.792500 -0.345000 4.015500
v 1.636500 -0.345000 4.132500
v 1.804500 -0.345000 4.105500
v 1.747500 -0.354000 -1.135500
v 1.384500 -0.345000 -1.135500
v 1.747500 -0.354000 -1.375500
v 1.408500 -0.345000 -1.375500
v 1.468500 -0.345000 -1.705500
v 1.747500 -0.354000 -1.705500
v 1.495500 -0.345000 -1.945500
v 1.747500 -0.354000 -1.945279
v 1.747500 -0.345000 -2.455500
v 1.624500 -0.345000 -2.455500
v 1.387500 -0.390000 1.615375
v 1.387500 -0.390000 -0.895125
v 1.747500 -0.390000 1.615500
v 1.399492 -0.390000 2.334898
v 1.747500 -0.390000 2.335500
v 1.420453 -0.390000 2.664277
v 1.747500 -0.390000 2.665500
v 1.450411 -0.390000 2.963860
v 1.747500 -0.390000 2.965500
v 1.486352 -0.390000 3.263372
v 1.747500 -0.390000 3.265500
v 1.546256 -0.390000 3.622795
v 1.747500 -0.390000 3.625949
v 1.576191 -0.390000 3.772470
v 1.756539 -0.390000 3.776603
v 1.627184 -0.390000 4.012434
v 1.777587 -0.390000 4.017146
v 1.648307 -0.390000 4.115410
v 1.787702 -0.390000 4.093007
v 1.399463 -0.390000 -1.134378
v 1.423366 -0.390000 -1.373409
v 1.483349 -0.390000 -1.703317
v 1.510292 -0.390000 -1.942810
v 1.636178 -0.390000 -2.440500
v 1.732934 -0.390000 -2.440500
v 1.747500 -0.390000 -0.895500
v 1.747500 -0.390000 -1.135500
v 1.747500 -0.390000 -1.375500
v 1.747500 -0.390000 -1.705500
v 1.747500 -0.390000 -1.945279
vt 0.080446 0.745141
vt 0.080338 0.790439
vt 0.080338 0.745141
vt 0.061675 0.727751
vt 0.061783 0.723428
vt 0.061783 0.727751
vt 0.061675 0.773056
vt 0.345376 0.499341
vt 0.338468 0.486403
vt 0.345288 0.486357
vt 0.914188 0.548601
vt 0.913538 0.546054
vt 0.914188 0.546054
vt 0.338655 0.544708
vt 0.345693 0.544662
vt 0.338804 0.480446
vt 0.345246 0.480400
vt 0.061783 0.773056
vt 0.061675 0.786040
vt 0.080446 0.732150
vt 0.334236 0.815826
vt 0.333587 0.806913
vt 0.334236 0.806913
vt 0.329890 0.783726
vt 0.329241 0.770742
vt 0.329890 0.770742
vt 0.061783 0.786040
vt 0.061675 0.791997
vt 0.329890 0.814077
vt 0.329241 0.809724
vt 0.329890 0.809724
vt 0.080338 0.732150
vt 0.080446 0.726185
vt 0.329890 0.706496
vt 0.329241 0.697560
vt 0.329890 0.697560
vt 0.080338 0.726185
vt 0.080446 0.720762
vt 0.339308 0.475023
vt 0.345208 0.474993
vt 0.061783 0.791997
vt 0.061675 0.797405
vt 0.345170 0.469570
vt 0.340957 0.463109
vt 0.345124 0.463078
vt 0.080338 0.720762
vt 0.080446 0.715332
vt 0.339919 0.469616
vt 0.061783 0.797405
vt 0.061675 0.802827
vt 0.329241 0.725437
vt 0.329890 0.725437
vt 0.061783 0.802827
vt 0.061675 0.809319
vt 0.334236 0.703784
vt 0.333587 0.699431
vt 0.334236 0.699431
vt 0.080338 0.715332
vt 0.080446 0.708810
vt 0.080338 0.706091
vt 0.080446 0.701737
vt 0.080446 0.706091
vt 0.080338 0.708810
vt 0.341481 0.460390
vt 0.345269 0.460374
vt 0.061783 0.809319
vt 0.061675 0.812023
vt 0.345616 0.456036
vt 0.342787 0.453944
vt 0.345823 0.454417
vt 0.342370 0.456067
vt 0.061783 0.812023
vt 0.061675 0.816361
vt 0.690411 0.937980
vt 0.689762 0.936231
vt 0.690411 0.936231
vt 0.392566 0.931760
vt 0.392458 0.934831
vt 0.392458 0.931760
vt 0.061783 0.816361
vt 0.061675 0.817995
vt 0.334236 0.788072
vt 0.333587 0.742789
vt 0.334236 0.742789
vt 0.080338 0.701737
vt 0.080446 0.699614
vt 0.061675 0.723428
vt 0.061783 0.719090
vt 0.334236 0.706503
vt 0.333587 0.703784
vt 0.338899 0.549030
vt 0.080446 0.790439
vt 0.080338 0.794762
vt 0.329890 0.710834
vt 0.329241 0.706496
vt 0.329241 0.807005
vt 0.329890 0.807005
vt 0.345719 0.548985
vt 0.339365 0.553369
vt 0.080446 0.794762
vt 0.080338 0.799077
vt 0.345792 0.559280
vt 0.341003 0.563633
vt 0.340488 0.559311
vt 0.345750 0.553323
vt 0.080446 0.799077
vt 0.080338 0.805004
vt 0.061675 0.719090
vt 0.061783 0.713148
vt 0.061675 0.708810
vt 0.061783 0.699614
vt 0.061783 0.708810
vt 0.080446 0.805004
vt 0.080338 0.809319
vt 0.061675 0.713148
vt 0.333587 0.802606
vt 0.334236 0.802606
vt 0.942440 0.645600
vt 0.942332 0.647823
vt 0.942332 0.645600
vt 0.334236 0.713010
vt 0.333587 0.706503
vt 0.345823 0.563603
vt 0.343398 0.572829
vt 0.080446 0.809319
vt 0.080338 0.818454
vt 0.223748 0.636106
vt 0.223164 0.681404
vt 0.223481 0.636098
vt 0.230247 0.636144
vt 0.230202 0.681457
vt 0.229931 0.681450
vt 0.230114 0.694449
vt 0.229843 0.694441
vt 0.223561 0.694387
vt 0.223435 0.681404
vt 0.230072 0.700398
vt 0.229801 0.700398
vt 0.223630 0.700360
vt 0.223294 0.694403
vt 0.230034 0.705813
vt 0.229763 0.705813
vt 0.223897 0.700337
vt 0.224134 0.705775
vt 0.229995 0.711228
vt 0.229724 0.711228
vt 0.225012 0.711152
vt 0.224401 0.705744
vt 0.229950 0.717728
vt 0.229678 0.717728
vt 0.225783 0.717697
vt 0.224745 0.711190
vt 0.229824 0.720447
vt 0.230095 0.720431
vt 0.226047 0.717651
vt 0.226307 0.720408
vt 0.226570 0.720355
vt 0.227196 0.724739
vt 0.230442 0.724762
vt 0.230175 0.724792
vt 0.230347 0.726160
vt 0.227613 0.726855
vt 0.227830 0.726549
vt 0.230648 0.726389
vt 0.227460 0.724685
vt 0.230274 0.631813
vt 0.230519 0.636144
vt 0.223725 0.631768
vt 0.223996 0.631791
vt 0.230305 0.627483
vt 0.230545 0.631813
vt 0.224458 0.627475
vt 0.224191 0.627437
vt 0.225314 0.621495
vt 0.225581 0.621533
vt 0.230347 0.621526
vt 0.230576 0.627483
vt 0.226097 0.617218
vt 0.225829 0.617165
vt 0.230377 0.617203
vt 0.230618 0.621526
vt 0.230175 0.608259
vt 0.228224 0.607977
vt 0.230442 0.607992
vt 0.230648 0.617195
vt 0.228430 0.608252
vt 0.158501 0.642712
vt 0.164695 0.688064
vt 0.158199 0.688018
vt 0.158329 0.701001
vt 0.164569 0.707005
vt 0.159173 0.712358
vt 0.158669 0.706943
vt 0.164611 0.701055
vt 0.164534 0.712420
vt 0.159788 0.717766
vt 0.164454 0.724342
vt 0.161346 0.726961
vt 0.160823 0.724258
vt 0.164500 0.717835
vt 0.164599 0.727061
vt 0.162239 0.731299
vt 0.164951 0.731399
vt 0.162606 0.733163
vt 0.164997 0.642750
vt 0.158745 0.638397
vt 0.165027 0.638420
vt 0.165058 0.634089
vt 0.160330 0.628140
vt 0.165096 0.628132
vt 0.159207 0.634089
vt 0.160846 0.623825
vt 0.165126 0.623809
vt 0.163175 0.614858
vt 0.164920 0.614873
vt 0.333587 0.729805
vt 0.334236 0.729805
vt 0.329890 0.815452
vt 0.329241 0.814077
vt 0.329890 0.789683
vt 0.329241 0.783726
vt 0.333587 0.697560
vt 0.334236 0.697560
vt 0.333587 0.723856
vt 0.334236 0.723856
vt 0.329241 0.721114
vt 0.329890 0.721114
vt 0.329890 0.795091
vt 0.329241 0.789683
vt 0.334236 0.792379
vt 0.333587 0.788072
vt 0.333587 0.718433
vt 0.334236 0.718433
vt 0.329241 0.716776
vt 0.329890 0.716776
vt 0.329890 0.800513
vt 0.329241 0.795091
vt 0.334236 0.796679
vt 0.333587 0.792379
vt 0.333587 0.713010
vt 0.333587 0.796679
vt 0.329241 0.800513
vt 0.329241 0.710834
vt 0.338338 0.499402
vt 0.913538 0.548601
vt 0.333587 0.815826
vt 0.689762 0.937980
vt 0.392566 0.934831
vt 0.061783 0.817995
vt 0.080338 0.699614
vt 0.061675 0.699614
vt 0.942440 0.647823
vt 0.345616 0.572814
vt 0.080446 0.818454
vt 0.165126 0.732773
vt 0.329241 0.815452
vn -1.0000 0.0000 0.0000
vn 1.0000 0.0000 0.0000
vn 0.0000 1.0000 0.0000
vn 0.1587 0.0000 0.9873
vn -0.9999 0.0000 0.0167
vn -0.9695 0.0000 -0.2452
vn 0.9962 0.0000 -0.0872
vn -0.9980 0.0000 0.0635
vn 0.9996 0.0000 -0.0294
vn -0.9950 0.0000 0.0995
vn -0.9929 0.0000 0.1191
vn -0.9782 0.0000 0.2079
vn -0.9864 0.0000 0.1644
vn -0.9806 0.0000 0.1961
vn 0.9982 0.0000 -0.0599
vn 0.0000 0.0000 -1.0000
vn 0.9912 0.0000 -0.1322
vn -0.9796 0.0000 0.2009
vn -0.9988 0.0000 -0.0499
vn -0.9950 0.0000 -0.0995
vn -0.9839 0.0000 -0.1789
vn -0.9937 0.0000 -0.1118
vn -0.5145 -0.8575 0.0000
vn 0.5145 -0.8575 0.0000
vn -0.5144 -0.8575 0.0086
vn -0.5135 -0.8575 0.0327
vn -0.5119 -0.8575 0.0512
vn -0.5108 -0.8575 0.0613
vn -0.5075 -0.8575 0.0846
vn 0.5136 -0.8575 -0.0308
vn -0.5045 -0.8575 0.1009
vn -0.5033 -0.8575 0.1069
vn 0.5125 -0.8575 -0.0448
vn 0.0816 -0.8575 0.5080
vn 0.5100 -0.8575 -0.0680
vn -0.5040 -0.8575 0.1034
vn -0.5139 -0.8575 -0.0257
vn -0.5119 -0.8575 -0.0512
vn -0.5062 -0.8575 -0.0920
vn -0.5113 -0.8575 -0.0575
vn 0.0000 -0.8575 -0.5145
vn 0.5143 -0.8575 -0.0151
vn -0.4988 -0.8575 -0.1262
vn 0.0000 -1.0000 0.0000
s off
f 2/1/1 61/2/1 62/3/1
f 7/4/2 44/5/2 8/6/2
f 8/6/2 63/7/2 7/4/2
f 6/8/3 10/9/3 12/10/3
f 37/11/4 109/12/4 39/13/4
f 4/14/3 6/8/3 8/15/3
f 12/10/3 14/16/3 16/17/3
f 6/18/2 65/19/2 63/7/2
f 62/3/5 10/20/5 2/1/5
f 57/21/6 113/22/6 53/23/6
f 11/24/2 93/25/2 5/26/2
f 12/27/2 67/28/2 65/19/2
f 35/29/7 105/30/7 31/31/7
f 66/32/8 14/33/8 10/20/8
f 88/34/9 115/35/9 59/36/9
f 68/37/10 18/38/10 14/33/10
f 16/17/3 18/39/3 20/40/3
f 16/41/2 69/42/2 67/28/2
f 24/43/3 26/44/3 28/45/3
f 70/46/11 22/47/11 18/38/11
f 20/40/3 22/48/3 24/43/3
f 20/49/2 71/50/2 69/42/2
f 5/26/2 116/51/2 64/52/2
f 24/53/2 73/54/2 71/50/2
f 29/55/12 106/56/12 33/57/12
f 72/58/13 26/59/13 22/47/13
f 76/60/12 34/61/12 30/62/12
f 74/63/14 30/62/14 26/59/14
f 28/45/3 30/64/3 32/65/3
f 28/66/15 75/67/15 73/54/15
f 36/68/3 38/69/3 40/70/3
f 32/65/3 34/71/3 36/68/3
f 32/72/7 78/73/7 75/67/7
f 59/74/16 114/75/16 57/76/16
f 40/77/4 79/78/4 80/79/4
f 36/80/17 80/81/17 78/73/17
f 3/82/1 91/83/1 1/84/1
f 77/85/18 38/86/18 34/61/18
f 43/87/2 48/88/2 44/5/2
f 25/89/14 104/90/14 29/55/14
f 8/15/3 42/91/3 4/14/3
f 4/92/19 82/93/19 61/2/19
f 86/94/2 120/95/2 88/34/2
f 31/31/15 103/96/15 27/97/15
f 44/98/3 46/99/3 42/91/3
f 42/100/20 84/101/20 82/93/20
f 52/102/3 54/103/3 50/104/3
f 48/105/3 50/104/3 46/99/3
f 46/106/21 85/107/21 84/101/21
f 47/108/2 52/109/2 48/88/2
f 55/110/9 60/111/9 56/112/9
f 50/113/22 87/114/22 85/107/22
f 51/115/2 56/112/2 52/109/2
f 53/23/22 112/116/22 49/117/22
f 58/118/16 89/119/16 90/120/16
f 21/121/13 102/122/13 25/89/13
f 56/123/3 58/124/3 54/103/3
f 54/125/6 90/126/6 87/114/6
f 3/127/23 62/128/23 61/129/23
f 64/130/24 63/131/24 5/132/24
f 5/132/24 65/133/24 11/134/24
f 9/135/25 62/128/25 1/136/25
f 11/134/24 67/137/24 15/138/24
f 9/135/26 68/139/26 66/140/26
f 15/138/24 69/141/24 19/142/24
f 13/143/27 70/144/27 68/139/27
f 19/142/24 71/145/24 23/146/24
f 21/147/28 70/144/28 17/148/28
f 23/146/24 73/149/24 27/150/24
f 21/147/29 74/151/29 72/152/29
f 31/153/30 73/149/30 75/154/30
f 25/155/31 76/156/31 74/151/31
f 29/157/32 77/158/32 76/156/32
f 31/153/33 78/159/33 35/160/33
f 39/161/34 79/162/34 37/163/34
f 39/161/35 78/159/35 80/164/35
f 37/163/36 77/158/36 33/165/36
f 81/166/24 7/167/24 64/130/24
f 3/127/37 82/168/37 41/169/37
f 83/170/24 43/171/24 81/166/24
f 45/172/38 82/168/38 84/173/38
f 45/172/39 85/174/39 49/175/39
f 86/176/24 47/177/24 83/170/24
f 53/178/40 85/174/40 87/179/40
f 88/180/24 51/181/24 86/176/24
f 59/182/41 90/183/41 89/184/41
f 59/182/42 55/185/42 88/180/42
f 57/186/43 87/179/43 90/183/43
f 92/187/44 93/188/44 91/189/44
f 93/188/44 94/190/44 91/189/44
f 97/191/44 98/192/44 96/193/44
f 95/194/44 96/193/44 94/190/44
f 99/195/44 100/196/44 98/192/44
f 103/197/44 104/198/44 102/199/44
f 101/200/44 102/199/44 100/196/44
f 105/201/44 106/202/44 104/198/44
f 107/203/44 108/204/44 106/202/44
f 116/205/44 110/206/44 117/207/44
f 118/208/44 112/209/44 119/210/44
f 117/207/44 111/211/44 118/208/44
f 119/210/44 113/212/44 120/213/44
f 120/213/44 114/214/44 115/215/44
f 1/84/5 94/216/5 9/217/5
f 39/218/17 107/219/17 35/29/17
f 15/220/2 95/221/2 11/24/2
f 33/57/18 108/222/18 37/223/18
f 9/217/8 96/224/8 13/225/8
f 64/52/2 117/226/2 81/227/2
f 19/228/2 97/229/2 15/220/2
f 41/230/19 92/231/19 3/82/19
f 13/225/10 98/232/10 17/233/10
f 81/227/2 118/234/2 83/235/2
f 23/236/2 99/237/2 19/228/2
f 45/238/20 110/239/20 41/230/20
f 17/233/11 100/240/11 21/121/11
f 49/117/21 111/241/21 45/238/21
f 27/97/2 101/242/2 23/236/2
f 83/235/2 119/243/2 86/94/2
f 2/1/1 4/92/1 61/2/1
f 7/4/2 43/87/2 44/5/2
f 8/6/2 6/18/2 63/7/2
f 6/8/3 2/244/3 10/9/3
f 37/11/4 108/245/4 109/12/4
f 4/14/3 2/244/3 6/8/3
f 12/10/3 10/9/3 14/16/3
f 6/18/2 12/27/2 65/19/2
f 62/3/5 66/32/5 10/20/5
f 57/21/6 114/246/6 113/22/6
f 11/24/2 95/221/2 93/25/2
f 12/27/2 16/41/2 67/28/2
f 35/29/7 107/219/7 105/30/7
f 66/32/8 68/37/8 14/33/8
f 88/34/9 120/95/9 115/35/9
f 68/37/10 70/46/10 18/38/10
f 16/17/3 14/16/3 18/39/3
f 16/41/2 20/49/2 69/42/2
f 24/43/3 22/48/3 26/44/3
f 70/46/11 72/58/11 22/47/11
f 20/40/3 18/39/3 22/48/3
f 20/49/2 24/53/2 71/50/2
f 5/26/2 93/25/2 116/51/2
f 24/53/2 28/66/2 73/54/2
f 29/55/12 104/90/12 106/56/12
f 72/58/13 74/63/13 26/59/13
f 76/60/12 77/85/12 34/61/12
f 74/63/14 76/60/14 30/62/14
f 28/45/3 26/44/3 30/64/3
f 28/66/15 32/72/15 75/67/15
f 36/68/3 34/71/3 38/69/3
f 32/65/3 30/64/3 34/71/3
f 32/72/7 36/80/7 78/73/7
f 59/74/16 115/247/16 114/75/16
f 40/77/4 38/248/4 79/78/4
f 36/80/17 40/249/17 80/81/17
f 3/82/1 92/231/1 91/83/1
f 77/85/18 79/250/18 38/86/18
f 43/87/2 47/108/2 48/88/2
f 25/89/14 102/122/14 104/90/14
f 8/15/3 44/98/3 42/91/3
f 4/92/19 42/100/19 82/93/19
f 86/94/2 119/243/2 120/95/2
f 31/31/15 105/30/15 103/96/15
f 44/98/3 48/105/3 46/99/3
f 42/100/20 46/106/20 84/101/20
f 52/102/3 56/123/3 54/103/3
f 48/105/3 52/102/3 50/104/3
f 46/106/21 50/113/21 85/107/21
f 47/108/2 51/115/2 52/109/2
f 55/110/9 89/251/9 60/111/9
f 50/113/22 54/125/22 87/114/22
f 51/115/2 55/110/2 56/112/2
f 53/23/22 113/22/22 112/116/22
f 58/118/16 60/252/16 89/119/16
f 21/121/13 100/240/13 102/122/13
f 56/123/3 60/253/3 58/124/3
f 54/125/6 58/254/6 90/126/6
f 3/127/23 1/136/23 62/128/23
f 64/130/24 7/167/24 63/131/24
f 5/132/24 63/131/24 65/133/24
f 9/135/25 66/140/25 62/128/25
f 11/134/24 65/133/24 67/137/24
f 9/135/26 13/143/26 68/139/26
f 15/138/24 67/137/24 69/141/24
f 13/143/27 17/148/27 70/144/27
f 19/142/24 69/141/24 71/145/24
f 21/147/28 72/152/28 70/144/28
f 23/146/24 71/145/24 73/149/24
f 21/147/29 25/155/29 74/151/29
f 31/153/30 27/150/30 73/149/30
f 25/155/31 29/157/31 76/156/31
f 29/157/32 33/165/32 77/158/32
f 31/153/33 75/154/33 78/159/33
f 39/161/34 80/164/34 79/162/34
f 39/161/35 35/160/35 78/159/35
f 37/163/36 79/162/36 77/158/36
f 81/166/24 43/171/24 7/167/24
f 3/127/37 61/129/37 82/168/37
f 83/170/24 47/177/24 43/171/24
f 45/172/38 41/169/38 82/168/38
f 45/172/39 84/173/39 85/174/39
f 86/176/24 51/181/24 47/177/24
f 53/178/40 49/175/40 85/174/40
f 88/180/24 55/185/24 51/181/24
f 59/182/41 57/186/41 90/183/41
f 59/182/42 89/184/42 55/185/42
f 57/186/43 53/178/43 87/179/43
f 92/187/44 116/205/44 93/188/44
f 93/188/44 95/194/44 94/190/44
f 97/191/44 99/195/44 98/192/44
f 95/194/44 97/191/44 96/193/44
f 99/195/44 101/200/44 100/196/44
f 103/197/44 105/201/44 104/198/44
f 101/200/44 103/197/44 102/199/44
f 105/201/44 107/203/44 106/202/44
f 107/203/44 109/255/44 108/204/44
f 116/205/44 92/187/44 110/206/44
f 118/208/44 111/211/44 112/209/44
f 117/207/44 110/206/44 111/211/44
f 119/210/44 112/209/44 113/212/44
f 120/213/44 113/212/44 114/214/44
f 1/84/5 91/83/5 94/216/5
f 39/218/17 109/256/17 107/219/17
f 15/220/2 97/229/2 95/221/2
f 33/57/18 106/56/18 108/222/18
f 9/217/8 94/216/8 96/224/8
f 64/52/2 116/51/2 117/226/2
f 19/228/2 99/237/2 97/229/2
f 41/230/19 110/239/19 92/231/19
f 13/225/10 96/224/10 98/232/10
f 81/227/2 117/226/2 118/234/2
f 23/236/2 101/242/2 99/237/2
f 45/238/20 111/241/20 110/239/20
f 17/233/11 98/232/11 100/240/11
f 49/117/21 112/116/21 111/241/21
f 27/97/2 103/96/2 101/242/2
f 83/235/2 118/234/2 119/243/2
