# Blender v3.0.1 OBJ File: 'Main.blend'
# www.blender.org
o Cube.5420_0118
v -1.404001 -0.123000 1.314000
v -1.404001 0.366000 1.314000
v -1.404001 0.366000 2.874000
v -1.441501 -0.123000 1.314000
v -1.441501 0.366000 1.314000
v -1.441501 0.366000 2.874000
v -1.404001 -0.123000 1.323000
v -1.404001 -0.004581 2.874000
v -1.441501 -0.123000 1.323000
v -1.441501 -0.004581 2.874000
v -1.441501 0.186000 1.629000
v -1.404001 0.186000 1.629000
v -1.441501 0.066000 1.989000
v -1.404001 0.066000 1.989000
v -1.404001 0.066000 1.629000
v -1.441501 0.066000 1.629000
v -1.404001 0.186000 2.394000
v -1.441501 0.186000 2.394000
v -1.441501 0.066000 1.584000
v -1.404001 0.066000 1.584000
v -1.404001 0.186000 2.169000
v -1.404001 0.066000 2.034000
v -1.441501 0.066000 2.034000
v -1.404001 0.186000 1.989000
v -1.441501 0.186000 2.439000
v -1.404001 0.186000 2.439000
v -1.404001 0.186000 2.034000
v -1.404001 0.186000 2.124000
v -1.441501 0.186000 1.989000
v -1.404001 0.066000 1.899000
v -1.404001 0.066000 1.854000
v -1.404001 0.186000 1.899000
v -1.404001 0.066000 1.764000
v -1.404001 0.066000 1.719000
v -1.404001 0.186000 1.584000
v -1.441501 0.186000 1.584000
v -1.404001 0.186000 1.764000
v -1.404001 0.186000 1.854000
v -1.404001 0.186000 1.719000
v -1.404001 0.066000 1.494000
v -1.404001 0.186000 1.494000
v -1.404001 0.066000 1.359000
v -1.404001 0.066000 1.449000
v -1.441501 0.186000 2.034000
v -1.404001 0.186000 1.359000
v -1.404001 0.186000 2.529000
v -1.404001 0.186000 1.449000
v -1.441501 0.186000 2.529000
v -1.404001 0.186000 1.314000
v -1.404001 0.066000 1.314000
v -1.441501 0.186000 2.124000
v -1.441501 0.066000 2.529000
v -1.404001 0.066000 2.529000
v -1.441501 0.186000 1.719000
v -1.404001 0.066000 2.124000
v -1.441501 0.066000 2.124000
v -1.441501 0.186000 2.574000
v -1.404001 0.186000 2.574000
v -1.441501 0.066000 1.719000
v -1.441501 0.186000 2.169000
v -1.441501 0.186000 1.764000
v -1.404001 0.066000 2.169000
v -1.441501 0.066000 2.169000
v -1.441501 0.066000 1.764000
v -1.441501 0.066000 2.574000
v -1.404001 0.066000 2.574000
v -1.404001 0.066000 2.844000
v -1.404001 0.186000 2.844000
v -1.404001 0.066000 2.709000
v -1.404001 0.066000 2.799000
v -1.404001 0.186000 2.709000
v -1.404001 0.186000 2.799000
v -1.404001 0.186000 2.259000
v -1.441501 0.186000 2.259000
v -1.404001 0.066000 2.664000
v -1.404001 0.186000 2.664000
v -1.404001 0.066000 2.439000
v -1.441501 0.066000 2.259000
v -1.404001 0.066000 2.259000
v -1.441501 0.186000 1.854000
v -1.404001 0.066000 2.394000
v -1.441501 0.186000 2.304000
v -1.404001 0.186000 2.304000
v -1.404001 0.066000 2.304000
v -1.441501 0.066000 1.854000
v -1.441501 0.066000 2.304000
v -1.441501 0.186000 2.664000
v -1.441501 0.186000 1.899000
v -1.441501 0.066000 2.664000
v -1.441501 0.066000 1.899000
v -1.441501 0.186000 2.709000
v -1.441501 0.066000 2.709000
v -1.441501 0.066000 2.844000
v -1.441501 0.066000 2.799000
v -1.441501 0.066000 2.394000
v -1.441501 0.186000 2.844000
v -1.441501 0.186000 2.799000
v -1.441501 0.066000 2.439000
v -1.441501 0.186000 1.314000
v -1.441501 0.066000 1.314000
v -1.441501 0.066000 1.494000
v -1.441501 0.066000 1.449000
v -1.441501 0.186000 1.494000
v -1.441501 0.186000 1.359000
v -1.441501 0.186000 1.449000
v -1.441501 0.066000 1.359000
vt 0.585088 0.752032
vt 0.586361 0.751482
vt 0.588526 0.751482
vt 0.586361 0.738498
vt 0.586361 0.739308
vt 0.582951 0.724048
vt 0.508036 0.751818
vt 0.504788 0.743699
vt 0.504788 0.742073
vt 0.502622 0.743699
vt 0.502622 0.744509
vt 0.499212 0.751658
vt 0.325714 0.896088
vt 0.326391 0.902775
vt 0.325714 0.902775
vt 0.110669 0.852026
vt 0.109992 0.823875
vt 0.110669 0.823875
vt 0.378241 0.892100
vt 0.377564 0.883276
vt 0.378241 0.883276
vt 0.837791 0.850218
vt 0.838467 0.850058
vt 0.838467 0.850218
vt 0.837791 0.822059
vt 0.837791 0.850058
vt 0.712729 0.934941
vt 0.713405 0.932775
vt 0.713405 0.934941
vt 0.434368 0.932279
vt 0.433691 0.934445
vt 0.433691 0.932279
vt 0.533815 0.955215
vt 0.533138 0.954398
vt 0.533815 0.954398
vt 0.952198 0.135393
vt 0.952875 0.136210
vt 0.952198 0.136210
vt 0.934219 0.357464
vt 0.934896 0.355298
vt 0.934896 0.357464
vt 0.122719 0.932310
vt 0.122042 0.934476
vt 0.122042 0.932310
vt 0.949952 0.762572
vt 0.949275 0.761755
vt 0.949952 0.761755
vt 0.433691 0.954769
vt 0.434368 0.953952
vt 0.434368 0.954769
vt 0.749565 0.934373
vt 0.748888 0.932208
vt 0.749565 0.932208
vt 0.622506 0.934849
vt 0.623183 0.932683
vt 0.623183 0.934849
vt 0.194394 0.954045
vt 0.195071 0.954862
vt 0.194394 0.954862
vt 0.739408 0.954736
vt 0.740085 0.953919
vt 0.740085 0.954736
vt 0.694191 0.935026
vt 0.694867 0.932860
vt 0.694867 0.935026
vt 0.745191 0.932208
vt 0.744514 0.934373
vt 0.744514 0.932208
vt 0.949822 0.242435
vt 0.949145 0.241618
vt 0.949822 0.241618
vt 0.953186 0.051660
vt 0.952509 0.052477
vt 0.952509 0.051660
vt 0.739655 0.934412
vt 0.740332 0.932247
vt 0.740332 0.934412
vt 0.322017 0.932398
vt 0.321340 0.934564
vt 0.321340 0.932398
vt 0.646884 0.954908
vt 0.646208 0.954091
vt 0.646884 0.954091
vt 0.953518 0.242435
vt 0.954195 0.241618
vt 0.954195 0.242435
vt 0.452117 0.934332
vt 0.452794 0.932166
vt 0.452794 0.934332
vt 0.117645 0.934989
vt 0.118322 0.932824
vt 0.118322 0.934989
vt 0.948501 0.136210
vt 0.947824 0.135393
vt 0.948501 0.135393
vt 0.953649 0.762572
vt 0.954325 0.761754
vt 0.954325 0.762572
vt 0.184849 0.935414
vt 0.185526 0.933249
vt 0.185526 0.935414
vt 0.934736 0.169868
vt 0.935413 0.167703
vt 0.935413 0.169868
vt 0.950236 0.457491
vt 0.950913 0.456674
vt 0.950913 0.457491
vt 0.072180 0.954938
vt 0.072857 0.954121
vt 0.072857 0.954938
vt 0.317479 0.932616
vt 0.316802 0.934781
vt 0.316802 0.932616
vt 0.564484 0.935325
vt 0.565161 0.933160
vt 0.565161 0.935325
vt 0.240140 0.954936
vt 0.239463 0.954118
vt 0.240140 0.954118
vt 0.321817 0.954383
vt 0.321140 0.955201
vt 0.321140 0.954383
vt 0.717779 0.934941
vt 0.717102 0.932775
vt 0.717779 0.932775
vt 0.306936 0.932519
vt 0.306259 0.934685
vt 0.306259 0.932519
vt 0.583418 0.955188
vt 0.582741 0.954371
vt 0.583418 0.954371
vt 0.954610 0.457491
vt 0.955287 0.456674
vt 0.955287 0.457491
vt 0.072938 0.932475
vt 0.072261 0.934640
vt 0.072261 0.932475
vt 0.934902 0.229483
vt 0.934226 0.231649
vt 0.934226 0.229483
vt 0.122177 0.954831
vt 0.122854 0.954014
vt 0.122854 0.954831
vt 0.952174 0.008774
vt 0.951497 0.009591
vt 0.951497 0.008774
vt 0.651383 0.935015
vt 0.652060 0.932850
vt 0.652060 0.935015
vt 0.082537 0.933230
vt 0.081860 0.935395
vt 0.081860 0.933230
vt 0.904235 0.955012
vt 0.903558 0.954195
vt 0.904235 0.954195
vt 0.881579 0.954883
vt 0.882255 0.954066
vt 0.882255 0.954883
vt 0.174174 0.935418
vt 0.174851 0.933253
vt 0.174851 0.935418
vt 0.107582 0.932494
vt 0.106906 0.934660
vt 0.106906 0.932494
vt 0.442643 0.955363
vt 0.441966 0.954553
vt 0.442643 0.954553
vt 0.446428 0.955364
vt 0.447105 0.954554
vt 0.447105 0.955364
vt 0.588526 0.736879
vt 0.588526 0.736054
vt 0.591774 0.723880
vt 0.588526 0.734435
vt 0.588526 0.733626
vt 0.586361 0.733626
vt 0.586361 0.732007
vt 0.588526 0.732007
vt 0.588526 0.731182
vt 0.586361 0.731182
vt 0.586361 0.729563
vt 0.588526 0.729563
vt 0.588526 0.728753
vt 0.586361 0.736879
vt 0.588526 0.738498
vt 0.586361 0.740927
vt 0.588526 0.739308
vt 0.588526 0.740927
vt 0.591774 0.752032
vt 0.588526 0.741752
vt 0.586361 0.728753
vt 0.586361 0.727134
vt 0.588526 0.727134
vt 0.588526 0.726309
vt 0.586361 0.726309
vt 0.586361 0.724690
vt 0.588526 0.724690
vt 0.588526 0.723880
vt 0.586361 0.743371
vt 0.586361 0.741752
vt 0.588526 0.743371
vt 0.588526 0.746610
vt 0.588526 0.745800
vt 0.588526 0.744181
vt 0.588526 0.748244
vt 0.588526 0.750673
vt 0.588526 0.749053
vt 0.586361 0.723880
vt 0.582951 0.723880
vt 0.586361 0.750673
vt 0.586361 0.749053
vt 0.586361 0.748244
vt 0.586361 0.746610
vt 0.586361 0.745800
vt 0.586361 0.734435
vt 0.586361 0.744181
vt 0.586361 0.736054
vt 0.504788 0.732327
vt 0.504788 0.731518
vt 0.508036 0.723666
vt 0.504788 0.729891
vt 0.504788 0.733954
vt 0.504788 0.729081
vt 0.504788 0.727454
vt 0.504788 0.726645
vt 0.502622 0.726645
vt 0.502622 0.725018
vt 0.504788 0.725018
vt 0.504788 0.724208
vt 0.502622 0.724208
vt 0.501349 0.723666
vt 0.504788 0.737200
vt 0.499212 0.751818
vt 0.502622 0.751818
vt 0.504788 0.751818
vt 0.504788 0.751001
vt 0.504788 0.749382
vt 0.504788 0.734764
vt 0.502622 0.733954
vt 0.502622 0.732327
vt 0.504788 0.748572
vt 0.502622 0.748572
vt 0.502622 0.746945
vt 0.504788 0.736390
vt 0.502622 0.736390
vt 0.502622 0.734764
vt 0.504788 0.746945
vt 0.502622 0.738827
vt 0.502622 0.737200
vt 0.504788 0.738827
vt 0.504788 0.746136
vt 0.502622 0.746136
vt 0.504788 0.741263
vt 0.504788 0.739636
vt 0.504788 0.744509
vt 0.502622 0.742073
vt 0.502622 0.729891
vt 0.502622 0.731518
vt 0.502622 0.729081
vt 0.502622 0.727454
vt 0.502622 0.739636
vt 0.502622 0.751001
vt 0.502622 0.749382
vt 0.502622 0.741263
vt 0.326391 0.896088
vt 0.109992 0.852026
vt 0.377564 0.892100
vt 0.838467 0.822059
vt 0.712729 0.932775
vt 0.434368 0.934445
vt 0.533138 0.955215
vt 0.952875 0.135393
vt 0.934219 0.355298
vt 0.122719 0.934476
vt 0.949275 0.762572
vt 0.433691 0.953952
vt 0.748888 0.934373
vt 0.622506 0.932683
vt 0.195071 0.954045
vt 0.739408 0.953919
vt 0.694191 0.932860
vt 0.745191 0.934373
vt 0.949145 0.242435
vt 0.953186 0.052477
vt 0.739655 0.932247
vt 0.322017 0.934564
vt 0.646208 0.954908
vt 0.953518 0.241618
vt 0.452117 0.932166
vt 0.117645 0.932824
vt 0.947824 0.136210
vt 0.953649 0.761754
vt 0.184849 0.933249
vt 0.934736 0.167703
vt 0.950236 0.456674
vt 0.072180 0.954121
vt 0.317479 0.934781
vt 0.564484 0.933160
vt 0.239463 0.954936
vt 0.321817 0.955201
vt 0.717102 0.934941
vt 0.306936 0.934685
vt 0.582741 0.955188
vt 0.954610 0.456674
vt 0.072938 0.934640
vt 0.934902 0.231649
vt 0.122177 0.954014
vt 0.952174 0.009591
vt 0.651383 0.932850
vt 0.082537 0.935395
vt 0.903558 0.955012
vt 0.881579 0.954066
vt 0.174174 0.933253
vt 0.107582 0.934660
vt 0.441966 0.955363
vt 0.446428 0.954554
vn 1.0000 0.0000 0.0000
vn -1.0000 0.0000 0.0000
vn 0.0000 0.0000 1.0000
vn 0.0000 1.0000 0.0000
vn 0.0000 0.0000 -1.0000
vn 0.0000 -1.0000 0.0000
vn 0.0000 -0.9971 0.0761
s off
f 8/1/1 67/2/1 68/3/1
f 55/4/1 62/5/1 7/6/1
f 5/7/2 61/8/2 80/9/2
f 64/10/2 59/11/2 9/12/2
f 3/13/3 10/14/3 8/15/3
f 2/16/4 6/17/4 3/18/4
f 1/19/5 5/20/5 2/21/5
f 1/22/6 9/23/6 4/24/6
f 8/25/7 9/23/7 7/26/7
f 50/27/3 99/28/3 100/29/3
f 45/30/5 106/31/5 104/32/5
f 50/33/4 106/34/4 42/35/4
f 45/36/6 99/37/6 49/38/6
f 43/39/3 105/40/3 102/41/3
f 41/42/5 101/43/5 103/44/5
f 43/45/4 101/46/4 40/47/4
f 47/48/6 103/49/6 105/50/6
f 19/51/3 35/52/3 36/53/3
f 16/54/5 12/55/5 15/56/5
f 16/57/4 20/58/4 19/59/4
f 35/60/6 11/61/6 36/62/6
f 34/63/3 54/64/3 59/65/3
f 37/66/5 64/67/5 61/68/5
f 34/69/4 64/70/4 33/71/4
f 61/72/6 39/73/6 37/74/6
f 31/75/3 80/76/3 85/77/3
f 32/78/5 90/79/5 88/80/5
f 31/81/4 90/82/4 30/83/4
f 38/84/6 88/85/6 80/86/6
f 14/87/3 29/88/3 13/89/3
f 23/90/5 27/91/5 22/92/5
f 14/93/4 23/94/4 22/95/4
f 24/96/6 44/97/6 29/98/6
f 55/99/3 51/100/3 56/101/3
f 63/102/5 21/103/5 62/104/5
f 56/105/4 62/106/4 55/107/4
f 28/108/6 60/109/6 51/110/6
f 74/111/3 79/112/3 73/113/3
f 86/114/5 83/115/5 84/116/5
f 79/117/4 86/118/4 84/119/4
f 82/120/6 73/121/6 83/122/6
f 95/123/3 17/124/3 18/125/3
f 26/126/5 98/127/5 25/128/5
f 81/129/4 98/130/4 77/131/4
f 17/132/6 25/133/6 18/134/6
f 48/135/3 53/136/3 46/137/3
f 58/138/5 65/139/5 57/140/5
f 52/141/4 66/142/4 53/143/4
f 57/144/6 46/145/6 58/146/6
f 75/147/3 87/148/3 89/149/3
f 71/150/5 92/151/5 91/152/5
f 75/153/4 92/154/4 69/155/4
f 76/156/6 91/157/6 87/158/6
f 70/159/3 97/160/3 94/161/3
f 68/162/5 93/163/5 96/164/5
f 70/165/4 93/166/4 67/167/4
f 72/168/6 96/169/6 97/170/6
f 27/171/1 24/172/1 2/173/1
f 24/172/1 32/174/1 2/173/1
f 38/175/1 31/176/1 33/177/1
f 32/174/1 38/175/1 2/173/1
f 38/175/1 33/177/1 37/178/1
f 39/179/1 34/180/1 15/181/1
f 38/175/1 37/178/1 2/173/1
f 39/179/1 15/181/1 12/182/1
f 37/178/1 39/179/1 2/173/1
f 39/179/1 12/182/1 2/173/1
f 12/182/1 35/183/1 2/173/1
f 55/4/1 22/184/1 27/171/1
f 28/185/1 55/4/1 27/171/1
f 79/186/1 62/5/1 21/187/1
f 28/185/1 27/171/1 2/173/1
f 73/188/1 79/186/1 21/187/1
f 21/187/1 28/185/1 3/189/1
f 83/190/1 73/188/1 3/189/1
f 73/188/1 21/187/1 3/189/1
f 35/183/1 20/191/1 40/192/1
f 28/185/1 2/173/1 3/189/1
f 35/183/1 40/192/1 41/193/1
f 47/194/1 43/195/1 42/196/1
f 35/183/1 41/193/1 2/173/1
f 47/194/1 42/196/1 45/197/1
f 41/193/1 47/194/1 2/173/1
f 47/194/1 45/197/1 2/173/1
f 45/197/1 49/198/1 2/173/1
f 81/199/1 84/200/1 83/190/1
f 17/201/1 81/199/1 83/190/1
f 58/202/1 46/203/1 3/189/1
f 46/203/1 26/204/1 3/189/1
f 3/189/1 26/204/1 17/201/1
f 17/201/1 83/190/1 3/189/1
f 76/205/1 58/202/1 3/189/1
f 72/206/1 71/207/1 3/189/1
f 71/207/1 76/205/1 3/189/1
f 68/3/1 72/206/1 3/189/1
f 49/198/3 50/208/3 2/173/3
f 50/208/1 1/209/1 2/173/1
f 3/189/1 8/1/1 68/3/1
f 70/210/1 67/2/1 8/1/1
f 8/1/1 7/6/1 84/200/1
f 7/6/1 1/209/1 50/208/1
f 84/200/1 7/6/1 79/186/1
f 50/208/1 42/196/1 7/6/1
f 43/195/1 40/192/1 7/6/1
f 40/192/1 20/191/1 7/6/1
f 43/195/1 7/6/1 42/196/1
f 70/210/1 8/1/1 69/211/1
f 69/211/1 8/1/1 75/212/1
f 71/207/1 72/206/1 70/210/1
f 69/211/1 71/207/1 70/210/1
f 15/181/1 34/180/1 7/6/1
f 34/180/1 33/177/1 7/6/1
f 15/181/1 7/6/1 20/191/1
f 75/212/1 8/1/1 66/213/1
f 58/202/1 76/205/1 75/212/1
f 66/213/1 8/1/1 53/214/1
f 33/177/1 31/176/1 7/6/1
f 31/176/1 30/215/1 7/6/1
f 66/213/1 58/202/1 75/212/1
f 26/204/1 46/203/1 53/214/1
f 53/214/1 8/1/1 77/216/1
f 77/216/1 26/204/1 53/214/1
f 77/216/1 8/1/1 81/199/1
f 30/215/1 32/174/1 24/172/1
f 14/217/1 22/184/1 7/6/1
f 22/184/1 55/4/1 7/6/1
f 14/217/1 7/6/1 30/215/1
f 30/215/1 24/172/1 14/217/1
f 81/199/1 8/1/1 84/200/1
f 79/186/1 7/6/1 62/5/1
f 18/218/2 25/219/2 6/220/2
f 25/219/2 48/221/2 6/220/2
f 18/218/2 6/220/2 82/222/2
f 57/223/2 87/224/2 6/220/2
f 87/224/2 91/225/2 6/220/2
f 57/223/2 6/220/2 48/221/2
f 91/225/2 92/226/2 94/227/2
f 91/225/2 94/227/2 97/228/2
f 96/229/2 93/230/2 10/231/2
f 91/225/2 97/228/2 6/220/2
f 96/229/2 10/231/2 6/220/2
f 97/228/2 96/229/2 6/220/2
f 6/220/2 5/7/2 51/232/2
f 5/7/2 4/233/2 100/234/2
f 99/235/2 104/236/2 5/7/2
f 104/236/2 105/237/2 5/7/2
f 5/7/3 100/234/3 99/235/3
f 82/222/2 6/220/2 74/238/2
f 86/239/2 95/240/2 18/218/2
f 82/222/2 86/239/2 18/218/2
f 103/241/2 101/242/2 19/243/2
f 5/7/2 105/237/2 103/241/2
f 74/238/2 6/220/2 60/244/2
f 63/245/2 78/246/2 74/238/2
f 60/244/2 6/220/2 51/232/2
f 103/241/2 19/243/2 36/247/2
f 60/244/2 63/245/2 74/238/2
f 23/248/2 56/249/2 51/232/2
f 44/250/2 23/248/2 51/232/2
f 5/7/2 103/241/2 36/247/2
f 11/251/2 16/252/2 59/11/2
f 5/7/2 36/247/2 11/251/2
f 44/250/2 51/232/2 5/7/2
f 80/9/2 88/253/2 5/7/2
f 88/253/2 29/254/2 5/7/2
f 29/254/2 44/250/2 5/7/2
f 11/251/2 59/11/2 54/255/2
f 64/10/2 85/256/2 80/9/2
f 11/251/2 54/255/2 5/7/2
f 54/255/2 61/8/2 5/7/2
f 61/8/2 64/10/2 80/9/2
f 52/257/2 48/221/2 25/219/2
f 98/258/2 95/240/2 10/231/2
f 95/240/2 86/239/2 10/231/2
f 52/257/2 25/219/2 98/258/2
f 87/224/2 57/223/2 65/259/2
f 52/257/2 98/258/2 10/231/2
f 89/260/2 87/224/2 65/259/2
f 86/239/2 78/246/2 10/231/2
f 92/226/2 89/260/2 10/231/2
f 89/260/2 65/259/2 10/231/2
f 78/246/2 63/245/2 9/12/2
f 10/231/2 78/246/2 9/12/2
f 94/227/2 92/226/2 10/231/2
f 63/245/2 56/249/2 9/12/2
f 93/230/2 94/227/2 10/231/2
f 56/249/2 23/248/2 9/12/2
f 23/248/2 13/261/2 9/12/2
f 10/231/2 65/259/2 52/257/2
f 4/233/2 9/12/2 100/234/2
f 106/262/2 100/234/2 9/12/2
f 105/237/2 104/236/2 106/262/2
f 19/243/2 101/242/2 9/12/2
f 101/242/2 102/263/2 9/12/2
f 102/263/2 105/237/2 106/262/2
f 106/262/2 9/12/2 102/263/2
f 9/12/2 13/261/2 90/264/2
f 13/261/2 29/254/2 88/253/2
f 90/264/2 85/256/2 9/12/2
f 85/256/2 64/10/2 9/12/2
f 13/261/2 88/253/2 90/264/2
f 59/11/2 16/252/2 9/12/2
f 16/252/2 19/243/2 9/12/2
f 3/13/3 6/265/3 10/14/3
f 2/16/4 5/266/4 6/17/4
f 1/19/5 4/267/5 5/20/5
f 1/22/6 7/26/6 9/23/6
f 8/25/7 10/268/7 9/23/7
f 50/27/3 49/269/3 99/28/3
f 45/30/5 42/270/5 106/31/5
f 50/33/4 100/271/4 106/34/4
f 45/36/6 104/272/6 99/37/6
f 43/39/3 47/273/3 105/40/3
f 41/42/5 40/274/5 101/43/5
f 43/45/4 102/275/4 101/46/4
f 47/48/6 41/276/6 103/49/6
f 19/51/3 20/277/3 35/52/3
f 16/54/5 11/278/5 12/55/5
f 16/57/4 15/279/4 20/58/4
f 35/60/6 12/280/6 11/61/6
f 34/63/3 39/281/3 54/64/3
f 37/66/5 33/282/5 64/67/5
f 34/69/4 59/283/4 64/70/4
f 61/72/6 54/284/6 39/73/6
f 31/75/3 38/285/3 80/76/3
f 32/78/5 30/286/5 90/79/5
f 31/81/4 85/287/4 90/82/4
f 38/84/6 32/288/6 88/85/6
f 14/87/3 24/289/3 29/88/3
f 23/90/5 44/290/5 27/91/5
f 14/93/4 13/291/4 23/94/4
f 24/96/6 27/292/6 44/97/6
f 55/99/3 28/293/3 51/100/3
f 63/102/5 60/294/5 21/103/5
f 56/105/4 63/295/4 62/106/4
f 28/108/6 21/296/6 60/109/6
f 74/111/3 78/297/3 79/112/3
f 86/114/5 82/298/5 83/115/5
f 79/117/4 78/299/4 86/118/4
f 82/120/6 74/300/6 73/121/6
f 95/123/3 81/301/3 17/124/3
f 26/126/5 77/302/5 98/127/5
f 81/129/4 95/303/4 98/130/4
f 17/132/6 26/304/6 25/133/6
f 48/135/3 52/305/3 53/136/3
f 58/138/5 66/306/5 65/139/5
f 52/141/4 65/307/4 66/142/4
f 57/144/6 48/308/6 46/145/6
f 75/147/3 76/309/3 87/148/3
f 71/150/5 69/310/5 92/151/5
f 75/153/4 89/311/4 92/154/4
f 76/156/6 71/312/6 91/157/6
f 70/159/3 72/313/3 97/160/3
f 68/162/5 67/314/5 93/163/5
f 70/165/4 94/315/4 93/166/4
f 72/168/6 68/316/6 96/169/6
