# Blender v3.0.1 OBJ File: 'Main.blend'
# www.blender.org
o Cube.2629_0332
v 0.187500 -0.210000 1.320000
v 0.187500 -0.231000 1.320000
v 0.187500 -0.231000 1.314000
v 0.187500 -0.210000 1.314000
v -0.175500 -0.210000 1.320000
v -0.175500 -0.231000 1.320000
v -0.175500 -0.231000 1.314000
v -0.175500 -0.210000 1.314000
vt 0.985464 0.790450
vt 0.985572 0.790071
vt 0.985572 0.790450
vt 0.985065 0.917070
vt 0.985173 0.917449
vt 0.985065 0.917449
vt 0.728611 0.907357
vt 0.728990 0.900805
vt 0.728990 0.907357
vt 0.442480 0.905498
vt 0.442372 0.912047
vt 0.442372 0.905498
vt 0.911938 0.615262
vt 0.912046 0.608709
vt 0.912046 0.615262
vt 0.519932 0.900996
vt 0.519553 0.907545
vt 0.519553 0.900996
vt 0.985464 0.790071
vt 0.985173 0.917070
vt 0.728611 0.900805
vt 0.442480 0.912047
vt 0.911938 0.608709
vt 0.519932 0.907545
vn 1.0000 0.0000 0.0000
vn -1.0000 0.0000 0.0000
vn 0.0000 0.0000 -1.0000
vn 0.0000 -1.0000 0.0000
vn 0.0000 1.0000 0.0000
vn 0.0000 0.0000 1.0000
s off
f 3/1/1 1/2/1 2/3/1
f 5/4/2 7/5/2 6/6/2
f 3/7/3 8/8/3 4/9/3
f 2/10/4 7/11/4 3/12/4
f 4/13/5 5/14/5 1/15/5
f 1/16/6 6/17/6 2/18/6
f 3/1/1 4/19/1 1/2/1
f 5/4/2 8/20/2 7/5/2
f 3/7/3 7/21/3 8/8/3
f 2/10/4 6/22/4 7/11/4
f 4/13/5 8/23/5 5/14/5
f 1/16/6 5/24/6 6/17/6
