# Blender v3.0.1 OBJ File: 'Main.blend'
# www.blender.org
o Cube.5133_0155
v -0.183000 0.663000 0.465000
v -0.183000 0.663000 2.937000
v -0.183000 0.657000 0.465000
v -0.183000 0.657000 2.937000
v 0.195000 0.663000 2.937000
v 0.195000 0.663000 0.465000
v 0.195000 0.657000 2.937000
v 0.195000 0.657000 0.465000
v 0.004501 0.723000 2.937000
v 0.004501 0.723000 0.465000
vt 0.842705 0.075348
vt 0.842597 0.030741
vt 0.842705 0.030741
vt 0.840836 0.635690
vt 0.840944 0.591079
vt 0.840944 0.635690
vt 0.686335 0.894916
vt 0.686226 0.894916
vt 0.685144 0.891479
vt 0.031650 0.744169
vt 0.038474 0.699563
vt 0.038474 0.744169
vt 0.494955 0.801187
vt 0.496147 0.797747
vt 0.496147 0.804571
vt 0.089226 0.744177
vt 0.092831 0.699566
vt 0.092831 0.744177
vt 0.095733 0.699566
vt 0.095733 0.744177
vt 0.842597 0.075348
vt 0.840836 0.591079
vt 0.686226 0.888096
vt 0.686335 0.888096
vt 0.031650 0.699563
vt 0.496038 0.804571
vt 0.496038 0.797747
vt 0.089226 0.699566
vn -1.0000 0.0000 0.0000
vn 1.0000 0.0000 0.0000
vn 0.0000 0.0000 1.0000
vn 0.0000 -1.0000 0.0000
vn 0.0000 0.0000 -1.0000
vn 0.3004 0.9538 0.0000
vn -0.3048 0.9524 0.0000
s off
f 1/1/1 4/2/1 2/3/1
f 7/4/2 6/5/2 5/6/2
f 7/7/3 5/8/3 9/9/3
f 8/10/4 4/11/4 3/12/4
f 10/13/5 8/14/5 3/15/5
f 5/16/6 10/17/6 9/18/6
f 9/18/7 1/19/7 2/20/7
f 1/1/1 3/21/1 4/2/1
f 7/4/2 8/22/2 6/5/2
f 2/23/3 4/24/3 9/9/3
f 4/24/3 7/7/3 9/9/3
f 8/10/4 7/25/4 4/11/4
f 3/15/5 1/26/5 10/13/5
f 10/13/5 6/27/5 8/14/5
f 5/16/6 6/28/6 10/17/6
f 9/18/7 10/17/7 1/19/7
