# Blender v3.0.1 OBJ File: 'Main.blend'
# www.blender.org
o Cube.3547_0274
v -2.181000 -0.012000 3.555000
v -2.181000 -0.012000 -3.411000
v -1.425000 -0.012000 -3.411000
v -2.181000 0.000000 3.555000
v -2.181000 0.000000 -3.411000
v -1.425000 0.000000 -3.411000
v -2.040000 -0.012000 3.555000
v -1.425000 -0.012000 -1.311000
v -1.872000 -0.012000 -1.311000
v -1.872000 0.000000 -1.311000
v -2.040000 0.000000 3.555000
v -1.425000 0.000000 -1.311000
v -1.872000 -0.012000 0.915000
v -1.872000 0.000000 0.915000
v -1.872000 -0.012000 3.555000
v -1.872000 0.000000 3.555000
vt 0.666007 0.614889
vt 0.666007 0.576991
vt 0.674073 0.576991
vt 0.112949 0.381540
vt 0.121015 0.419437
vt 0.107372 0.419437
vt 0.914687 0.576057
vt 0.914903 0.573513
vt 0.914903 0.576057
vt 0.847227 0.641880
vt 0.847444 0.679777
vt 0.847227 0.679777
vt 0.882160 0.464499
vt 0.881943 0.478142
vt 0.881943 0.464499
vt 0.389873 0.695473
vt 0.389656 0.821178
vt 0.389656 0.695473
vt 0.798986 0.426777
vt 0.799202 0.466942
vt 0.798986 0.466942
vt 0.902867 0.560436
vt 0.903084 0.552370
vt 0.903084 0.560436
vt 0.677105 0.489183
vt 0.674073 0.536826
vt 0.674073 0.489183
vt 0.799202 0.514585
vt 0.798986 0.514585
vt 0.914687 0.573513
vt 0.914903 0.570481
vt 0.112949 0.341374
vt 0.109917 0.293731
vt 0.112949 0.293731
vt 0.679649 0.489183
vt 0.679649 0.614889
vt 0.121015 0.381540
vt 0.107372 0.293731
vt 0.847444 0.641880
vt 0.882160 0.478142
vt 0.389873 0.821178
vt 0.799202 0.426777
vt 0.902867 0.552370
vt 0.914687 0.570481
vn 0.0000 -1.0000 0.0000
vn 0.0000 1.0000 0.0000
vn 0.0000 0.0000 1.0000
vn 1.0000 0.0000 0.0000
vn 0.0000 0.0000 -1.0000
vn -1.0000 0.0000 0.0000
s off
f 3/1/1 8/2/1 9/3/1
f 10/4/2 6/5/2 5/6/2
f 1/7/3 11/8/3 4/9/3
f 3/10/4 12/11/4 8/12/4
f 5/13/5 3/14/5 2/15/5
f 4/16/6 2/17/6 1/18/6
f 9/19/4 14/20/4 13/21/4
f 9/22/3 12/23/3 10/24/3
f 7/25/1 13/26/1 15/27/1
f 13/21/4 16/28/4 15/29/4
f 7/30/3 16/31/3 11/8/3
f 14/32/2 11/33/2 16/34/2
f 7/25/1 1/35/1 13/26/1
f 1/35/1 2/36/1 13/26/1
f 13/26/1 2/36/1 9/3/1
f 2/36/1 3/1/1 9/3/1
f 10/4/2 12/37/2 6/5/2
f 5/6/2 4/38/2 14/32/2
f 4/38/2 11/33/2 14/32/2
f 5/6/2 14/32/2 10/4/2
f 1/7/3 7/30/3 11/8/3
f 3/10/4 6/39/4 12/11/4
f 5/13/5 6/40/5 3/14/5
f 4/16/6 5/41/6 2/17/6
f 9/19/4 10/42/4 14/20/4
f 9/22/3 8/43/3 12/23/3
f 13/21/4 14/20/4 16/28/4
f 7/30/3 15/44/3 16/31/3
