# Blender v3.0.1 OBJ File: 'Main.blend'
# www.blender.org
o Cube.4819_0159
v -1.438170 0.000000 -1.314000
v -1.438170 0.477000 -1.314000
v -1.426170 0.000000 -1.314000
v -1.426170 0.477000 -1.314000
v -1.426170 0.000000 -1.065000
v -1.426170 0.477000 -1.065000
v -1.438170 0.477000 -1.065000
v -1.438170 0.000000 -1.065000
v -1.426170 0.060000 -1.128000
v -1.426170 0.237000 -1.128000
v -1.426170 0.259961 -1.132567
v -1.426170 0.248705 -1.129153
v -1.426170 0.279426 -1.145573
v -1.426170 0.292433 -1.165039
v -1.426170 0.286888 -1.154666
v -1.438170 0.295847 -1.176294
v -1.426170 0.295847 -1.176294
v -1.426170 0.270334 -1.138111
v -1.426170 0.297000 -1.188000
v -1.426170 0.295847 -1.199705
v -1.426170 0.292433 -1.210961
v -1.426170 0.279426 -1.230426
v -1.426170 0.259961 -1.243432
v -1.426170 0.270334 -1.237888
v -1.426170 0.237000 -1.248000
v -1.426170 0.060000 -1.248000
v -1.426170 0.248705 -1.246847
v -1.426170 0.286888 -1.221334
v -1.438170 0.292433 -1.165039
v -1.438170 0.060000 -1.128000
v -1.438170 0.286888 -1.154666
v -1.438170 0.279426 -1.145573
v -1.438170 0.270334 -1.138111
v -1.438170 0.237000 -1.128000
v -1.438170 0.259961 -1.132567
v -1.438170 0.248705 -1.129153
v -1.438170 0.295847 -1.199705
v -1.438170 0.279426 -1.230426
v -1.438170 0.286888 -1.221334
v -1.438170 0.292433 -1.210961
v -1.438170 0.259961 -1.243432
v -1.438170 0.237000 -1.248000
v -1.438170 0.060000 -1.248000
v -1.438170 0.248705 -1.246847
v -1.438170 0.270334 -1.237888
v -1.438170 0.297000 -1.188000
vt 0.900861 0.643320
vt 0.901078 0.643320
vt 0.901078 0.634846
vt 0.816539 0.858929
vt 0.814316 0.855681
vt 0.816325 0.858950
vt 0.926425 0.823559
vt 0.926208 0.823559
vt 0.926208 0.826704
vt 0.925958 0.226337
vt 0.926175 0.226337
vt 0.926175 0.223192
vt 0.912595 0.940624
vt 0.912812 0.940624
vt 0.912812 0.938455
vt 0.357310 0.948105
vt 0.357310 0.947899
vt 0.357093 0.947899
vt 0.357093 0.948105
vt 0.357093 0.948311
vt 0.357093 0.948494
vt 0.357310 0.948494
vt 0.357093 0.948662
vt 0.357310 0.948662
vt 0.925958 0.222382
vt 0.925958 0.222567
vt 0.926175 0.222567
vt 0.925958 0.222770
vt 0.926175 0.222770
vt 0.925958 0.222980
vt 0.926175 0.222980
vt 0.925958 0.223192
vt 0.357093 0.947685
vt 0.357093 0.947479
vt 0.357310 0.947685
vt 0.357093 0.947295
vt 0.357310 0.947479
vt 0.357093 0.947127
vt 0.357310 0.947295
vt 0.926425 0.822751
vt 0.926208 0.822751
vt 0.926208 0.822936
vt 0.926425 0.822936
vt 0.926208 0.823137
vt 0.926425 0.823137
vt 0.926208 0.823348
vt 0.926425 0.823348
vt 0.817623 0.863206
vt 0.815454 0.863206
vt 0.814316 0.864289
vt 0.114490 0.864331
vt 0.113352 0.863248
vt 0.111183 0.863248
vt 0.352753 0.919146
vt 0.352536 0.919146
vt 0.352536 0.923645
vt 0.112268 0.858971
vt 0.109992 0.855723
vt 0.112061 0.858992
vt 0.290572 0.919141
vt 0.290572 0.923640
vt 0.290789 0.923640
vt 0.901570 0.709472
vt 0.901787 0.709472
vt 0.901787 0.700998
vt 0.900861 0.634846
vt 0.815454 0.860012
vt 0.818815 0.855681
vt 0.817623 0.860012
vt 0.818815 0.864289
vt 0.815477 0.859801
vt 0.817601 0.859801
vt 0.817539 0.859598
vt 0.815538 0.859598
vt 0.815638 0.859411
vt 0.817440 0.859411
vt 0.817303 0.859246
vt 0.815775 0.859246
vt 0.815936 0.859112
vt 0.817142 0.859112
vt 0.816951 0.859012
vt 0.816126 0.859012
vt 0.816753 0.858950
vt 0.926425 0.826704
vt 0.912595 0.938455
vt 0.357310 0.948311
vt 0.926175 0.222382
vt 0.357310 0.947127
vt 0.109992 0.864331
vt 0.352753 0.923645
vt 0.111183 0.860054
vt 0.114490 0.855723
vt 0.113352 0.860054
vt 0.111206 0.859843
vt 0.113329 0.859843
vt 0.113268 0.859640
vt 0.111267 0.859640
vt 0.111366 0.859452
vt 0.113169 0.859452
vt 0.113031 0.859288
vt 0.111504 0.859288
vt 0.111664 0.859154
vt 0.112871 0.859154
vt 0.112680 0.859054
vt 0.111855 0.859054
vt 0.112482 0.858992
vt 0.290789 0.919141
vt 0.901570 0.700998
vn 0.0000 0.0000 -1.0000
vn 1.0000 0.0000 0.0000
vn 0.0000 0.0000 1.0000
vn 0.0000 1.0000 0.0000
vn 0.0000 -0.9952 -0.0980
vn 0.0000 -0.9569 -0.2903
vn 0.0000 -0.8819 -0.4714
vn 0.0000 -0.7730 -0.6344
vn 0.0000 -0.6344 -0.7730
vn 0.0000 -0.4714 -0.8819
vn 0.0000 -0.2903 -0.9569
vn 0.0000 -0.0980 -0.9952
vn 0.0000 -0.9952 0.0980
vn 0.0000 -0.9569 0.2903
vn 0.0000 -0.8819 0.4714
vn 0.0000 -0.7730 0.6344
vn 0.0000 -0.6344 0.7730
vn 0.0000 -0.4714 0.8819
vn 0.0000 -0.2903 0.9569
vn 0.0000 -0.0980 0.9952
vn -1.0000 0.0000 0.0000
vn 0.0000 -1.0000 0.0000
s off
f 3/1/1 1/2/1 2/3/1
f 19/4/2 6/5/2 17/6/2
f 25/7/3 42/8/3 43/9/3
f 9/10/1 30/11/1 34/12/1
f 26/13/4 43/14/4 30/15/4
f 16/16/5 46/17/5 19/18/5
f 16/16/6 17/19/6 14/20/6
f 14/20/7 15/21/7 31/22/7
f 15/21/8 13/23/8 32/24/8
f 13/25/9 18/26/9 33/27/9
f 18/26/10 11/28/10 35/29/10
f 11/28/11 12/30/11 36/31/11
f 12/30/12 10/32/12 34/12/12
f 20/33/13 19/18/13 46/17/13
f 21/34/14 20/33/14 37/35/14
f 28/36/15 21/34/15 40/37/15
f 22/38/16 28/36/16 39/39/16
f 22/40/17 38/41/17 45/42/17
f 24/43/18 45/42/18 41/44/18
f 23/45/19 41/44/19 44/46/19
f 27/47/20 44/46/20 42/8/20
f 26/48/2 9/49/2 5/50/2
f 8/51/21 30/52/21 43/53/21
f 5/54/22 8/55/22 1/56/22
f 46/57/21 2/58/21 37/59/21
f 6/60/4 4/61/4 2/62/4
f 8/63/3 5/64/3 6/65/3
f 3/1/1 2/3/1 4/66/1
f 9/49/2 10/67/2 5/50/2
f 5/50/2 10/67/2 6/5/2
f 4/68/2 25/69/2 3/70/2
f 3/70/2 25/69/2 26/48/2
f 12/71/2 6/5/2 10/67/2
f 4/68/2 27/72/2 25/69/2
f 4/68/2 23/73/2 27/72/2
f 11/74/2 6/5/2 12/71/2
f 18/75/2 6/5/2 11/74/2
f 4/68/2 24/76/2 23/73/2
f 4/68/2 22/77/2 24/76/2
f 13/78/2 6/5/2 18/75/2
f 15/79/2 6/5/2 13/78/2
f 6/5/2 19/4/2 4/68/2
f 4/68/2 28/80/2 22/77/2
f 4/68/2 21/81/2 28/80/2
f 14/82/2 6/5/2 15/79/2
f 17/6/2 6/5/2 14/82/2
f 4/68/2 20/83/2 21/81/2
f 4/68/2 19/4/2 20/83/2
f 25/7/3 43/9/3 26/84/3
f 9/10/1 34/12/1 10/32/1
f 26/13/4 30/15/4 9/85/4
f 16/16/5 19/18/5 17/19/5
f 16/16/6 14/20/6 29/86/6
f 14/20/7 31/22/7 29/86/7
f 15/21/8 32/24/8 31/22/8
f 13/25/9 33/27/9 32/87/9
f 18/26/10 35/29/10 33/27/10
f 11/28/11 36/31/11 35/29/11
f 12/30/12 34/12/12 36/31/12
f 20/33/13 46/17/13 37/35/13
f 21/34/14 37/35/14 40/37/14
f 28/36/15 40/37/15 39/39/15
f 22/38/16 39/39/16 38/88/16
f 22/40/17 45/42/17 24/43/17
f 24/43/18 41/44/18 23/45/18
f 23/45/19 44/46/19 27/47/19
f 27/47/20 42/8/20 25/7/20
f 26/48/2 5/50/2 3/70/2
f 8/51/21 43/53/21 1/89/21
f 5/54/22 1/56/22 3/90/22
f 42/91/21 1/89/21 43/53/21
f 7/92/21 34/93/21 8/51/21
f 8/51/21 34/93/21 30/52/21
f 42/91/21 2/58/21 1/89/21
f 44/94/21 2/58/21 42/91/21
f 7/92/21 36/95/21 34/93/21
f 7/92/21 35/96/21 36/95/21
f 41/97/21 2/58/21 44/94/21
f 45/98/21 2/58/21 41/97/21
f 7/92/21 33/99/21 35/96/21
f 7/92/21 32/100/21 33/99/21
f 38/101/21 2/58/21 45/98/21
f 39/102/21 2/58/21 38/101/21
f 2/58/21 46/57/21 7/92/21
f 7/92/21 31/103/21 32/100/21
f 7/92/21 29/104/21 31/103/21
f 40/105/21 2/58/21 39/102/21
f 37/59/21 2/58/21 40/105/21
f 7/92/21 16/106/21 29/104/21
f 7/92/21 46/57/21 16/106/21
f 6/60/4 2/62/4 7/107/4
f 8/63/3 6/65/3 7/108/3
