# Blender v3.0.1 OBJ File: 'Main.blend'
# www.blender.org
o Cube.5813_0286
v 0.329998 0.000000 2.973000
v 0.329998 0.480000 2.973000
v 0.329998 0.000000 2.979000
v 0.329998 0.480000 2.979000
v 0.185998 0.000000 2.973000
v 0.185998 0.480000 2.973000
v 0.179998 0.000000 2.979000
v 0.179998 0.480000 2.979000
v 0.185998 0.000000 2.937000
v 0.185998 0.480000 2.937000
v 0.179998 0.000000 2.937000
v 0.179998 0.480000 2.937000
vt 0.438119 0.893782
vt 0.438226 0.902443
vt 0.438119 0.902443
vt 0.890872 0.266683
vt 0.891628 0.275344
vt 0.890872 0.275344
vt 0.512652 0.929982
vt 0.512545 0.927385
vt 0.512652 0.927270
vt 0.468526 0.872413
vt 0.465929 0.863752
vt 0.468526 0.863752
vt 0.839365 0.775564
vt 0.839258 0.778169
vt 0.839258 0.775564
vt 0.869352 0.261972
vt 0.872063 0.270633
vt 0.869352 0.270633
vt 0.902346 0.693663
vt 0.902453 0.685002
vt 0.902453 0.693663
vt 0.511896 0.927270
vt 0.542209 0.893568
vt 0.541559 0.884907
vt 0.542209 0.884907
vt 0.838609 0.778276
vt 0.838609 0.778169
vt 0.438226 0.893782
vt 0.891628 0.266683
vt 0.512545 0.929982
vt 0.465929 0.872413
vt 0.839365 0.778276
vt 0.872063 0.261972
vt 0.902346 0.685002
vt 0.511896 0.927385
vt 0.541559 0.893568
vn 1.0000 0.0000 0.0000
vn -1.0000 0.0000 0.0000
vn 0.0000 1.0000 -0.0000
vn 0.0000 0.0000 -1.0000
vn 0.0000 -1.0000 0.0000
vn 0.0000 0.0000 1.0000
s off
f 2/1/1 3/2/1 1/3/1
f 8/4/2 11/5/2 7/6/2
f 4/7/3 6/8/3 8/9/3
f 1/10/4 6/11/4 2/12/4
f 3/13/5 5/14/5 1/15/5
f 4/16/6 7/17/6 3/18/6
f 11/19/4 10/20/4 9/21/4
f 6/8/3 12/22/3 8/9/3
f 5/23/1 10/24/1 6/25/1
f 5/14/5 11/26/5 9/27/5
f 2/1/1 4/28/1 3/2/1
f 8/4/2 12/29/2 11/5/2
f 4/7/3 2/30/3 6/8/3
f 1/10/4 5/31/4 6/11/4
f 3/13/5 7/32/5 5/14/5
f 4/16/6 8/33/6 7/17/6
f 11/19/4 12/34/4 10/20/4
f 6/8/3 10/35/3 12/22/3
f 5/23/1 9/36/1 10/24/1
f 5/14/5 7/32/5 11/26/5
