# Blender v3.0.1 OBJ File: 'Main.blend'
# www.blender.org
o Cube.5539_0300
v 1.451998 0.663000 0.464998
v 1.451998 0.723000 0.464998
v 1.451998 0.663000 0.317998
v 1.451998 0.723000 0.317998
v 1.262998 0.663000 0.464998
v 1.262998 0.723000 0.464998
v 1.262998 0.663000 0.317998
v 1.262998 0.723000 0.317998
vt 0.215917 0.921528
vt 0.214835 0.921528
vt 0.214835 0.924180
vt 0.865712 0.914578
vt 0.864630 0.914578
vt 0.864630 0.917988
vt 0.923780 0.499822
vt 0.922697 0.499822
vt 0.922697 0.502474
vt 0.788344 0.175724
vt 0.787261 0.175724
vt 0.787261 0.179135
vt 0.459305 0.159281
vt 0.459305 0.162691
vt 0.461957 0.162691
vt 0.465654 0.159281
vt 0.465654 0.162691
vt 0.468307 0.162691
vt 0.215917 0.924180
vt 0.865712 0.917988
vt 0.923780 0.502474
vt 0.788344 0.179135
vt 0.461957 0.159281
vt 0.468307 0.159281
vn 1.0000 0.0000 0.0000
vn 0.0000 0.0000 -1.0000
vn -1.0000 0.0000 0.0000
vn 0.0000 0.0000 1.0000
vn 0.0000 -1.0000 0.0000
vn 0.0000 1.0000 0.0000
s off
f 2/1/1 1/2/1 3/3/1
f 4/4/2 3/5/2 7/6/2
f 8/7/3 7/8/3 5/9/3
f 6/10/4 5/11/4 1/12/4
f 7/13/5 3/14/5 1/15/5
f 4/16/6 8/17/6 6/18/6
f 2/1/1 3/3/1 4/19/1
f 4/4/2 7/6/2 8/20/2
f 8/7/3 5/9/3 6/21/3
f 6/10/4 1/12/4 2/22/4
f 7/13/5 1/15/5 5/23/5
f 4/16/6 6/18/6 2/24/6
