# Blender v3.0.1 OBJ File: 'Main.blend'
# www.blender.org
o Cube.864_0340
v 0.808500 -0.210000 1.320000
v 0.808500 -0.231000 1.320000
v 0.808500 -0.231000 1.314000
v 0.808500 -0.210000 1.314000
v 0.412500 -0.210000 1.320000
v 0.412500 -0.231000 1.320000
v 0.412500 -0.231000 1.314000
v 0.412500 -0.210000 1.314000
vt 0.985463 0.214580
vt 0.985570 0.214201
vt 0.985570 0.214580
vt 0.985021 0.761944
vt 0.985129 0.762323
vt 0.985021 0.762323
vt 0.851023 0.905248
vt 0.851402 0.898099
vt 0.851402 0.905248
vt 0.758621 0.902180
vt 0.758513 0.909325
vt 0.758513 0.902180
vt 0.909144 0.421266
vt 0.909252 0.414117
vt 0.909252 0.421266
vt 0.666693 0.898216
vt 0.666314 0.905361
vt 0.666314 0.898216
vt 0.985463 0.214201
vt 0.985129 0.761944
vt 0.851023 0.898099
vt 0.758621 0.909325
vt 0.909144 0.414117
vt 0.666693 0.905361
vn 1.0000 0.0000 0.0000
vn -1.0000 0.0000 0.0000
vn 0.0000 0.0000 -1.0000
vn 0.0000 -1.0000 0.0000
vn 0.0000 1.0000 0.0000
vn 0.0000 0.0000 1.0000
s off
f 3/1/1 1/2/1 2/3/1
f 5/4/2 7/5/2 6/6/2
f 3/7/3 8/8/3 4/9/3
f 2/10/4 7/11/4 3/12/4
f 4/13/5 5/14/5 1/15/5
f 1/16/6 6/17/6 2/18/6
f 3/1/1 4/19/1 1/2/1
f 5/4/2 8/20/2 7/5/2
f 3/7/3 7/21/3 8/8/3
f 2/10/4 6/22/4 7/11/4
f 4/13/5 8/23/5 5/14/5
f 1/16/6 5/24/6 6/17/6
