# Blender v3.0.1 OBJ File: 'Main.blend'
# www.blender.org
o Cube.007_Cube.004
v -0.000450 0.006300 -0.010500
v 0.000450 0.006300 -0.010500
v -0.000450 0.027000 0.010200
v 0.000450 0.027000 0.010200
v -0.000450 0.006000 -0.010200
v 0.000450 0.006000 -0.010200
v -0.000450 0.026700 0.010500
v 0.000450 0.026700 0.010500
v 0.000750 0.027000 0.010500
v -0.000450 0.027000 0.010500
v -0.000450 0.006000 -0.010500
v 0.000750 0.006000 -0.010500
vt 0.000000 0.000000
vt 0.000000 0.000000
vt 0.000000 0.000000
vt 0.000000 0.000000
vt 0.000000 0.000000
vt 0.000000 0.000000
vt 0.000000 0.000000
vt 0.000000 0.000000
vt 0.000000 0.000000
vt 0.000000 0.000000
vt 0.000000 0.000000
vt 0.000000 0.000000
vn 0.0000 0.7071 -0.7071
vn 0.0000 -0.7071 0.7071
vn 0.0000 -1.0000 -0.0000
vn -1.0000 -0.0000 0.0000
vn 0.5773 -0.5773 -0.5774
vn 1.0000 -0.0000 0.0000
vn 0.0000 0.0000 1.0000
vn 0.0000 1.0000 -0.0000
vn 0.0000 0.0000 -1.0000
vn 0.5774 0.5773 0.5773
s 1
f 1/1/1 4/2/1 2/3/1
f 8/4/2 5/5/2 6/6/2
f 11/7/3 6/6/3 5/5/3
f 5/5/4 3/8/4 1/1/4
f 4/2/5 9/9/5 8/4/5
f 8/4/6 2/3/6 4/2/6
f 8/4/7 10/10/7 7/11/7
f 10/10/8 4/2/8 3/8/8
f 7/11/4 10/10/4 3/8/4
f 2/3/9 11/7/9 1/1/9
f 6/6/10 12/12/10 2/3/10
f 1/1/4 11/7/4 5/5/4
f 1/1/1 3/8/1 4/2/1
f 8/4/2 7/11/2 5/5/2
f 11/7/3 12/12/3 6/6/3
f 5/5/4 7/11/4 3/8/4
f 8/4/6 6/6/6 2/3/6
f 8/4/7 9/9/7 10/10/7
f 10/10/8 9/9/8 4/2/8
f 2/3/9 12/12/9 11/7/9
