# Blender v3.0.1 OBJ File: 'Main.blend'
# www.blender.org
o Cube.5651_0167
v 1.260000 -0.009000 0.318000
v 1.260000 -0.009000 -0.369000
v 1.260000 -0.123000 0.318000
v 1.260000 -0.123000 -0.369000
v 1.266000 -0.009000 0.318000
v 1.266000 -0.009000 -0.369000
v 1.266000 -0.123000 0.318000
v 1.266000 -0.123000 -0.369000
vt 0.865824 0.445329
vt 0.865824 0.457726
vt 0.867881 0.457726
vt 0.867919 0.804847
vt 0.865862 0.804847
vt 0.865862 0.817243
vt 0.943464 0.871083
vt 0.943572 0.871083
vt 0.943572 0.869026
vt 0.886477 0.684437
vt 0.886369 0.684437
vt 0.886369 0.696833
vt 0.943579 0.414694
vt 0.943471 0.414694
vt 0.943471 0.416751
vt 0.063758 0.886411
vt 0.063758 0.874015
vt 0.063650 0.874015
vt 0.867881 0.445329
vt 0.867919 0.817243
vt 0.943464 0.869026
vt 0.886477 0.696833
vt 0.943579 0.416751
vt 0.063650 0.886411
vn -1.0000 0.0000 -0.0000
vn 1.0000 0.0000 0.0000
vn 0.0000 0.0000 -1.0000
vn 0.0000 1.0000 0.0000
vn 0.0000 0.0000 1.0000
vn 0.0000 -1.0000 0.0000
s off
f 1/1/1 2/2/1 4/3/1
f 8/4/2 6/5/2 5/6/2
f 8/7/3 4/8/3 2/9/3
f 6/10/4 2/11/4 1/12/4
f 5/13/5 1/14/5 3/15/5
f 3/16/6 4/17/6 8/18/6
f 1/1/1 4/3/1 3/19/1
f 8/4/2 5/6/2 7/20/2
f 8/7/3 2/9/3 6/21/3
f 6/10/4 1/12/4 5/22/4
f 5/13/5 3/15/5 7/23/5
f 3/16/6 8/18/6 7/24/6
