# Blender v3.0.1 OBJ File: 'Main.blend'
# www.blender.org
o Cube.015_0139
v -1.699500 -0.354000 2.575500
v -1.714500 -0.339000 2.575500
v -1.699500 -0.354000 -2.905125
v -1.714500 -0.339000 -2.905500
v -1.558500 -0.354000 2.575400
v -1.543500 -0.339000 2.575500
v -1.543500 -0.345000 -2.905500
v -1.543500 -0.339000 -2.905500
v -1.699500 -0.354000 2.800500
v -1.714500 -0.339000 2.800500
v -1.561494 -0.354000 2.799932
v -1.546500 -0.339000 2.800500
v -1.699500 -0.354000 3.055500
v -1.714500 -0.339000 3.040500
v -1.576454 -0.354000 3.039301
v -1.561500 -0.339000 3.040500
v -1.714500 -0.354000 3.454500
v -1.714500 -0.339000 3.469500
v -1.617103 -0.354000 3.454500
v -1.603500 -0.339000 3.469500
v -1.795500 -0.354000 3.055500
v -1.810500 -0.339000 3.040500
v -1.810500 -0.354000 3.454500
v -1.810500 -0.339000 3.469500
v -1.810500 -0.339000 3.132000
v -1.795500 -0.354000 3.147000
v -1.966500 -0.354000 3.454500
v -1.966500 -0.339000 3.469500
v -1.966500 -0.339000 3.132000
v -1.966500 -0.345000 3.132000
v -2.128500 -0.354000 3.454500
v -2.143500 -0.339000 3.469500
v -2.143500 -0.339000 3.132000
v -2.128500 -0.354000 3.132000
v -1.966500 -0.339000 -2.688000
v -1.981500 -0.354000 -2.688000
v -2.143500 -0.339000 -2.688000
v -2.128500 -0.354000 -2.687667
v -1.966500 -0.339000 -2.958000
v -1.981500 -0.354000 -2.958000
v -2.131500 -0.339000 -2.958000
v -2.116533 -0.354000 -2.956920
v -1.966500 -0.339000 -3.228000
v -1.981500 -0.354000 -3.228000
v -2.104500 -0.339000 -3.228000
v -2.089599 -0.354000 -3.226262
v -1.966500 -0.339000 -3.408000
v -1.981500 -0.354000 -3.408000
v -2.080500 -0.339000 -3.408000
v -2.065693 -0.354000 -3.405554
v -1.966500 -0.339000 -3.636000
v -1.981500 -0.354000 -3.621000
v -2.035500 -0.339000 -3.636000
v -2.023171 -0.354000 -3.621000
v -1.690533 -0.354000 -3.084461
v -1.705500 -0.339000 -3.085500
v -1.546500 -0.345000 -3.085500
v -1.546500 -0.339000 -3.085500
v -1.666583 -0.354000 -3.353905
v -1.681500 -0.339000 -3.355500
v -1.552500 -0.345000 -3.355500
v -1.552500 -0.339000 -3.355500
v -1.623258 -0.354000 -3.700500
v -1.636500 -0.339000 -3.715500
v -1.576130 -0.354000 -3.700500
v -1.561500 -0.339000 -3.715500
v -1.714500 -0.345000 -2.905500
v -1.714500 -0.345000 2.575500
v -1.543500 -0.345000 2.575500
v -1.558500 -0.354000 -2.905375
v -1.714500 -0.345000 2.800500
v -1.546500 -0.345000 2.800500
v -1.561500 -0.345000 3.040500
v -1.714500 -0.345000 3.040500
v -1.714500 -0.345000 3.469500
v -1.603500 -0.345000 3.469500
v -1.810500 -0.345000 3.132000
v -1.810500 -0.345000 3.040500
v -1.810500 -0.345000 3.469500
v -1.966500 -0.345000 3.469500
v -1.981500 -0.354000 3.147000
v -2.143500 -0.345000 3.469500
v -2.143500 -0.345000 3.132000
v -2.143500 -0.345000 -2.688000
v -1.966500 -0.345000 -2.688000
v -2.131500 -0.345000 -2.958000
v -1.966500 -0.345000 -2.958000
v -2.104500 -0.345000 -3.228000
v -1.966500 -0.345000 -3.228000
v -2.080500 -0.345000 -3.408000
v -1.966500 -0.345000 -3.408000
v -2.035500 -0.345000 -3.636000
v -1.966500 -0.345000 -3.636000
v -1.561497 -0.354000 -3.085208
v -1.705500 -0.345000 -3.085500
v -1.681500 -0.345000 -3.355500
v -1.567496 -0.354000 -3.355146
v -1.561500 -0.345000 -3.715500
v -1.636500 -0.345000 -3.715500
v -1.699500 -0.390000 2.575500
v -1.699500 -0.390000 -2.905125
v -1.558500 -0.390000 2.575400
v -1.699500 -0.390000 2.800500
v -1.561494 -0.390000 2.799932
v -1.699500 -0.390000 3.055500
v -1.576454 -0.390000 3.039301
v -1.714500 -0.390000 3.454500
v -1.617103 -0.390000 3.454500
v -1.795500 -0.390000 3.055500
v -1.810500 -0.390000 3.454500
v -1.795500 -0.390000 3.147000
v -1.966500 -0.390000 3.454500
v -2.128500 -0.390000 3.454500
v -2.128500 -0.390000 3.132000
v -1.981500 -0.390000 -2.688000
v -2.128500 -0.390000 -2.687667
v -1.981500 -0.390000 -2.958000
v -2.116533 -0.390000 -2.956920
v -1.981500 -0.390000 -3.228000
v -2.089599 -0.390000 -3.226262
v -1.981500 -0.390000 -3.408000
v -2.065693 -0.390000 -3.405554
v -1.981500 -0.390000 -3.621000
v -2.023171 -0.390000 -3.621000
v -1.690533 -0.390000 -3.084461
v -1.666583 -0.390000 -3.353905
v -1.623258 -0.390000 -3.700500
v -1.576130 -0.390000 -3.700500
v -1.558500 -0.390000 -2.905375
v -1.981500 -0.390000 3.147000
v -1.561497 -0.390000 -3.085208
v -1.567496 -0.390000 -3.355146
vt 0.052526 0.707941
vt 0.052418 0.806686
vt 0.052418 0.707941
vt 0.408362 0.703456
vt 0.408471 0.700210
vt 0.408471 0.703456
vt 0.408362 0.802354
vt 0.052526 0.703885
vt 0.890823 0.693663
vt 0.890174 0.690737
vt 0.890823 0.690737
vt 0.401580 0.687988
vt 0.404665 0.589082
vt 0.404665 0.687988
vt 0.745435 0.804574
vt 0.744785 0.801328
vt 0.745435 0.801328
vt 0.744785 0.702590
vt 0.745435 0.702590
vt 0.401580 0.589082
vt 0.404608 0.585026
vt 0.408471 0.802354
vt 0.408362 0.806417
vt 0.401580 0.580696
vt 0.403581 0.572951
vt 0.404341 0.580696
vt 0.052418 0.703885
vt 0.052526 0.699563
vt 0.401580 0.585026
vt 0.408471 0.806417
vt 0.408362 0.810747
vt 0.897165 0.080664
vt 0.897057 0.082665
vt 0.897057 0.080664
vt 0.408471 0.810747
vt 0.408362 0.818500
vt 0.820176 0.377423
vt 0.819527 0.371611
vt 0.820176 0.371611
vt 0.399846 0.580696
vt 0.399846 0.579039
vt 0.397032 0.572951
vt 0.399846 0.572951
vt 0.897165 0.082665
vt 0.897057 0.084399
vt 0.820176 0.253146
vt 0.819527 0.249900
vt 0.820176 0.249900
vt 0.946865 0.564265
vt 0.946974 0.562531
vt 0.946974 0.564265
vt 0.949109 0.390268
vt 0.949218 0.388618
vt 0.949218 0.390268
vt 0.922126 0.681745
vt 0.921476 0.678388
vt 0.922126 0.678388
vt 0.005461 0.697098
vt 0.004811 0.693256
vt 0.005461 0.693256
vt 0.897165 0.084399
vt 0.897057 0.087217
vt 0.937210 0.758913
vt 0.937318 0.756095
vt 0.937318 0.758913
vt 0.816837 0.700543
vt 0.816945 0.694464
vt 0.816945 0.700543
vt 0.897165 0.087217
vt 0.897057 0.090410
vt 0.397032 0.579039
vt 0.393835 0.684062
vt 0.393835 0.579039
vt 0.393835 0.572951
vt 0.890174 0.687919
vt 0.890823 0.687919
vt 0.820176 0.499196
vt 0.819527 0.495270
vt 0.820176 0.495270
vt 0.816837 0.805399
vt 0.269918 0.820165
vt 0.270027 0.715149
vt 0.270027 0.820165
vt 0.847814 0.938059
vt 0.847164 0.936325
vt 0.847814 0.936325
vt 0.269918 0.715149
vt 0.270027 0.710276
vt 0.397032 0.684062
vt 0.394053 0.688935
vt 0.816945 0.805399
vt 0.816837 0.810279
vt 0.397032 0.693807
vt 0.394973 0.697053
vt 0.394542 0.693807
vt 0.269918 0.710276
vt 0.270027 0.705404
vt 0.397032 0.688935
vt 0.816945 0.810279
vt 0.816837 0.815167
vt 0.936287 0.855528
vt 0.936937 0.856284
vt 0.936287 0.856284
vt 0.816945 0.815167
vt 0.816837 0.818436
vt 0.890174 0.686193
vt 0.890823 0.686193
vt 0.269918 0.705404
vt 0.270027 0.702158
vt 0.903558 0.959954
vt 0.903666 0.958709
vt 0.903666 0.959954
vt 0.269918 0.702158
vt 0.270027 0.698041
vt 0.397032 0.697053
vt 0.395787 0.701170
vt 0.816945 0.818436
vt 0.816837 0.822591
vt 0.404608 0.691233
vt 0.402172 0.696106
vt 0.401740 0.691233
vt 0.005461 0.700343
vt 0.004811 0.697098
vt 0.052526 0.806686
vt 0.052418 0.809932
vt 0.052526 0.814828
vt 0.052418 0.821358
vt 0.052418 0.814828
vt 0.052526 0.809932
vt 0.408362 0.700210
vt 0.408471 0.695337
vt 0.939731 0.468879
vt 0.939082 0.467229
vt 0.939731 0.467229
vt 0.958324 0.122132
vt 0.958216 0.123488
vt 0.958216 0.122132
vt 0.408362 0.695337
vt 0.408471 0.688845
vt 0.819527 0.492017
vt 0.820176 0.492017
vt 0.404501 0.696106
vt 0.402985 0.702606
vt 0.697449 0.168232
vt 0.697720 0.069334
vt 0.697720 0.168239
vt 0.694906 0.168232
vt 0.694635 0.069334
vt 0.694906 0.069341
vt 0.697449 0.065278
vt 0.697449 0.069334
vt 0.694959 0.065286
vt 0.694692 0.065278
vt 0.694959 0.060948
vt 0.695231 0.060971
vt 0.697720 0.060948
vt 0.697720 0.065278
vt 0.695964 0.053478
vt 0.697720 0.053203
vt 0.697720 0.053478
vt 0.695719 0.053203
vt 0.699183 0.060673
vt 0.699454 0.059298
vt 0.699454 0.060948
vt 0.699454 0.053203
vt 0.699454 0.053478
vt 0.697449 0.060673
vt 0.702269 0.053203
vt 0.702269 0.053478
vt 0.702536 0.059023
vt 0.699183 0.059023
vt 0.705190 0.053471
vt 0.705461 0.059298
vt 0.705190 0.059290
vt 0.705461 0.053203
vt 0.705190 0.164306
vt 0.705461 0.164314
vt 0.702536 0.164314
vt 0.702269 0.059298
vt 0.704976 0.169163
vt 0.705247 0.169186
vt 0.702536 0.169186
vt 0.702269 0.164314
vt 0.704758 0.174059
vt 0.704487 0.174029
vt 0.702536 0.174059
vt 0.702269 0.169186
vt 0.704056 0.177259
vt 0.704327 0.177305
vt 0.702536 0.177305
vt 0.702269 0.174059
vt 0.702536 0.181147
vt 0.703513 0.181422
vt 0.702269 0.181422
vt 0.703288 0.181147
vt 0.702269 0.177305
vt 0.694692 0.171485
vt 0.694635 0.168239
vt 0.697560 0.171485
vt 0.697289 0.171470
vt 0.697125 0.176358
vt 0.696854 0.176327
vt 0.694959 0.171478
vt 0.694799 0.176358
vt 0.695223 0.182583
vt 0.696315 0.182858
vt 0.694959 0.182858
vt 0.696075 0.182583
vt 0.695066 0.176350
vt 0.697178 0.301315
vt 0.694635 0.202417
vt 0.697178 0.202417
vt 0.697178 0.198354
vt 0.694963 0.194047
vt 0.697178 0.193756
vt 0.694688 0.198370
vt 0.695696 0.186554
vt 0.697453 0.186554
vt 0.699187 0.186554
vt 0.698912 0.192107
vt 0.702272 0.192107
vt 0.704923 0.186554
vt 0.704923 0.192374
vt 0.702272 0.297397
vt 0.704709 0.302247
vt 0.702272 0.302262
vt 0.704220 0.307105
vt 0.702272 0.307135
vt 0.702272 0.310389
vt 0.703021 0.314230
vt 0.702272 0.314230
vt 0.703785 0.310343
vt 0.694635 0.301315
vt 0.697018 0.304546
vt 0.694688 0.304561
vt 0.696590 0.309411
vt 0.694795 0.309434
vt 0.695803 0.315666
vt 0.694956 0.315666
vt 0.820176 0.352044
vt 0.819527 0.253146
vt 0.745435 0.809447
vt 0.744785 0.804574
vt 0.820176 0.482271
vt 0.819527 0.377423
vt 0.744785 0.698535
vt 0.745435 0.698535
vt 0.819527 0.245027
vt 0.820176 0.245027
vt 0.005461 0.815380
vt 0.004811 0.710089
vt 0.005461 0.710089
vt 0.820176 0.356092
vt 0.819527 0.352044
vt 0.946539 0.457525
vt 0.945890 0.456674
vt 0.946539 0.456674
vt 0.820176 0.487136
vt 0.819527 0.482271
vt 0.820176 0.360414
vt 0.819527 0.356092
vt 0.745435 0.815740
vt 0.744785 0.809447
vt 0.004811 0.705216
vt 0.005461 0.705216
vt 0.744785 0.693945
vt 0.745435 0.693945
vt 0.819527 0.238802
vt 0.820176 0.238802
vt 0.819527 0.487136
vt 0.890174 0.684437
vt 0.890823 0.684437
vt 0.004811 0.700343
vt 0.820176 0.367914
vt 0.819527 0.360414
vt 0.890174 0.693663
vt 0.401580 0.572951
vt 0.052418 0.699563
vt 0.408471 0.818500
vt 0.946865 0.562531
vt 0.949109 0.388618
vt 0.921476 0.681745
vt 0.937210 0.756095
vt 0.816837 0.694464
vt 0.897165 0.090410
vt 0.819527 0.499196
vt 0.847164 0.938059
vt 0.936937 0.855528
vt 0.903558 0.958709
vt 0.269918 0.698041
vt 0.397032 0.701170
vt 0.816945 0.822591
vt 0.052526 0.821358
vt 0.939082 0.468879
vt 0.958324 0.123488
vt 0.408362 0.688845
vt 0.404341 0.702606
vt 0.698912 0.193756
vt 0.701997 0.186554
vt 0.704923 0.297390
vt 0.004811 0.815380
vt 0.945890 0.457525
vt 0.744785 0.815740
vt 0.819527 0.367914
vn -1.0000 0.0000 0.0000
vn 0.9999 0.0000 -0.0167
vn 1.0000 0.0000 0.0000
vn 0.0000 0.0000 1.0000
vn 0.0000 1.0000 0.0000
vn -0.9988 0.0000 -0.0499
vn 0.9999 0.0000 0.0133
vn 0.9981 0.0000 0.0624
vn 0.9952 0.0000 0.0974
vn 0.0000 0.0000 -1.0000
vn -0.9811 0.0000 -0.1936
vn -0.9990 0.0000 -0.0444
vn -0.9950 0.0000 -0.0995
vn -0.9912 0.0000 -0.1322
vn -0.9923 0.0000 -0.1240
vn -0.9961 0.0000 -0.0885
vn 0.9998 0.0000 -0.0222
vn 0.9997 0.0000 -0.0250
vn -0.5145 -0.8575 0.0000
vn 0.5145 -0.8575 0.0000
vn 0.5144 -0.8575 0.0069
vn 0.5135 -0.8575 0.0321
vn 0.0000 -0.8575 0.5145
vn 0.5121 -0.8575 0.0501
vn 0.0000 -0.8575 -0.5145
vn -0.5140 -0.8575 -0.0228
vn -0.5119 -0.8575 -0.0512
vn -0.5100 -0.8575 -0.0680
vn -0.5048 -0.8575 -0.0996
vn 0.5144 -0.8575 -0.0086
vn -0.5139 -0.8575 -0.0257
vn -0.5125 -0.8575 -0.0456
vn 0.5144 -0.8575 -0.0114
vn -0.5105 -0.8575 -0.0638
vn 0.5143 -0.8575 -0.0129
vn 0.0000 -1.0000 0.0000
vn -0.5120 -0.8575 -0.0512
vn -0.5138 -0.8575 -0.0257
s off
f 2/1/1 67/2/1 68/3/1
f 7/4/2 58/5/2 8/6/2
f 8/6/3 69/7/3 7/4/3
f 68/3/1 10/8/1 2/1/1
f 31/9/4 112/10/4 27/11/4
f 4/12/5 6/13/5 8/14/5
f 55/15/6 101/16/6 3/17/6
f 3/17/1 100/18/1 1/19/1
f 2/20/5 12/21/5 6/13/5
f 6/22/7 72/23/7 69/7/7
f 14/24/5 20/25/5 16/26/5
f 71/27/1 14/28/1 10/8/1
f 10/29/5 16/26/5 12/21/5
f 12/30/8 73/31/8 72/23/8
f 20/32/4 75/33/4 76/34/4
f 16/35/9 76/36/9 73/31/9
f 34/37/1 113/38/1 31/39/1
f 14/24/5 22/40/5 25/41/5
f 25/41/5 28/42/5 24/43/5
f 18/44/4 79/45/4 75/33/4
f 70/46/2 131/47/2 94/48/2
f 74/49/10 22/50/10 14/51/10
f 78/52/1 25/53/1 22/54/1
f 26/55/10 130/56/10 81/57/10
f 48/58/3 123/59/3 52/60/3
f 24/61/4 80/62/4 79/45/4
f 77/63/10 29/64/10 25/65/10
f 83/66/1 32/67/1 33/68/1
f 28/69/4 82/70/4 80/62/4
f 29/71/5 37/72/5 33/73/5
f 29/71/5 32/74/5 28/42/5
f 27/11/4 110/75/4 23/76/4
f 54/77/11 122/78/11 50/79/11
f 33/68/1 84/80/1 83/66/1
f 30/81/3 35/82/3 29/83/3
f 13/84/10 109/85/10 21/86/10
f 85/87/3 39/88/3 35/82/3
f 35/89/5 41/90/5 37/72/5
f 37/91/12 86/92/12 84/80/12
f 43/93/5 49/94/5 45/95/5
f 87/96/3 43/97/3 39/88/3
f 39/98/5 45/95/5 41/90/5
f 41/99/13 88/100/13 86/92/13
f 52/101/10 124/102/10 54/103/10
f 45/104/14 90/105/14 88/100/14
f 23/76/4 107/106/4 17/107/4
f 89/108/3 47/109/3 43/97/3
f 93/110/10 53/111/10 51/112/10
f 91/113/3 51/114/3 47/109/3
f 47/115/5 53/116/5 49/94/5
f 49/117/11 92/118/11 90/105/11
f 58/119/5 60/120/5 56/121/5
f 44/122/3 121/123/3 48/58/3
f 8/14/5 56/121/5 4/12/5
f 4/124/6 95/125/6 67/2/6
f 60/126/15 99/127/15 96/128/15
f 56/129/16 96/128/16 95/125/16
f 57/130/17 62/131/17 58/5/17
f 21/132/1 111/133/1 26/134/1
f 64/135/10 98/136/10 99/137/10
f 61/138/18 66/139/18 62/131/18
f 50/79/14 120/140/14 46/141/14
f 62/142/5 64/143/5 60/120/5
f 3/144/19 68/145/19 67/146/19
f 70/147/20 69/148/20 5/149/20
f 9/150/19 68/145/19 1/151/19
f 11/152/21 69/148/21 72/153/21
f 11/152/22 73/154/22 15/155/22
f 9/150/19 74/156/19 71/157/19
f 19/158/23 75/159/23 17/160/23
f 19/158/24 73/154/24 76/161/24
f 21/162/19 77/163/19 78/164/19
f 17/160/23 79/165/23 23/166/23
f 21/162/25 74/156/25 13/167/25
f 23/166/23 80/168/23 27/169/23
f 81/170/25 77/163/25 26/171/25
f 31/172/19 83/173/19 34/174/19
f 31/172/23 80/168/23 82/175/23
f 38/176/19 83/173/19 84/177/19
f 36/178/20 30/179/20 81/170/20
f 42/180/26 84/177/26 86/181/26
f 40/182/20 85/183/20 36/178/20
f 42/180/27 88/184/27 46/185/27
f 44/186/20 87/187/20 40/182/20
f 50/188/28 88/184/28 90/189/28
f 48/190/20 89/191/20 44/186/20
f 52/192/25 92/193/25 93/194/25
f 54/195/29 90/189/29 92/193/29
f 52/192/20 91/196/20 48/190/20
f 70/147/30 57/197/30 7/198/30
f 3/144/31 95/199/31 55/200/31
f 55/200/32 96/201/32 59/202/32
f 94/203/33 61/204/33 57/197/33
f 65/205/25 99/206/25 98/207/25
f 63/208/34 96/201/34 99/206/34
f 65/205/35 61/204/35 97/209/35
f 101/210/36 102/211/36 100/212/36
f 103/213/36 106/214/36 105/215/36
f 100/212/36 104/216/36 103/213/36
f 105/215/36 108/217/36 107/218/36
f 107/218/36 110/219/36 111/220/36
f 130/221/36 113/222/36 114/223/36
f 110/219/36 130/221/36 111/220/36
f 115/224/36 118/225/36 117/226/36
f 114/223/36 115/224/36 130/221/36
f 117/226/36 120/227/36 119/228/36
f 121/229/36 124/230/36 123/231/36
f 119/228/36 122/232/36 121/229/36
f 129/233/36 125/234/36 131/235/36
f 131/235/36 126/236/36 132/237/36
f 132/237/36 127/238/36 128/239/36
f 5/240/3 129/241/3 70/46/3
f 59/242/16 125/243/16 55/15/16
f 38/244/1 114/245/1 34/37/1
f 1/19/1 103/246/1 9/247/1
f 94/48/17 132/248/17 97/249/17
f 81/250/3 115/251/3 36/252/3
f 11/253/7 102/254/7 5/240/7
f 65/255/10 127/256/10 63/257/10
f 42/258/12 116/259/12 38/244/12
f 15/260/8 104/261/8 11/253/8
f 63/262/15 126/263/15 59/242/15
f 36/252/3 117/264/3 40/265/3
f 9/247/1 105/266/1 13/267/1
f 97/249/18 128/268/18 65/269/18
f 46/141/13 118/270/13 42/258/13
f 17/107/4 108/271/4 19/272/4
f 40/265/3 119/273/3 44/122/3
f 19/274/9 106/275/9 15/260/9
f 2/1/1 4/124/1 67/2/1
f 7/4/2 57/130/2 58/5/2
f 8/6/3 6/22/3 69/7/3
f 68/3/1 71/27/1 10/8/1
f 31/9/4 113/276/4 112/10/4
f 4/12/5 2/20/5 6/13/5
f 55/15/6 125/243/6 101/16/6
f 3/17/1 101/16/1 100/18/1
f 2/20/5 10/29/5 12/21/5
f 6/22/7 12/30/7 72/23/7
f 14/24/5 18/277/5 20/25/5
f 71/27/1 74/278/1 14/28/1
f 10/29/5 14/24/5 16/26/5
f 12/30/8 16/35/8 73/31/8
f 20/32/4 18/44/4 75/33/4
f 16/35/9 20/279/9 76/36/9
f 34/37/1 114/245/1 113/38/1
f 24/43/5 18/277/5 25/41/5
f 18/277/5 14/24/5 25/41/5
f 25/41/5 29/71/5 28/42/5
f 18/44/4 24/61/4 79/45/4
f 70/46/2 129/241/2 131/47/2
f 74/49/10 78/280/10 22/50/10
f 78/52/1 77/281/1 25/53/1
f 26/55/10 111/282/10 130/56/10
f 48/58/3 121/123/3 123/59/3
f 24/61/4 28/69/4 80/62/4
f 77/63/10 30/283/10 29/64/10
f 83/66/1 82/284/1 32/67/1
f 28/69/4 32/285/4 82/70/4
f 29/71/5 35/89/5 37/72/5
f 29/71/5 33/73/5 32/74/5
f 27/11/4 112/10/4 110/75/4
f 54/77/11 124/286/11 122/78/11
f 33/68/1 37/91/1 84/80/1
f 30/81/3 85/87/3 35/82/3
f 13/84/10 105/287/10 109/85/10
f 85/87/3 87/96/3 39/88/3
f 35/89/5 39/98/5 41/90/5
f 37/91/12 41/99/12 86/92/12
f 43/93/5 47/115/5 49/94/5
f 87/96/3 89/108/3 43/97/3
f 39/98/5 43/93/5 45/95/5
f 41/99/13 45/104/13 88/100/13
f 52/101/10 123/288/10 124/102/10
f 45/104/14 49/117/14 90/105/14
f 23/76/4 110/75/4 107/106/4
f 89/108/3 91/113/3 47/109/3
f 93/110/10 92/289/10 53/111/10
f 91/113/3 93/290/3 51/114/3
f 47/115/5 51/291/5 53/116/5
f 49/117/11 53/292/11 92/118/11
f 58/119/5 62/142/5 60/120/5
f 44/122/3 119/273/3 121/123/3
f 8/14/5 58/119/5 56/121/5
f 4/124/6 56/129/6 95/125/6
f 60/126/15 64/293/15 99/127/15
f 56/129/16 60/126/16 96/128/16
f 57/130/17 61/138/17 62/131/17
f 21/132/1 109/294/1 111/133/1
f 64/135/10 66/295/10 98/136/10
f 61/138/18 98/296/18 66/139/18
f 50/79/14 122/78/14 120/140/14
f 62/142/5 66/297/5 64/143/5
f 3/144/19 1/151/19 68/145/19
f 70/147/20 7/198/20 69/148/20
f 9/150/19 71/157/19 68/145/19
f 11/152/21 5/149/21 69/148/21
f 11/152/22 72/153/22 73/154/22
f 9/150/19 13/167/19 74/156/19
f 19/158/23 76/161/23 75/159/23
f 19/158/24 15/155/24 73/154/24
f 21/162/19 26/171/19 77/163/19
f 17/160/23 75/159/23 79/165/23
f 21/162/25 78/164/25 74/156/25
f 23/166/23 79/165/23 80/168/23
f 81/170/25 30/179/25 77/163/25
f 31/172/19 82/175/19 83/173/19
f 31/172/23 27/169/23 80/168/23
f 38/176/19 34/174/19 83/173/19
f 36/178/20 85/183/20 30/179/20
f 42/180/26 38/176/26 84/177/26
f 40/182/20 87/187/20 85/183/20
f 42/180/37 86/181/37 88/184/37
f 44/186/20 89/191/20 87/187/20
f 50/188/28 46/185/28 88/184/28
f 48/190/20 91/196/20 89/191/20
f 52/192/25 54/195/25 92/193/25
f 54/195/29 50/188/29 90/189/29
f 52/192/20 93/194/20 91/196/20
f 70/147/30 94/203/30 57/197/30
f 3/144/38 67/146/38 95/199/38
f 55/200/32 95/199/32 96/201/32
f 94/203/33 97/209/33 61/204/33
f 65/205/25 63/208/25 99/206/25
f 63/208/34 59/202/34 96/201/34
f 65/205/35 98/207/35 61/204/35
f 101/210/36 129/233/36 102/211/36
f 103/213/36 104/216/36 106/214/36
f 100/212/36 102/211/36 104/216/36
f 105/215/36 106/214/36 108/217/36
f 109/298/36 105/215/36 111/220/36
f 105/215/36 107/218/36 111/220/36
f 130/221/36 112/299/36 113/222/36
f 110/219/36 112/299/36 130/221/36
f 115/224/36 116/300/36 118/225/36
f 114/223/36 116/300/36 115/224/36
f 117/226/36 118/225/36 120/227/36
f 121/229/36 122/232/36 124/230/36
f 119/228/36 120/227/36 122/232/36
f 129/233/36 101/210/36 125/234/36
f 131/235/36 125/234/36 126/236/36
f 132/237/36 126/236/36 127/238/36
f 5/240/3 102/254/3 129/241/3
f 59/242/16 126/263/16 125/243/16
f 38/244/1 116/259/1 114/245/1
f 1/19/1 100/18/1 103/246/1
f 94/48/17 131/47/17 132/248/17
f 81/250/3 130/301/3 115/251/3
f 11/253/7 104/261/7 102/254/7
f 65/255/10 128/302/10 127/256/10
f 42/258/12 118/270/12 116/259/12
f 15/260/8 106/275/8 104/261/8
f 63/262/15 127/303/15 126/263/15
f 36/252/3 115/251/3 117/264/3
f 9/247/1 103/246/1 105/266/1
f 97/249/18 132/248/18 128/268/18
f 46/141/13 120/140/13 118/270/13
f 17/107/4 107/106/4 108/271/4
f 40/265/3 117/264/3 119/273/3
f 19/274/9 108/304/9 106/275/9
