# Blender v3.0.1 OBJ File: 'Main.blend'
# www.blender.org
o Cube.863_0012
v 0.813000 -0.231000 1.035000
v 0.813000 -0.210000 1.035000
v 0.819000 -0.231000 1.035000
v 0.819000 -0.210000 1.035000
v 0.819000 -0.210000 1.312500
v 0.819000 -0.231000 1.312500
v 0.813000 -0.231000 1.312500
v 0.813000 -0.210000 1.312500
vt 0.984762 0.242430
vt 0.984873 0.242051
vt 0.984873 0.242430
vt 0.984959 0.172907
vt 0.985068 0.173286
vt 0.984959 0.173286
vt 0.832226 0.916224
vt 0.832605 0.911217
vt 0.832605 0.916224
vt 0.921254 0.127392
vt 0.921365 0.132400
vt 0.921254 0.132400
vt 0.921396 0.674488
vt 0.921507 0.669481
vt 0.921507 0.674488
vt 0.728990 0.911054
vt 0.728611 0.916062
vt 0.728611 0.911054
vt 0.984762 0.242051
vt 0.985068 0.172907
vt 0.832226 0.911217
vt 0.921365 0.127392
vt 0.921396 0.669481
vt 0.728990 0.916062
vn 0.0000 0.0000 -1.0000
vn 0.0000 0.0000 1.0000
vn -1.0000 0.0000 0.0000
vn 0.0000 -1.0000 0.0000
vn 0.0000 1.0000 0.0000
vn 1.0000 0.0000 0.0000
s off
f 1/1/1 4/2/1 3/3/1
f 5/4/2 7/5/2 6/6/2
f 1/7/3 8/8/3 2/9/3
f 1/10/4 6/11/4 7/12/4
f 2/13/5 5/14/5 4/15/5
f 4/16/6 6/17/6 3/18/6
f 1/1/1 2/19/1 4/2/1
f 5/4/2 8/20/2 7/5/2
f 1/7/3 7/21/3 8/8/3
f 1/10/4 3/22/4 6/11/4
f 2/13/5 8/23/5 5/14/5
f 4/16/6 5/24/6 6/17/6
