# Blender v3.0.1 OBJ File: 'Main.blend'
# www.blender.org
o Cube.5669_0175
v 1.501837 0.012000 -0.105000
v 1.501837 0.012000 0.054000
v 1.446000 -0.009000 -0.105000
v 1.446000 -0.009000 0.054000
v 1.531225 0.018000 -0.105000
v 1.531225 0.018000 0.054000
v 1.560613 0.024000 -0.105000
v 1.560613 0.024000 0.054000
v 1.595878 0.028500 -0.105000
v 1.595878 0.028500 0.054000
v 1.628204 0.030000 -0.105000
v 1.628204 0.030000 0.054000
v 1.822163 0.012000 -0.105000
v 1.822163 0.012000 0.054000
v 1.878000 -0.009000 -0.105000
v 1.878000 -0.009000 0.054000
v 1.792776 0.018000 -0.105000
v 1.792776 0.018000 0.054000
v 1.763388 0.024000 -0.105000
v 1.763388 0.024000 0.054000
v 1.728123 0.028500 -0.105000
v 1.728123 0.028500 0.054000
v 1.695796 0.030000 -0.105000
v 1.695796 0.030000 0.054000
v 1.662000 0.031200 -0.105000
v 1.662000 0.031200 0.054000
v 1.473919 0.003000 -0.105000
v 1.473919 0.003000 0.054000
v 1.850082 0.003000 -0.105000
v 1.850082 0.003000 0.054000
v 1.501837 0.017866 -0.105000
v 1.501837 0.017866 0.054000
v 1.446000 0.000000 -0.105000
v 1.446000 0.000000 0.054000
v 1.531225 0.022970 -0.105000
v 1.531225 0.022970 0.054000
v 1.560613 0.028075 -0.105000
v 1.560613 0.028075 0.054000
v 1.595878 0.031903 -0.105000
v 1.595878 0.031903 0.054000
v 1.628204 0.033179 -0.105000
v 1.628204 0.033179 0.054000
v 1.822163 0.017866 -0.105000
v 1.822163 0.017866 0.054000
v 1.878000 0.000000 -0.105000
v 1.878000 0.000000 0.054000
v 1.792776 0.022970 -0.105000
v 1.792776 0.022970 0.054000
v 1.763388 0.028075 -0.105000
v 1.763388 0.028075 0.054000
v 1.728123 0.031903 -0.105000
v 1.728123 0.031903 0.054000
v 1.695796 0.033179 -0.105000
v 1.695796 0.033179 0.054000
v 1.662000 0.034200 -0.105000
v 1.662000 0.034200 0.054000
v 1.473919 0.010209 -0.105000
v 1.473919 0.010209 0.054000
v 1.850082 0.010209 -0.105000
v 1.850082 0.010209 0.054000
vt 0.370922 0.871428
vt 0.373792 0.871428
vt 0.373792 0.870914
vt 0.373792 0.870373
vt 0.370922 0.870373
vt 0.373792 0.869831
vt 0.370922 0.869831
vt 0.373792 0.869182
vt 0.373792 0.868586
vt 0.370922 0.868586
vt 0.373792 0.867964
vt 0.373792 0.865013
vt 0.373792 0.864499
vt 0.370922 0.864499
vt 0.370922 0.865013
vt 0.370922 0.865555
vt 0.373792 0.865555
vt 0.370922 0.866096
vt 0.373792 0.866746
vt 0.373792 0.866096
vt 0.370922 0.866746
vt 0.370922 0.867341
vt 0.373792 0.867341
vt 0.373792 0.863985
vt 0.370922 0.863985
vt 0.370922 0.871942
vt 0.373792 0.871942
vt 0.198808 0.871286
vt 0.198808 0.871801
vt 0.201678 0.871801
vt 0.201678 0.871286
vt 0.201678 0.870745
vt 0.198808 0.870745
vt 0.201678 0.870204
vt 0.198808 0.870204
vt 0.201678 0.869554
vt 0.198808 0.868959
vt 0.198808 0.869554
vt 0.198808 0.868336
vt 0.201678 0.868959
vt 0.201678 0.864871
vt 0.198808 0.864871
vt 0.198808 0.865386
vt 0.198808 0.865927
vt 0.201678 0.865927
vt 0.198808 0.866468
vt 0.201678 0.866468
vt 0.198808 0.867118
vt 0.201678 0.867118
vt 0.198808 0.867713
vt 0.201678 0.867713
vt 0.201678 0.864357
vt 0.198808 0.864357
vt 0.198808 0.872315
vt 0.201678 0.872315
vt 0.044949 0.889577
vt 0.045057 0.889036
vt 0.044967 0.889036
vt 0.044875 0.893312
vt 0.044949 0.893312
vt 0.044868 0.892663
vt 0.045197 0.894909
vt 0.045328 0.894909
vt 0.045165 0.894395
vt 0.524170 0.893132
vt 0.524097 0.893132
vt 0.524189 0.893674
vt 0.524089 0.890046
vt 0.524170 0.889397
vt 0.524097 0.889397
vt 0.524549 0.894730
vt 0.524419 0.894730
vt 0.524603 0.895244
vt 0.045165 0.888494
vt 0.045328 0.887980
vt 0.045197 0.887980
vt 0.524549 0.887801
vt 0.524765 0.887285
vt 0.524603 0.887285
vt 0.044868 0.890227
vt 0.044875 0.889577
vt 0.044806 0.892663
vt 0.044840 0.892067
vt 0.045381 0.895424
vt 0.045544 0.895424
vt 0.524089 0.892483
vt 0.524027 0.892483
vt 0.524062 0.890642
vt 0.524027 0.890046
vt 0.524386 0.894214
vt 0.524281 0.894214
vt 0.935624 0.905529
vt 0.935462 0.905529
vt 0.935462 0.908399
vt 0.044840 0.890822
vt 0.044806 0.890227
vt 0.045544 0.887466
vt 0.045381 0.887466
vt 0.524062 0.891887
vt 0.524004 0.891887
vt 0.045060 0.894395
vt 0.045057 0.893854
vt 0.935453 0.398297
vt 0.935453 0.401167
vt 0.935615 0.401167
vt 0.524278 0.888857
vt 0.524386 0.888314
vt 0.524281 0.888314
vt 0.044819 0.891445
vt 0.044783 0.890822
vt 0.524041 0.891264
vt 0.523986 0.891264
vt 0.045060 0.888494
vt 0.044967 0.893854
vt 0.044783 0.892067
vt 0.524278 0.893674
vt 0.524189 0.888857
vt 0.524004 0.890642
vt 0.524419 0.887801
vt 0.370922 0.870914
vt 0.370922 0.869182
vt 0.370922 0.867964
vt 0.201678 0.868336
vt 0.201678 0.865386
vt 0.524765 0.895244
vt 0.935624 0.908399
vt 0.935615 0.398297
vt 0.044765 0.891445
vn 0.3512 -0.9363 0.0000
vn 0.2538 -0.9673 0.0000
vn 0.2000 -0.9798 0.0000
vn 0.1634 -0.9866 0.0000
vn 0.0865 -0.9962 0.0000
vn 0.0409 -0.9992 0.0000
vn 0.0000 -1.0000 0.0000
vn -0.2538 -0.9673 0.0000
vn -0.3512 -0.9363 0.0000
vn -0.2000 -0.9798 0.0000
vn -0.1634 -0.9866 0.0000
vn -0.0865 -0.9962 0.0000
vn -0.0409 -0.9992 0.0000
vn -0.3949 -0.9187 0.0000
vn 0.3949 -0.9187 0.0000
vn -0.2181 0.9759 -0.0000
vn -0.3042 0.9526 0.0000
vn -0.1711 0.9852 -0.0000
vn -0.1396 0.9902 -0.0000
vn -0.0737 0.9973 0.0000
vn -0.0348 0.9994 0.0000
vn -0.0000 1.0000 -0.0000
vn 0.3042 0.9526 0.0000
vn 0.2181 0.9759 -0.0000
vn 0.1711 0.9852 -0.0000
vn 0.1396 0.9902 0.0000
vn 0.0737 0.9973 0.0000
vn 0.0348 0.9994 0.0000
vn 0.3434 0.9392 0.0000
vn -0.3434 0.9392 0.0000
vn 0.0000 0.0000 1.0000
vn 0.0000 0.0000 -1.0000
vn -1.0000 0.0000 0.0000
vn 1.0000 0.0000 0.0000
s 1
f 28/1/1 27/2/1 1/3/2
f 1/3/2 5/4/3 6/5/3
f 6/5/3 5/4/3 7/6/4
f 8/7/4 7/6/4 9/8/5
f 9/8/5 11/9/6 12/10/6
f 12/10/6 11/9/6 25/11/7
f 13/12/8 29/13/9 30/14/9
f 13/12/8 14/15/8 18/16/10
f 17/17/10 18/16/10 20/18/11
f 21/19/12 19/20/11 20/18/11
f 21/19/12 22/21/12 24/22/13
f 25/11/7 23/23/13 24/22/13
f 29/13/9 15/24/14 16/25/14
f 4/26/15 3/27/15 27/2/1
f 31/28/16 57/29/17 58/30/17
f 31/28/16 32/31/16 36/32/18
f 35/33/18 36/32/18 38/34/19
f 37/35/19 38/34/19 40/36/20
f 41/37/21 39/38/20 40/36/20
f 55/39/22 41/37/21 42/40/21
f 60/41/23 59/42/23 43/43/24
f 43/43/24 47/44/25 48/45/25
f 47/44/25 49/46/26 50/47/26
f 49/46/26 51/48/27 52/49/27
f 51/48/27 53/50/28 54/51/28
f 54/51/28 53/50/28 55/39/22
f 46/52/29 45/53/29 59/42/23
f 33/54/30 34/55/30 58/30/17
f 20/56/31 18/57/31 48/58/31
f 38/59/31 8/60/31 10/61/31
f 58/62/31 28/63/31 2/64/31
f 19/65/32 49/66/32 47/67/32
f 9/68/32 7/69/32 37/70/32
f 29/71/32 59/72/32 45/73/32
f 14/74/31 30/75/31 60/76/31
f 27/77/32 3/78/32 33/79/32
f 22/80/31 20/56/31 50/81/31
f 40/82/31 10/61/31 12/83/31
f 34/84/31 4/85/31 28/63/31
f 21/86/32 51/87/32 49/66/32
f 11/88/32 9/68/32 39/89/32
f 13/90/32 43/91/32 59/72/32
f 33/92/33 3/93/33 4/94/33
f 24/95/31 22/80/31 52/96/31
f 30/75/31 16/97/31 46/98/31
f 23/99/32 53/100/32 51/87/32
f 32/101/31 2/64/31 6/102/31
f 16/103/34 15/104/34 45/105/34
f 5/106/32 1/107/32 31/108/32
f 26/109/31 24/95/31 54/110/31
f 25/111/32 55/112/32 53/100/32
f 18/57/31 14/74/31 44/113/31
f 36/114/31 6/102/31 8/60/31
f 42/115/31 12/83/31 26/109/31
f 17/116/32 47/67/32 43/91/32
f 7/69/32 5/106/32 35/117/32
f 25/111/32 11/88/32 41/118/32
f 1/107/32 27/77/32 57/119/32
f 28/1/1 1/3/2 2/120/2
f 1/3/2 6/5/3 2/120/2
f 6/5/3 7/6/4 8/7/4
f 8/7/4 9/8/5 10/121/5
f 9/8/5 12/10/6 10/121/5
f 12/10/6 25/11/7 26/122/7
f 13/12/8 30/14/9 14/15/8
f 13/12/8 18/16/10 17/17/10
f 17/17/10 20/18/11 19/20/11
f 21/19/12 20/18/11 22/21/12
f 21/19/12 24/22/13 23/23/13
f 25/11/7 24/22/13 26/122/7
f 29/13/9 16/25/14 30/14/9
f 4/26/15 27/2/1 28/1/1
f 31/28/16 58/30/17 32/31/16
f 31/28/16 36/32/18 35/33/18
f 35/33/18 38/34/19 37/35/19
f 37/35/19 40/36/20 39/38/20
f 41/37/21 40/36/20 42/40/21
f 55/39/22 42/40/21 56/123/22
f 60/41/23 43/43/24 44/124/24
f 43/43/24 48/45/25 44/124/24
f 47/44/25 50/47/26 48/45/25
f 49/46/26 52/49/27 50/47/26
f 51/48/27 54/51/28 52/49/27
f 54/51/28 55/39/22 56/123/22
f 46/52/29 59/42/23 60/41/23
f 33/54/30 58/30/17 57/29/17
f 20/56/31 48/58/31 50/81/31
f 38/59/31 10/61/31 40/82/31
f 58/62/31 2/64/31 32/101/31
f 19/65/32 47/67/32 17/116/32
f 9/68/32 37/70/32 39/89/32
f 29/71/32 45/73/32 15/125/32
f 14/74/31 60/76/31 44/113/31
f 27/77/32 33/79/32 57/119/32
f 22/80/31 50/81/31 52/96/31
f 40/82/31 12/83/31 42/115/31
f 34/84/31 28/63/31 58/62/31
f 21/86/32 49/66/32 19/65/32
f 11/88/32 39/89/32 41/118/32
f 13/90/32 59/72/32 29/71/32
f 33/92/33 4/94/33 34/126/33
f 24/95/31 52/96/31 54/110/31
f 30/75/31 46/98/31 60/76/31
f 23/99/32 51/87/32 21/86/32
f 32/101/31 6/102/31 36/114/31
f 16/103/34 45/105/34 46/127/34
f 5/106/32 31/108/32 35/117/32
f 26/109/31 54/110/31 56/128/31
f 25/111/32 53/100/32 23/99/32
f 18/57/31 44/113/31 48/58/31
f 36/114/31 8/60/31 38/59/31
f 42/115/31 26/109/31 56/128/31
f 17/116/32 43/91/32 13/90/32
f 7/69/32 35/117/32 37/70/32
f 25/111/32 41/118/32 55/112/32
f 1/107/32 57/119/32 31/108/32
