# Blender v3.0.1 OBJ File: 'Main.blend'
# www.blender.org
o Cube.5624_0273
v -1.434002 1.005817 0.217110
v -1.431003 1.005817 0.217110
v -1.431003 1.031069 0.191936
v -1.434002 1.031069 0.191936
v -1.431003 0.960388 0.248821
v -1.434002 0.960388 0.248821
v -1.434002 0.813742 0.290458
v -1.434002 0.856540 0.286502
v -1.434002 0.910120 0.272189
v -1.434002 0.776925 0.290458
v -1.434002 0.776925 0.191936
v -1.431003 0.910120 0.272189
v -1.431003 0.856540 0.286502
v -1.431003 0.813741 0.290458
v -1.431003 0.776925 0.191936
v -1.431003 0.776925 0.290458
vt 0.391667 0.625000
vt 0.558264 0.625000
vt 0.558264 0.662492
vt 0.415800 0.662492
vt 0.415801 0.625000
vt 0.391667 0.625000
vt 0.164375 0.549523
vt 0.125625 0.549523
vt 0.125625 0.549619
vt 0.550578 0.200470
vt 0.598508 0.200470
vt 0.598508 0.200370
vt 0.520830 0.200370
vt 0.520830 0.200470
vt 0.487916 0.200470
vt 0.487916 0.200370
vt 0.452837 0.200370
vt 0.452837 0.200470
vt 0.425376 0.200374
vt 0.391667 0.662492
vt 0.164375 0.549619
vt 0.391667 0.662492
vt 0.550578 0.200370
vt 0.425375 0.200472
vn 0.0000 0.0000 -1.0000
vn 0.0000 0.0461 0.9989
vn 0.0000 0.0000 1.0000
vn -0.0000 -1.0000 -0.0000
vn 0.0000 0.6417 0.7670
vn 0.0000 0.7060 0.7082
vn 0.0000 0.4988 0.8667
vn 0.0000 0.3411 0.9400
vn 0.0000 0.1757 0.9844
vn 1.0000 0.0000 0.0000
vn -1.0000 0.0000 0.0000
s 1
f 11/1/1 4/2/1 3/3/1
f 14/4/2 7/5/2 10/6/3
f 15/7/4 16/8/4 10/9/4
f 2/10/5 3/11/6 4/12/6
f 6/13/7 5/14/7 2/10/5
f 12/15/8 5/14/7 6/13/7
f 12/15/8 9/16/8 8/17/9
f 13/18/9 8/17/9 7/19/2
f 5/14/10 15/20/10 2/10/10
f 6/13/11 11/21/11 9/16/11
f 11/1/1 3/3/1 15/20/1
f 14/4/2 10/6/3 16/22/3
f 15/7/4 10/9/4 11/21/4
f 2/10/5 4/12/6 1/23/5
f 6/13/7 2/10/5 1/23/5
f 12/15/8 6/13/7 9/16/8
f 12/15/8 8/17/9 13/18/9
f 13/18/9 7/19/2 14/24/2
f 2/10/10 15/20/10 3/3/10
f 15/20/10 14/4/10 16/8/10
f 14/4/10 15/20/10 13/18/10
f 13/18/10 15/20/10 12/15/10
f 12/15/10 15/20/10 5/14/10
f 8/17/11 11/21/11 7/5/11
f 7/5/11 11/21/11 10/6/11
f 11/21/11 1/23/11 4/2/11
f 8/17/11 9/16/11 11/21/11
f 1/23/11 11/21/11 6/13/11
