# Blender v3.0.1 OBJ File: 'Main.blend'
# www.blender.org
o Cube.207_0289
v -1.872000 0.000000 2.934000
v -1.872000 -0.012000 2.934000
v 1.884000 0.000000 2.934000
v 1.884000 -0.012000 2.934000
v -1.872000 0.000000 3.588000
v -1.872000 -0.012000 3.588000
v 1.884000 0.000000 3.555000
v 1.884000 -0.012000 3.555000
vt 0.824089 0.451958
vt 0.823873 0.384183
vt 0.824089 0.384183
vt 0.824089 0.312711
vt 0.823873 0.380486
vt 0.823873 0.312711
vt 0.127618 0.743978
vt 0.138823 0.676203
vt 0.139418 0.743978
vt 0.549320 0.886374
vt 0.549537 0.874574
vt 0.549537 0.886374
vt 0.672612 0.679604
vt 0.683816 0.747379
vt 0.672612 0.747379
vt 0.757864 0.876978
vt 0.757647 0.888182
vt 0.757647 0.876978
vt 0.823873 0.451958
vt 0.824089 0.380486
vt 0.127618 0.676203
vt 0.549320 0.874574
vt 0.684412 0.679604
vt 0.757864 0.888182
vn 0.0000 0.0000 -1.0000
vn 0.0088 0.0000 1.0000
vn 0.0000 -1.0000 0.0000
vn -1.0000 0.0000 0.0000
vn 0.0000 1.0000 0.0000
vn 1.0000 0.0000 0.0000
s off
f 3/1/1 2/2/1 1/3/1
f 6/4/2 7/5/2 5/6/2
f 2/7/3 8/8/3 6/9/3
f 2/10/4 5/11/4 1/12/4
f 1/13/5 7/14/5 3/15/5
f 3/16/6 8/17/6 4/18/6
f 3/1/1 4/19/1 2/2/1
f 6/4/2 8/20/2 7/5/2
f 2/7/3 4/21/3 8/8/3
f 2/10/4 6/22/4 5/11/4
f 1/13/5 5/23/5 7/14/5
f 3/16/6 7/24/6 8/17/6
