# Blender v3.0.1 OBJ File: 'Main.blend'
# www.blender.org
o Cube.5341_0250
v -0.471001 0.459000 -3.402000
v -1.377001 0.459000 -3.402000
v -0.471001 0.480000 -3.402000
v -1.377001 0.480000 -3.402000
v -1.377001 0.459000 -3.396000
v -0.471001 0.459000 -3.396000
v -1.377001 0.480000 -3.396000
v -0.471001 0.480000 -3.396000
vt 0.870231 0.665919
vt 0.870609 0.682271
vt 0.870231 0.682271
vt 0.838169 0.853915
vt 0.837791 0.870267
vt 0.837791 0.853915
vt 0.875396 0.005930
vt 0.875288 0.022282
vt 0.875288 0.005930
vt 0.985232 0.467989
vt 0.985341 0.467611
vt 0.985341 0.467989
vt 0.875269 0.290207
vt 0.875161 0.306559
vt 0.875161 0.290207
vt 0.985587 0.706046
vt 0.985479 0.706424
vt 0.985479 0.706046
vt 0.870609 0.665919
vt 0.838169 0.870267
vt 0.875396 0.022282
vt 0.985232 0.467611
vt 0.875269 0.306559
vt 0.985587 0.706424
vn 0.0000 0.0000 -1.0000
vn 0.0000 0.0000 1.0000
vn 0.0000 -1.0000 0.0000
vn -1.0000 0.0000 0.0000
vn 0.0000 1.0000 0.0000
vn 1.0000 0.0000 0.0000
s off
f 2/1/1 3/2/1 1/3/1
f 8/4/2 5/5/2 6/6/2
f 6/7/3 2/8/3 1/9/3
f 5/10/4 4/11/4 2/12/4
f 7/13/5 3/14/5 4/15/5
f 8/16/6 1/17/6 3/18/6
f 2/1/1 4/19/1 3/2/1
f 8/4/2 7/20/2 5/5/2
f 6/7/3 5/21/3 2/8/3
f 5/10/4 7/22/4 4/11/4
f 7/13/5 8/23/5 3/14/5
f 8/16/6 6/24/6 1/17/6
