# Blender v3.0.1 OBJ File: 'Main.blend'
# www.blender.org
o Cube.5343_0258
v -1.491001 0.459000 -3.411000
v -1.812001 0.459000 -3.411000
v -1.491001 0.480000 -3.411000
v -1.812001 0.480000 -3.411000
v -1.812001 0.459000 -3.405000
v -1.491001 0.459000 -3.405000
v -1.812001 0.480000 -3.405000
v -1.491001 0.480000 -3.405000
vt 0.748726 0.906334
vt 0.749105 0.912131
vt 0.748726 0.912131
vt 0.745030 0.906334
vt 0.744652 0.912123
vt 0.744652 0.906334
vt 0.249835 0.915497
vt 0.249943 0.909707
vt 0.249943 0.915497
vt 0.554759 0.985200
vt 0.554651 0.985578
vt 0.554651 0.985200
vt 0.915278 0.284920
vt 0.915387 0.279123
vt 0.915387 0.284920
vt 0.007153 0.985487
vt 0.007262 0.985109
vt 0.007262 0.985487
vt 0.749105 0.906334
vt 0.745030 0.912123
vt 0.249835 0.909707
vt 0.554759 0.985578
vt 0.915278 0.279123
vt 0.007153 0.985109
vn 0.0000 0.0000 -1.0000
vn 0.0000 0.0000 1.0000
vn 0.0000 1.0000 0.0000
vn 1.0000 0.0000 0.0000
vn 0.0000 -1.0000 0.0000
vn -1.0000 0.0000 0.0000
s off
f 2/1/1 3/2/1 1/3/1
f 8/4/2 5/5/2 6/6/2
f 7/7/3 3/8/3 4/9/3
f 8/10/4 1/11/4 3/12/4
f 6/13/5 2/14/5 1/15/5
f 5/16/6 4/17/6 2/18/6
f 2/1/1 4/19/1 3/2/1
f 8/4/2 7/20/2 5/5/2
f 7/7/3 8/21/3 3/8/3
f 8/10/4 6/22/4 1/11/4
f 6/13/5 5/23/5 2/14/5
f 5/16/6 7/24/6 4/17/6
