# Blender v3.0.1 OBJ File: 'Main.blend'
# www.blender.org
o Cube.5570_0088
v -0.846764 1.118562 -0.515998
v -0.846764 1.118562 -0.507000
v -0.790503 1.123500 -0.515998
v -0.790503 1.123500 -0.507000
v -1.114502 0.751500 -0.507000
v -1.114502 0.798489 -0.507000
v -1.109579 0.854926 -0.507000
v -1.094962 0.909649 -0.507000
v -1.071094 0.960994 -0.507000
v -0.998765 1.047462 -0.507000
v -1.038700 1.007402 -0.507000
v -0.466502 0.751500 -0.507000
v -0.901316 1.103899 -0.515998
v -0.901316 1.103899 -0.507000
v -0.952502 1.079957 -0.507000
v -0.679687 1.103899 -0.507000
v -0.734240 1.118562 -0.507000
v -0.582239 1.047462 -0.507000
v -0.509910 0.960994 -0.507000
v -0.542303 1.007402 -0.507000
v -0.952502 1.079957 -0.515998
v -0.471424 0.854926 -0.507000
v -0.466502 0.798489 -0.507000
v -0.486041 0.909649 -0.507000
v -0.628502 1.079957 -0.507000
v -0.998765 1.047462 -0.515998
v -1.038700 1.007402 -0.515998
v -1.071094 0.960994 -0.515998
v -1.094962 0.909649 -0.515998
v -1.109579 0.854926 -0.515998
v -1.114502 0.798489 -0.515998
v -1.114503 0.751500 -0.515998
v -0.466503 0.751500 -0.515998
v -0.734240 1.118562 -0.515998
v -0.466502 0.798489 -0.515998
v -0.679687 1.103899 -0.515998
v -0.471424 0.854926 -0.515998
v -0.628502 1.079957 -0.515998
v -0.486041 0.909649 -0.515998
v -0.509910 0.960994 -0.515998
v -0.542303 1.007402 -0.515998
v -0.582239 1.047462 -0.515998
v -0.963003 1.042528 -0.515998
v -0.963003 1.042528 -0.507000
v -0.837003 1.094731 -0.507000
v -0.837003 1.094731 -0.515998
v -0.940130 1.058594 -0.515998
v -0.892850 1.080709 -0.515998
v -0.870003 1.086850 -0.515998
v -1.019766 0.991563 -0.515998
v -1.019766 0.991563 -0.507000
v -0.837003 0.775500 -0.515998
v -0.837003 0.775500 -0.507000
v -0.996003 1.015400 -0.507000
v -0.996003 1.015400 -0.515998
v -1.049700 0.948680 -0.507000
v -1.049700 0.948680 -0.515998
v -0.870003 1.086850 -0.507000
v -1.089003 0.810253 -0.515998
v -1.085268 0.850653 -0.515998
v -1.071758 0.901229 -0.515998
v -0.870003 0.775500 -0.515998
v -1.089003 0.775500 -0.515998
v -0.870003 0.775500 -0.507000
v -0.996003 0.775500 -0.515998
v -0.963003 0.775500 -0.515998
v -0.711003 1.086850 -0.515998
v -0.744003 1.094731 -0.515998
v -0.640874 1.058594 -0.515998
v -0.688154 1.080709 -0.515998
v -0.561237 0.991563 -0.515998
v -1.071758 0.901229 -0.507000
v -0.585003 1.015402 -0.515998
v -0.618003 1.042530 -0.515998
v -0.509245 0.901229 -0.515998
v -0.531304 0.948680 -0.515998
v -0.963003 0.775500 -0.507000
v -1.085268 0.850653 -0.507000
v -0.744003 0.775500 -0.515998
v -0.711003 0.775500 -0.515998
v -0.585003 0.775500 -0.515998
v -0.618003 0.775500 -0.515998
v -0.492003 0.810275 -0.515998
v -0.492003 0.775500 -0.515998
v -1.089003 0.810253 -0.507000
v -0.495735 0.850653 -0.515998
v -0.790503 1.098812 -0.515998
v -0.790503 1.098812 -0.507000
v -0.744003 1.094731 -0.507000
v -0.996003 0.775500 -0.507000
v -0.688154 1.080709 -0.507000
v -0.492003 0.810276 -0.507000
v -0.492003 0.775500 -0.507000
v -0.711003 1.086850 -0.507000
v -0.640874 1.058594 -0.507000
v -1.089003 0.775500 -0.507000
v -0.618003 1.042530 -0.507000
v -0.585003 1.015402 -0.507000
v -0.744003 0.775500 -0.507000
v -0.561237 0.991563 -0.507000
v -0.711003 0.775500 -0.507000
v -0.585003 0.775500 -0.507000
v -0.618003 0.775500 -0.507000
v -0.531304 0.948680 -0.507000
v -0.509245 0.901229 -0.507000
v -0.495735 0.850653 -0.507000
v -0.892850 1.080709 -0.507000
v -0.940130 1.058594 -0.507000
vt 0.361326 0.911896
vt 0.361163 0.911896
vt 0.361163 0.912744
vt 0.264862 0.887744
vt 0.265024 0.887744
vt 0.265024 0.876051
vt 0.690357 0.912797
vt 0.690357 0.911949
vt 0.690194 0.911949
vt 0.906514 0.058702
vt 0.906676 0.058702
vt 0.906676 0.057687
vt 0.906514 0.056702
vt 0.906514 0.057687
vt 0.906676 0.055779
vt 0.906514 0.055779
vt 0.906676 0.054944
vt 0.906514 0.054944
vt 0.361326 0.917236
vt 0.361326 0.916513
vt 0.361163 0.916513
vt 0.361326 0.915677
vt 0.361163 0.915677
vt 0.361326 0.914750
vt 0.361163 0.914750
vt 0.361326 0.913763
vt 0.361163 0.913763
vt 0.361326 0.912744
vt 0.906676 0.059717
vt 0.906514 0.059717
vt 0.906514 0.060702
vt 0.906676 0.060702
vt 0.906514 0.061626
vt 0.906676 0.061626
vt 0.906514 0.062460
vt 0.690194 0.916566
vt 0.690194 0.917289
vt 0.690357 0.917289
vt 0.690194 0.915730
vt 0.690357 0.916566
vt 0.690194 0.914803
vt 0.690357 0.915730
vt 0.690194 0.913815
vt 0.690357 0.914803
vt 0.690194 0.912797
vt 0.690357 0.913815
vt 0.562541 0.837408
vt 0.562051 0.836812
vt 0.557722 0.837408
vt 0.562629 0.844279
vt 0.562541 0.843633
vt 0.562051 0.844229
vt 0.557722 0.841359
vt 0.563341 0.841955
vt 0.563483 0.841359
vt 0.521927 0.835723
vt 0.521913 0.836800
vt 0.522312 0.835947
vt 0.523236 0.843126
vt 0.523522 0.842784
vt 0.523092 0.842356
vt 0.521802 0.840082
vt 0.527421 0.839486
vt 0.521660 0.839486
vt 0.914261 0.657914
vt 0.914423 0.657914
vt 0.914423 0.652153
vt 0.638612 0.915842
vt 0.638612 0.910224
vt 0.638450 0.910224
vt 0.922351 0.575863
vt 0.922513 0.575863
vt 0.922513 0.571045
vt 0.924472 0.414694
vt 0.924309 0.414694
vt 0.924309 0.419023
vt 0.914260 0.530297
vt 0.914423 0.530297
vt 0.914423 0.524537
vt 0.591913 0.910201
vt 0.591750 0.910201
vt 0.591750 0.915819
vt 0.922567 0.834331
vt 0.922404 0.834331
vt 0.922404 0.839150
vt 0.397539 0.920208
vt 0.397377 0.920208
vt 0.397377 0.924536
vt 0.462193 0.923999
vt 0.462193 0.923372
vt 0.462031 0.923372
vt 0.832443 0.923623
vt 0.832443 0.924250
vt 0.832605 0.924250
vt 0.946259 0.183681
vt 0.946097 0.183681
vt 0.946097 0.185360
vt 0.946034 0.046233
vt 0.945872 0.046233
vt 0.945872 0.047912
vt 0.051380 0.946591
vt 0.051542 0.946591
vt 0.051542 0.944913
vt 0.537749 0.944824
vt 0.537587 0.944824
vt 0.537587 0.946501
vt 0.872469 0.944938
vt 0.872307 0.944938
vt 0.872307 0.946615
vt 0.946024 0.581008
vt 0.945862 0.581008
vt 0.945862 0.581847
vt 0.713189 0.945769
vt 0.713189 0.946182
vt 0.713351 0.946182
vt 0.713189 0.944916
vt 0.713351 0.945769
vt 0.713351 0.944503
vt 0.713189 0.944503
vt 0.832605 0.919921
vt 0.832443 0.919921
vt 0.832443 0.920351
vt 0.832443 0.921125
vt 0.832605 0.921125
vt 0.832443 0.921982
vt 0.832605 0.922894
vt 0.832605 0.921982
vt 0.832605 0.923623
vt 0.832443 0.922894
vt 0.946024 0.580169
vt 0.945862 0.580169
vt 0.946235 0.277092
vt 0.946235 0.276679
vt 0.946072 0.276679
vt 0.946235 0.275826
vt 0.946072 0.275826
vt 0.946235 0.275414
vt 0.946072 0.275414
vt 0.462031 0.920100
vt 0.462193 0.920100
vt 0.462193 0.919669
vt 0.462031 0.920874
vt 0.462193 0.920874
vt 0.462031 0.921730
vt 0.462193 0.921730
vt 0.462031 0.922643
vt 0.462193 0.922643
vt 0.264862 0.876051
vt 0.906676 0.056702
vt 0.361163 0.917236
vt 0.906676 0.062460
vt 0.559991 0.835445
vt 0.559155 0.834762
vt 0.559078 0.835202
vt 0.560142 0.835027
vt 0.560847 0.835843
vt 0.561069 0.835457
vt 0.561621 0.836383
vt 0.561907 0.836042
vt 0.562629 0.836762
vt 0.563216 0.837597
vt 0.563230 0.838674
vt 0.563648 0.838521
vt 0.562831 0.837820
vt 0.563341 0.839086
vt 0.563913 0.839505
vt 0.563483 0.839681
vt 0.564001 0.840520
vt 0.563556 0.840520
vt 0.557722 0.839681
vt 0.557722 0.839086
vt 0.557722 0.836812
vt 0.562831 0.843220
vt 0.563216 0.843443
vt 0.563230 0.842367
vt 0.563648 0.842520
vt 0.561907 0.845000
vt 0.561621 0.844658
vt 0.557722 0.843633
vt 0.557722 0.844229
vt 0.561069 0.845584
vt 0.560847 0.845197
vt 0.560142 0.846014
vt 0.559991 0.845595
vt 0.559155 0.846278
vt 0.558350 0.845906
vt 0.558137 0.846367
vt 0.557722 0.845906
vt 0.557289 0.846367
vt 0.557289 0.834674
vt 0.557722 0.835134
vt 0.558137 0.834674
vt 0.558350 0.835134
vt 0.559078 0.845840
vt 0.557722 0.841955
vt 0.563913 0.841536
vt 0.527421 0.837807
vt 0.521802 0.837213
vt 0.521660 0.837807
vt 0.521230 0.837632
vt 0.521495 0.836648
vt 0.522602 0.835534
vt 0.522513 0.834889
vt 0.523092 0.834939
vt 0.523236 0.834168
vt 0.523522 0.834510
vt 0.527421 0.835534
vt 0.527421 0.834939
vt 0.527421 0.837213
vt 0.524296 0.843325
vt 0.525000 0.844141
vt 0.525152 0.843722
vt 0.524073 0.843710
vt 0.522513 0.842405
vt 0.522602 0.841760
vt 0.521927 0.841570
vt 0.522312 0.841347
vt 0.527421 0.841760
vt 0.527421 0.842356
vt 0.524296 0.833970
vt 0.524073 0.833584
vt 0.525000 0.833153
vt 0.525152 0.833572
vt 0.525988 0.832889
vt 0.526793 0.833260
vt 0.527006 0.832800
vt 0.526065 0.833328
vt 0.527854 0.844493
vt 0.527421 0.844033
vt 0.527006 0.844493
vt 0.526794 0.844033
vt 0.525988 0.844404
vt 0.526065 0.843966
vt 0.527421 0.833260
vt 0.527854 0.832800
vt 0.527421 0.840082
vt 0.521913 0.840494
vt 0.521495 0.840647
vt 0.521230 0.839662
vt 0.521141 0.838647
vt 0.521587 0.838647
vt 0.914261 0.652153
vt 0.638450 0.915842
vt 0.922351 0.571045
vt 0.924472 0.419023
vt 0.914260 0.524537
vt 0.591913 0.915819
vt 0.922567 0.839150
vt 0.397539 0.924536
vt 0.462031 0.923999
vt 0.946259 0.185360
vt 0.946034 0.047912
vt 0.051380 0.944913
vt 0.537749 0.946501
vt 0.872469 0.946615
vt 0.946024 0.581847
vt 0.713351 0.944916
vt 0.832605 0.920351
vt 0.946072 0.277092
vt 0.462031 0.919669
vn -1.0000 0.0000 0.0001
vn -0.9991 0.0435 0.0000
vn 0.0000 -1.0000 -0.0000
vn 0.9991 0.0435 -0.0000
vn 1.0000 0.0000 -0.0001
vn -0.0000 1.0000 0.0000
vn -0.1742 0.9847 0.0000
vn -0.3429 0.9394 0.0000
vn -0.5012 0.8654 0.0000
vn -0.6439 0.7651 0.0000
vn -0.7670 0.6416 0.0000
vn -0.8667 0.4988 0.0000
vn -0.8667 0.4989 0.0000
vn -0.9400 0.3411 0.0000
vn -0.9849 0.1731 0.0000
vn 0.1742 0.9847 0.0000
vn 0.3429 0.9394 0.0000
vn 0.5012 0.8654 0.0000
vn 0.6439 0.7651 0.0000
vn 0.7670 0.6416 0.0000
vn 0.8667 0.4989 0.0000
vn 0.9400 0.3411 0.0000
vn 0.9849 0.1731 0.0000
vn 0.0000 0.0000 -1.0000
vn 0.0000 0.0000 1.0000
vn -1.0000 0.0000 0.0000
vn 1.0000 0.0000 0.0000
vn -0.9989 -0.0461 0.0000
vn 0.9989 -0.0461 -0.0000
vn 0.0874 -0.9962 0.0000
vn 0.3429 -0.9394 0.0000
vn 0.2596 -0.9657 0.0000
vn 0.5011 -0.8654 0.0000
vn 0.5748 -0.8183 0.0000
vn 0.7082 -0.7060 0.0000
vn 0.7670 -0.6416 0.0000
vn 0.8667 -0.4989 0.0000
vn 0.9400 -0.3411 0.0000
vn 0.9844 -0.1757 0.0000
vn -0.0874 -0.9962 0.0000
vn -0.2596 -0.9657 0.0000
vn -0.3429 -0.9394 0.0000
vn -0.5011 -0.8654 0.0000
vn -0.5748 -0.8183 0.0000
vn -0.7670 -0.6416 0.0000
vn -0.7082 -0.7060 0.0000
vn -0.8667 -0.4989 0.0000
vn -0.9400 -0.3411 0.0000
vn -0.9844 -0.1757 0.0000
s 1
f 32/1/1 5/2/1 6/3/2
f 33/4/3 12/5/3 5/6/3
f 23/7/4 12/8/5 33/9/5
f 4/10/6 3/11/6 1/12/7
f 14/13/8 2/14/7 1/12/7
f 21/15/9 15/16/9 14/13/8
f 26/17/10 10/18/10 15/16/9
f 26/19/10 27/20/11 11/21/11
f 27/20/11 28/22/12 9/23/13
f 28/22/12 29/24/14 8/25/14
f 29/24/14 30/26/15 7/27/15
f 30/26/15 31/28/2 6/3/2
f 34/29/16 3/11/6 4/10/6
f 34/29/16 17/30/16 16/31/17
f 36/32/17 16/31/17 25/33/18
f 38/34/18 25/33/18 18/35/19
f 41/36/20 42/37/19 18/38/19
f 40/39/21 41/36/20 20/40/20
f 39/41/22 40/39/21 19/42/21
f 37/43/23 39/41/22 24/44/22
f 35/45/4 37/43/23 22/46/23
f 74/47/24 73/48/24 82/49/24
f 26/50/24 43/51/24 55/52/24
f 52/53/24 49/54/24 46/55/24
f 25/56/25 91/57/25 95/58/25
f 11/59/25 51/60/25 54/61/25
f 58/62/25 53/63/25 45/64/25
f 79/65/26 99/66/26 89/67/26
f 80/68/27 67/69/27 94/70/27
f 82/71/26 103/72/26 97/73/26
f 73/74/27 98/75/27 102/76/27
f 46/77/27 45/78/27 53/79/27
f 58/80/26 49/81/26 62/82/26
f 43/83/27 44/84/27 77/85/27
f 54/86/26 55/87/26 65/88/26
f 93/89/26 92/90/28 83/91/28
f 85/92/29 96/93/27 63/94/27
f 63/95/6 96/96/6 90/97/6
f 52/98/6 53/99/6 99/100/6
f 66/101/6 77/102/6 64/103/6
f 81/104/6 102/105/6 93/106/6
f 80/107/6 101/108/6 103/109/6
f 87/110/3 88/111/3 45/112/30
f 48/113/31 49/114/32 58/115/32
f 47/116/33 48/113/31 107/117/31
f 44/118/34 43/119/34 47/116/33
f 55/120/35 54/121/35 51/122/36
f 51/122/36 56/123/37 57/124/37
f 57/124/37 56/123/37 72/125/38
f 60/126/39 61/127/38 72/125/38
f 59/128/29 60/126/39 78/129/39
f 87/110/3 68/130/40 89/131/40
f 67/132/41 70/133/42 91/134/42
f 70/133/42 69/135/43 95/136/43
f 69/135/43 74/137/44 97/138/44
f 71/139/45 100/140/45 98/141/46
f 100/140/45 71/139/45 76/142/47
f 104/143/47 76/142/47 75/144/48
f 105/145/48 75/144/48 86/146/49
f 92/90/28 106/147/49 86/146/49
f 32/1/1 6/3/2 31/28/2
f 33/4/3 5/6/3 32/148/3
f 23/7/4 33/9/5 35/45/4
f 4/10/6 1/12/7 2/14/7
f 14/13/8 1/12/7 13/149/8
f 21/15/9 14/13/8 13/149/8
f 26/17/10 15/16/9 21/15/9
f 26/19/10 11/21/11 10/150/10
f 27/20/11 9/23/13 11/21/11
f 28/22/12 8/25/14 9/23/13
f 29/24/14 7/27/15 8/25/14
f 30/26/15 6/3/2 7/27/15
f 34/29/16 4/10/6 17/30/16
f 34/29/16 16/31/17 36/32/17
f 36/32/17 25/33/18 38/34/18
f 38/34/18 18/35/19 42/151/19
f 41/36/20 18/38/19 20/40/20
f 40/39/21 20/40/20 19/42/21
f 39/41/22 19/42/21 24/44/22
f 37/43/23 24/44/22 22/46/23
f 35/45/4 22/46/23 23/7/4
f 75/152/24 37/153/24 86/154/24
f 37/153/24 75/152/24 39/155/24
f 39/155/24 76/156/24 40/157/24
f 75/152/24 76/156/24 39/155/24
f 40/157/24 71/158/24 41/159/24
f 41/159/24 73/48/24 42/160/24
f 42/160/24 74/47/24 38/161/24
f 38/161/24 70/162/24 36/163/24
f 74/47/24 69/164/24 38/161/24
f 36/163/24 67/165/24 34/166/24
f 34/166/24 68/167/24 3/168/24
f 3/168/24 68/167/24 87/169/24
f 68/167/24 67/165/24 79/170/24
f 79/170/24 67/165/24 80/171/24
f 34/166/24 67/165/24 68/167/24
f 41/159/24 71/158/24 73/48/24
f 73/48/24 74/47/24 42/160/24
f 36/163/24 70/162/24 67/165/24
f 71/158/24 40/157/24 76/156/24
f 82/49/24 73/48/24 81/172/24
f 70/162/24 38/161/24 69/164/24
f 47/173/24 21/174/24 48/175/24
f 48/175/24 21/174/24 13/176/24
f 21/174/24 43/51/24 26/50/24
f 47/173/24 43/51/24 21/174/24
f 26/50/24 55/52/24 27/177/24
f 27/177/24 55/52/24 50/178/24
f 55/52/24 66/179/24 65/180/24
f 55/52/24 43/51/24 66/179/24
f 50/178/24 28/181/24 27/177/24
f 28/181/24 57/182/24 29/183/24
f 29/183/24 61/184/24 30/185/24
f 30/185/24 59/186/24 31/187/24
f 31/187/24 63/188/24 32/189/24
f 59/186/24 63/188/24 31/187/24
f 33/190/24 84/191/24 35/192/24
f 35/192/24 83/193/24 37/153/24
f 84/191/24 83/193/24 35/192/24
f 37/153/24 83/193/24 86/154/24
f 29/183/24 57/182/24 61/184/24
f 61/184/24 60/194/24 30/185/24
f 57/182/24 28/181/24 50/178/24
f 81/172/24 33/190/24 82/49/24
f 82/49/24 33/190/24 80/171/24
f 33/190/24 81/172/24 84/191/24
f 60/194/24 59/186/24 30/185/24
f 32/189/24 79/170/24 33/190/24
f 33/190/24 79/170/24 80/171/24
f 66/179/24 32/189/24 65/180/24
f 65/180/24 32/189/24 63/188/24
f 32/189/24 52/53/24 79/170/24
f 62/195/24 32/189/24 66/179/24
f 46/55/24 3/168/24 87/169/24
f 3/168/24 46/55/24 1/196/24
f 1/196/24 49/54/24 13/176/24
f 13/176/24 49/54/24 48/175/24
f 62/195/24 52/53/24 32/189/24
f 1/196/24 46/55/24 49/54/24
f 49/54/24 52/53/24 62/195/24
f 99/197/25 94/198/25 89/199/25
f 89/199/25 94/198/25 17/200/25
f 17/200/25 94/198/25 16/201/25
f 16/201/25 91/57/25 25/56/25
f 94/198/25 91/57/25 16/201/25
f 25/56/25 97/202/25 18/203/25
f 18/203/25 98/204/25 20/205/25
f 20/205/25 98/204/25 100/206/25
f 98/204/25 103/207/25 102/208/25
f 98/204/25 97/202/25 103/207/25
f 18/203/25 97/202/25 98/204/25
f 101/209/25 94/198/25 99/197/25
f 25/56/25 95/58/25 97/202/25
f 56/210/25 8/211/25 72/212/25
f 8/211/25 56/210/25 9/213/25
f 9/213/25 51/60/25 11/59/25
f 56/210/25 51/60/25 9/213/25
f 11/59/25 54/61/25 10/214/25
f 10/214/25 44/215/25 15/216/25
f 15/216/25 44/215/25 108/217/25
f 44/215/25 54/61/25 77/218/25
f 77/218/25 54/61/25 90/219/25
f 10/214/25 54/61/25 44/215/25
f 104/220/25 19/221/25 100/206/25
f 100/206/25 19/221/25 20/205/25
f 19/221/25 104/220/25 24/222/25
f 24/222/25 105/223/25 22/224/25
f 22/224/25 92/225/25 23/226/25
f 106/227/25 92/225/25 22/224/25
f 5/228/25 96/229/25 6/230/25
f 6/230/25 85/231/25 7/232/25
f 7/232/25 72/212/25 8/211/25
f 7/232/25 78/233/25 72/212/25
f 22/224/25 105/223/25 106/227/25
f 23/226/25 93/234/25 12/235/25
f 105/223/25 24/222/25 104/220/25
f 6/230/25 96/229/25 85/231/25
f 7/232/25 85/231/25 78/233/25
f 92/225/25 93/234/25 23/226/25
f 90/219/25 5/228/25 77/218/25
f 77/218/25 5/228/25 64/236/25
f 5/228/25 90/219/25 96/229/25
f 103/207/25 12/235/25 102/208/25
f 102/208/25 12/235/25 93/234/25
f 12/235/25 53/63/25 5/228/25
f 5/228/25 53/63/25 64/236/25
f 53/63/25 12/235/25 99/197/25
f 99/197/25 12/235/25 101/209/25
f 101/209/25 12/235/25 103/207/25
f 107/237/25 15/216/25 108/217/25
f 15/216/25 107/237/25 14/238/25
f 14/238/25 58/62/25 2/239/25
f 2/239/25 45/64/25 4/240/25
f 4/240/25 89/199/25 17/200/25
f 45/64/25 88/241/25 4/240/25
f 89/199/25 4/240/25 88/241/25
f 14/238/25 107/237/25 58/62/25
f 2/239/25 58/62/25 45/64/25
f 53/63/25 58/62/25 64/236/25
f 79/65/26 89/67/26 68/242/26
f 80/68/27 94/70/27 101/243/27
f 82/71/26 97/73/26 74/244/26
f 73/74/27 102/76/27 81/245/27
f 46/77/27 53/79/27 52/246/27
f 58/80/26 62/82/26 64/247/26
f 43/83/27 77/85/27 66/248/27
f 54/86/26 65/88/26 90/249/26
f 93/89/26 83/91/28 84/250/26
f 85/92/29 63/94/27 59/128/29
f 63/95/6 90/97/6 65/251/6
f 52/98/6 99/100/6 79/252/6
f 66/101/6 64/103/6 62/253/6
f 81/104/6 93/106/6 84/254/6
f 80/107/6 103/109/6 82/255/6
f 87/110/3 45/112/30 46/256/30
f 48/113/31 58/115/32 107/117/31
f 47/116/33 107/117/31 108/257/33
f 44/118/34 47/116/33 108/257/33
f 55/120/35 51/122/36 50/258/36
f 51/122/36 57/124/37 50/258/36
f 57/124/37 72/125/38 61/127/38
f 60/126/39 72/125/38 78/129/39
f 59/128/29 78/129/39 85/92/29
f 87/110/3 89/131/40 88/111/3
f 67/132/41 91/134/42 94/259/41
f 70/133/42 95/136/43 91/134/42
f 69/135/43 97/138/44 95/136/43
f 71/139/45 98/141/46 73/260/46
f 100/140/45 76/142/47 104/143/47
f 104/143/47 75/144/48 105/145/48
f 105/145/48 86/146/49 106/147/49
f 92/90/28 86/146/49 83/91/28
