# Blender v3.0.1 OBJ File: 'Main.blend'
# www.blender.org
o Cube.4945_0295
v -0.600000 0.000000 -2.963999
v -0.600000 0.477000 -2.963999
v -0.600000 0.000000 -2.951999
v -0.600000 0.477000 -2.951999
v -0.390001 0.000000 -2.951999
v -0.390001 0.477000 -2.951999
v -0.390001 0.477000 -2.963999
v -0.390001 0.000000 -2.963999
v -0.451500 0.060000 -2.951999
v -0.451500 0.237000 -2.951999
v -0.456068 0.259961 -2.951999
v -0.452653 0.248705 -2.951999
v -0.469074 0.279426 -2.951999
v -0.488539 0.292433 -2.951999
v -0.478166 0.286888 -2.951999
v -0.499795 0.295847 -2.963999
v -0.499795 0.295847 -2.951999
v -0.461612 0.270334 -2.951999
v -0.511500 0.297000 -2.951999
v -0.523206 0.295847 -2.951999
v -0.534461 0.292433 -2.951999
v -0.553927 0.279426 -2.951999
v -0.566933 0.259961 -2.951999
v -0.561388 0.270334 -2.951999
v -0.571500 0.237000 -2.951999
v -0.571500 0.060000 -2.951999
v -0.570347 0.248705 -2.951999
v -0.544834 0.286888 -2.951999
v -0.488539 0.292433 -2.963999
v -0.451500 0.060000 -2.963999
v -0.478166 0.286888 -2.963999
v -0.469074 0.279426 -2.963999
v -0.461612 0.270334 -2.963999
v -0.451500 0.237000 -2.963999
v -0.456068 0.259961 -2.963999
v -0.452653 0.248705 -2.963999
v -0.523206 0.295847 -2.963999
v -0.553927 0.279426 -2.963999
v -0.544834 0.286888 -2.963999
v -0.534461 0.292433 -2.963999
v -0.566933 0.259961 -2.963999
v -0.571500 0.237000 -2.963999
v -0.571500 0.060000 -2.963999
v -0.570347 0.248705 -2.963999
v -0.561388 0.270334 -2.963999
v -0.511500 0.297000 -2.963999
vt 0.900684 0.076673
vt 0.900900 0.068199
vt 0.900900 0.076673
vt 0.866499 0.858876
vt 0.865109 0.862145
vt 0.864902 0.862124
vt 0.662442 0.922729
vt 0.662225 0.925731
vt 0.662225 0.922729
vt 0.890791 0.926257
vt 0.891008 0.923112
vt 0.891008 0.926257
vt 0.940798 0.656021
vt 0.941014 0.653852
vt 0.941014 0.656021
vt 0.366249 0.954381
vt 0.366033 0.954175
vt 0.366249 0.954175
vt 0.366033 0.954587
vt 0.366033 0.954381
vt 0.366249 0.954786
vt 0.366033 0.954786
vt 0.366249 0.954961
vt 0.366033 0.954961
vt 0.890791 0.922302
vt 0.891008 0.922488
vt 0.890791 0.922488
vt 0.891008 0.922690
vt 0.890791 0.922690
vt 0.891008 0.922900
vt 0.890791 0.922900
vt 0.890791 0.923112
vt 0.366033 0.953961
vt 0.366033 0.953762
vt 0.366249 0.953961
vt 0.366033 0.953587
vt 0.366249 0.953762
vt 0.662442 0.921900
vt 0.662225 0.921719
vt 0.662442 0.921719
vt 0.662225 0.922101
vt 0.662225 0.921900
vt 0.662442 0.922101
vt 0.662225 0.922311
vt 0.662442 0.922311
vt 0.662225 0.922523
vt 0.662442 0.922523
vt 0.863818 0.866401
vt 0.866499 0.867483
vt 0.862710 0.867483
vt 0.478381 0.866355
vt 0.475708 0.867438
vt 0.476220 0.866355
vt 0.086233 0.929779
vt 0.086450 0.925998
vt 0.086450 0.929779
vt 0.477304 0.862078
vt 0.477091 0.862099
vt 0.475708 0.858830
vt 0.560782 0.929715
vt 0.560565 0.925927
vt 0.560782 0.925927
vt 0.902658 0.498348
vt 0.902875 0.490258
vt 0.902875 0.498348
vt 0.900684 0.068199
vt 0.863818 0.863207
vt 0.862710 0.858876
vt 0.865979 0.863207
vt 0.865979 0.866401
vt 0.863841 0.862995
vt 0.865964 0.862995
vt 0.865903 0.862792
vt 0.863902 0.862792
vt 0.864001 0.862605
vt 0.865804 0.862605
vt 0.865666 0.862441
vt 0.864131 0.862441
vt 0.864299 0.862306
vt 0.864482 0.862206
vt 0.865498 0.862306
vt 0.865315 0.862206
vt 0.864689 0.862145
vt 0.662442 0.925731
vt 0.940798 0.653852
vt 0.366249 0.954587
vt 0.891008 0.922302
vt 0.366249 0.953587
vt 0.479496 0.867438
vt 0.086233 0.925998
vt 0.476220 0.863161
vt 0.479496 0.858830
vt 0.478381 0.863161
vt 0.476243 0.862950
vt 0.478366 0.862950
vt 0.478305 0.862747
vt 0.476304 0.862747
vt 0.476403 0.862559
vt 0.478206 0.862559
vt 0.478068 0.862395
vt 0.476533 0.862395
vt 0.476701 0.862261
vt 0.477900 0.862261
vt 0.477717 0.862161
vt 0.476884 0.862161
vt 0.477511 0.862099
vt 0.560565 0.929715
vt 0.902658 0.490258
vn -1.0000 0.0000 0.0000
vn -0.0000 -0.0000 1.0000
vn 1.0000 0.0000 0.0000
vn 0.0000 1.0000 0.0000
vn -0.0980 -0.9952 0.0000
vn -0.2903 -0.9569 0.0000
vn -0.4714 -0.8819 0.0000
vn -0.6344 -0.7730 0.0000
vn -0.7730 -0.6344 0.0000
vn -0.8819 -0.4714 0.0000
vn -0.9569 -0.2903 0.0000
vn -0.9952 -0.0980 0.0000
vn 0.0980 -0.9952 0.0000
vn 0.2903 -0.9569 0.0000
vn 0.4714 -0.8819 0.0000
vn 0.6344 -0.7730 0.0000
vn 0.7730 -0.6344 0.0000
vn 0.8819 -0.4714 0.0000
vn 0.9569 -0.2903 0.0000
vn 0.9952 -0.0980 0.0000
vn 0.0000 0.0000 -1.0000
vn 0.0000 -1.0000 0.0000
vn -0.0001 0.0000 -1.0000
vn 0.0002 0.0000 -1.0000
s off
f 3/1/1 2/2/1 1/3/1
f 4/4/2 20/5/2 19/6/2
f 25/7/3 43/8/3 42/9/3
f 9/10/1 34/11/1 30/12/1
f 26/13/4 30/14/4 43/15/4
f 16/16/5 19/17/5 46/18/5
f 16/16/6 14/19/6 17/20/6
f 14/19/7 31/21/7 15/22/7
f 15/22/8 32/23/8 13/24/8
f 13/25/9 33/26/9 18/27/9
f 18/27/10 35/28/10 11/29/10
f 11/29/11 36/30/11 12/31/11
f 12/31/12 34/11/12 10/32/12
f 20/33/13 46/18/13 19/17/13
f 21/34/14 37/35/14 20/33/14
f 28/36/15 40/37/15 21/34/15
f 22/38/16 39/39/16 28/40/16
f 22/38/17 45/41/17 38/42/17
f 24/43/18 41/44/18 45/41/18
f 23/45/19 44/46/19 41/44/19
f 27/47/20 42/9/20 44/46/20
f 9/48/2 3/49/2 5/50/2
f 30/51/21 1/52/21 43/53/21
f 5/54/22 1/55/22 8/56/22
f 46/57/23 37/58/23 2/59/23
f 6/60/4 2/61/4 4/62/4
f 8/63/3 6/64/3 5/65/3
f 3/1/1 4/66/1 2/2/1
f 9/48/2 5/50/2 10/67/2
f 5/50/2 6/68/2 10/67/2
f 4/4/2 3/49/2 25/69/2
f 3/49/2 26/70/2 25/69/2
f 12/71/2 10/67/2 6/68/2
f 4/4/2 25/69/2 27/72/2
f 4/4/2 27/72/2 23/73/2
f 11/74/2 12/71/2 6/68/2
f 18/75/2 11/74/2 6/68/2
f 4/4/2 23/73/2 24/76/2
f 4/4/2 24/76/2 22/77/2
f 18/75/2 6/68/2 13/78/2
f 6/68/2 4/4/2 19/6/2
f 13/78/2 6/68/2 15/79/2
f 15/79/2 6/68/2 14/80/2
f 4/4/2 22/77/2 28/81/2
f 4/4/2 28/81/2 21/82/2
f 14/80/2 6/68/2 17/83/2
f 17/83/2 6/68/2 19/6/2
f 4/4/2 21/82/2 20/5/2
f 25/7/3 26/84/3 43/8/3
f 9/10/1 10/32/1 34/11/1
f 26/13/4 9/85/4 30/14/4
f 16/16/5 17/20/5 19/17/5
f 16/16/6 29/86/6 14/19/6
f 14/19/7 29/86/7 31/21/7
f 15/22/8 31/21/8 32/23/8
f 13/25/9 32/87/9 33/26/9
f 18/27/10 33/26/10 35/28/10
f 11/29/11 35/28/11 36/30/11
f 12/31/12 36/30/12 34/11/12
f 20/33/13 37/35/13 46/18/13
f 21/34/14 40/37/14 37/35/14
f 28/36/15 39/88/15 40/37/15
f 22/38/16 38/42/16 39/39/16
f 22/38/17 24/43/17 45/41/17
f 24/43/18 23/45/18 41/44/18
f 23/45/19 27/47/19 44/46/19
f 27/47/20 25/7/20 42/9/20
f 9/48/2 26/70/2 3/49/2
f 30/51/21 8/89/21 1/52/21
f 5/54/22 3/90/22 1/55/22
f 42/91/21 43/53/21 1/52/21
f 7/92/21 8/89/21 34/93/21
f 8/89/21 30/51/21 34/93/21
f 42/91/21 1/52/21 2/59/21
f 44/94/24 42/91/24 2/59/24
f 7/92/23 34/93/23 36/95/23
f 7/92/21 36/95/21 35/96/21
f 41/97/21 44/94/21 2/59/21
f 45/98/21 41/97/21 2/59/21
f 7/92/21 35/96/21 33/99/21
f 7/92/21 33/99/21 32/100/21
f 38/101/21 45/98/21 2/59/21
f 39/102/21 38/101/21 2/59/21
f 2/59/21 7/92/21 46/57/21
f 7/92/21 32/100/21 31/103/21
f 7/92/21 31/103/21 29/104/21
f 40/105/23 39/102/23 2/59/23
f 37/58/21 40/105/21 2/59/21
f 7/92/21 29/104/21 16/106/21
f 7/92/21 16/106/21 46/57/21
f 6/60/4 7/107/4 2/61/4
f 8/63/3 7/108/3 6/64/3
