# Blender v3.0.1 OBJ File: 'Main.blend'
# www.blender.org
o Cube.5431_0096
v 1.447497 0.366000 2.910000
v 1.409997 0.366000 2.910000
v 1.447497 0.366000 2.949000
v 1.385997 0.366000 2.910000
v 1.385997 0.366000 2.949000
v 1.403997 0.366000 3.003000
v 1.373997 0.366000 2.949000
v 1.373997 0.366000 3.003000
v 1.385997 0.459000 2.910000
v 1.385997 0.459000 2.949000
v 1.409997 0.459000 2.910000
v 1.447497 0.459000 2.949000
v 1.403997 0.459000 3.003000
v 1.373997 0.459000 3.003000
v 1.373997 0.459000 2.949000
v 1.447497 0.459000 2.910000
vt 0.384850 0.820082
vt 0.385283 0.820786
vt 0.385960 0.820082
vt 0.883053 0.482812
vt 0.881943 0.482812
vt 0.882620 0.483516
vt 0.918737 0.093401
vt 0.919413 0.093401
vt 0.919413 0.091724
vt 0.758463 0.517444
vt 0.758463 0.517992
vt 0.760142 0.517992
vt 0.933981 0.831286
vt 0.934955 0.831286
vt 0.934955 0.829608
vt 0.919847 0.093401
vt 0.919847 0.091724
vt 0.758463 0.515853
vt 0.758463 0.516193
vt 0.760142 0.516193
vt 0.944994 0.555677
vt 0.945210 0.555677
vt 0.945210 0.554000
vt 0.760142 0.517444
vt 0.603651 0.937931
vt 0.604354 0.937931
vt 0.604354 0.936254
vt 0.384633 0.819109
vt 0.384633 0.820082
vt 0.385174 0.819109
vt 0.385960 0.820786
vt 0.384850 0.820786
vt 0.883053 0.483516
vt 0.881943 0.483516
vt 0.882728 0.481839
vt 0.883270 0.481839
vt 0.883270 0.482812
vt 0.918737 0.091724
vt 0.933981 0.829608
vt 0.760142 0.515853
vt 0.944994 0.554000
vt 0.603651 0.936254
vn 0.0000 -1.0000 0.0000
vn 0.0000 1.0000 0.0000
vn 0.0000 0.0000 -1.0000
vn 1.0000 0.0000 -0.0000
vn -1.0000 0.0000 0.0000
vn 0.0000 0.0000 1.0000
vn 0.7788 0.0000 0.6273
s off
f 5/1/1 2/2/1 3/3/1
f 10/4/2 12/5/2 11/6/2
f 1/7/3 2/8/3 11/9/3
f 3/10/4 1/11/4 16/12/4
f 7/13/5 8/14/5 14/15/5
f 2/8/3 4/16/3 9/17/3
f 8/18/6 6/19/6 13/20/6
f 5/21/3 7/22/3 15/23/3
f 6/19/7 3/10/7 12/24/7
f 4/25/5 5/26/5 10/27/5
f 5/1/1 8/28/1 7/29/1
f 8/28/1 5/1/1 6/30/1
f 6/30/1 5/1/1 3/3/1
f 3/3/1 2/2/1 1/31/1
f 2/2/1 5/1/1 4/32/1
f 10/4/2 11/6/2 9/33/2
f 11/6/2 12/5/2 16/34/2
f 12/5/2 10/4/2 13/35/2
f 13/35/2 10/4/2 14/36/2
f 14/36/2 10/4/2 15/37/2
f 1/7/3 11/9/3 16/38/3
f 3/10/4 16/12/4 12/24/4
f 7/13/5 14/15/5 15/39/5
f 2/8/3 9/17/3 11/9/3
f 8/18/6 13/20/6 14/40/6
f 5/21/3 15/23/3 10/41/3
f 6/19/7 12/24/7 13/20/7
f 4/25/5 10/27/5 9/42/5
