# Blender v3.0.1 OBJ File: 'Main.blend'
# www.blender.org
o Cube.5293_0116
v -1.896002 0.000000 -3.327000
v -1.896002 0.369000 -3.327000
v -1.869002 0.000000 -3.327000
v -1.869002 0.369000 -3.327000
v -1.812002 0.000000 -3.411000
v -1.812002 0.369000 -3.384000
v -1.812002 0.000000 -3.384000
v -1.896002 0.369000 -3.411000
v -1.869002 0.000000 -3.384000
v -1.869002 0.369000 -3.384000
v -1.896002 0.000000 -3.411000
v -1.812002 0.369000 -3.411000
vt 0.229975 0.899014
vt 0.229488 0.899014
vt 0.229488 0.905673
vt 0.858041 0.890745
vt 0.858041 0.897403
vt 0.859069 0.897403
vt 0.826456 0.891548
vt 0.826456 0.884890
vt 0.824940 0.884890
vt 0.863953 0.485736
vt 0.863466 0.486224
vt 0.864981 0.486224
vt 0.859282 0.485736
vt 0.858253 0.485736
vt 0.858253 0.486224
vt 0.494660 0.891452
vt 0.494660 0.884794
vt 0.493140 0.884794
vt 0.863466 0.484705
vt 0.905447 0.421266
vt 0.905447 0.414608
vt 0.904958 0.414608
vt 0.859769 0.484704
vt 0.859282 0.484704
vt 0.518901 0.890641
vt 0.518901 0.897299
vt 0.519932 0.897299
vt 0.229975 0.905673
vt 0.859069 0.890745
vt 0.824940 0.891548
vt 0.864981 0.485736
vt 0.859769 0.486224
vt 0.493140 0.891452
vt 0.863953 0.484705
vt 0.904958 0.421266
vt 0.519932 0.890641
vn 0.0000 0.0000 1.0000
vn 0.0000 0.0000 -1.0000
vn 0.0000 -1.0000 0.0000
vn 0.0000 1.0000 0.0000
vn -1.0000 0.0000 0.0000
vn 1.0000 0.0000 0.0000
s off
f 4/1/1 2/2/1 1/3/1
f 10/4/1 9/5/1 7/6/1
f 11/7/2 8/8/2 12/9/2
f 9/10/3 11/11/3 5/12/3
f 10/13/4 6/14/4 12/15/4
f 1/16/5 2/17/5 8/18/5
f 1/19/3 11/11/3 9/10/3
f 5/20/6 12/21/6 6/22/6
f 2/23/4 4/24/4 10/13/4
f 4/25/6 3/26/6 9/27/6
f 4/1/1 1/3/1 3/28/1
f 10/4/1 7/6/1 6/29/1
f 11/7/2 12/9/2 5/30/2
f 9/10/3 5/12/3 7/31/3
f 10/13/4 12/15/4 8/32/4
f 1/16/5 8/18/5 11/33/5
f 1/19/3 9/10/3 3/34/3
f 5/20/6 6/22/6 7/35/6
f 2/23/4 10/13/4 8/32/4
f 4/25/6 9/27/6 10/36/6
