# Blender v3.0.1 OBJ File: 'Main.blend'
# www.blender.org
o Cube.5176_0209
v -0.595500 0.501000 1.137000
v -0.595500 0.561000 1.137000
v -0.595500 0.501000 1.095000
v -0.595500 0.561000 1.095000
v -0.598500 0.561000 1.095000
v -0.598500 0.501000 1.137000
v -0.598500 0.561000 1.137000
v -0.598500 0.501000 1.095000
v -0.595500 0.585000 1.137000
v -0.595500 0.645000 1.137000
v -0.595500 0.585000 1.095000
v -0.595500 0.645000 1.095000
v -0.598500 0.645000 1.095000
v -0.598500 0.585000 1.137000
v -0.598500 0.645000 1.137000
v -0.598500 0.585000 1.095000
vt 0.625000 0.150000
vt 0.375000 0.125000
vt 0.625000 0.125000
vt 0.625000 0.600000
vt 0.375000 0.625000
vt 0.375000 0.600000
vt 0.125000 0.625000
vt 0.125000 0.600000
vt 0.875000 0.625000
vt 0.625000 0.625000
vt 0.375000 0.150000
vt 0.625000 0.150000
vt 0.375000 0.125000
vt 0.625000 0.125000
vt 0.625000 0.600000
vt 0.375000 0.625000
vt 0.375000 0.600000
vt 0.125000 0.625000
vt 0.125000 0.600000
vt 0.875000 0.625000
vt 0.625000 0.625000
vt 0.375000 0.150000
vt 0.875000 0.600000
vt 0.875000 0.600000
vn 0.0000 0.0000 1.0000
vn 0.0000 0.0000 -1.0000
vn 0.0000 -1.0000 0.0000
vn 0.0000 1.0000 0.0000
vn -1.0000 0.0000 0.0000
vn 1.0000 0.0000 0.0000
s off
f 7/1/1 1/2/1 2/3/1
f 5/4/2 3/5/2 8/6/2
f 8/6/3 1/7/3 6/8/3
f 5/4/4 2/9/4 4/10/4
f 7/1/5 8/6/5 6/11/5
f 1/7/6 4/10/6 2/9/6
f 15/12/1 9/13/1 10/14/1
f 13/15/2 11/16/2 16/17/2
f 16/17/3 9/18/3 14/19/3
f 13/15/4 10/20/4 12/21/4
f 15/12/5 16/17/5 14/22/5
f 9/18/6 12/21/6 10/20/6
f 7/1/1 6/11/1 1/2/1
f 5/4/2 4/10/2 3/5/2
f 8/6/3 3/5/3 1/7/3
f 5/4/4 7/23/4 2/9/4
f 7/1/5 5/4/5 8/6/5
f 1/7/6 3/5/6 4/10/6
f 15/12/1 14/22/1 9/13/1
f 13/15/2 12/21/2 11/16/2
f 16/17/3 11/16/3 9/18/3
f 13/15/4 15/24/4 10/20/4
f 15/12/5 13/15/5 16/17/5
f 9/18/6 11/16/6 12/21/6
