# Blender v3.0.1 OBJ File: 'Main.blend'
# www.blender.org
o Cube.5374_0150
v 1.953001 0.459000 0.318000
v 1.902001 0.459000 -1.041000
v 1.953001 0.459000 -0.366000
v 1.902001 0.459000 0.318000
v 1.902001 0.459000 -0.366000
v 1.902001 0.459000 0.975000
v 1.953001 0.366000 0.318000
v 1.902001 0.366000 -1.041000
v 1.953001 0.366000 -0.366000
v 1.902001 0.366000 0.318000
v 1.902001 0.366000 -0.366000
v 1.902001 0.366000 0.975000
v 1.864501 0.459000 0.280500
v 1.864501 0.459000 -0.328500
v 1.864501 0.459000 -1.041000
v 1.864501 0.459000 0.975000
v 1.864501 0.366000 0.280500
v 1.864501 0.366000 -0.328500
v 1.864501 0.366000 -1.041000
v 1.864501 0.366000 0.975000
vt 0.291492 0.934588
vt 0.290572 0.936265
vt 0.290572 0.934588
vt 0.127853 0.934542
vt 0.126933 0.936219
vt 0.126933 0.934542
vt 0.871030 0.286510
vt 0.869352 0.274330
vt 0.871030 0.274330
vt 0.868426 0.700998
vt 0.870104 0.713340
vt 0.868426 0.713340
vt 0.871381 0.626991
vt 0.869702 0.615137
vt 0.871381 0.615137
vt 0.567486 0.828947
vt 0.569165 0.816090
vt 0.569165 0.828947
vt 0.567486 0.816090
vt 0.569165 0.805100
vt 0.567486 0.805100
vt 0.569165 0.792568
vt 0.537517 0.804977
vt 0.535920 0.805654
vt 0.536597 0.804977
vt 0.459617 0.805861
vt 0.458940 0.793687
vt 0.459617 0.793687
vt 0.894357 0.733215
vt 0.895034 0.731537
vt 0.895034 0.733215
vt 0.535920 0.793122
vt 0.536597 0.793122
vt 0.536597 0.817320
vt 0.535920 0.816643
vt 0.537517 0.817320
vt 0.458940 0.817532
vt 0.460537 0.805861
vt 0.460537 0.818211
vt 0.938710 0.593037
vt 0.938033 0.594715
vt 0.938033 0.593037
vt 0.459617 0.818211
vt 0.535920 0.829500
vt 0.536597 0.829500
vt 0.458940 0.830065
vt 0.459617 0.830065
vt 0.458940 0.806541
vt 0.291492 0.936265
vt 0.127853 0.936219
vt 0.869352 0.286510
vt 0.870104 0.700998
vt 0.869702 0.626991
vt 0.567486 0.792568
vt 0.894357 0.731537
vt 0.938710 0.594715
vn -0.0000 0.0000 1.0000
vn 0.0000 0.0000 -1.0000
vn 1.0000 0.0000 0.0000
vn -1.0000 0.0000 0.0000
vn 0.0000 1.0000 -0.0000
vn 0.0000 -1.0000 0.0000
s off
f 4/1/1 7/2/1 1/3/1
f 3/4/2 11/5/2 5/6/2
f 5/7/3 8/8/3 2/9/3
f 1/10/3 9/11/3 3/12/3
f 6/13/3 10/14/3 4/15/3
f 19/16/4 14/17/4 15/18/4
f 18/19/4 13/20/4 14/17/4
f 17/21/4 16/22/4 13/20/4
f 1/23/5 13/24/5 4/25/5
f 11/26/6 19/27/6 8/28/6
f 19/29/2 2/30/2 8/31/2
f 4/25/5 16/32/5 6/33/5
f 5/34/5 14/35/5 3/36/5
f 17/37/6 9/38/6 7/39/6
f 16/40/1 12/41/1 6/42/1
f 10/43/6 17/37/6 7/39/6
f 15/44/5 5/34/5 2/45/5
f 20/46/6 10/43/6 12/47/6
f 9/38/6 18/48/6 11/26/6
f 3/36/5 13/24/5 1/23/5
f 4/1/1 10/49/1 7/2/1
f 3/4/2 9/50/2 11/5/2
f 5/7/3 11/51/3 8/8/3
f 1/10/3 7/52/3 9/11/3
f 6/13/3 12/53/3 10/14/3
f 19/16/4 18/19/4 14/17/4
f 18/19/4 17/21/4 13/20/4
f 17/21/4 20/54/4 16/22/4
f 11/26/6 18/48/6 19/27/6
f 19/29/2 15/55/2 2/30/2
f 4/25/5 13/24/5 16/32/5
f 17/37/6 18/48/6 9/38/6
f 16/40/1 20/56/1 12/41/1
f 15/44/5 14/35/5 5/34/5
f 20/46/6 17/37/6 10/43/6
f 3/36/5 14/35/5 13/24/5
