# Blender v3.0.1 OBJ File: 'Main.blend'
# www.blender.org
o Cube.5314_0047
v 1.911000 0.459000 -1.041000
v 1.911000 0.459000 -1.089000
v 1.911000 0.459000 -1.287000
v 1.911000 0.459000 -1.338000
v 1.902001 0.459000 -1.338000
v 1.902001 0.459000 -1.579500
v 1.911000 0.480000 -1.041000
v 1.911000 0.480000 -1.089000
v 1.911000 0.480000 -1.287000
v 1.911000 0.480000 -1.338000
v 1.902001 0.480000 -1.338000
v 1.902001 0.480000 -1.579500
v 1.905001 0.459000 -1.287000
v 1.905001 0.459000 -1.089000
v 1.896001 0.459000 -1.332000
v 1.905001 0.459000 -1.332000
v 1.896001 0.459000 -1.579500
v 1.905001 0.459000 -1.041000
v 1.905001 0.480000 -1.287000
v 1.905001 0.480000 -1.089000
v 1.896001 0.480000 -1.332000
v 1.905001 0.480000 -1.332000
v 1.896001 0.480000 -1.579500
v 1.905001 0.480000 -1.041000
vt 0.623380 0.912878
vt 0.623758 0.913744
vt 0.623380 0.913744
vt 0.983972 0.533209
vt 0.984135 0.532830
vt 0.984135 0.533209
vt 0.623380 0.908385
vt 0.623758 0.909305
vt 0.623380 0.909305
vt 0.560404 0.917872
vt 0.560782 0.922230
vt 0.560404 0.922230
vt 0.623758 0.912878
vt 0.763778 0.914191
vt 0.764157 0.913324
vt 0.764157 0.914191
vt 0.511972 0.983841
vt 0.512134 0.984220
vt 0.511972 0.984220
vt 0.763778 0.909751
vt 0.764157 0.908939
vt 0.764157 0.909751
vt 0.048653 0.833258
vt 0.048274 0.837724
vt 0.048274 0.833258
vt 0.763778 0.913324
vt 0.894136 0.373378
vt 0.894028 0.376950
vt 0.894028 0.373378
vt 0.894107 0.479030
vt 0.894215 0.474672
vt 0.894215 0.479030
vt 0.894136 0.377762
vt 0.894028 0.377870
vt 0.894190 0.377870
vt 0.894270 0.470180
vt 0.894378 0.469313
vt 0.894378 0.470180
vt 0.985043 0.830315
vt 0.985152 0.829936
vt 0.985152 0.830315
vt 0.894270 0.473752
vt 0.894378 0.473752
vt 0.894298 0.382228
vt 0.894190 0.382228
vt 0.894270 0.474564
vt 0.894378 0.474672
vt 0.894136 0.372511
vt 0.894028 0.372511
vt 0.803742 0.984866
vt 0.803634 0.985245
vt 0.803634 0.984866
vt 0.983972 0.532830
vt 0.623758 0.908385
vt 0.560782 0.917872
vt 0.512134 0.983841
vt 0.763778 0.908939
vt 0.048653 0.837724
vt 0.894136 0.376950
vt 0.894107 0.474564
vt 0.894298 0.377762
vt 0.894270 0.469313
vt 0.985043 0.829936
vt 0.803742 0.985245
vn 1.0000 0.0000 0.0000
vn 0.0000 0.0000 -1.0000
vn -1.0000 0.0000 0.0000
vn 0.0000 0.0000 1.0000
vn 0.0000 -1.0000 0.0000
vn 0.0000 1.0000 0.0000
s off
f 2/1/1 7/2/1 1/3/1
f 5/4/2 10/5/2 4/6/2
f 4/7/1 9/8/1 3/9/1
f 6/10/1 11/11/1 5/12/1
f 3/9/1 8/13/1 2/1/1
f 24/14/3 14/15/3 18/16/3
f 22/17/4 15/18/4 16/19/4
f 19/20/3 16/21/3 13/22/3
f 21/23/3 17/24/3 15/25/3
f 20/26/3 13/22/3 14/15/3
f 14/27/5 3/28/5 2/29/5
f 23/30/6 11/31/6 12/32/6
f 3/28/5 16/33/5 4/34/5
f 16/33/5 5/35/5 4/34/5
f 20/36/6 7/37/6 8/38/6
f 17/39/2 12/40/2 6/41/2
f 19/42/6 8/38/6 9/43/6
f 5/35/5 17/44/5 6/45/5
f 22/46/6 9/43/6 10/47/6
f 11/31/6 22/46/6 10/47/6
f 18/48/5 2/29/5 1/49/5
f 24/50/4 1/51/4 7/52/4
f 2/1/1 8/13/1 7/2/1
f 5/4/2 11/53/2 10/5/2
f 4/7/1 10/54/1 9/8/1
f 6/10/1 12/55/1 11/11/1
f 3/9/1 9/8/1 8/13/1
f 24/14/3 20/26/3 14/15/3
f 22/17/4 21/56/4 15/18/4
f 19/20/3 22/57/3 16/21/3
f 21/23/3 23/58/3 17/24/3
f 20/26/3 19/20/3 13/22/3
f 14/27/5 13/59/5 3/28/5
f 23/30/6 21/60/6 11/31/6
f 3/28/5 13/59/5 16/33/5
f 16/33/5 15/61/5 5/35/5
f 20/36/6 24/62/6 7/37/6
f 17/39/2 23/63/2 12/40/2
f 19/42/6 20/36/6 8/38/6
f 5/35/5 15/61/5 17/44/5
f 22/46/6 19/42/6 9/43/6
f 11/31/6 21/60/6 22/46/6
f 18/48/5 14/27/5 2/29/5
f 24/50/4 18/64/4 1/51/4
