# Blender v3.0.1 OBJ File: 'Main.blend'
# www.blender.org
o Cube.5334_0157
v -0.471001 0.369000 -3.384000
v -0.471001 0.369000 -3.402000
v -1.377001 0.369000 -3.384000
v -1.377001 0.369000 -3.402000
v -0.471001 0.459000 -3.384000
v -0.471001 0.459000 -3.402000
v -1.377001 0.459000 -3.384000
v -1.377001 0.459000 -3.402000
vt 0.872092 0.485003
vt 0.871768 0.501355
vt 0.871768 0.485003
vt 0.264700 0.856003
vt 0.265024 0.872355
vt 0.264700 0.872355
vt 0.864456 0.755653
vt 0.862833 0.772005
vt 0.862833 0.755653
vt 0.494373 0.942934
vt 0.494697 0.944558
vt 0.494373 0.944558
vt 0.864456 0.735605
vt 0.862833 0.751957
vt 0.862833 0.735605
vt 0.076987 0.942938
vt 0.077312 0.944562
vt 0.076987 0.944562
vt 0.872092 0.501355
vt 0.265024 0.856003
vt 0.864456 0.772005
vt 0.494697 0.942934
vt 0.864456 0.751957
vt 0.077312 0.942938
vn 0.0000 -1.0000 0.0000
vn 0.0000 1.0000 0.0000
vn 0.0000 0.0000 -1.0000
vn -1.0000 0.0000 0.0000
vn 0.0000 0.0000 1.0000
vn 1.0000 0.0000 0.0000
s off
f 1/1/1 4/2/1 2/3/1
f 8/4/2 5/5/2 6/6/2
f 8/7/3 2/8/3 4/9/3
f 7/10/4 4/11/4 3/12/4
f 5/13/5 3/14/5 1/15/5
f 6/16/6 1/17/6 2/18/6
f 1/1/1 3/19/1 4/2/1
f 8/4/2 7/20/2 5/5/2
f 8/7/3 6/21/3 2/8/3
f 7/10/4 8/22/4 4/11/4
f 5/13/5 7/23/5 3/14/5
f 6/16/6 5/24/6 1/17/6
