# Blender v3.0.1 OBJ File: 'Main.blend'
# www.blender.org
o Cube.5548_0335
v -1.170000 0.558000 -0.405000
v -1.170000 0.723000 -0.405000
v -1.170000 0.558000 -0.480000
v -1.170000 0.723000 -0.480000
v -1.245000 0.558000 -0.405000
v -1.245000 0.723000 -0.405000
v -1.245000 0.558000 -0.480000
v -1.245000 0.723000 -0.480000
vt 0.095845 0.915528
vt 0.095845 0.918506
vt 0.097198 0.918506
vt 0.824940 0.915368
vt 0.824940 0.918346
vt 0.826294 0.918346
vt 0.158691 0.915539
vt 0.158691 0.918516
vt 0.160044 0.918516
vt 0.886878 0.915628
vt 0.886878 0.918606
vt 0.888232 0.918606
vt 0.915414 0.200237
vt 0.916768 0.200237
vt 0.916768 0.198883
vt 0.918570 0.383734
vt 0.919924 0.383734
vt 0.919924 0.382380
vt 0.097198 0.915528
vt 0.826294 0.915368
vt 0.160044 0.915539
vt 0.888232 0.915628
vt 0.915414 0.198883
vt 0.918570 0.382380
vn 1.0000 0.0000 0.0000
vn 0.0000 0.0000 -1.0000
vn -1.0000 0.0000 0.0000
vn 0.0000 0.0000 1.0000
vn 0.0000 -1.0000 0.0000
vn 0.0000 1.0000 0.0000
s off
f 2/1/1 1/2/1 3/3/1
f 4/4/2 3/5/2 7/6/2
f 8/7/3 7/8/3 5/9/3
f 6/10/4 5/11/4 1/12/4
f 7/13/5 3/14/5 1/15/5
f 4/16/6 8/17/6 6/18/6
f 2/1/1 3/3/1 4/19/1
f 4/4/2 7/6/2 8/20/2
f 8/7/3 5/9/3 6/21/3
f 6/10/4 1/12/4 2/22/4
f 7/13/5 1/15/5 5/23/5
f 4/16/6 6/18/6 2/24/6
