# Blender v3.0.1 OBJ File: 'Main.blend'
# www.blender.org
o Cube.3557_0105
v 1.207899 0.315000 -1.306200
v 1.207899 0.315000 -1.321800
v 1.192209 0.315000 -1.306200
v 1.192209 0.315000 -1.321800
v 1.207899 0.345000 -1.306200
v 1.207899 0.345000 -1.323000
v 1.191009 0.345000 -1.323000
v 1.191009 0.345000 -1.306200
v 1.207899 0.375000 -1.306200
v 1.207899 0.375000 -1.326000
v 1.188309 0.375000 -1.326000
v 1.188309 0.375000 -1.306200
v 1.207899 0.405000 -1.306200
v 1.207899 0.405000 -1.331100
v 1.183809 0.405000 -1.306200
v 1.207899 0.435000 -1.306200
v 1.207899 0.435000 -1.338600
v 1.177509 0.435000 -1.306200
v 1.207899 0.465000 -1.306200
v 1.207899 0.465000 -1.348200
v 1.168809 0.465000 -1.306200
v 1.189832 0.405000 -1.331100
v 1.183809 0.405000 -1.324875
v 1.185107 0.435000 -1.338600
v 1.177509 0.435000 -1.330500
v 1.168809 0.465000 -1.337700
v 1.178582 0.465000 -1.348200
vt 0.851353 0.156153
vt 0.851353 0.156436
vt 0.851634 0.156436
vt 0.296713 0.929802
vt 0.297018 0.929802
vt 0.297018 0.929261
vt 0.031690 0.929994
vt 0.031712 0.929453
vt 0.031408 0.929453
vt 0.296735 0.930343
vt 0.297018 0.930343
vt 0.855049 0.027012
vt 0.855070 0.026475
vt 0.854765 0.026475
vt 0.872582 0.929681
vt 0.872863 0.929681
vt 0.872863 0.929144
vt 0.854765 0.025932
vt 0.855119 0.025932
vt 0.855091 0.025383
vt 0.872560 0.929144
vt 0.872863 0.928600
vt 0.031765 0.928912
vt 0.031408 0.928912
vt 0.855177 0.024826
vt 0.855294 0.024264
vt 0.854765 0.024264
vt 0.031858 0.928370
vt 0.031408 0.928370
vt 0.296664 0.929261
vt 0.297018 0.928719
vt 0.872526 0.928053
vt 0.872863 0.928053
vt 0.872863 0.927501
vt 0.296469 0.928178
vt 0.297018 0.928178
vt 0.297018 0.927637
vt 0.031993 0.927829
vt 0.031408 0.927829
vt 0.296583 0.928719
vt 0.872425 0.927501
vt 0.872863 0.926942
vt 0.929744 0.330712
vt 0.929215 0.329954
vt 0.929215 0.330712
vt 0.032166 0.927288
vt 0.031408 0.927288
vt 0.872414 0.928070
vt 0.872506 0.928600
vt 0.872295 0.926942
vt 0.872105 0.926969
vt 0.872279 0.927522
vt 0.854765 0.024826
vt 0.851634 0.156153
vt 0.031408 0.929994
vt 0.854765 0.027012
vt 0.854765 0.025383
vt 0.296312 0.927637
vt 0.929920 0.329954
vt 0.929920 0.330522
vn 0.0000 -1.0000 0.0000
vn 0.0000 0.0000 1.0000
vn 1.0000 0.0000 0.0000
vn 0.0000 -0.0400 -0.9992
vn -0.9992 -0.0400 0.0000
vn 0.0000 -0.1676 -0.9859
vn 0.0000 -0.0995 -0.9950
vn -0.9960 -0.0896 0.0000
vn 0.0000 -0.3048 -0.9524
vn -0.9787 -0.2055 0.0000
vn -0.9889 -0.1483 0.0000
vn -0.9604 -0.2785 0.0000
vn 0.0000 1.0000 0.0000
vn -0.7163 -0.0815 -0.6930
vn -0.6918 -0.2708 -0.6694
vn -0.6849 -0.3529 -0.6375
vn 0.0000 -0.2425 -0.9701
vn -0.7013 -0.2749 -0.6578
vn -0.6828 -0.3517 -0.6404
s off
f 4/1/1 2/2/1 1/3/1
f 8/4/2 5/5/2 9/6/2
f 2/7/3 6/8/3 5/9/3
f 3/10/2 1/11/2 5/5/2
f 4/12/4 7/13/4 6/14/4
f 4/15/5 3/16/5 8/17/5
f 10/18/6 11/19/6 22/20/6
f 7/13/7 11/19/7 10/18/7
f 7/21/8 8/17/8 12/22/8
f 6/8/3 10/23/3 9/24/3
f 24/25/9 27/26/9 20/27/9
f 10/23/3 14/28/3 13/29/3
f 12/30/2 9/6/2 13/31/2
f 23/32/10 15/33/10 18/34/10
f 18/35/2 16/36/2 19/37/2
f 14/28/3 17/38/3 16/39/3
f 15/40/2 13/31/2 16/36/2
f 12/22/11 15/33/11 23/32/11
f 25/41/12 18/34/12 21/42/12
f 27/43/13 19/44/13 20/45/13
f 17/38/3 20/46/3 19/47/3
f 22/48/14 11/49/14 23/32/14
f 22/48/15 23/32/15 25/41/15
f 26/50/16 27/51/16 24/52/16
f 22/20/17 24/25/17 17/53/17
f 4/1/1 1/3/1 3/54/1
f 8/4/2 9/6/2 12/30/2
f 2/7/3 5/9/3 1/55/3
f 3/10/2 5/5/2 8/4/2
f 4/12/4 6/14/4 2/56/4
f 4/15/5 8/17/5 7/21/5
f 10/18/6 22/20/6 14/57/6
f 7/13/7 10/18/7 6/14/7
f 7/21/8 12/22/8 11/49/8
f 6/8/3 9/24/3 5/9/3
f 24/25/9 20/27/9 17/53/9
f 10/23/3 13/29/3 9/24/3
f 12/30/2 13/31/2 15/40/2
f 23/32/10 18/34/10 25/41/10
f 18/35/2 19/37/2 21/58/2
f 14/28/3 16/39/3 13/29/3
f 15/40/2 16/36/2 18/35/2
f 12/22/11 23/32/11 11/49/11
f 25/41/12 21/42/12 26/50/12
f 21/59/13 19/44/13 26/60/13
f 26/60/13 19/44/13 27/43/13
f 17/38/3 19/47/3 16/39/3
f 22/48/18 25/41/18 24/52/18
f 26/50/19 24/52/19 25/41/19
f 22/20/17 17/53/17 14/57/17
