# Blender v3.0.1 OBJ File: 'Main.blend'
# www.blender.org
o Cube.4468_0198
v -0.009000 0.366000 -1.098000
v -0.012000 0.399000 -1.098000
v -0.009000 0.366000 -1.122000
v -0.012000 0.399000 -1.122000
v 0.015000 0.366000 -1.098000
v 0.018000 0.399000 -1.098000
v 0.015000 0.366000 -1.122000
v 0.018000 0.399000 -1.122000
vt 0.361183 0.972053
vt 0.361616 0.972651
vt 0.361183 0.972651
vt 0.882355 0.151302
vt 0.882843 0.151897
vt 0.882409 0.151897
vt 0.587762 0.972051
vt 0.588195 0.972649
vt 0.587762 0.972649
vt 0.914276 0.022478
vt 0.914763 0.023073
vt 0.914330 0.023073
vt 0.864396 0.372186
vt 0.864829 0.371753
vt 0.864829 0.372186
vt 0.890083 0.680181
vt 0.890516 0.680722
vt 0.890083 0.680722
vt 0.361616 0.972053
vt 0.882896 0.151302
vt 0.588195 0.972051
vt 0.914817 0.022478
vt 0.864396 0.371753
vt 0.890516 0.680181
vn -0.9959 -0.0905 0.0000
vn 0.0000 0.0000 -1.0000
vn 0.9959 -0.0905 0.0000
vn 0.0000 0.0000 1.0000
vn 0.0000 -1.0000 0.0000
vn 0.0000 1.0000 0.0000
s off
f 2/1/1 3/2/1 1/3/1
f 4/4/2 7/5/2 3/6/2
f 8/7/3 5/8/3 7/9/3
f 6/10/4 1/11/4 5/12/4
f 7/13/5 1/14/5 3/15/5
f 4/16/6 6/17/6 8/18/6
f 2/1/1 4/19/1 3/2/1
f 4/4/2 8/20/2 7/5/2
f 8/7/3 6/21/3 5/8/3
f 6/10/4 2/22/4 1/11/4
f 7/13/5 5/23/5 1/14/5
f 4/16/6 2/24/6 6/17/6
