# Blender v3.0.1 OBJ File: 'Main.blend'
# www.blender.org
o Cube.5513_0080
v 0.003001 0.465000 3.438000
v 0.354001 0.465000 3.438000
v 0.003001 0.465000 3.531000
v 0.354001 0.465000 3.531000
v 0.003001 0.495000 3.438000
v 0.354001 0.495000 3.438000
v 0.003001 0.495000 3.531000
v 0.354001 0.495000 3.531000
v 0.120001 0.495000 3.438000
v 0.237001 0.495000 3.438000
v 0.120001 0.495000 3.531000
v 0.237001 0.495000 3.531000
v 0.003001 0.510000 3.438000
v 0.003001 0.510000 3.531000
v 0.120001 0.510000 3.438000
v 0.237001 0.510000 3.438000
v 0.120001 0.510000 3.531000
v 0.237001 0.510000 3.531000
v 0.003001 0.525000 3.438000
v 0.003001 0.525000 3.531000
v 0.120001 0.525000 3.438000
v 0.120001 0.525000 3.531000
v 0.003001 0.519000 3.531000
v 0.003001 0.519000 3.438000
v 0.120001 0.519000 3.531000
v 0.120001 0.519000 3.438000
v 0.003001 0.504000 3.531000
v 0.003001 0.504000 3.438000
v 0.237001 0.504000 3.438000
v 0.237001 0.504000 3.531000
v 0.120001 0.504000 3.531000
v 0.120001 0.504000 3.438000
v 0.354001 0.489000 3.438000
v 0.354001 0.489000 3.531000
v 0.003001 0.489000 3.438000
v 0.003001 0.489000 3.531000
v 0.237001 0.489000 3.531000
v 0.120000 0.489000 3.531000
v 0.237001 0.495000 3.534000
v 0.357000 0.495000 3.534000
v 0.357000 0.495000 3.438000
v 0.357000 0.489000 3.438000
v 0.120001 0.510000 3.534000
v 0.240001 0.510000 3.534000
v 0.240001 0.510000 3.438000
v 0.240001 0.504000 3.438000
v 0.120001 0.504000 3.534000
v 0.003001 0.525000 3.534000
v 0.123001 0.525000 3.534000
v 0.123001 0.525000 3.438000
v 0.003001 0.519000 3.534000
v 0.123001 0.519000 3.534000
v 0.123001 0.519000 3.438000
v 0.240001 0.504000 3.534000
v 0.357000 0.489000 3.534000
v 0.237001 0.489000 3.534000
vt 0.090687 0.884899
vt 0.089007 0.891238
vt 0.089007 0.884899
vt 0.107328 0.994573
vt 0.107267 0.994465
vt 0.107328 0.994465
vt 0.624559 0.322101
vt 0.622878 0.322047
vt 0.624620 0.322047
vt 0.529189 0.891444
vt 0.529298 0.893555
vt 0.529298 0.895667
vt 0.907076 0.182977
vt 0.907185 0.184657
vt 0.907076 0.184657
vt 0.635496 0.322101
vt 0.633816 0.324212
vt 0.633816 0.322101
vt 0.907347 0.182977
vt 0.907454 0.184657
vt 0.907347 0.184657
vt 0.907616 0.182977
vt 0.907725 0.184657
vt 0.907616 0.184657
vt 0.619579 0.162546
vt 0.617898 0.160434
vt 0.619579 0.160434
vt 0.899266 0.896039
vt 0.899158 0.893928
vt 0.899266 0.893928
vt 0.529460 0.891444
vt 0.529567 0.893555
vt 0.529460 0.893555
vt 0.628378 0.324155
vt 0.630058 0.324212
vt 0.628317 0.324212
vt 0.529567 0.895667
vt 0.529460 0.895667
vt 0.612399 0.160377
vt 0.614079 0.162485
vt 0.612399 0.162485
vt 0.608641 0.160430
vt 0.606961 0.160377
vt 0.608702 0.160377
vt 0.529729 0.891444
vt 0.529838 0.893555
vt 0.529729 0.893555
vt 0.633755 0.324212
vt 0.633755 0.322047
vt 0.910829 0.397330
vt 0.910992 0.399010
vt 0.910829 0.399010
vt 0.529567 0.891444
vt 0.899158 0.896039
vt 0.898996 0.893928
vt 0.907454 0.182977
vt 0.899428 0.898151
vt 0.899428 0.896039
vt 0.529298 0.891444
vt 0.899428 0.893928
vt 0.907185 0.182977
vt 0.902703 0.517465
vt 0.902866 0.519145
vt 0.902703 0.519145
vt 0.899969 0.900263
vt 0.899537 0.898151
vt 0.899537 0.896039
vt 0.906642 0.182977
vt 0.906642 0.184657
vt 0.528755 0.891444
vt 0.529189 0.897775
vt 0.528755 0.897775
vt 0.270055 0.941619
vt 0.270489 0.943299
vt 0.270055 0.943299
vt 0.907725 0.182916
vt 0.907725 0.182977
vt 0.142755 0.945035
vt 0.142864 0.946776
vt 0.142755 0.946776
vt 0.245349 0.945089
vt 0.245241 0.946830
vt 0.245241 0.945089
vt 0.943071 0.406679
vt 0.943180 0.408845
vt 0.943071 0.408845
vt 0.943026 0.829066
vt 0.943135 0.831235
vt 0.943026 0.831235
vt 0.877439 0.945060
vt 0.877548 0.946801
vt 0.877439 0.946801
vt 0.943076 0.122116
vt 0.943185 0.124282
vt 0.943076 0.124282
vt 0.635496 0.322047
vt 0.624620 0.324212
vt 0.624559 0.324212
vt 0.608702 0.162546
vt 0.608641 0.162546
vt 0.617837 0.162546
vt 0.617837 0.160381
vt 0.529298 0.897775
vt 0.529189 0.897832
vt 0.619579 0.160381
vt 0.628317 0.322047
vt 0.628378 0.322047
vt 0.343572 0.994577
vt 0.343511 0.994469
vt 0.343572 0.994469
vt 0.614141 0.160377
vt 0.614141 0.162542
vt 0.612399 0.162542
vt 0.529460 0.895721
vt 0.529729 0.893609
vt 0.090687 0.891238
vt 0.107267 0.994573
vt 0.622878 0.322101
vt 0.635496 0.324212
vt 0.617898 0.162546
vt 0.630058 0.324155
vt 0.614079 0.160377
vt 0.606961 0.160430
vt 0.529838 0.891444
vt 0.910992 0.397330
vt 0.898996 0.896039
vt 0.899266 0.898151
vt 0.902866 0.517465
vt 0.899537 0.893928
vt 0.899969 0.893928
vt 0.899537 0.900263
vt 0.270489 0.941619
vt 0.907616 0.182916
vt 0.142864 0.945035
vt 0.245349 0.946830
vt 0.943180 0.406679
vt 0.943135 0.829066
vt 0.877548 0.945060
vt 0.943185 0.122116
vt 0.529298 0.897832
vt 0.343511 0.994577
vt 0.529567 0.895721
vt 0.529838 0.893609
vn 0.0000 -1.0000 0.0000
vn -1.0000 0.0000 0.0000
vn 0.0000 0.0000 -1.0000
vn 0.0000 1.0000 0.0000
vn 0.0000 0.0000 1.0000
vn 1.0000 0.0000 0.0000
vn 0.0000 0.0001 1.0000
s off
f 4/1/1 1/2/1 2/3/1
f 31/4/2 43/5/2 17/6/2
f 34/7/1 42/8/1 55/9/1
f 35/10/3 9/11/3 10/12/3
f 36/13/2 5/14/2 35/15/2
f 6/16/4 12/17/4 8/18/4
f 27/19/2 13/20/2 28/21/2
f 23/22/2 19/23/2 24/24/2
f 15/25/4 18/26/4 16/27/4
f 31/28/5 14/29/5 27/30/5
f 28/31/3 15/32/3 32/33/3
f 30/34/1 46/35/1 54/36/1
f 32/33/3 16/37/3 29/38/3
f 19/39/4 22/40/4 21/41/4
f 25/42/1 53/43/1 52/44/1
f 24/45/3 21/46/3 26/47/3
f 8/18/4 39/48/4 40/49/4
f 15/50/6 25/51/6 17/52/6
f 13/53/3 26/47/3 15/32/3
f 17/54/5 23/55/5 14/29/5
f 14/56/2 24/24/2 13/20/2
f 9/11/3 29/38/3 10/12/3
f 12/57/5 31/28/5 11/58/5
f 5/59/3 32/33/3 9/11/3
f 11/58/5 27/30/5 7/60/5
f 7/61/2 28/21/2 5/14/2
f 10/62/6 30/63/6 12/64/6
f 4/65/5 37/66/5 38/67/5
f 3/68/2 35/15/2 1/69/2
f 1/70/3 33/71/3 2/72/3
f 2/73/6 34/74/6 4/75/6
f 7/60/5 38/67/5 11/58/5
f 11/58/7 37/66/7 12/57/7
f 23/22/2 48/76/2 20/77/2
f 46/78/6 44/79/6 54/80/6
f 55/81/6 41/82/6 40/83/6
f 54/84/5 43/85/5 47/86/5
f 52/87/5 48/88/5 51/89/5
f 53/90/6 49/91/6 52/92/6
f 55/93/7 39/94/7 56/95/7
f 8/18/4 41/96/4 6/16/4
f 34/7/1 56/97/1 37/98/1
f 25/42/1 51/99/1 23/100/1
f 18/26/4 43/101/4 44/102/4
f 6/103/3 42/104/3 33/71/3
f 18/26/4 45/105/4 16/27/4
f 30/34/1 47/106/1 31/107/1
f 37/108/2 39/109/2 12/110/2
f 22/40/4 48/111/4 49/112/4
f 22/40/4 50/113/4 21/41/4
f 16/37/3 46/114/3 29/38/3
f 21/46/3 53/115/3 26/47/3
f 4/1/1 3/116/1 1/2/1
f 31/4/2 47/117/2 43/5/2
f 34/7/1 33/118/1 42/8/1
f 6/103/3 33/71/3 10/12/3
f 33/71/3 35/10/3 10/12/3
f 35/10/3 5/59/3 9/11/3
f 36/13/2 7/61/2 5/14/2
f 6/16/4 10/119/4 12/17/4
f 27/19/2 14/56/2 13/20/2
f 23/22/2 20/77/2 19/23/2
f 15/25/4 17/120/4 18/26/4
f 31/28/5 17/54/5 14/29/5
f 28/31/3 13/53/3 15/32/3
f 30/34/1 29/121/1 46/35/1
f 32/33/3 15/32/3 16/37/3
f 19/39/4 20/122/4 22/40/4
f 25/42/1 26/123/1 53/43/1
f 24/45/3 19/124/3 21/46/3
f 8/18/4 12/17/4 39/48/4
f 15/50/6 26/125/6 25/51/6
f 13/53/3 24/45/3 26/47/3
f 17/54/5 25/126/5 23/55/5
f 14/56/2 23/22/2 24/24/2
f 9/11/3 32/33/3 29/38/3
f 12/57/5 30/127/5 31/28/5
f 5/59/3 28/31/3 32/33/3
f 11/58/5 31/28/5 27/30/5
f 7/61/2 27/19/2 28/21/2
f 10/62/6 29/128/6 30/63/6
f 36/129/5 3/130/5 38/67/5
f 3/130/5 4/65/5 38/67/5
f 4/65/5 34/131/5 37/66/5
f 3/68/2 36/13/2 35/15/2
f 1/70/3 35/10/3 33/71/3
f 2/73/6 33/132/6 34/74/6
f 7/60/5 36/129/5 38/67/5
f 11/58/5 38/67/5 37/66/5
f 23/22/2 51/133/2 48/76/2
f 46/78/6 45/134/6 44/79/6
f 55/81/6 42/135/6 41/82/6
f 54/84/5 44/136/5 43/85/5
f 52/87/5 49/137/5 48/88/5
f 53/90/6 50/138/6 49/91/6
f 55/93/5 40/139/5 39/94/5
f 8/18/4 40/49/4 41/96/4
f 34/7/1 55/9/1 56/97/1
f 25/42/1 52/44/1 51/99/1
f 18/26/4 17/120/4 43/101/4
f 6/103/3 41/140/3 42/104/3
f 18/26/4 44/102/4 45/105/4
f 30/34/1 54/36/1 47/106/1
f 37/108/2 56/141/2 39/109/2
f 22/40/4 20/122/4 48/111/4
f 22/40/4 49/112/4 50/113/4
f 16/37/3 45/142/3 46/114/3
f 21/46/3 50/143/3 53/115/3
