# Blender v3.0.1 OBJ File: 'Main.blend'
# www.blender.org
o Cube.5577_0014
v -0.963003 1.042528 -0.512998
v -0.963003 1.042528 -0.510000
v -0.940130 1.058594 -0.512998
v -0.892850 1.080709 -0.512998
v -0.870003 1.086850 -0.512998
v -0.870003 1.086850 -0.510000
v -0.870003 0.775500 -0.512998
v -0.870003 0.775500 -0.510000
v -0.963003 0.775500 -0.512998
v -0.963003 0.775500 -0.510000
v -0.892850 1.080709 -0.510000
v -0.940130 1.058594 -0.510000
vt 0.391667 0.625000
vt 0.607882 0.625000
vt 0.607882 0.662492
vt 0.391667 0.087508
vt 0.577103 0.087508
vt 0.577103 0.125000
vt 0.216875 0.549523
vt 0.178125 0.549523
vt 0.178125 0.549619
vt 0.783209 0.549531
vt 0.783209 0.549630
vt 0.792753 0.549630
vt 0.792753 0.549531
vt 0.812500 0.549630
vt 0.822052 0.549630
vt 0.822052 0.549530
vt 0.216875 0.549619
vt 0.391667 0.662492
vt 0.391667 0.125000
vt 0.812500 0.549531
vn 1.0000 0.0000 0.0000
vn -1.0000 0.0000 0.0000
vn -0.0000 -1.0000 0.0000
vn -0.2596 0.9657 0.0000
vn -0.3429 0.9394 0.0000
vn -0.5011 0.8654 0.0000
vn -0.5748 0.8183 0.0000
vn 0.0000 0.0000 -1.0000
vn 0.0000 0.0000 1.0000
s 1
f 7/1/1 5/2/1 6/3/1
f 10/4/2 2/5/2 1/6/2
f 8/7/3 10/8/3 9/9/3
f 6/10/4 5/11/4 4/12/5
f 11/13/5 4/12/5 3/14/6
f 3/14/6 1/15/7 2/16/7
f 3/14/8 4/12/8 7/17/8
f 11/13/9 8/18/9 6/10/9
f 7/1/1 6/3/1 8/18/1
f 10/4/2 1/6/2 9/19/2
f 8/7/3 9/9/3 7/17/3
f 6/10/4 4/12/5 11/13/5
f 11/13/5 3/14/6 12/20/6
f 3/14/6 2/16/7 12/20/6
f 3/14/8 7/17/8 1/6/8
f 1/6/8 7/17/8 9/19/8
f 7/17/8 4/12/8 5/2/8
f 8/18/9 2/5/9 10/4/9
f 2/5/9 8/18/9 12/20/9
f 12/20/9 8/18/9 11/13/9
