# Blender v3.0.1 OBJ File: 'Main.blend'
# www.blender.org
o Cube.5703_0003
v -1.789170 0.000000 -1.569000
v -1.789170 0.459000 -1.569000
v -1.756171 0.000000 -1.569000
v -1.756171 0.459000 -1.569000
v -1.756171 0.000000 -1.950000
v -1.756171 0.459000 -1.950000
v -1.789170 0.459000 -1.950000
v -1.789170 0.000000 -1.950000
v -1.789170 0.165000 -1.582500
v -1.789170 0.000000 -1.582500
v -1.789170 0.000000 -1.695000
v -1.789170 0.000000 -1.668000
v -1.789170 0.165000 -1.668000
v -1.789170 0.000000 -1.819500
v -1.789170 0.000000 -1.846500
v -1.789170 0.165000 -1.846500
v -1.789170 0.000000 -1.932000
v -1.789170 0.165000 -1.932000
v -1.756171 0.165000 -1.932000
v -1.756171 0.000000 -1.582500
v -1.756171 0.165000 -1.582500
v -1.756171 0.000000 -1.668000
v -1.756171 0.165000 -1.668000
v -1.756171 0.000000 -1.695000
v -1.756171 0.000000 -1.846500
v -1.756171 0.000000 -1.819500
v -1.756171 0.000000 -1.932000
v -1.756171 0.165000 -1.846500
v -1.789170 0.165000 -1.695000
v -1.789170 0.165000 -1.819500
v -1.756171 0.165000 -1.695000
v -1.756171 0.165000 -1.819500
vt 0.221651 0.887852
vt 0.221651 0.896134
vt 0.222247 0.896134
vt 0.876507 0.887809
vt 0.876507 0.896091
vt 0.877102 0.896091
vt 0.158757 0.903227
vt 0.159353 0.903227
vt 0.159353 0.896353
vt 0.934249 0.275544
vt 0.933762 0.275544
vt 0.933762 0.276140
vt 0.890711 0.973709
vt 0.891036 0.973709
vt 0.891036 0.973114
vt 0.948014 0.487755
vt 0.948502 0.487755
vt 0.948502 0.487159
vt 0.977415 0.558883
vt 0.977171 0.558883
vt 0.977171 0.559478
vt 0.043908 0.844165
vt 0.039389 0.849470
vt 0.041635 0.849470
vt 0.249617 0.927060
vt 0.249617 0.930037
vt 0.250213 0.930037
vt 0.524135 0.927065
vt 0.524135 0.930042
vt 0.524731 0.930042
vt 0.253909 0.927060
vt 0.253909 0.930037
vt 0.254505 0.930037
vt 0.569558 0.942101
vt 0.569558 0.940559
vt 0.568963 0.940559
vt 0.684926 0.927073
vt 0.684926 0.930049
vt 0.685522 0.930049
vt 0.876886 0.926995
vt 0.876886 0.929971
vt 0.877481 0.929971
vt 0.428254 0.942195
vt 0.428254 0.940652
vt 0.427658 0.940652
vt 0.258962 0.935531
vt 0.259558 0.935531
vt 0.259558 0.933284
vt 0.301706 0.927039
vt 0.301706 0.930015
vt 0.302302 0.930015
vt 0.269613 0.849329
vt 0.265092 0.844024
vt 0.267366 0.849329
vt 0.222247 0.887852
vt 0.877102 0.887809
vt 0.158757 0.896353
vt 0.934249 0.276140
vt 0.890711 0.973114
vt 0.948014 0.487159
vt 0.977415 0.559478
vt 0.037358 0.852447
vt 0.037358 0.849470
vt 0.037034 0.852447
vt 0.037034 0.844165
vt 0.043665 0.849470
vt 0.043908 0.852447
vt 0.043665 0.852447
vt 0.039389 0.852447
vt 0.038901 0.852447
vt 0.038901 0.849470
vt 0.042122 0.849470
vt 0.042122 0.852447
vt 0.041635 0.852447
vt 0.250213 0.927060
vt 0.524731 0.927065
vt 0.254505 0.927060
vt 0.568963 0.942101
vt 0.685522 0.927073
vt 0.877481 0.926995
vt 0.427658 0.942195
vt 0.258962 0.933284
vt 0.302302 0.927039
vt 0.265336 0.849329
vt 0.265092 0.852306
vt 0.265336 0.852306
vt 0.271967 0.844024
vt 0.271642 0.849329
vt 0.271967 0.852306
vt 0.271642 0.852306
vt 0.267366 0.852306
vt 0.266879 0.852306
vt 0.266879 0.849329
vt 0.270100 0.849329
vt 0.270100 0.852306
vt 0.269613 0.852306
vn 0.0000 0.0000 1.0000
vn 0.0000 0.0000 -1.0000
vn 0.0000 1.0000 0.0000
vn 0.0000 -1.0000 0.0000
vn -1.0000 -0.0000 0.0000
vn 1.0000 0.0000 0.0000
s off
f 2/1/1 1/2/1 3/3/1
f 6/4/2 5/5/2 8/6/2
f 2/7/3 4/8/3 6/9/3
f 12/10/4 11/11/4 24/12/4
f 5/13/4 27/14/4 17/15/4
f 25/16/4 26/17/4 14/18/4
f 1/19/4 10/20/4 20/21/4
f 2/22/5 30/23/5 29/24/5
f 30/25/1 14/26/1 26/27/1
f 13/28/1 12/29/1 22/30/1
f 21/31/2 20/32/2 10/33/2
f 9/34/4 13/35/4 23/36/4
f 18/37/1 17/38/1 27/39/1
f 28/40/2 25/41/2 15/42/2
f 16/43/4 18/44/4 19/45/4
f 31/46/4 29/47/4 30/48/4
f 31/49/2 24/50/2 11/51/2
f 32/52/6 4/53/6 31/54/6
f 2/1/1 3/3/1 4/55/1
f 6/4/2 8/6/2 7/56/2
f 2/7/3 6/9/3 7/57/3
f 12/10/4 24/12/4 22/58/4
f 5/13/4 17/15/4 8/59/4
f 25/16/4 14/18/4 15/60/4
f 1/19/4 20/21/4 3/61/4
f 17/62/5 18/63/5 8/64/5
f 8/64/5 18/63/5 7/65/5
f 2/22/5 9/66/5 1/67/5
f 1/67/5 9/66/5 10/68/5
f 14/69/5 30/23/5 15/70/5
f 15/70/5 30/23/5 16/71/5
f 16/71/5 7/65/5 18/63/5
f 7/65/5 30/23/5 2/22/5
f 2/22/5 13/72/5 9/66/5
f 13/72/5 29/24/5 12/73/5
f 12/73/5 29/24/5 11/74/5
f 2/22/5 29/24/5 13/72/5
f 16/71/5 30/23/5 7/65/5
f 30/25/1 26/27/1 32/75/1
f 13/28/1 22/30/1 23/76/1
f 21/31/2 10/33/2 9/77/2
f 9/34/4 23/36/4 21/78/4
f 18/37/1 27/39/1 19/79/1
f 28/40/2 15/42/2 16/80/2
f 16/43/4 19/45/4 28/81/4
f 31/46/4 30/48/4 32/82/4
f 31/49/2 11/51/2 29/83/2
f 21/84/6 3/85/6 20/86/6
f 6/87/6 19/88/6 5/89/6
f 5/89/6 19/88/6 27/90/6
f 21/84/6 4/53/6 3/85/6
f 24/91/6 31/54/6 22/92/6
f 22/92/6 31/54/6 23/93/6
f 23/93/6 4/53/6 21/84/6
f 4/53/6 32/52/6 6/87/6
f 6/87/6 28/94/6 19/88/6
f 28/94/6 32/52/6 25/95/6
f 25/95/6 32/52/6 26/96/6
f 6/87/6 32/52/6 28/94/6
f 23/93/6 31/54/6 4/53/6
