# Blender v3.0.1 OBJ File: 'Main.blend'
# www.blender.org
o Cube.5567_0062
v 0.010500 0.723000 0.473998
v -1.436998 0.723000 0.473998
v -1.436998 0.723000 -0.021000
v 0.010500 0.751500 0.473998
v -1.436998 0.751500 0.473998
v -1.436998 0.751500 -0.021000
v -1.114503 0.751500 0.473998
v -0.466503 0.751500 0.473998
v -0.319500 0.751500 0.473998
v -1.114503 0.723000 0.473998
v -0.466503 0.723000 0.473998
v -0.319500 0.723000 0.473998
v -1.436998 0.723000 0.326999
v -1.436998 0.751500 0.326999
v -1.439998 0.723000 0.326999
v -1.439998 0.723000 -0.021000
v -1.439998 0.751500 0.326999
v -1.439998 0.751500 -0.021000
v -0.319500 0.751500 0.476998
v 0.010500 0.751500 0.476998
v 0.010500 0.723000 0.476998
v -1.439998 0.723000 0.476998
v -1.439998 0.751500 0.476998
v -0.319500 0.723000 0.476998
v -1.114503 0.751500 0.476998
v -0.466503 0.751500 0.476998
v -1.114503 0.723000 0.476998
v -0.466503 0.723000 0.476998
v -1.445998 0.723000 0.482998
v -1.445998 0.751500 0.482998
v -1.114503 0.751500 0.482998
v -0.466503 0.751500 0.482998
v -0.319500 0.751500 0.482998
v -1.114503 0.723000 0.482998
v -0.466503 0.723000 0.482998
v -0.319500 0.723000 0.482998
v -1.445998 0.723000 0.326999
v -1.445998 0.751500 0.326999
vt 0.010931 0.740910
vt 0.011447 0.746730
vt 0.010931 0.746730
vt 0.894842 0.194752
vt 0.894327 0.197406
vt 0.894327 0.194752
vt 0.010931 0.761075
vt 0.011447 0.767030
vt 0.010931 0.767030
vt 0.010931 0.758423
vt 0.011447 0.761075
vt 0.011447 0.758423
vt 0.894842 0.188474
vt 0.894327 0.188474
vt 0.222461 0.783732
vt 0.222352 0.781079
vt 0.222461 0.781079
vt 0.983655 0.383482
vt 0.983766 0.383996
vt 0.983655 0.383996
vt 0.137142 0.903654
vt 0.136627 0.909609
vt 0.136627 0.903654
vt 0.983752 0.546335
vt 0.983641 0.545821
vt 0.983752 0.545821
vt 0.045280 0.872076
vt 0.044765 0.883769
vt 0.044765 0.872076
vt 0.113025 0.900722
vt 0.113540 0.907001
vt 0.113025 0.907001
vt 0.225168 0.763567
vt 0.231447 0.763513
vt 0.231447 0.763567
vt 0.788329 0.498149
vt 0.788383 0.509842
vt 0.788329 0.509842
vt 0.779397 0.492330
vt 0.785675 0.492276
vt 0.785675 0.492330
vt 0.222515 0.763567
vt 0.225168 0.763513
vt 0.788383 0.512495
vt 0.788329 0.512495
vt 0.788383 0.518450
vt 0.788329 0.518450
vt 0.788329 0.492330
vt 0.788383 0.492276
vt 0.222461 0.769386
vt 0.222461 0.763513
vt 0.930959 0.123169
vt 0.931016 0.123682
vt 0.930959 0.123682
vt 0.222514 0.781079
vt 0.222515 0.769386
vt 0.222514 0.783732
vt 0.983930 0.701084
vt 0.983873 0.700570
vt 0.983930 0.700570
vt 0.222514 0.789687
vt 0.788383 0.498149
vt 0.909259 0.002202
vt 0.908743 0.008186
vt 0.908743 0.002202
vt 0.017515 0.929133
vt 0.018030 0.931948
vt 0.017515 0.931948
vt 0.090684 0.930719
vt 0.090168 0.933372
vt 0.090168 0.930719
vt 0.788494 0.512495
vt 0.225168 0.763404
vt 0.983697 0.835330
vt 0.983808 0.835843
vt 0.983697 0.835843
vt 0.222352 0.769386
vt 0.222352 0.763404
vt 0.785675 0.492167
vt 0.788494 0.492167
vt 0.788494 0.498149
vt 0.983860 0.349509
vt 0.983751 0.348995
vt 0.983860 0.348995
vt 0.011447 0.740910
vt 0.894842 0.197406
vt 0.222352 0.783732
vt 0.983766 0.383482
vt 0.137142 0.909609
vt 0.983641 0.546335
vt 0.045280 0.883769
vt 0.113540 0.900722
vt 0.779397 0.492276
vt 0.931016 0.123169
vt 0.983873 0.701084
vt 0.222461 0.789687
vt 0.909259 0.008186
vt 0.018030 0.929133
vt 0.090684 0.933372
vt 0.788494 0.509842
vt 0.983808 0.835330
vt 0.983751 0.349509
vn 0.0000 0.0000 -1.0000
vn 1.0000 0.0000 0.0000
vn 0.0000 -1.0000 0.0000
vn 0.0000 0.0000 1.0000
vn -1.0000 0.0000 0.0000
vn 0.0000 1.0000 0.0000
s off
f 2/1/1 7/2/1 10/3/1
f 14/4/2 2/5/2 13/6/2
f 12/7/1 4/8/1 1/9/1
f 11/10/1 9/11/1 12/7/1
f 10/3/1 8/12/1 11/10/1
f 6/13/2 13/6/2 3/14/2
f 24/15/3 35/16/3 28/17/3
f 25/18/2 34/19/2 27/20/2
f 20/21/4 24/22/4 21/23/4
f 15/24/1 38/25/1 17/26/1
f 26/27/4 27/28/4 28/29/4
f 15/30/5 18/31/5 16/32/5
f 13/33/3 16/34/3 3/35/3
f 7/36/6 26/37/6 8/38/6
f 6/39/6 17/40/6 14/41/6
f 2/42/3 15/43/3 13/33/3
f 8/38/6 19/44/6 9/45/6
f 9/45/6 20/46/6 4/47/6
f 5/48/6 17/40/6 23/49/6
f 2/42/3 27/50/3 22/51/3
f 4/52/2 21/53/2 1/54/2
f 11/55/3 27/50/3 10/56/3
f 12/57/3 28/17/3 11/55/3
f 3/58/1 18/59/1 6/60/1
f 1/61/3 24/15/3 12/57/3
f 5/48/6 25/62/6 7/36/6
f 31/63/4 29/64/4 34/65/4
f 29/66/5 38/67/5 37/68/5
f 33/69/4 35/70/4 36/71/4
f 26/37/6 33/72/6 19/44/6
f 22/51/3 37/73/3 15/43/3
f 19/74/2 36/75/2 24/76/2
f 22/51/3 34/77/3 29/78/3
f 23/49/6 38/79/6 30/80/6
f 23/49/6 31/81/6 25/62/6
f 28/82/5 32/83/5 26/84/5
f 2/1/1 5/85/1 7/2/1
f 14/4/2 5/86/2 2/5/2
f 12/7/1 9/11/1 4/8/1
f 11/10/1 8/12/1 9/11/1
f 10/3/1 7/2/1 8/12/1
f 6/13/2 14/4/2 13/6/2
f 24/15/3 36/87/3 35/16/3
f 25/18/2 31/88/2 34/19/2
f 20/21/4 19/89/4 24/22/4
f 15/24/1 37/90/1 38/25/1
f 26/27/4 25/91/4 27/28/4
f 15/30/5 17/92/5 18/31/5
f 13/33/3 15/43/3 16/34/3
f 7/36/6 25/62/6 26/37/6
f 6/39/6 18/93/6 17/40/6
f 2/42/3 22/51/3 15/43/3
f 8/38/6 26/37/6 19/44/6
f 9/45/6 19/44/6 20/46/6
f 5/48/6 14/41/6 17/40/6
f 2/42/3 10/56/3 27/50/3
f 4/52/2 20/94/2 21/53/2
f 11/55/3 28/17/3 27/50/3
f 12/57/3 24/15/3 28/17/3
f 3/58/1 16/95/1 18/59/1
f 1/61/3 21/96/3 24/15/3
f 5/48/6 23/49/6 25/62/6
f 31/63/4 30/97/4 29/64/4
f 29/66/5 30/98/5 38/67/5
f 33/69/4 32/99/4 35/70/4
f 26/37/6 32/100/6 33/72/6
f 22/51/3 29/78/3 37/73/3
f 19/74/2 33/101/2 36/75/2
f 22/51/3 27/50/3 34/77/3
f 23/49/6 17/40/6 38/79/6
f 23/49/6 30/80/6 31/81/6
f 28/82/5 35/102/5 32/83/5
