# Blender v3.0.1 OBJ File: 'Main.blend'
# www.blender.org
o Cube.4636_0052
v -0.294750 -0.090000 -1.063500
v -0.294750 -0.090000 -1.069500
v -0.293250 -0.090000 -1.063500
v -0.293250 -0.090000 -1.069500
v -0.294750 -0.006000 -1.063500
v -0.294750 -0.006000 -1.069500
v -0.293250 -0.006000 -1.063500
v -0.293250 -0.006000 -1.069500
vt 0.044791 0.996472
vt 0.044764 0.996363
vt 0.044791 0.996363
vt 0.996380 0.559126
vt 0.996353 0.559234
vt 0.996353 0.559126
vt 0.957818 0.612318
vt 0.957845 0.610802
vt 0.957845 0.612318
vt 0.954923 0.004921
vt 0.955031 0.003405
vt 0.955031 0.004921
vt 0.524460 0.957906
vt 0.524487 0.956390
vt 0.524487 0.957906
vt 0.954967 0.790883
vt 0.955075 0.789367
vt 0.955075 0.790883
vt 0.044764 0.996472
vt 0.996380 0.559234
vt 0.957818 0.610802
vt 0.954923 0.003405
vt 0.524460 0.956390
vt 0.954967 0.789367
vn 0.0000 -1.0000 0.0000
vn 0.0000 1.0000 0.0000
vn 0.0000 0.0000 -1.0000
vn -1.0000 0.0000 0.0000
vn 0.0000 0.0000 1.0000
vn 1.0000 0.0000 0.0000
s off
f 2/1/1 3/2/1 1/3/1
f 7/4/2 6/5/2 5/6/2
f 2/7/3 8/8/3 4/9/3
f 1/10/4 6/11/4 2/12/4
f 3/13/5 5/14/5 1/15/5
f 4/16/6 7/17/6 3/18/6
f 2/1/1 4/19/1 3/2/1
f 7/4/2 8/20/2 6/5/2
f 2/7/3 6/21/3 8/8/3
f 1/10/4 5/22/4 6/11/4
f 3/13/5 7/23/5 5/14/5
f 4/16/6 8/24/6 7/17/6
