# Blender v3.0.1 OBJ File: 'Main.blend'
# www.blender.org
o Cube.5838_0358
v 0.192000 -0.133500 -2.688000
v 0.192000 -0.129000 -2.688000
v 0.192000 -0.133500 -2.680500
v 0.192000 -0.129000 -2.680500
v 0.081000 -0.129000 -2.688000
v 0.081000 -0.133500 -2.688000
v 0.081000 -0.133500 -2.680500
v 0.081000 -0.129000 -2.680500
v 0.192000 -0.137906 -2.680500
v 0.192000 -0.133406 -2.680500
v 0.192000 -0.137906 -2.673000
v 0.192000 -0.133406 -2.673000
v 0.081000 -0.133406 -2.680500
v 0.081000 -0.137906 -2.680500
v 0.081000 -0.137906 -2.673000
v 0.081000 -0.133406 -2.673000
v 0.192000 -0.142312 -2.673000
v 0.192000 -0.137812 -2.673000
v 0.192000 -0.142312 -2.665500
v 0.192000 -0.137812 -2.665500
v 0.081000 -0.137812 -2.673000
v 0.081000 -0.142312 -2.673000
v 0.081000 -0.142312 -2.665500
v 0.081000 -0.137812 -2.665500
v 0.192000 -0.146719 -2.665500
v 0.192000 -0.142219 -2.665500
v 0.192000 -0.146719 -2.658000
v 0.192000 -0.142219 -2.658000
v 0.081000 -0.142219 -2.665500
v 0.081000 -0.146719 -2.665500
v 0.081000 -0.146719 -2.658000
v 0.081000 -0.142219 -2.658000
v 0.192000 -0.151125 -2.658000
v 0.192000 -0.146625 -2.658000
v 0.192000 -0.151125 -2.650500
v 0.192000 -0.146625 -2.650500
v 0.081000 -0.146625 -2.658000
v 0.081000 -0.151125 -2.658000
v 0.081000 -0.151125 -2.650500
v 0.081000 -0.146625 -2.650500
v 0.192000 -0.155531 -2.650500
v 0.192000 -0.151031 -2.650500
v 0.192000 -0.155531 -2.643000
v 0.192000 -0.151031 -2.643000
v 0.081000 -0.151031 -2.650500
v 0.081000 -0.155531 -2.650500
v 0.081000 -0.155531 -2.643000
v 0.081000 -0.151031 -2.643000
v 0.192000 -0.159938 -2.643000
v 0.192000 -0.155437 -2.643000
v 0.192000 -0.159938 -2.635500
v 0.192000 -0.155437 -2.635500
v 0.081000 -0.155437 -2.643000
v 0.081000 -0.159938 -2.643000
v 0.081000 -0.159938 -2.635500
v 0.081000 -0.155437 -2.635500
v 0.192000 -0.164344 -2.635500
v 0.192000 -0.159844 -2.635500
v 0.192000 -0.164344 -2.628000
v 0.192000 -0.159844 -2.628000
v 0.081000 -0.159844 -2.635500
v 0.081000 -0.164344 -2.635500
v 0.081000 -0.164344 -2.628000
v 0.081000 -0.159844 -2.628000
v 0.192000 -0.168750 -2.628000
v 0.192000 -0.164250 -2.628000
v 0.192000 -0.168750 -2.620500
v 0.192000 -0.164250 -2.620500
v 0.081000 -0.164250 -2.628000
v 0.081000 -0.168750 -2.628000
v 0.081000 -0.168750 -2.620500
v 0.081000 -0.164250 -2.620500
v 0.192000 -0.173156 -2.620500
v 0.192000 -0.168656 -2.620500
v 0.192000 -0.173156 -2.613000
v 0.192000 -0.168656 -2.613000
v 0.081000 -0.168656 -2.620500
v 0.081000 -0.173156 -2.620500
v 0.081000 -0.173156 -2.613000
v 0.081000 -0.168656 -2.613000
v 0.192000 -0.177563 -2.613000
v 0.192000 -0.173063 -2.613000
v 0.192000 -0.177563 -2.605500
v 0.192000 -0.173063 -2.605500
v 0.081000 -0.173063 -2.613000
v 0.081000 -0.177563 -2.613000
v 0.081000 -0.177563 -2.605500
v 0.081000 -0.173063 -2.605500
v 0.192000 -0.181969 -2.605500
v 0.192000 -0.177469 -2.605500
v 0.192000 -0.181969 -2.598000
v 0.192000 -0.177469 -2.598000
v 0.081000 -0.177469 -2.605500
v 0.081000 -0.181969 -2.605500
v 0.081000 -0.181969 -2.598000
v 0.081000 -0.177469 -2.598000
v 0.192000 -0.186375 -2.598000
v 0.192000 -0.181875 -2.598000
v 0.192000 -0.186375 -2.590500
v 0.192000 -0.181875 -2.590500
v 0.081000 -0.181875 -2.598000
v 0.081000 -0.186375 -2.598000
v 0.081000 -0.186375 -2.590500
v 0.081000 -0.181875 -2.590500
v 0.192000 -0.190781 -2.590500
v 0.192000 -0.186281 -2.590500
v 0.192000 -0.190781 -2.583000
v 0.192000 -0.186281 -2.583000
v 0.081000 -0.186281 -2.590500
v 0.081000 -0.190781 -2.590500
v 0.081000 -0.190781 -2.583000
v 0.081000 -0.186281 -2.583000
v 0.192000 -0.195188 -2.583000
v 0.192000 -0.190688 -2.583000
v 0.192000 -0.195188 -2.575500
v 0.192000 -0.190688 -2.575500
v 0.081000 -0.190688 -2.583000
v 0.081000 -0.195188 -2.583000
v 0.081000 -0.195188 -2.575500
v 0.081000 -0.190688 -2.575500
v 0.192000 -0.199594 -2.575500
v 0.192000 -0.195094 -2.575500
v 0.192000 -0.199594 -2.568000
v 0.192000 -0.195094 -2.568000
v 0.081000 -0.195094 -2.575500
v 0.081000 -0.199594 -2.575500
v 0.081000 -0.199594 -2.568000
v 0.081000 -0.195094 -2.568000
v 0.192000 -0.204000 -2.568000
v 0.192000 -0.199500 -2.568000
v 0.192000 -0.204000 -2.560500
v 0.192000 -0.199500 -2.560500
v 0.081000 -0.199500 -2.568000
v 0.081000 -0.204000 -2.568000
v 0.081000 -0.204000 -2.560500
v 0.081000 -0.199500 -2.560500
vt 0.943773 0.944140
vt 0.943854 0.942139
vt 0.943854 0.944140
vt 0.944040 0.783255
vt 0.944121 0.785256
vt 0.944040 0.785256
vt 0.943478 0.141908
vt 0.943615 0.139907
vt 0.943615 0.141908
vt 0.990753 0.191560
vt 0.990672 0.191697
vt 0.990672 0.191560
vt 0.943478 0.003399
vt 0.943616 0.005400
vt 0.943478 0.005400
vt 0.745249 0.990613
vt 0.745330 0.990751
vt 0.745249 0.990751
vt 0.943773 0.944140
vt 0.943854 0.942139
vt 0.943854 0.944140
vt 0.944040 0.783255
vt 0.944121 0.785256
vt 0.944040 0.785256
vt 0.943478 0.141908
vt 0.943615 0.139907
vt 0.943615 0.141908
vt 0.990753 0.191560
vt 0.990672 0.191697
vt 0.990672 0.191560
vt 0.943478 0.003399
vt 0.943616 0.005400
vt 0.943478 0.005400
vt 0.745249 0.990613
vt 0.745330 0.990751
vt 0.745249 0.990751
vt 0.943773 0.944140
vt 0.943854 0.942139
vt 0.943854 0.944140
vt 0.944040 0.783255
vt 0.944121 0.785256
vt 0.944040 0.785256
vt 0.943478 0.141908
vt 0.943615 0.139907
vt 0.943615 0.141908
vt 0.990753 0.191560
vt 0.990672 0.191697
vt 0.990672 0.191560
vt 0.943478 0.003399
vt 0.943616 0.005400
vt 0.943478 0.005400
vt 0.745249 0.990613
vt 0.745330 0.990751
vt 0.745249 0.990751
vt 0.943773 0.944140
vt 0.943854 0.942139
vt 0.943854 0.944140
vt 0.944040 0.783255
vt 0.944121 0.785256
vt 0.944040 0.785256
vt 0.943478 0.141908
vt 0.943615 0.139907
vt 0.943615 0.141908
vt 0.990753 0.191560
vt 0.990672 0.191697
vt 0.990672 0.191560
vt 0.943478 0.003399
vt 0.943616 0.005400
vt 0.943478 0.005400
vt 0.745249 0.990613
vt 0.745330 0.990751
vt 0.745249 0.990751
vt 0.943773 0.944140
vt 0.943854 0.942139
vt 0.943854 0.944140
vt 0.944040 0.783255
vt 0.944121 0.785256
vt 0.944040 0.785256
vt 0.943478 0.141908
vt 0.943615 0.139907
vt 0.943615 0.141908
vt 0.990753 0.191560
vt 0.990672 0.191697
vt 0.990672 0.191560
vt 0.943478 0.003399
vt 0.943616 0.005400
vt 0.943478 0.005400
vt 0.745249 0.990613
vt 0.745330 0.990751
vt 0.745249 0.990751
vt 0.943773 0.944140
vt 0.943854 0.942139
vt 0.943854 0.944140
vt 0.944040 0.783255
vt 0.944121 0.785256
vt 0.944040 0.785256
vt 0.943478 0.141908
vt 0.943615 0.139907
vt 0.943615 0.141908
vt 0.990753 0.191560
vt 0.990672 0.191697
vt 0.990672 0.191560
vt 0.943478 0.003399
vt 0.943616 0.005400
vt 0.943478 0.005400
vt 0.745249 0.990613
vt 0.745330 0.990751
vt 0.745249 0.990751
vt 0.943773 0.944140
vt 0.943854 0.942139
vt 0.943854 0.944140
vt 0.944040 0.783255
vt 0.944121 0.785256
vt 0.944040 0.785256
vt 0.943478 0.141908
vt 0.943615 0.139907
vt 0.943615 0.141908
vt 0.990753 0.191560
vt 0.990672 0.191697
vt 0.990672 0.191560
vt 0.943478 0.003399
vt 0.943616 0.005400
vt 0.943478 0.005400
vt 0.745249 0.990613
vt 0.745330 0.990751
vt 0.745249 0.990751
vt 0.943773 0.944140
vt 0.943854 0.942139
vt 0.943854 0.944140
vt 0.944040 0.783255
vt 0.944121 0.785256
vt 0.944040 0.785256
vt 0.943478 0.141908
vt 0.943615 0.139907
vt 0.943615 0.141908
vt 0.990753 0.191560
vt 0.990672 0.191697
vt 0.990672 0.191560
vt 0.943478 0.003399
vt 0.943616 0.005400
vt 0.943478 0.005400
vt 0.745249 0.990613
vt 0.745330 0.990751
vt 0.745249 0.990751
vt 0.943773 0.944140
vt 0.943854 0.942139
vt 0.943854 0.944140
vt 0.944040 0.783255
vt 0.944121 0.785256
vt 0.944040 0.785256
vt 0.943478 0.141908
vt 0.943615 0.139907
vt 0.943615 0.141908
vt 0.990753 0.191560
vt 0.990672 0.191697
vt 0.990672 0.191560
vt 0.943478 0.003399
vt 0.943616 0.005400
vt 0.943478 0.005400
vt 0.745249 0.990613
vt 0.745330 0.990751
vt 0.745249 0.990751
vt 0.943773 0.944140
vt 0.943854 0.942139
vt 0.943854 0.944140
vt 0.944040 0.783255
vt 0.944121 0.785256
vt 0.944040 0.785256
vt 0.943478 0.141908
vt 0.943615 0.139907
vt 0.943615 0.141908
vt 0.990753 0.191560
vt 0.990672 0.191697
vt 0.990672 0.191560
vt 0.943478 0.003399
vt 0.943616 0.005400
vt 0.943478 0.005400
vt 0.745249 0.990613
vt 0.745330 0.990751
vt 0.745249 0.990751
vt 0.943773 0.944140
vt 0.943854 0.942139
vt 0.943854 0.944140
vt 0.944040 0.783255
vt 0.944121 0.785256
vt 0.944040 0.785256
vt 0.943478 0.141908
vt 0.943615 0.139907
vt 0.943615 0.141908
vt 0.990753 0.191560
vt 0.990672 0.191697
vt 0.990672 0.191560
vt 0.943478 0.003399
vt 0.943616 0.005400
vt 0.943478 0.005400
vt 0.745249 0.990613
vt 0.745330 0.990751
vt 0.745249 0.990751
vt 0.943773 0.944140
vt 0.943854 0.942139
vt 0.943854 0.944140
vt 0.944040 0.783255
vt 0.944121 0.785256
vt 0.944040 0.785256
vt 0.943478 0.141908
vt 0.943615 0.139907
vt 0.943615 0.141908
vt 0.990753 0.191560
vt 0.990672 0.191697
vt 0.990672 0.191560
vt 0.943478 0.003399
vt 0.943616 0.005400
vt 0.943478 0.005400
vt 0.745249 0.990613
vt 0.745330 0.990751
vt 0.745249 0.990751
vt 0.943773 0.944140
vt 0.943854 0.942139
vt 0.943854 0.944140
vt 0.944040 0.783255
vt 0.944121 0.785256
vt 0.944040 0.785256
vt 0.943478 0.141908
vt 0.943615 0.139907
vt 0.943615 0.141908
vt 0.990753 0.191560
vt 0.990672 0.191697
vt 0.990672 0.191560
vt 0.943478 0.003399
vt 0.943616 0.005400
vt 0.943478 0.005400
vt 0.745249 0.990613
vt 0.745330 0.990751
vt 0.745249 0.990751
vt 0.943773 0.944140
vt 0.943854 0.942139
vt 0.943854 0.944140
vt 0.944040 0.783255
vt 0.944121 0.785256
vt 0.944040 0.785256
vt 0.943478 0.141908
vt 0.943615 0.139907
vt 0.943615 0.141908
vt 0.990753 0.191560
vt 0.990672 0.191697
vt 0.990672 0.191560
vt 0.943478 0.003399
vt 0.943616 0.005400
vt 0.943478 0.005400
vt 0.745249 0.990613
vt 0.745330 0.990751
vt 0.745249 0.990751
vt 0.943773 0.944140
vt 0.943854 0.942139
vt 0.943854 0.944140
vt 0.944040 0.783255
vt 0.944121 0.785256
vt 0.944040 0.785256
vt 0.943478 0.141908
vt 0.943615 0.139907
vt 0.943615 0.141908
vt 0.990753 0.191560
vt 0.990672 0.191697
vt 0.990672 0.191560
vt 0.943478 0.003399
vt 0.943616 0.005400
vt 0.943478 0.005400
vt 0.745249 0.990613
vt 0.745330 0.990751
vt 0.745249 0.990751
vt 0.943773 0.944140
vt 0.943854 0.942139
vt 0.943854 0.944140
vt 0.944040 0.783255
vt 0.944121 0.785256
vt 0.944040 0.785256
vt 0.943478 0.141908
vt 0.943615 0.139907
vt 0.943615 0.141908
vt 0.990753 0.191560
vt 0.990672 0.191697
vt 0.990672 0.191560
vt 0.943478 0.003399
vt 0.943616 0.005400
vt 0.943478 0.005400
vt 0.745249 0.990613
vt 0.745330 0.990751
vt 0.745249 0.990751
vt 0.943773 0.944140
vt 0.943854 0.942139
vt 0.943854 0.944140
vt 0.944040 0.783255
vt 0.944121 0.785256
vt 0.944040 0.785256
vt 0.943478 0.141908
vt 0.943615 0.139907
vt 0.943615 0.141908
vt 0.990753 0.191560
vt 0.990672 0.191697
vt 0.990672 0.191560
vt 0.943478 0.003399
vt 0.943616 0.005400
vt 0.943478 0.005400
vt 0.745249 0.990613
vt 0.745330 0.990751
vt 0.745249 0.990751
vt 0.943773 0.942139
vt 0.944121 0.783255
vt 0.943478 0.139907
vt 0.990753 0.191697
vt 0.943616 0.003399
vt 0.745330 0.990613
vt 0.943773 0.942139
vt 0.944121 0.783255
vt 0.943478 0.139907
vt 0.990753 0.191697
vt 0.943616 0.003399
vt 0.745330 0.990613
vt 0.943773 0.942139
vt 0.944121 0.783255
vt 0.943478 0.139907
vt 0.990753 0.191697
vt 0.943616 0.003399
vt 0.745330 0.990613
vt 0.943773 0.942139
vt 0.944121 0.783255
vt 0.943478 0.139907
vt 0.990753 0.191697
vt 0.943616 0.003399
vt 0.745330 0.990613
vt 0.943773 0.942139
vt 0.944121 0.783255
vt 0.943478 0.139907
vt 0.990753 0.191697
vt 0.943616 0.003399
vt 0.745330 0.990613
vt 0.943773 0.942139
vt 0.944121 0.783255
vt 0.943478 0.139907
vt 0.990753 0.191697
vt 0.943616 0.003399
vt 0.745330 0.990613
vt 0.943773 0.942139
vt 0.944121 0.783255
vt 0.943478 0.139907
vt 0.990753 0.191697
vt 0.943616 0.003399
vt 0.745330 0.990613
vt 0.943773 0.942139
vt 0.944121 0.783255
vt 0.943478 0.139907
vt 0.990753 0.191697
vt 0.943616 0.003399
vt 0.745330 0.990613
vt 0.943773 0.942139
vt 0.944121 0.783255
vt 0.943478 0.139907
vt 0.990753 0.191697
vt 0.943616 0.003399
vt 0.745330 0.990613
vt 0.943773 0.942139
vt 0.944121 0.783255
vt 0.943478 0.139907
vt 0.990753 0.191697
vt 0.943616 0.003399
vt 0.745330 0.990613
vt 0.943773 0.942139
vt 0.944121 0.783255
vt 0.943478 0.139907
vt 0.990753 0.191697
vt 0.943616 0.003399
vt 0.745330 0.990613
vt 0.943773 0.942139
vt 0.944121 0.783255
vt 0.943478 0.139907
vt 0.990753 0.191697
vt 0.943616 0.003399
vt 0.745330 0.990613
vt 0.943773 0.942139
vt 0.944121 0.783255
vt 0.943478 0.139907
vt 0.990753 0.191697
vt 0.943616 0.003399
vt 0.745330 0.990613
vt 0.943773 0.942139
vt 0.944121 0.783255
vt 0.943478 0.139907
vt 0.990753 0.191697
vt 0.943616 0.003399
vt 0.745330 0.990613
vt 0.943773 0.942139
vt 0.944121 0.783255
vt 0.943478 0.139907
vt 0.990753 0.191697
vt 0.943616 0.003399
vt 0.745330 0.990613
vt 0.943773 0.942139
vt 0.944121 0.783255
vt 0.943478 0.139907
vt 0.990753 0.191697
vt 0.943616 0.003399
vt 0.745330 0.990613
vt 0.943773 0.942139
vt 0.944121 0.783255
vt 0.943478 0.139907
vt 0.990753 0.191697
vt 0.943616 0.003399
vt 0.745330 0.990613
vn 0.0000 0.0000 -1.0000
vn 0.0000 0.0000 1.0000
vn 0.0000 1.0000 0.0000
vn 1.0000 0.0000 0.0000
vn 0.0000 -1.0000 0.0000
vn -1.0000 0.0000 0.0000
s off
f 1/1/1 5/2/1 2/3/1
f 3/4/2 8/5/2 7/6/2
f 2/7/3 8/8/3 4/9/3
f 2/10/4 3/11/4 1/12/4
f 1/13/5 7/14/5 6/15/5
f 7/16/6 5/17/6 6/18/6
f 9/19/1 13/20/1 10/21/1
f 11/22/2 16/23/2 15/24/2
f 10/25/3 16/26/3 12/27/3
f 10/28/4 11/29/4 9/30/4
f 9/31/5 15/32/5 14/33/5
f 15/34/6 13/35/6 14/36/6
f 17/37/1 21/38/1 18/39/1
f 19/40/2 24/41/2 23/42/2
f 18/43/3 24/44/3 20/45/3
f 18/46/4 19/47/4 17/48/4
f 17/49/5 23/50/5 22/51/5
f 23/52/6 21/53/6 22/54/6
f 25/55/1 29/56/1 26/57/1
f 27/58/2 32/59/2 31/60/2
f 26/61/3 32/62/3 28/63/3
f 26/64/4 27/65/4 25/66/4
f 25/67/5 31/68/5 30/69/5
f 31/70/6 29/71/6 30/72/6
f 33/73/1 37/74/1 34/75/1
f 35/76/2 40/77/2 39/78/2
f 34/79/3 40/80/3 36/81/3
f 34/82/4 35/83/4 33/84/4
f 33/85/5 39/86/5 38/87/5
f 39/88/6 37/89/6 38/90/6
f 41/91/1 45/92/1 42/93/1
f 43/94/2 48/95/2 47/96/2
f 42/97/3 48/98/3 44/99/3
f 42/100/4 43/101/4 41/102/4
f 41/103/5 47/104/5 46/105/5
f 47/106/6 45/107/6 46/108/6
f 49/109/1 53/110/1 50/111/1
f 51/112/2 56/113/2 55/114/2
f 50/115/3 56/116/3 52/117/3
f 50/118/4 51/119/4 49/120/4
f 49/121/5 55/122/5 54/123/5
f 55/124/6 53/125/6 54/126/6
f 57/127/1 61/128/1 58/129/1
f 59/130/2 64/131/2 63/132/2
f 58/133/3 64/134/3 60/135/3
f 58/136/4 59/137/4 57/138/4
f 57/139/5 63/140/5 62/141/5
f 63/142/6 61/143/6 62/144/6
f 65/145/1 69/146/1 66/147/1
f 67/148/2 72/149/2 71/150/2
f 66/151/3 72/152/3 68/153/3
f 66/154/4 67/155/4 65/156/4
f 65/157/5 71/158/5 70/159/5
f 71/160/6 69/161/6 70/162/6
f 73/163/1 77/164/1 74/165/1
f 75/166/2 80/167/2 79/168/2
f 74/169/3 80/170/3 76/171/3
f 74/172/4 75/173/4 73/174/4
f 73/175/5 79/176/5 78/177/5
f 79/178/6 77/179/6 78/180/6
f 81/181/1 85/182/1 82/183/1
f 83/184/2 88/185/2 87/186/2
f 82/187/3 88/188/3 84/189/3
f 82/190/4 83/191/4 81/192/4
f 81/193/5 87/194/5 86/195/5
f 87/196/6 85/197/6 86/198/6
f 89/199/1 93/200/1 90/201/1
f 91/202/2 96/203/2 95/204/2
f 90/205/3 96/206/3 92/207/3
f 90/208/4 91/209/4 89/210/4
f 89/211/5 95/212/5 94/213/5
f 95/214/6 93/215/6 94/216/6
f 97/217/1 101/218/1 98/219/1
f 99/220/2 104/221/2 103/222/2
f 98/223/3 104/224/3 100/225/3
f 98/226/4 99/227/4 97/228/4
f 97/229/5 103/230/5 102/231/5
f 103/232/6 101/233/6 102/234/6
f 105/235/1 109/236/1 106/237/1
f 107/238/2 112/239/2 111/240/2
f 106/241/3 112/242/3 108/243/3
f 106/244/4 107/245/4 105/246/4
f 105/247/5 111/248/5 110/249/5
f 111/250/6 109/251/6 110/252/6
f 113/253/1 117/254/1 114/255/1
f 115/256/2 120/257/2 119/258/2
f 114/259/3 120/260/3 116/261/3
f 114/262/4 115/263/4 113/264/4
f 113/265/5 119/266/5 118/267/5
f 119/268/6 117/269/6 118/270/6
f 121/271/1 125/272/1 122/273/1
f 123/274/2 128/275/2 127/276/2
f 122/277/3 128/278/3 124/279/3
f 122/280/4 123/281/4 121/282/4
f 121/283/5 127/284/5 126/285/5
f 127/286/6 125/287/6 126/288/6
f 129/289/1 133/290/1 130/291/1
f 131/292/2 136/293/2 135/294/2
f 130/295/3 136/296/3 132/297/3
f 130/298/4 131/299/4 129/300/4
f 129/301/5 135/302/5 134/303/5
f 135/304/6 133/305/6 134/306/6
f 1/1/1 6/307/1 5/2/1
f 3/4/2 4/308/2 8/5/2
f 2/7/3 5/309/3 8/8/3
f 2/10/4 4/310/4 3/11/4
f 1/13/5 3/311/5 7/14/5
f 7/16/6 8/312/6 5/17/6
f 9/19/1 14/313/1 13/20/1
f 11/22/2 12/314/2 16/23/2
f 10/25/3 13/315/3 16/26/3
f 10/28/4 12/316/4 11/29/4
f 9/31/5 11/317/5 15/32/5
f 15/34/6 16/318/6 13/35/6
f 17/37/1 22/319/1 21/38/1
f 19/40/2 20/320/2 24/41/2
f 18/43/3 21/321/3 24/44/3
f 18/46/4 20/322/4 19/47/4
f 17/49/5 19/323/5 23/50/5
f 23/52/6 24/324/6 21/53/6
f 25/55/1 30/325/1 29/56/1
f 27/58/2 28/326/2 32/59/2
f 26/61/3 29/327/3 32/62/3
f 26/64/4 28/328/4 27/65/4
f 25/67/5 27/329/5 31/68/5
f 31/70/6 32/330/6 29/71/6
f 33/73/1 38/331/1 37/74/1
f 35/76/2 36/332/2 40/77/2
f 34/79/3 37/333/3 40/80/3
f 34/82/4 36/334/4 35/83/4
f 33/85/5 35/335/5 39/86/5
f 39/88/6 40/336/6 37/89/6
f 41/91/1 46/337/1 45/92/1
f 43/94/2 44/338/2 48/95/2
f 42/97/3 45/339/3 48/98/3
f 42/100/4 44/340/4 43/101/4
f 41/103/5 43/341/5 47/104/5
f 47/106/6 48/342/6 45/107/6
f 49/109/1 54/343/1 53/110/1
f 51/112/2 52/344/2 56/113/2
f 50/115/3 53/345/3 56/116/3
f 50/118/4 52/346/4 51/119/4
f 49/121/5 51/347/5 55/122/5
f 55/124/6 56/348/6 53/125/6
f 57/127/1 62/349/1 61/128/1
f 59/130/2 60/350/2 64/131/2
f 58/133/3 61/351/3 64/134/3
f 58/136/4 60/352/4 59/137/4
f 57/139/5 59/353/5 63/140/5
f 63/142/6 64/354/6 61/143/6
f 65/145/1 70/355/1 69/146/1
f 67/148/2 68/356/2 72/149/2
f 66/151/3 69/357/3 72/152/3
f 66/154/4 68/358/4 67/155/4
f 65/157/5 67/359/5 71/158/5
f 71/160/6 72/360/6 69/161/6
f 73/163/1 78/361/1 77/164/1
f 75/166/2 76/362/2 80/167/2
f 74/169/3 77/363/3 80/170/3
f 74/172/4 76/364/4 75/173/4
f 73/175/5 75/365/5 79/176/5
f 79/178/6 80/366/6 77/179/6
f 81/181/1 86/367/1 85/182/1
f 83/184/2 84/368/2 88/185/2
f 82/187/3 85/369/3 88/188/3
f 82/190/4 84/370/4 83/191/4
f 81/193/5 83/371/5 87/194/5
f 87/196/6 88/372/6 85/197/6
f 89/199/1 94/373/1 93/200/1
f 91/202/2 92/374/2 96/203/2
f 90/205/3 93/375/3 96/206/3
f 90/208/4 92/376/4 91/209/4
f 89/211/5 91/377/5 95/212/5
f 95/214/6 96/378/6 93/215/6
f 97/217/1 102/379/1 101/218/1
f 99/220/2 100/380/2 104/221/2
f 98/223/3 101/381/3 104/224/3
f 98/226/4 100/382/4 99/227/4
f 97/229/5 99/383/5 103/230/5
f 103/232/6 104/384/6 101/233/6
f 105/235/1 110/385/1 109/236/1
f 107/238/2 108/386/2 112/239/2
f 106/241/3 109/387/3 112/242/3
f 106/244/4 108/388/4 107/245/4
f 105/247/5 107/389/5 111/248/5
f 111/250/6 112/390/6 109/251/6
f 113/253/1 118/391/1 117/254/1
f 115/256/2 116/392/2 120/257/2
f 114/259/3 117/393/3 120/260/3
f 114/262/4 116/394/4 115/263/4
f 113/265/5 115/395/5 119/266/5
f 119/268/6 120/396/6 117/269/6
f 121/271/1 126/397/1 125/272/1
f 123/274/2 124/398/2 128/275/2
f 122/277/3 125/399/3 128/278/3
f 122/280/4 124/400/4 123/281/4
f 121/283/5 123/401/5 127/284/5
f 127/286/6 128/402/6 125/287/6
f 129/289/1 134/403/1 133/290/1
f 131/292/2 132/404/2 136/293/2
f 130/295/3 133/405/3 136/296/3
f 130/298/4 132/406/4 131/299/4
f 129/301/5 131/407/5 135/302/5
f 135/304/6 136/408/6 133/305/6
