# Blender v3.0.1 OBJ File: 'Main.blend'
# www.blender.org
o Cube.2654_0020
v -1.194000 -0.231000 -0.516000
v -1.194000 -0.210000 -0.516000
v -1.194000 -0.231000 -0.522000
v -1.194000 -0.210000 -0.522000
v 1.197000 -0.231000 -0.516000
v 1.197000 -0.210000 -0.516000
v 1.197000 -0.231000 -0.522000
v 1.197000 -0.210000 -0.522000
vt 0.637986 0.984920
vt 0.638094 0.985299
vt 0.637986 0.985299
vt 0.835396 0.355859
vt 0.835775 0.312711
vt 0.835775 0.355859
vt 0.478062 0.984883
vt 0.478171 0.985262
vt 0.478062 0.985262
vt 0.835580 0.203292
vt 0.835959 0.160144
vt 0.835959 0.203292
vt 0.843548 0.355859
vt 0.843439 0.312711
vt 0.843548 0.312711
vt 0.843530 0.685028
vt 0.843422 0.641880
vt 0.843530 0.641880
vt 0.638094 0.984920
vt 0.835396 0.312711
vt 0.478171 0.984883
vt 0.835580 0.160144
vt 0.843439 0.355859
vt 0.843422 0.685028
vn -1.0000 0.0000 0.0000
vn 0.0000 0.0000 -1.0000
vn 1.0000 0.0000 0.0000
vn 0.0000 0.0000 1.0000
vn 0.0000 -1.0000 0.0000
vn 0.0000 1.0000 0.0000
s off
f 2/1/1 3/2/1 1/3/1
f 4/4/2 7/5/2 3/6/2
f 8/7/3 5/8/3 7/9/3
f 6/10/4 1/11/4 5/12/4
f 7/13/5 1/14/5 3/15/5
f 4/16/6 6/17/6 8/18/6
f 2/1/1 4/19/1 3/2/1
f 4/4/2 8/20/2 7/5/2
f 8/7/3 6/21/3 5/8/3
f 6/10/4 2/22/4 1/11/4
f 7/13/5 5/23/5 1/14/5
f 4/16/6 2/24/6 6/17/6
