# Blender v3.0.1 OBJ File: 'Main.blend'
# www.blender.org
o Cube.5410_0285
v -1.377000 0.366000 3.426000
v -1.377000 0.366000 3.372000
v -1.377000 0.459000 3.372000
v -1.377000 0.459000 3.426000
v -0.450000 0.366000 3.372000
v -0.450000 0.366000 3.426000
v -0.450000 0.459000 3.372000
v -0.450000 0.459000 3.426000
vt 0.865066 0.394408
vt 0.866044 0.394408
vt 0.866044 0.392730
vt 0.934404 0.369079
vt 0.934404 0.370757
vt 0.935378 0.370757
vt 0.222085 0.864145
vt 0.223763 0.864145
vt 0.223763 0.847417
vt 0.865099 0.648812
vt 0.866076 0.648812
vt 0.866076 0.632085
vt 0.864082 0.183064
vt 0.862404 0.183064
vt 0.862404 0.199794
vt 0.866044 0.398104
vt 0.865066 0.398104
vt 0.865066 0.414834
vt 0.865066 0.392730
vt 0.935378 0.369079
vt 0.222085 0.847417
vt 0.865099 0.632085
vt 0.864082 0.199794
vt 0.866044 0.414834
vn -1.0000 0.0000 0.0000
vn 1.0000 0.0000 0.0000
vn 0.0000 0.0000 -1.0000
vn 0.0000 1.0000 0.0000
vn 0.0000 0.0000 1.0000
vn 0.0000 -1.0000 0.0000
s off
f 2/1/1 1/2/1 4/3/1
f 8/4/2 6/5/2 5/6/2
f 2/7/3 3/8/3 7/9/3
f 3/10/4 4/11/4 8/12/4
f 4/13/5 1/14/5 6/15/5
f 1/16/6 2/17/6 5/18/6
f 2/1/1 4/3/1 3/19/1
f 8/4/2 5/6/2 7/20/2
f 2/7/3 7/9/3 5/21/3
f 3/10/4 8/12/4 7/22/4
f 4/13/5 6/15/5 8/23/5
f 1/16/6 5/18/6 6/24/6
