# Blender v3.0.1 OBJ File: 'Main.blend'
# www.blender.org
o Cube.5661_0042
v -1.250999 -0.009000 -0.105000
v -1.248878 -0.009000 -0.105000
v -1.248666 -0.007800 -0.105000
v -1.248029 -0.006900 -0.105000
v -1.247393 -0.006300 -0.105000
v -1.246756 -0.006000 -0.105000
v -1.246756 -0.003000 -0.105000
v -1.247393 -0.002400 -0.105000
v -1.248029 -0.001200 -0.105000
v -1.248666 0.000900 -0.105000
v -1.248878 0.003000 -0.105000
v -1.248878 0.012000 -0.105000
v -1.250999 0.012000 -0.105000
v -0.176999 -0.009000 -0.504000
v -0.176999 -0.009000 -0.501878
v -0.176999 -0.007800 -0.501666
v -0.176999 -0.006900 -0.501030
v -0.176999 -0.006300 -0.500393
v -0.176999 -0.006000 -0.499757
v -0.176999 -0.003000 -0.499757
v -0.176999 -0.002400 -0.500393
v -0.176999 -0.001200 -0.501030
v -0.176999 0.000900 -0.501666
v -0.176999 0.003000 -0.501878
v -0.176999 0.012000 -0.501878
v -0.176999 0.012000 -0.504000
v -0.176999 -0.009000 -0.504000
v -0.176999 -0.009000 -0.501878
v -0.176999 -0.007800 -0.501666
v -0.176999 -0.006900 -0.501030
v -0.176999 -0.006300 -0.500393
v -0.176999 -0.006000 -0.499757
v -0.176999 -0.003000 -0.499757
v -0.176999 -0.002400 -0.500393
v -0.176999 -0.001200 -0.501030
v -0.176999 0.000900 -0.501666
v -0.176999 0.003000 -0.501878
v -0.176999 0.012000 -0.501878
v -0.176999 0.012000 -0.504000
v -0.358499 -0.009000 -0.504000
v -0.356378 -0.009000 -0.501878
v -0.356166 -0.007800 -0.501666
v -0.355529 -0.006900 -0.501030
v -0.354893 -0.006300 -0.500393
v -0.354256 -0.006000 -0.499757
v -0.354256 -0.003000 -0.499757
v -0.354893 -0.002400 -0.500393
v -0.355529 -0.001200 -0.501030
v -0.356166 0.000900 -0.501666
v -0.356378 0.003000 -0.501878
v -0.356378 0.012000 -0.501878
v -0.358499 0.012000 -0.504000
v -0.358499 -0.009000 -0.405000
v -0.356378 -0.009000 -0.402878
v -0.356166 -0.007800 -0.402666
v -0.355529 -0.006900 -0.402030
v -0.354893 -0.006300 -0.401393
v -0.354256 -0.006000 -0.400757
v -0.354256 -0.003000 -0.400757
v -0.354893 -0.002400 -0.401393
v -0.355529 -0.001200 -0.402030
v -0.356166 0.000900 -0.402666
v -0.356378 0.003000 -0.402878
v -0.356378 0.012000 -0.402878
v -0.358499 0.012000 -0.405000
v -0.439499 -0.009000 -0.405000
v -0.441620 -0.009000 -0.402878
v -0.441832 -0.007800 -0.402666
v -0.442469 -0.006900 -0.402030
v -0.443105 -0.006300 -0.401393
v -0.443742 -0.006000 -0.400757
v -0.443742 -0.003000 -0.400757
v -0.443105 -0.002400 -0.401393
v -0.442469 -0.001200 -0.402030
v -0.441832 0.000900 -0.402666
v -0.441620 0.003000 -0.402878
v -0.441620 0.012000 -0.402878
v -0.439499 0.012000 -0.405000
v -0.439499 -0.009000 -0.504000
v -0.441620 -0.009000 -0.501878
v -0.441832 -0.007800 -0.501666
v -0.442469 -0.006900 -0.501030
v -0.443105 -0.006300 -0.500393
v -0.443742 -0.006000 -0.499757
v -0.443742 -0.003000 -0.499757
v -0.443105 -0.002400 -0.500393
v -0.442469 -0.001200 -0.501030
v -0.441832 0.000900 -0.501666
v -0.441620 0.003000 -0.501878
v -0.441620 0.012000 -0.501878
v -0.439499 0.012000 -0.504000
v -1.166999 -0.009000 -0.504000
v -1.164878 -0.009000 -0.501878
v -1.164665 -0.007800 -0.501666
v -1.164029 -0.006900 -0.501030
v -1.163393 -0.006300 -0.500393
v -1.162756 -0.006000 -0.499757
v -1.162756 -0.003000 -0.499757
v -1.163393 -0.002400 -0.500393
v -1.164029 -0.001200 -0.501030
v -1.164665 0.000900 -0.501666
v -1.164878 0.003000 -0.501878
v -1.164878 0.012000 -0.501878
v -1.166999 0.012000 -0.504000
v -1.166999 -0.009000 -0.405000
v -1.164878 -0.009000 -0.402878
v -1.164665 -0.007800 -0.402666
v -1.164029 -0.006900 -0.402030
v -1.163393 -0.006300 -0.401393
v -1.162756 -0.006000 -0.400757
v -1.162756 -0.003000 -0.400757
v -1.163393 -0.002400 -0.401393
v -1.164029 -0.001200 -0.402030
v -1.164665 0.000900 -0.402666
v -1.164878 0.003000 -0.402878
v -1.164878 0.012000 -0.402878
v -1.166999 0.012000 -0.405000
v -1.247999 -0.009000 -0.405000
v -1.245878 -0.009000 -0.402878
v -1.245666 -0.007800 -0.402666
v -1.245029 -0.006900 -0.402030
v -1.244393 -0.006300 -0.401393
v -1.243756 -0.006000 -0.400757
v -1.243756 -0.003000 -0.400757
v -1.244393 -0.002400 -0.401393
v -1.245029 -0.001200 -0.402030
v -1.245666 0.000900 -0.402666
v -1.245878 0.003000 -0.402878
v -1.245878 0.012000 -0.402878
v -1.247999 0.012000 -0.405000
v -1.247999 -0.009000 -0.369000
v -1.245878 -0.009000 -0.366878
v -1.245666 -0.007800 -0.366666
v -1.245029 -0.006900 -0.366030
v -1.244393 -0.006300 -0.365393
v -1.243756 -0.006000 -0.364757
v -1.243756 -0.003000 -0.364757
v -1.244393 -0.002400 -0.365393
v -1.245029 -0.001200 -0.366030
v -1.245666 0.000900 -0.366666
v -1.245878 0.003000 -0.366878
v -1.245878 0.012000 -0.366878
v -1.247999 0.012000 -0.369000
v -1.250999 -0.009000 -0.369000
v -1.248878 -0.009000 -0.366878
v -1.248665 -0.007800 -0.366666
v -1.248029 -0.006900 -0.366030
v -1.247393 -0.006300 -0.365393
v -1.246756 -0.006000 -0.364757
v -1.246756 -0.003000 -0.364757
v -1.247393 -0.002400 -0.365393
v -1.248029 -0.001200 -0.366030
v -1.248665 0.000900 -0.366666
v -1.248878 0.003000 -0.366878
v -1.248878 0.012000 -0.366878
v -1.250999 0.012000 -0.369000
v -1.250999 -0.009000 -0.105000
v -1.248878 -0.009000 -0.105000
v -1.248666 -0.007800 -0.105000
v -1.248029 -0.006900 -0.105000
v -1.247393 -0.006300 -0.105000
v -1.246756 -0.006000 -0.105000
v -1.246756 -0.003000 -0.105000
v -1.247393 -0.002400 -0.105000
v -1.248029 -0.001200 -0.105000
v -1.248666 0.000900 -0.105000
v -1.248878 0.003000 -0.105000
v -1.248878 0.012000 -0.105000
v -1.250999 0.012000 -0.105000
vt 0.951019 0.985423
vt 0.950981 0.985802
vt 0.951019 0.985802
vt 0.950977 0.985780
vt 0.950966 0.985764
vt 0.950954 0.985753
vt 0.950977 0.985623
vt 0.950943 0.985748
vt 0.950966 0.985661
vt 0.950954 0.985683
vt 0.950943 0.985694
vt 0.950981 0.985585
vt 0.950981 0.985423
vt 0.903119 0.859407
vt 0.902740 0.859407
vt 0.902740 0.862681
vt 0.599481 0.839812
vt 0.599515 0.839794
vt 0.598563 0.837979
vt 0.934271 0.235346
vt 0.934250 0.235346
vt 0.934250 0.238578
vt 0.934235 0.235346
vt 0.934235 0.238567
vt 0.934226 0.235346
vt 0.934226 0.238555
vt 0.944779 0.740025
vt 0.944768 0.740029
vt 0.944768 0.742055
vt 0.059451 0.931543
vt 0.059505 0.931543
vt 0.059505 0.928343
vt 0.059517 0.931543
vt 0.059517 0.928332
vt 0.059539 0.931543
vt 0.059539 0.928320
vt 0.059579 0.931543
vt 0.059579 0.928309
vt 0.059617 0.931543
vt 0.059617 0.928305
vt 0.059778 0.931543
vt 0.059778 0.928305
vt 0.536895 0.833197
vt 0.535982 0.834583
vt 0.536025 0.834589
vt 0.535803 0.834856
vt 0.537295 0.835839
vt 0.600145 0.837149
vt 0.600100 0.837146
vt 0.209715 0.731815
vt 0.209715 0.733602
vt 0.209737 0.733598
vt 0.209698 0.731827
vt 0.209698 0.733613
vt 0.209686 0.731838
vt 0.209686 0.733625
vt 0.209680 0.731850
vt 0.209680 0.733636
vt 0.209626 0.731850
vt 0.209626 0.733636
vt 0.209616 0.731838
vt 0.209616 0.733625
vt 0.209595 0.731827
vt 0.209595 0.733613
vt 0.209558 0.731815
vt 0.209558 0.733602
vt 0.209521 0.731812
vt 0.209521 0.733598
vt 0.209358 0.731812
vt 0.209358 0.733598
vt 0.537474 0.835566
vt 0.945626 0.849533
vt 0.945247 0.849533
vt 0.945247 0.850994
vt 0.599693 0.836287
vt 0.599671 0.836326
vt 0.955028 0.215588
vt 0.955049 0.215592
vt 0.955049 0.214048
vt 0.955064 0.215604
vt 0.955064 0.214036
vt 0.955073 0.215615
vt 0.955073 0.214025
vt 0.600159 0.837119
vt 0.600171 0.837116
vt 0.599696 0.836210
vt 0.745438 0.943107
vt 0.745384 0.943107
vt 0.745384 0.944723
vt 0.745372 0.943119
vt 0.745372 0.944711
vt 0.745350 0.943132
vt 0.745350 0.944700
vt 0.745310 0.943144
vt 0.745310 0.944688
vt 0.745272 0.943148
vt 0.745272 0.944685
vt 0.745111 0.943148
vt 0.745111 0.944685
vt 0.537517 0.835570
vt 0.537067 0.836185
vt 0.501134 0.941263
vt 0.500756 0.941263
vt 0.500756 0.943048
vt 0.598111 0.837116
vt 0.599688 0.836268
vt 0.598105 0.837097
vt 0.599689 0.836245
vt 0.598106 0.837075
vt 0.599692 0.836226
vt 0.598109 0.837055
vt 0.598113 0.837040
vt 0.536956 0.836492
vt 0.536981 0.836454
vt 0.535489 0.835473
vt 0.536980 0.836435
vt 0.535488 0.835454
vt 0.536984 0.836408
vt 0.535492 0.835427
vt 0.536995 0.836370
vt 0.535503 0.835387
vt 0.537011 0.836340
vt 0.535519 0.835356
vt 0.537088 0.836221
vt 0.535596 0.835240
vt 0.535575 0.835202
vt 0.880650 0.459404
vt 0.881029 0.459404
vt 0.881029 0.446275
vt 0.598088 0.837155
vt 0.594274 0.829797
vt 0.885902 0.465091
vt 0.885880 0.465095
vt 0.885880 0.478138
vt 0.885866 0.465106
vt 0.885866 0.478126
vt 0.885856 0.465117
vt 0.885856 0.478115
vt 0.594299 0.829764
vt 0.882317 0.518066
vt 0.882370 0.518066
vt 0.882370 0.505090
vt 0.882383 0.518077
vt 0.882383 0.505078
vt 0.882405 0.518089
vt 0.882405 0.505067
vt 0.882444 0.518100
vt 0.882444 0.505055
vt 0.882482 0.518104
vt 0.882482 0.505052
vt 0.882644 0.518104
vt 0.882644 0.505052
vt 0.531915 0.840762
vt 0.531736 0.841035
vt 0.533228 0.842016
vt 0.595856 0.828968
vt 0.595811 0.828964
vt 0.798899 0.940441
vt 0.798899 0.942227
vt 0.798921 0.942224
vt 0.798882 0.940453
vt 0.798882 0.942239
vt 0.798871 0.940464
vt 0.798871 0.942250
vt 0.798865 0.940476
vt 0.798865 0.942262
vt 0.798811 0.940476
vt 0.798811 0.942262
vt 0.798801 0.940464
vt 0.798801 0.942250
vt 0.798780 0.940453
vt 0.798780 0.942239
vt 0.798743 0.940441
vt 0.798743 0.942227
vt 0.798705 0.940437
vt 0.798705 0.942224
vt 0.798543 0.940437
vt 0.798543 0.942224
vt 0.531957 0.840768
vt 0.533408 0.841745
vt 0.945129 0.718878
vt 0.944750 0.718878
vt 0.944750 0.720340
vt 0.595426 0.828148
vt 0.427875 0.956439
vt 0.427854 0.956435
vt 0.427854 0.957896
vt 0.427839 0.956423
vt 0.427839 0.957885
vt 0.427830 0.956412
vt 0.427830 0.957874
vt 0.190550 0.862832
vt 0.190562 0.862835
vt 0.190562 0.861910
vt 0.945428 0.534116
vt 0.945481 0.534116
vt 0.945481 0.532654
vt 0.945494 0.534104
vt 0.945494 0.532643
vt 0.945516 0.534093
vt 0.945516 0.532631
vt 0.945555 0.534081
vt 0.945555 0.532620
vt 0.945593 0.534078
vt 0.945593 0.532616
vt 0.945755 0.534078
vt 0.945755 0.532616
vt 0.533000 0.842364
vt 0.533043 0.842368
vt 0.532820 0.842637
vt 0.533363 0.842994
vt 0.596002 0.827846
vt 0.595956 0.827843
vt 0.969194 0.512760
vt 0.969194 0.513410
vt 0.969216 0.513406
vt 0.969177 0.512772
vt 0.969177 0.513421
vt 0.969166 0.512783
vt 0.969166 0.513433
vt 0.969160 0.512794
vt 0.969160 0.513444
vt 0.969106 0.512794
vt 0.969106 0.513444
vt 0.969096 0.512783
vt 0.969096 0.513433
vt 0.969075 0.512772
vt 0.969075 0.513421
vt 0.969038 0.512760
vt 0.969038 0.513410
vt 0.969000 0.512756
vt 0.969000 0.513406
vt 0.968838 0.512756
vt 0.968838 0.513406
vt 0.533542 0.842721
vt 0.985818 0.714370
vt 0.985818 0.714749
vt 0.985872 0.714749
vt 0.595985 0.827816
vt 0.890738 0.564964
vt 0.890717 0.564960
vt 0.890717 0.565014
vt 0.890702 0.564948
vt 0.890702 0.565002
vt 0.890693 0.564937
vt 0.890693 0.564991
vt 0.918937 0.356283
vt 0.918948 0.356286
vt 0.918948 0.356252
vt 0.922281 0.818410
vt 0.922227 0.818402
vt 0.922219 0.818456
vt 0.922271 0.818397
vt 0.922217 0.818389
vt 0.922263 0.818372
vt 0.922209 0.818365
vt 0.922257 0.818332
vt 0.922203 0.818324
vt 0.922258 0.818294
vt 0.922205 0.818286
vt 0.922281 0.818134
vt 0.922227 0.818126
vt 0.533527 0.842744
vt 0.533570 0.842748
vt 0.533347 0.843017
vt 0.537326 0.845636
vt 0.600171 0.825622
vt 0.600159 0.825601
vt 0.863271 0.582428
vt 0.863271 0.587150
vt 0.863293 0.587150
vt 0.863254 0.582439
vt 0.863254 0.587150
vt 0.863243 0.582451
vt 0.863243 0.587150
vt 0.863236 0.582462
vt 0.863236 0.587150
vt 0.863182 0.582462
vt 0.863182 0.587150
vt 0.863172 0.582451
vt 0.863172 0.587150
vt 0.863151 0.582439
vt 0.863151 0.587150
vt 0.863114 0.582428
vt 0.863114 0.587150
vt 0.863077 0.582424
vt 0.863077 0.587150
vt 0.862915 0.582424
vt 0.862915 0.587150
vt 0.537506 0.845363
vt 0.903119 0.862681
vt 0.598518 0.837975
vt 0.934271 0.238582
vt 0.944779 0.742057
vt 0.059451 0.928343
vt 0.536927 0.833218
vt 0.209737 0.731812
vt 0.945626 0.850994
vt 0.955028 0.214051
vt 0.745438 0.944723
vt 0.501134 0.943048
vt 0.535464 0.835511
vt 0.880650 0.446275
vt 0.594229 0.829794
vt 0.885902 0.478142
vt 0.594288 0.829766
vt 0.882317 0.505090
vt 0.798921 0.940437
vt 0.533450 0.841749
vt 0.945129 0.720340
vt 0.595381 0.828144
vt 0.427875 0.957900
vt 0.190550 0.861907
vt 0.945428 0.532654
vt 0.969216 0.512756
vt 0.533585 0.842725
vt 0.985872 0.714370
vt 0.595941 0.827812
vt 0.890738 0.565018
vt 0.918937 0.356248
vt 0.922273 0.818463
vt 0.863293 0.582424
vt 0.537517 0.845346
vn 0.0000 0.0000 -1.0000
vn -0.0001 0.0000 -1.0000
vn 0.0000 -1.0000 -0.0000
vn -0.0000 -0.1741 0.9847
vn -0.0000 -0.5774 0.8165
vn -0.0000 -0.7276 0.6860
vn 0.0000 -0.9045 0.4264
vn -0.0000 0.0000 1.0000
vn 0.0000 0.7276 0.6860
vn 0.0000 0.4685 0.8835
vn 0.0000 0.2900 0.9570
vn 0.0000 0.1005 0.9949
vn 0.0000 1.0000 0.0000
vn -1.0000 0.0000 0.0000
vn 0.9847 -0.1741 0.0000
vn 0.8165 -0.5774 0.0000
vn 0.6859 -0.7277 0.0000
vn 0.4264 -0.9045 0.0000
vn 1.0000 0.0000 0.0000
vn 0.6860 0.7276 0.0000
vn 0.8834 0.4686 0.0000
vn 0.9570 0.2900 0.0000
vn 0.9949 0.1005 0.0000
vn -0.9847 -0.1740 0.0000
vn -0.8165 -0.5774 0.0000
vn -0.6860 -0.7276 -0.0000
vn -0.4264 -0.9045 0.0000
vn -0.6860 0.7276 0.0000
vn -0.8835 0.4685 0.0000
vn -0.9570 0.2900 0.0000
vn -0.9949 0.1005 0.0000
vn 0.8165 -0.5773 0.0000
vn 0.6860 -0.7276 0.0000
vn 0.4265 -0.9045 0.0000
vn 0.8166 -0.5772 0.0000
vn 0.4263 -0.9046 0.0000
vn 0.6861 0.7275 0.0000
vn 0.8834 0.4685 0.0000
vn 0.9570 0.2901 0.0000
vn 0.9847 -0.1742 0.0000
vn 0.8167 -0.5771 0.0000
vn 0.6862 0.7275 0.0000
vn 0.8833 0.4688 0.0000
vn 0.9847 -0.1740 0.0000
vn -0.9847 -0.1741 0.0000
vn -0.8834 0.4686 0.0000
vn 0.8835 0.4685 -0.0000
vn 0.0000 -0.5773 0.8165
vn 0.8164 -0.5775 0.0000
vn 0.6859 0.7277 0.0000
vn 0.9570 0.2899 0.0000
vn 0.0000 0.2901 0.9570
vn 0.6857 -0.7279 0.0000
vn 0.4266 -0.9045 0.0000
vn 0.9571 0.2898 0.0000
vn 0.9949 0.1006 0.0000
s off
f 13/1/1 2/2/1 1/3/1
f 13/1/1 3/4/1 2/2/1
f 13/1/1 4/5/1 3/4/1
f 13/1/1 5/6/1 4/5/1
f 13/1/2 10/7/2 5/6/2
f 10/7/1 6/8/1 5/6/1
f 10/7/1 9/9/1 6/8/1
f 9/9/1 8/10/1 6/8/1
f 8/10/1 7/11/1 6/8/1
f 13/1/1 11/12/1 10/7/1
f 13/1/1 12/13/1 11/12/1
f 39/14/1 27/15/1 40/16/1
f 27/17/3 28/18/3 41/19/3
f 28/20/4 29/21/4 42/22/4
f 29/21/5 30/23/5 43/24/5
f 30/23/6 31/25/6 44/26/6
f 31/27/7 32/28/7 45/29/7
f 32/30/8 33/31/8 46/32/8
f 34/33/9 47/34/9 46/32/9
f 35/35/10 48/36/10 47/34/10
f 36/37/11 49/38/11 48/36/11
f 37/39/12 50/40/12 49/38/12
f 37/39/8 38/41/8 51/42/8
f 39/43/13 52/44/13 51/45/13
f 52/44/14 40/46/14 53/47/14
f 41/19/3 54/48/3 53/49/3
f 42/50/15 55/51/15 54/52/15
f 43/53/16 56/54/16 55/51/16
f 44/55/17 57/56/17 56/54/17
f 45/57/18 58/58/18 57/56/18
f 45/57/19 46/59/19 59/60/19
f 46/59/20 47/61/20 60/62/20
f 47/61/21 48/63/21 61/64/21
f 48/63/22 49/65/22 62/66/22
f 49/65/23 50/67/23 63/68/23
f 50/67/19 51/69/19 64/70/19
f 51/45/13 52/44/13 65/71/13
f 65/72/1 53/73/1 66/74/1
f 54/48/3 67/75/3 66/76/3
f 54/77/4 55/78/4 68/79/4
f 55/78/5 56/80/5 69/81/5
f 56/80/6 57/82/6 70/83/6
f 57/84/7 58/85/7 71/86/7
f 58/87/8 59/88/8 72/89/8
f 60/90/9 73/91/9 72/89/9
f 60/90/10 61/92/10 74/93/10
f 61/92/11 62/94/11 75/95/11
f 63/96/12 76/97/12 75/95/12
f 63/96/8 64/98/8 77/99/8
f 64/100/13 65/71/13 78/101/13
f 78/102/19 66/103/19 79/104/19
f 66/76/3 67/75/3 80/105/3
f 67/75/24 68/106/24 81/107/24
f 68/106/25 69/108/25 82/109/25
f 69/108/26 70/110/26 83/111/26
f 70/110/27 71/86/27 84/112/27
f 71/113/14 72/114/14 85/115/14
f 73/116/28 86/117/28 85/115/28
f 74/118/29 87/119/29 86/117/29
f 75/120/30 88/121/30 87/119/30
f 76/122/31 89/123/31 88/121/31
f 76/122/14 77/124/14 90/125/14
f 78/101/13 91/126/13 90/125/13
f 91/127/1 79/128/1 92/129/1
f 79/130/3 80/105/3 93/131/3
f 80/132/4 81/133/4 94/134/4
f 81/133/5 82/135/5 95/136/5
f 82/135/6 83/137/6 96/138/6
f 83/111/7 84/112/7 97/139/7
f 84/140/8 85/141/8 98/142/8
f 86/143/9 99/144/9 98/142/9
f 86/143/10 87/145/10 100/146/10
f 87/145/11 88/147/11 101/148/11
f 88/147/12 89/149/12 102/150/12
f 89/149/8 90/151/8 103/152/8
f 90/125/13 91/126/13 104/153/13
f 104/153/14 92/154/14 105/155/14
f 93/131/3 106/156/3 105/157/3
f 94/158/15 107/159/15 106/160/15
f 95/161/32 108/162/32 107/159/32
f 96/163/33 109/164/33 108/162/33
f 97/165/34 110/166/34 109/164/34
f 97/165/19 98/167/19 111/168/19
f 98/167/20 99/169/20 112/170/20
f 99/169/21 100/171/21 113/172/21
f 100/171/22 101/173/22 114/174/22
f 101/173/23 102/175/23 115/176/23
f 102/175/19 103/177/19 116/178/19
f 103/179/13 104/153/13 117/180/13
f 117/181/1 105/182/1 118/183/1
f 105/157/3 106/156/3 119/184/3
f 106/185/4 107/186/4 120/187/4
f 107/186/5 108/188/5 121/189/5
f 108/188/6 109/190/6 122/191/6
f 109/192/7 110/193/7 123/194/7
f 110/195/8 111/196/8 124/197/8
f 112/198/9 125/199/9 124/197/9
f 113/200/10 126/201/10 125/199/10
f 114/202/11 127/203/11 126/201/11
f 115/204/12 128/205/12 127/203/12
f 115/204/8 116/206/8 129/207/8
f 117/180/13 130/208/13 129/209/13
f 130/208/14 118/210/14 131/211/14
f 119/184/3 132/212/3 131/213/3
f 120/214/15 133/215/15 132/216/15
f 121/217/35 134/218/35 133/215/35
f 122/219/17 135/220/17 134/218/17
f 123/221/36 136/222/36 135/220/36
f 123/221/19 124/223/19 137/224/19
f 124/223/37 125/225/37 138/226/37
f 125/225/38 126/227/38 139/228/38
f 126/227/39 127/229/39 140/230/39
f 127/229/23 128/231/23 141/232/23
f 128/231/19 129/233/19 142/234/19
f 129/209/13 130/208/13 143/235/13
f 143/236/1 131/237/1 144/238/1
f 131/213/3 132/212/3 145/239/3
f 132/240/4 133/241/4 146/242/4
f 133/241/5 134/243/5 147/244/5
f 134/243/6 135/245/6 148/246/6
f 135/247/7 136/248/7 149/249/7
f 137/250/8 150/251/8 149/252/8
f 138/253/9 151/254/9 150/251/9
f 139/255/10 152/256/10 151/254/10
f 140/257/11 153/258/11 152/256/11
f 141/259/12 154/260/12 153/258/12
f 141/259/8 142/261/8 155/262/8
f 143/235/13 156/263/13 155/264/13
f 156/263/14 144/265/14 157/266/14
f 145/239/3 158/267/3 157/268/3
f 146/269/40 159/270/40 158/271/40
f 147/272/41 160/273/41 159/270/41
f 148/274/17 161/275/17 160/273/17
f 149/276/36 162/277/36 161/275/36
f 149/276/19 150/278/19 163/279/19
f 150/278/42 151/280/42 164/281/42
f 151/280/43 152/282/43 165/283/43
f 152/282/39 153/284/39 166/285/39
f 153/284/23 154/286/23 167/287/23
f 154/286/19 155/288/19 168/289/19
f 155/264/13 156/263/13 169/290/13
f 39/14/1 40/16/1 52/291/1
f 27/17/3 41/19/3 40/292/3
f 28/20/4 42/22/4 41/293/4
f 29/21/5 43/24/5 42/22/5
f 30/23/6 44/26/6 43/24/6
f 31/27/7 45/29/7 44/294/7
f 32/30/8 46/32/8 45/295/8
f 34/33/9 46/32/9 33/31/9
f 35/35/10 47/34/10 34/33/10
f 36/37/11 48/36/11 35/35/11
f 37/39/12 49/38/12 36/37/12
f 37/39/8 51/42/8 50/40/8
f 39/43/13 51/45/13 38/296/13
f 52/44/14 53/47/14 65/71/14
f 41/19/3 53/49/3 40/292/3
f 42/50/44 54/52/44 41/297/44
f 43/53/32 55/51/32 42/50/32
f 44/55/33 56/54/33 43/53/33
f 45/57/18 57/56/18 44/55/18
f 45/57/19 59/60/19 58/58/19
f 46/59/20 60/62/20 59/60/20
f 47/61/21 61/64/21 60/62/21
f 48/63/39 62/66/39 61/64/39
f 49/65/23 63/68/23 62/66/23
f 50/67/19 64/70/19 63/68/19
f 51/45/13 65/71/13 64/100/13
f 65/72/1 66/74/1 78/298/1
f 54/48/3 66/76/3 53/49/3
f 54/77/4 68/79/4 67/299/4
f 55/78/5 69/81/5 68/79/5
f 56/80/6 70/83/6 69/81/6
f 57/84/7 71/86/7 70/110/7
f 58/87/8 72/89/8 71/300/8
f 60/90/9 72/89/9 59/88/9
f 60/90/10 74/93/10 73/91/10
f 61/92/11 75/95/11 74/93/11
f 63/96/12 75/95/12 62/94/12
f 63/96/8 77/99/8 76/97/8
f 64/100/13 78/101/13 77/124/13
f 78/102/19 79/104/19 91/301/19
f 66/76/3 80/105/3 79/130/3
f 67/75/45 81/107/45 80/105/45
f 68/106/25 82/109/25 81/107/25
f 69/108/26 83/111/26 82/109/26
f 70/110/27 84/112/27 83/111/27
f 71/113/14 85/115/14 84/302/14
f 73/116/28 85/115/28 72/114/28
f 74/118/46 86/117/46 73/116/46
f 75/120/30 87/119/30 74/118/30
f 76/122/31 88/121/31 75/120/31
f 76/122/14 90/125/14 89/123/14
f 78/101/13 90/125/13 77/124/13
f 91/127/1 92/129/1 104/303/1
f 79/130/3 93/131/3 92/304/3
f 80/132/4 94/134/4 93/305/4
f 81/133/5 95/136/5 94/134/5
f 82/135/6 96/138/6 95/136/6
f 83/111/7 97/139/7 96/306/7
f 84/140/8 98/142/8 97/307/8
f 86/143/9 98/142/9 85/141/9
f 86/143/10 100/146/10 99/144/10
f 87/145/11 101/148/11 100/146/11
f 88/147/12 102/150/12 101/148/12
f 89/149/8 103/152/8 102/150/8
f 90/125/13 104/153/13 103/179/13
f 104/153/14 105/155/14 117/180/14
f 93/131/3 105/157/3 92/304/3
f 94/158/40 106/160/40 93/308/40
f 95/161/32 107/159/32 94/158/32
f 96/163/17 108/162/17 95/161/17
f 97/165/18 109/164/18 96/163/18
f 97/165/19 111/168/19 110/166/19
f 98/167/37 112/170/37 111/168/37
f 99/169/47 113/172/47 112/170/47
f 100/171/22 114/174/22 113/172/22
f 101/173/23 115/176/23 114/174/23
f 102/175/19 116/178/19 115/176/19
f 103/179/13 117/180/13 116/309/13
f 117/181/1 118/183/1 130/310/1
f 105/157/3 119/184/3 118/311/3
f 106/185/4 120/187/4 119/312/4
f 107/186/48 121/189/48 120/187/48
f 108/188/6 122/191/6 121/189/6
f 109/192/7 123/194/7 122/313/7
f 110/195/8 124/197/8 123/314/8
f 112/198/9 124/197/9 111/196/9
f 113/200/10 125/199/10 112/198/10
f 114/202/11 126/201/11 113/200/11
f 115/204/12 127/203/12 114/202/12
f 115/204/8 129/207/8 128/205/8
f 117/180/13 129/209/13 116/309/13
f 130/208/14 131/211/14 143/235/14
f 119/184/3 131/213/3 118/311/3
f 120/214/15 132/216/15 119/315/15
f 121/217/49 133/215/49 120/214/49
f 122/219/33 134/218/33 121/217/33
f 123/221/34 135/220/34 122/219/34
f 123/221/19 137/224/19 136/222/19
f 124/223/50 138/226/50 137/224/50
f 125/225/21 139/228/21 138/226/21
f 126/227/51 140/230/51 139/228/51
f 127/229/23 141/232/23 140/230/23
f 128/231/19 142/234/19 141/232/19
f 129/209/13 143/235/13 142/316/13
f 143/236/1 144/238/1 156/317/1
f 131/213/3 145/239/3 144/318/3
f 132/240/4 146/242/4 145/319/4
f 133/241/5 147/244/5 146/242/5
f 134/243/6 148/246/6 147/244/6
f 135/247/7 149/249/7 148/320/7
f 137/250/8 149/252/8 136/321/8
f 138/253/9 150/251/9 137/250/9
f 139/255/10 151/254/10 138/253/10
f 140/257/52 152/256/52 139/255/52
f 141/259/12 153/258/12 140/257/12
f 141/259/8 155/262/8 154/260/8
f 143/235/13 155/264/13 142/316/13
f 156/263/14 157/266/14 169/290/14
f 145/239/3 157/268/3 144/318/3
f 146/269/15 158/271/15 145/322/15
f 147/272/49 159/270/49 146/269/49
f 148/274/53 160/273/53 147/272/53
f 149/276/54 161/275/54 148/274/54
f 149/276/19 163/279/19 162/277/19
f 150/278/50 164/281/50 163/279/50
f 151/280/21 165/283/21 164/281/21
f 152/282/55 166/285/55 165/283/55
f 153/284/56 167/287/56 166/285/56
f 154/286/19 168/289/19 167/287/19
f 155/264/13 169/290/13 168/323/13
l 15 16
l 14 15
l 14 26
l 16 17
l 17 18
l 18 19
l 19 20
l 20 21
l 21 22
l 22 23
l 23 24
l 24 25
l 25 26
