# Blender v3.0.1 OBJ File: 'Main.blend'
# www.blender.org
o Cube.5545_0230
v -0.336622 0.922952 0.453000
v -0.352989 0.861678 0.453000
v -0.309893 0.980449 0.453000
v -0.058555 1.156966 0.453000
v 0.004500 1.162500 0.453000
v 0.067554 1.156966 0.453000
v -0.273612 1.032425 0.453000
v 0.128689 1.140534 0.453000
v 0.186045 1.113706 0.453000
v 0.367500 0.723000 0.453000
v 0.367463 0.800184 0.453000
v -0.228877 1.077300 0.453000
v -0.177045 1.113706 0.453000
v 0.237877 1.077300 0.453000
v 0.282612 1.032425 0.453000
v 0.318893 0.980449 0.453000
v 0.345621 0.922952 0.453000
v -0.358500 0.723000 0.453000
v -0.358463 0.800184 0.453000
v -0.119690 1.140534 0.453000
v 0.361989 0.861678 0.453000
v -1.143622 0.922952 0.453000
v -1.159989 0.861678 0.453000
v -1.116893 0.980449 0.453000
v -0.865555 1.156966 0.453000
v -0.802500 1.162500 0.453000
v -0.739446 1.156966 0.453000
v -1.080612 1.032425 0.453000
v -0.678311 1.140534 0.453000
v -0.620955 1.113706 0.453000
v -0.439500 0.723000 0.453000
v -0.439537 0.800184 0.453000
v -1.035877 1.077300 0.453000
v -0.984045 1.113706 0.453000
v -0.569123 1.077300 0.453000
v -0.524388 1.032425 0.453000
v -0.488107 0.980449 0.453000
v -0.461379 0.922952 0.453000
v -1.165500 0.723000 0.453000
v -1.165463 0.800184 0.453000
v -0.926690 1.140534 0.453000
v -0.445011 0.861678 0.453000
v 0.470378 0.922952 0.453000
v 0.454011 0.861678 0.453000
v 0.497107 0.980449 0.453000
v 0.748445 1.156966 0.453000
v 0.811500 1.162500 0.453000
v 0.874554 1.156966 0.453000
v 0.533388 1.032425 0.453000
v 0.935689 1.140534 0.453000
v 0.993045 1.113706 0.453000
v 1.174500 0.723000 0.453000
v 1.174463 0.800184 0.453000
v 0.578123 1.077300 0.453000
v 0.629955 1.113706 0.453000
v 1.044877 1.077300 0.453000
v 1.089612 1.032425 0.453000
v 1.125893 0.980449 0.453000
v 1.152622 0.922952 0.453000
v 0.448500 0.723000 0.453000
v 0.448537 0.800184 0.453000
v 0.687310 1.140534 0.453000
v 1.168989 0.861678 0.453000
v 1.257000 1.200000 0.453000
v 1.257000 0.723000 0.453000
v -1.248000 0.723000 0.453000
v -1.248000 1.200000 0.453000
v -0.336622 0.922952 0.429000
v -0.352989 0.861678 0.429000
v -0.309893 0.980449 0.429000
v -0.058555 1.156966 0.429000
v 0.004500 1.162500 0.429000
v 0.067554 1.156966 0.429000
v -0.273612 1.032425 0.429000
v 0.128689 1.140534 0.429000
v 0.186045 1.113706 0.429000
v 0.367500 0.723000 0.429000
v 0.367463 0.800184 0.429000
v -0.228877 1.077300 0.429000
v -0.177045 1.113706 0.429000
v 0.237877 1.077300 0.429000
v 0.282612 1.032425 0.429000
v 0.318893 0.980449 0.429000
v 0.345621 0.922952 0.429000
v -0.358500 0.723000 0.429000
v -0.358463 0.800184 0.429000
v -0.119690 1.140534 0.429000
v 0.361989 0.861678 0.429000
v -1.143622 0.922952 0.429000
v -1.159989 0.861678 0.429000
v -1.116893 0.980449 0.429000
v -0.865555 1.156966 0.429000
v -0.802500 1.162500 0.429000
v -0.739446 1.156966 0.429000
v -1.080612 1.032425 0.429000
v -0.678311 1.140534 0.429000
v -0.620955 1.113706 0.429000
v -0.439500 0.723000 0.429000
v -0.439537 0.800184 0.429000
v -1.035877 1.077300 0.429000
v -0.984045 1.113706 0.429000
v -0.569123 1.077300 0.429000
v -0.524388 1.032425 0.429000
v -0.488107 0.980449 0.429000
v -0.461379 0.922952 0.429000
v -1.165500 0.723000 0.429000
v -1.165463 0.800184 0.429000
v -0.926690 1.140534 0.429000
v -0.445011 0.861678 0.429000
v 0.470378 0.922952 0.429000
v 0.454011 0.861678 0.429000
v 0.497107 0.980449 0.429000
v 0.748445 1.156966 0.429000
v 0.811500 1.162500 0.429000
v 0.874554 1.156966 0.429000
v 0.533388 1.032425 0.429000
v 0.935689 1.140534 0.429000
v 0.993045 1.113706 0.429000
v 1.174500 0.723000 0.429000
v 1.174463 0.800184 0.429000
v 0.578123 1.077300 0.429000
v 0.629955 1.113706 0.429000
v 1.044877 1.077300 0.429000
v 1.089612 1.032425 0.429000
v 1.125893 0.980449 0.429000
v 1.152622 0.922952 0.429000
v 0.448500 0.723000 0.429000
v 0.448537 0.800184 0.429000
v 0.687310 1.140534 0.429000
v 1.168989 0.861678 0.429000
v 1.257000 1.200000 0.429000
v 1.257000 0.723000 0.429000
v -1.248000 0.723000 0.429000
v -1.248000 1.200000 0.429000
vt 0.719845 0.727962
vt 0.718734 0.727863
vt 0.718734 0.726400
vt 0.291432 0.728171
vt 0.291432 0.726708
vt 0.292543 0.726609
vt 0.790058 0.897954
vt 0.790494 0.897019
vt 0.790494 0.897954
vt 0.628864 0.892641
vt 0.628430 0.893779
vt 0.628430 0.892641
vt 0.297234 0.899771
vt 0.296801 0.900712
vt 0.296801 0.899771
vt 0.628864 0.893779
vt 0.628430 0.894917
vt 0.790058 0.890467
vt 0.790494 0.889532
vt 0.790494 0.890467
vt 0.382390 0.901607
vt 0.382825 0.900566
vt 0.382825 0.901607
vt 0.297234 0.900712
vt 0.296801 0.901753
vt 0.628864 0.894917
vt 0.628430 0.896019
vt 0.297234 0.901753
vt 0.296801 0.902860
vt 0.628864 0.896019
vt 0.628430 0.897054
vt 0.905816 0.441767
vt 0.906252 0.440625
vt 0.906252 0.441767
vt 0.244914 0.900553
vt 0.245349 0.899612
vt 0.245349 0.900553
vt 0.877102 0.905128
vt 0.876669 0.906497
vt 0.876669 0.905128
vt 0.905816 0.440625
vt 0.906252 0.439518
vt 0.244914 0.906321
vt 0.245349 0.904952
vt 0.245349 0.906321
vt 0.628864 0.889567
vt 0.628430 0.890503
vt 0.628430 0.889567
vt 0.347943 0.894840
vt 0.348379 0.893702
vt 0.348379 0.894840
vt 0.790058 0.897019
vt 0.790494 0.895985
vt 0.877102 0.899787
vt 0.876669 0.900729
vt 0.876669 0.899787
vt 0.347943 0.893702
vt 0.348379 0.892564
vt 0.244914 0.904952
vt 0.245349 0.903843
vt 0.628864 0.897054
vt 0.628430 0.897989
vt 0.905816 0.439518
vt 0.906252 0.438477
vt 0.790058 0.895985
vt 0.790494 0.894881
vt 0.877102 0.900729
vt 0.876669 0.901769
vt 0.347943 0.892564
vt 0.348379 0.891461
vt 0.297234 0.904002
vt 0.296801 0.905111
vt 0.296801 0.904002
vt 0.877102 0.901769
vt 0.876669 0.902877
vt 0.347943 0.891461
vt 0.348379 0.890426
vt 0.297234 0.902860
vt 0.382390 0.900566
vt 0.382825 0.899625
vt 0.312851 0.905077
vt 0.312418 0.906446
vt 0.312418 0.905077
vt 0.658201 0.897897
vt 0.658637 0.889430
vt 0.658637 0.897897
vt 0.382390 0.906334
vt 0.382825 0.904965
vt 0.382825 0.906334
vt 0.347943 0.897912
vt 0.348379 0.896977
vt 0.348379 0.897912
vt 0.101463 0.944230
vt 0.101898 0.942741
vt 0.101898 0.944230
vt 0.628864 0.890503
vt 0.628430 0.891537
vt 0.312851 0.899736
vt 0.312418 0.900677
vt 0.312418 0.899736
vt 0.148537 0.944581
vt 0.148973 0.943119
vt 0.148973 0.944581
vt 0.382390 0.904965
vt 0.382825 0.903856
vt 0.347943 0.890426
vt 0.348379 0.889490
vt 0.917038 0.944597
vt 0.917473 0.943137
vt 0.917473 0.944597
vt 0.628864 0.891537
vt 0.312851 0.900677
vt 0.312418 0.901718
vt 0.943778 0.912720
vt 0.944213 0.911231
vt 0.944213 0.912720
vt 0.877102 0.904019
vt 0.876669 0.904019
vt 0.312851 0.901718
vt 0.312418 0.902825
vt 0.215424 0.889436
vt 0.214991 0.897906
vt 0.214991 0.889436
vt 0.877102 0.902877
vt 0.905816 0.438477
vt 0.906252 0.437536
vt 0.832899 0.636281
vt 0.833335 0.591079
vt 0.833335 0.636281
vt 0.244914 0.903843
vt 0.245349 0.902701
vt 0.905816 0.444245
vt 0.906252 0.442876
vt 0.906252 0.444245
vt 0.244914 0.902701
vt 0.245349 0.901594
vt 0.347943 0.896977
vt 0.348379 0.895942
vt 0.790058 0.894881
vt 0.790494 0.893743
vt 0.905816 0.442876
vt 0.790058 0.893743
vt 0.790494 0.892605
vt 0.347943 0.895942
vt 0.244914 0.901594
vt 0.312851 0.903967
vt 0.312418 0.903967
vt 0.790058 0.892605
vt 0.790494 0.891502
vt 0.312851 0.902825
vt 0.790058 0.891502
vt 0.382390 0.903856
vt 0.382825 0.902714
vt 0.297234 0.905111
vt 0.296801 0.906480
vt 0.382390 0.902714
vt 0.718734 0.713302
vt 0.717344 0.713302
vt 0.717344 0.711839
vt 0.718734 0.711839
vt 0.719845 0.713401
vt 0.719845 0.711740
vt 0.720949 0.713695
vt 0.720949 0.711446
vt 0.721987 0.714176
vt 0.721987 0.710961
vt 0.722927 0.714833
vt 0.722927 0.710308
vt 0.723736 0.715639
vt 0.723736 0.709502
vt 0.724393 0.716574
vt 0.724393 0.708567
vt 0.724878 0.717609
vt 0.724878 0.707532
vt 0.725172 0.718713
vt 0.725172 0.706428
vt 0.725271 0.719851
vt 0.725271 0.705290
vt 0.718734 0.698741
vt 0.717344 0.698737
vt 0.717344 0.697252
vt 0.725951 0.742454
vt 0.717344 0.742454
vt 0.719845 0.740866
vt 0.717344 0.740965
vt 0.718734 0.740965
vt 0.719845 0.698836
vt 0.725951 0.697252
vt 0.720949 0.740568
vt 0.720949 0.699134
vt 0.721987 0.699615
vt 0.721987 0.740087
vt 0.722927 0.739434
vt 0.722927 0.700272
vt 0.723736 0.701078
vt 0.723736 0.738624
vt 0.724393 0.737688
vt 0.724393 0.702014
vt 0.724878 0.703048
vt 0.724878 0.736654
vt 0.725172 0.735550
vt 0.725172 0.704152
vt 0.725271 0.734412
vt 0.725172 0.720989
vt 0.725172 0.733274
vt 0.724878 0.732174
vt 0.724878 0.722093
vt 0.724393 0.723127
vt 0.724393 0.731139
vt 0.723736 0.730204
vt 0.723736 0.724063
vt 0.722927 0.724869
vt 0.722927 0.729394
vt 0.721987 0.728741
vt 0.721987 0.725526
vt 0.720949 0.728260
vt 0.720949 0.726007
vt 0.719845 0.726301
vt 0.717344 0.727863
vt 0.717344 0.726400
vt 0.291432 0.713610
vt 0.290042 0.713610
vt 0.290042 0.712147
vt 0.291432 0.712147
vt 0.292543 0.713709
vt 0.292543 0.712048
vt 0.293647 0.714003
vt 0.293647 0.711754
vt 0.294685 0.714484
vt 0.294685 0.711269
vt 0.295625 0.715141
vt 0.295625 0.710616
vt 0.296434 0.715947
vt 0.296434 0.709810
vt 0.297091 0.716882
vt 0.297091 0.708875
vt 0.297576 0.717917
vt 0.297576 0.707840
vt 0.297870 0.719021
vt 0.297870 0.706736
vt 0.297970 0.720159
vt 0.297970 0.705598
vt 0.291432 0.699049
vt 0.290042 0.699045
vt 0.290042 0.697560
vt 0.298649 0.742762
vt 0.290042 0.742762
vt 0.292543 0.741174
vt 0.290042 0.741273
vt 0.291432 0.741273
vt 0.292543 0.699144
vt 0.298649 0.697560
vt 0.293647 0.740876
vt 0.293647 0.699442
vt 0.294685 0.699923
vt 0.294685 0.740395
vt 0.295625 0.739742
vt 0.295625 0.700580
vt 0.296434 0.701386
vt 0.296434 0.738932
vt 0.297091 0.737996
vt 0.297091 0.702322
vt 0.297576 0.703356
vt 0.297576 0.736961
vt 0.297870 0.735858
vt 0.297870 0.704460
vt 0.297970 0.734720
vt 0.297870 0.733582
vt 0.297870 0.721297
vt 0.297576 0.732482
vt 0.297576 0.722401
vt 0.297091 0.723435
vt 0.297091 0.731447
vt 0.296434 0.730512
vt 0.296434 0.724371
vt 0.295625 0.729702
vt 0.295625 0.725177
vt 0.294685 0.729049
vt 0.294685 0.725834
vt 0.293647 0.726315
vt 0.293647 0.728568
vt 0.292543 0.728270
vt 0.290042 0.728171
vt 0.290042 0.726708
vt 0.790058 0.889532
vt 0.244914 0.899612
vt 0.877102 0.906497
vt 0.628864 0.897989
vt 0.382390 0.899625
vt 0.312851 0.906446
vt 0.658201 0.889430
vt 0.101463 0.942741
vt 0.148537 0.943119
vt 0.347943 0.889490
vt 0.917038 0.943137
vt 0.943778 0.911231
vt 0.215424 0.897906
vt 0.905816 0.437536
vt 0.832899 0.591079
vt 0.297234 0.906480
vn 0.0000 0.0000 1.0000
vn 0.0000 0.0000 -1.0000
vn 0.6439 -0.7651 0.0000
vn 0.5011 -0.8654 0.0000
vn 0.1742 -0.9847 0.0000
vn -0.0000 -1.0000 0.0000
vn -0.6439 -0.7651 0.0000
vn -0.7670 -0.6416 0.0000
vn -0.1742 -0.9847 0.0000
vn -0.5011 -0.8654 0.0000
vn 0.8667 -0.4989 0.0000
vn 0.7670 -0.6416 0.0000
vn -0.8667 -0.4989 0.0000
vn -0.3429 -0.9394 0.0000
vn -0.9400 -0.3411 0.0000
vn 0.9847 -0.1740 0.0000
vn 0.9400 -0.3411 0.0000
vn -0.9990 -0.0446 0.0000
vn -1.0000 -0.0005 0.0000
vn 1.0000 -0.0005 0.0000
vn 0.9990 -0.0446 0.0000
vn 0.3429 -0.9394 0.0000
vn -0.9847 -0.1740 0.0000
vn 1.0000 0.0000 0.0000
vn -1.0000 0.0000 0.0000
vn 0.0000 1.0000 0.0000
s 1
f 42/1/1 32/2/1 19/3/1
f 128/4/2 78/5/2 88/6/2
f 121/7/3 55/8/4 54/9/3
f 92/10/5 26/11/6 25/12/5
f 123/13/7 57/14/8 56/15/7
f 93/16/6 27/17/9 26/11/6
f 118/18/10 56/19/7 51/20/10
f 91/21/11 28/22/12 24/23/11
f 124/24/8 58/25/13 57/14/8
f 94/26/9 29/27/14 27/17/9
f 125/28/13 59/29/15 58/25/13
f 96/30/14 30/31/10 29/27/14
f 69/32/16 1/33/17 2/34/16
f 116/35/12 54/36/3 49/37/12
f 99/38/18 31/39/19 32/40/18
f 68/41/17 3/42/11 1/33/17
f 127/43/20 61/44/21 60/45/20
f 100/46/3 34/47/4 33/48/3
f 71/49/5 5/50/6 4/51/5
f 122/52/4 62/53/22 55/8/4
f 102/54/7 36/55/8 35/56/7
f 72/57/6 6/58/9 5/50/6
f 128/59/21 44/60/16 61/44/21
f 97/61/10 35/62/7 30/31/10
f 70/63/11 7/64/12 3/42/11
f 129/65/22 46/66/5 62/53/22
f 103/67/8 37/68/13 36/55/8
f 73/69/9 8/70/14 6/58/9
f 130/71/23 53/72/18 63/73/23
f 104/74/13 38/75/15 37/68/13
f 75/76/14 9/77/10 8/70/14
f 126/78/15 63/73/23 59/29/15
f 95/79/12 33/80/3 28/22/12
f 78/81/18 10/82/19 11/83/18
f 132/84/24 64/85/24 65/86/24
f 106/87/20 40/88/21 39/89/20
f 79/90/3 13/91/4 12/92/3
f 119/93/6 65/94/6 52/95/6
f 101/96/4 41/97/22 34/47/4
f 81/98/7 15/99/8 14/100/7
f 77/101/6 60/102/6 10/103/6
f 107/104/21 23/105/16 40/88/21
f 76/106/10 14/107/7 9/77/10
f 98/108/6 18/109/6 31/110/6
f 108/111/22 25/12/5 41/97/22
f 82/112/8 16/113/13 15/99/8
f 133/114/6 39/115/6 66/116/6
f 109/117/23 32/40/18 42/118/23
f 83/119/13 17/120/15 16/113/13
f 134/121/25 66/122/25 67/123/25
f 105/124/15 42/118/23 38/75/15
f 74/125/12 12/126/3 7/64/12
f 131/127/26 67/128/26 64/129/26
f 111/130/16 43/131/17 44/60/16
f 85/132/20 19/133/21 18/134/20
f 110/135/17 45/136/11 43/131/17
f 80/137/4 20/138/22 13/91/4
f 113/139/5 47/140/6 46/66/5
f 86/141/21 2/34/16 19/133/21
f 114/142/6 48/143/9 47/140/6
f 87/144/22 4/51/5 20/138/22
f 112/145/11 49/37/12 45/136/11
f 88/146/23 11/83/18 21/147/23
f 115/148/9 50/149/14 48/143/9
f 84/150/15 21/147/23 17/120/15
f 117/151/14 51/20/10 50/149/14
f 90/152/16 22/153/17 23/105/16
f 120/154/18 52/155/19 53/72/18
f 89/156/17 24/23/11 22/153/17
f 11/157/1 10/158/1 60/159/1
f 11/157/1 60/159/1 61/160/1
f 21/161/1 11/157/1 61/160/1
f 21/161/1 61/160/1 44/162/1
f 17/163/1 21/161/1 43/164/1
f 21/161/1 44/162/1 43/164/1
f 16/165/1 17/163/1 45/166/1
f 17/163/1 43/164/1 45/166/1
f 15/167/1 16/165/1 45/166/1
f 15/167/1 45/166/1 49/168/1
f 14/169/1 15/167/1 49/168/1
f 14/169/1 49/168/1 54/170/1
f 9/171/1 14/169/1 54/170/1
f 9/171/1 54/170/1 55/172/1
f 8/173/1 9/171/1 62/174/1
f 9/171/1 55/172/1 62/174/1
f 6/175/1 8/173/1 62/174/1
f 6/175/1 62/174/1 46/176/1
f 5/177/1 6/175/1 46/176/1
f 5/177/1 46/176/1 47/178/1
f 53/179/1 52/180/1 65/181/1
f 67/182/1 66/183/1 23/184/1
f 66/183/1 39/185/1 40/186/1
f 66/183/1 40/186/1 23/184/1
f 53/179/1 65/181/1 63/187/1
f 65/181/1 64/188/1 63/187/1
f 67/182/1 23/184/1 22/189/1
f 59/190/1 63/187/1 64/188/1
f 58/191/1 59/190/1 64/188/1
f 67/182/1 22/189/1 24/192/1
f 67/182/1 24/192/1 28/193/1
f 57/194/1 58/191/1 64/188/1
f 56/195/1 57/194/1 64/188/1
f 67/182/1 28/193/1 33/196/1
f 67/182/1 33/196/1 34/197/1
f 51/198/1 56/195/1 64/188/1
f 50/199/1 51/198/1 64/188/1
f 67/182/1 34/197/1 41/200/1
f 67/182/1 41/200/1 25/201/1
f 48/202/1 50/199/1 64/188/1
f 47/178/1 48/202/1 64/188/1
f 67/182/1 25/201/1 26/203/1
f 64/188/1 67/182/1 5/177/1
f 67/182/1 26/203/1 5/177/1
f 5/177/1 47/178/1 64/188/1
f 5/177/1 26/203/1 4/204/1
f 26/203/1 27/205/1 4/204/1
f 4/204/1 27/205/1 29/206/1
f 20/207/1 4/204/1 29/206/1
f 20/207/1 29/206/1 13/208/1
f 29/206/1 30/209/1 13/208/1
f 13/208/1 30/209/1 35/210/1
f 12/211/1 13/208/1 35/210/1
f 12/211/1 35/210/1 7/212/1
f 35/210/1 36/213/1 7/212/1
f 7/212/1 36/213/1 37/214/1
f 3/215/1 7/212/1 37/214/1
f 3/215/1 37/214/1 38/216/1
f 1/217/1 3/215/1 38/216/1
f 1/217/1 38/216/1 42/1/1
f 2/218/1 1/217/1 42/1/1
f 32/2/1 31/219/1 19/3/1
f 31/219/1 18/220/1 19/3/1
f 2/218/1 42/1/1 19/3/1
f 86/221/2 85/222/2 98/223/2
f 86/221/2 98/223/2 99/224/2
f 69/225/2 86/221/2 109/226/2
f 86/221/2 99/224/2 109/226/2
f 68/227/2 69/225/2 109/226/2
f 68/227/2 109/226/2 105/228/2
f 70/229/2 68/227/2 105/228/2
f 70/229/2 105/228/2 104/230/2
f 74/231/2 70/229/2 104/230/2
f 74/231/2 104/230/2 103/232/2
f 79/233/2 74/231/2 102/234/2
f 74/231/2 103/232/2 102/234/2
f 80/235/2 79/233/2 102/234/2
f 80/235/2 102/234/2 97/236/2
f 87/237/2 80/235/2 97/236/2
f 87/237/2 97/236/2 96/238/2
f 71/239/2 87/237/2 96/238/2
f 71/239/2 96/238/2 94/240/2
f 72/241/2 71/239/2 93/242/2
f 71/239/2 94/240/2 93/242/2
f 107/243/2 106/244/2 133/245/2
f 131/246/2 132/247/2 130/248/2
f 132/247/2 119/249/2 120/250/2
f 132/247/2 120/250/2 130/248/2
f 107/243/2 133/245/2 90/251/2
f 133/245/2 134/252/2 90/251/2
f 131/246/2 130/248/2 126/253/2
f 89/254/2 90/251/2 134/252/2
f 91/255/2 89/254/2 134/252/2
f 131/246/2 126/253/2 125/256/2
f 131/246/2 125/256/2 124/257/2
f 95/258/2 91/255/2 134/252/2
f 100/259/2 95/258/2 134/252/2
f 131/246/2 124/257/2 123/260/2
f 131/246/2 123/260/2 118/261/2
f 101/262/2 100/259/2 134/252/2
f 108/263/2 101/262/2 134/252/2
f 131/246/2 118/261/2 117/264/2
f 131/246/2 117/264/2 115/265/2
f 92/266/2 108/263/2 134/252/2
f 93/242/2 92/266/2 134/252/2
f 131/246/2 115/265/2 114/267/2
f 134/252/2 131/246/2 72/241/2
f 131/246/2 114/267/2 72/241/2
f 72/241/2 93/242/2 134/252/2
f 72/241/2 114/267/2 113/268/2
f 73/269/2 72/241/2 113/268/2
f 73/269/2 113/268/2 129/270/2
f 75/271/2 73/269/2 129/270/2
f 75/271/2 129/270/2 76/272/2
f 129/270/2 122/273/2 76/272/2
f 76/272/2 122/273/2 121/274/2
f 81/275/2 76/272/2 121/274/2
f 81/275/2 121/274/2 116/276/2
f 82/277/2 81/275/2 116/276/2
f 82/277/2 116/276/2 112/278/2
f 83/279/2 82/277/2 112/278/2
f 83/279/2 112/278/2 84/280/2
f 112/278/2 110/281/2 84/280/2
f 84/280/2 110/281/2 88/6/2
f 110/281/2 111/282/2 88/6/2
f 128/4/2 127/283/2 77/284/2
f 88/6/2 111/282/2 128/4/2
f 128/4/2 77/284/2 78/5/2
f 121/7/3 122/52/4 55/8/4
f 92/10/5 93/16/6 26/11/6
f 123/13/7 124/24/8 57/14/8
f 93/16/6 94/26/9 27/17/9
f 118/18/10 123/285/7 56/19/7
f 91/21/11 95/79/12 28/22/12
f 124/24/8 125/28/13 58/25/13
f 94/26/9 96/30/14 29/27/14
f 125/28/13 126/78/15 59/29/15
f 96/30/14 97/61/10 30/31/10
f 69/32/16 68/41/17 1/33/17
f 116/35/12 121/286/3 54/36/3
f 99/38/18 98/287/19 31/39/19
f 68/41/17 70/63/11 3/42/11
f 127/43/20 128/59/21 61/44/21
f 100/46/3 101/96/4 34/47/4
f 71/49/5 72/57/6 5/50/6
f 122/52/4 129/65/22 62/53/22
f 102/54/7 103/67/8 36/55/8
f 72/57/6 73/69/9 6/58/9
f 128/59/21 111/130/16 44/60/16
f 97/61/10 102/288/7 35/62/7
f 70/63/11 74/125/12 7/64/12
f 129/65/22 113/139/5 46/66/5
f 103/67/8 104/74/13 37/68/13
f 73/69/9 75/76/14 8/70/14
f 130/71/23 120/154/18 53/72/18
f 104/74/13 105/124/15 38/75/15
f 75/76/14 76/106/10 9/77/10
f 126/78/15 130/71/23 63/73/23
f 95/79/12 100/289/3 33/80/3
f 78/81/18 77/290/19 10/82/19
f 132/84/24 131/291/24 64/85/24
f 106/87/20 107/104/21 40/88/21
f 79/90/3 80/137/4 13/91/4
f 119/93/6 132/292/6 65/94/6
f 101/96/4 108/111/22 41/97/22
f 81/98/7 82/112/8 15/99/8
f 77/101/6 127/293/6 60/102/6
f 107/104/21 90/152/16 23/105/16
f 76/106/10 81/294/7 14/107/7
f 98/108/6 85/295/6 18/109/6
f 108/111/22 92/10/5 25/12/5
f 82/112/8 83/119/13 16/113/13
f 133/114/6 106/296/6 39/115/6
f 109/117/23 99/38/18 32/40/18
f 83/119/13 84/150/15 17/120/15
f 134/121/25 133/297/25 66/122/25
f 105/124/15 109/117/23 42/118/23
f 74/125/12 79/298/3 12/126/3
f 131/127/26 134/299/26 67/128/26
f 111/130/16 110/135/17 43/131/17
f 85/132/20 86/141/21 19/133/21
f 110/135/17 112/145/11 45/136/11
f 80/137/4 87/144/22 20/138/22
f 113/139/5 114/142/6 47/140/6
f 86/141/21 69/32/16 2/34/16
f 114/142/6 115/148/9 48/143/9
f 87/144/22 71/49/5 4/51/5
f 112/145/11 116/35/12 49/37/12
f 88/146/23 78/81/18 11/83/18
f 115/148/9 117/151/14 50/149/14
f 84/150/15 88/146/23 21/147/23
f 117/151/14 118/18/10 51/20/10
f 90/152/16 89/156/17 22/153/17
f 120/154/18 119/300/19 52/155/19
f 89/156/17 91/21/11 24/23/11
