# Blender v3.0.1 OBJ File: 'Main.blend'
# www.blender.org
o Cube.5245_0245
v 0.187500 0.414000 -2.685000
v 0.187500 0.414000 -2.691000
v -0.169843 0.348042 -2.685000
v -0.143991 0.368511 -2.685000
v -0.112490 0.385309 -2.685000
v -0.076551 0.397791 -2.685000
v -0.037555 0.405477 -2.685000
v 0.003000 0.408073 -2.685000
v 0.043555 0.405477 -2.685000
v 0.118490 0.385309 -2.685000
v 0.082551 0.397791 -2.685000
v 0.149990 0.368511 -2.685000
v 0.187500 0.333871 -2.685000
v 0.175843 0.348042 -2.685000
v 0.175843 0.348042 -2.691000
v 0.149990 0.368511 -2.691000
v 0.118490 0.385309 -2.691000
v 0.082551 0.397791 -2.691000
v 0.043555 0.405477 -2.691000
v 0.003000 0.408073 -2.691000
v -0.169843 0.348042 -2.691000
v -0.037555 0.405477 -2.691000
v -0.076551 0.397791 -2.691000
v -0.143991 0.368511 -2.691000
v -0.112490 0.385309 -2.691000
v 0.187500 0.333871 -2.691000
v -0.181500 0.333871 -2.685000
v -0.181500 0.414000 -2.685000
v -0.181500 0.414000 -2.691000
v -0.181500 0.333871 -2.691000
vt 0.083496 0.889531
vt 0.083450 0.888798
vt 0.083603 0.886201
vt 0.645911 0.889529
vt 0.646018 0.886199
vt 0.646018 0.892859
vt 0.911311 0.603731
vt 0.911419 0.597071
vt 0.911419 0.603731
vt 0.957117 0.587255
vt 0.957225 0.588700
vt 0.957117 0.588700
vt 0.957221 0.280789
vt 0.957113 0.282234
vt 0.957113 0.280789
vt 0.083603 0.892859
vt 0.082157 0.892859
vt 0.082413 0.892649
vt 0.082782 0.892183
vt 0.082413 0.886411
vt 0.082157 0.886201
vt 0.082782 0.886877
vt 0.083085 0.891614
vt 0.083311 0.890965
vt 0.083085 0.887446
vt 0.083311 0.888095
vt 0.083450 0.890262
vt 0.644829 0.886409
vt 0.644573 0.886199
vt 0.644573 0.892859
vt 0.644829 0.892649
vt 0.645197 0.892179
vt 0.645197 0.886875
vt 0.645501 0.887444
vt 0.645501 0.891610
vt 0.645726 0.890965
vt 0.645726 0.888093
vt 0.645865 0.888796
vt 0.645865 0.890259
vt 0.911311 0.597071
vt 0.957225 0.587255
vt 0.957221 0.282234
vt 0.986736 0.725288
vt 0.986844 0.725544
vt 0.986736 0.725544
vt 0.890223 0.366800
vt 0.890331 0.367269
vt 0.890223 0.367269
vt 0.890223 0.366234
vt 0.890331 0.366800
vt 0.890223 0.365585
vt 0.890331 0.366234
vt 0.890223 0.364879
vt 0.890331 0.365585
vt 0.890223 0.364149
vt 0.890331 0.364879
vt 0.890223 0.363416
vt 0.890331 0.364149
vt 0.890223 0.362714
vt 0.890331 0.363416
vt 0.890223 0.362064
vt 0.890331 0.362714
vt 0.890223 0.361495
vt 0.890331 0.362064
vt 0.890223 0.361030
vt 0.890331 0.361495
vt 0.986737 0.337059
vt 0.986845 0.337315
vt 0.986737 0.337315
vt 0.986844 0.725288
vt 0.890331 0.361030
vt 0.986845 0.337059
vn 0.0000 0.0000 1.0000
vn 0.0000 0.0000 -1.0000
vn 0.0000 1.0000 0.0000
vn 1.0000 0.0000 0.0000
vn -1.0000 0.0000 0.0000
vn -0.4774 -0.4864 0.7318
vn 0.2830 -0.7895 -0.5446
vn 0.2830 -0.7895 0.5446
vn -0.3757 -0.5736 0.7279
vn -0.4774 -0.4864 -0.7318
vn -0.2758 -0.6311 0.7250
vn -0.3757 -0.5736 -0.7279
vn -0.1805 -0.6666 0.7231
vn -0.2758 -0.6310 -0.7250
vn -0.0891 -0.6860 0.7221
vn -0.1805 -0.6666 -0.7231
vn 0.0000 -0.6921 0.7218
vn -0.0891 -0.6860 -0.7221
vn 0.0891 -0.6860 0.7221
vn 0.0000 -0.6921 -0.7218
vn 0.1805 -0.6666 0.7231
vn 0.0891 -0.6860 -0.7221
vn 0.2758 -0.6311 0.7250
vn 0.1805 -0.6666 -0.7231
vn 0.3757 -0.5736 0.7279
vn 0.2758 -0.6311 -0.7250
vn 0.4774 -0.4864 0.7318
vn 0.3757 -0.5736 -0.7279
vn 0.4774 -0.4864 -0.7318
vn -0.2830 -0.7895 0.5446
vn -0.2830 -0.7895 -0.5446
s off
f 8/1/1 9/2/1 1/3/1
f 20/4/2 29/5/2 2/6/2
f 2/7/3 28/8/3 1/9/3
f 2/10/4 13/11/4 26/12/4
f 29/13/5 27/14/5 28/15/5
f 28/16/1 27/17/1 3/18/1
f 28/16/1 3/18/1 4/19/1
f 14/20/1 13/21/1 1/3/1
f 12/22/1 14/20/1 1/3/1
f 28/16/1 4/19/1 5/23/1
f 28/16/1 5/23/1 6/24/1
f 10/25/1 12/22/1 1/3/1
f 11/26/1 10/25/1 1/3/1
f 28/16/1 6/24/1 7/27/1
f 28/16/1 7/27/1 8/1/1
f 9/2/1 11/26/1 1/3/1
f 1/3/1 28/16/1 8/1/1
f 21/28/2 30/29/2 29/5/2
f 2/6/2 26/30/2 15/31/2
f 2/6/2 15/31/2 16/32/2
f 24/33/2 21/28/2 29/5/2
f 25/34/2 24/33/2 29/5/2
f 2/6/2 16/32/2 17/35/2
f 2/6/2 17/35/2 18/36/2
f 23/37/2 25/34/2 29/5/2
f 22/38/2 23/37/2 29/5/2
f 2/6/2 18/36/2 19/39/2
f 20/4/2 22/38/2 29/5/2
f 2/6/2 19/39/2 20/4/2
f 2/7/3 29/40/3 28/8/3
f 2/10/4 1/41/4 13/11/4
f 29/13/5 30/42/5 27/14/5
s 1
f 14/43/6 26/44/7 13/45/8
f 12/46/9 15/47/10 14/48/6
f 10/49/11 16/50/12 12/46/9
f 11/51/13 17/52/14 10/49/11
f 9/53/15 18/54/16 11/51/13
f 8/55/17 19/56/18 9/53/15
f 7/57/19 20/58/20 8/55/17
f 6/59/21 22/60/22 7/57/19
f 5/61/23 23/62/24 6/59/21
f 4/63/25 25/64/26 5/61/23
f 3/65/27 24/66/28 4/63/25
f 21/67/29 27/68/30 30/69/31
f 14/43/6 15/70/10 26/44/7
f 12/46/9 16/50/12 15/47/10
f 10/49/11 17/52/14 16/50/12
f 11/51/13 18/54/16 17/52/14
f 9/53/15 19/56/18 18/54/16
f 8/55/17 20/58/20 19/56/18
f 7/57/19 22/60/22 20/58/20
f 6/59/21 23/62/24 22/60/22
f 5/61/23 25/64/26 23/62/24
f 4/63/25 24/66/28 25/64/26
f 3/65/27 21/71/29 24/66/28
f 21/67/29 3/72/27 27/68/30
