# Blender v3.0.1 OBJ File: 'Main.blend'
# www.blender.org
o Cube.5642_0131
v 1.446000 1.206000 0.345000
v 0.376500 1.206000 -0.510000
v 1.446000 1.395000 -0.021000
v 0.010500 1.395000 -0.510000
v -0.364500 1.206000 -0.510000
v -1.431000 1.206000 -0.396000
v 0.376500 1.206000 0.459000
v 1.446000 1.206000 -0.396000
v -1.431000 1.206000 0.345000
v 0.010500 1.395000 0.459000
v -1.431000 1.395000 -0.021000
v -0.364500 1.206000 0.459000
v -0.436500 1.206000 -0.510000
v -0.802500 1.395000 -0.510000
v -1.177500 1.206000 -0.510000
v -0.436500 1.206000 0.459000
v -0.802500 1.395000 0.459000
v -1.177500 1.206000 0.459000
v 1.177500 1.206000 -0.510000
v 0.811500 1.395000 -0.510000
v 0.436500 1.206000 -0.510000
v 1.177500 1.206000 0.459000
v 0.811500 1.395000 0.459000
v 0.436500 1.206000 0.459000
v -1.431000 1.206000 -0.510000
v 1.446000 1.206000 -0.510000
v 1.446000 1.206000 0.459000
v -1.431000 1.206000 0.459000
v 1.446000 1.200000 0.345000
v 0.376500 1.200000 -0.510000
v -0.364500 1.200000 -0.510000
v -1.431000 1.200000 -0.396000
v 0.376500 1.200000 0.459000
v 1.446000 1.200000 -0.396000
v -1.431000 1.200000 0.345000
v -0.364500 1.200000 0.459000
v -0.436500 1.200000 -0.510000
v -1.177500 1.200000 -0.510000
v -0.436500 1.200000 0.459000
v -1.177500 1.200000 0.459000
v 1.177500 1.200000 -0.510000
v 0.436500 1.200000 -0.510000
v 1.177500 1.200000 0.459000
v 0.436500 1.200000 0.459000
v -1.431000 1.200000 -0.510000
v 1.446000 1.200000 -0.510000
v 1.446000 1.200000 0.459000
v -1.431000 1.200000 0.459000
v 1.452000 1.206000 0.345000
v 0.376500 1.206000 -0.516000
v 1.452000 1.395000 -0.021000
v 0.010500 1.395000 -0.516000
v -0.364500 1.206000 -0.516000
v -1.437000 1.206000 -0.396000
v 0.376500 1.206000 0.465000
v 1.452000 1.206000 -0.396000
v -1.437000 1.206000 0.345000
v 0.010500 1.395000 0.465000
v -1.437000 1.395000 -0.021000
v -0.364500 1.206000 0.465000
v -0.436500 1.206000 -0.516000
v -0.802500 1.395000 -0.516000
v -1.177500 1.206000 -0.516000
v -0.436500 1.206000 0.465000
v -0.802500 1.395000 0.465000
v -1.177500 1.206000 0.465000
v 1.177500 1.206000 -0.516000
v 0.811500 1.395000 -0.516000
v 0.436500 1.206000 -0.516000
v 1.177500 1.206000 0.465000
v 0.811500 1.395000 0.465000
v 0.436500 1.206000 0.465000
v -1.437000 1.206000 -0.516000
v 1.452000 1.206000 -0.516000
v 1.452000 1.206000 0.465000
v -1.437000 1.206000 0.465000
v 1.452000 1.200000 0.345000
v 0.376500 1.200000 -0.516000
v -0.364500 1.200000 -0.516000
v -1.437000 1.200000 -0.396000
v 0.376500 1.200000 0.465000
v 1.452000 1.200000 -0.396000
v -1.437000 1.200000 0.345000
v -0.364500 1.200000 0.465000
v -0.436500 1.200000 -0.516000
v -1.177500 1.200000 -0.516000
v -0.436500 1.200000 0.465000
v -1.177500 1.200000 0.465000
v 1.177500 1.200000 -0.516000
v 0.436500 1.200000 -0.516000
v 1.177500 1.200000 0.465000
v 0.436500 1.200000 0.465000
v -1.437000 1.200000 -0.516000
v 1.452000 1.200000 -0.516000
v 1.452000 1.200000 0.465000
v -1.437000 1.200000 0.465000
vt 0.842800 0.220484
vt 0.846211 0.227089
vt 0.846211 0.213717
vt 0.843454 0.292210
vt 0.846864 0.298977
vt 0.846864 0.285606
vt 0.486712 0.745280
vt 0.483302 0.738514
vt 0.483302 0.751887
vt 0.472529 0.745173
vt 0.469118 0.738571
vt 0.469118 0.751940
vt 0.486712 0.730613
vt 0.483302 0.723846
vt 0.483302 0.737215
vt 0.472529 0.759845
vt 0.469118 0.753239
vt 0.469118 0.766612
vt 0.486712 0.759734
vt 0.483302 0.752967
vt 0.483302 0.766341
vt 0.472529 0.730719
vt 0.469118 0.724117
vt 0.469118 0.737486
vt 0.846864 0.283548
vt 0.846972 0.285606
vt 0.483193 0.766341
vt 0.469010 0.724117
vt 0.469118 0.719271
vt 0.483193 0.751887
vt 0.483193 0.723846
vt 0.483302 0.719271
vt 0.483193 0.737215
vt 0.846319 0.227089
vt 0.846211 0.229145
vt 0.846211 0.211659
vt 0.846319 0.213717
vt 0.469118 0.771187
vt 0.469010 0.766612
vt 0.483193 0.738514
vt 0.483302 0.771187
vt 0.469010 0.737486
vt 0.846972 0.298977
vt 0.846864 0.301034
vt 0.469010 0.751940
vt 0.841923 0.142079
vt 0.845333 0.148846
vt 0.845333 0.135475
vt 0.827283 0.224688
vt 0.830693 0.231292
vt 0.830693 0.217921
vt 0.458940 0.745173
vt 0.462350 0.751776
vt 0.462350 0.738407
vt 0.737570 0.736676
vt 0.740981 0.743443
vt 0.740981 0.730070
vt 0.458940 0.730502
vt 0.462350 0.737108
vt 0.462350 0.723735
vt 0.737570 0.751344
vt 0.740981 0.758111
vt 0.740981 0.744742
vt 0.458940 0.759627
vt 0.462350 0.766230
vt 0.462350 0.752861
vt 0.737570 0.722222
vt 0.740981 0.728989
vt 0.740981 0.715616
vt 0.830801 0.231292
vt 0.830693 0.233457
vt 0.462458 0.766230
vt 0.740981 0.710663
vt 0.741088 0.715616
vt 0.462458 0.751776
vt 0.462350 0.719053
vt 0.462458 0.723735
vt 0.462458 0.737108
vt 0.845333 0.133310
vt 0.845441 0.135475
vt 0.845441 0.148846
vt 0.845333 0.151012
vt 0.741088 0.758111
vt 0.740981 0.762797
vt 0.462458 0.738407
vt 0.462350 0.771187
vt 0.741088 0.728989
vt 0.830693 0.215756
vt 0.830801 0.217921
vt 0.741088 0.743443
vt 0.529325 0.715460
vt 0.529434 0.715570
vt 0.529434 0.710614
vt 0.527269 0.715460
vt 0.513898 0.715460
vt 0.513898 0.715570
vt 0.529325 0.663544
vt 0.529434 0.663437
vt 0.527269 0.663437
vt 0.561172 0.703740
vt 0.561170 0.710354
vt 0.561279 0.710354
vt 0.511841 0.681492
vt 0.511841 0.668118
vt 0.511732 0.668118
vt 0.561170 0.663284
vt 0.561170 0.667855
vt 0.561279 0.667855
vt 0.529325 0.668118
vt 0.529434 0.668118
vt 0.561170 0.696981
vt 0.561281 0.703740
vt 0.529325 0.681492
vt 0.529434 0.681492
vt 0.561279 0.663173
vt 0.559114 0.663173
vt 0.543686 0.710354
vt 0.543688 0.703740
vt 0.543579 0.703740
vt 0.513898 0.663544
vt 0.527269 0.663544
vt 0.561170 0.681229
vt 0.561170 0.682527
vt 0.561279 0.682527
vt 0.543686 0.696981
vt 0.543577 0.696981
vt 0.529325 0.682790
vt 0.529325 0.696160
vt 0.529434 0.696160
vt 0.543686 0.681229
vt 0.543577 0.681229
vt 0.543577 0.682527
vt 0.552349 0.715192
vt 0.545743 0.715196
vt 0.545743 0.715307
vt 0.561170 0.695900
vt 0.561279 0.696981
vt 0.511841 0.710614
vt 0.511841 0.697244
vt 0.511732 0.697244
vt 0.561172 0.689286
vt 0.561279 0.695900
vt 0.561170 0.715196
vt 0.561279 0.715307
vt 0.559114 0.715196
vt 0.552349 0.715299
vt 0.511841 0.663544
vt 0.511732 0.663437
vt 0.741088 0.744742
vt 0.561281 0.689286
vt 0.559114 0.715307
vt 0.513898 0.663437
vt 0.469010 0.753239
vt 0.543686 0.695900
vt 0.543688 0.689286
vt 0.543579 0.689286
vt 0.543686 0.715196
vt 0.543577 0.715307
vt 0.511841 0.682790
vt 0.511732 0.681492
vt 0.529434 0.682790
vt 0.545743 0.663284
vt 0.552349 0.663277
vt 0.552349 0.663166
vt 0.543577 0.710354
vt 0.559114 0.663284
vt 0.511841 0.696160
vt 0.511732 0.696160
vt 0.543686 0.682527
vt 0.543686 0.663284
vt 0.545743 0.663173
vt 0.511841 0.715460
vt 0.511732 0.710614
vt 0.561172 0.674618
vt 0.561279 0.681229
vt 0.543577 0.663173
vt 0.543577 0.667855
vt 0.511732 0.715570
vt 0.561281 0.674618
vt 0.511732 0.682790
vt 0.543688 0.674618
vt 0.543686 0.667855
vt 0.527269 0.715570
vt 0.543579 0.674618
vt 0.529325 0.697244
vt 0.529325 0.710614
vt 0.469010 0.738571
vt 0.741088 0.730070
vt 0.846972 0.283548
vt 0.483193 0.752967
vt 0.469010 0.719271
vt 0.483193 0.719271
vt 0.846319 0.229145
vt 0.846319 0.211659
vt 0.469010 0.771187
vt 0.483193 0.771187
vt 0.846972 0.301034
vt 0.830801 0.233457
vt 0.462458 0.752861
vt 0.741088 0.710663
vt 0.462458 0.719053
vt 0.845441 0.133310
vt 0.845441 0.151012
vt 0.741088 0.762797
vt 0.462458 0.771187
vt 0.830801 0.215756
vt 0.543577 0.695900
vt 0.529434 0.697244
vn 1.0000 0.0000 0.0000
vn -1.0000 0.0000 0.0000
vn 0.0000 0.0000 1.0000
vn 0.0000 0.0000 -1.0000
vn 0.0000 -1.0000 0.0000
vn 0.4588 0.8885 0.0000
vn 0.0000 1.0000 0.0000
vn -0.4501 0.8930 0.0000
vn 0.0000 0.8885 0.4588
vn 0.0000 0.8930 -0.4501
s off
f 11/1/1 9/2/1 6/3/1
f 3/4/2 8/5/2 1/6/2
f 4/7/3 5/8/3 2/9/3
f 10/10/4 7/11/4 12/12/4
f 14/13/3 15/14/3 13/15/3
f 17/16/4 16/17/4 18/18/4
f 20/19/3 21/20/3 19/21/3
f 23/22/4 22/23/4 24/24/4
f 27/25/2 1/6/2 29/26/2
f 41/27/3 19/21/3 21/20/3
f 29/26/2 1/6/2 8/5/2
f 43/28/4 22/23/4 27/29/4
f 30/30/3 2/9/3 5/8/3
f 38/31/3 15/14/3 25/32/3
f 37/33/3 13/15/3 15/14/3
f 35/34/1 9/2/1 28/35/1
f 25/36/1 6/3/1 32/37/1
f 28/38/4 18/18/4 40/39/4
f 31/40/3 5/8/3 13/15/3
f 40/39/4 18/18/4 16/17/4
f 21/20/3 2/9/3 30/30/3
f 32/37/1 6/3/1 9/2/1
f 26/41/3 19/21/3 41/27/3
f 44/42/4 24/24/4 22/23/4
f 34/43/2 8/5/2 26/44/2
f 36/45/4 12/12/4 7/11/4
f 59/46/2 54/47/2 57/48/2
f 51/49/1 49/50/1 56/51/1
f 52/52/4 50/53/4 53/54/4
f 58/55/3 60/56/3 55/57/3
f 62/58/4 61/59/4 63/60/4
f 65/61/3 66/62/3 64/63/3
f 68/64/4 67/65/4 69/66/4
f 71/67/3 72/68/3 70/69/3
f 77/70/1 49/50/1 75/71/1
f 69/66/4 67/65/4 89/72/4
f 56/51/1 49/50/1 77/70/1
f 75/73/3 70/69/3 91/74/3
f 53/54/4 50/53/4 78/75/4
f 73/76/4 63/60/4 86/77/4
f 63/60/4 61/59/4 85/78/4
f 76/79/2 57/48/2 83/80/2
f 80/81/2 54/47/2 73/82/2
f 88/83/3 66/62/3 76/84/3
f 61/59/4 53/54/4 79/85/4
f 64/63/3 66/62/3 88/83/3
f 78/75/4 50/53/4 69/66/4
f 57/48/2 54/47/2 80/81/2
f 89/72/4 67/65/4 74/86/4
f 70/69/3 72/68/3 92/87/3
f 74/88/1 56/51/1 82/89/1
f 55/57/3 60/56/3 84/90/3
f 47/91/5 95/92/5 91/93/5
f 29/94/5 34/95/5 82/96/5
f 48/97/5 96/98/5 83/99/5
f 20/100/6 19/101/6 67/102/6
f 37/103/5 38/104/5 86/105/5
f 25/106/7 15/107/7 63/108/7
f 48/97/5 40/109/5 88/110/5
f 21/111/8 20/100/8 68/112/8
f 40/109/5 39/113/5 87/114/5
f 25/106/7 73/115/7 54/116/7
f 22/117/6 23/118/6 71/119/6
f 32/120/5 35/121/5 83/99/5
f 13/122/7 5/123/7 53/124/7
f 23/118/8 24/125/8 72/126/8
f 36/127/5 33/128/5 81/129/5
f 16/130/7 64/131/7 60/132/7
f 3/133/9 1/134/9 49/135/9
f 2/136/7 21/111/7 69/137/7
f 41/138/5 42/139/5 90/140/5
f 4/141/6 2/136/6 50/142/6
f 26/143/7 74/144/7 67/102/7
f 8/145/10 3/133/10 51/146/10
f 45/147/5 93/148/5 86/105/5
f 60/56/3 64/63/3 87/149/3
f 5/123/8 4/141/8 52/150/8
f 26/143/7 8/145/7 56/151/7
f 45/147/5 32/120/5 80/152/5
f 39/153/4 16/17/4 12/12/4
f 7/154/6 10/155/6 58/156/6
f 27/157/7 75/158/7 49/135/7
f 31/159/5 37/103/5 85/160/5
f 84/161/5 87/114/5 39/113/5
f 9/162/9 11/163/9 59/164/9
f 27/157/7 22/117/7 70/165/7
f 11/163/10 6/166/10 54/116/10
f 42/139/5 30/167/5 78/168/5
f 10/155/8 12/169/8 60/132/8
f 28/170/7 9/162/7 57/171/7
f 46/172/5 41/138/5 89/173/5
f 14/174/6 13/122/6 61/175/6
f 28/170/7 76/176/7 66/177/7
f 46/172/5 94/178/5 82/96/5
f 15/107/8 14/174/8 62/179/8
f 30/167/5 31/159/5 79/180/5
f 17/181/8 18/182/8 66/177/8
f 47/91/5 29/94/5 77/183/5
f 16/130/6 17/181/6 65/184/6
f 44/185/5 43/186/5 91/93/5
f 81/129/5 33/128/5 44/185/5
f 24/24/4 44/42/4 33/187/4
f 72/126/7 24/125/7 7/154/7
f 81/188/3 92/87/3 72/68/3
f 27/25/2 29/26/2 47/189/2
f 41/27/3 21/20/3 42/190/3
f 29/26/2 8/5/2 34/43/2
f 43/28/4 27/29/4 47/191/4
f 30/30/3 5/8/3 31/40/3
f 38/31/3 25/32/3 45/192/3
f 37/33/3 15/14/3 38/31/3
f 35/34/1 28/35/1 48/193/1
f 25/36/1 32/37/1 45/194/1
f 28/38/4 40/39/4 48/195/4
f 31/40/3 13/15/3 37/33/3
f 40/39/4 16/17/4 39/153/4
f 21/20/3 30/30/3 42/190/3
f 32/37/1 9/2/1 35/34/1
f 26/41/3 41/27/3 46/196/3
f 44/42/4 22/23/4 43/28/4
f 34/43/2 26/44/2 46/197/2
f 36/45/4 7/11/4 33/187/4
f 77/70/1 75/71/1 95/198/1
f 69/66/4 89/72/4 90/199/4
f 56/51/1 77/70/1 82/89/1
f 75/73/3 91/74/3 95/200/3
f 53/54/4 78/75/4 79/85/4
f 73/76/4 86/77/4 93/201/4
f 63/60/4 85/78/4 86/77/4
f 76/79/2 83/80/2 96/202/2
f 80/81/2 73/82/2 93/203/2
f 88/83/3 76/84/3 96/204/3
f 61/59/4 79/85/4 85/78/4
f 64/63/3 88/83/3 87/149/3
f 78/75/4 69/66/4 90/199/4
f 57/48/2 80/81/2 83/80/2
f 89/72/4 74/86/4 94/205/4
f 70/69/3 92/87/3 91/74/3
f 74/88/1 82/89/1 94/206/1
f 55/57/3 84/90/3 81/188/3
f 47/91/5 91/93/5 43/186/5
f 29/94/5 82/96/5 77/183/5
f 48/97/5 83/99/5 35/121/5
f 20/100/6 67/102/6 68/112/6
f 37/103/5 86/105/5 85/160/5
f 25/106/7 63/108/7 73/115/7
f 48/97/5 88/110/5 96/98/5
f 21/111/8 68/112/8 69/137/8
f 40/109/5 87/114/5 88/110/5
f 25/106/7 54/116/7 6/166/7
f 22/117/6 71/119/6 70/165/6
f 32/120/5 83/99/5 80/152/5
f 13/122/7 53/124/7 61/175/7
f 23/118/8 72/126/8 71/119/8
f 36/127/5 81/129/5 84/161/5
f 16/130/7 60/132/7 12/169/7
f 3/133/9 49/135/9 51/146/9
f 2/136/7 69/137/7 50/142/7
f 41/138/5 90/140/5 89/173/5
f 4/141/6 50/142/6 52/150/6
f 26/143/7 67/102/7 19/101/7
f 8/145/10 51/146/10 56/151/10
f 45/147/5 86/105/5 38/104/5
f 60/56/3 87/149/3 84/90/3
f 5/123/8 52/150/8 53/124/8
f 26/143/7 56/151/7 74/144/7
f 45/147/5 80/152/5 93/148/5
f 39/153/4 12/12/4 36/45/4
f 7/154/6 58/156/6 55/207/6
f 27/157/7 49/135/7 1/134/7
f 31/159/5 85/160/5 79/180/5
f 84/161/5 39/113/5 36/127/5
f 9/162/9 59/164/9 57/171/9
f 27/157/7 70/165/7 75/158/7
f 11/163/10 54/116/10 59/164/10
f 42/139/5 78/168/5 90/140/5
f 10/155/8 60/132/8 58/156/8
f 28/170/7 57/171/7 76/176/7
f 46/172/5 89/173/5 94/178/5
f 14/174/6 61/175/6 62/179/6
f 28/170/7 66/177/7 18/182/7
f 46/172/5 82/96/5 34/95/5
f 15/107/8 62/179/8 63/108/8
f 30/167/5 79/180/5 78/168/5
f 17/181/8 66/177/8 65/184/8
f 47/91/5 77/183/5 95/92/5
f 16/130/6 65/184/6 64/131/6
f 44/185/5 91/93/5 92/208/5
f 81/129/5 44/185/5 92/208/5
f 24/24/4 33/187/4 7/11/4
f 72/126/7 7/154/7 55/207/7
f 81/188/3 72/68/3 55/57/3
