# Blender v3.0.1 OBJ File: 'Main.blend'
# www.blender.org
o Cube.5384_0075
v 2.430000 -0.009000 -3.411000
v 2.430000 -0.009000 3.555000
v 2.515500 -0.009000 1.183500
v 2.515500 -0.009000 -1.159500
v 2.430000 -0.009000 1.183500
v 2.430000 -0.009000 -1.159500
v 2.430000 -0.012000 -3.411000
v 2.430000 -0.012000 3.555000
v 2.515500 -0.012000 1.183500
v 2.515500 -0.012000 -1.159500
v 2.430000 -0.012000 1.183500
v 2.430000 -0.012000 -1.159500
v 2.181001 -0.009000 -3.411000
v 2.181001 -0.012000 -3.411000
v 2.181001 -0.009000 3.555000
v 2.181001 -0.012000 3.555000
vt 0.956316 0.757990
vt 0.956262 0.756447
vt 0.956316 0.756447
vt 0.844256 0.418231
vt 0.844202 0.375950
vt 0.844256 0.375950
vt 0.924744 0.476382
vt 0.924798 0.471891
vt 0.924798 0.476382
vt 0.843678 0.202937
vt 0.843624 0.160144
vt 0.843678 0.160144
vt 0.956314 0.057852
vt 0.956260 0.056309
vt 0.956314 0.056309
vt 0.924400 0.703775
vt 0.924454 0.708265
vt 0.924400 0.708265
vt 0.845565 0.279267
vt 0.845511 0.238635
vt 0.845565 0.238635
vt 0.695176 0.661386
vt 0.695176 0.703660
vt 0.690686 0.744291
vt 0.174857 0.740564
vt 0.170366 0.699932
vt 0.170366 0.657659
vt 0.264712 0.823747
vt 0.264658 0.698041
vt 0.264712 0.698041
vt 0.956262 0.757990
vt 0.844202 0.418231
vt 0.924744 0.471891
vt 0.843624 0.202937
vt 0.956260 0.057852
vt 0.924454 0.703775
vt 0.845511 0.279267
vt 0.690686 0.618585
vt 0.695176 0.618585
vt 0.696719 0.661386
vt 0.696719 0.703660
vt 0.695176 0.744291
vt 0.170366 0.740564
vt 0.168823 0.699932
vt 0.168823 0.657659
vt 0.170366 0.614858
vt 0.174857 0.614858
vt 0.264658 0.823747
vn 0.0000 0.0000 -1.0000
vn 1.0000 0.0000 0.0000
vn 0.0000 0.0000 1.0000
vn 0.0000 1.0000 0.0000
vn 0.0000 -1.0000 0.0000
vn -1.0000 0.0000 0.0000
s off
f 4/1/1 12/2/1 6/3/1
f 3/4/2 10/5/2 4/6/2
f 7/7/1 13/8/1 1/9/1
f 2/10/2 11/11/2 5/12/2
f 5/13/3 9/14/3 3/15/3
f 8/16/3 15/17/3 16/18/3
f 6/19/2 7/20/2 1/21/2
f 5/22/4 6/23/4 13/24/4
f 14/25/5 12/26/5 11/27/5
f 13/28/6 16/29/6 15/30/6
f 4/1/1 10/31/1 12/2/1
f 3/4/2 9/32/2 10/5/2
f 7/7/1 14/33/1 13/8/1
f 2/10/2 8/34/2 11/11/2
f 5/13/3 11/35/3 9/14/3
f 8/16/3 2/36/3 15/17/3
f 6/19/2 12/37/2 7/20/2
f 15/38/4 2/39/4 5/22/4
f 5/22/4 3/40/4 4/41/4
f 6/23/4 1/42/4 13/24/4
f 5/22/4 4/41/4 6/23/4
f 13/24/4 15/38/4 5/22/4
f 14/25/5 7/43/5 12/26/5
f 12/26/5 10/44/5 9/45/5
f 11/27/5 8/46/5 16/47/5
f 12/26/5 9/45/5 11/27/5
f 16/47/5 14/25/5 11/27/5
f 13/28/6 14/48/6 16/29/6
