# Blender v3.0.1 OBJ File: 'Main.blend'
# www.blender.org
o Cube.5247_0034
v 0.601500 0.414000 -2.685000
v 0.601500 0.414000 -2.691000
v 0.450343 0.348042 -2.685000
v 0.461285 0.368511 -2.685000
v 0.474618 0.385309 -2.685000
v 0.489829 0.397791 -2.685000
v 0.506335 0.405477 -2.685000
v 0.540665 0.405477 -2.685000
v 0.572382 0.385309 -2.685000
v 0.557171 0.397791 -2.685000
v 0.585715 0.368511 -2.685000
v 0.601500 0.334134 -2.685000
v 0.596657 0.348042 -2.685000
v 0.596657 0.348042 -2.691000
v 0.523500 0.408073 -2.685000
v 0.585715 0.368511 -2.691000
v 0.572382 0.385309 -2.691000
v 0.557171 0.397791 -2.691000
v 0.540665 0.405477 -2.691000
v 0.523500 0.408073 -2.691000
v 0.506335 0.405477 -2.691000
v 0.489829 0.397791 -2.691000
v 0.474618 0.385309 -2.691000
v 0.461285 0.368511 -2.691000
v 0.450343 0.348042 -2.691000
v 0.601500 0.334134 -2.691000
v 0.445500 0.414000 -2.685000
v 0.445500 0.334134 -2.685000
v 0.445500 0.414000 -2.691000
v 0.445500 0.334134 -2.691000
vt 0.908545 0.316831
vt 0.908499 0.316522
vt 0.908651 0.315422
vt 0.875527 0.418552
vt 0.875420 0.419961
vt 0.875374 0.419651
vt 0.937225 0.193258
vt 0.937333 0.190440
vt 0.937333 0.193258
vt 0.957845 0.900641
vt 0.957953 0.902027
vt 0.957845 0.902027
vt 0.798651 0.956478
vt 0.798543 0.957865
vt 0.798543 0.956478
vt 0.908651 0.318240
vt 0.907210 0.318240
vt 0.907462 0.318153
vt 0.907830 0.317954
vt 0.907462 0.315510
vt 0.907210 0.315422
vt 0.907830 0.315709
vt 0.908134 0.317713
vt 0.908359 0.317438
vt 0.908134 0.315949
vt 0.908359 0.316224
vt 0.908499 0.317141
vt 0.875527 0.421370
vt 0.874086 0.421370
vt 0.874338 0.421282
vt 0.874706 0.421083
vt 0.874338 0.418639
vt 0.874086 0.418552
vt 0.874706 0.418838
vt 0.875010 0.420843
vt 0.875235 0.420568
vt 0.875010 0.419079
vt 0.875235 0.419353
vt 0.875374 0.420270
vt 0.937225 0.190440
vt 0.957953 0.900641
vt 0.798651 0.957865
vt 0.642205 0.948568
vt 0.642313 0.948834
vt 0.642205 0.948834
vt 0.642313 0.948159
vt 0.642205 0.948159
vt 0.642313 0.947801
vt 0.642205 0.947801
vt 0.642205 0.947510
vt 0.642205 0.947296
vt 0.642313 0.947510
vt 0.642205 0.947166
vt 0.642313 0.947296
vt 0.948856 0.013770
vt 0.948748 0.013640
vt 0.948856 0.013640
vt 0.948856 0.013984
vt 0.948748 0.013770
vt 0.948856 0.014276
vt 0.948748 0.013984
vt 0.948856 0.014633
vt 0.948748 0.014276
vt 0.948856 0.015042
vt 0.948748 0.014633
vt 0.948748 0.015042
vt 0.948856 0.015307
vt 0.948748 0.015307
vt 0.642313 0.948568
vt 0.642313 0.947166
vn 0.0000 0.0000 1.0000
vn 0.0000 0.0000 -1.0000
vn 0.0000 1.0000 0.0000
vn 1.0000 0.0000 0.0000
vn -1.0000 0.0000 0.0000
vn -0.6308 -0.2764 0.7251
vn 0.1404 -0.8306 -0.5388
vn 0.1404 -0.8306 0.5388
vn -0.5732 -0.3763 -0.7279
vn -0.5732 -0.3763 0.7279
vn -0.4858 -0.4780 -0.7318
vn -0.4858 -0.4780 0.7318
vn -0.3602 -0.5726 0.7364
vn -0.1940 -0.6433 0.7406
vn -0.3602 -0.5726 -0.7364
vn 0.0000 -0.6700 0.7423
vn -0.1940 -0.6433 -0.7406
vn 0.1940 -0.6433 0.7406
vn 0.0000 -0.6700 -0.7423
vn 0.3602 -0.5726 0.7364
vn 0.1940 -0.6433 -0.7406
vn 0.4858 -0.4780 0.7318
vn 0.3602 -0.5726 -0.7364
vn 0.5732 -0.3763 0.7279
vn 0.4858 -0.4780 -0.7318
vn 0.6308 -0.2764 0.7250
vn 0.5732 -0.3763 -0.7279
vn 0.6308 -0.2764 -0.7250
vn -0.1404 -0.8306 0.5388
vn -0.1405 -0.8306 -0.5388
vn -0.6308 -0.2764 -0.7250
s off
f 15/1/1 8/2/1 1/3/1
f 29/4/2 20/5/2 21/6/2
f 2/7/3 27/8/3 1/9/3
f 2/10/4 12/11/4 26/12/4
f 29/13/5 28/14/5 27/15/5
f 27/16/1 28/17/1 3/18/1
f 27/16/1 3/18/1 4/19/1
f 13/20/1 12/21/1 1/3/1
f 11/22/1 13/20/1 1/3/1
f 27/16/1 4/19/1 5/23/1
f 27/16/1 5/23/1 6/24/1
f 9/25/1 11/22/1 1/3/1
f 10/26/1 9/25/1 1/3/1
f 27/16/1 6/24/1 7/27/1
f 27/16/1 7/27/1 15/1/1
f 8/2/1 10/26/1 1/3/1
f 1/3/1 27/16/1 15/1/1
f 2/28/2 26/29/2 14/30/2
f 2/28/2 14/30/2 16/31/2
f 25/32/2 30/33/2 29/4/2
f 24/34/2 25/32/2 29/4/2
f 2/28/2 16/31/2 17/35/2
f 2/28/2 17/35/2 18/36/2
f 23/37/2 24/34/2 29/4/2
f 22/38/2 23/37/2 29/4/2
f 2/28/2 18/36/2 19/39/2
f 2/28/2 19/39/2 20/5/2
f 21/6/2 22/38/2 29/4/2
f 29/4/2 2/28/2 20/5/2
f 2/7/3 29/40/3 27/8/3
f 2/10/4 1/41/4 12/11/4
f 29/13/5 30/42/5 28/14/5
s 1
f 13/43/6 26/44/7 12/45/8
f 16/46/9 13/43/6 11/47/10
f 17/48/11 11/47/10 9/49/12
f 10/50/13 17/48/11 9/49/12
f 8/51/14 18/52/15 10/50/13
f 15/53/16 19/54/17 8/51/14
f 7/55/18 20/56/19 15/57/16
f 6/58/20 21/59/21 7/55/18
f 5/60/22 22/61/23 6/58/20
f 4/62/24 23/63/25 5/60/22
f 3/64/26 24/65/27 4/62/24
f 25/66/28 28/67/29 30/68/30
f 13/43/6 14/69/31 26/44/7
f 16/46/9 14/69/31 13/43/6
f 17/48/11 16/46/9 11/47/10
f 10/50/13 18/52/15 17/48/11
f 8/51/14 19/54/17 18/52/15
f 15/53/16 20/70/19 19/54/17
f 7/55/18 21/59/21 20/56/19
f 6/58/20 22/61/23 21/59/21
f 5/60/22 23/63/25 22/61/23
f 4/62/24 24/65/27 23/63/25
f 3/64/26 25/66/28 24/65/27
f 25/66/28 3/64/26 28/67/29
