# Blender v3.0.1 OBJ File: 'Main.blend'
# www.blender.org
o Cube.5649_0240
v 1.452000 -0.003000 0.318000
v 1.452000 0.465000 0.318000
v 1.452000 -0.003000 -0.369000
v 1.452000 0.465000 -0.369000
v 1.440000 -0.003000 0.318000
v 1.440000 0.465000 0.318000
v 1.440000 -0.003000 -0.369000
v 1.440000 0.465000 -0.369000
v 1.452000 -0.003000 -0.105000
v 1.452000 0.264668 0.040602
v 1.452000 0.236010 0.052472
v 1.452000 0.220500 0.054000
v 1.452000 -0.003000 0.054000
v 1.452000 0.250923 0.047948
v 1.452000 0.236010 -0.103473
v 1.452000 0.220500 -0.105000
v 1.452000 0.264668 -0.091602
v 1.452000 0.286602 -0.069668
v 1.452000 0.276715 -0.081715
v 1.452000 0.250923 -0.098949
v 1.452000 0.300000 -0.025500
v 1.452000 0.298473 -0.041010
v 1.452000 0.293949 0.004923
v 1.452000 0.276715 0.030715
v 1.452000 0.286602 0.018668
v 1.452000 0.298473 -0.009990
v 1.452000 0.293949 -0.055923
v 1.440000 0.236010 -0.103473
v 1.440000 0.220500 -0.105000
v 1.440000 0.264668 -0.091602
v 1.440000 0.286602 -0.069668
v 1.440000 0.276715 -0.081715
v 1.440000 0.250923 -0.098949
v 1.440000 0.298473 -0.041010
v 1.440000 0.298473 -0.009990
v 1.440000 0.300000 -0.025500
v 1.440000 0.286602 0.018668
v 1.440000 0.276715 0.030715
v 1.440000 0.293949 0.004923
v 1.440000 0.293949 -0.055923
v 1.440000 -0.003000 -0.105000
v 1.440000 0.264668 0.040602
v 1.440000 0.236010 0.052472
v 1.440000 0.220500 0.054000
v 1.440000 -0.003000 0.054000
v 1.440000 0.250923 0.047948
v 1.446000 -0.003000 0.318000
v 1.446000 -0.003000 -0.369000
v 1.446000 -0.003000 -0.105000
v 1.446000 -0.003000 0.054000
v 1.452000 -0.009000 -0.369000
v 1.452000 -0.009000 -0.105000
v 1.452000 -0.009000 0.318000
v 1.452000 -0.009000 0.054000
v 1.446000 -0.009000 0.318000
v 1.446000 -0.009000 -0.369000
v 1.446000 -0.009000 -0.105000
v 1.446000 -0.009000 0.054000
vt 0.198484 0.819132
vt 0.201461 0.812933
vt 0.198456 0.818852
vt 0.320218 0.820415
vt 0.323195 0.814216
vt 0.320190 0.820135
vt 0.411335 0.919074
vt 0.411227 0.919074
vt 0.411227 0.923838
vt 0.214835 0.912771
vt 0.214943 0.912771
vt 0.214943 0.912663
vt 0.127097 0.899796
vt 0.127205 0.891417
vt 0.126989 0.891417
vt 0.382850 0.884201
vt 0.383067 0.884201
vt 0.383067 0.871804
vt 0.900292 0.041551
vt 0.900184 0.049930
vt 0.900292 0.049930
vt 0.214835 0.916772
vt 0.215051 0.916772
vt 0.942623 0.593772
vt 0.942406 0.593772
vt 0.942406 0.594052
vt 0.942623 0.593503
vt 0.942406 0.593503
vt 0.942623 0.593255
vt 0.942406 0.593255
vt 0.942623 0.593037
vt 0.942406 0.593037
vt 0.215051 0.917593
vt 0.214835 0.917593
vt 0.214835 0.917831
vt 0.215051 0.917330
vt 0.214835 0.917330
vt 0.215051 0.917053
vt 0.214835 0.917053
vt 0.942623 0.594052
vt 0.942406 0.594331
vt 0.942623 0.594331
vt 0.942406 0.594601
vt 0.942623 0.594601
vt 0.942406 0.594848
vt 0.942623 0.594848
vt 0.942406 0.595066
vt 0.348160 0.917837
vt 0.348160 0.917598
vt 0.347943 0.917598
vt 0.348160 0.917336
vt 0.347943 0.917336
vt 0.348160 0.917059
vt 0.347943 0.917059
vt 0.348160 0.916777
vt 0.347943 0.916777
vt 0.348052 0.912776
vt 0.612609 0.923812
vt 0.612717 0.923812
vt 0.612717 0.919048
vt 0.923759 0.213609
vt 0.923759 0.218373
vt 0.923867 0.218373
vt 0.798543 0.923831
vt 0.798651 0.923831
vt 0.798651 0.919067
vt 0.545622 0.919059
vt 0.545514 0.919059
vt 0.545514 0.923823
vt 0.127205 0.899796
vt 0.127097 0.899903
vt 0.193016 0.817697
vt 0.193016 0.812933
vt 0.192908 0.812933
vt 0.923767 0.561395
vt 0.923767 0.566159
vt 0.923875 0.566159
vt 0.348160 0.912776
vt 0.348160 0.912668
vt 0.193016 0.825330
vt 0.193016 0.820566
vt 0.192908 0.820566
vt 0.900075 0.049930
vt 0.900075 0.050037
vt 0.197049 0.817697
vt 0.201461 0.825330
vt 0.197049 0.820566
vt 0.197329 0.817725
vt 0.197329 0.820539
vt 0.197598 0.820457
vt 0.197598 0.817806
vt 0.197846 0.817939
vt 0.197846 0.820325
vt 0.198064 0.820146
vt 0.198064 0.818117
vt 0.198241 0.818335
vt 0.198241 0.819929
vt 0.198374 0.819681
vt 0.198374 0.818583
vt 0.198456 0.819412
vt 0.314751 0.818980
vt 0.318783 0.818980
vt 0.314751 0.814216
vt 0.323195 0.826613
vt 0.318783 0.821849
vt 0.314751 0.826613
vt 0.314751 0.821849
vt 0.319063 0.819008
vt 0.319063 0.821822
vt 0.319332 0.821740
vt 0.319332 0.819089
vt 0.319580 0.819221
vt 0.319580 0.821607
vt 0.319798 0.821429
vt 0.319798 0.819400
vt 0.319976 0.819618
vt 0.319976 0.821212
vt 0.320108 0.820964
vt 0.320108 0.819866
vt 0.320190 0.820695
vt 0.411335 0.923838
vt 0.214835 0.912663
vt 0.126989 0.899796
vt 0.382850 0.871804
vt 0.900075 0.041551
vt 0.215051 0.912771
vt 0.215051 0.917831
vt 0.942623 0.595066
vt 0.347943 0.917837
vt 0.347943 0.912776
vt 0.612609 0.919048
vt 0.923867 0.213609
vt 0.798543 0.919067
vt 0.545622 0.923823
vt 0.127205 0.899903
vt 0.192908 0.817697
vt 0.923875 0.561395
vt 0.348052 0.912668
vt 0.192908 0.825330
vt 0.900184 0.050037
vn 1.0000 0.0000 0.0000
vn -1.0000 0.0000 -0.0000
vn 0.0000 -1.0000 -0.0000
vn 0.0000 0.0000 1.0000
vn 0.0000 1.0000 -0.0000
vn 0.0000 0.0000 -1.0000
vn 0.0000 -0.9952 0.0980
vn 0.0000 -0.9569 0.2903
vn 0.0000 -0.8819 0.4714
vn 0.0000 -0.7730 0.6344
vn 0.0000 -0.6344 0.7730
vn 0.0000 -0.4714 0.8819
vn 0.0000 -0.2903 0.9569
vn 0.0000 -0.0980 0.9952
vn 0.0000 -0.9952 -0.0980
vn 0.0000 -0.9569 -0.2903
vn 0.0000 -0.8819 -0.4714
vn 0.0000 -0.7730 -0.6344
vn 0.0000 -0.6344 -0.7730
vn 0.0000 -0.4714 -0.8819
vn 0.0000 -0.2903 -0.9569
vn 0.0000 -0.0980 -0.9952
s off
f 21/1/1 2/2/1 26/3/1
f 36/4/2 8/5/2 34/6/2
f 7/7/3 48/8/3 49/9/3
f 9/10/4 49/11/4 57/12/4
f 47/13/4 2/14/4 6/15/4
f 6/16/5 2/17/5 4/18/5
f 8/19/6 48/20/6 7/21/6
f 49/11/4 16/22/4 29/23/4
f 34/24/7 22/25/7 21/26/7
f 40/27/8 27/28/8 22/25/8
f 31/29/9 18/30/9 27/28/9
f 32/31/10 19/32/10 18/30/10
f 30/33/11 17/34/11 19/35/11
f 33/36/12 20/37/12 17/34/12
f 28/38/13 15/39/13 20/37/13
f 29/23/14 16/22/14 15/39/14
f 36/40/15 21/26/15 26/41/15
f 35/42/16 26/41/16 23/43/16
f 39/44/17 23/43/17 25/45/17
f 37/46/18 25/45/18 24/47/18
f 24/48/19 10/49/19 42/50/19
f 10/49/20 14/51/20 46/52/20
f 11/53/21 43/54/21 46/52/21
f 11/53/22 12/55/22 44/56/22
f 50/57/6 44/56/6 12/55/6
f 47/58/3 5/59/3 45/60/3
f 47/61/2 50/62/2 58/63/2
f 53/64/3 55/65/3 58/66/3
f 56/67/3 51/68/3 52/69/3
f 1/70/4 47/13/4 55/71/4
f 13/72/1 1/73/1 53/74/1
f 49/75/2 48/76/2 56/77/2
f 50/57/6 13/78/6 54/79/6
f 3/80/1 9/81/1 52/82/1
f 48/20/6 3/83/6 51/84/6
f 12/85/1 1/73/1 13/72/1
f 4/86/1 16/87/1 3/80/1
f 3/80/1 16/87/1 9/81/1
f 12/85/1 2/2/1 1/73/1
f 11/88/1 2/2/1 12/85/1
f 4/86/1 15/89/1 16/87/1
f 4/86/1 20/90/1 15/89/1
f 14/91/1 2/2/1 11/88/1
f 10/92/1 2/2/1 14/91/1
f 4/86/1 17/93/1 20/90/1
f 4/86/1 19/94/1 17/93/1
f 24/95/1 2/2/1 10/92/1
f 25/96/1 2/2/1 24/95/1
f 4/86/1 18/97/1 19/94/1
f 4/86/1 27/98/1 18/97/1
f 23/99/1 2/2/1 25/96/1
f 26/3/1 2/2/1 23/99/1
f 2/2/1 21/1/1 4/86/1
f 4/86/1 22/100/1 27/98/1
f 4/86/1 21/1/1 22/100/1
f 41/101/2 29/102/2 7/103/2
f 7/103/2 29/102/2 8/5/2
f 6/104/2 44/105/2 5/106/2
f 5/106/2 44/105/2 45/107/2
f 28/108/2 8/5/2 29/102/2
f 6/104/2 43/109/2 44/105/2
f 6/104/2 46/110/2 43/109/2
f 33/111/2 8/5/2 28/108/2
f 30/112/2 8/5/2 33/111/2
f 6/104/2 42/113/2 46/110/2
f 6/104/2 38/114/2 42/113/2
f 32/115/2 8/5/2 30/112/2
f 31/116/2 8/5/2 32/115/2
f 6/104/2 37/117/2 38/114/2
f 6/104/2 39/118/2 37/117/2
f 40/119/2 8/5/2 31/116/2
f 34/6/2 8/5/2 40/119/2
f 8/5/2 36/4/2 6/104/2
f 6/104/2 35/120/2 39/118/2
f 6/104/2 36/4/2 35/120/2
f 7/7/3 49/9/3 41/121/3
f 9/10/4 57/12/4 52/122/4
f 2/14/4 47/13/4 1/70/4
f 47/13/4 6/15/4 5/123/4
f 6/16/5 4/18/5 8/124/5
f 3/83/6 48/20/6 4/125/6
f 4/125/6 48/20/6 8/19/6
f 16/22/4 49/11/4 9/10/4
f 49/11/4 29/23/4 41/126/4
f 34/24/7 21/26/7 36/40/7
f 40/27/8 22/25/8 34/24/8
f 31/29/9 27/28/9 40/27/9
f 32/31/10 18/30/10 31/29/10
f 30/33/11 19/35/11 32/127/11
f 33/36/12 17/34/12 30/33/12
f 28/38/13 20/37/13 33/36/13
f 29/23/14 15/39/14 28/38/14
f 36/40/15 26/41/15 35/42/15
f 35/42/16 23/43/16 39/44/16
f 39/44/17 25/45/17 37/46/17
f 37/46/18 24/47/18 38/128/18
f 24/48/19 42/50/19 38/129/19
f 10/49/20 46/52/20 42/50/20
f 11/53/21 46/52/21 14/51/21
f 11/53/22 44/56/22 43/54/22
f 44/56/6 50/57/6 45/130/6
f 50/57/6 12/55/6 13/78/6
f 47/58/3 45/60/3 50/131/3
f 47/61/2 58/63/2 55/132/2
f 53/64/3 58/66/3 54/133/3
f 56/67/3 52/69/3 57/134/3
f 1/70/4 55/71/4 53/135/4
f 13/72/1 53/74/1 54/136/1
f 49/75/2 56/77/2 57/137/2
f 50/57/6 54/79/6 58/138/6
f 3/80/1 52/82/1 51/139/1
f 48/20/6 51/84/6 56/140/6
