# Blender v3.0.1 OBJ File: 'Main.blend'
# www.blender.org
o Cube.376_0109
v 0.204000 -0.390000 10.139999
v 0.204000 -0.210000 10.139999
v 0.204000 -0.390000 8.136000
v 0.204000 -0.210000 8.136000
v 2.151000 -0.390000 10.139999
v 2.151000 -0.210000 10.139999
v 2.151000 -0.390000 8.136000
v 2.151000 -0.210000 8.136000
v 0.204000 -0.390000 7.865999
v 0.204000 -0.210000 7.865999
v 2.133000 -0.390000 7.865999
v 2.133000 -0.210000 7.865999
v 0.204000 -0.390000 7.655999
v 0.204000 -0.210000 7.655999
v 2.115000 -0.390000 7.655999
v 2.115000 -0.210000 7.655999
v 0.204000 -0.390000 7.445999
v 0.204000 -0.210000 7.445999
v 2.088000 -0.390000 7.445999
v 2.088000 -0.210000 7.445999
v 0.204000 -0.390000 7.265999
v 0.204000 -0.210000 7.265999
v 2.058000 -0.390000 7.265999
v 2.058000 -0.210000 7.265999
v 0.204000 -0.390000 6.935999
v 0.204000 -0.210000 6.935999
v 1.992000 -0.390000 6.935999
v 1.992000 -0.210000 6.935999
v 0.204000 -0.390000 6.636000
v 0.204000 -0.210000 6.636000
v 1.914000 -0.390000 6.636000
v 1.914000 -0.210000 6.636000
v 0.204000 -0.390000 6.365999
v 0.204000 -0.210000 6.365999
v 1.833000 -0.390000 6.365999
v 1.833000 -0.210000 6.365999
v 0.204000 -0.390000 6.125999
v 0.204000 -0.210000 6.125999
v 1.746000 -0.390000 6.125999
v 1.746000 -0.210000 6.125999
v 0.205800 -0.390000 5.940000
v 0.205800 -0.210000 5.940000
v 1.674000 -0.390000 5.940000
v 1.674000 -0.210000 5.940000
v 0.220800 -0.390000 5.730000
v 0.220800 -0.210000 5.730000
v 1.593000 -0.390000 5.730000
v 1.593000 -0.210000 5.730000
v 0.244800 -0.390000 5.489999
v 0.244800 -0.210000 5.489999
v 1.500000 -0.390000 5.489999
v 1.500000 -0.210000 5.489999
v 0.277800 -0.390000 5.250000
v 0.277800 -0.210000 5.250000
v 1.407000 -0.390000 5.250000
v 1.407000 -0.210000 5.250000
v 0.319800 -0.390000 5.009999
v 0.319800 -0.210000 5.009999
v 1.311000 -0.390000 5.009999
v 1.311000 -0.210000 5.009999
v 0.490800 -0.390000 4.289999
v 0.490800 -0.210000 4.289999
v 1.023000 -0.390000 4.289999
v 1.023000 -0.210000 4.289999
v 0.526800 -0.390000 4.139999
v 0.526800 -0.210000 4.139999
v 0.966000 -0.390000 4.139999
v 0.966000 -0.210000 4.139999
v 0.565800 -0.390000 3.989999
v 0.565800 -0.210000 3.989999
v 0.912000 -0.390000 3.989999
v 0.912000 -0.210000 3.989999
v 0.604800 -0.390000 3.840000
v 0.604800 -0.210000 3.840000
v 0.864000 -0.390000 3.840000
v 0.864000 -0.210000 3.840000
v 0.643800 -0.390000 3.690000
v 0.643800 -0.210000 3.690000
v 0.822000 -0.390000 3.690000
v 0.822000 -0.210000 3.690000
v 0.676800 -0.390000 3.554999
v 0.676800 -0.210000 3.554999
v 0.789000 -0.390000 3.554999
v 0.789000 -0.210000 3.554999
vt 0.178566 0.795289
vt 0.181814 0.759301
vt 0.181814 0.795289
vt 0.795289 0.273706
vt 0.792041 0.278487
vt 0.792041 0.273706
vt 0.795289 0.238802
vt 0.647547 0.166635
vt 0.682680 0.169889
vt 0.647547 0.169889
vt 0.647547 0.206045
vt 0.682680 0.206045
vt 0.353785 0.609107
vt 0.388918 0.572951
vt 0.388918 0.609107
vt 0.795289 0.278487
vt 0.792041 0.282229
vt 0.647868 0.210918
vt 0.388593 0.613980
vt 0.353785 0.613980
vt 0.178566 0.759301
vt 0.181814 0.754452
vt 0.682680 0.214706
vt 0.648685 0.218494
vt 0.648196 0.214706
vt 0.682680 0.210918
vt 0.388268 0.617768
vt 0.353785 0.617768
vt 0.178566 0.754452
vt 0.181814 0.750681
vt 0.353785 0.621557
vt 0.387240 0.624810
vt 0.353785 0.624810
vt 0.387781 0.621557
vt 0.178566 0.750681
vt 0.181814 0.746909
vt 0.795289 0.282229
vt 0.792041 0.286017
vt 0.795289 0.289286
vt 0.792041 0.295350
vt 0.792041 0.289286
vt 0.178566 0.746909
vt 0.181814 0.743677
vt 0.795289 0.286017
vt 0.682680 0.218494
vt 0.649220 0.221748
vt 0.353785 0.630767
vt 0.384642 0.636175
vt 0.353785 0.636175
vt 0.682680 0.221748
vt 0.650411 0.227705
vt 0.386049 0.630767
vt 0.178566 0.743677
vt 0.181814 0.737751
vt 0.383180 0.641047
vt 0.353785 0.641047
vt 0.178566 0.737751
vt 0.181814 0.732363
vt 0.795289 0.295350
vt 0.792041 0.300941
vt 0.682680 0.227705
vt 0.651824 0.233112
vt 0.795289 0.306028
vt 0.792041 0.310610
vt 0.792041 0.306028
vt 0.178566 0.732363
vt 0.181814 0.727514
vt 0.795289 0.300941
vt 0.682680 0.233112
vt 0.653283 0.237985
vt 0.353785 0.645386
vt 0.380311 0.648731
vt 0.353817 0.648731
vt 0.682680 0.237985
vt 0.654856 0.242323
vt 0.381610 0.645386
vt 0.178566 0.727514
vt 0.181814 0.723204
vt 0.178566 0.719861
vt 0.181814 0.716063
vt 0.181814 0.719861
vt 0.178566 0.723204
vt 0.795289 0.310610
vt 0.792041 0.314200
vt 0.682680 0.242323
vt 0.656155 0.245668
vt 0.795289 0.318232
vt 0.792041 0.322861
vt 0.792041 0.318232
vt 0.795289 0.314200
vt 0.682649 0.245668
vt 0.657614 0.249457
vt 0.378849 0.652519
vt 0.354088 0.652519
vt 0.354521 0.656857
vt 0.375493 0.661195
vt 0.355116 0.661195
vt 0.682374 0.249457
vt 0.659294 0.253795
vt 0.377171 0.656857
vt 0.178566 0.716063
vt 0.181814 0.711710
vt 0.795289 0.327474
vt 0.792041 0.332102
vt 0.792041 0.327474
vt 0.178566 0.711710
vt 0.181814 0.707343
vt 0.795289 0.322861
vt 0.681939 0.253795
vt 0.660966 0.258133
vt 0.680587 0.262456
vt 0.667901 0.275455
vt 0.662700 0.262456
vt 0.681343 0.258133
vt 0.373760 0.665518
vt 0.355874 0.665518
vt 0.178566 0.707343
vt 0.181814 0.702959
vt 0.358960 0.678517
vt 0.367535 0.681221
vt 0.359610 0.681221
vt 0.368563 0.678517
vt 0.178566 0.702959
vt 0.181814 0.689727
vt 0.795289 0.332102
vt 0.792041 0.346018
vt 0.795289 0.348889
vt 0.792041 0.351761
vt 0.792041 0.348889
vt 0.178566 0.689727
vt 0.181814 0.686969
vt 0.795289 0.346018
vt 0.677502 0.275455
vt 0.668925 0.278158
vt 0.360313 0.683924
vt 0.365694 0.686628
vt 0.361017 0.686628
vt 0.676852 0.278158
vt 0.669902 0.280862
vt 0.366560 0.683924
vt 0.178566 0.686969
vt 0.181814 0.684207
vt 0.364936 0.689332
vt 0.361721 0.689332
vt 0.178566 0.684207
vt 0.181814 0.681444
vt 0.795289 0.351761
vt 0.792041 0.354602
vt 0.676150 0.280862
vt 0.670765 0.283566
vt 0.795289 0.357413
vt 0.792041 0.359918
vt 0.792041 0.357413
vt 0.178566 0.681444
vt 0.181814 0.678681
vt 0.795289 0.354602
vt 0.675447 0.283566
vt 0.671529 0.286269
vt 0.490185 0.159660
vt 0.492213 0.162908
vt 0.490185 0.162908
vt 0.674149 0.288713
vt 0.672125 0.288713
vt 0.362316 0.691776
vt 0.178566 0.678681
vt 0.181814 0.676199
vt 0.792041 0.238802
vt 0.682680 0.166635
vt 0.353785 0.572951
vt 0.795289 0.359918
vt 0.674744 0.286269
vt 0.492213 0.159660
vt 0.364341 0.691776
vt 0.178566 0.676199
vn -1.0000 0.0000 0.0000
vn 0.9978 0.0000 -0.0665
vn 1.0000 0.0000 0.0000
vn 0.0000 0.0000 1.0000
vn 0.0000 -1.0000 0.0000
vn 0.0000 1.0000 0.0000
vn 0.9963 0.0000 -0.0854
vn 0.9918 0.0000 -0.1275
vn 0.9806 0.0000 -0.1961
vn 0.9864 0.0000 -0.1644
vn 0.9678 0.0000 -0.2516
vn 0.9401 0.0000 -0.3408
vn 0.9578 0.0000 -0.2873
vn -0.9975 0.0000 -0.0712
vn -1.0000 0.0000 -0.0097
vn 0.9326 0.0000 -0.3610
vn 0.9324 0.0000 -0.3613
vn 0.9330 0.0000 -0.3599
vn -0.9950 0.0000 -0.0995
vn 0.9285 0.0000 -0.3714
vn -0.9907 0.0000 -0.1362
vn -0.9850 0.0000 -0.1724
vn -0.9729 0.0000 -0.2311
vn 0.9409 0.0000 -0.3387
vn -0.9724 0.0000 -0.2334
vn 0.9348 0.0000 -0.3552
vn -0.9678 0.0000 -0.2516
vn 0.9524 0.0000 -0.3048
vn 0.9714 0.0000 -0.2375
vn 0.9630 0.0000 -0.2696
vn 0.0000 0.0000 -1.0000
vn -0.9714 0.0000 -0.2375
s off
f 2/1/1 3/2/1 1/3/1
f 7/4/2 12/5/2 8/6/2
f 8/6/3 5/7/3 7/4/3
f 6/8/4 1/9/4 5/10/4
f 7/11/5 1/9/5 3/12/5
f 4/13/6 6/14/6 8/15/6
f 11/16/7 16/17/7 12/5/7
f 3/12/5 11/18/5 7/11/5
f 4/13/6 12/19/6 10/20/6
f 4/21/1 9/22/1 3/2/1
f 13/23/5 19/24/5 15/25/5
f 9/26/5 15/25/5 11/18/5
f 10/20/6 16/27/6 14/28/6
f 10/29/1 13/30/1 9/22/1
f 18/31/6 24/32/6 22/33/6
f 14/28/6 20/34/6 18/31/6
f 14/35/1 17/36/1 13/30/1
f 15/37/8 20/38/8 16/17/8
f 23/39/9 28/40/9 24/41/9
f 18/42/1 21/43/1 17/36/1
f 19/44/10 24/41/10 20/38/10
f 17/45/5 23/46/5 19/24/5
f 26/47/6 32/48/6 30/49/6
f 21/50/5 27/51/5 23/46/5
f 22/33/6 28/52/6 26/47/6
f 22/53/1 25/54/1 21/43/1
f 30/49/6 36/55/6 34/56/6
f 26/57/1 29/58/1 25/54/1
f 27/59/11 32/60/11 28/40/11
f 25/61/5 31/62/5 27/51/5
f 35/63/12 40/64/12 36/65/12
f 30/66/1 33/67/1 29/58/1
f 31/68/13 36/65/13 32/60/13
f 29/69/5 35/70/5 31/62/5
f 38/71/6 44/72/6 42/73/6
f 33/74/5 39/75/5 35/70/5
f 34/56/6 40/76/6 38/71/6
f 34/77/1 37/78/1 33/67/1
f 42/79/14 45/80/14 41/81/14
f 38/82/15 41/81/15 37/78/15
f 39/83/16 44/84/16 40/64/16
f 37/85/5 43/86/5 39/75/5
f 47/87/17 52/88/17 48/89/17
f 43/90/18 48/89/18 44/84/18
f 41/91/5 47/92/5 43/86/5
f 42/73/6 48/93/6 46/94/6
f 50/95/6 56/96/6 54/97/6
f 45/98/5 51/99/5 47/92/5
f 46/94/6 52/100/6 50/95/6
f 46/101/19 49/102/19 45/80/19
f 55/103/20 60/104/20 56/105/20
f 50/106/21 53/107/21 49/102/21
f 51/108/17 56/105/17 52/88/17
f 49/109/5 55/110/5 51/99/5
f 57/111/5 63/112/5 59/113/5
f 53/114/5 59/113/5 55/110/5
f 54/97/6 60/115/6 58/116/6
f 54/117/22 57/118/22 53/107/22
f 62/119/6 68/120/6 66/121/6
f 58/116/6 64/122/6 62/119/6
f 58/123/23 61/124/23 57/118/23
f 59/125/20 64/126/20 60/104/20
f 67/127/24 72/128/24 68/129/24
f 62/130/25 65/131/25 61/124/25
f 63/132/26 68/129/26 64/126/26
f 61/133/5 67/134/5 63/112/5
f 70/135/6 76/136/6 74/137/6
f 65/138/5 71/139/5 67/134/5
f 66/121/6 72/140/6 70/135/6
f 66/141/27 69/142/27 65/131/27
f 74/137/6 80/143/6 78/144/6
f 70/145/27 73/146/27 69/142/27
f 71/147/28 76/148/28 72/128/28
f 69/149/5 75/150/5 71/139/5
f 79/151/29 84/152/29 80/153/29
f 74/154/27 77/155/27 73/146/27
f 75/156/30 80/153/30 76/148/30
f 73/157/5 79/158/5 75/150/5
f 82/159/31 83/160/31 81/161/31
f 79/158/5 81/162/5 83/163/5
f 80/143/6 82/164/6 78/144/6
f 78/165/32 81/166/32 77/155/32
f 2/1/1 4/21/1 3/2/1
f 7/4/2 11/16/2 12/5/2
f 8/6/3 6/167/3 5/7/3
f 6/8/4 2/168/4 1/9/4
f 7/11/5 5/10/5 1/9/5
f 4/13/6 2/169/6 6/14/6
f 11/16/7 15/37/7 16/17/7
f 3/12/5 9/26/5 11/18/5
f 4/13/6 8/15/6 12/19/6
f 4/21/1 10/29/1 9/22/1
f 13/23/5 17/45/5 19/24/5
f 9/26/5 13/23/5 15/25/5
f 10/20/6 12/19/6 16/27/6
f 10/29/1 14/35/1 13/30/1
f 18/31/6 20/34/6 24/32/6
f 14/28/6 16/27/6 20/34/6
f 14/35/1 18/42/1 17/36/1
f 15/37/8 19/44/8 20/38/8
f 23/39/9 27/59/9 28/40/9
f 18/42/1 22/53/1 21/43/1
f 19/44/10 23/39/10 24/41/10
f 17/45/5 21/50/5 23/46/5
f 26/47/6 28/52/6 32/48/6
f 21/50/5 25/61/5 27/51/5
f 22/33/6 24/32/6 28/52/6
f 22/53/1 26/57/1 25/54/1
f 30/49/6 32/48/6 36/55/6
f 26/57/1 30/66/1 29/58/1
f 27/59/11 31/68/11 32/60/11
f 25/61/5 29/69/5 31/62/5
f 35/63/12 39/83/12 40/64/12
f 30/66/1 34/77/1 33/67/1
f 31/68/13 35/63/13 36/65/13
f 29/69/5 33/74/5 35/70/5
f 38/71/6 40/76/6 44/72/6
f 33/74/5 37/85/5 39/75/5
f 34/56/6 36/55/6 40/76/6
f 34/77/1 38/82/1 37/78/1
f 42/79/14 46/101/14 45/80/14
f 38/82/15 42/79/15 41/81/15
f 39/83/16 43/90/16 44/84/16
f 37/85/5 41/91/5 43/86/5
f 47/87/17 51/108/17 52/88/17
f 43/90/18 47/87/18 48/89/18
f 41/91/5 45/98/5 47/92/5
f 42/73/6 44/72/6 48/93/6
f 50/95/6 52/100/6 56/96/6
f 45/98/5 49/109/5 51/99/5
f 46/94/6 48/93/6 52/100/6
f 46/101/19 50/106/19 49/102/19
f 55/103/20 59/125/20 60/104/20
f 50/106/21 54/117/21 53/107/21
f 51/108/17 55/103/17 56/105/17
f 49/109/5 53/114/5 55/110/5
f 57/111/5 61/133/5 63/112/5
f 53/114/5 57/111/5 59/113/5
f 54/97/6 56/96/6 60/115/6
f 54/117/22 58/123/22 57/118/22
f 62/119/6 64/122/6 68/120/6
f 58/116/6 60/115/6 64/122/6
f 58/123/23 62/130/23 61/124/23
f 59/125/20 63/132/20 64/126/20
f 67/127/24 71/147/24 72/128/24
f 62/130/25 66/141/25 65/131/25
f 63/132/26 67/127/26 68/129/26
f 61/133/5 65/138/5 67/134/5
f 70/135/6 72/140/6 76/136/6
f 65/138/5 69/149/5 71/139/5
f 66/121/6 68/120/6 72/140/6
f 66/141/27 70/145/27 69/142/27
f 74/137/6 76/136/6 80/143/6
f 70/145/27 74/154/27 73/146/27
f 71/147/28 75/156/28 76/148/28
f 69/149/5 73/157/5 75/150/5
f 79/151/29 83/170/29 84/152/29
f 74/154/27 78/165/27 77/155/27
f 75/156/30 79/151/30 80/153/30
f 73/157/5 77/171/5 79/158/5
f 82/159/31 84/172/31 83/160/31
f 79/158/5 77/171/5 81/162/5
f 80/143/6 84/173/6 82/164/6
f 78/165/32 82/174/32 81/166/32
