# Blender v3.0.1 OBJ File: 'Main.blend'
# www.blender.org
o Cube.5057_0204
v 0.194999 0.000000 -2.963999
v 0.194999 0.477000 -2.963999
v 0.194999 0.000000 -2.951999
v 0.194999 0.477000 -2.951999
v 0.400499 0.000000 -2.951999
v 0.400499 0.477000 -2.951999
v 0.400499 0.477000 -2.963999
v 0.400499 0.000000 -2.963999
v 0.358500 0.060000 -2.951999
v 0.358500 0.237000 -2.951999
v 0.353932 0.259961 -2.951999
v 0.357347 0.248705 -2.951999
v 0.340926 0.279426 -2.951999
v 0.321460 0.292433 -2.951999
v 0.331834 0.286888 -2.951999
v 0.310205 0.295847 -2.963999
v 0.310205 0.295847 -2.951999
v 0.348388 0.270334 -2.951999
v 0.298500 0.297000 -2.951999
v 0.286794 0.295847 -2.951999
v 0.275538 0.292433 -2.951999
v 0.256073 0.279426 -2.951999
v 0.243067 0.259961 -2.951999
v 0.248611 0.270334 -2.951999
v 0.238499 0.237000 -2.951999
v 0.238499 0.060000 -2.951999
v 0.239652 0.248705 -2.951999
v 0.265165 0.286888 -2.951999
v 0.321460 0.292433 -2.963999
v 0.358500 0.060000 -2.963999
v 0.331834 0.286888 -2.963999
v 0.340926 0.279426 -2.963999
v 0.348388 0.270334 -2.963999
v 0.358500 0.237000 -2.963999
v 0.353932 0.259961 -2.963999
v 0.357347 0.248705 -2.963999
v 0.286794 0.295847 -2.963999
v 0.256073 0.279426 -2.963999
v 0.265165 0.286888 -2.963999
v 0.275538 0.292433 -2.963999
v 0.243067 0.259961 -2.963999
v 0.238499 0.237000 -2.963999
v 0.238499 0.060000 -2.963999
v 0.239652 0.248705 -2.963999
v 0.248611 0.270334 -2.963999
v 0.298500 0.297000 -2.963999
vt 0.900847 0.433540
vt 0.901064 0.425067
vt 0.901064 0.433540
vt 0.868810 0.652509
vt 0.867153 0.655778
vt 0.866939 0.655757
vt 0.925243 0.538189
vt 0.925026 0.540659
vt 0.925026 0.538189
vt 0.907570 0.923982
vt 0.907786 0.920837
vt 0.907786 0.923982
vt 0.940589 0.440231
vt 0.940806 0.438062
vt 0.940806 0.440231
vt 0.925026 0.536547
vt 0.925243 0.536665
vt 0.925026 0.536665
vt 0.907786 0.919640
vt 0.907570 0.919736
vt 0.907570 0.919640
vt 0.907786 0.919867
vt 0.907570 0.919867
vt 0.907786 0.920028
vt 0.907570 0.920028
vt 0.907786 0.920213
vt 0.907570 0.920213
vt 0.907786 0.920415
vt 0.907570 0.920415
vt 0.907786 0.920625
vt 0.907570 0.920625
vt 0.907570 0.920837
vt 0.925243 0.536814
vt 0.925243 0.536994
vt 0.925026 0.536814
vt 0.925243 0.537188
vt 0.925026 0.536994
vt 0.925243 0.537394
vt 0.925026 0.537188
vt 0.925026 0.537608
vt 0.925026 0.537394
vt 0.925243 0.537608
vt 0.925026 0.537815
vt 0.925243 0.537815
vt 0.925026 0.538013
vt 0.925243 0.538013
vt 0.868024 0.660033
vt 0.865099 0.661116
vt 0.865855 0.660033
vt 0.537517 0.868618
vt 0.534592 0.867535
vt 0.536761 0.867535
vt 0.898433 0.687007
vt 0.898649 0.684654
vt 0.898649 0.687007
vt 0.537517 0.860011
vt 0.535883 0.863280
vt 0.535677 0.863259
vt 0.930095 0.175173
vt 0.929878 0.178885
vt 0.929878 0.175173
vt 0.898433 0.693663
vt 0.900847 0.425067
vt 0.865855 0.656839
vt 0.865099 0.652509
vt 0.868810 0.661116
vt 0.868024 0.656839
vt 0.865878 0.656628
vt 0.868001 0.656628
vt 0.867940 0.656425
vt 0.865939 0.656425
vt 0.866038 0.656238
vt 0.867840 0.656238
vt 0.867703 0.656074
vt 0.866175 0.656074
vt 0.866336 0.655939
vt 0.866527 0.655839
vt 0.867543 0.655939
vt 0.867359 0.655839
vt 0.866733 0.655778
vt 0.925243 0.540659
vt 0.940589 0.438062
vt 0.925243 0.536547
vt 0.907786 0.919736
vt 0.533806 0.868618
vt 0.898433 0.684654
vt 0.534592 0.864341
vt 0.536761 0.864341
vt 0.533806 0.860011
vt 0.534615 0.864130
vt 0.536738 0.864130
vt 0.536677 0.863927
vt 0.534676 0.863927
vt 0.534775 0.863740
vt 0.536578 0.863740
vt 0.536440 0.863576
vt 0.534913 0.863576
vt 0.535073 0.863441
vt 0.535264 0.863341
vt 0.536280 0.863441
vt 0.536089 0.863341
vt 0.535463 0.863280
vt 0.930095 0.178885
vt 0.898649 0.693663
vn -1.0000 0.0000 0.0000
vn -0.0000 -0.0000 1.0000
vn 1.0000 0.0000 0.0000
vn 0.0000 1.0000 0.0000
vn -0.0980 -0.9952 0.0000
vn -0.2903 -0.9569 0.0000
vn -0.4714 -0.8819 0.0000
vn -0.6344 -0.7730 0.0000
vn -0.7730 -0.6344 0.0000
vn -0.8819 -0.4714 0.0000
vn -0.9569 -0.2903 0.0000
vn -0.9952 -0.0980 0.0000
vn 0.0980 -0.9952 0.0000
vn 0.2903 -0.9569 0.0000
vn 0.4714 -0.8819 0.0000
vn 0.6344 -0.7730 0.0000
vn 0.7730 -0.6344 0.0000
vn 0.8819 -0.4714 0.0000
vn 0.9569 -0.2903 0.0000
vn 0.9952 -0.0980 0.0000
vn 0.0000 0.0000 -1.0000
vn 0.0000 -1.0000 0.0000
vn 0.0001 0.0000 1.0000
vn 0.0002 0.0000 -1.0000
vn -0.0001 0.0000 -1.0000
s off
f 3/1/1 2/2/1 1/3/1
f 4/4/2 20/5/2 19/6/2
f 25/7/3 43/8/3 42/9/3
f 9/10/1 34/11/1 30/12/1
f 26/13/4 30/14/4 43/15/4
f 16/16/5 19/17/5 46/18/5
f 16/19/6 14/20/6 17/21/6
f 14/20/7 31/22/7 15/23/7
f 15/23/8 32/24/8 13/25/8
f 13/25/9 33/26/9 18/27/9
f 18/27/10 35/28/10 11/29/10
f 11/29/11 36/30/11 12/31/11
f 12/31/12 34/11/12 10/32/12
f 20/33/13 46/18/13 19/17/13
f 21/34/14 37/35/14 20/33/14
f 28/36/15 40/37/15 21/34/15
f 22/38/16 39/39/16 28/36/16
f 22/38/17 45/40/17 38/41/17
f 24/42/18 41/43/18 45/40/18
f 23/44/19 44/45/19 41/43/19
f 27/46/20 42/9/20 44/45/20
f 26/47/2 5/48/2 9/49/2
f 8/50/21 43/51/21 30/52/21
f 5/53/22 1/54/22 8/55/22
f 7/56/21 16/57/21 46/58/21
f 4/59/4 7/60/4 2/61/4
f 8/55/3 6/62/3 5/53/3
f 3/1/1 4/63/1 2/2/1
f 9/49/2 5/48/2 10/64/2
f 5/48/2 6/65/2 10/64/2
f 4/4/2 3/66/2 25/67/2
f 3/66/2 26/47/2 25/67/2
f 12/68/2 10/64/2 6/65/2
f 4/4/2 25/67/2 27/69/2
f 4/4/2 27/69/2 23/70/2
f 11/71/2 12/68/2 6/65/2
f 18/72/2 11/71/2 6/65/2
f 4/4/2 23/70/2 24/73/2
f 4/4/2 24/73/2 22/74/2
f 18/72/2 6/65/2 13/75/2
f 6/65/2 4/4/2 19/6/2
f 13/75/23 6/65/23 15/76/23
f 15/76/2 6/65/2 14/77/2
f 4/4/2 22/74/2 28/78/2
f 4/4/2 28/78/2 21/79/2
f 14/77/2 6/65/2 17/80/2
f 17/80/2 6/65/2 19/6/2
f 4/4/2 21/79/2 20/5/2
f 25/7/3 26/81/3 43/8/3
f 9/10/1 10/32/1 34/11/1
f 26/13/4 9/82/4 30/14/4
f 16/16/5 17/83/5 19/17/5
f 16/19/6 29/84/6 14/20/6
f 14/20/7 29/84/7 31/22/7
f 15/23/8 31/22/8 32/24/8
f 13/25/9 32/24/9 33/26/9
f 18/27/10 33/26/10 35/28/10
f 11/29/11 35/28/11 36/30/11
f 12/31/12 36/30/12 34/11/12
f 20/33/13 37/35/13 46/18/13
f 21/34/14 40/37/14 37/35/14
f 28/36/15 39/39/15 40/37/15
f 22/38/16 38/41/16 39/39/16
f 22/38/17 24/42/17 45/40/17
f 24/42/18 23/44/18 41/43/18
f 23/44/19 27/46/19 44/45/19
f 27/46/20 25/7/20 42/9/20
f 26/47/2 3/66/2 5/48/2
f 8/50/21 1/85/21 43/51/21
f 5/53/22 3/86/22 1/54/22
f 42/87/21 43/51/21 1/85/21
f 7/56/21 8/50/21 34/88/21
f 8/50/21 30/52/21 34/88/21
f 42/87/21 1/85/21 2/89/21
f 44/90/24 42/87/24 2/89/24
f 7/56/25 34/88/25 36/91/25
f 7/56/21 36/91/21 35/92/21
f 41/93/21 44/90/21 2/89/21
f 45/94/21 41/93/21 2/89/21
f 7/56/21 35/92/21 33/95/21
f 7/56/21 33/95/21 32/96/21
f 45/94/21 2/89/21 38/97/21
f 2/89/21 7/56/21 46/58/21
f 38/97/21 2/89/21 39/98/21
f 39/98/25 2/89/25 40/99/25
f 7/56/21 32/96/21 31/100/21
f 7/56/21 31/100/21 29/101/21
f 40/99/21 2/89/21 37/102/21
f 37/102/25 2/89/25 46/58/25
f 7/56/21 29/101/21 16/57/21
f 4/59/4 6/103/4 7/60/4
f 8/55/3 7/104/3 6/62/3
