# Blender v3.0.1 OBJ File: 'Main.blend'
# www.blender.org
o Cube.5127_0090
v -0.402000 0.465000 -1.059000
v -0.402000 0.465000 -0.516000
v -0.402000 0.561000 -1.059000
v -0.402000 0.561000 -0.516000
v -0.414000 0.465000 -1.059000
v -0.414000 0.465000 -0.516000
v -0.414000 0.561000 -1.059000
v -0.414000 0.561000 -0.516000
vt 0.765781 0.862340
vt 0.764049 0.872139
vt 0.764049 0.862340
vt 0.590451 0.863989
vt 0.592183 0.873787
vt 0.590451 0.873787
vt 0.944988 0.528894
vt 0.944772 0.527162
vt 0.944988 0.527162
vt 0.894398 0.535721
vt 0.894614 0.545519
vt 0.894398 0.545519
vt 0.927853 0.943226
vt 0.928069 0.944958
vt 0.927853 0.944958
vt 0.894736 0.693663
vt 0.894520 0.683864
vt 0.894736 0.683864
vt 0.765781 0.872139
vt 0.592183 0.863989
vt 0.944772 0.528894
vt 0.894614 0.535721
vt 0.928069 0.943226
vt 0.894520 0.693663
vn 1.0000 0.0000 0.0000
vn -1.0000 0.0000 0.0000
vn 0.0000 0.0000 -1.0000
vn 0.0000 -1.0000 0.0000
vn 0.0000 0.0000 1.0000
vn 0.0000 1.0000 0.0000
s off
f 3/1/1 2/2/1 1/3/1
f 6/4/2 7/5/2 5/6/2
f 1/7/3 7/8/3 3/9/3
f 2/10/4 5/11/4 1/12/4
f 4/13/5 6/14/5 2/15/5
f 3/16/6 8/17/6 4/18/6
f 3/1/1 4/19/1 2/2/1
f 6/4/2 8/20/2 7/5/2
f 1/7/3 5/21/3 7/8/3
f 2/10/4 6/22/4 5/11/4
f 4/13/5 8/23/5 6/14/5
f 3/16/6 7/24/6 8/17/6
