# Blender v3.0.1 OBJ File: 'Main.blend'
# www.blender.org
o Cube.174_0191
v 2.041500 -0.390000 1.321500
v 2.044500 -0.357000 1.318500
v 2.041500 -0.390000 1.300500
v 2.044500 -0.357000 1.303500
v 2.062500 -0.390000 1.321500
v 2.059500 -0.357000 1.318500
v 2.062500 -0.390000 1.300500
v 2.059500 -0.357000 1.303500
v 2.041500 -0.357000 1.321500
v 2.041500 -0.357000 1.300500
v 2.062500 -0.357000 1.300500
v 2.062500 -0.357000 1.321500
v 2.044500 -0.210000 1.318500
v 2.044500 -0.210000 1.303500
v 2.059500 -0.210000 1.318500
v 2.059500 -0.210000 1.303500
vt 0.059327 0.972223
vt 0.059706 0.972819
vt 0.059327 0.972819
vt 0.966712 0.972244
vt 0.967091 0.972839
vt 0.966712 0.972839
vt 0.423175 0.972237
vt 0.423553 0.972833
vt 0.423175 0.972833
vt 0.950939 0.972221
vt 0.951318 0.972817
vt 0.950939 0.972817
vt 0.879363 0.002233
vt 0.879742 0.001854
vt 0.879742 0.002233
vt 0.302031 0.936365
vt 0.302302 0.933712
vt 0.302302 0.936365
vt 0.875342 0.002179
vt 0.875288 0.001854
vt 0.875342 0.001908
vt 0.875613 0.002179
vt 0.875288 0.002233
vt 0.875613 0.001908
vt 0.875667 0.002233
vt 0.875667 0.001854
vt 0.943874 0.042490
vt 0.944144 0.042220
vt 0.944144 0.042490
vt 0.524135 0.936391
vt 0.524406 0.933738
vt 0.524406 0.936391
vt 0.249617 0.936386
vt 0.249888 0.933734
vt 0.249888 0.936386
vt 0.253585 0.936386
vt 0.253855 0.933734
vt 0.253855 0.936386
vt 0.059706 0.972223
vt 0.967091 0.972244
vt 0.423553 0.972237
vt 0.951318 0.972221
vt 0.879363 0.001854
vt 0.302031 0.933712
vt 0.943874 0.042220
vt 0.524135 0.933738
vt 0.249617 0.933734
vt 0.253585 0.933734
vn -1.0000 0.0000 0.0000
vn 0.0000 0.0000 -1.0000
vn 1.0000 0.0000 0.0000
vn 0.0000 0.0000 1.0000
vn 0.0000 -1.0000 0.0000
vn 0.0000 1.0000 0.0000
s off
f 9/1/1 3/2/1 1/3/1
f 10/4/2 7/5/2 3/6/2
f 11/7/3 5/8/3 7/9/3
f 12/10/4 1/11/4 5/12/4
f 7/13/5 1/14/5 3/15/5
f 6/16/4 13/17/4 2/18/4
f 4/19/6 9/20/6 2/21/6
f 8/22/6 10/23/6 4/19/6
f 6/24/6 11/25/6 8/22/6
f 2/21/6 12/26/6 6/24/6
f 14/27/6 15/28/6 16/29/6
f 4/30/2 16/31/2 8/32/2
f 8/33/3 15/34/3 6/35/3
f 2/36/1 14/37/1 4/38/1
f 9/1/1 10/39/1 3/2/1
f 10/4/2 11/40/2 7/5/2
f 11/7/3 12/41/3 5/8/3
f 12/10/4 9/42/4 1/11/4
f 7/13/5 5/43/5 1/14/5
f 6/16/4 15/44/4 13/17/4
f 4/19/6 10/23/6 9/20/6
f 8/22/6 11/25/6 10/23/6
f 6/24/6 12/26/6 11/25/6
f 2/21/6 9/20/6 12/26/6
f 14/27/6 13/45/6 15/28/6
f 4/30/2 14/46/2 16/31/2
f 8/33/3 16/47/3 15/34/3
f 2/36/1 13/48/1 14/37/1
