# Blender v3.0.1 OBJ File: 'Main.blend'
# www.blender.org
o Cube.5503_0231
v 1.740001 0.465000 -2.949000
v 1.740001 0.582000 -2.949000
v 1.446001 0.582000 -2.949000
v 1.446001 0.465000 -2.949000
v 1.446001 0.465000 -1.332001
v 1.740001 0.465000 -1.332001
v 1.740001 0.582000 -1.332001
v 1.446001 0.582000 -1.332001
vt 0.143410 0.887442
vt 0.141299 0.887442
vt 0.141299 0.892747
vt 0.652097 0.892461
vt 0.652097 0.887156
vt 0.649985 0.887156
vt 0.479496 0.836171
vt 0.479496 0.806988
vt 0.477385 0.806988
vt 0.012285 0.836821
vt 0.012285 0.807638
vt 0.010174 0.807638
vt 0.112677 0.452317
vt 0.112677 0.423134
vt 0.107372 0.423134
vt 0.044793 0.807046
vt 0.044793 0.777863
vt 0.039489 0.777863
vt 0.143410 0.892747
vt 0.649985 0.892461
vt 0.477385 0.836171
vt 0.010174 0.836821
vt 0.107372 0.452317
vt 0.039489 0.807046
vn 0.0000 0.0000 -1.0000
vn 0.0000 0.0000 1.0000
vn -1.0000 0.0000 0.0000
vn 1.0000 0.0000 0.0000
vn 0.0000 1.0000 0.0000
vn 0.0000 -1.0000 0.0000
s off
f 4/1/1 3/2/1 2/3/1
f 7/4/2 8/5/2 5/6/2
f 8/7/3 3/8/3 4/9/3
f 6/10/4 1/11/4 2/12/4
f 7/13/5 2/14/5 3/15/5
f 5/16/6 4/17/6 1/18/6
f 4/1/1 2/3/1 1/19/1
f 7/4/2 5/6/2 6/20/2
f 8/7/3 4/9/3 5/21/3
f 6/10/4 2/12/4 7/22/4
f 7/13/5 3/15/5 8/23/5
f 5/16/6 1/18/6 6/24/6
