# Blender v3.0.1 OBJ File: 'Main.blend'
# www.blender.org
o Cube.5845_0028
v 0.114748 0.000000 -3.489000
v 0.063748 0.000000 -3.489000
v 0.114748 0.000000 -3.437999
v 0.063748 0.000000 -3.437999
v 0.114748 0.036000 -3.489000
v 0.063748 0.036000 -3.489000
v 0.114748 0.036000 -3.437999
v 0.063748 0.036000 -3.437999
vt 0.741841 0.304369
vt 0.742761 0.303448
vt 0.742761 0.304369
vt 0.303851 0.771690
vt 0.304771 0.772610
vt 0.303851 0.772610
vt 0.944128 0.135289
vt 0.943478 0.136210
vt 0.943478 0.135289
vt 0.934091 0.795218
vt 0.933442 0.796138
vt 0.933442 0.795218
vt 0.404665 0.851055
vt 0.404016 0.851975
vt 0.404016 0.851055
vt 0.930521 0.229815
vt 0.929871 0.230735
vt 0.929871 0.229815
vt 0.741841 0.303448
vt 0.304771 0.771690
vt 0.944128 0.136210
vt 0.934091 0.796138
vt 0.404665 0.851975
vt 0.930521 0.230735
vn 0.0000 -1.0000 0.0000
vn 0.0000 1.0000 0.0000
vn 1.0000 0.0000 0.0000
vn 0.0000 0.0000 -1.0000
vn -1.0000 0.0000 0.0000
vn 0.0000 0.0000 1.0000
s off
f 1/1/1 4/2/1 2/3/1
f 8/4/2 5/5/2 6/6/2
f 5/7/3 3/8/3 1/9/3
f 6/10/4 1/11/4 2/12/4
f 8/13/5 2/14/5 4/15/5
f 7/16/6 4/17/6 3/18/6
f 1/1/1 3/19/1 4/2/1
f 8/4/2 7/20/2 5/5/2
f 5/7/3 7/21/3 3/8/3
f 6/10/4 5/22/4 1/11/4
f 8/13/5 6/23/5 2/14/5
f 7/16/6 8/24/6 4/17/6
