# Blender v3.0.1 OBJ File: 'Main.blend'
# www.blender.org
o Cube.005_Cube.003
v -0.000600 0.006000 -0.010950
v 0.000600 0.006000 -0.010950
v -0.000600 0.027000 -0.010950
v 0.000600 0.027000 -0.010950
v -0.000600 0.006000 -0.010500
v 0.000600 0.006000 -0.010500
v -0.000600 0.027000 -0.010500
v 0.000600 0.027000 -0.010500
vt 0.000000 0.000000
vt 0.000000 0.000000
vt 0.000000 0.000000
vt 0.000000 0.000000
vt 0.000000 0.000000
vt 0.000000 0.000000
vt 0.000000 0.000000
vt 0.000000 0.000000
vn 0.0000 0.0000 -1.0000
vn 0.0000 0.0000 1.0000
vn 0.0000 -1.0000 0.0000
vn -1.0000 0.0000 0.0000
vn 0.0000 1.0000 0.0000
vn 1.0000 0.0000 0.0000
s 1
f 1/1/1 4/2/1 2/3/1
f 8/4/2 5/5/2 6/6/2
f 6/6/3 1/1/3 2/3/3
f 5/5/4 3/7/4 1/1/4
f 7/8/5 4/2/5 3/7/5
f 8/4/6 2/3/6 4/2/6
f 1/1/1 3/7/1 4/2/1
f 8/4/2 7/8/2 5/5/2
f 6/6/3 5/5/3 1/1/3
f 5/5/4 7/8/4 3/7/4
f 7/8/5 8/4/5 4/2/5
f 8/4/6 6/6/6 2/3/6
