# Blender v3.0.1 OBJ File: 'Main.blend'
# www.blender.org
o Cube.5489_0343
v 1.442999 0.465000 3.516000
v 1.442999 0.465000 3.420000
v 1.660498 0.555000 3.420000
v 1.660498 0.555000 3.515999
v 1.660498 0.548507 3.420000
v 1.660498 0.548507 3.515999
v 1.660498 0.548507 3.509995
v 1.660498 0.542013 3.420000
v 1.660498 0.542013 3.509995
v 1.660498 0.535520 3.420000
v 1.660498 0.535520 3.509995
v 1.660498 0.542013 3.515995
v 1.660498 0.535520 3.515995
v 1.854001 0.465000 3.420000
v 1.474383 0.465000 3.515998
v 1.877998 0.465000 3.419999
v 1.877998 0.465000 3.420000
v 1.830921 0.465000 3.509995
v 1.830921 0.465000 3.515995
v 1.877998 0.465000 3.515999
v 1.862306 0.465000 3.509995
v 1.490075 0.465000 3.509998
v 1.846614 0.465000 3.509995
v 1.854001 0.465000 3.509995
v 1.660498 0.465000 3.509995
v 1.862306 0.465000 3.419999
v 1.830921 0.465000 3.419999
v 1.443001 0.464995 3.420000
v 1.443001 0.465000 3.420000
v 1.660498 0.465000 3.420000
v 1.450501 0.465000 3.420000
v 1.458691 0.465000 3.420000
v 1.862306 0.465000 3.515999
v 1.443001 0.464995 3.516000
v 1.443001 0.465000 3.516000
v 1.450501 0.465000 3.516000
v 1.458691 0.465000 3.516000
v 1.854001 0.465000 3.419999
v 1.458691 0.465000 3.509999
v 1.846614 0.465000 3.419999
v 1.474383 0.465000 3.509998
v 1.474383 0.465000 3.420000
v 1.490075 0.465000 3.420000
v 1.846614 0.465000 3.515995
v 1.490075 0.465000 3.515998
vt 0.764049 0.880084
vt 0.765791 0.883090
vt 0.764049 0.883090
vt 0.765791 0.875836
vt 0.765791 0.880084
vt 0.885482 0.046633
vt 0.886988 0.049992
vt 0.886988 0.050126
vt 0.701143 0.878121
vt 0.702766 0.874479
vt 0.701260 0.878121
vt 0.702766 0.882046
vt 0.702766 0.882046
vt 0.702766 0.882046
vt 0.708088 0.878120
vt 0.709711 0.881763
vt 0.709711 0.882046
vt 0.709711 0.874196
vt 0.709711 0.874332
vt 0.952897 0.178196
vt 0.952897 0.176455
vt 0.952897 0.178196
vt 0.744785 0.876959
vt 0.744907 0.880601
vt 0.744785 0.880601
vt 0.744907 0.873318
vt 0.744907 0.876959
vt 0.701378 0.878121
vt 0.702766 0.875046
vt 0.701494 0.878121
vt 0.886988 0.043275
vt 0.885598 0.046633
vt 0.702766 0.874629
vt 0.702766 0.874762
vt 0.702766 0.881479
vt 0.702766 0.881763
vt 0.702766 0.878121
vt 0.702766 0.881196
vt 0.862019 0.456814
vt 0.862126 0.453181
vt 0.862126 0.456814
vt 0.744907 0.873884
vt 0.744785 0.876959
vt 0.744785 0.873884
vt 0.764049 0.890145
vt 0.765440 0.893219
vt 0.765440 0.893504
vt 0.765440 0.887069
vt 0.764166 0.890145
vt 0.862126 0.459386
vt 0.862019 0.459386
vt 0.744907 0.876959
vt 0.744785 0.880035
vt 0.085529 0.816592
vt 0.084257 0.816592
vt 0.085529 0.813518
vt 0.085529 0.819668
vt 0.746527 0.873170
vt 0.744785 0.873034
vt 0.746527 0.873034
vt 0.746527 0.880451
vt 0.746527 0.880451
vt 0.746527 0.880601
vt 0.744785 0.880884
vt 0.744907 0.880035
vt 0.744907 0.876959
vt 0.746527 0.876959
vt 0.746527 0.880318
vt 0.746527 0.880035
vt 0.225781 0.920878
vt 0.225781 0.919137
vt 0.225781 0.920878
vt 0.764049 0.875838
vt 0.765791 0.875836
vt 0.886988 0.050274
vt 0.702766 0.874196
vt 0.702766 0.881910
vt 0.708205 0.878120
vt 0.709711 0.874479
vt 0.709711 0.874196
vt 0.709711 0.874196
vt 0.952897 0.176455
vt 0.744785 0.873318
vt 0.886988 0.042992
vt 0.862019 0.453181
vt 0.765440 0.886786
vt 0.744785 0.873170
vt 0.746527 0.880884
vt 0.746527 0.880884
vt 0.744907 0.880451
vt 0.746527 0.873318
vt 0.746527 0.873601
vt 0.744907 0.873601
vt 0.746527 0.873884
vt 0.744785 0.873601
vt 0.744907 0.880318
vt 0.744785 0.880318
vt 0.225781 0.919137
vn -0.3824 0.9240 0.0000
vn 0.3824 0.9240 0.0000
vn 0.0000 0.0000 1.0000
vn 0.0000 0.0000 -1.0000
vn -0.9164 -0.4001 0.0000
vn -0.3823 -0.9240 0.0000
vn 0.3823 -0.9240 0.0000
vn 0.3823 0.9240 0.0000
vn 0.0001 0.0000 1.0000
vn -0.3823 0.9240 0.0000
vn -0.3824 -0.9240 0.0000
vn 0.0000 -1.0000 0.0000
vn 1.0000 0.0000 0.0000
vn 0.2747 0.9615 0.0000
vn -0.9366 -0.3505 0.0000
vn 0.3824 -0.9240 0.0000
s off
f 4/1/1 2/2/1 1/3/1
f 16/4/2 3/5/2 4/1/2
f 7/6/3 23/7/3 24/8/3
f 3/9/4 26/10/4 5/11/4
f 29/12/4 28/13/4 2/14/4
f 4/15/3 33/16/3 20/17/3
f 35/18/3 36/19/3 4/15/3
f 1/20/5 28/21/5 34/22/5
f 6/23/6 21/24/6 33/25/6
f 6/23/7 39/26/7 7/27/7
f 8/28/4 27/29/4 10/30/4
f 7/6/3 41/31/3 9/32/3
f 38/33/4 40/34/4 5/11/4
f 5/11/4 42/35/4 32/36/4
f 30/37/4 43/38/4 10/30/4
f 12/39/8 23/40/8 9/41/8
f 8/28/4 43/38/4 42/35/4
f 22/42/7 13/43/7 45/44/7
f 12/45/3 19/46/3 44/47/3
f 12/45/9 45/48/9 13/49/9
f 12/39/10 41/50/10 15/51/10
f 11/52/11 19/53/11 13/43/11
f 25/54/3 11/55/3 22/56/3
f 30/37/4 10/30/4 27/29/4
f 11/55/3 25/54/3 18/57/3
f 31/58/12 35/59/12 29/60/12
f 14/61/12 38/62/12 26/63/12
f 20/64/12 33/25/12 21/24/12
f 18/65/12 25/66/12 30/67/12
f 40/68/12 14/61/12 27/69/12
f 29/70/13 34/71/13 28/72/13
f 4/1/1 3/5/1 2/2/1
f 20/73/2 17/74/2 4/1/2
f 17/74/14 16/4/14 4/1/14
f 24/8/3 21/75/3 7/6/3
f 7/6/3 9/32/3 23/7/3
f 3/9/4 16/76/4 26/10/4
f 2/14/4 3/9/4 29/12/4
f 3/9/4 5/11/4 32/36/4
f 29/12/4 3/9/4 31/77/4
f 32/36/4 31/77/4 3/9/4
f 4/15/3 6/78/3 33/16/3
f 36/19/3 37/79/3 4/15/3
f 37/79/3 6/78/3 4/15/3
f 4/15/3 1/80/3 35/18/3
f 1/80/3 34/81/3 35/18/3
f 1/20/15 2/82/15 28/21/15
f 6/23/6 7/27/6 21/24/6
f 6/23/16 37/83/16 39/26/16
f 8/28/4 40/34/4 27/29/4
f 7/6/3 39/84/3 41/31/3
f 8/28/4 5/11/4 40/34/4
f 5/11/4 26/10/4 38/33/4
f 5/11/4 8/28/4 42/35/4
f 12/39/2 44/85/2 23/40/2
f 8/28/4 10/30/4 43/38/4
f 22/42/16 11/52/16 13/43/16
f 12/45/3 13/49/3 19/46/3
f 12/45/3 15/86/3 45/48/3
f 12/39/1 9/41/1 41/50/1
f 11/52/11 18/65/11 19/53/11
f 31/58/12 36/87/12 35/59/12
f 16/88/12 17/89/12 26/63/12
f 17/89/12 14/61/12 26/63/12
f 24/90/12 14/61/12 21/24/12
f 14/61/12 17/89/12 21/24/12
f 17/89/12 20/64/12 21/24/12
f 39/26/12 37/83/12 36/87/12
f 36/87/12 31/58/12 39/26/12
f 31/58/12 32/91/12 39/26/12
f 32/91/12 42/92/12 41/93/12
f 42/92/12 43/94/12 41/93/12
f 45/44/12 15/95/12 41/93/12
f 41/93/12 39/26/12 32/91/12
f 43/94/12 30/67/12 25/66/12
f 30/67/12 14/61/12 18/65/12
f 23/96/12 14/61/12 24/90/12
f 22/42/12 45/44/12 41/93/12
f 22/42/12 41/93/12 43/94/12
f 14/61/12 23/96/12 18/65/12
f 23/96/12 44/97/12 19/53/12
f 25/66/12 22/42/12 43/94/12
f 23/96/12 19/53/12 18/65/12
f 38/62/12 14/61/12 40/68/12
f 14/61/12 30/67/12 27/69/12
f 29/70/13 35/98/13 34/71/13
