# Blender v3.0.1 OBJ File: 'Main.blend'
# www.blender.org
o Cube.003_Cube.002
v -0.000600 0.027000 -0.002100
v 0.000600 0.027000 -0.002100
v -0.000600 0.027000 0.002100
v 0.000600 0.027000 0.002100
v -0.000600 0.027450 -0.002100
v 0.000600 0.027450 -0.002100
v -0.000600 0.027450 0.002100
v 0.000600 0.027450 0.002100
vt 0.000000 0.000000
vt 0.000000 0.000000
vt 0.000000 0.000000
vt 0.000000 0.000000
vt 0.000000 0.000000
vt 0.000000 0.000000
vt 0.000000 0.000000
vt 0.000000 0.000000
vn 0.0000 -1.0000 0.0000
vn 0.0000 1.0000 0.0000
vn 1.0000 0.0000 0.0000
vn 0.0000 0.0000 -1.0000
vn -1.0000 0.0000 0.0000
vn 0.0000 0.0000 1.0000
s 1
f 4/1/1 1/2/1 2/3/1
f 5/4/2 8/5/2 6/6/2
f 2/3/3 8/5/3 4/1/3
f 1/2/4 6/6/4 2/3/4
f 3/7/5 5/4/5 1/2/5
f 4/1/6 7/8/6 3/7/6
f 4/1/1 3/7/1 1/2/1
f 5/4/2 7/8/2 8/5/2
f 2/3/3 6/6/3 8/5/3
f 1/2/4 5/4/4 6/6/4
f 3/7/5 7/8/5 5/4/5
f 4/1/6 8/5/6 7/8/6
