# Blender v3.0.1 OBJ File: 'Main.blend'
# www.blender.org
o Cube.5647_0008
v -1.899001 0.465000 0.318000
v -1.899001 0.465000 -0.366000
v -1.947001 0.465000 0.318000
v -1.947001 0.465000 -0.366000
v -1.899001 0.480000 0.318000
v -1.899001 0.480000 -0.366000
v -1.947001 0.480000 0.318000
v -1.947001 0.480000 -0.366000
vt 0.875077 0.627480
vt 0.875944 0.627480
vt 0.875944 0.615137
vt 0.423115 0.861700
vt 0.423115 0.874042
vt 0.423986 0.874042
vt 0.971427 0.191466
vt 0.971427 0.192333
vt 0.971698 0.192333
vt 0.884025 0.843848
vt 0.884025 0.856190
vt 0.884296 0.856190
vt 0.971365 0.491731
vt 0.971365 0.492602
vt 0.971636 0.492602
vt 0.883946 0.155599
vt 0.883946 0.167942
vt 0.884217 0.167942
vt 0.875077 0.615137
vt 0.423986 0.861700
vt 0.971698 0.191466
vt 0.884296 0.843848
vt 0.971636 0.491731
vt 0.884217 0.155599
vn 0.0000 -1.0000 0.0000
vn 0.0000 1.0000 0.0000
vn 0.0000 0.0000 1.0000
vn -1.0000 0.0000 0.0000
vn 0.0000 0.0000 -1.0000
vn 1.0000 0.0000 0.0000
s off
f 4/1/1 2/2/1 1/3/1
f 5/4/2 6/5/2 8/6/2
f 3/7/3 1/8/3 5/9/3
f 4/10/4 3/11/4 7/12/4
f 2/13/5 4/14/5 8/15/5
f 1/16/6 2/17/6 6/18/6
f 4/1/1 1/3/1 3/19/1
f 5/4/2 8/6/2 7/20/2
f 3/7/3 5/9/3 7/21/3
f 4/10/4 7/12/4 8/22/4
f 2/13/5 8/15/5 6/23/5
f 1/16/6 6/18/6 5/24/6
