# Blender v3.0.1 OBJ File: 'Main.blend'
# www.blender.org
o Cube.5329_0111
v -1.887002 0.369000 -2.892000
v -1.869002 0.369000 -2.892000
v -1.887002 0.369000 -2.943000
v -1.869002 0.369000 -2.943000
v -1.896002 0.369000 -3.006000
v -1.869002 0.369000 -3.006000
v -1.896002 0.369000 -2.943000
v -1.887002 0.459000 -2.892000
v -1.869002 0.459000 -2.892000
v -1.887002 0.459000 -2.943000
v -1.869002 0.459000 -2.943000
v -1.896002 0.459000 -3.006000
v -1.869002 0.459000 -3.006000
v -1.896002 0.459000 -2.943000
vt 0.843202 0.936539
vt 0.843202 0.935614
vt 0.842878 0.935614
vt 0.843202 0.937677
vt 0.842878 0.936539
vt 0.842715 0.937677
vt 0.842715 0.936539
vt 0.017868 0.935644
vt 0.017544 0.935644
vt 0.017544 0.936569
vt 0.017868 0.936569
vt 0.017544 0.937707
vt 0.018030 0.937707
vt 0.018030 0.936569
vt 0.026205 0.944613
vt 0.026530 0.944613
vt 0.026530 0.942989
vt 0.312386 0.948571
vt 0.312548 0.948571
vt 0.312548 0.946947
vt 0.771933 0.202991
vt 0.771933 0.203915
vt 0.773556 0.203915
vt 0.925609 0.022694
vt 0.926747 0.022694
vt 0.926747 0.021070
vt 0.771933 0.205053
vt 0.773556 0.205053
vt 0.573538 0.943216
vt 0.574025 0.943216
vt 0.574025 0.941592
vt 0.808453 0.936382
vt 0.809377 0.936382
vt 0.809377 0.934758
vt 0.026205 0.942989
vt 0.312386 0.946947
vt 0.773556 0.202991
vt 0.925609 0.021070
vt 0.573538 0.941592
vt 0.808453 0.934758
vn 0.0000 -1.0000 0.0000
vn 0.0000 1.0000 0.0000
vn 0.0000 0.0000 1.0000
vn 1.0000 0.0000 0.0000
vn -1.0000 0.0000 0.0000
vn 0.0000 0.0000 -1.0000
s off
f 4/1/1 2/2/1 1/3/1
f 6/4/1 4/1/1 3/5/1
f 5/6/1 3/5/1 7/7/1
f 8/8/2 9/9/2 11/10/2
f 10/11/2 11/10/2 13/12/2
f 12/13/2 14/14/2 10/11/2
f 1/15/3 2/16/3 9/17/3
f 7/18/3 3/19/3 10/20/3
f 2/21/4 4/22/4 11/23/4
f 5/24/5 7/25/5 14/26/5
f 4/22/4 6/27/4 13/28/4
f 6/29/6 5/30/6 12/31/6
f 3/32/5 1/33/5 8/34/5
f 4/1/1 1/3/1 3/5/1
f 6/4/1 3/5/1 5/6/1
f 8/8/2 11/10/2 10/11/2
f 10/11/2 13/12/2 12/13/2
f 1/15/3 9/17/3 8/35/3
f 7/18/3 10/20/3 14/36/3
f 2/21/4 11/23/4 9/37/4
f 5/24/5 14/26/5 12/38/5
f 4/22/4 13/28/4 11/23/4
f 6/29/6 12/31/6 13/39/6
f 3/32/5 8/34/5 10/40/5
