# Blender v3.0.1 OBJ File: 'Main.blend'
# www.blender.org
o Cube.5001_0224
v -0.805500 0.000000 -2.963999
v -0.805500 0.477000 -2.963999
v -0.805500 0.000000 -2.951999
v -0.805500 0.477000 -2.951999
v -0.600001 0.000000 -2.951999
v -0.600001 0.477000 -2.951999
v -0.600001 0.477000 -2.963999
v -0.600001 0.000000 -2.963999
v -0.643500 0.060000 -2.951999
v -0.643500 0.237000 -2.951999
v -0.648068 0.259961 -2.951999
v -0.644653 0.248705 -2.951999
v -0.661074 0.279426 -2.951999
v -0.680539 0.292433 -2.951999
v -0.670166 0.286888 -2.951999
v -0.691795 0.295847 -2.963999
v -0.691795 0.295847 -2.951999
v -0.653612 0.270334 -2.951999
v -0.703500 0.297000 -2.951999
v -0.715206 0.295847 -2.951999
v -0.726461 0.292433 -2.951999
v -0.745927 0.279426 -2.951999
v -0.758933 0.259961 -2.951999
v -0.753389 0.270334 -2.951999
v -0.763500 0.237000 -2.951999
v -0.763500 0.060000 -2.951999
v -0.762347 0.248705 -2.951999
v -0.736834 0.286888 -2.951999
v -0.680539 0.292433 -2.963999
v -0.643500 0.060000 -2.963999
v -0.670166 0.286888 -2.963999
v -0.661074 0.279426 -2.963999
v -0.653612 0.270334 -2.963999
v -0.643500 0.237000 -2.963999
v -0.648068 0.259961 -2.963999
v -0.644653 0.248705 -2.963999
v -0.715206 0.295847 -2.963999
v -0.745927 0.279426 -2.963999
v -0.736834 0.286888 -2.963999
v -0.726461 0.292433 -2.963999
v -0.758933 0.259961 -2.963999
v -0.763500 0.237000 -2.963999
v -0.763500 0.060000 -2.963999
v -0.762347 0.248705 -2.963999
v -0.753389 0.270334 -2.963999
v -0.703500 0.297000 -2.963999
vt 0.475708 0.901618
vt 0.475925 0.893144
vt 0.475925 0.901618
vt 0.786125 0.859888
vt 0.784491 0.863157
vt 0.784285 0.863136
vt 0.021854 0.922665
vt 0.021637 0.925136
vt 0.021637 0.922665
vt 0.736255 0.923961
vt 0.736472 0.920816
vt 0.736472 0.923961
vt 0.537587 0.941127
vt 0.537804 0.938958
vt 0.537804 0.941127
vt 0.021637 0.921023
vt 0.021854 0.921141
vt 0.021637 0.921141
vt 0.736472 0.919619
vt 0.736255 0.919714
vt 0.736255 0.919619
vt 0.736472 0.919846
vt 0.736255 0.919846
vt 0.736472 0.920006
vt 0.736255 0.920006
vt 0.736472 0.920191
vt 0.736255 0.920191
vt 0.736472 0.920394
vt 0.736255 0.920394
vt 0.736472 0.920604
vt 0.736255 0.920604
vt 0.736255 0.920816
vt 0.021854 0.921290
vt 0.021854 0.921470
vt 0.021637 0.921290
vt 0.021854 0.921664
vt 0.021637 0.921470
vt 0.021854 0.921871
vt 0.021637 0.921664
vt 0.021637 0.922085
vt 0.021637 0.921871
vt 0.021854 0.922085
vt 0.021637 0.922291
vt 0.021854 0.922291
vt 0.021637 0.922489
vt 0.021854 0.922489
vt 0.783200 0.867413
vt 0.786125 0.868495
vt 0.782413 0.868495
vt 0.092151 0.867598
vt 0.089226 0.868681
vt 0.089982 0.867598
vt 0.898516 0.507404
vt 0.898732 0.505052
vt 0.898732 0.507404
vt 0.092938 0.860074
vt 0.091280 0.863343
vt 0.091066 0.863322
vt 0.930100 0.159311
vt 0.929883 0.155599
vt 0.930100 0.155599
vt 0.898516 0.514060
vt 0.475708 0.893144
vt 0.783200 0.864219
vt 0.782413 0.859888
vt 0.785369 0.864219
vt 0.785369 0.867413
vt 0.783223 0.864008
vt 0.785346 0.864008
vt 0.785285 0.863805
vt 0.783284 0.863805
vt 0.783383 0.863617
vt 0.785186 0.863617
vt 0.785048 0.863453
vt 0.783521 0.863453
vt 0.783681 0.863319
vt 0.783872 0.863219
vt 0.784888 0.863319
vt 0.784697 0.863219
vt 0.784071 0.863157
vt 0.021854 0.925136
vt 0.537587 0.938958
vt 0.021854 0.921023
vt 0.736472 0.919714
vt 0.092938 0.868681
vt 0.898516 0.505052
vt 0.089982 0.864405
vt 0.092151 0.864405
vt 0.089226 0.860074
vt 0.090005 0.864193
vt 0.092128 0.864193
vt 0.092067 0.863990
vt 0.090066 0.863990
vt 0.090165 0.863803
vt 0.091968 0.863803
vt 0.091830 0.863639
vt 0.090303 0.863639
vt 0.090471 0.863504
vt 0.090654 0.863404
vt 0.091670 0.863504
vt 0.091486 0.863404
vt 0.090860 0.863343
vt 0.929883 0.159311
vt 0.898732 0.514060
vn -1.0000 0.0000 0.0000
vn -0.0000 -0.0000 1.0000
vn 1.0000 0.0000 0.0000
vn 0.0000 1.0000 0.0000
vn -0.0980 -0.9952 0.0000
vn -0.2903 -0.9569 0.0000
vn -0.4714 -0.8819 0.0000
vn -0.6344 -0.7730 0.0000
vn -0.7730 -0.6344 0.0000
vn -0.8819 -0.4714 0.0000
vn -0.9569 -0.2903 0.0000
vn -0.9952 -0.0980 0.0000
vn 0.0980 -0.9952 0.0000
vn 0.2903 -0.9569 0.0000
vn 0.4714 -0.8819 0.0000
vn 0.6344 -0.7730 0.0000
vn 0.7730 -0.6344 0.0000
vn 0.8819 -0.4714 0.0000
vn 0.9569 -0.2903 0.0000
vn 0.9952 -0.0980 0.0000
vn 0.0000 0.0000 -1.0000
vn 0.0000 -1.0000 0.0000
vn 0.0001 0.0000 1.0000
vn 0.0002 0.0000 -1.0000
vn -0.0001 0.0000 -1.0000
s off
f 3/1/1 2/2/1 1/3/1
f 4/4/2 20/5/2 19/6/2
f 25/7/3 43/8/3 42/9/3
f 9/10/1 34/11/1 30/12/1
f 26/13/4 30/14/4 43/15/4
f 16/16/5 19/17/5 46/18/5
f 16/19/6 14/20/6 17/21/6
f 14/20/7 31/22/7 15/23/7
f 15/23/8 32/24/8 13/25/8
f 13/25/9 33/26/9 18/27/9
f 18/27/10 35/28/10 11/29/10
f 11/29/11 36/30/11 12/31/11
f 12/31/12 34/11/12 10/32/12
f 20/33/13 46/18/13 19/17/13
f 21/34/14 37/35/14 20/33/14
f 28/36/15 40/37/15 21/34/15
f 22/38/16 39/39/16 28/36/16
f 22/38/17 45/40/17 38/41/17
f 24/42/18 41/43/18 45/40/18
f 23/44/19 44/45/19 41/43/19
f 27/46/20 42/9/20 44/45/20
f 9/47/2 3/48/2 5/49/2
f 30/50/21 1/51/21 43/52/21
f 5/53/22 1/54/22 8/55/22
f 7/56/21 16/57/21 46/58/21
f 6/59/4 2/60/4 4/61/4
f 8/55/3 6/62/3 5/53/3
f 3/1/1 4/63/1 2/2/1
f 9/47/2 5/49/2 10/64/2
f 5/49/2 6/65/2 10/64/2
f 4/4/2 3/48/2 25/66/2
f 3/48/2 26/67/2 25/66/2
f 12/68/2 10/64/2 6/65/2
f 4/4/2 25/66/2 27/69/2
f 4/4/2 27/69/2 23/70/2
f 11/71/2 12/68/2 6/65/2
f 18/72/2 11/71/2 6/65/2
f 4/4/2 23/70/2 24/73/2
f 4/4/2 24/73/2 22/74/2
f 18/72/2 6/65/2 13/75/2
f 6/65/2 4/4/2 19/6/2
f 13/75/23 6/65/23 15/76/23
f 15/76/2 6/65/2 14/77/2
f 4/4/2 22/74/2 28/78/2
f 4/4/2 28/78/2 21/79/2
f 14/77/2 6/65/2 17/80/2
f 17/80/2 6/65/2 19/6/2
f 4/4/2 21/79/2 20/5/2
f 25/7/3 26/81/3 43/8/3
f 9/10/1 10/32/1 34/11/1
f 26/13/4 9/82/4 30/14/4
f 16/16/5 17/83/5 19/17/5
f 16/19/6 29/84/6 14/20/6
f 14/20/7 29/84/7 31/22/7
f 15/23/8 31/22/8 32/24/8
f 13/25/9 32/24/9 33/26/9
f 18/27/10 33/26/10 35/28/10
f 11/29/11 35/28/11 36/30/11
f 12/31/12 36/30/12 34/11/12
f 20/33/13 37/35/13 46/18/13
f 21/34/14 40/37/14 37/35/14
f 28/36/15 39/39/15 40/37/15
f 22/38/16 38/41/16 39/39/16
f 22/38/17 24/42/17 45/40/17
f 24/42/18 23/44/18 41/43/18
f 23/44/19 27/46/19 44/45/19
f 27/46/20 25/7/20 42/9/20
f 9/47/2 26/67/2 3/48/2
f 30/50/21 8/85/21 1/51/21
f 5/53/22 3/86/22 1/54/22
f 42/87/21 43/52/21 1/51/21
f 7/56/21 8/85/21 34/88/21
f 8/85/21 30/50/21 34/88/21
f 42/87/21 1/51/21 2/89/21
f 44/90/24 42/87/24 2/89/24
f 7/56/25 34/88/25 36/91/25
f 7/56/21 36/91/21 35/92/21
f 41/93/21 44/90/21 2/89/21
f 45/94/21 41/93/21 2/89/21
f 7/56/21 35/92/21 33/95/21
f 7/56/21 33/95/21 32/96/21
f 45/94/21 2/89/21 38/97/21
f 2/89/21 7/56/21 46/58/21
f 38/97/21 2/89/21 39/98/21
f 39/98/25 2/89/25 40/99/25
f 7/56/21 32/96/21 31/100/21
f 7/56/21 31/100/21 29/101/21
f 40/99/21 2/89/21 37/102/21
f 37/102/25 2/89/25 46/58/25
f 7/56/21 29/101/21 16/57/21
f 6/59/4 7/103/4 2/60/4
f 8/55/3 7/104/3 6/62/3
