# Blender v3.0.1 OBJ File: 'Main.blend'
# www.blender.org
o Cube.4501_0115
v -0.315500 0.060000 -1.063500
v -0.315500 0.237000 -1.063500
v -0.315500 0.060000 -1.069500
v -0.315500 0.237000 -1.069500
v -0.272500 0.060000 -1.063500
v -0.272500 0.060000 -1.069500
v -0.314767 0.242565 -1.063500
v -0.314767 0.242565 -1.069500
v -0.312620 0.247750 -1.063500
v -0.312620 0.247750 -1.069500
v -0.309203 0.252203 -1.063500
v -0.309203 0.252203 -1.069500
v -0.304750 0.255620 -1.063500
v -0.304750 0.255620 -1.069500
v -0.299565 0.257767 -1.063500
v -0.299565 0.257767 -1.069500
v -0.294000 0.258500 -1.063500
v -0.294000 0.258500 -1.069500
v -0.288435 0.257767 -1.063500
v -0.288435 0.257767 -1.069500
v -0.283250 0.255620 -1.063500
v -0.283250 0.255620 -1.069500
v -0.278797 0.252203 -1.063500
v -0.278797 0.252203 -1.069500
v -0.275380 0.247750 -1.063500
v -0.275380 0.247750 -1.069500
v -0.273232 0.242565 -1.063500
v -0.273232 0.242565 -1.069500
v -0.272500 0.237000 -1.063500
v -0.272500 0.237000 -1.069500
v -0.318500 0.060000 -1.069500
v -0.318500 0.060000 -1.063500
v -0.318500 0.237197 -1.063500
v -0.318500 0.237197 -1.069500
v -0.269500 0.060000 -1.063500
v -0.269500 0.060000 -1.069500
v -0.317690 0.243348 -1.063500
v -0.317690 0.243348 -1.069500
v -0.315240 0.249263 -1.063500
v -0.315240 0.249263 -1.069500
v -0.311342 0.254342 -1.063500
v -0.311342 0.254342 -1.069500
v -0.306263 0.258240 -1.063500
v -0.306263 0.258240 -1.069500
v -0.300348 0.260690 -1.063500
v -0.300348 0.260690 -1.069500
v -0.294000 0.261526 -1.063500
v -0.294000 0.261526 -1.069500
v -0.287652 0.260690 -1.063500
v -0.287652 0.260690 -1.069500
v -0.281737 0.258240 -1.063500
v -0.281737 0.258240 -1.069500
v -0.276657 0.254342 -1.063500
v -0.276657 0.254342 -1.069500
v -0.272760 0.249263 -1.063500
v -0.272760 0.249263 -1.069500
v -0.270310 0.243348 -1.063500
v -0.270310 0.243348 -1.069500
v -0.269500 0.237197 -1.063500
v -0.269500 0.237197 -1.069500
vt 0.932781 0.484867
vt 0.932889 0.481673
vt 0.932889 0.484867
vt 0.932781 0.481572
vt 0.932781 0.481673
vt 0.817081 0.932681
vt 0.817189 0.929487
vt 0.817189 0.932681
vt 0.932781 0.481478
vt 0.932889 0.481572
vt 0.932781 0.481398
vt 0.932889 0.481478
vt 0.928495 0.468488
vt 0.928603 0.468568
vt 0.928495 0.468568
vt 0.928495 0.468394
vt 0.928603 0.468488
vt 0.928495 0.468294
vt 0.928603 0.468394
vt 0.928495 0.468100
vt 0.928603 0.468193
vt 0.928495 0.468193
vt 0.928603 0.468294
vt 0.928495 0.468020
vt 0.928603 0.468100
vt 0.817189 0.929293
vt 0.817081 0.929213
vt 0.817189 0.929213
vt 0.817189 0.929387
vt 0.817081 0.929293
vt 0.817081 0.929387
vt 0.482260 0.929479
vt 0.482368 0.932677
vt 0.482260 0.932677
vt 0.482368 0.929369
vt 0.482368 0.929479
vt 0.658309 0.929481
vt 0.658417 0.932679
vt 0.658309 0.932679
vt 0.482260 0.929369
vt 0.482368 0.929262
vt 0.482260 0.929262
vt 0.482368 0.929170
vt 0.076853 0.982834
vt 0.076961 0.982734
vt 0.076961 0.982834
vt 0.076853 0.982734
vt 0.076961 0.982623
vt 0.076853 0.982623
vt 0.076961 0.982507
vt 0.076853 0.982395
vt 0.076961 0.982295
vt 0.076961 0.982395
vt 0.076853 0.982507
vt 0.076853 0.982295
vt 0.076961 0.982213
vt 0.658417 0.929172
vt 0.658309 0.929263
vt 0.658309 0.929172
vt 0.658417 0.929263
vt 0.658309 0.929370
vt 0.658417 0.929370
vt 0.091303 0.915878
vt 0.091280 0.915759
vt 0.091350 0.915851
vt 0.919193 0.695529
vt 0.919260 0.695626
vt 0.919206 0.695630
vt 0.918482 0.695436
vt 0.918505 0.695317
vt 0.918543 0.695356
vt 0.090592 0.915972
vt 0.090525 0.916069
vt 0.090540 0.915958
vt 0.994932 0.630150
vt 0.994986 0.630259
vt 0.994932 0.630259
vt 0.090773 0.915737
vt 0.090853 0.915645
vt 0.090867 0.915698
vt 0.919260 0.698824
vt 0.919206 0.698824
vt 0.091355 0.916073
vt 0.091410 0.919267
vt 0.091355 0.919267
vt 0.919012 0.695294
vt 0.918932 0.695202
vt 0.919039 0.695247
vt 0.091161 0.915737
vt 0.091242 0.915798
vt 0.090580 0.916073
vt 0.090525 0.919267
vt 0.918624 0.695294
vt 0.918596 0.695247
vt 0.918430 0.695630
vt 0.918375 0.698824
vt 0.918375 0.695626
vt 0.090654 0.915759
vt 0.090746 0.915689
vt 0.995118 0.299350
vt 0.995064 0.299242
vt 0.995118 0.299242
vt 0.919131 0.695317
vt 0.919092 0.695356
vt 0.091068 0.915698
vt 0.091189 0.915689
vt 0.918717 0.695255
vt 0.918703 0.695202
vt 0.091342 0.915972
vt 0.091410 0.916069
vt 0.090632 0.915878
vt 0.090693 0.915798
vt 0.918443 0.695529
vt 0.918390 0.695515
vt 0.919154 0.695436
vt 0.919201 0.695409
vt 0.090968 0.915685
vt 0.091082 0.915645
vt 0.918817 0.695187
vt 0.918817 0.695242
vt 0.091395 0.915958
vt 0.090584 0.915851
vt 0.918435 0.695409
vt 0.919245 0.695515
vt 0.090968 0.915630
vt 0.918918 0.695255
vt 0.817081 0.929487
vt 0.932889 0.481398
vt 0.928603 0.468020
vt 0.658417 0.929481
vt 0.482260 0.929170
vt 0.076853 0.982213
vt 0.994986 0.630150
vt 0.090580 0.919267
vt 0.918430 0.698824
vt 0.995064 0.299350
vn 1.0000 0.0000 0.0000
vn 0.9914 -0.1305 0.0000
vn -1.0000 0.0000 0.0000
vn 0.9239 -0.3827 0.0000
vn 0.7934 -0.6088 0.0000
vn 0.6088 -0.7934 0.0000
vn 0.3827 -0.9239 0.0000
vn 0.1305 -0.9914 0.0000
vn -0.3827 -0.9239 0.0000
vn -0.1305 -0.9914 0.0000
vn -0.6088 -0.7934 0.0000
vn -0.7933 -0.6088 0.0000
vn -0.9239 -0.3827 0.0000
vn -0.9914 -0.1305 0.0000
vn -0.9914 0.1305 0.0000
vn -0.9239 0.3827 0.0000
vn -0.7934 0.6088 0.0000
vn -0.6088 0.7933 0.0000
vn -0.3827 0.9239 0.0000
vn -0.1305 0.9914 0.0000
vn 0.3827 0.9239 0.0000
vn 0.1305 0.9914 0.0000
vn 0.6088 0.7934 0.0000
vn 0.7934 0.6088 0.0000
vn 0.9239 0.3827 0.0000
vn 0.9914 0.1305 0.0000
vn 0.0000 0.0000 1.0000
vn 0.0000 0.0000 -1.0000
vn 0.0001 0.0000 1.0000
vn 0.0000 -1.0000 0.0000
vn -0.6088 -0.7933 0.0000
vn -0.7934 -0.6088 0.0000
vn -0.6088 0.7934 0.0000
vn 0.6088 0.7933 0.0000
vn -0.0001 0.0000 1.0000
s off
f 3/1/1 2/2/1 1/3/1
f 8/4/2 2/2/2 4/5/2
f 5/6/3 30/7/3 6/8/3
f 10/9/4 7/10/4 8/4/4
f 12/11/5 9/12/5 10/9/5
f 14/13/6 11/14/6 12/15/6
f 16/16/7 13/17/7 14/13/7
f 18/18/8 15/19/8 16/16/8
f 22/20/9 19/21/9 20/22/9
f 20/22/10 17/23/10 18/18/10
f 24/24/11 21/25/11 22/20/11
f 26/26/12 23/27/12 24/28/12
f 28/29/13 25/30/13 26/26/13
f 30/7/14 27/31/14 28/29/14
f 33/32/3 31/33/3 32/34/3
f 33/32/15 38/35/15 34/36/15
f 60/37/1 35/38/1 36/39/1
f 37/40/16 40/41/16 38/35/16
f 39/42/17 42/43/17 40/41/17
f 41/44/18 44/45/18 42/46/18
f 43/47/19 46/48/19 44/45/19
f 45/49/20 48/50/20 46/48/20
f 49/51/21 52/52/21 50/53/21
f 47/54/22 50/53/22 48/50/22
f 51/55/23 54/56/23 52/52/23
f 53/57/24 56/58/24 54/59/24
f 55/60/25 58/61/25 56/58/25
f 57/62/26 60/37/26 58/61/26
f 9/63/27 41/64/27 39/65/27
f 28/66/28 60/67/28 30/68/28
f 10/69/28 42/70/28 12/71/28
f 27/72/29 59/73/29 57/74/29
f 1/75/30 31/76/30 3/77/30
f 21/78/27 49/79/27 19/80/27
f 30/68/28 36/81/28 6/82/28
f 2/83/27 32/84/27 1/85/27
f 22/86/28 50/87/28 52/88/28
f 13/89/27 41/64/27 11/90/27
f 29/91/27 35/92/27 59/73/27
f 14/93/28 42/70/28 44/94/28
f 4/95/28 31/96/28 34/97/28
f 21/78/27 53/98/27 51/99/27
f 6/100/30 35/101/30 5/102/30
f 22/86/28 54/103/28 24/104/28
f 15/105/27 43/106/27 13/89/27
f 16/107/28 44/94/28 46/108/28
f 7/109/27 33/110/27 2/83/27
f 25/111/27 53/98/27 23/112/27
f 8/113/28 34/97/28 38/114/28
f 26/115/28 54/103/28 56/116/28
f 17/117/27 45/118/27 15/105/27
f 16/107/28 48/119/28 18/120/28
f 9/63/27 37/121/27 7/109/27
f 25/111/27 57/74/27 55/122/27
f 10/69/28 38/114/28 40/123/28
f 26/115/28 58/124/28 28/66/28
f 17/117/27 49/79/27 47/125/27
f 18/120/28 50/87/28 20/126/28
f 3/1/1 4/5/1 2/2/1
f 8/4/2 7/10/2 2/2/2
f 5/6/3 29/127/3 30/7/3
f 10/9/4 9/12/4 7/10/4
f 12/11/5 11/128/5 9/12/5
f 14/13/6 13/17/6 11/14/6
f 16/16/7 15/19/7 13/17/7
f 18/18/8 17/23/8 15/19/8
f 22/20/9 21/25/9 19/21/9
f 20/22/10 19/21/10 17/23/10
f 24/24/31 23/129/31 21/25/31
f 26/26/32 25/30/32 23/27/32
f 28/29/13 27/31/13 25/30/13
f 30/7/14 29/127/14 27/31/14
f 33/32/3 34/36/3 31/33/3
f 33/32/15 37/40/15 38/35/15
f 60/37/1 59/130/1 35/38/1
f 37/40/16 39/42/16 40/41/16
f 39/42/17 41/131/17 42/43/17
f 41/44/33 43/47/33 44/45/33
f 43/47/19 45/49/19 46/48/19
f 45/49/20 47/54/20 48/50/20
f 49/51/21 51/55/21 52/52/21
f 47/54/22 49/51/22 50/53/22
f 51/55/34 53/132/34 54/56/34
f 53/57/24 55/60/24 56/58/24
f 55/60/25 57/62/25 58/61/25
f 57/62/26 59/130/26 60/37/26
f 9/63/29 11/90/29 41/64/29
f 28/66/28 58/124/28 60/67/28
f 10/69/28 40/123/28 42/70/28
f 27/72/27 29/91/27 59/73/27
f 1/75/30 32/133/30 31/76/30
f 21/78/27 51/99/27 49/79/27
f 30/68/28 60/67/28 36/81/28
f 2/83/27 33/110/27 32/84/27
f 22/86/28 20/126/28 50/87/28
f 13/89/27 43/106/27 41/64/27
f 29/91/27 5/134/27 35/92/27
f 14/93/28 12/71/28 42/70/28
f 4/95/28 3/135/28 31/96/28
f 21/78/27 23/112/27 53/98/27
f 6/100/30 36/136/30 35/101/30
f 22/86/28 52/88/28 54/103/28
f 15/105/27 45/118/27 43/106/27
f 16/107/28 14/93/28 44/94/28
f 7/109/35 37/121/35 33/110/35
f 25/111/27 55/122/27 53/98/27
f 8/113/28 4/95/28 34/97/28
f 26/115/28 24/104/28 54/103/28
f 17/117/27 47/125/27 45/118/27
f 16/107/28 46/108/28 48/119/28
f 9/63/27 39/65/27 37/121/27
f 25/111/27 27/72/27 57/74/27
f 10/69/28 8/113/28 38/114/28
f 26/115/28 56/116/28 58/124/28
f 17/117/27 19/80/27 49/79/27
f 18/120/28 48/119/28 50/87/28
