# Blender v3.0.1 OBJ File: 'Main.blend'
# www.blender.org
o Cube.5302_0213
v 0.465000 0.369000 -3.411000
v 0.465000 0.369000 -3.402000
v 0.477000 0.369000 -3.402000
v 0.477000 0.369000 -3.384000
v 0.234000 0.369000 -3.411000
v 0.234000 0.369000 -3.483000
v 0.003000 0.369000 -3.483000
v 0.003000 0.369000 -3.384000
v 0.465000 0.459000 -3.411000
v 0.465000 0.459000 -3.402000
v 0.477000 0.459000 -3.402000
v 0.477000 0.459000 -3.384000
v 0.234000 0.459000 -3.411000
v 0.234000 0.459000 -3.483000
v 0.003000 0.459000 -3.483000
v 0.003000 0.459000 -3.384000
vt 0.100719 0.831675
vt 0.100232 0.835845
vt 0.102017 0.835845
vt 0.945713 0.324985
vt 0.945934 0.324985
vt 0.945934 0.323361
vt 0.858288 0.304790
vt 0.858288 0.308961
vt 0.859911 0.308961
vt 0.090168 0.944446
vt 0.090493 0.944446
vt 0.090493 0.942823
vt 0.833673 0.516663
vt 0.833673 0.518450
vt 0.835296 0.518450
vt 0.863607 0.304790
vt 0.863607 0.308961
vt 0.865230 0.308961
vt 0.076295 0.878661
vt 0.076782 0.874277
vt 0.076295 0.870107
vt 0.446653 0.871843
vt 0.446653 0.880397
vt 0.448276 0.880397
vt 0.423083 0.948620
vt 0.423245 0.948620
vt 0.423245 0.946996
vt 0.890235 0.151806
vt 0.891533 0.151806
vt 0.891533 0.150182
vt 0.100556 0.827505
vt 0.100719 0.827505
vt 0.102017 0.831675
vt 0.100232 0.827291
vt 0.100556 0.827291
vt 0.945713 0.323361
vt 0.859911 0.304790
vt 0.090168 0.942823
vt 0.835296 0.516663
vt 0.865230 0.304790
vt 0.076620 0.878440
vt 0.076782 0.878440
vt 0.076620 0.878661
vt 0.078080 0.870107
vt 0.078080 0.874277
vt 0.448276 0.871843
vt 0.423083 0.946996
vt 0.890235 0.150182
vn 0.0000 -1.0000 0.0000
vn 0.0000 0.0000 -1.0000
vn 1.0000 0.0000 0.0000
vn -1.0000 0.0000 0.0000
vn 0.0000 1.0000 0.0000
vn 0.0000 0.0000 1.0000
s off
f 5/1/1 8/2/1 7/3/1
f 3/4/2 2/5/2 10/6/2
f 6/7/2 7/8/2 15/9/2
f 4/10/3 3/11/3 11/12/3
f 7/13/4 8/14/4 16/15/4
f 1/16/2 5/17/2 13/18/2
f 12/19/5 13/20/5 16/21/5
f 8/22/6 4/23/6 12/24/6
f 2/25/3 1/26/3 9/27/3
f 5/28/3 6/29/3 14/30/3
f 2/31/1 5/1/1 1/32/1
f 5/1/1 7/3/1 6/33/1
f 8/2/1 5/1/1 4/34/1
f 4/34/1 2/31/1 3/35/1
f 4/34/1 5/1/1 2/31/1
f 3/4/2 10/6/2 11/36/2
f 6/7/2 15/9/2 14/37/2
f 4/10/3 11/12/3 12/38/3
f 7/13/4 16/15/4 15/39/4
f 1/16/2 13/18/2 9/40/2
f 13/20/5 10/41/5 9/42/5
f 10/41/5 12/19/5 11/43/5
f 16/21/5 13/20/5 15/44/5
f 15/44/5 13/20/5 14/45/5
f 13/20/5 12/19/5 10/41/5
f 8/22/6 12/24/6 16/46/6
f 2/25/3 9/27/3 10/47/3
f 5/28/3 14/30/3 13/48/3
