# Blender v3.0.1 OBJ File: 'Main.blend'
# www.blender.org
o Cube.2657_0186
v -1.194000 -0.231000 0.204000
v -1.194000 -0.210000 0.204000
v -1.200000 -0.231000 0.204000
v -1.200000 -0.210000 0.204000
v -1.194000 -0.231000 0.324000
v -1.194000 -0.210000 0.324000
v -1.200000 -0.231000 0.324000
v -1.200000 -0.210000 0.324000
vt 0.086562 0.984678
vt 0.086451 0.984299
vt 0.086562 0.984299
vt 0.984930 0.606026
vt 0.984819 0.606405
vt 0.984819 0.606026
vt 0.937619 0.444663
vt 0.937998 0.446829
vt 0.937619 0.446829
vt 0.943042 0.368591
vt 0.943153 0.370757
vt 0.943042 0.370757
vt 0.357310 0.938008
vt 0.356931 0.935842
vt 0.357310 0.935842
vt 0.943049 0.461367
vt 0.943160 0.463532
vt 0.943049 0.463532
vt 0.086451 0.984678
vt 0.984930 0.606405
vt 0.937998 0.444663
vt 0.943153 0.368591
vt 0.356931 0.938008
vt 0.943160 0.461367
vn 0.0000 0.0000 -1.0000
vn 0.0000 0.0000 1.0000
vn -1.0000 0.0000 0.0000
vn 0.0000 -1.0000 0.0000
vn 1.0000 0.0000 0.0000
vn 0.0000 1.0000 0.0000
s off
f 1/1/1 4/2/1 2/3/1
f 8/4/2 5/5/2 6/6/2
f 7/7/3 4/8/3 3/9/3
f 5/10/4 3/11/4 1/12/4
f 6/13/5 1/14/5 2/15/5
f 8/16/6 2/17/6 4/18/6
f 1/1/1 3/19/1 4/2/1
f 8/4/2 7/20/2 5/5/2
f 7/7/3 8/21/3 4/8/3
f 5/10/4 7/22/4 3/11/4
f 6/13/5 5/23/5 1/14/5
f 8/16/6 6/24/6 2/17/6
