# Blender v3.0.1 OBJ File: 'Main.blend'
# www.blender.org
o Cube.4226_0173
v -1.194000 0.213000 -1.065000
v -1.194000 0.207000 -1.065000
v -1.431000 0.213000 -1.065000
v -1.431000 0.213000 -0.372000
v -1.431000 0.207000 -1.065000
v -1.431000 0.207000 -0.372000
v -1.251000 0.213000 -0.372000
v -1.194000 0.213000 -0.516000
v -1.251000 0.213000 -0.516000
v -1.194000 0.207000 -0.516000
v -1.251000 0.207000 -0.372000
v -1.251000 0.207000 -0.516000
vt 0.933900 0.175173
vt 0.933792 0.178421
vt 0.933792 0.175173
vt 0.486820 0.886009
vt 0.486712 0.873502
vt 0.486820 0.873502
vt 0.817081 0.925516
vt 0.817189 0.921239
vt 0.817189 0.925516
vt 0.895349 0.817369
vt 0.895457 0.807463
vt 0.895457 0.817369
vt 0.092472 0.853779
vt 0.089226 0.856377
vt 0.089226 0.843872
vt 0.972439 0.348724
vt 0.972331 0.349753
vt 0.972331 0.348724
vt 0.938370 0.045881
vt 0.938262 0.048479
vt 0.938262 0.045881
vt 0.786690 0.843687
vt 0.786690 0.856191
vt 0.783442 0.853593
vt 0.933900 0.178421
vt 0.486712 0.886009
vt 0.817081 0.921239
vt 0.895349 0.807463
vt 0.093503 0.843872
vt 0.093503 0.853779
vt 0.092472 0.856377
vt 0.972439 0.349753
vt 0.938370 0.048479
vt 0.783442 0.856191
vt 0.782413 0.853593
vt 0.782413 0.843687
vn 0.0000 0.0000 1.0000
vn -1.0000 0.0000 0.0000
vn 0.0000 0.0000 -1.0000
vn 1.0000 0.0000 0.0000
vn 0.0000 -1.0000 0.0000
vn 0.0000 1.0000 0.0000
s off
f 7/1/1 6/2/1 11/3/1
f 3/4/2 6/5/2 4/6/2
f 2/7/3 3/8/3 1/9/3
f 10/10/4 1/11/4 8/12/4
f 12/13/5 6/14/5 5/15/5
f 8/16/1 12/17/1 10/18/1
f 9/19/4 11/20/4 12/21/4
f 3/22/6 4/23/6 9/24/6
f 7/1/1 4/25/1 6/2/1
f 3/4/2 5/26/2 6/5/2
f 2/7/3 5/27/3 3/8/3
f 10/10/4 2/28/4 1/11/4
f 5/15/5 2/29/5 12/13/5
f 2/29/5 10/30/5 12/13/5
f 12/13/5 11/31/5 6/14/5
f 8/16/1 9/32/1 12/17/1
f 9/19/4 7/33/4 11/20/4
f 4/23/6 7/34/6 9/24/6
f 9/24/6 8/35/6 1/36/6
f 1/36/6 3/22/6 9/24/6
