# Blender v3.0.1 OBJ File: 'Main.blend'
# www.blender.org
o Cube.5554_0227
v 1.446000 1.206000 0.345000
v 0.376500 1.206000 -0.510000
v 1.446000 1.395000 -0.021000
v 0.010500 1.395000 -0.510000
v -0.364500 1.206000 -0.510000
v -1.431000 1.206000 -0.396000
v 0.376500 1.206000 0.459000
v 1.446000 1.206000 -0.396000
v -1.431000 1.206000 0.345000
v 0.010500 1.395000 0.459000
v -1.431000 1.395000 -0.021000
v -0.364500 1.206000 0.459000
v -0.436500 1.206000 -0.510000
v -0.802500 1.395000 -0.510000
v -1.177500 1.206000 -0.510000
v -0.436500 1.206000 0.459000
v -0.802500 1.395000 0.459000
v -1.177500 1.206000 0.459000
v 1.177500 1.206000 -0.510000
v 0.811500 1.395000 -0.510000
v 0.436500 1.206000 -0.510000
v 1.177500 1.206000 0.459000
v 0.811500 1.395000 0.459000
v 0.436500 1.206000 0.459000
v -1.177500 1.206000 0.345000
v -0.436500 1.206000 0.345000
v -0.364500 1.206000 0.345000
v 0.376500 1.206000 0.345000
v 0.436500 1.206000 0.345000
v 1.177500 1.206000 0.345000
v -0.802500 1.395000 -0.021000
v 0.010500 1.395000 -0.021000
v 0.811500 1.395000 -0.021000
v -1.177500 1.206000 -0.396000
v -0.436500 1.206000 -0.396000
v -0.364500 1.206000 -0.396000
v 0.436500 1.206000 -0.396000
v 0.376500 1.206000 -0.396000
v 1.177500 1.206000 -0.396000
vt 0.589739 0.715338
vt 0.589739 0.701964
vt 0.582718 0.708731
vt 0.200476 0.702102
vt 0.196029 0.695499
vt 0.196029 0.708868
vt 0.744785 0.851893
vt 0.748196 0.858660
vt 0.748196 0.845289
vt 0.699193 0.852072
vt 0.702604 0.858676
vt 0.702604 0.845305
vt 0.576501 0.715338
vt 0.576501 0.701964
vt 0.706301 0.852072
vt 0.709711 0.858676
vt 0.709711 0.845305
vt 0.208173 0.702102
vt 0.209737 0.708868
vt 0.209737 0.695499
vt 0.591774 0.687510
vt 0.589739 0.687510
vt 0.589739 0.700884
vt 0.574464 0.687510
vt 0.574464 0.700884
vt 0.576501 0.700884
vt 0.207909 0.708868
vt 0.192636 0.702102
vt 0.490517 0.851819
vt 0.493927 0.858425
vt 0.493927 0.845052
vt 0.208173 0.716773
vt 0.209737 0.723540
vt 0.209737 0.710167
vt 0.591774 0.672843
vt 0.589739 0.672843
vt 0.589739 0.686212
vt 0.574464 0.672843
vt 0.574464 0.686212
vt 0.576501 0.686212
vt 0.200476 0.716773
vt 0.207909 0.723540
vt 0.192636 0.716773
vt 0.196029 0.710167
vt 0.342623 0.851980
vt 0.346034 0.858584
vt 0.346034 0.845213
vt 0.208173 0.687648
vt 0.209737 0.694414
vt 0.209737 0.681045
vt 0.591774 0.701964
vt 0.574464 0.701964
vt 0.574464 0.715338
vt 0.200476 0.687648
vt 0.207909 0.694414
vt 0.192636 0.687648
vt 0.196029 0.681045
vt 0.582718 0.679609
vt 0.582718 0.694277
vt 0.196029 0.694414
vt 0.196029 0.723540
vt 0.207909 0.695499
vt 0.207909 0.681045
vt 0.207909 0.710167
vt 0.200476 0.728115
vt 0.207909 0.676199
vt 0.200476 0.676199
vt 0.196029 0.676199
vt 0.576501 0.668268
vt 0.589739 0.668268
vt 0.576501 0.687510
vt 0.576501 0.672843
vt 0.576501 0.720184
vt 0.589739 0.720184
vt 0.591774 0.700884
vt 0.194200 0.695499
vt 0.591774 0.686212
vt 0.194200 0.710167
vt 0.591774 0.715338
vt 0.194200 0.681045
vt 0.194200 0.708868
vt 0.194200 0.694414
vt 0.194200 0.723540
vt 0.207909 0.728115
vt 0.196029 0.728115
vn 0.0000 -0.8885 -0.4588
vn 0.0000 0.8930 -0.4501
vn -1.0000 -0.0000 0.0000
vn 1.0000 0.0000 0.0000
vn 0.0000 -1.0000 0.0000
vn 0.0000 0.0000 -1.0000
vn 0.0000 0.0000 1.0000
vn -0.4501 0.8930 0.0000
vn 0.4588 0.8885 0.0000
vn 0.0000 0.8885 0.4588
s off
f 30/1/1 29/2/1 33/3/1
f 32/4/2 38/5/2 36/6/2
f 11/7/3 6/8/3 9/9/3
f 3/10/4 1/11/4 8/12/4
f 39/13/5 30/1/5 37/14/5
f 4/15/6 2/16/6 5/17/6
f 10/18/7 12/19/7 7/20/7
f 12/21/5 27/22/5 28/23/5
f 5/24/5 2/25/5 38/26/5
f 10/18/8 32/4/8 27/27/8
f 4/28/9 32/4/9 38/5/9
f 14/29/6 13/30/6 15/31/6
f 17/32/7 18/33/7 16/34/7
f 18/35/5 25/36/5 26/37/5
f 15/38/5 13/39/5 35/40/5
f 17/32/8 31/41/8 25/42/8
f 14/43/9 31/41/9 35/44/9
f 20/45/6 19/46/6 21/47/6
f 23/48/7 24/49/7 22/50/7
f 24/51/5 29/2/5 30/1/5
f 21/52/5 19/53/5 39/13/5
f 23/48/8 33/54/8 29/55/8
f 20/56/9 33/54/9 39/57/9
f 31/58/1 26/37/1 25/36/1
f 32/59/1 28/23/1 27/22/1
f 36/6/8 32/4/8 4/28/8
f 33/54/2 39/57/2 37/60/2
f 35/44/2 34/61/2 31/41/2
f 28/62/9 32/4/9 10/18/9
f 37/60/8 33/54/8 20/56/8
f 30/63/9 33/54/9 23/48/9
f 34/61/8 31/41/8 14/43/8
f 26/64/9 31/41/9 17/32/9
f 27/27/10 32/4/10 31/41/10
f 31/41/2 32/4/2 36/6/2
f 25/42/10 31/41/10 11/65/10
f 11/65/2 31/41/2 34/61/2
f 32/4/2 33/54/2 37/60/2
f 29/55/10 33/54/10 32/4/10
f 30/63/10 1/66/10 3/67/10
f 3/67/2 8/68/2 39/57/2
f 6/69/5 25/36/5 9/70/5
f 26/37/5 35/40/5 27/22/5
f 27/22/5 36/71/5 28/23/5
f 26/37/5 34/72/5 35/40/5
f 6/69/5 34/72/5 25/36/5
f 25/36/5 34/72/5 26/37/5
f 36/71/5 27/22/5 35/40/5
f 28/23/5 38/26/5 29/2/5
f 29/2/5 37/14/5 30/1/5
f 28/23/5 36/71/5 38/26/5
f 37/14/5 29/2/5 38/26/5
f 30/1/5 8/73/5 1/74/5
f 8/73/5 30/1/5 39/13/5
f 12/21/5 28/23/5 7/75/5
f 5/24/5 38/26/5 36/71/5
f 10/18/8 27/27/8 12/19/8
f 4/28/9 38/5/9 2/76/9
f 18/35/5 26/37/5 16/77/5
f 15/38/5 35/40/5 34/72/5
f 17/32/8 25/42/8 18/33/8
f 14/43/9 35/44/9 13/78/9
f 24/51/5 30/1/5 22/79/5
f 21/52/5 39/13/5 37/14/5
f 23/48/8 29/55/8 24/49/8
f 20/56/9 39/57/9 19/80/9
f 36/6/8 4/28/8 5/81/8
f 28/62/9 10/18/9 7/20/9
f 37/60/8 20/56/8 21/82/8
f 30/63/9 23/48/9 22/50/9
f 34/61/8 14/43/8 15/83/8
f 26/64/9 17/32/9 16/34/9
f 27/27/10 31/41/10 26/64/10
f 31/41/2 36/6/2 35/44/2
f 25/42/10 11/65/10 9/84/10
f 11/65/2 34/61/2 6/85/2
f 32/4/2 37/60/2 38/5/2
f 29/55/10 32/4/10 28/62/10
f 30/63/10 3/67/10 33/54/10
f 3/67/2 39/57/2 33/54/2
