# Blender v3.0.1 OBJ File: 'Main.blend'
# www.blender.org
o Cube.5429_0206
v 1.409997 0.366000 1.032000
v 1.409997 0.000000 1.032000
v 1.447497 0.366000 1.032000
v 1.447497 0.000000 1.032000
v 1.447497 0.000000 1.299000
v 1.447497 0.366000 1.299000
v 1.409997 0.000000 1.299000
v 1.409997 0.366000 1.299000
v 1.447497 0.000000 1.314000
v 1.447497 0.366000 1.314000
v 1.409997 0.000000 1.314000
v 1.409997 0.366000 1.314000
v 1.409997 -0.123000 1.299000
v 1.447497 -0.123000 1.299000
v 1.409997 -0.123000 1.314000
v 1.447497 -0.123000 1.314000
vt 0.393135 0.906613
vt 0.392458 0.906613
vt 0.392458 0.911431
vt 0.108125 0.907609
vt 0.107448 0.907609
vt 0.107448 0.912427
vt 0.638990 0.848270
vt 0.638990 0.854874
vt 0.639260 0.854874
vt 0.634172 0.848270
vt 0.646018 0.903160
vt 0.646018 0.896556
vt 0.645341 0.896556
vt 0.622459 0.848269
vt 0.622459 0.854873
vt 0.627277 0.854873
vt 0.882315 0.883085
vt 0.881638 0.883085
vt 0.881638 0.889690
vt 0.882315 0.889690
vt 0.881638 0.891909
vt 0.393135 0.906343
vt 0.622188 0.848269
vt 0.972913 0.512767
vt 0.972913 0.513444
vt 0.973183 0.513444
vt 0.622188 0.854873
vt 0.622188 0.857093
vt 0.915516 0.678905
vt 0.914839 0.678905
vt 0.914839 0.681125
vt 0.638990 0.857094
vt 0.393135 0.911431
vt 0.108125 0.912427
vt 0.639260 0.848270
vt 0.634172 0.854874
vt 0.645341 0.903160
vt 0.627277 0.848269
vt 0.882315 0.891909
vt 0.392458 0.906343
vt 0.973183 0.512767
vt 0.622459 0.857093
vt 0.915516 0.681125
vt 0.639260 0.857094
vn 0.0000 1.0000 0.0000
vn 0.0000 -1.0000 0.0000
vn -1.0000 0.0000 0.0000
vn 0.0000 0.0000 -1.0000
vn 1.0000 0.0000 0.0000
vn 0.0000 0.0000 1.0000
s off
f 8/1/1 6/2/1 3/3/1
f 5/4/2 7/5/2 2/6/2
f 8/7/3 7/8/3 11/9/3
f 7/8/3 8/7/3 1/10/3
f 2/11/4 1/12/4 3/13/4
f 6/14/5 5/15/5 4/16/5
f 10/17/6 12/18/6 11/19/6
f 9/20/6 11/19/6 15/21/6
f 6/2/1 8/1/1 12/22/1
f 5/15/5 6/14/5 10/23/5
f 13/24/2 14/25/2 16/26/2
f 5/15/5 9/27/5 16/28/5
f 7/29/4 5/30/4 14/31/4
f 11/9/3 7/8/3 13/32/3
f 8/1/1 3/3/1 1/33/1
f 5/4/2 2/6/2 4/34/2
f 8/7/3 11/9/3 12/35/3
f 7/8/3 1/10/3 2/36/3
f 2/11/4 3/13/4 4/37/4
f 6/14/5 4/16/5 3/38/5
f 10/17/6 11/19/6 9/20/6
f 9/20/6 15/21/6 16/39/6
f 6/2/1 12/22/1 10/40/1
f 5/15/5 10/23/5 9/27/5
f 13/24/2 16/26/2 15/41/2
f 5/15/5 16/28/5 14/42/5
f 7/29/4 14/31/4 13/43/4
f 11/9/3 13/32/3 15/44/3
