# Blender v3.0.1 OBJ File: 'Main.blend'
# www.blender.org
o Cube.2658_0040
v -2.271000 -0.231000 0.324000
v -2.271000 -0.210000 0.324000
v -2.271000 -0.231000 0.330000
v -2.271000 -0.210000 0.330000
v -1.431000 -0.231000 0.324000
v -1.431000 -0.210000 0.324000
v -1.425000 -0.231000 0.330000
v -1.425000 -0.210000 0.330000
v -1.431000 -0.231000 -0.370500
v -1.431000 -0.210000 -0.370500
v -1.425000 -0.231000 -0.376500
v -1.425000 -0.210000 -0.376500
v -2.271000 -0.231000 -0.370500
v -2.271000 -0.210000 -0.370500
v -2.271000 -0.231000 -0.376500
v -2.271000 -0.210000 -0.376500
vt 0.985500 0.004487
vt 0.985392 0.004108
vt 0.985500 0.004108
vt 0.531968 0.796753
vt 0.519328 0.796643
vt 0.531860 0.796643
vt 0.685252 0.781344
vt 0.685360 0.796504
vt 0.685252 0.796504
vt 0.875057 0.386127
vt 0.874679 0.370966
vt 0.875057 0.370966
vt 0.531968 0.781486
vt 0.531860 0.781486
vt 0.874009 0.463900
vt 0.874387 0.479167
vt 0.874009 0.479167
vt 0.874013 0.781984
vt 0.874392 0.797251
vt 0.874013 0.797251
vt 0.882355 0.134856
vt 0.882734 0.147605
vt 0.882355 0.147605
vt 0.672720 0.781344
vt 0.685360 0.781237
vt 0.302439 0.883131
vt 0.302060 0.870600
vt 0.302439 0.870600
vt 0.302142 0.984613
vt 0.302033 0.984992
vt 0.302033 0.984613
vt 0.672612 0.796504
vt 0.672612 0.781237
vt 0.874815 0.520212
vt 0.874436 0.505052
vt 0.874815 0.505052
vt 0.519219 0.781486
vt 0.519219 0.796753
vt 0.985392 0.004487
vt 0.874679 0.386127
vt 0.874387 0.463900
vt 0.874392 0.781984
vt 0.882734 0.134856
vt 0.302060 0.883131
vt 0.302142 0.984992
vt 0.672720 0.796504
vt 0.874436 0.520212
vt 0.519328 0.781486
vn -1.0000 0.0000 0.0000
vn 0.0000 1.0000 0.0000
vn 0.0000 -1.0000 0.0000
vn 0.0000 0.0000 -1.0000
vn 0.0000 0.0000 1.0000
vn 1.0000 0.0000 0.0000
s off
f 1/1/1 4/2/1 2/3/1
f 8/4/2 10/5/2 6/6/2
f 5/7/3 3/8/3 1/9/3
f 6/10/4 1/11/4 2/12/4
f 4/13/2 6/6/2 2/14/2
f 7/15/5 4/16/5 3/17/5
f 15/18/4 12/19/4 11/20/4
f 11/21/6 8/22/6 7/23/6
f 9/24/3 7/25/3 5/7/3
f 10/26/1 5/27/1 6/28/1
f 16/29/1 13/30/1 14/31/1
f 9/24/3 15/32/3 11/33/3
f 14/34/5 9/35/5 10/36/5
f 16/37/2 10/5/2 12/38/2
f 1/1/1 3/39/1 4/2/1
f 8/4/2 12/38/2 10/5/2
f 5/7/3 7/25/3 3/8/3
f 6/10/4 5/40/4 1/11/4
f 4/13/2 8/4/2 6/6/2
f 7/15/5 8/41/5 4/16/5
f 15/18/4 16/42/4 12/19/4
f 11/21/6 12/43/6 8/22/6
f 9/24/3 11/33/3 7/25/3
f 10/26/1 9/44/1 5/27/1
f 16/29/1 15/45/1 13/30/1
f 9/24/3 13/46/3 15/32/3
f 14/34/5 13/47/5 9/35/5
f 16/37/2 14/48/2 10/5/2
