# Blender v3.0.1 OBJ File: 'Main.blend'
# www.blender.org
o Cube.5593_0154
v -0.744003 0.775500 0.462000
v -0.744003 1.094731 0.462000
v -0.790503 1.098812 0.462000
v -0.790503 1.098812 0.459002
v -0.744003 0.775500 0.459002
v -0.744003 1.094731 0.459002
v -0.837003 0.775500 0.462000
v -0.837003 0.775500 0.459002
v -0.837003 1.094731 0.459002
v -0.837003 1.094731 0.462000
vt 0.269375 0.549619
vt 0.750000 0.549630
vt 0.613355 0.125000
vt 0.391667 0.087508
vt 0.750000 0.549531
vt 0.769425 0.549530
vt 0.730576 0.549531
vt 0.730576 0.549630
vt 0.269375 0.549523
vt 0.230625 0.549523
vt 0.230625 0.549619
vt 0.613355 0.087508
vt 0.613355 0.125000
vt 0.391667 0.125000
vt 0.613355 0.087508
vt 0.391667 0.087508
vt 0.391667 0.125000
vt 0.769425 0.549630
vn -0.0000 0.0000 -1.0000
vn 0.0000 0.0000 1.0000
vn 0.0874 0.9962 0.0000
vn -0.0000 1.0000 0.0000
vn -0.0874 0.9962 0.0000
vn -0.0000 -1.0000 -0.0000
vn 0.0000 -1.0000 -0.0001
vn -1.0000 0.0000 0.0000
vn 1.0000 0.0000 0.0000
s 1
f 5/1/1 4/2/1 6/3/1
f 7/4/2 3/5/2 10/6/2
f 2/7/3 6/8/3 4/2/4
f 10/6/5 3/5/4 4/2/4
f 1/9/6 7/10/7 8/11/7
f 10/12/8 9/13/8 8/14/8
f 2/15/9 1/16/9 5/17/9
f 9/18/1 4/2/1 8/11/1
f 8/11/1 4/2/1 5/1/1
f 2/15/2 3/5/2 1/16/2
f 1/16/2 3/5/2 7/4/2
f 2/7/3 4/2/4 3/5/4
f 10/6/5 4/2/4 9/18/5
f 1/9/6 8/11/7 5/1/6
f 10/12/8 8/14/8 7/4/8
f 2/15/9 5/17/9 6/3/9
