# Blender v3.0.1 OBJ File: 'Main.blend'
# www.blender.org
o Cube.5349_0316
v -1.905002 0.000000 -1.041000
v -1.905002 -0.000000 -1.338000
v -1.896002 -0.000000 -1.338000
v -1.896002 0.000000 -1.932364
v -1.887002 0.000000 -2.943000
v -1.896002 0.000000 -3.411000
v -1.428002 0.000000 -3.402000
v -0.459001 0.000000 -3.411000
v -0.228001 0.000000 -3.411000
v -1.911366 0.000000 -1.041000
v -1.911366 -0.000000 -1.344364
v -1.902366 -0.000000 -1.344364
v -1.896002 -0.000000 -1.585136
v -1.902366 -0.000000 -1.585136
v -1.902366 0.000000 -1.932364
v -1.896002 0.000000 -1.974000
v -1.902366 0.000000 -1.980364
v -1.887002 0.000000 -1.974000
v -1.893366 0.000000 -1.980364
v -1.893366 0.000000 -2.936636
v -1.896002 0.000000 -2.943000
v -1.902365 0.000000 -2.936636
v -1.902365 0.000000 -3.417364
v -1.428002 -0.000000 -3.411000
v -1.421638 0.000000 -3.417364
v -1.421638 0.000000 -3.408364
v -0.459001 0.000000 -3.402000
v -0.465365 0.000000 -3.408364
v -0.465365 0.000000 -3.417364
v -0.234365 0.000000 -3.417364
v -0.228001 0.000000 -3.423000
v -0.234365 0.000000 -3.429364
v -1.905002 0.045000 -1.041000
v -1.905002 0.045000 -1.338000
v -1.896002 0.045000 -1.338000
v -1.896002 0.045000 -1.932364
v -0.459001 0.045000 -3.411000
v -0.228001 0.045000 -3.411000
v -1.911366 0.045000 -1.041000
v -1.911366 0.045000 -1.344364
v -1.902366 0.045000 -1.344364
v -1.902366 0.045000 -1.585136
v -1.896002 0.045000 -1.585136
v -1.902366 0.045000 -1.932364
v -1.902366 0.045000 -1.980364
v -1.896002 0.045000 -1.974000
v -1.887002 0.045000 -1.974000
v -1.893366 0.045000 -1.980364
v -1.893366 0.045000 -2.936636
v -1.902365 0.045000 -2.936636
v -1.896002 0.045000 -2.943000
v -1.902365 0.045000 -3.417364
v -1.421638 0.045000 -3.417364
v -1.428002 0.045000 -3.411000
v -1.421638 0.045000 -3.408364
v -0.465365 0.045000 -3.408364
v -0.459001 0.045000 -3.402000
v -0.465365 0.045000 -3.417364
v -0.234365 0.045000 -3.417364
v -0.234365 0.045000 -3.429364
v -0.228001 0.045000 -3.423000
v -1.887002 0.045000 -2.943000
v -1.896002 0.045000 -3.411000
v -1.428002 0.045000 -3.402000
v -1.890002 0.000000 -1.041000
v -1.890002 -0.000000 -1.323000
v -1.881002 -0.000000 -1.323000
v -1.881002 0.000000 -1.932364
v -0.444001 0.000000 -3.396000
v -0.213001 0.000000 -3.396000
v -1.881002 -0.000000 -1.585136
v -1.881002 0.000000 -1.959000
v -1.872002 0.000000 -1.959000
v -0.213001 0.000000 -3.408000
v -1.872002 0.000000 -2.958000
v -1.881002 0.000000 -2.958000
v -1.881001 0.000000 -3.396000
v -1.443002 -0.000000 -3.396000
v -1.443002 0.000000 -3.387000
v -0.444001 0.000000 -3.387000
v -1.890002 0.045000 -1.041000
v -1.890002 0.045000 -1.323000
v -1.881002 0.045000 -1.323000
v -1.881002 0.045000 -1.932364
v -0.444001 0.045000 -3.396000
v -0.213001 0.045000 -3.396000
v -1.881002 0.045000 -1.585136
v -1.881002 0.045000 -1.959000
v -1.872002 0.045000 -1.959000
v -0.213001 0.045000 -3.408000
v -1.872002 0.045000 -2.958000
v -1.881002 0.045000 -2.958000
v -1.881001 0.045000 -3.396000
v -1.443002 0.045000 -3.396000
v -1.443002 0.045000 -3.387000
v -0.444001 0.045000 -3.387000
v -0.183365 0.000000 -3.423000
v -0.183365 0.000000 -3.429364
v -0.183365 0.045000 -3.429364
v -0.183365 0.045000 -3.423000
v -0.183365 0.000000 -3.408000
v -0.183365 0.045000 -3.408000
vt 0.887504 0.388036
vt 0.887504 0.393510
vt 0.887618 0.393396
vt 0.887666 0.393510
vt 0.887666 0.397854
vt 0.887781 0.397854
vt 0.459307 0.155584
vt 0.460173 0.155576
vt 0.460057 0.155462
vt 0.460172 0.155416
vt 0.460057 0.155301
vt 0.477427 0.155290
vt 0.477428 0.155454
vt 0.477543 0.155340
vt 0.486103 0.155389
vt 0.485988 0.155279
vt 0.486040 0.146717
vt 0.485927 0.146831
vt 0.485877 0.146717
vt 0.485753 0.129464
vt 0.485639 0.129349
vt 0.485916 0.129460
vt 0.485801 0.129345
vt 0.485887 0.125294
vt 0.486103 0.125290
vt 0.485988 0.125179
vt 0.887149 0.531620
vt 0.887264 0.531620
vt 0.887264 0.526260
vt 0.887312 0.526145
vt 0.887149 0.526145
vt 0.887427 0.526260
vt 0.887427 0.521801
vt 0.489801 0.124370
vt 0.489801 0.124484
vt 0.490552 0.124490
vt 0.490666 0.124538
vt 0.490668 0.124376
vt 0.507921 0.124662
vt 0.490552 0.124652
vt 0.508036 0.124778
vt 0.508038 0.124615
vt 0.516598 0.124562
vt 0.507923 0.124500
vt 0.516535 0.133237
vt 0.516483 0.124676
vt 0.516372 0.133235
vt 0.516422 0.133121
vt 0.516248 0.150491
vt 0.516260 0.133120
vt 0.516134 0.150605
vt 0.516296 0.150606
vt 0.516382 0.154660
vt 0.516410 0.150492
vt 0.516265 0.154774
vt 0.516483 0.154776
vt 0.891304 0.019571
vt 0.891304 0.010896
vt 0.890492 0.010896
vt 0.485765 0.146835
vt 0.485496 0.147106
vt 0.485658 0.147106
vt 0.508307 0.124888
vt 0.516210 0.124945
vt 0.973432 0.407381
vt 0.973432 0.408194
vt 0.973592 0.408194
vt 0.887618 0.388036
vt 0.887889 0.393125
vt 0.866534 0.682271
vt 0.866534 0.665014
vt 0.865722 0.665014
vt 0.928933 0.795273
vt 0.928933 0.796138
vt 0.929745 0.796138
vt 0.508305 0.125050
vt 0.485715 0.155007
vt 0.973511 0.605645
vt 0.973351 0.605645
vt 0.973351 0.606457
vt 0.490279 0.124921
vt 0.477541 0.155175
vt 0.477812 0.155065
vt 0.913935 0.313849
vt 0.913935 0.318019
vt 0.914747 0.318019
vt 0.489800 0.124755
vt 0.490281 0.124758
vt 0.477810 0.154904
vt 0.269870 0.972919
vt 0.270091 0.972919
vt 0.270091 0.972107
vt 0.973312 0.563935
vt 0.973475 0.563935
vt 0.973475 0.563123
vt 0.459307 0.155469
vt 0.459786 0.155194
vt 0.887697 0.526531
vt 0.887697 0.521801
vt 0.809590 0.907267
vt 0.809590 0.901793
vt 0.808778 0.901793
vt 0.866431 0.148497
vt 0.866431 0.131236
vt 0.865619 0.131236
vt 0.846948 0.963324
vt 0.847063 0.963324
vt 0.847063 0.962512
vt 0.923479 0.973426
vt 0.923642 0.973426
vt 0.923642 0.972614
vt 0.973348 0.462238
vt 0.973510 0.462238
vt 0.973510 0.461426
vt 0.175285 0.909463
vt 0.174473 0.909463
vt 0.174473 0.913807
vt 0.392323 0.882360
vt 0.392323 0.891036
vt 0.393135 0.891036
vt 0.887781 0.393396
vt 0.888052 0.397854
vt 0.958442 0.394982
vt 0.958923 0.394982
vt 0.958923 0.394170
vt 0.519120 0.775365
vt 0.519120 0.757338
vt 0.518308 0.757338
vt 0.886447 0.972560
vt 0.886447 0.973372
vt 0.886610 0.973372
vt 0.286265 0.828064
vt 0.286265 0.820159
vt 0.285453 0.820159
vt 0.175285 0.895032
vt 0.175285 0.887128
vt 0.174473 0.887128
vt 0.366955 0.910390
vt 0.366955 0.905302
vt 0.366143 0.905302
vt 0.973651 0.169592
vt 0.973651 0.168780
vt 0.973491 0.168780
vt 0.781288 0.973373
vt 0.781451 0.973373
vt 0.781451 0.972561
vt 0.529152 0.973384
vt 0.529315 0.973384
vt 0.529315 0.972572
vt 0.195070 0.863421
vt 0.195070 0.845394
vt 0.194258 0.845394
vt 0.962735 0.394171
vt 0.962735 0.394982
vt 0.963005 0.394982
vt 0.973652 0.123215
vt 0.973652 0.122403
vt 0.973491 0.122403
vt 0.913867 0.694654
vt 0.913867 0.698824
vt 0.914679 0.698824
vt 0.662156 0.972918
vt 0.662378 0.972918
vt 0.662378 0.972106
vt 0.158757 0.906924
vt 0.158757 0.911654
vt 0.159569 0.911654
vt 0.961126 0.042904
vt 0.961011 0.042091
vt 0.961011 0.042904
vt 0.888052 0.393125
vt 0.887535 0.531620
vt 0.887535 0.526531
vt 0.459784 0.155034
vt 0.485366 0.129078
vt 0.516153 0.132848
vt 0.485528 0.129078
vt 0.485770 0.125179
vt 0.485497 0.124912
vt 0.515990 0.132847
vt 0.485715 0.124908
vt 0.515861 0.150874
vt 0.516023 0.150875
vt 0.515992 0.155043
vt 0.516210 0.155045
vt 0.847333 0.963324
vt 0.485982 0.124373
vt 0.864627 0.265923
vt 0.865439 0.265923
vt 0.865439 0.265003
vt 0.516206 0.155579
vt 0.516477 0.155581
vt 0.312013 0.957643
vt 0.312013 0.958455
vt 0.312548 0.958455
vt 0.486097 0.124370
vt 0.516592 0.155582
vt 0.961174 0.567925
vt 0.961289 0.568737
vt 0.961289 0.567925
vt 0.887312 0.521801
vt 0.516598 0.154662
vt 0.890492 0.019571
vt 0.973592 0.407381
vt 0.887889 0.388036
vt 0.865722 0.682271
vt 0.929745 0.795273
vt 0.973511 0.606457
vt 0.914747 0.313849
vt 0.269870 0.972107
vt 0.973312 0.563123
vt 0.459305 0.155198
vt 0.808778 0.907267
vt 0.865619 0.148497
vt 0.846948 0.962512
vt 0.923479 0.972614
vt 0.973348 0.461426
vt 0.175285 0.913807
vt 0.393135 0.882360
vt 0.958442 0.394170
vt 0.518308 0.775365
vt 0.886610 0.972560
vt 0.285453 0.828064
vt 0.174473 0.895032
vt 0.366143 0.910390
vt 0.973491 0.169592
vt 0.781288 0.972561
vt 0.529152 0.972572
vt 0.194258 0.863421
vt 0.962620 0.394171
vt 0.962620 0.394982
vt 0.963005 0.394171
vt 0.973491 0.123215
vt 0.914679 0.694654
vt 0.662156 0.972106
vt 0.159569 0.906924
vt 0.961126 0.042091
vt 0.961397 0.042091
vt 0.961397 0.042904
vt 0.847333 0.962512
vt 0.485711 0.124373
vt 0.864627 0.265003
vt 0.312548 0.957643
vt 0.961174 0.568737
vt 0.960899 0.568737
vt 0.960899 0.567925
vn 0.0000 -1.0000 0.0000
vn 0.0000 1.0000 -0.0000
vn 0.0000 0.0000 -1.0000
vn 1.0000 0.0000 0.0000
vn -1.0000 0.0000 0.0000
vn 0.0000 0.0000 1.0000
s off
f 10/1/1 11/2/1 2/3/1
f 2/3/1 11/2/1 12/4/1
f 12/4/1 14/5/1 13/6/1
f 15/7/1 17/8/1 16/9/1
f 16/9/1 17/8/1 19/10/1
f 18/11/1 19/10/1 20/12/1
f 20/12/1 22/13/1 21/14/1
f 21/14/1 22/13/1 23/15/1
f 6/16/1 23/15/1 25/17/1
f 24/18/1 25/17/1 26/19/1
f 26/19/1 28/20/1 27/21/1
f 28/20/1 29/22/1 8/23/1
f 8/23/1 29/22/1 30/24/1
f 30/24/1 32/25/1 31/26/1
f 39/27/2 33/28/2 34/29/2
f 41/30/2 40/31/2 34/29/2
f 41/30/2 35/32/2 43/33/2
f 44/34/2 36/35/2 46/36/2
f 48/37/2 45/38/2 46/36/2
f 49/39/2 48/37/2 47/40/2
f 49/39/2 62/41/2 51/42/2
f 52/43/2 50/44/2 51/42/2
f 53/45/2 52/43/2 63/46/2
f 55/47/2 53/45/2 54/48/2
f 56/49/2 55/47/2 64/50/2
f 56/49/2 57/51/2 37/52/2
f 59/53/2 58/54/2 37/52/2
f 59/53/2 38/55/2 61/56/2
f 25/57/3 23/58/3 52/59/3
f 7/60/1 79/61/1 78/62/1
f 51/42/2 92/63/2 93/64/2
f 25/65/4 53/66/4 55/67/4
f 1/68/1 2/3/1 66/69/1
f 28/70/3 26/71/3 55/72/3
f 6/16/1 24/18/1 78/62/1
f 17/73/5 15/74/5 44/75/5
f 62/41/2 91/76/2 92/63/2
f 21/14/1 6/16/1 77/77/1
f 29/78/5 28/79/5 56/80/5
f 62/41/2 47/40/2 89/81/2
f 5/82/1 21/14/1 76/83/1
f 30/84/3 29/85/3 58/86/3
f 36/35/2 84/87/2 88/88/2
f 18/11/1 5/82/1 75/89/1
f 32/90/5 30/91/5 59/92/5
f 19/93/3 17/94/3 45/95/3
f 4/96/1 16/9/1 72/97/1
f 35/32/2 83/98/2 87/99/2
f 11/100/5 10/101/5 39/102/5
f 20/103/5 19/104/5 48/105/5
f 10/106/6 1/107/6 33/108/6
f 12/109/3 11/110/3 40/111/3
f 22/112/6 20/113/6 49/114/6
f 12/115/5 41/116/5 42/117/5
f 23/118/5 22/119/5 50/120/5
f 3/121/1 13/6/1 71/122/1
f 68/123/4 72/124/4 88/125/4
f 73/126/4 75/127/4 91/128/4
f 76/129/3 92/130/3 91/131/3
f 76/132/4 77/133/4 93/134/4
f 77/135/6 78/136/6 94/137/6
f 65/138/4 66/139/4 82/140/4
f 79/141/5 95/142/5 94/143/5
f 66/144/6 67/145/6 83/146/6
f 72/147/6 73/148/6 89/149/6
f 79/150/6 80/151/6 96/152/6
f 36/153/6 4/154/6 68/155/6
f 69/156/4 85/157/4 96/158/4
f 69/159/6 70/160/6 86/161/6
f 70/162/4 74/163/4 90/164/4
f 67/165/4 71/166/4 87/167/4
f 43/168/3 14/169/3 42/170/3
f 3/121/1 67/171/1 66/69/1
f 54/48/2 63/46/2 93/64/2
f 33/28/2 81/172/2 82/173/2
f 18/11/1 73/174/1 72/97/1
f 7/60/1 27/21/1 80/175/1
f 64/50/2 54/48/2 94/176/2
f 35/32/2 34/29/2 82/173/2
f 27/21/1 8/23/1 69/177/1
f 47/40/2 46/36/2 88/88/2
f 9/178/1 70/179/1 69/177/1
f 57/51/2 64/50/2 95/180/2
f 9/178/1 31/26/1 74/181/1
f 57/51/2 96/182/2 85/183/2
f 38/55/2 37/52/2 85/183/2
f 38/55/2 86/184/2 90/185/2
f 33/108/6 1/107/6 65/186/6
f 74/181/1 31/26/1 97/187/1
f 32/188/3 60/189/3 99/190/3
f 90/185/2 102/191/2 100/192/2
f 90/193/6 74/194/6 101/195/6
f 31/26/1 32/25/1 98/196/1
f 61/56/2 100/192/2 99/197/2
f 100/198/4 98/199/4 99/200/4
f 10/1/1 2/3/1 1/68/1
f 2/3/1 12/4/1 3/121/1
f 12/4/1 13/6/1 3/121/1
f 15/7/1 16/9/1 4/96/1
f 16/9/1 19/10/1 18/11/1
f 18/11/1 20/12/1 5/82/1
f 20/12/1 21/14/1 5/82/1
f 21/14/1 23/15/1 6/16/1
f 6/16/1 25/17/1 24/18/1
f 24/18/1 26/19/1 7/60/1
f 26/19/1 27/21/1 7/60/1
f 28/20/1 8/23/1 27/21/1
f 8/23/1 30/24/1 9/178/1
f 30/24/1 31/26/1 9/178/1
f 39/27/2 34/29/2 40/31/2
f 41/30/2 34/29/2 35/32/2
f 41/30/2 43/33/2 42/201/2
f 44/34/2 46/36/2 45/38/2
f 48/37/2 46/36/2 47/40/2
f 49/39/2 47/40/2 62/41/2
f 49/39/2 51/42/2 50/44/2
f 52/43/2 51/42/2 63/46/2
f 53/45/2 63/46/2 54/48/2
f 55/47/2 54/48/2 64/50/2
f 56/49/2 64/50/2 57/51/2
f 56/49/2 37/52/2 58/54/2
f 59/53/2 37/52/2 38/55/2
f 59/53/2 61/56/2 60/202/2
f 25/57/3 52/59/3 53/203/3
f 7/60/1 78/62/1 24/18/1
f 51/42/2 93/64/2 63/46/2
f 25/65/4 55/67/4 26/204/4
f 1/68/1 66/69/1 65/205/1
f 28/70/3 55/72/3 56/206/3
f 6/16/1 78/62/1 77/77/1
f 17/73/5 44/75/5 45/207/5
f 62/41/2 92/63/2 51/42/2
f 21/14/1 77/77/1 76/83/1
f 29/78/5 56/80/5 58/208/5
f 62/41/2 89/81/2 91/76/2
f 5/82/1 76/83/1 75/89/1
f 30/84/3 58/86/3 59/209/3
f 36/35/2 88/88/2 46/36/2
f 18/11/1 75/89/1 73/174/1
f 32/90/5 59/92/5 60/210/5
f 19/93/3 45/95/3 48/211/3
f 4/96/1 72/97/1 68/212/1
f 35/32/2 87/99/2 43/33/2
f 11/100/5 39/102/5 40/213/5
f 20/103/5 48/105/5 49/214/5
f 10/106/6 33/108/6 39/215/6
f 12/109/3 40/111/3 41/216/3
f 22/112/6 49/114/6 50/217/6
f 12/115/5 42/117/5 14/218/5
f 23/118/5 50/120/5 52/219/5
f 3/121/1 71/122/1 67/171/1
f 68/123/4 88/125/4 84/220/4
f 73/126/4 91/128/4 89/221/4
f 76/129/3 91/131/3 75/222/3
f 76/132/4 93/134/4 92/223/4
f 77/135/6 94/137/6 93/224/6
f 65/138/4 82/140/4 81/225/4
f 79/141/5 94/143/5 78/226/5
f 66/144/6 83/146/6 82/227/6
f 72/147/6 89/149/6 88/228/6
f 79/150/6 96/152/6 95/229/6
f 4/154/6 44/230/6 15/231/6
f 36/153/6 68/155/6 84/232/6
f 4/154/6 36/153/6 44/230/6
f 69/156/4 96/158/4 80/233/4
f 69/159/6 86/161/6 85/234/6
f 70/162/4 90/164/4 86/235/4
f 67/165/4 87/167/4 83/236/4
f 14/169/3 43/168/3 13/237/3
f 13/237/3 43/168/3 71/238/3
f 71/238/3 43/168/3 87/239/3
f 3/121/1 66/69/1 2/3/1
f 54/48/2 93/64/2 94/176/2
f 33/28/2 82/173/2 34/29/2
f 18/11/1 72/97/1 16/9/1
f 7/60/1 80/175/1 79/61/1
f 64/50/2 94/176/2 95/180/2
f 35/32/2 82/173/2 83/98/2
f 27/21/1 69/177/1 80/175/1
f 47/40/2 88/88/2 89/81/2
f 9/178/1 69/177/1 8/23/1
f 57/51/2 95/180/2 96/182/2
f 9/178/1 74/181/1 70/179/1
f 57/51/2 85/183/2 37/52/2
f 38/55/2 85/183/2 86/184/2
f 38/55/2 90/185/2 61/56/2
f 33/108/6 65/186/6 81/240/6
f 74/181/1 97/187/1 101/241/1
f 32/188/3 99/190/3 98/242/3
f 90/185/2 100/192/2 61/56/2
f 90/193/6 101/195/6 102/243/6
f 31/26/1 98/196/1 97/187/1
f 61/56/2 99/197/2 60/202/2
f 98/199/4 100/198/4 97/244/4
f 97/244/4 100/198/4 101/245/4
f 101/245/4 100/198/4 102/246/4
