# Blender v3.0.1 OBJ File: 'Main.blend'
# www.blender.org
o Cube.5709_0187
v 1.135499 -0.129000 -1.825500
v 1.114498 -0.129000 -1.825500
v 1.007399 -0.204000 -1.825500
v 1.135499 -0.129000 -1.819500
v 1.114498 -0.129000 -1.819500
v 1.007399 -0.204000 -1.819500
v 1.000649 -0.195657 -1.825500
v 1.000649 -0.204000 -1.825500
v 1.000649 -0.204000 -1.819500
v 1.000649 -0.195657 -1.819500
vt 0.936215 0.472756
vt 0.936024 0.472727
vt 0.936024 0.475108
vt 0.086424 0.935935
vt 0.086233 0.933583
vt 0.086233 0.936260
vt 0.587893 0.937569
vt 0.587893 0.934984
vt 0.587782 0.934984
vt 0.587782 0.937569
vt 0.587782 0.937688
vt 0.587893 0.937688
vt 0.728611 0.935057
vt 0.728611 0.935423
vt 0.728722 0.935423
vt 0.728611 0.937722
vt 0.728722 0.937722
vt 0.740060 0.990009
vt 0.740060 0.989859
vt 0.739950 0.989859
vt 0.936153 0.472650
vt 0.936215 0.475434
vt 0.086294 0.933476
vt 0.086424 0.933552
vt 0.728722 0.935057
vt 0.739950 0.990009
vn 0.0000 0.0000 -1.0000
vn 0.0000 0.0000 1.0000
vn 0.5053 -0.8630 0.0000
vn 0.0000 -1.0000 0.0000
vn 0.0000 1.0000 0.0000
vn -0.5053 0.8630 0.0000
vn -1.0000 0.0000 0.0000
vn 0.5052 -0.8630 0.0000
s off
f 3/1/1 7/2/1 2/3/1
f 5/4/2 6/5/2 4/6/2
f 3/7/3 1/8/3 4/9/3
f 6/10/4 9/11/4 8/12/4
f 1/13/5 2/14/5 5/15/5
f 2/14/6 7/16/6 10/17/6
f 9/18/7 10/19/7 7/20/7
f 7/2/1 3/1/1 8/21/1
f 3/1/1 2/3/1 1/22/1
f 9/23/2 6/5/2 10/24/2
f 10/24/2 6/5/2 5/4/2
f 3/7/8 4/9/8 6/10/8
f 6/10/4 8/12/4 3/7/4
f 1/13/5 5/15/5 4/25/5
f 2/14/6 10/17/6 5/15/6
f 9/18/7 7/20/7 8/26/7
