# Blender v3.0.1 OBJ File: 'Main.blend'
# www.blender.org
o Cube.5802_0292
v -1.889999 0.465000 -1.400999
v -1.889999 0.507000 -1.400999
v -1.877999 0.465000 -1.400999
v -1.877999 0.507000 -1.400999
v -1.889999 0.465000 -1.388999
v -1.889999 0.507000 -1.388999
v -1.877999 0.465000 -1.388999
v -1.877999 0.507000 -1.388999
vt 0.820777 0.972512
vt 0.820993 0.973269
vt 0.820777 0.973269
vt 0.865631 0.972468
vt 0.865848 0.973225
vt 0.865631 0.973225
vt 0.022260 0.972499
vt 0.022477 0.973256
vt 0.022260 0.973256
vt 0.959099 0.972376
vt 0.959315 0.973134
vt 0.959099 0.973134
vt 0.708619 0.292532
vt 0.708836 0.292316
vt 0.708836 0.292532
vt 0.867539 0.075218
vt 0.867756 0.075002
vt 0.867756 0.075218
vt 0.820993 0.972512
vt 0.865848 0.972468
vt 0.022477 0.972499
vt 0.959315 0.972376
vt 0.708619 0.292316
vt 0.867539 0.075002
vn 0.0000 0.0000 -1.0000
vn 1.0000 0.0000 0.0000
vn 0.0000 0.0000 1.0000
vn -1.0000 0.0000 0.0000
vn 0.0000 -1.0000 0.0000
vn 0.0000 1.0000 0.0000
s off
f 2/1/1 3/2/1 1/3/1
f 4/4/2 7/5/2 3/6/2
f 8/7/3 5/8/3 7/9/3
f 6/10/4 1/11/4 5/12/4
f 7/13/5 1/14/5 3/15/5
f 4/16/6 6/17/6 8/18/6
f 2/1/1 4/19/1 3/2/1
f 4/4/2 8/20/2 7/5/2
f 8/7/3 6/21/3 5/8/3
f 6/10/4 2/22/4 1/11/4
f 7/13/5 5/23/5 1/14/5
f 4/16/6 2/24/6 6/17/6
