# Blender v3.0.1 OBJ File: 'Main.blend'
# www.blender.org
o Cube.5297_0059
v -1.491001 0.000000 -3.396000
v -1.491001 0.369000 -3.396000
v -1.491001 0.000000 -3.402000
v -1.491001 0.369000 -3.402000
v -1.812001 0.000000 -3.396000
v -1.812001 0.369000 -3.396000
v -1.812001 0.000000 -3.402000
v -1.812001 0.369000 -3.402000
v -1.494002 0.045000 -3.396000
v -1.494002 0.153000 -3.396000
v -1.494002 0.192000 -3.396000
v -1.494002 0.261000 -3.396000
v -1.494002 0.297000 -3.396000
v -1.539001 0.297000 -3.396000
v -1.539001 0.261000 -3.396000
v -1.539001 0.192000 -3.396000
v -1.539001 0.153000 -3.396000
v -1.539001 0.045000 -3.396000
v -1.494002 0.366000 -3.396000
v -1.539001 0.366000 -3.396000
v -1.494002 0.045000 -3.402000
v -1.494002 0.153000 -3.402000
v -1.494002 0.192000 -3.402000
v -1.494002 0.297000 -3.402000
v -1.494002 0.261000 -3.402000
v -1.494002 0.366000 -3.402000
v -1.539001 0.153000 -3.402000
v -1.539001 0.297000 -3.402000
v -1.539001 0.366000 -3.402000
v -1.539001 0.192000 -3.402000
v -1.539001 0.261000 -3.402000
v -1.539001 0.045000 -3.402000
v -1.629001 0.366000 -3.396000
v -1.674001 0.366000 -3.396000
v -1.629001 0.153000 -3.396000
v -1.629001 0.192000 -3.396000
v -1.674001 0.192000 -3.396000
v -1.674001 0.261000 -3.396000
v -1.674001 0.153000 -3.396000
v -1.629001 0.261000 -3.396000
v -1.630001 0.297000 -3.396000
v -1.674001 0.297000 -3.396000
v -1.629001 0.297000 -3.396000
v -1.629001 0.045000 -3.396000
v -1.674001 0.045000 -3.396000
v -1.629001 0.153000 -3.402000
v -1.629001 0.192000 -3.402000
v -1.674001 0.192000 -3.402000
v -1.674001 0.261000 -3.402000
v -1.674001 0.153000 -3.402000
v -1.645425 0.261000 -3.402000
v -1.629001 0.261000 -3.402000
v -1.674001 0.297000 -3.402000
v -1.644751 0.297000 -3.402000
v -1.629001 0.297000 -3.402000
v -1.629001 0.366000 -3.402000
v -1.674001 0.366000 -3.402000
v -1.629001 0.045000 -3.402000
v -1.674001 0.045000 -3.402000
v -1.764001 0.153000 -3.396000
v -1.764001 0.192000 -3.396000
v -1.764001 0.297000 -3.396000
v -1.764001 0.261000 -3.396000
v -1.809001 0.153000 -3.396000
v -1.809001 0.192000 -3.396000
v -1.809001 0.261000 -3.396000
v -1.809001 0.297000 -3.396000
v -1.809001 0.045000 -3.396000
v -1.809001 0.366000 -3.396000
v -1.764001 0.366000 -3.396000
v -1.764001 0.045000 -3.396000
v -1.764001 0.153000 -3.402000
v -1.764001 0.192000 -3.402000
v -1.764001 0.297000 -3.402000
v -1.764001 0.261000 -3.402000
v -1.809001 0.153000 -3.402000
v -1.809001 0.192000 -3.402000
v -1.809001 0.261000 -3.402000
v -1.809001 0.297000 -3.402000
v -1.809001 0.045000 -3.402000
v -1.809001 0.366000 -3.402000
v -1.764001 0.366000 -3.402000
v -1.764001 0.045000 -3.402000
vt 0.911435 0.353765
vt 0.911327 0.347107
vt 0.911435 0.347107
vt 0.911370 0.584601
vt 0.911262 0.591259
vt 0.911262 0.584601
vt 0.253749 0.915497
vt 0.253640 0.909707
vt 0.253749 0.909707
vt 0.613438 0.320748
vt 0.613392 0.324212
vt 0.613392 0.317554
vt 0.619182 0.317554
vt 0.619120 0.320748
vt 0.619120 0.319503
vt 0.616692 0.317608
vt 0.618311 0.317608
vt 0.615882 0.321451
vt 0.615882 0.323400
vt 0.614248 0.321451
vt 0.411227 0.909580
vt 0.411335 0.915377
vt 0.411227 0.915377
vt 0.607206 0.321452
vt 0.606389 0.320748
vt 0.607206 0.320748
vt 0.603952 0.318853
vt 0.604769 0.319503
vt 0.603952 0.319503
vt 0.607206 0.323400
vt 0.608825 0.321452
vt 0.608825 0.323400
vt 0.608825 0.318853
vt 0.607206 0.319503
vt 0.607206 0.318853
vt 0.609642 0.321452
vt 0.609642 0.320748
vt 0.609696 0.324212
vt 0.944450 0.291630
vt 0.944342 0.293579
vt 0.944342 0.291630
vt 0.724687 0.944247
vt 0.724796 0.942298
vt 0.724796 0.944247
vt 0.974427 0.473884
vt 0.974536 0.473067
vt 0.974536 0.473884
vt 0.974415 0.063710
vt 0.974524 0.064527
vt 0.974415 0.064527
vt 0.960057 0.620881
vt 0.959949 0.622126
vt 0.959949 0.620881
vt 0.959632 0.671664
vt 0.959741 0.670419
vt 0.959741 0.671664
vt 0.974440 0.376618
vt 0.974549 0.375801
vt 0.974549 0.376618
vt 0.974454 0.783419
vt 0.974563 0.784237
vt 0.974454 0.784237
vt 0.960117 0.191088
vt 0.960009 0.192333
vt 0.960009 0.191088
vt 0.628134 0.959768
vt 0.628242 0.958523
vt 0.628242 0.959768
vt 0.306882 0.974663
vt 0.306991 0.973846
vt 0.306991 0.974663
vt 0.974318 0.085548
vt 0.974427 0.086365
vt 0.974318 0.086365
vt 0.932114 0.942580
vt 0.932006 0.944529
vt 0.932006 0.942580
vt 0.944209 0.483733
vt 0.944318 0.481784
vt 0.944318 0.483733
vt 0.974313 0.394982
vt 0.974422 0.394165
vt 0.974422 0.394982
vt 0.974652 0.477776
vt 0.974761 0.478593
vt 0.974652 0.478593
vt 0.917146 0.958733
vt 0.917038 0.959978
vt 0.917038 0.958733
vt 0.959414 0.539245
vt 0.959523 0.538000
vt 0.959523 0.539245
vt 0.927823 0.974283
vt 0.927932 0.973466
vt 0.927932 0.974283
vt 0.533135 0.973413
vt 0.533244 0.973413
vt 0.533244 0.973932
vt 0.960141 0.749713
vt 0.960033 0.750958
vt 0.960033 0.749713
vt 0.724658 0.959766
vt 0.724767 0.958521
vt 0.724767 0.959766
vt 0.974109 0.905879
vt 0.974109 0.905856
vt 0.974218 0.905856
vt 0.974107 0.923609
vt 0.974216 0.924426
vt 0.974107 0.924426
vt 0.944437 0.077216
vt 0.944329 0.079165
vt 0.944329 0.077216
vt 0.890683 0.944222
vt 0.890792 0.942274
vt 0.890792 0.944222
vt 0.975419 0.207720
vt 0.975528 0.206910
vt 0.975528 0.207720
vt 0.974382 0.090931
vt 0.974491 0.091748
vt 0.974382 0.091748
vt 0.960023 0.362808
vt 0.959916 0.364054
vt 0.959916 0.362808
vt 0.959534 0.293308
vt 0.959642 0.292063
vt 0.959642 0.293308
vt 0.975419 0.750958
vt 0.975528 0.750148
vt 0.975528 0.750958
vt 0.974323 0.951625
vt 0.974431 0.952442
vt 0.974323 0.952442
vt 0.745221 0.960102
vt 0.745329 0.958857
vt 0.745329 0.960102
vt 0.824913 0.959815
vt 0.825022 0.958570
vt 0.825022 0.959815
vt 0.975425 0.676455
vt 0.975534 0.675645
vt 0.975534 0.676455
vt 0.441966 0.973627
vt 0.442075 0.974444
vt 0.441966 0.974444
vt 0.911327 0.353765
vt 0.911370 0.591259
vt 0.253640 0.915497
vt 0.614248 0.320748
vt 0.613438 0.321451
vt 0.613438 0.323400
vt 0.613438 0.317608
vt 0.613438 0.318853
vt 0.613438 0.319503
vt 0.619120 0.318853
vt 0.619120 0.317608
vt 0.619182 0.324212
vt 0.619120 0.323400
vt 0.619120 0.321451
vt 0.618311 0.321451
vt 0.618311 0.320748
vt 0.618311 0.319503
vt 0.618311 0.318853
vt 0.615882 0.320748
vt 0.616692 0.320748
vt 0.616692 0.319503
vt 0.615882 0.319503
vt 0.615897 0.318853
vt 0.616692 0.321451
vt 0.616692 0.318853
vt 0.616692 0.323400
vt 0.614248 0.323400
vt 0.618311 0.323400
vt 0.614248 0.317608
vt 0.615882 0.317608
vt 0.615882 0.318853
vt 0.614248 0.318853
vt 0.614248 0.319503
vt 0.411335 0.909580
vt 0.606389 0.321452
vt 0.603952 0.320748
vt 0.603899 0.317554
vt 0.603952 0.321452
vt 0.603899 0.324212
vt 0.603952 0.323400
vt 0.603952 0.317608
vt 0.604769 0.318853
vt 0.604769 0.317608
vt 0.609696 0.317554
vt 0.607206 0.317608
vt 0.609642 0.317608
vt 0.608825 0.317608
vt 0.606389 0.317608
vt 0.606389 0.319503
vt 0.606389 0.318853
vt 0.606923 0.318853
vt 0.606908 0.319503
vt 0.604769 0.320748
vt 0.606389 0.323400
vt 0.604769 0.321452
vt 0.608825 0.320748
vt 0.608825 0.319503
vt 0.604769 0.323400
vt 0.609642 0.323400
vt 0.609642 0.319503
vt 0.609642 0.318853
vt 0.944450 0.293579
vt 0.724687 0.942298
vt 0.974427 0.473067
vt 0.974524 0.063710
vt 0.960057 0.622126
vt 0.959632 0.670419
vt 0.974440 0.375801
vt 0.974563 0.783419
vt 0.960117 0.192333
vt 0.628134 0.958523
vt 0.306882 0.973846
vt 0.974427 0.085548
vt 0.932114 0.944529
vt 0.944209 0.481784
vt 0.974313 0.394165
vt 0.974761 0.477776
vt 0.917146 0.959978
vt 0.959414 0.538000
vt 0.927823 0.973466
vt 0.533244 0.974230
vt 0.533135 0.974230
vt 0.960141 0.750958
vt 0.724658 0.958521
vt 0.974218 0.906146
vt 0.974218 0.906673
vt 0.974109 0.906673
vt 0.974216 0.923609
vt 0.944437 0.079165
vt 0.890683 0.942274
vt 0.975419 0.206910
vt 0.974491 0.090931
vt 0.960023 0.364054
vt 0.959534 0.292063
vt 0.975419 0.750148
vt 0.974431 0.951625
vt 0.745221 0.958857
vt 0.824913 0.958570
vt 0.975425 0.675645
vt 0.442075 0.973627
vn 1.0000 0.0000 0.0000
vn -1.0000 0.0000 0.0000
vn 0.0000 1.0000 0.0000
vn 0.0000 0.0000 1.0000
vn 0.0004 0.0000 1.0000
vn 0.0000 -1.0000 0.0000
vn 0.0000 0.0000 -1.0000
vn -0.0001 0.0000 1.0000
vn 0.0001 0.0000 1.0000
vn 0.0010 0.0000 1.0000
vn -0.0006 0.0000 1.0000
vn -0.0010 0.0000 1.0000
vn -0.0003 0.0000 1.0000
vn -0.0001 0.0000 -1.0000
vn 0.0001 0.0000 -1.0000
s off
f 1/1/1 4/2/1 2/3/1
f 8/4/2 5/5/2 6/6/2
f 8/7/3 2/8/3 4/9/3
f 11/10/4 1/11/4 2/12/4
f 6/13/5 65/14/5 66/15/5
f 34/16/4 6/13/4 70/17/4
f 35/18/4 44/19/4 17/20/4
f 5/21/6 3/22/6 1/23/6
f 46/24/7 48/25/7 47/26/7
f 79/27/7 75/28/7 78/29/7
f 58/30/7 27/31/7 32/32/7
f 28/33/7 52/34/7 55/35/7
f 22/36/7 23/37/7 3/38/7
f 17/39/1 32/40/1 27/41/1
f 9/42/2 22/43/2 21/44/2
f 18/45/3 21/46/3 32/47/3
f 17/48/6 22/49/6 10/50/6
f 15/51/1 30/52/1 31/53/1
f 11/54/2 25/55/2 23/56/2
f 16/57/3 23/58/3 30/59/3
f 15/60/6 25/61/6 12/62/6
f 20/63/1 28/64/1 29/65/1
f 13/66/2 26/67/2 24/68/2
f 14/69/3 24/70/3 28/71/3
f 20/72/6 26/73/6 19/74/6
f 39/75/1 59/76/1 50/77/1
f 44/78/2 46/79/2 58/80/2
f 45/81/3 58/82/3 59/83/3
f 39/84/6 46/85/6 35/86/6
f 38/87/1 48/88/1 49/89/1
f 36/90/2 52/91/2 47/92/2
f 37/93/3 47/94/3 48/95/3
f 38/96/6 49/97/6 51/98/6
f 34/99/1 53/100/1 57/101/1
f 43/102/2 56/103/2 55/104/2
f 41/105/3 43/106/3 55/107/3
f 34/108/6 56/109/6 33/110/6
f 64/111/1 80/112/1 76/113/1
f 71/114/2 72/115/2 83/116/2
f 68/117/3 83/118/3 80/119/3
f 64/120/6 72/121/6 60/122/6
f 66/123/1 77/124/1 78/125/1
f 61/126/2 75/127/2 73/128/2
f 65/129/3 73/130/3 77/131/3
f 66/132/6 75/133/6 63/134/6
f 79/135/1 69/136/1 67/137/1
f 62/138/2 82/139/2 74/140/2
f 67/141/3 74/142/3 79/143/3
f 69/144/6 82/145/6 70/146/6
f 1/1/1 3/147/1 4/2/1
f 8/4/2 7/148/2 5/5/2
f 8/7/3 6/149/3 2/8/3
f 11/10/4 16/150/4 17/20/4
f 10/151/8 9/152/8 1/11/8
f 11/10/4 17/20/4 10/151/4
f 19/153/9 13/154/9 2/12/9
f 13/154/4 12/155/4 2/12/4
f 11/10/10 10/151/10 1/11/10
f 12/155/11 11/10/11 2/12/11
f 67/156/8 69/157/8 6/13/8
f 6/13/4 5/158/4 65/14/4
f 5/158/4 68/159/4 64/160/4
f 64/160/4 60/161/4 61/162/4
f 5/158/12 64/160/12 65/14/12
f 63/163/4 62/164/4 67/156/4
f 64/160/4 61/162/4 65/14/4
f 66/15/4 63/163/4 67/156/4
f 66/15/13 67/156/13 6/13/13
f 35/18/4 36/165/4 37/166/4
f 38/167/4 40/168/4 41/169/4
f 39/170/4 35/18/4 37/166/4
f 38/167/4 41/169/4 42/171/4
f 45/172/4 39/170/4 60/161/4
f 39/170/4 37/166/4 61/162/4
f 63/163/4 38/167/4 62/164/4
f 38/167/4 42/171/4 62/164/4
f 42/171/4 34/16/4 70/17/4
f 38/167/4 63/163/4 37/166/4
f 42/171/4 70/17/4 62/164/4
f 9/152/4 18/173/4 1/11/4
f 18/173/4 44/19/4 1/11/4
f 1/11/4 44/19/4 5/158/4
f 44/19/4 45/172/4 5/158/4
f 71/174/4 68/159/4 5/158/4
f 63/163/4 61/162/4 37/166/4
f 61/162/4 60/161/4 39/170/4
f 60/161/4 71/174/4 45/172/4
f 6/13/4 69/157/4 70/17/4
f 19/153/4 2/12/4 20/175/4
f 2/12/4 6/13/4 33/176/4
f 20/175/4 2/12/4 33/176/4
f 43/177/4 14/178/4 20/175/4
f 33/176/4 43/177/4 20/175/4
f 34/16/4 33/176/4 6/13/4
f 71/174/4 5/158/4 45/172/4
f 12/155/4 13/154/4 14/178/4
f 43/177/4 41/169/4 40/168/4
f 12/155/4 14/178/4 15/179/4
f 14/178/4 43/177/4 15/179/4
f 17/20/4 16/150/4 36/165/4
f 16/150/4 15/179/4 40/168/4
f 40/168/4 36/165/4 16/150/4
f 36/165/4 35/18/4 17/20/4
f 15/179/4 43/177/4 40/168/4
f 44/19/4 18/173/4 17/20/4
f 5/21/6 7/180/6 3/22/6
f 46/24/7 50/181/7 48/25/7
f 78/29/7 77/182/7 8/183/7
f 77/182/7 76/184/7 7/185/7
f 76/184/7 80/186/7 7/185/7
f 7/185/14 8/183/14 77/182/14
f 8/183/7 81/187/7 79/27/7
f 79/27/7 74/188/7 75/28/7
f 8/183/7 79/27/7 78/29/7
f 82/189/7 81/187/7 8/183/7
f 8/183/7 4/190/7 56/191/7
f 4/190/7 26/192/7 29/193/7
f 29/193/7 56/191/7 4/190/7
f 56/191/7 57/194/7 8/183/7
f 75/28/7 74/188/7 49/195/7
f 74/188/7 82/189/7 53/196/7
f 49/195/7 74/188/7 53/196/7
f 53/196/7 54/197/7 51/198/7
f 82/189/7 8/183/7 57/194/7
f 73/199/7 75/28/7 49/195/7
f 82/189/7 57/194/7 53/196/7
f 53/196/7 51/198/7 49/195/7
f 48/25/7 50/181/7 73/199/7
f 50/181/7 59/200/7 72/201/7
f 73/199/7 50/181/7 72/201/7
f 49/195/7 48/25/7 73/199/7
f 76/184/7 77/182/7 73/199/7
f 72/201/7 76/184/7 73/199/7
f 58/30/7 46/24/7 27/31/7
f 46/24/7 47/26/7 30/202/7
f 30/202/7 47/26/7 31/203/7
f 47/26/7 52/34/7 31/203/7
f 83/204/7 72/201/7 59/200/7
f 80/186/7 83/204/7 7/185/7
f 83/204/7 59/200/7 7/185/7
f 46/24/7 30/202/7 27/31/7
f 7/185/7 59/200/7 58/30/7
f 21/205/7 3/38/7 32/32/7
f 3/38/7 7/185/7 58/30/7
f 32/32/7 3/38/7 58/30/7
f 55/35/7 56/191/7 29/193/7
f 28/33/7 31/203/7 52/34/7
f 55/35/7 29/193/7 28/33/7
f 51/198/7 54/197/7 52/34/7
f 54/197/7 55/35/7 52/34/7
f 25/206/7 31/203/7 28/33/7
f 24/207/7 26/192/7 4/190/7
f 25/206/7 28/33/7 24/207/7
f 27/31/7 30/202/7 23/37/7
f 25/206/7 24/207/7 4/190/7
f 22/36/7 27/31/7 23/37/7
f 23/37/7 25/206/7 4/190/7
f 4/190/15 3/38/15 23/37/15
f 3/38/7 21/205/7 22/36/7
f 17/39/1 18/208/1 32/40/1
f 9/42/2 10/209/2 22/43/2
f 18/45/3 9/210/3 21/46/3
f 17/48/6 27/211/6 22/49/6
f 15/51/1 16/212/1 30/52/1
f 11/54/2 12/213/2 25/55/2
f 16/57/3 11/214/3 23/58/3
f 15/60/6 31/215/6 25/61/6
f 20/63/1 14/216/1 28/64/1
f 13/66/2 19/217/2 26/67/2
f 14/69/3 13/218/3 24/70/3
f 20/72/6 29/219/6 26/73/6
f 39/75/1 45/220/1 59/76/1
f 44/78/2 35/221/2 46/79/2
f 45/81/3 44/222/3 58/82/3
f 39/84/6 50/223/6 46/85/6
f 38/87/1 37/224/1 48/88/1
f 36/90/2 40/225/2 52/91/2
f 37/93/3 36/226/3 47/94/3
f 51/98/6 52/227/6 40/228/6
f 40/228/6 38/96/6 51/98/6
f 34/99/1 42/229/1 53/100/1
f 43/102/2 33/230/2 56/103/2
f 55/107/3 54/231/3 41/105/3
f 54/231/3 53/232/3 42/233/3
f 41/105/3 54/231/3 42/233/3
f 34/108/6 57/234/6 56/109/6
f 64/111/1 68/235/1 80/112/1
f 71/114/2 60/236/2 72/115/2
f 68/117/3 71/237/3 83/118/3
f 64/120/6 76/238/6 72/121/6
f 66/123/1 65/239/1 77/124/1
f 61/126/2 63/240/2 75/127/2
f 65/129/3 61/241/3 73/130/3
f 66/132/6 78/242/6 75/133/6
f 79/135/1 81/243/1 69/136/1
f 62/138/2 70/244/2 82/139/2
f 67/141/3 62/245/3 74/142/3
f 69/144/6 81/246/6 82/145/6
