# Blender v3.0.1 OBJ File: 'Main.blend'
# www.blender.org
o Cube.762_0205
v -1.828500 -0.231000 1.035000
v -1.828500 -0.210000 1.035000
v -1.828500 -0.231000 1.029000
v -1.828500 -0.210000 1.029000
v 1.446000 -0.231000 1.035000
v 1.446000 -0.210000 1.035000
v 1.446000 -0.231000 1.029000
v 1.446000 -0.210000 1.029000
vt 0.985143 0.890645
vt 0.985251 0.891024
vt 0.985143 0.891024
vt 0.797435 0.235106
vt 0.797814 0.176014
vt 0.797814 0.235106
vt 0.612969 0.984864
vt 0.613077 0.985243
vt 0.612969 0.985243
vt 0.824447 0.650170
vt 0.824826 0.591079
vt 0.824826 0.650170
vt 0.827894 0.371802
vt 0.827786 0.312711
vt 0.827894 0.312711
vt 0.205511 0.821064
vt 0.205403 0.761972
vt 0.205511 0.761972
vt 0.985251 0.890645
vt 0.797435 0.176014
vt 0.613077 0.984864
vt 0.824447 0.591079
vt 0.827786 0.371802
vt 0.205403 0.821064
vn -1.0000 0.0000 0.0000
vn 0.0000 0.0000 -1.0000
vn 1.0000 0.0000 0.0000
vn 0.0000 0.0000 1.0000
vn 0.0000 -1.0000 0.0000
vn 0.0000 1.0000 0.0000
s off
f 2/1/1 3/2/1 1/3/1
f 4/4/2 7/5/2 3/6/2
f 8/7/3 5/8/3 7/9/3
f 6/10/4 1/11/4 5/12/4
f 7/13/5 1/14/5 3/15/5
f 4/16/6 6/17/6 8/18/6
f 2/1/1 4/19/1 3/2/1
f 4/4/2 8/20/2 7/5/2
f 8/7/3 6/21/3 5/8/3
f 6/10/4 2/22/4 1/11/4
f 7/13/5 5/23/5 1/14/5
f 4/16/6 2/24/6 6/17/6
