# Blender v3.0.1 OBJ File: 'Main.blend'
# www.blender.org
o Cube.5275_0366
v 1.893000 0.369000 -2.031000
v 1.893000 0.000000 -2.031000
v 1.875000 0.369000 -2.031000
v 1.875000 0.000000 -2.031000
v 1.893000 0.000000 -2.103000
v 1.893000 0.369000 -2.103000
v 1.875000 0.000000 -2.103000
v 1.875000 0.369000 -2.103000
v 1.893000 0.369000 -2.154000
v 1.893000 0.000000 -2.154000
v 1.875000 0.369000 -2.154000
v 1.875000 0.000000 -2.154000
v 1.893000 0.000000 -2.226000
v 1.893000 0.369000 -2.226000
v 1.875000 0.000000 -2.226000
v 1.875000 0.369000 -2.226000
v 1.893000 0.369000 -2.277000
v 1.893000 0.000000 -2.277000
v 1.875000 0.369000 -2.277000
v 1.875000 0.000000 -2.277000
v 1.893000 0.000000 -2.349000
v 1.893000 0.369000 -2.349000
v 1.875000 0.000000 -2.349000
v 1.875000 0.369000 -2.349000
v 1.893000 0.369000 -2.400000
v 1.893000 0.000000 -2.400000
v 1.875000 0.369000 -2.400000
v 1.875000 0.000000 -2.400000
v 1.893000 0.000000 -2.472000
v 1.893000 0.369000 -2.472000
v 1.875000 0.000000 -2.472000
v 1.875000 0.369000 -2.472000
v 1.893000 0.369000 -2.523000
v 1.893000 0.000000 -2.523000
v 1.875000 0.369000 -2.523000
v 1.875000 0.000000 -2.523000
v 1.893000 0.000000 -2.595000
v 1.893000 0.369000 -2.595000
v 1.875000 0.000000 -2.595000
v 1.875000 0.369000 -2.595000
v 1.893000 0.369000 -2.646000
v 1.893000 0.000000 -2.646000
v 1.875000 0.369000 -2.646000
v 1.875000 0.000000 -2.646000
v 1.893000 0.000000 -2.718000
v 1.893000 0.369000 -2.718000
v 1.875000 0.000000 -2.718000
v 1.875000 0.369000 -2.718000
v 1.893000 0.369000 -2.769000
v 1.893000 0.000000 -2.769000
v 1.875000 0.369000 -2.769000
v 1.875000 0.000000 -2.769000
v 1.893000 0.000000 -2.841000
v 1.893000 0.369000 -2.841000
v 1.875000 0.000000 -2.841000
v 1.875000 0.369000 -2.841000
vt 0.211294 0.901435
vt 0.210970 0.908094
vt 0.210970 0.901435
vt 0.361488 0.908199
vt 0.361163 0.901541
vt 0.361488 0.901541
vt 0.613269 0.951624
vt 0.612944 0.952922
vt 0.612944 0.951624
vt 0.851023 0.887744
vt 0.852321 0.894402
vt 0.851023 0.894402
vt 0.168442 0.951627
vt 0.168118 0.952925
vt 0.168118 0.951627
vt 0.253748 0.894356
vt 0.252450 0.887698
vt 0.253748 0.887698
vt 0.211294 0.901435
vt 0.210970 0.908094
vt 0.210970 0.901435
vt 0.361488 0.908199
vt 0.361163 0.901541
vt 0.361488 0.901541
vt 0.613269 0.951624
vt 0.612944 0.952922
vt 0.612944 0.951624
vt 0.851023 0.887744
vt 0.852321 0.894402
vt 0.851023 0.894402
vt 0.168442 0.951627
vt 0.168118 0.952925
vt 0.168118 0.951627
vt 0.253748 0.894356
vt 0.252450 0.887698
vt 0.253748 0.887698
vt 0.211294 0.901435
vt 0.210970 0.908094
vt 0.210970 0.901435
vt 0.361488 0.908199
vt 0.361163 0.901541
vt 0.361488 0.901541
vt 0.613269 0.951624
vt 0.612944 0.952922
vt 0.612944 0.951624
vt 0.851023 0.887744
vt 0.852321 0.894402
vt 0.851023 0.894402
vt 0.168442 0.951627
vt 0.168118 0.952925
vt 0.168118 0.951627
vt 0.253748 0.894356
vt 0.252450 0.887698
vt 0.253748 0.887698
vt 0.211294 0.901435
vt 0.210970 0.908094
vt 0.210970 0.901435
vt 0.361488 0.908199
vt 0.361163 0.901541
vt 0.361488 0.901541
vt 0.613269 0.951624
vt 0.612944 0.952922
vt 0.612944 0.951624
vt 0.851023 0.887744
vt 0.852321 0.894402
vt 0.851023 0.894402
vt 0.168442 0.951627
vt 0.168118 0.952925
vt 0.168118 0.951627
vt 0.253748 0.894356
vt 0.252450 0.887698
vt 0.253748 0.887698
vt 0.211294 0.901435
vt 0.210970 0.908094
vt 0.210970 0.901435
vt 0.361488 0.908199
vt 0.361163 0.901541
vt 0.361488 0.901541
vt 0.613269 0.951624
vt 0.612944 0.952922
vt 0.612944 0.951624
vt 0.851023 0.887744
vt 0.852321 0.894402
vt 0.851023 0.894402
vt 0.168442 0.951627
vt 0.168118 0.952925
vt 0.168118 0.951627
vt 0.253748 0.894356
vt 0.252450 0.887698
vt 0.253748 0.887698
vt 0.211294 0.901435
vt 0.210970 0.908094
vt 0.210970 0.901435
vt 0.361488 0.908199
vt 0.361163 0.901541
vt 0.361488 0.901541
vt 0.613269 0.951624
vt 0.612944 0.952922
vt 0.612944 0.951624
vt 0.851023 0.887744
vt 0.852321 0.894402
vt 0.851023 0.894402
vt 0.168442 0.951627
vt 0.168118 0.952925
vt 0.168118 0.951627
vt 0.253748 0.894356
vt 0.252450 0.887698
vt 0.253748 0.887698
vt 0.211294 0.901435
vt 0.210970 0.908094
vt 0.210970 0.901435
vt 0.361488 0.908199
vt 0.361163 0.901541
vt 0.361488 0.901541
vt 0.613269 0.951624
vt 0.612944 0.952922
vt 0.612944 0.951624
vt 0.851023 0.887744
vt 0.852321 0.894402
vt 0.851023 0.894402
vt 0.168442 0.951627
vt 0.168118 0.952925
vt 0.168118 0.951627
vt 0.253748 0.894356
vt 0.252450 0.887698
vt 0.253748 0.887698
vt 0.211294 0.908094
vt 0.361163 0.908199
vt 0.613269 0.952922
vt 0.852321 0.887744
vt 0.168442 0.952925
vt 0.252450 0.894356
vt 0.211294 0.908094
vt 0.361163 0.908199
vt 0.613269 0.952922
vt 0.852321 0.887744
vt 0.168442 0.952925
vt 0.252450 0.894356
vt 0.211294 0.908094
vt 0.361163 0.908199
vt 0.613269 0.952922
vt 0.852321 0.887744
vt 0.168442 0.952925
vt 0.252450 0.894356
vt 0.211294 0.908094
vt 0.361163 0.908199
vt 0.613269 0.952922
vt 0.852321 0.887744
vt 0.168442 0.952925
vt 0.252450 0.894356
vt 0.211294 0.908094
vt 0.361163 0.908199
vt 0.613269 0.952922
vt 0.852321 0.887744
vt 0.168442 0.952925
vt 0.252450 0.894356
vt 0.211294 0.908094
vt 0.361163 0.908199
vt 0.613269 0.952922
vt 0.852321 0.887744
vt 0.168442 0.952925
vt 0.252450 0.894356
vt 0.211294 0.908094
vt 0.361163 0.908199
vt 0.613269 0.952922
vt 0.852321 0.887744
vt 0.168442 0.952925
vt 0.252450 0.894356
vn 0.0000 0.0000 1.0000
vn 0.0000 0.0000 -1.0000
vn 0.0000 1.0000 0.0000
vn -1.0000 0.0000 0.0000
vn 0.0000 -1.0000 0.0000
vn 1.0000 0.0000 0.0000
s off
f 3/1/1 2/2/1 1/3/1
f 5/4/2 8/5/2 6/6/2
f 1/7/3 8/8/3 3/9/3
f 3/10/4 7/11/4 4/12/4
f 4/13/5 5/14/5 2/15/5
f 2/16/6 6/17/6 1/18/6
f 11/19/1 10/20/1 9/21/1
f 13/22/2 16/23/2 14/24/2
f 9/25/3 16/26/3 11/27/3
f 11/28/4 15/29/4 12/30/4
f 12/31/5 13/32/5 10/33/5
f 10/34/6 14/35/6 9/36/6
f 19/37/1 18/38/1 17/39/1
f 21/40/2 24/41/2 22/42/2
f 17/43/3 24/44/3 19/45/3
f 19/46/4 23/47/4 20/48/4
f 20/49/5 21/50/5 18/51/5
f 18/52/6 22/53/6 17/54/6
f 27/55/1 26/56/1 25/57/1
f 29/58/2 32/59/2 30/60/2
f 25/61/3 32/62/3 27/63/3
f 27/64/4 31/65/4 28/66/4
f 28/67/5 29/68/5 26/69/5
f 26/70/6 30/71/6 25/72/6
f 35/73/1 34/74/1 33/75/1
f 37/76/2 40/77/2 38/78/2
f 33/79/3 40/80/3 35/81/3
f 35/82/4 39/83/4 36/84/4
f 36/85/5 37/86/5 34/87/5
f 34/88/6 38/89/6 33/90/6
f 43/91/1 42/92/1 41/93/1
f 45/94/2 48/95/2 46/96/2
f 41/97/3 48/98/3 43/99/3
f 43/100/4 47/101/4 44/102/4
f 44/103/5 45/104/5 42/105/5
f 42/106/6 46/107/6 41/108/6
f 51/109/1 50/110/1 49/111/1
f 53/112/2 56/113/2 54/114/2
f 49/115/3 56/116/3 51/117/3
f 51/118/4 55/119/4 52/120/4
f 52/121/5 53/122/5 50/123/5
f 50/124/6 54/125/6 49/126/6
f 3/1/1 4/127/1 2/2/1
f 5/4/2 7/128/2 8/5/2
f 1/7/3 6/129/3 8/8/3
f 3/10/4 8/130/4 7/11/4
f 4/13/5 7/131/5 5/14/5
f 2/16/6 5/132/6 6/17/6
f 11/19/1 12/133/1 10/20/1
f 13/22/2 15/134/2 16/23/2
f 9/25/3 14/135/3 16/26/3
f 11/28/4 16/136/4 15/29/4
f 12/31/5 15/137/5 13/32/5
f 10/34/6 13/138/6 14/35/6
f 19/37/1 20/139/1 18/38/1
f 21/40/2 23/140/2 24/41/2
f 17/43/3 22/141/3 24/44/3
f 19/46/4 24/142/4 23/47/4
f 20/49/5 23/143/5 21/50/5
f 18/52/6 21/144/6 22/53/6
f 27/55/1 28/145/1 26/56/1
f 29/58/2 31/146/2 32/59/2
f 25/61/3 30/147/3 32/62/3
f 27/64/4 32/148/4 31/65/4
f 28/67/5 31/149/5 29/68/5
f 26/70/6 29/150/6 30/71/6
f 35/73/1 36/151/1 34/74/1
f 37/76/2 39/152/2 40/77/2
f 33/79/3 38/153/3 40/80/3
f 35/82/4 40/154/4 39/83/4
f 36/85/5 39/155/5 37/86/5
f 34/88/6 37/156/6 38/89/6
f 43/91/1 44/157/1 42/92/1
f 45/94/2 47/158/2 48/95/2
f 41/97/3 46/159/3 48/98/3
f 43/100/4 48/160/4 47/101/4
f 44/103/5 47/161/5 45/104/5
f 42/106/6 45/162/6 46/107/6
f 51/109/1 52/163/1 50/110/1
f 53/112/2 55/164/2 56/113/2
f 49/115/3 54/165/3 56/116/3
f 51/118/4 56/166/4 55/119/4
f 52/121/5 55/167/5 53/122/5
f 50/124/6 53/168/6 54/125/6
