# Blender v3.0.1 OBJ File: 'Main.blend'
# www.blender.org
o Cube.4426_0315
v 0.601500 0.375000 -1.057500
v 0.601500 0.375000 -1.072500
v 0.616500 0.375000 -1.057500
v 0.616500 0.375000 -1.072500
v 0.601500 0.459000 -1.057500
v 0.601500 0.459000 -1.072500
v 0.616500 0.459000 -1.057500
v 0.616500 0.459000 -1.072500
vt 0.154297 0.946725
vt 0.154568 0.945210
vt 0.154568 0.946725
vt 0.928190 0.855785
vt 0.927919 0.855515
vt 0.928190 0.855515
vt 0.967883 0.496781
vt 0.968153 0.496510
vt 0.968153 0.496781
vt 0.031408 0.946820
vt 0.031679 0.945305
vt 0.031679 0.946820
vt 0.946831 0.831235
vt 0.947102 0.829720
vt 0.947102 0.831235
vt 0.512121 0.946808
vt 0.512392 0.945292
vt 0.512392 0.946808
vt 0.154297 0.945210
vt 0.927919 0.855785
vt 0.967883 0.496510
vt 0.031408 0.945305
vt 0.946831 0.829720
vt 0.512121 0.945292
vn 0.0000 0.0000 1.0000
vn 0.0000 -1.0000 0.0000
vn 0.0000 1.0000 0.0000
vn 0.0000 0.0000 -1.0000
vn 1.0000 0.0000 0.0000
vn -1.0000 0.0000 0.0000
s off
f 3/1/1 5/2/1 1/3/1
f 2/4/2 3/5/2 1/6/2
f 6/7/3 7/8/3 8/9/3
f 2/10/4 8/11/4 4/12/4
f 4/13/5 7/14/5 3/15/5
f 1/16/6 6/17/6 2/18/6
f 3/1/1 7/19/1 5/2/1
f 2/4/2 4/20/2 3/5/2
f 6/7/3 5/21/3 7/8/3
f 2/10/4 6/22/4 8/11/4
f 4/13/5 8/23/5 7/14/5
f 1/16/6 5/24/6 6/17/6
