# Blender v3.0.1 OBJ File: 'Main.blend'
# www.blender.org
o Cube.5655_0215
v -1.430999 0.465000 0.318000
v -1.430999 0.465000 -0.369000
v -1.430999 0.366000 0.318000
v -1.430999 0.366000 -0.369000
v -1.253999 0.465000 0.318000
v -1.253999 0.465000 -0.369000
v -1.259999 0.366000 0.318000
v -1.259999 0.366000 -0.369000
v -1.262999 0.379500 -0.369000
v -1.262999 0.462000 0.318000
v -1.256999 0.379500 -0.369000
v -1.256999 0.462000 0.318000
v -1.253999 0.433500 0.318000
v -1.259999 0.372750 -0.369000
v -1.259999 0.372750 0.318000
v -1.250999 0.433500 0.318000
v -1.258499 0.372750 -0.369000
v -1.258499 0.379500 -0.369000
v -1.258499 0.379500 0.318000
v -1.253999 0.462000 -0.369000
v -1.256999 0.379500 -0.369000
v -1.256999 0.417000 -0.369000
v -1.253999 0.462000 0.318000
v -1.256999 0.417000 0.318000
v -1.256999 0.379500 0.318000
v -1.253999 0.433500 -0.369000
v -1.247999 0.433500 -0.369000
v -1.247999 0.430500 -0.369000
v -1.250999 0.429600 -0.369000
v -1.252799 0.427800 -0.369000
v -1.253399 0.426000 -0.369000
v -1.252799 0.423900 -0.369000
v -1.250999 0.423000 -0.369000
v -1.250399 0.422100 -0.369000
v -1.250999 0.421200 -0.369000
v -1.252799 0.420300 -0.369000
v -1.252799 0.417000 -0.369000
v -1.247999 0.433500 0.318000
v -1.247999 0.430500 0.318000
v -1.250999 0.429600 0.318000
v -1.252799 0.427800 0.318000
v -1.253399 0.426000 0.318000
v -1.252799 0.423900 0.318000
v -1.250999 0.423000 0.318000
v -1.250399 0.422100 0.318000
v -1.250999 0.421200 0.318000
v -1.252799 0.420300 0.318000
v -1.252799 0.417000 0.318000
v -1.258499 0.372750 0.318000
vt 0.868777 0.573546
vt 0.866990 0.585943
vt 0.866990 0.573546
vt 0.886012 0.877710
vt 0.886134 0.865313
vt 0.886134 0.877710
vt 0.646018 0.848270
vt 0.642957 0.860666
vt 0.642957 0.848270
vt 0.175917 0.848034
vt 0.179090 0.860433
vt 0.175917 0.860415
vt 0.506876 0.162692
vt 0.506930 0.162530
vt 0.506930 0.162638
vt 0.513474 0.162714
vt 0.513577 0.162692
vt 0.513507 0.162746
vt 0.886538 0.147605
vt 0.886484 0.147605
vt 0.886431 0.147605
vt 0.147756 0.868808
vt 0.148270 0.881205
vt 0.147756 0.881205
vt 0.878651 0.536472
vt 0.879328 0.548869
vt 0.878651 0.548869
vt 0.147702 0.868808
vt 0.147702 0.881205
vt 0.887935 0.251032
vt 0.887908 0.238635
vt 0.887935 0.238635
vt 0.886865 0.535721
vt 0.886828 0.548118
vt 0.886828 0.535721
vt 0.886633 0.302603
vt 0.886688 0.290207
vt 0.886688 0.302603
vt 0.887518 0.749321
vt 0.887552 0.736924
vt 0.887552 0.749321
vt 0.887813 0.817369
vt 0.887847 0.804988
vt 0.887847 0.817369
vt 0.886724 0.290207
vt 0.886724 0.302603
vt 0.887028 0.651603
vt 0.886969 0.664000
vt 0.886969 0.651603
vt 0.886431 0.135224
vt 0.887609 0.615137
vt 0.887592 0.627534
vt 0.887592 0.615137
vt 0.886898 0.535721
vt 0.886865 0.548118
vt 0.886826 0.205505
vt 0.886752 0.217902
vt 0.886752 0.205505
vt 0.887213 0.054521
vt 0.887160 0.066918
vt 0.887160 0.054521
vt 0.887576 0.627534
vt 0.887576 0.615137
vt 0.886264 0.680084
vt 0.886386 0.667687
vt 0.886386 0.680084
vt 0.506930 0.162692
vt 0.887936 0.568728
vt 0.887909 0.581125
vt 0.887909 0.568728
vt 0.963015 0.972351
vt 0.963015 0.972244
vt 0.963015 0.972270
vt 0.507580 0.162702
vt 0.507547 0.162714
vt 0.507444 0.162692
vt 0.868777 0.585943
vt 0.886012 0.865313
vt 0.646018 0.860666
vt 0.179090 0.848053
vt 0.513405 0.162714
vt 0.513387 0.162746
vt 0.513355 0.162746
vt 0.513371 0.162757
vt 0.513339 0.162714
vt 0.513279 0.162714
vt 0.513279 0.162638
vt 0.512603 0.162638
vt 0.512603 0.162638
vt 0.512603 0.162530
vt 0.512603 0.162611
vt 0.512481 0.162584
vt 0.512481 0.162611
vt 0.513442 0.162702
vt 0.512359 0.162584
vt 0.512359 0.159498
vt 0.514145 0.159498
vt 0.514145 0.162692
vt 0.514092 0.162692
vt 0.513577 0.162800
vt 0.513523 0.162800
vt 0.148270 0.868808
vt 0.879328 0.536472
vt 0.887908 0.251032
vt 0.886633 0.290207
vt 0.887518 0.736924
vt 0.887813 0.804988
vt 0.887028 0.664000
vt 0.886538 0.135225
vt 0.887609 0.627534
vt 0.886898 0.548118
vt 0.886826 0.217902
vt 0.887213 0.066918
vt 0.886264 0.667687
vt 0.887936 0.581125
vt 0.963015 0.972244
vt 0.506876 0.159498
vt 0.508662 0.159498
vt 0.507742 0.162638
vt 0.508662 0.162584
vt 0.508541 0.162584
vt 0.508541 0.162611
vt 0.508419 0.162611
vt 0.507499 0.162800
vt 0.507444 0.162800
vt 0.507444 0.162746
vt 0.507515 0.162746
vt 0.508419 0.162638
vt 0.507742 0.162714
vt 0.507683 0.162714
vt 0.507666 0.162746
vt 0.507618 0.162714
vt 0.507650 0.162757
vt 0.507634 0.162746
vn -1.0000 0.0000 0.0000
vn 1.0000 0.0000 -0.0000
vn 0.0000 -1.0000 0.0000
vn 0.0000 1.0000 -0.0000
vn 0.0000 0.0000 1.0000
vn 0.0000 0.0000 -1.0000
vn 0.0000 0.9677 0.2520
vn 0.9615 0.2747 0.0000
vn 0.2873 -0.9578 0.0000
vn 0.4472 -0.8944 0.0000
vn 0.4472 0.8944 0.0000
vn 0.7071 -0.7071 0.0000
vn 0.8320 0.5548 0.0000
vn 0.9487 -0.3162 0.0000
vn 0.8321 -0.5546 0.0000
vn -0.0001 0.0000 1.0000
vn -0.0001 0.0000 -1.0000
vn 0.8321 0.5546 0.0000
vn 0.8320 -0.5548 0.0000
vn -0.0002 0.0000 1.0000
s off
f 4/1/1 1/2/1 2/3/1
f 14/4/2 7/5/2 8/6/2
f 3/7/3 8/8/3 7/9/3
f 1/10/4 6/11/4 2/12/4
f 5/13/5 10/14/5 12/15/5
f 30/16/6 26/17/6 29/18/6
f 13/19/7 16/20/7 38/21/7
f 23/22/2 26/23/2 20/24/2
f 24/25/2 21/26/2 22/27/2
f 5/28/2 20/24/2 6/29/2
f 18/30/3 25/31/3 19/32/3
f 31/33/8 43/34/8 32/35/8
f 28/36/9 40/37/9 29/38/9
f 35/39/10 47/40/10 36/41/10
f 32/42/11 44/43/11 33/44/11
f 29/38/12 41/45/12 30/46/12
f 36/47/2 48/48/2 37/49/2
f 27/50/4 13/19/4 38/21/4
f 33/51/13 45/52/13 34/53/13
f 30/54/14 42/55/14 31/33/14
f 37/56/3 24/57/3 22/58/3
f 27/59/2 39/60/2 28/61/2
f 34/53/15 46/62/15 35/63/15
f 18/64/2 49/65/2 17/66/2
f 5/13/5 12/15/5 23/67/5
f 15/68/3 17/69/3 49/70/3
f 9/71/5 21/72/5 18/73/5
f 42/74/16 41/75/16 13/76/16
f 4/1/1 3/77/1 1/2/1
f 14/4/2 15/78/2 7/5/2
f 3/7/3 4/79/3 8/8/3
f 1/10/4 5/80/4 6/11/4
f 32/81/6 33/82/6 35/83/6
f 33/82/6 34/84/6 35/83/6
f 35/83/6 36/85/6 32/81/6
f 36/85/6 37/86/6 22/87/6
f 22/87/5 21/88/5 11/89/5
f 9/90/6 18/91/6 14/92/6
f 18/91/6 17/93/6 14/92/6
f 22/87/6 11/89/6 9/90/6
f 32/81/6 36/85/6 22/87/6
f 31/94/6 32/81/6 22/87/6
f 30/16/17 31/94/17 26/17/17
f 31/94/6 22/87/6 26/17/6
f 9/90/6 14/92/6 8/95/6
f 9/90/6 8/95/6 4/96/6
f 4/96/6 2/97/6 22/87/6
f 2/97/6 6/98/6 20/99/6
f 22/87/6 2/97/6 26/17/6
f 20/99/6 26/17/6 2/97/6
f 9/90/6 4/96/6 22/87/6
f 26/17/6 27/100/6 29/18/6
f 27/100/6 28/101/6 29/18/6
f 23/22/2 13/102/2 26/23/2
f 24/25/2 25/103/2 21/26/2
f 5/28/2 23/22/2 20/24/2
f 18/30/3 21/104/3 25/31/3
f 31/33/8 42/55/8 43/34/8
f 28/36/9 39/105/9 40/37/9
f 35/39/10 46/106/10 47/40/10
f 32/42/11 43/107/11 44/43/11
f 29/38/12 40/37/12 41/45/12
f 36/47/2 47/108/2 48/48/2
f 27/50/4 26/109/4 13/19/4
f 33/51/18 44/110/18 45/52/18
f 30/54/14 41/111/14 42/55/14
f 37/56/3 48/112/3 24/57/3
f 27/59/2 38/113/2 39/60/2
f 34/53/19 45/52/19 46/62/19
f 18/64/2 19/114/2 49/65/2
f 15/68/3 14/115/3 17/69/3
f 9/71/5 11/116/5 21/72/5
f 1/117/5 3/118/5 24/119/5
f 3/118/5 7/120/5 15/121/5
f 15/121/5 49/122/5 19/123/5
f 3/118/5 15/121/5 19/123/5
f 10/14/5 5/13/5 1/117/5
f 13/76/5 23/67/5 12/15/5
f 10/14/5 1/117/5 24/119/5
f 3/118/5 19/123/5 24/119/5
f 13/76/5 12/15/5 10/14/5
f 39/124/5 38/125/5 16/126/5
f 39/124/5 16/126/5 40/127/5
f 16/126/16 13/76/16 40/127/16
f 19/123/5 25/128/5 24/119/5
f 24/119/16 48/129/16 47/130/16
f 47/130/5 46/131/5 43/132/5
f 46/131/5 45/133/5 44/134/5
f 43/132/5 46/131/5 44/134/5
f 24/119/16 47/130/16 43/132/16
f 24/119/5 43/132/5 42/74/5
f 13/76/5 10/14/5 24/119/5
f 41/75/5 40/127/5 13/76/5
f 24/119/20 42/74/20 13/76/20
