# Blender v3.0.1 OBJ File: 'Main.blend'
# www.blender.org
o Cube.5402_0101
v -1.858500 -0.000000 3.465000
v -1.858500 0.366000 3.465000
v -1.858500 -0.000000 3.426000
v -1.858500 0.366000 3.426000
v -1.878000 -0.000000 3.465000
v -1.878000 0.366000 3.465000
v -1.878000 -0.000000 3.426000
v -1.878000 0.366000 3.426000
v -1.902000 -0.000000 3.372000
v -1.902000 0.366000 3.372000
v -1.932000 -0.000000 3.426000
v -1.932000 0.366000 3.426000
v -1.932000 -0.000000 3.372000
v -1.932000 0.366000 3.372000
v -1.834500 -0.000000 3.465000
v -1.834500 0.366000 3.465000
v -1.834500 -0.000000 3.426000
v -1.834500 0.366000 3.426000
vt 0.534099 0.895191
vt 0.534099 0.901796
vt 0.534533 0.901796
vt 0.195177 0.903113
vt 0.195177 0.896508
vt 0.194475 0.896508
vt 0.470763 0.898320
vt 0.470763 0.891715
vt 0.469788 0.891715
vt 0.533747 0.895191
vt 0.318877 0.873021
vt 0.318877 0.879625
vt 0.319216 0.879625
vt 0.317625 0.873021
vt 0.317625 0.879625
vt 0.758621 0.898483
vt 0.758621 0.891879
vt 0.757647 0.891879
vt 0.863442 0.776754
vt 0.863662 0.776479
vt 0.862893 0.776315
vt 0.858599 0.233023
vt 0.859697 0.232837
vt 0.859359 0.232414
vt 0.316805 0.873021
vt 0.316805 0.879625
vt 0.317353 0.879625
vt 0.863112 0.776040
vt 0.863931 0.776141
vt 0.317353 0.873021
vt 0.859428 0.234059
vt 0.858878 0.234498
vt 0.859149 0.234837
vt 0.534533 0.895191
vt 0.194475 0.903113
vt 0.469788 0.898320
vt 0.533747 0.901796
vt 0.319216 0.873021
vt 0.757647 0.898483
vt 0.863931 0.777701
vt 0.862833 0.777516
vt 0.863593 0.778123
vt 0.859208 0.233784
vt 0.858658 0.234224
vt 0.863383 0.775702
vt 0.859697 0.234397
vn 0.0000 0.0000 1.0000
vn -1.0000 0.0000 0.0000
vn 0.0000 0.0000 -1.0000
vn 0.7788 0.0000 -0.6273
vn 0.0000 -1.0000 0.0000
vn 0.0000 1.0000 0.0000
vn 1.0000 0.0000 0.0000
s off
f 2/1/1 1/2/1 15/3/1
f 5/4/2 6/5/2 8/6/2
f 7/7/1 8/8/1 12/9/1
f 1/2/1 2/1/1 6/10/1
f 10/11/3 9/12/3 13/13/3
f 4/14/4 3/15/4 9/12/4
f 11/16/2 12/17/2 14/18/2
f 7/19/5 3/20/5 5/21/5
f 12/22/6 10/23/6 14/24/6
f 16/25/7 15/26/7 17/27/7
f 1/28/5 3/20/5 17/29/5
f 3/15/3 4/14/3 18/30/3
f 4/31/6 2/32/6 16/33/6
f 2/1/1 15/3/1 16/34/1
f 5/4/2 8/6/2 7/35/2
f 7/7/1 12/9/1 11/36/1
f 1/2/1 6/10/1 5/37/1
f 10/11/3 13/13/3 14/38/3
f 4/14/4 9/12/4 10/11/4
f 11/16/2 14/18/2 13/39/2
f 5/21/5 3/20/5 1/28/5
f 3/20/5 7/19/5 9/40/5
f 9/40/5 11/41/5 13/42/5
f 7/19/5 11/41/5 9/40/5
f 10/23/6 8/43/6 4/31/6
f 4/31/6 8/43/6 2/32/6
f 2/32/6 8/43/6 6/44/6
f 8/43/6 10/23/6 12/22/6
f 16/25/7 17/27/7 18/30/7
f 1/28/5 17/29/5 15/45/5
f 3/15/3 18/30/3 17/27/3
f 4/31/6 16/33/6 18/46/6
