# Blender v3.0.1 OBJ File: 'Main.blend'
# www.blender.org
o Cube.5239_0092
v -1.200000 0.368511 -2.656967
v -1.200000 0.348042 -2.673142
v -1.200000 0.385309 -2.637258
v -1.200000 0.348042 -2.456857
v -1.194000 0.348042 -2.456857
v -1.194000 0.368511 -2.473032
v -1.200000 0.368511 -2.473032
v -1.200000 0.397791 -2.614772
v -1.194000 0.385309 -2.492741
v -1.200000 0.385309 -2.492741
v -1.194000 0.397791 -2.515227
v -1.200000 0.397791 -2.515227
v -1.200000 0.405477 -2.539626
v -1.200000 0.405477 -2.590374
v -1.194000 0.405477 -2.539626
v -1.200000 0.408073 -2.565000
v -1.194000 0.408073 -2.565000
v -1.194000 0.368511 -2.656967
v -1.194000 0.348042 -2.673142
v -1.194000 0.405477 -2.590374
v -1.194000 0.385309 -2.637258
v -1.194000 0.397791 -2.614772
v -1.200000 0.333747 -2.449500
v -1.200000 0.414000 -2.449500
v -1.194000 0.414000 -2.449500
v -1.194000 0.333747 -2.449500
v -1.200000 0.333748 -2.680500
v -1.200000 0.414000 -2.680500
v -1.194000 0.414000 -2.680500
v -1.194000 0.333748 -2.680500
vt 0.679572 0.460206
vt 0.679464 0.462291
vt 0.679464 0.458121
vt 0.926399 0.516246
vt 0.926507 0.520416
vt 0.926399 0.520416
vt 0.401308 0.905784
vt 0.401355 0.906243
vt 0.401200 0.907869
vt 0.956935 0.446192
vt 0.957043 0.444744
vt 0.957043 0.446192
vt 0.537695 0.957021
vt 0.537587 0.955572
vt 0.537695 0.955572
vt 0.680655 0.462157
vt 0.680913 0.462291
vt 0.680913 0.458121
vt 0.680655 0.458254
vt 0.680285 0.458545
vt 0.680285 0.461863
vt 0.679983 0.461508
vt 0.679983 0.458900
vt 0.679757 0.459308
vt 0.679757 0.461103
vt 0.679619 0.460664
vt 0.679619 0.459748
vt 0.926507 0.516246
vt 0.401200 0.903699
vt 0.402649 0.903699
vt 0.402391 0.903833
vt 0.402021 0.904123
vt 0.402391 0.907736
vt 0.402649 0.907869
vt 0.402021 0.907442
vt 0.401719 0.904478
vt 0.401493 0.904887
vt 0.401719 0.907086
vt 0.401493 0.906682
vt 0.401355 0.905326
vt 0.956935 0.444744
vt 0.537587 0.957021
vn -1.0000 0.0000 0.0000
vn 0.0000 1.0000 0.0000
vn 1.0000 0.0000 0.0000
vn 0.0000 0.0000 1.0000
vn 0.0000 0.0000 -1.0000
s off
f 16/1/1 24/2/1 28/3/1
f 24/4/2 29/5/2 28/6/2
f 17/7/3 20/8/3 29/9/3
f 26/10/4 24/11/4 23/12/4
f 30/13/5 28/14/5 29/15/5
f 4/16/1 23/17/1 24/2/1
f 28/3/1 27/18/1 2/19/1
f 28/3/1 2/19/1 1/20/1
f 7/21/1 4/16/1 24/2/1
f 10/22/1 7/21/1 24/2/1
f 28/3/1 1/20/1 3/23/1
f 28/3/1 3/23/1 8/24/1
f 12/25/1 10/22/1 24/2/1
f 13/26/1 12/25/1 24/2/1
f 28/3/1 8/24/1 14/27/1
f 16/1/1 13/26/1 24/2/1
f 28/3/1 14/27/1 16/1/1
f 24/4/2 25/28/2 29/5/2
f 25/29/3 26/30/3 5/31/3
f 25/29/3 5/31/3 6/32/3
f 19/33/3 30/34/3 29/9/3
f 18/35/3 19/33/3 29/9/3
f 25/29/3 6/32/3 9/36/3
f 25/29/3 9/36/3 11/37/3
f 21/38/3 18/35/3 29/9/3
f 22/39/3 21/38/3 29/9/3
f 25/29/3 11/37/3 15/40/3
f 25/29/3 15/40/3 17/7/3
f 20/8/3 22/39/3 29/9/3
f 29/9/3 25/29/3 17/7/3
f 26/10/4 25/41/4 24/11/4
f 30/13/5 27/42/5 28/14/5
