# Blender v3.0.1 OBJ File: 'Main.blend'
# www.blender.org
o Cube.5639_0193
v 1.451247 0.849068 0.287192
v 1.451247 0.849068 0.191936
v 1.451247 0.849068 0.058455
v 1.451247 0.849068 0.156977
v 1.451247 0.849068 0.023495
v 1.451247 0.849068 -0.075026
v 1.451247 0.849068 -0.208508
v 1.451247 0.849068 -0.109986
v 1.451247 0.849068 -0.338726
v 1.451247 0.849068 -0.243467
v 1.443748 0.849069 0.287192
v 1.443748 0.849069 0.058455
v 1.443748 0.849069 0.156977
v 1.443748 0.849069 0.191936
v 1.443748 0.849069 0.023495
v 1.443748 0.849069 -0.075026
v 1.443748 0.849069 -0.109986
v 1.443748 0.849069 -0.338726
v 1.443748 0.849069 -0.243467
v 1.443748 0.849069 -0.208508
v 1.443748 0.852247 -0.075026
v 1.443748 0.917080 -0.075026
v 1.443748 0.920259 -0.075026
v 1.443748 0.985092 -0.075026
v 1.443748 0.988270 -0.075026
v 1.443748 1.053104 -0.075026
v 1.443748 1.056282 -0.075026
v 1.451247 0.920258 -0.075026
v 1.451247 1.056282 -0.075026
v 1.451247 0.852247 -0.075026
v 1.451247 0.917080 -0.075026
v 1.451247 0.985092 -0.075026
v 1.451247 0.988270 -0.075026
v 1.451247 1.053104 -0.075026
v 1.443748 0.852247 0.286898
v 1.443748 0.852247 0.058455
v 1.443748 0.852247 0.156977
v 1.443748 0.852247 0.191936
v 1.443748 0.852247 0.023495
v 1.443748 0.852247 -0.109986
v 1.443748 0.852247 -0.338432
v 1.443748 0.852247 -0.243467
v 1.443748 0.852247 -0.208508
v 1.443748 0.917080 -0.109986
v 1.443748 0.920259 -0.109986
v 1.443748 0.985092 -0.109986
v 1.443748 0.988270 -0.109986
v 1.443748 1.053104 -0.109986
v 1.443748 1.056282 -0.109986
v 1.451247 0.852247 0.286898
v 1.451247 0.852247 0.191936
v 1.451247 0.852247 0.058455
v 1.451247 0.852247 0.156977
v 1.451247 0.852247 0.023495
v 1.451247 0.852247 -0.208508
v 1.451247 0.852247 -0.109986
v 1.451247 0.852247 -0.338432
v 1.451247 0.920258 -0.109986
v 1.451247 1.056282 -0.109986
v 1.451247 0.852247 -0.243467
v 1.451247 0.917080 -0.109986
v 1.451247 0.985092 -0.109986
v 1.451247 0.988270 -0.109986
v 1.451247 1.053104 -0.109986
v 1.443748 0.917080 -0.208508
v 1.443748 0.920259 -0.208508
v 1.443748 0.985092 -0.208508
v 1.443748 0.988270 -0.208508
v 1.443748 1.053104 -0.208508
v 1.443748 1.056282 -0.208508
v 1.451247 1.056282 -0.208508
v 1.451247 0.917080 -0.208508
v 1.451247 0.920258 -0.208508
v 1.451247 0.985092 -0.208508
v 1.451247 0.988270 -0.208508
v 1.451247 1.053104 -0.208508
v 1.443748 0.917080 -0.243467
v 1.443748 0.920259 -0.243467
v 1.443748 0.985092 -0.243467
v 1.443748 0.988270 -0.243467
v 1.451247 0.917080 -0.243467
v 1.451247 0.920258 -0.243467
v 1.451247 0.985092 -0.243467
v 1.451247 0.988270 -0.243467
v 1.443748 0.917080 0.023495
v 1.443748 0.920259 0.023495
v 1.443748 0.985092 0.023495
v 1.443748 0.988270 0.023495
v 1.443748 1.053104 0.023495
v 1.443748 1.056282 0.023495
v 1.451247 0.917080 0.268953
v 1.451247 0.917080 0.191936
v 1.451247 0.917080 0.023495
v 1.451247 0.917080 0.058455
v 1.451247 0.917080 0.156977
v 1.451247 0.917080 -0.320487
v 1.451247 0.920258 0.023495
v 1.451247 1.056282 0.023495
v 1.451247 0.985092 0.023495
v 1.451247 0.988270 0.023495
v 1.451247 1.053104 0.023495
v 1.443748 0.917080 0.268953
v 1.443748 0.917080 0.191936
v 1.443748 0.917080 0.156977
v 1.443748 0.917080 0.058455
v 1.451247 0.920258 0.058455
v 1.451247 0.988270 0.058455
v 1.451247 1.056282 0.058455
v 1.451247 0.985092 0.058455
v 1.451247 1.053104 0.058455
v 1.443748 0.917080 -0.320487
v 1.443748 0.920259 0.058455
v 1.443748 0.985092 0.058455
v 1.443748 1.053104 0.058455
v 1.443748 0.988270 0.058455
v 1.443748 1.056282 0.058455
v 1.443748 0.920259 0.156977
v 1.443748 0.985092 0.156977
v 1.443748 0.988270 0.156977
v 1.443748 1.053104 0.156977
v 1.443748 1.056282 0.156977
v 1.451247 1.053104 0.156977
v 1.451247 1.056282 0.156977
v 1.443748 0.920259 0.267476
v 1.443748 0.920259 0.191936
v 1.443748 0.920259 -0.319010
v 1.451247 0.988270 0.156977
v 1.451247 0.920258 0.156977
v 1.451247 0.985092 0.156977
v 1.451247 0.988270 0.191936
v 1.451247 0.920258 0.191936
v 1.451247 0.985092 0.191936
v 1.451247 0.920258 0.267476
v 1.451247 0.920258 -0.319010
v 1.443748 0.985092 0.191936
v 1.443748 0.988270 0.191936
v 1.451247 0.985092 0.231577
v 1.451247 0.988270 0.229358
v 1.443748 0.985092 0.231577
v 1.443748 0.988270 0.229358
v 1.451247 0.988270 -0.280892
v 1.451247 0.985092 -0.283110
v 1.443748 0.985092 -0.283110
v 1.443748 0.988270 -0.280892
vt 0.055252 0.946348
vt 0.055252 0.948027
vt 0.055387 0.948027
vt 0.296448 0.947554
vt 0.296448 0.945876
vt 0.296312 0.945876
vt 0.554785 0.948056
vt 0.554785 0.946378
vt 0.554649 0.946378
vt 0.948913 0.766398
vt 0.948913 0.768020
vt 0.949049 0.768020
vt 0.948891 0.811309
vt 0.948891 0.812931
vt 0.949026 0.812931
vt 0.947561 0.707229
vt 0.947561 0.705551
vt 0.947426 0.705551
vt 0.949226 0.157217
vt 0.949226 0.155600
vt 0.949091 0.155600
vt 0.865857 0.949189
vt 0.865857 0.947571
vt 0.865722 0.947571
vt 0.113187 0.948583
vt 0.113187 0.946906
vt 0.113052 0.946906
vt 0.508068 0.946900
vt 0.507932 0.946900
vt 0.507932 0.948578
vt 0.855234 0.949899
vt 0.855234 0.951577
vt 0.855288 0.951577
vt 0.951346 0.501899
vt 0.951346 0.500221
vt 0.951291 0.500221
vt 0.954577 0.829618
vt 0.954577 0.831235
vt 0.954631 0.831235
vt 0.951359 0.907534
vt 0.951359 0.905856
vt 0.951305 0.905856
vt 0.954844 0.468846
vt 0.954898 0.468851
vt 0.954898 0.467229
vt 0.245295 0.952204
vt 0.245295 0.950527
vt 0.245241 0.950527
vt 0.063676 0.954907
vt 0.063730 0.954912
vt 0.063730 0.953290
vt 0.537641 0.951876
vt 0.537641 0.950198
vt 0.537587 0.950198
vt 0.951351 0.861984
vt 0.951351 0.860305
vt 0.951296 0.860305
vt 0.954660 0.102478
vt 0.954660 0.104095
vt 0.954715 0.104095
vt 0.947585 0.932814
vt 0.947585 0.931136
vt 0.947450 0.931136
vt 0.265877 0.947921
vt 0.266013 0.947921
vt 0.266013 0.946243
vt 0.958405 0.916530
vt 0.958405 0.917842
vt 0.958540 0.917842
vt 0.958640 0.890063
vt 0.958505 0.890063
vt 0.958505 0.891374
vt 0.947699 0.376883
vt 0.947834 0.376883
vt 0.947834 0.375205
vt 0.286628 0.946801
vt 0.286628 0.948478
vt 0.286763 0.948478
vt 0.947485 0.434186
vt 0.947485 0.432507
vt 0.947350 0.432507
vt 0.221954 0.958882
vt 0.222089 0.958882
vt 0.222089 0.957596
vt 0.638503 0.946625
vt 0.638368 0.946625
vt 0.638368 0.948303
vt 0.958771 0.789367
vt 0.958771 0.790653
vt 0.958907 0.790653
vt 0.851483 0.949899
vt 0.851483 0.951577
vt 0.851537 0.951577
vt 0.082373 0.950328
vt 0.082320 0.950328
vt 0.082320 0.952006
vt 0.441966 0.959085
vt 0.441966 0.960372
vt 0.442019 0.960372
vt 0.952449 0.681966
vt 0.952503 0.681966
vt 0.952503 0.680288
vt 0.960162 0.013846
vt 0.960108 0.013846
vt 0.960108 0.015132
vt 0.952690 0.022547
vt 0.952690 0.020869
vt 0.952636 0.020869
vt 0.447105 0.960372
vt 0.447105 0.959060
vt 0.447051 0.959085
vt 0.279408 0.950285
vt 0.279408 0.951962
vt 0.279462 0.951962
vt 0.960141 0.206853
vt 0.960087 0.206853
vt 0.960087 0.208140
vt 0.190183 0.952005
vt 0.190183 0.950327
vt 0.190129 0.950327
vt 0.923531 0.981579
vt 0.923531 0.982254
vt 0.923666 0.982254
vt 0.948141 0.131451
vt 0.948141 0.129773
vt 0.948006 0.129773
vt 0.947357 0.789212
vt 0.947357 0.790890
vt 0.947492 0.790890
vt 0.947601 0.715178
vt 0.947601 0.713500
vt 0.947466 0.713500
vt 0.740085 0.981574
vt 0.739950 0.981574
vt 0.739950 0.982249
vt 0.222089 0.946847
vt 0.221954 0.946847
vt 0.221954 0.948525
vt 0.063809 0.982111
vt 0.063674 0.982111
vt 0.063674 0.982747
vt 0.068013 0.947371
vt 0.068148 0.947371
vt 0.068148 0.945693
vt 0.948291 0.687304
vt 0.948156 0.687304
vt 0.948156 0.688981
vt 0.101406 0.982134
vt 0.101406 0.982770
vt 0.101541 0.982770
vt 0.951623 0.422694
vt 0.951677 0.422694
vt 0.951677 0.421016
vt 0.952359 0.616867
vt 0.952359 0.616192
vt 0.952306 0.616229
vt 0.952321 0.653961
vt 0.952267 0.653961
vt 0.952267 0.655639
vt 0.291492 0.952498
vt 0.291492 0.950820
vt 0.291438 0.950820
vt 0.982946 0.492564
vt 0.983000 0.492602
vt 0.983000 0.491927
vt 0.044838 0.951050
vt 0.044838 0.952728
vt 0.044892 0.952728
vt 0.983039 0.725544
vt 0.983039 0.724869
vt 0.982986 0.724906
vt 0.679128 0.950903
vt 0.679128 0.952580
vt 0.679182 0.952580
vt 0.149002 0.982233
vt 0.148948 0.982233
vt 0.148948 0.982871
vt 0.895099 0.952151
vt 0.895099 0.950472
vt 0.895045 0.950472
vt 0.168253 0.947930
vt 0.168253 0.946252
vt 0.168118 0.946252
vt 0.947312 0.139907
vt 0.947312 0.141585
vt 0.947448 0.141585
vt 0.214835 0.946111
vt 0.214835 0.947789
vt 0.214970 0.947789
vt 0.859233 0.946878
vt 0.859098 0.946878
vt 0.859098 0.948555
vt 0.947269 0.871083
vt 0.947404 0.871083
vt 0.947404 0.869405
vt 0.587701 0.946906
vt 0.587566 0.946906
vt 0.587566 0.948583
vt 0.951301 0.924619
vt 0.951356 0.924619
vt 0.951356 0.922940
vt 0.667154 0.950327
vt 0.667100 0.950327
vt 0.667100 0.952006
vt 0.200837 0.952451
vt 0.200890 0.952451
vt 0.200890 0.950773
vt 0.068148 0.952746
vt 0.068148 0.951068
vt 0.068095 0.951068
vt 0.951892 0.131451
vt 0.951892 0.129773
vt 0.951838 0.129773
vt 0.952311 0.509276
vt 0.952311 0.507597
vt 0.952258 0.507597
vt 0.809112 0.992527
vt 0.809058 0.992527
vt 0.809058 0.992662
vt 0.993039 0.415560
vt 0.992985 0.415560
vt 0.992985 0.415695
vt 0.051621 0.991931
vt 0.051567 0.991931
vt 0.051567 0.992066
vt 0.044737 0.992667
vt 0.044791 0.992667
vt 0.044791 0.992531
vt 0.402650 0.993408
vt 0.402650 0.993272
vt 0.402597 0.993272
vt 0.993213 0.924219
vt 0.993213 0.924084
vt 0.993159 0.924084
vt 0.837509 0.992869
vt 0.837509 0.992734
vt 0.837454 0.992734
vt 0.993401 0.710522
vt 0.993401 0.710657
vt 0.993455 0.710657
vt 0.302041 0.992556
vt 0.301986 0.992556
vt 0.301986 0.992691
vt 0.993099 0.403297
vt 0.993045 0.403297
vt 0.993045 0.403432
vt 0.560326 0.992094
vt 0.560271 0.992094
vt 0.560271 0.992230
vt 0.992888 0.467989
vt 0.992942 0.467989
vt 0.992942 0.467854
vt 0.672458 0.992824
vt 0.672458 0.992959
vt 0.672512 0.992959
vt 0.662144 0.993446
vt 0.662144 0.993311
vt 0.662090 0.993311
vt 0.312523 0.993395
vt 0.312523 0.993259
vt 0.312470 0.993259
vt 0.427536 0.992602
vt 0.427536 0.992737
vt 0.427590 0.992737
vt 0.361271 0.993199
vt 0.361271 0.993334
vt 0.361324 0.993334
vt 0.789924 0.993162
vt 0.789924 0.993297
vt 0.789978 0.993297
vt 0.993134 0.706261
vt 0.993134 0.706397
vt 0.993187 0.706397
vt 0.992467 0.462238
vt 0.992521 0.462238
vt 0.992521 0.462102
vt 0.992485 0.563175
vt 0.992431 0.563175
vt 0.992431 0.563310
vt 0.992147 0.068088
vt 0.992092 0.068088
vt 0.992092 0.068223
vt 0.992093 0.042230
vt 0.992039 0.042230
vt 0.992039 0.042365
vt 0.500852 0.993320
vt 0.500852 0.993456
vt 0.500906 0.993456
vt 0.803597 0.992815
vt 0.803597 0.992950
vt 0.803651 0.992950
vt 0.474012 0.993093
vt 0.474012 0.993228
vt 0.474066 0.993228
vt 0.993335 0.496948
vt 0.993335 0.497084
vt 0.993389 0.497084
vt 0.992786 0.890979
vt 0.992841 0.890979
vt 0.992841 0.890844
vt 0.035617 0.993009
vt 0.035671 0.993009
vt 0.035671 0.992874
vt 0.253641 0.992238
vt 0.253586 0.992238
vt 0.253586 0.992373
vt 0.142652 0.991858
vt 0.142652 0.991994
vt 0.142707 0.991994
vt 0.877358 0.991925
vt 0.877358 0.992061
vt 0.877412 0.992061
vt 0.678955 0.992323
vt 0.678955 0.992458
vt 0.679009 0.992458
vt 0.175045 0.991899
vt 0.174990 0.991899
vt 0.174990 0.992035
vt 0.992050 0.352871
vt 0.991995 0.352871
vt 0.991995 0.353006
vt 0.249781 0.992289
vt 0.249727 0.992289
vt 0.249727 0.992424
vt 0.055387 0.946348
vt 0.296312 0.947554
vt 0.554649 0.948056
vt 0.949049 0.766398
vt 0.949026 0.811309
vt 0.947426 0.707229
vt 0.949091 0.157217
vt 0.865722 0.949189
vt 0.113052 0.948583
vt 0.508068 0.948578
vt 0.855288 0.949899
vt 0.951291 0.501899
vt 0.954631 0.829613
vt 0.951305 0.907534
vt 0.954844 0.467229
vt 0.245241 0.952204
vt 0.063676 0.953290
vt 0.537587 0.951876
vt 0.951296 0.861984
vt 0.954715 0.102473
vt 0.947450 0.932814
vt 0.265877 0.946243
vt 0.958540 0.916530
vt 0.958640 0.891374
vt 0.947699 0.375205
vt 0.286763 0.946801
vt 0.947350 0.434186
vt 0.221954 0.957596
vt 0.638503 0.948303
vt 0.958907 0.789367
vt 0.851537 0.949899
vt 0.082373 0.952006
vt 0.442019 0.959060
vt 0.952449 0.680288
vt 0.960162 0.015157
vt 0.952636 0.022547
vt 0.447051 0.960372
vt 0.279462 0.950285
vt 0.960141 0.208165
vt 0.190129 0.952005
vt 0.923666 0.981579
vt 0.948006 0.131451
vt 0.947492 0.789212
vt 0.947466 0.715178
vt 0.740085 0.982249
vt 0.222089 0.948525
vt 0.063809 0.982747
vt 0.068013 0.945693
vt 0.948291 0.688981
vt 0.101541 0.982134
vt 0.951623 0.421016
vt 0.952306 0.616867
vt 0.952321 0.655639
vt 0.291438 0.952498
vt 0.982946 0.491927
vt 0.044892 0.951050
vt 0.982986 0.725544
vt 0.679182 0.950903
vt 0.149002 0.982908
vt 0.895045 0.952151
vt 0.168118 0.947930
vt 0.947448 0.139907
vt 0.214970 0.946111
vt 0.859233 0.948555
vt 0.947269 0.869405
vt 0.587701 0.948583
vt 0.951301 0.922940
vt 0.667154 0.952006
vt 0.200837 0.950773
vt 0.068095 0.952746
vt 0.951838 0.131451
vt 0.952258 0.509276
vt 0.809112 0.992662
vt 0.993039 0.415695
vt 0.051621 0.992066
vt 0.044737 0.992531
vt 0.402597 0.993408
vt 0.993159 0.924219
vt 0.837454 0.992869
vt 0.993455 0.710522
vt 0.302041 0.992691
vt 0.993099 0.403432
vt 0.560326 0.992230
vt 0.992888 0.467854
vt 0.672512 0.992824
vt 0.662090 0.993446
vt 0.312470 0.993395
vt 0.427590 0.992602
vt 0.361324 0.993199
vt 0.789978 0.993162
vt 0.993187 0.706261
vt 0.992467 0.462102
vt 0.992485 0.563310
vt 0.992147 0.068223
vt 0.992093 0.042365
vt 0.500906 0.993320
vt 0.803651 0.992815
vt 0.474066 0.993093
vt 0.993389 0.496948
vt 0.992786 0.890844
vt 0.035617 0.992874
vt 0.253641 0.992373
vt 0.142707 0.991858
vt 0.877412 0.991925
vt 0.679009 0.992323
vt 0.175045 0.992035
vt 0.992050 0.353006
vt 0.249781 0.992424
vn -0.0000 -1.0000 0.0000
vn 0.0000 1.0000 0.0000
vn -1.0000 0.0000 0.0000
vn 1.0000 0.0000 0.0000
vn 0.0000 0.0000 -1.0000
vn -0.0000 0.0000 1.0000
vn 0.0000 0.5724 0.8200
vn -0.0000 0.4216 0.9068
vn 0.0000 0.0921 0.9958
vn 0.0000 0.0920 0.9958
vn -0.0000 0.5724 -0.8200
vn -0.0000 0.4216 -0.9068
vn -0.0000 0.4215 -0.9068
vn 0.0000 0.0920 -0.9958
vn -0.0000 0.4215 0.9068
s 1
f 13/1/1 12/2/1 3/3/1
f 15/4/1 16/5/1 6/6/1
f 17/7/1 20/8/1 7/9/1
f 2/10/1 1/11/1 11/12/1
f 9/13/1 10/14/1 19/15/1
f 21/16/2 39/17/2 54/18/2
f 41/19/2 42/20/2 60/21/2
f 38/22/2 35/23/2 50/24/2
f 53/25/2 52/26/2 36/27/2
f 40/28/2 56/29/2 55/30/2
f 37/31/3 36/32/3 12/33/3
f 39/34/3 21/35/3 16/36/3
f 35/37/3 38/38/3 14/39/3
f 40/40/3 43/41/3 20/42/3
f 41/43/3 18/44/3 19/45/3
f 4/46/4 3/47/4 52/48/4
f 50/49/4 1/50/4 2/51/4
f 55/52/4 56/53/4 8/54/4
f 30/55/4 54/56/4 5/57/4
f 57/58/4 60/59/4 10/60/4
f 85/61/1 22/62/1 31/63/1
f 105/64/1 94/65/1 95/66/1
f 92/67/1 91/68/1 102/69/1
f 81/70/1 77/71/1 111/72/1
f 61/73/1 44/74/1 65/75/1
f 112/76/2 117/77/2 128/78/2
f 23/79/2 86/80/2 97/81/2
f 124/82/2 133/83/2 131/84/2
f 45/85/2 58/86/2 73/87/2
f 82/88/2 134/89/2 126/90/2
f 117/91/3 112/92/3 105/93/3
f 23/94/3 22/95/3 85/96/3
f 124/97/3 125/98/3 103/99/3
f 44/100/3 45/101/3 66/102/3
f 77/103/3 78/104/3 126/105/3
f 73/106/4 58/107/4 61/108/4
f 81/109/4 96/110/4 134/111/4
f 106/112/4 128/113/4 95/114/4
f 92/115/4 131/116/4 133/117/4
f 28/118/4 97/119/4 93/120/4
f 132/121/1 137/122/1 139/123/1
f 109/124/1 129/125/1 118/126/1
f 32/127/1 99/128/1 87/129/1
f 46/130/1 67/131/1 74/132/1
f 83/133/1 79/134/1 143/135/1
f 107/136/2 115/137/2 119/138/2
f 130/139/2 136/140/2 140/141/2
f 33/142/2 25/143/2 88/144/2
f 47/145/2 63/146/2 75/147/2
f 84/148/2 141/149/2 144/150/2
f 115/151/3 113/152/3 118/153/3
f 135/154/3 139/155/3 140/156/3
f 25/157/3 24/158/3 87/159/3
f 47/160/3 68/161/3 67/162/3
f 144/163/3 143/164/3 79/165/3
f 62/166/4 74/167/4 75/168/4
f 83/169/4 142/170/4 141/171/4
f 107/172/4 127/173/4 129/174/4
f 132/175/4 130/176/4 138/177/4
f 33/178/4 100/179/4 99/180/4
f 110/181/1 122/182/1 120/183/1
f 34/184/1 101/185/1 89/186/1
f 76/187/1 64/188/1 48/189/1
f 108/190/2 116/191/2 121/192/2
f 29/193/2 27/194/2 90/195/2
f 49/196/2 59/197/2 71/198/2
f 116/199/3 114/200/3 120/201/3
f 27/202/3 26/203/3 89/204/3
f 48/205/3 49/206/3 70/207/3
f 71/208/4 59/209/4 64/210/4
f 122/211/4 110/212/4 108/213/4
f 29/214/4 98/215/4 101/216/4
f 22/217/5 23/218/5 28/219/5
f 24/220/5 25/221/5 33/222/5
f 26/223/5 27/224/5 29/225/5
f 30/226/5 6/227/5 16/228/5
f 63/229/6 47/230/6 46/231/6
f 59/232/6 49/233/6 48/234/6
f 17/235/6 8/236/6 56/237/6
f 44/238/6 61/239/6 58/240/6
f 65/241/5 66/242/5 73/243/5
f 67/244/5 68/245/5 75/246/5
f 69/247/5 70/248/5 71/249/5
f 55/250/5 7/251/5 20/252/5
f 60/253/6 42/254/6 19/255/6
f 82/256/6 78/257/6 77/258/6
f 84/259/6 80/260/6 79/261/6
f 54/262/6 39/263/6 15/264/6
f 85/265/6 93/266/6 97/267/6
f 87/268/6 99/269/6 100/270/6
f 89/271/6 101/272/6 98/273/6
f 52/274/5 3/275/5 12/276/5
f 105/277/5 112/278/5 106/279/5
f 113/280/5 115/281/5 107/282/5
f 114/283/5 116/284/5 108/285/5
f 120/286/6 122/287/6 123/288/6
f 53/289/6 37/290/6 13/291/6
f 104/292/6 95/293/6 128/294/6
f 118/295/6 129/296/6 127/297/6
f 51/298/5 2/299/5 14/300/5
f 131/301/5 92/302/5 103/303/5
f 135/304/5 136/305/5 130/306/5
f 139/307/7 137/308/7 138/309/7
f 102/310/8 91/311/8 133/312/8
f 50/313/9 35/314/10 11/315/10
f 143/316/11 144/317/11 141/318/11
f 111/319/12 126/320/13 134/321/12
f 18/322/14 41/323/14 57/324/14
f 13/1/1 3/3/1 4/325/1
f 15/4/1 6/6/1 5/326/1
f 17/7/1 7/9/1 8/327/1
f 2/10/1 11/12/1 14/328/1
f 9/13/1 19/15/1 18/329/1
f 21/16/2 54/18/2 30/330/2
f 41/19/2 60/21/2 57/331/2
f 38/22/2 50/24/2 51/332/2
f 53/25/2 36/27/2 37/333/2
f 40/28/2 55/30/2 43/334/2
f 37/31/3 12/33/3 13/335/3
f 39/34/3 16/36/3 15/336/3
f 35/37/3 14/39/3 11/337/3
f 40/40/3 20/42/3 17/338/3
f 41/43/3 19/45/3 42/339/3
f 4/46/4 52/48/4 53/340/4
f 50/49/4 2/51/4 51/341/4
f 55/52/4 8/54/4 7/342/4
f 30/55/4 5/57/4 6/343/4
f 57/58/4 10/60/4 9/344/4
f 85/61/1 31/63/1 93/345/1
f 105/64/1 95/66/1 104/346/1
f 92/67/1 102/69/1 103/347/1
f 81/70/1 111/72/1 96/348/1
f 61/73/1 65/75/1 72/349/1
f 112/76/2 128/78/2 106/350/2
f 23/79/2 97/81/2 28/351/2
f 124/82/2 131/84/2 125/352/2
f 45/85/2 73/87/2 66/353/2
f 82/88/2 126/90/2 78/354/2
f 117/91/3 105/93/3 104/355/3
f 23/94/3 85/96/3 86/356/3
f 124/97/3 103/99/3 102/357/3
f 44/100/3 66/102/3 65/358/3
f 77/103/3 126/105/3 111/359/3
f 73/106/4 61/108/4 72/360/4
f 81/109/4 134/111/4 82/361/4
f 106/112/4 95/114/4 94/362/4
f 92/115/4 133/117/4 91/363/4
f 28/118/4 93/120/4 31/364/4
f 132/121/1 139/123/1 135/365/1
f 109/124/1 118/126/1 113/366/1
f 32/127/1 87/129/1 24/367/1
f 46/130/1 74/132/1 62/368/1
f 83/133/1 143/135/1 142/369/1
f 107/136/2 119/138/2 127/370/2
f 130/139/2 140/141/2 138/371/2
f 33/142/2 88/144/2 100/372/2
f 47/145/2 75/147/2 68/373/2
f 84/148/2 144/150/2 80/374/2
f 115/151/3 118/153/3 119/375/3
f 135/154/3 140/156/3 136/376/3
f 25/157/3 87/159/3 88/377/3
f 47/160/3 67/162/3 46/378/3
f 144/163/3 79/165/3 80/379/3
f 62/166/4 75/168/4 63/380/4
f 83/169/4 141/171/4 84/381/4
f 107/172/4 129/174/4 109/382/4
f 132/175/4 138/177/4 137/383/4
f 33/178/4 99/180/4 32/384/4
f 110/181/1 120/183/1 114/385/1
f 34/184/1 89/186/1 26/386/1
f 76/187/1 48/189/1 69/387/1
f 108/190/2 121/192/2 123/388/2
f 29/193/2 90/195/2 98/389/2
f 49/196/2 71/198/2 70/390/2
f 116/199/3 120/201/3 121/391/3
f 27/202/3 89/204/3 90/392/3
f 48/205/3 70/207/3 69/393/3
f 71/208/4 64/210/4 76/394/4
f 122/211/4 108/213/4 123/395/4
f 29/214/4 101/216/4 34/396/4
f 22/217/5 28/219/5 31/397/5
f 24/220/5 33/222/5 32/398/5
f 26/223/5 29/225/5 34/399/5
f 30/226/5 16/228/5 21/400/5
f 63/229/6 46/231/6 62/401/6
f 59/232/6 48/234/6 64/402/6
f 17/235/6 56/237/6 40/403/6
f 44/238/6 58/240/6 45/404/6
f 65/241/5 73/243/5 72/405/5
f 67/244/5 75/246/5 74/406/5
f 69/247/5 71/249/5 76/407/5
f 55/250/5 20/252/5 43/408/5
f 60/253/6 19/255/6 10/409/6
f 82/256/6 77/258/6 81/410/6
f 84/259/6 79/261/6 83/411/6
f 54/262/6 15/264/6 5/412/6
f 85/265/6 97/267/6 86/413/6
f 87/268/6 100/270/6 88/414/6
f 89/271/6 98/273/6 90/415/6
f 52/274/5 12/276/5 36/416/5
f 105/277/5 106/279/5 94/417/5
f 113/280/5 107/282/5 109/418/5
f 114/283/5 108/285/5 110/419/5
f 120/286/6 123/288/6 121/420/6
f 53/289/6 13/291/6 4/421/6
f 104/292/6 128/294/6 117/422/6
f 118/295/6 127/297/6 119/423/6
f 51/298/5 14/300/5 38/424/5
f 131/301/5 103/303/5 125/425/5
f 135/304/5 130/306/5 132/426/5
f 139/307/7 138/309/7 140/427/7
f 102/310/8 133/312/8 124/428/15
f 50/313/9 11/315/10 1/429/9
f 143/316/11 141/318/11 142/430/11
f 111/319/12 134/321/12 96/431/12
f 18/322/14 57/324/14 9/432/14
