# Blender v3.0.1 OBJ File: 'Main.blend'
# www.blender.org
o Cube.224_0342
v -1.254000 0.129000 0.324000
v -1.431000 0.129000 0.324000
v -1.431000 0.129000 0.465000
v -1.254000 0.129000 1.032000
v -1.431000 0.129000 1.032000
v -1.431000 0.123000 0.324000
v -1.254000 0.123000 0.324000
v -1.431000 0.123000 0.465000
v -1.254000 0.123000 1.032000
v -1.431000 0.123000 1.032000
vt 0.933981 0.838177
vt 0.934089 0.834983
vt 0.934089 0.838177
vt 0.794191 0.885835
vt 0.794299 0.883291
vt 0.794299 0.885835
vt 0.311660 0.885792
vt 0.311768 0.873015
vt 0.311768 0.885792
vt 0.934008 0.519440
vt 0.934116 0.516246
vt 0.934116 0.519440
vt 0.794191 0.883291
vt 0.794299 0.873059
vt 0.227460 0.857649
vt 0.227460 0.847417
vt 0.230654 0.847417
vt 0.283596 0.849785
vt 0.283596 0.847242
vt 0.286790 0.847242
vt 0.933981 0.834983
vt 0.311660 0.873015
vt 0.934008 0.516246
vt 0.794191 0.873059
vt 0.230654 0.860193
vt 0.227460 0.860193
vt 0.286790 0.860020
vt 0.283596 0.860020
vn 0.0000 0.0000 -1.0000
vn -1.0000 0.0000 0.0000
vn 1.0000 0.0000 0.0000
vn 0.0000 0.0000 1.0000
vn 0.0000 1.0000 0.0000
vn 0.0000 -1.0000 0.0000
s off
f 7/1/1 2/2/1 1/3/1
f 6/4/2 3/5/2 2/6/2
f 9/7/3 1/8/3 4/9/3
f 10/10/4 4/11/4 5/12/4
f 8/13/2 5/14/2 3/5/2
f 3/15/5 5/16/5 4/17/5
f 8/18/6 6/19/6 7/20/6
f 7/1/1 6/21/1 2/2/1
f 6/4/2 8/13/2 3/5/2
f 9/7/3 7/22/3 1/8/3
f 10/10/4 9/23/4 4/11/4
f 8/13/2 10/24/2 5/14/2
f 4/17/5 1/25/5 3/15/5
f 1/25/5 2/26/5 3/15/5
f 7/20/6 9/27/6 8/18/6
f 9/27/6 10/28/6 8/18/6
