# Blender v3.0.1 OBJ File: 'Main.blend'
# www.blender.org
o Cube.5392_0030
v 0.456000 0.369000 3.372000
v 0.456000 0.000000 3.372000
v 0.456000 0.369000 3.426000
v 0.456000 0.000000 3.426000
v 0.471000 0.000000 3.372000
v 0.471000 0.369000 3.372000
v 0.471000 0.000000 3.426000
v 0.471000 0.369000 3.426000
v 0.360000 0.369000 3.372000
v 0.360000 0.000000 3.372000
v 0.297000 0.369000 3.372000
v 0.297000 0.000000 3.372000
v 0.297000 0.369000 3.426000
v 0.297000 0.000000 3.426000
v 0.456000 0.369000 3.444000
v 0.456000 0.000000 3.444000
v 0.360000 0.369000 3.444000
v 0.360000 0.000000 3.444000
v 0.297000 0.369000 3.444000
v 0.297000 0.000000 3.444000
v 0.360000 0.369000 3.465000
v 0.360000 0.000000 3.465000
v 0.297000 0.369000 3.465000
v 0.297000 0.000000 3.465000
vt 0.131875 0.897915
vt 0.131875 0.891257
vt 0.130901 0.891257
vt 0.662334 0.902239
vt 0.662334 0.908897
vt 0.662609 0.908897
vt 0.111618 0.874686
vt 0.111618 0.868028
vt 0.111351 0.868028
vt 0.113352 0.874686
vt 0.441885 0.882972
vt 0.440911 0.882972
vt 0.440911 0.889630
vt 0.113352 0.868028
vt 0.114490 0.874686
vt 0.885498 0.255922
vt 0.886796 0.255922
vt 0.886472 0.254784
vt 0.477442 0.889447
vt 0.477442 0.882789
vt 0.475708 0.882789
vt 0.357466 0.908199
vt 0.357466 0.901541
vt 0.357142 0.901541
vt 0.441885 0.889630
vt 0.442209 0.889630
vt 0.624733 0.896226
vt 0.624733 0.889567
vt 0.623595 0.889567
vt 0.442209 0.882972
vt 0.442588 0.889630
vt 0.851473 0.778271
vt 0.851473 0.771613
vt 0.851095 0.771613
vt 0.873397 0.178195
vt 0.873397 0.179333
vt 0.873777 0.178195
vt 0.130901 0.897915
vt 0.662609 0.902239
vt 0.111351 0.874686
vt 0.114490 0.868028
vt 0.886472 0.257649
vt 0.885498 0.257923
vt 0.886472 0.257923
vt 0.885498 0.257649
vt 0.885498 0.254784
vt 0.886796 0.257649
vt 0.887175 0.254784
vt 0.887175 0.255922
vt 0.886796 0.254784
vt 0.475708 0.889447
vt 0.357142 0.908199
vt 0.623595 0.896226
vt 0.442588 0.882972
vt 0.851095 0.778271
vt 0.872099 0.179333
vt 0.873073 0.179333
vt 0.872099 0.178195
vt 0.873073 0.176469
vt 0.872099 0.176469
vt 0.873073 0.176194
vt 0.872099 0.176194
vt 0.873397 0.176469
vt 0.873777 0.179333
vn 1.0000 0.0000 0.0000
vn 0.0000 0.0000 1.0000
vn 0.0000 0.0000 -1.0000
vn -1.0000 0.0000 0.0000
vn 0.0000 -1.0000 0.0000
vn 0.0000 1.0000 0.0000
s off
f 5/1/1 6/2/1 8/3/1
f 3/4/2 4/5/2 7/6/2
f 2/7/3 1/8/3 6/9/3
f 1/8/3 2/7/3 10/10/3
f 13/11/4 11/12/4 12/13/4
f 9/14/3 10/10/3 12/15/3
f 10/16/5 18/17/5 14/18/5
f 16/19/2 15/20/2 17/21/2
f 4/22/1 3/23/1 15/24/1
f 13/11/4 14/25/4 20/26/4
f 22/27/2 21/28/2 23/29/2
f 19/30/4 20/26/4 24/31/4
f 18/32/1 17/33/1 21/34/1
f 17/35/6 19/36/6 21/37/6
f 5/1/1 8/3/1 7/38/1
f 3/4/2 7/6/2 8/39/2
f 2/7/3 6/9/3 5/40/3
f 1/8/3 10/10/3 9/14/3
f 13/11/4 12/13/4 14/25/4
f 9/14/3 12/15/3 11/41/3
f 4/42/5 5/43/5 7/44/5
f 2/45/5 4/42/5 10/16/5
f 10/16/5 14/18/5 12/46/5
f 4/42/5 2/45/5 5/43/5
f 18/17/5 4/42/5 16/47/5
f 24/48/5 18/17/5 22/49/5
f 14/18/5 18/17/5 20/50/5
f 10/16/5 4/42/5 18/17/5
f 20/50/5 18/17/5 24/48/5
f 16/19/2 17/21/2 18/51/2
f 4/22/1 15/24/1 16/52/1
f 13/11/4 20/26/4 19/30/4
f 22/27/2 23/29/2 24/53/2
f 19/30/4 24/31/4 23/54/4
f 18/32/1 21/34/1 22/55/1
f 11/56/6 13/57/6 9/58/6
f 9/58/6 3/59/6 1/60/6
f 13/57/6 17/35/6 9/58/6
f 1/60/6 8/61/6 6/62/6
f 3/59/6 17/35/6 15/63/6
f 1/60/6 3/59/6 8/61/6
f 17/35/6 3/59/6 9/58/6
f 21/37/6 19/36/6 23/64/6
f 19/36/6 17/35/6 13/57/6
