# Blender v3.0.1 OBJ File: 'Main.blend'
# www.blender.org
o Cube.5423_0354
v -1.404001 0.459000 1.032000
v -1.404001 0.366000 1.032000
v -1.441500 0.459000 1.032000
v -1.441500 0.366000 1.032000
v -1.404001 0.459000 2.910000
v -1.404001 0.366000 2.910000
v -1.441500 0.459000 2.910000
v -1.441500 0.366000 2.910000
vt 0.640935 0.289157
vt 0.639257 0.289157
vt 0.639257 0.323052
vt 0.938617 0.329168
vt 0.937940 0.329168
vt 0.937940 0.330846
vt 0.846270 0.815871
vt 0.846947 0.815871
vt 0.846947 0.781984
vt 0.846401 0.064629
vt 0.847078 0.064629
vt 0.847078 0.030741
vt 0.832910 0.705569
vt 0.834588 0.705569
vt 0.834588 0.671681
vt 0.886147 0.937043
vt 0.886147 0.938721
vt 0.886824 0.938721
vt 0.640935 0.323052
vt 0.938617 0.330846
vt 0.846270 0.781984
vt 0.846401 0.030741
vt 0.832910 0.671681
vt 0.886824 0.937043
vn -1.0000 0.0000 0.0000
vn 0.0000 0.0000 1.0000
vn 0.0000 1.0000 0.0000
vn 0.0000 -1.0000 0.0000
vn 1.0000 0.0000 0.0000
vn 0.0000 0.0000 -1.0000
s off
f 3/1/1 4/2/1 8/3/1
f 5/4/2 7/5/2 8/6/2
f 1/7/3 3/8/3 7/9/3
f 4/10/4 2/11/4 6/12/4
f 2/13/5 1/14/5 5/15/5
f 1/16/6 2/17/6 4/18/6
f 3/1/1 8/3/1 7/19/1
f 5/4/2 8/6/2 6/20/2
f 1/7/3 7/9/3 5/21/3
f 4/10/4 6/12/4 8/22/4
f 2/13/5 5/15/5 6/23/5
f 1/16/6 4/18/6 3/24/6
