# Blender v3.0.1 OBJ File: 'Main.blend'
# www.blender.org
o Cube.5461_0281
v 1.762496 0.000000 3.376500
v 1.711496 0.000000 3.376500
v 1.762496 0.000000 3.523500
v 1.711496 0.000000 3.523500
v 1.762496 0.036000 3.376500
v 1.711496 0.036000 3.376500
v 1.762496 0.036000 3.523500
v 1.711496 0.036000 3.523500
vt 0.925767 0.879484
vt 0.926687 0.876831
vt 0.926687 0.879484
vt 0.926205 0.182666
vt 0.927126 0.185319
vt 0.926205 0.185319
vt 0.137142 0.928970
vt 0.136493 0.931622
vt 0.136493 0.928970
vt 0.932950 0.468033
vt 0.932300 0.468954
vt 0.932300 0.468033
vt 0.336997 0.928970
vt 0.336347 0.931622
vt 0.336347 0.928970
vt 0.938271 0.264399
vt 0.937621 0.265319
vt 0.937621 0.264399
vt 0.925767 0.876831
vt 0.927126 0.182666
vt 0.137142 0.931622
vt 0.932950 0.468954
vt 0.336997 0.931622
vt 0.938271 0.265319
vn 0.0000 -1.0000 0.0000
vn 0.0000 1.0000 0.0000
vn 1.0000 0.0000 0.0000
vn 0.0000 0.0000 -1.0000
vn -1.0000 0.0000 0.0000
vn 0.0000 0.0000 1.0000
s off
f 1/1/1 4/2/1 2/3/1
f 8/4/2 5/5/2 6/6/2
f 5/7/3 3/8/3 1/9/3
f 6/10/4 1/11/4 2/12/4
f 8/13/5 2/14/5 4/15/5
f 7/16/6 4/17/6 3/18/6
f 1/1/1 3/19/1 4/2/1
f 8/4/2 7/20/2 5/5/2
f 5/7/3 7/21/3 3/8/3
f 6/10/4 5/22/4 1/11/4
f 8/13/5 6/23/5 2/14/5
f 7/16/6 8/24/6 4/17/6
