# Blender v3.0.1 OBJ File: 'Main.blend'
# www.blender.org
o Cube.599_0321
v 0.405000 0.465000 0.465000
v 1.263001 0.465000 0.465000
v 1.203001 0.465000 1.032000
v 1.446001 0.465000 0.465000
v 1.446001 0.465000 1.032000
v 1.263001 0.465000 0.321000
v 1.446001 0.465000 0.321000
v 0.405000 0.465000 2.937000
v 0.405000 0.465000 1.320000
v 0.606000 0.465000 1.032000
v 0.606001 0.465000 1.320000
v 0.195000 0.465000 0.465000
v 0.195000 0.465000 2.937000
v 0.405000 0.459000 0.465000
v 1.263001 0.459000 0.465000
v 1.446001 0.459000 1.032000
v 1.446001 0.459000 0.465000
v 1.203001 0.459000 1.032000
v 1.263001 0.459000 0.321000
v 1.446001 0.459000 0.321000
v 0.405000 0.459000 2.937000
v 0.405000 0.459000 1.320000
v 0.606000 0.459000 1.032000
v 0.606001 0.459000 1.320000
v 0.195000 0.459000 2.937000
v 0.195000 0.459000 0.465000
vt 0.842465 0.826590
vt 0.842573 0.781984
vt 0.842573 0.826590
vt 0.938033 0.589341
vt 0.938141 0.586742
vt 0.938141 0.589341
vt 0.884725 0.448872
vt 0.884833 0.446275
vt 0.884833 0.448872
vt 0.190454 0.858210
vt 0.190562 0.829027
vt 0.190562 0.858210
vt 0.931735 0.926399
vt 0.931843 0.922771
vt 0.931843 0.926399
vt 0.868201 0.364543
vt 0.868309 0.349062
vt 0.868309 0.364543
vt 0.919843 0.074551
vt 0.919951 0.069353
vt 0.919951 0.074551
vt 0.884725 0.459106
vt 0.884833 0.459106
vt 0.930890 0.648682
vt 0.930998 0.644894
vt 0.930998 0.648682
vt 0.876128 0.807474
vt 0.876236 0.803090
vt 0.876236 0.807474
vt 0.876128 0.818250
vt 0.876236 0.818250
vt 0.868201 0.349062
vt 0.868309 0.345266
vt 0.933541 0.682408
vt 0.933649 0.679101
vt 0.933649 0.682408
vt 0.020637 0.686960
vt 0.005148 0.686960
vt 0.017009 0.676729
vt 0.065286 0.683087
vt 0.077139 0.693319
vt 0.061658 0.693319
vt 0.842466 0.781984
vt 0.938033 0.586742
vt 0.884725 0.446275
vt 0.190454 0.829027
vt 0.931735 0.922771
vt 0.919843 0.069353
vt 0.930890 0.644894
vt 0.876128 0.803090
vt 0.868201 0.345266
vt 0.933541 0.679101
vt 0.024425 0.642354
vt 0.024425 0.686960
vt 0.020637 0.671532
vt 0.005148 0.689559
vt 0.001848 0.689559
vt 0.020637 0.642354
vt 0.017009 0.671532
vt 0.001848 0.686960
vt 0.001848 0.676729
vt 0.006232 0.676729
vt 0.057870 0.693319
vt 0.057870 0.648712
vt 0.061658 0.677890
vt 0.061658 0.648712
vt 0.065286 0.677890
vt 0.076062 0.683087
vt 0.080446 0.683087
vt 0.080446 0.693319
vt 0.080446 0.695917
vt 0.077139 0.695917
vn -1.0000 0.0000 0.0000
vn 1.0000 0.0000 0.0000
vn 0.0000 0.0000 1.0000
vn 0.0000 0.0000 -1.0000
vn 0.0000 -1.0000 0.0000
vn 0.0000 1.0000 0.0000
s off
f 26/1/1 13/2/1 12/3/1
f 19/4/1 2/5/1 6/6/1
f 17/7/2 7/8/2 4/9/2
f 21/10/2 9/11/2 8/12/2
f 22/13/3 11/14/3 9/15/3
f 15/16/4 1/17/4 2/18/4
f 24/19/2 10/20/2 11/21/2
f 16/22/2 4/9/2 5/23/2
f 25/24/3 8/25/3 13/26/3
f 18/27/3 5/28/3 3/29/3
f 23/30/3 3/29/3 10/31/3
f 14/32/4 12/33/4 1/17/4
f 20/34/4 6/35/4 7/36/4
f 14/37/5 15/38/5 23/39/5
f 10/40/6 2/41/6 1/42/6
f 26/1/1 25/43/1 13/2/1
f 19/4/1 15/44/1 2/5/1
f 17/7/2 20/45/2 7/8/2
f 21/10/2 22/46/2 9/11/2
f 22/13/3 24/47/3 11/14/3
f 15/16/4 14/32/4 1/17/4
f 24/19/2 23/48/2 10/20/2
f 16/22/2 17/7/2 4/9/2
f 25/24/3 21/49/3 8/25/3
f 18/27/3 16/50/3 5/28/3
f 23/30/3 18/27/3 3/29/3
f 14/32/4 26/51/4 12/33/4
f 20/34/4 19/52/4 6/35/4
f 25/53/5 26/54/5 22/55/5
f 26/54/5 14/37/5 23/39/5
f 22/55/5 26/54/5 23/39/5
f 15/38/5 19/56/5 20/57/5
f 22/55/5 21/58/5 25/53/5
f 23/39/5 24/59/5 22/55/5
f 17/60/5 16/61/5 15/38/5
f 16/61/5 18/62/5 15/38/5
f 18/62/5 23/39/5 15/38/5
f 15/38/5 20/57/5 17/60/5
f 1/42/6 12/63/6 10/40/6
f 12/63/6 13/64/6 9/65/6
f 13/64/6 8/66/6 9/65/6
f 9/65/6 11/67/6 10/40/6
f 3/68/6 5/69/6 2/41/6
f 5/69/6 4/70/6 2/41/6
f 10/40/6 3/68/6 2/41/6
f 4/70/6 7/71/6 6/72/6
f 4/70/6 6/72/6 2/41/6
f 12/63/6 9/65/6 10/40/6
