# Blender v3.0.1 OBJ File: 'Main.blend'
# www.blender.org
o Cube.5517_0114
v -0.177002 -0.123000 -0.504000
v -0.177002 0.723000 -0.504000
v -1.248002 -0.123000 -0.369000
v -1.165503 -0.004500 -0.507000
v -1.248002 0.723000 -0.369000
v -0.177002 -0.123000 -1.059000
v -0.183002 -0.123000 -0.516000
v -0.439503 -0.004500 -0.504000
v -0.177002 0.723000 -0.516000
v -1.254002 -0.123000 -0.516000
v -1.254002 -0.123000 -0.375000
v -0.183002 -0.123000 -1.059000
v -1.431002 -0.123000 -0.369000
v -1.431002 -0.123000 -0.375000
v -0.177002 0.543000 -0.516000
v -0.177002 0.543000 -1.059000
v -0.183002 0.543000 -1.059000
v -0.183002 0.543000 -0.516000
v -1.254000 0.723000 -0.515998
v -1.254002 0.465000 -0.375000
v -1.254000 0.723000 -0.369000
v -1.254000 0.723000 -0.377998
v -1.431002 0.465000 -0.375000
v -1.431002 0.465000 -0.369000
v -1.254000 0.465000 -0.369000
v -0.358502 -0.123000 -0.504000
v -0.358502 0.723000 -0.504000
v -1.248002 -0.123000 -0.480000
v -1.248002 0.723000 -0.480000
v -0.358502 -0.123000 -0.480000
v -0.358502 0.723000 -0.480000
v -1.165503 -0.004500 -0.480000
v -0.439503 -0.004500 -0.480000
v -0.439503 0.723000 -0.480000
v -1.165503 0.723000 -0.480000
v -0.439503 0.723000 -0.504000
v -1.165503 0.723000 -0.507000
vt 0.862710 0.836216
vt 0.864713 0.836216
vt 0.864713 0.820950
vt 0.313396 0.798501
vt 0.313180 0.810519
vt 0.323195 0.810519
vt 0.699970 0.815809
vt 0.709768 0.815809
vt 0.709768 0.803791
vt 0.243091 0.887833
vt 0.243199 0.887833
vt 0.243199 0.875815
vt 0.893360 0.091275
vt 0.893360 0.080664
vt 0.893252 0.080664
vt 0.377564 0.867058
vt 0.380761 0.867058
vt 0.380761 0.856447
vt 0.856786 0.360722
vt 0.856895 0.371333
vt 0.856895 0.356067
vt 0.896612 0.111898
vt 0.896612 0.121697
vt 0.896720 0.121697
vt 0.933966 0.029988
vt 0.933966 0.026791
vt 0.933858 0.026791
vt 0.543577 0.738441
vt 0.555595 0.719115
vt 0.543577 0.719115
vt 0.201461 0.845394
vt 0.201353 0.850050
vt 0.201461 0.850050
vt 0.049480 0.856902
vt 0.052755 0.856902
vt 0.052755 0.841636
vt 0.022287 0.785628
vt 0.024425 0.771063
vt 0.022287 0.772526
vt 0.842965 0.486831
vt 0.842965 0.471565
vt 0.842532 0.471565
vt 0.791469 0.232207
vt 0.793738 0.231057
vt 0.793110 0.231254
vt 0.851357 0.646619
vt 0.851140 0.661317
vt 0.851303 0.659717
vt 0.815289 0.424746
vt 0.815776 0.424746
vt 0.815776 0.411618
vt 0.556678 0.805067
vt 0.556678 0.791939
vt 0.543577 0.791939
vt 0.880137 0.251763
vt 0.880137 0.238635
vt 0.879703 0.238635
vt 0.879387 0.067623
vt 0.879387 0.054521
vt 0.878954 0.054521
vt 0.862710 0.820950
vt 0.323195 0.798501
vt 0.313180 0.795253
vt 0.313396 0.795253
vt 0.699970 0.803791
vt 0.243091 0.875815
vt 0.893252 0.091275
vt 0.377564 0.856447
vt 0.856786 0.356067
vt 0.853593 0.371333
vt 0.853593 0.360722
vt 0.896720 0.111898
vt 0.933858 0.029988
vt 0.558843 0.719004
vt 0.555595 0.719004
vt 0.558843 0.738441
vt 0.198808 0.860660
vt 0.201353 0.860660
vt 0.198808 0.845394
vt 0.201298 0.845394
vt 0.049480 0.841636
vt 0.009159 0.771063
vt 0.009159 0.772526
vt 0.024425 0.787117
vt 0.009159 0.787117
vt 0.009159 0.785628
vt 0.842532 0.486831
vt 0.792817 0.235106
vt 0.792914 0.235056
vt 0.786238 0.216742
vt 0.785852 0.216938
vt 0.784757 0.213821
vt 0.784999 0.213820
vt 0.793690 0.209293
vt 0.793738 0.209389
vt 0.791324 0.232160
vt 0.851790 0.661206
vt 0.853630 0.661317
vt 0.853792 0.661206
vt 0.853792 0.661317
vt 0.851790 0.659717
vt 0.851140 0.641880
vt 0.851357 0.645156
vt 0.851357 0.641880
vt 0.851790 0.646619
vt 0.851790 0.645156
vt 0.815289 0.411618
vt 0.543577 0.805067
vt 0.879703 0.251763
vt 0.878900 0.067623
vn 1.0000 0.0000 0.0000
vn -1.0000 0.0000 0.0000
vn 0.0000 0.0000 -1.0000
vn 0.0000 0.0000 1.0000
vn 0.0000 1.0000 0.0000
vn -1.0000 0.0000 0.0003
vn 0.0000 -1.0000 0.0000
vn -0.0041 0.0000 1.0000
s off
f 3/1/1 28/2/1 29/3/1
f 15/4/1 1/5/1 6/6/1
f 12/7/2 7/8/2 18/9/2
f 6/10/3 12/11/3 17/12/3
f 13/13/2 24/14/2 23/15/2
f 11/16/3 14/17/3 23/18/3
f 25/19/4 3/20/4 5/21/4
f 15/22/5 16/23/5 17/24/5
f 20/25/5 23/26/5 24/27/5
f 10/28/3 18/29/3 7/30/3
f 21/31/6 20/32/6 25/33/6
f 26/34/4 1/35/4 2/36/4
f 32/37/4 30/38/4 33/39/4
f 26/40/1 27/41/1 31/42/1
f 11/43/7 10/44/7 28/45/7
f 36/46/5 19/47/5 37/48/5
f 32/49/1 4/50/1 37/51/1
f 8/52/8 36/53/8 37/54/8
f 33/55/2 34/56/2 36/57/2
f 32/58/5 33/59/5 8/60/5
f 3/1/1 29/3/1 5/61/1
f 15/4/1 6/6/1 16/62/1
f 1/5/1 15/4/1 2/63/1
f 2/63/1 15/4/1 9/64/1
f 12/7/2 18/9/2 17/65/2
f 6/10/3 17/12/3 16/66/3
f 13/13/2 23/15/2 14/67/2
f 11/16/3 23/18/3 20/68/3
f 25/19/4 5/21/4 21/69/4
f 3/20/4 25/19/4 13/70/4
f 13/70/4 25/19/4 24/71/4
f 15/22/5 17/24/5 18/72/5
f 20/25/5 24/27/5 25/73/5
f 18/29/3 9/74/3 15/75/3
f 9/74/3 18/29/3 19/76/3
f 19/76/3 18/29/3 10/28/3
f 20/32/2 10/77/2 11/78/2
f 10/77/2 20/32/2 19/79/2
f 19/79/2 20/32/2 22/80/2
f 22/80/2 20/32/2 21/31/2
f 26/34/4 2/36/4 27/81/4
f 33/39/4 31/82/4 34/83/4
f 28/84/4 32/37/4 29/85/4
f 29/85/4 32/37/4 35/86/4
f 33/39/4 30/38/4 31/82/4
f 28/84/4 30/38/4 32/37/4
f 26/40/1 31/42/1 30/87/1
f 11/43/7 13/88/7 14/89/7
f 28/45/7 26/90/7 30/91/7
f 1/92/7 7/93/7 6/94/7
f 6/94/7 7/93/7 12/95/7
f 26/90/7 7/93/7 1/92/7
f 11/43/7 3/96/7 13/88/7
f 28/45/7 10/44/7 26/90/7
f 26/90/7 10/44/7 7/93/7
f 11/43/7 28/45/7 3/96/7
f 29/97/5 22/98/5 5/99/5
f 5/99/5 22/98/5 21/100/5
f 22/98/5 29/97/5 19/47/5
f 37/48/5 29/97/5 35/101/5
f 19/47/5 36/46/5 9/102/5
f 9/102/5 27/103/5 2/104/5
f 27/103/5 34/105/5 31/106/5
f 9/102/5 36/46/5 27/103/5
f 37/48/5 19/47/5 29/97/5
f 27/103/5 36/46/5 34/105/5
f 32/49/1 37/51/1 35/107/1
f 8/52/8 37/54/8 4/108/8
f 33/55/2 36/57/2 8/109/2
f 32/58/5 8/60/5 4/110/5
