# Blender v3.0.1 OBJ File: 'Main.blend'
# www.blender.org
o Cube.5300_0255
v -0.363001 0.369000 -3.411000
v -0.363001 0.000000 -3.411000
v -0.459001 0.369000 -3.411000
v -0.459001 0.000000 -3.411000
v -0.459001 0.369000 -3.402000
v -0.459001 0.000000 -3.402000
v -0.471001 0.369000 -3.402000
v -0.471001 0.000000 -3.402000
v -0.471001 0.369000 -3.384000
v -0.471001 0.000000 -3.384000
v -0.363001 0.369000 -3.402000
v -0.363001 0.000000 -3.402000
v -0.261001 0.369000 -3.402000
v -0.261001 0.000000 -3.402000
v -0.261001 0.369000 -3.411000
v -0.261001 0.000000 -3.411000
v -0.228001 0.369000 -3.411000
v -0.228001 0.000000 -3.411000
v -0.228001 0.369000 -3.423000
v -0.228001 0.000000 -3.423000
v -0.189001 0.369000 -3.423000
v -0.189001 0.000000 -3.423000
v -0.189001 0.369000 -3.384000
v -0.189001 0.000000 -3.384000
v -0.195001 0.000000 -3.384000
v -0.195001 0.369000 -3.384000
v -0.189000 0.369000 -3.225000
v -0.189000 0.000000 -3.225000
v -0.195000 0.000000 -3.225000
v -0.195000 0.369000 -3.225000
v -0.189000 0.369000 -3.135000
v -0.189000 0.000000 -3.135000
v -0.195000 0.000000 -3.135000
v -0.195000 0.369000 -3.135000
v -0.188998 0.369000 -2.961000
v -0.188998 0.000000 -2.961000
v -0.194998 0.000000 -2.961000
v -0.194998 0.369000 -2.961000
v -0.189000 0.084000 -3.225000
v -0.195000 0.084000 -3.225000
v -0.189000 0.084000 -3.135000
v -0.195000 0.084000 -3.135000
v -0.189001 0.459000 -3.384000
v -0.195001 0.459000 -3.384000
v -0.189000 0.459000 -3.225000
v -0.195000 0.459000 -3.225000
v -0.189000 0.459000 -3.135000
v -0.195000 0.459000 -3.135000
v -0.188998 0.459000 -2.961000
v -0.194998 0.459000 -2.961000
vt 0.097578 0.889481
vt 0.095845 0.882822
vt 0.097578 0.882822
vt 0.910682 0.888504
vt 0.910520 0.881845
vt 0.910682 0.881845
vt 0.909981 0.675209
vt 0.909760 0.668550
vt 0.909981 0.668550
vt 0.529080 0.908188
vt 0.528755 0.901529
vt 0.529080 0.901529
vt 0.544281 0.844957
vt 0.542657 0.843332
vt 0.544281 0.843332
vt 0.910769 0.267541
vt 0.910931 0.274200
vt 0.910769 0.274200
vt 0.823286 0.832788
vt 0.825127 0.839447
vt 0.823286 0.839447
vt 0.910650 0.552370
vt 0.910812 0.559029
vt 0.910650 0.559029
vt 0.903624 0.608710
vt 0.904219 0.615368
vt 0.903624 0.615368
vt 0.909954 0.685002
vt 0.910170 0.691660
vt 0.909954 0.691660
vt 0.316805 0.895843
vt 0.317508 0.902502
vt 0.316805 0.902502
vt 0.544281 0.848529
vt 0.550940 0.847827
vt 0.550940 0.848529
vt 0.119746 0.873526
vt 0.119529 0.872823
vt 0.120233 0.872930
vt 0.910834 0.516456
vt 0.910672 0.517052
vt 0.910347 0.515860
vt 0.853600 0.637705
vt 0.848620 0.631046
vt 0.853600 0.631046
vt 0.955122 0.098281
vt 0.955015 0.096765
vt 0.955122 0.096765
vt 0.544281 0.847827
vt 0.549424 0.844957
vt 0.357409 0.847314
vt 0.354541 0.847314
vt 0.354541 0.845798
vt 0.120233 0.872823
vt 0.123102 0.872930
vt 0.899320 0.953606
vt 0.899213 0.955122
vt 0.899213 0.953606
vt 0.903274 0.780964
vt 0.903168 0.774306
vt 0.903274 0.774306
vt 0.352916 0.845798
vt 0.349777 0.847314
vt 0.349777 0.840655
vt 0.934225 0.282980
vt 0.934332 0.279841
vt 0.934332 0.282980
vt 0.352916 0.840655
vt 0.354541 0.839031
vt 0.354541 0.840655
vt 0.549424 0.843332
vt 0.544281 0.840193
vt 0.550940 0.840193
vt 0.717672 0.949606
vt 0.717779 0.951229
vt 0.717672 0.951229
vt 0.316917 0.951289
vt 0.317024 0.949665
vt 0.317024 0.951289
vt 0.906651 0.651070
vt 0.906544 0.653939
vt 0.906544 0.651070
vt 0.906651 0.655563
vt 0.906544 0.658703
vt 0.906544 0.655563
vt 0.906651 0.653939
vt 0.542657 0.844957
vt 0.903274 0.772682
vt 0.542657 0.840193
vt 0.352916 0.839031
vt 0.357409 0.839031
vt 0.357409 0.840655
vt 0.095845 0.889481
vt 0.910520 0.888504
vt 0.909760 0.675209
vt 0.528755 0.908188
vt 0.910931 0.267541
vt 0.825127 0.832788
vt 0.910812 0.552370
vt 0.904219 0.608710
vt 0.910170 0.685002
vt 0.317508 0.895843
vt 0.119746 0.877688
vt 0.119746 0.875962
vt 0.119908 0.875962
vt 0.119908 0.874122
vt 0.119746 0.874122
vt 0.119908 0.877688
vt 0.120233 0.877910
vt 0.119908 0.877910
vt 0.119529 0.873526
vt 0.910834 0.518892
vt 0.910834 0.520618
vt 0.910672 0.520618
vt 0.910672 0.520840
vt 0.910347 0.520840
vt 0.910672 0.518892
vt 0.910347 0.515753
vt 0.911050 0.515753
vt 0.911050 0.516456
vt 0.910834 0.517052
vt 0.848620 0.637705
vt 0.955015 0.098281
vt 0.550940 0.844957
vt 0.123102 0.872823
vt 0.899320 0.955122
vt 0.903168 0.780964
vt 0.352916 0.847314
vt 0.934225 0.279841
vt 0.550940 0.843332
vt 0.717779 0.949606
vt 0.316917 0.949665
vt 0.906651 0.658703
vt 0.542657 0.847827
vt 0.903168 0.772682
vt 0.349777 0.839031
vn 0.0000 0.0000 -1.0000
vn -1.0000 0.0000 0.0000
vn 1.0000 0.0000 0.0000
vn 0.0000 -1.0000 0.0000
vn 0.0000 1.0000 0.0000
vn 0.0000 0.0000 1.0000
s off
f 2/1/1 3/2/1 1/3/1
f 4/4/2 5/5/2 3/6/2
f 6/7/1 7/8/1 5/9/1
f 8/10/2 9/11/2 7/12/2
f 27/13/3 47/14/3 31/15/3
f 1/16/3 12/17/3 2/18/3
f 11/19/1 14/20/1 12/21/1
f 13/22/2 16/23/2 14/24/2
f 15/25/1 18/26/1 16/27/1
f 17/28/2 20/29/2 18/30/2
f 19/31/1 22/32/1 20/33/1
f 21/34/3 24/35/3 22/36/3
f 18/37/4 22/38/4 25/39/4
f 17/40/5 13/41/5 26/42/5
f 10/43/6 26/44/6 9/45/6
f 29/46/6 39/47/6 40/48/6
f 23/49/3 27/13/3 39/50/3
f 25/51/2 29/52/2 40/53/2
f 24/54/4 29/55/4 25/39/4
f 41/56/1 33/57/1 42/58/1
f 37/59/6 35/60/6 38/61/6
f 42/62/2 37/63/2 38/64/2
f 32/65/4 37/66/4 33/67/4
f 34/68/2 46/69/2 30/70/2
f 41/71/3 35/72/3 36/73/3
f 40/53/2 34/68/2 30/70/2
f 31/15/3 39/50/3 27/13/3
f 41/74/4 40/75/4 39/76/4
f 26/77/1 43/78/1 23/79/1
f 44/80/5 45/81/5 43/82/5
f 48/83/5 49/84/5 47/85/5
f 46/86/5 47/85/5 45/81/5
f 23/49/3 45/87/3 27/13/3
f 35/60/6 50/88/6 38/61/6
f 31/15/3 49/89/3 35/72/3
f 38/64/2 48/90/2 34/68/2
f 30/70/2 44/91/2 26/92/2
f 2/1/1 4/93/1 3/2/1
f 4/4/2 6/94/2 5/5/2
f 6/7/1 8/95/1 7/8/1
f 8/10/2 10/96/2 9/11/2
f 27/13/3 45/87/3 47/14/3
f 1/16/3 11/97/3 12/17/3
f 11/19/1 13/98/1 14/20/1
f 13/22/2 15/99/2 16/23/2
f 15/25/1 17/100/1 18/26/1
f 17/28/2 19/101/2 20/29/2
f 19/31/1 21/102/1 22/32/1
f 21/34/3 23/49/3 24/35/3
f 4/103/4 2/104/4 12/105/4
f 14/106/4 16/107/4 18/37/4
f 6/108/4 4/103/4 12/105/4
f 6/108/4 12/105/4 10/109/4
f 12/105/4 14/106/4 25/39/4
f 25/39/4 14/106/4 18/37/4
f 10/109/4 8/110/4 6/108/4
f 24/54/4 25/39/4 22/38/4
f 25/39/4 10/109/4 12/105/4
f 20/111/4 22/38/4 18/37/4
f 1/112/5 3/113/5 5/114/5
f 5/114/5 7/115/5 9/116/5
f 9/116/5 26/42/5 11/117/5
f 26/42/5 23/118/5 21/119/5
f 11/117/5 26/42/5 13/41/5
f 21/119/5 19/120/5 17/40/5
f 17/40/5 15/121/5 13/41/5
f 21/119/5 17/40/5 26/42/5
f 5/114/5 9/116/5 11/117/5
f 11/117/5 1/112/5 5/114/5
f 10/43/6 25/122/6 26/44/6
f 29/46/6 28/123/6 39/47/6
f 28/124/3 24/35/3 39/50/3
f 24/35/3 23/49/3 39/50/3
f 30/70/2 26/92/2 40/53/2
f 26/92/2 25/51/2 40/53/2
f 24/54/4 28/125/4 29/55/4
f 41/56/1 32/126/1 33/57/1
f 37/59/6 36/127/6 35/60/6
f 38/64/2 34/68/2 42/62/2
f 42/62/2 33/128/2 37/63/2
f 32/65/4 36/129/4 37/66/4
f 34/68/2 48/90/2 46/69/2
f 36/73/3 32/130/3 41/71/3
f 41/71/3 31/15/3 35/72/3
f 40/53/2 42/62/2 34/68/2
f 31/15/3 41/71/3 39/50/3
f 41/74/4 42/131/4 40/75/4
f 26/77/1 44/132/1 43/78/1
f 44/80/5 46/86/5 45/81/5
f 48/83/5 50/133/5 49/84/5
f 46/86/5 48/83/5 47/85/5
f 23/49/3 43/134/3 45/87/3
f 35/60/6 49/135/6 50/88/6
f 31/15/3 47/14/3 49/89/3
f 38/64/2 50/136/2 48/90/2
f 30/70/2 46/69/2 44/91/2
