# Blender v3.0.1 OBJ File: 'Main.blend'
# www.blender.org
o Cube.5668_0265
v -1.487999 -0.009322 -0.111000
v -1.431000 -0.043800 -0.111000
v -1.517999 0.000528 -0.111000
v -1.547999 0.010379 -0.111000
v -1.583999 0.017767 -0.111000
v -1.616999 0.020230 -0.111000
v -1.814999 -0.009322 -0.111000
v -1.871999 -0.043800 -0.111000
v -1.784999 0.000528 -0.111000
v -1.754999 0.010379 -0.111000
v -1.718999 0.017767 -0.111000
v -1.685999 0.020230 -0.111000
v -1.651499 0.022200 -0.111000
v -1.459499 -0.024098 -0.111000
v -1.843499 -0.024098 -0.111000
v -1.430999 0.051000 -0.111000
v -1.871999 0.051000 -0.111000
v -1.459499 -0.024098 -0.105000
v -1.431000 -0.043800 -0.105000
v -1.487999 -0.009322 -0.105000
v -1.517999 0.000528 -0.105000
v -1.547999 0.010379 -0.105000
v -1.583999 0.017767 -0.105000
v -1.616999 0.020230 -0.105000
v -1.843499 -0.024098 -0.105000
v -1.871999 -0.043800 -0.105000
v -1.784999 0.000528 -0.105000
v -1.814999 -0.009322 -0.105000
v -1.754999 0.010379 -0.105000
v -1.718999 0.017767 -0.105000
v -1.685999 0.020230 -0.105000
v -1.651499 0.022200 -0.105000
v -1.430999 0.051000 -0.105000
v -1.871999 0.051000 -0.105000
v -1.694999 0.063000 -0.105000
v -1.607999 0.063000 -0.105000
v -1.694999 0.063000 -0.111000
v -1.607999 0.063000 -0.111000
vt 0.253748 0.902817
vt 0.253640 0.906011
vt 0.253640 0.902817
vt 0.249943 0.899584
vt 0.249835 0.900117
vt 0.249835 0.899584
vt 0.948484 0.308424
vt 0.948592 0.306713
vt 0.948592 0.308424
vt 0.249943 0.900117
vt 0.249835 0.900760
vt 0.249943 0.900760
vt 0.249835 0.901353
vt 0.249943 0.905472
vt 0.249835 0.906002
vt 0.249835 0.905472
vt 0.249943 0.904397
vt 0.249835 0.904946
vt 0.249835 0.904397
vt 0.249943 0.903848
vt 0.249835 0.903848
vt 0.249943 0.903193
vt 0.249835 0.903193
vt 0.249943 0.902597
vt 0.249835 0.902597
vt 0.249943 0.901973
vt 0.249835 0.901973
vt 0.249943 0.901353
vt 0.249943 0.898551
vt 0.249835 0.899052
vt 0.249835 0.898551
vt 0.249943 0.904946
vt 0.249943 0.898053
vt 0.249835 0.898053
vt 0.249943 0.899052
vt 0.948584 0.740346
vt 0.948476 0.742057
vt 0.948476 0.740346
vt 0.865762 0.875159
vt 0.866498 0.875944
vt 0.865727 0.875782
vt 0.476899 0.875114
vt 0.476864 0.874491
vt 0.477636 0.874328
vt 0.253748 0.898053
vt 0.253640 0.901247
vt 0.253640 0.898053
vt 0.253748 0.901247
vt 0.253748 0.906011
vt 0.948484 0.306713
vt 0.249943 0.906002
vt 0.948584 0.742057
vt 0.864927 0.871695
vt 0.864571 0.871180
vt 0.866282 0.871180
vt 0.866498 0.874373
vt 0.865549 0.873291
vt 0.865682 0.873941
vt 0.865727 0.874537
vt 0.866282 0.879137
vt 0.864571 0.879137
vt 0.864927 0.878624
vt 0.865193 0.878109
vt 0.865549 0.877027
vt 0.865193 0.872208
vt 0.865371 0.872750
vt 0.865371 0.877568
vt 0.865682 0.876376
vt 0.477419 0.879092
vt 0.475708 0.879092
vt 0.476064 0.878578
vt 0.476331 0.878064
vt 0.477636 0.875898
vt 0.476686 0.876981
vt 0.476864 0.875736
vt 0.476819 0.876331
vt 0.476064 0.871649
vt 0.475708 0.871135
vt 0.477419 0.871135
vt 0.476331 0.872163
vt 0.476686 0.873245
vt 0.476508 0.877522
vt 0.476508 0.872704
vt 0.476819 0.873895
vn -0.0676 0.9977 0.0000
vn -0.3120 -0.9501 0.0000
vn -1.0000 0.0000 0.0000
vn -0.2010 -0.9796 0.0000
vn -0.0744 -0.9972 0.0000
vn 0.5686 -0.8226 0.0000
vn 0.3120 -0.9501 0.0000
vn 0.2010 -0.9796 0.0000
vn 0.0744 -0.9972 0.0000
vn 0.0570 -0.9984 0.0000
vn -0.0570 -0.9984 0.0000
vn -0.4603 -0.8878 0.0000
vn 0.4603 -0.8878 0.0000
vn -0.5686 -0.8226 0.0000
vn 1.0000 -0.0000 0.0000
vn 0.0000 0.0000 1.0000
vn -0.0000 0.0000 -1.0000
vn 0.0676 0.9977 0.0000
vn 0.0000 1.0000 0.0000
vn -0.5687 -0.8226 0.0000
s off
f 37/1/1 34/2/1 35/3/1
f 21/4/2 4/5/2 3/6/2
f 26/7/3 17/8/3 8/9/3
f 22/10/4 5/11/4 4/5/4
f 23/12/5 6/13/5 5/11/5
f 25/14/6 8/15/6 15/16/6
f 27/17/7 7/18/7 9/19/7
f 29/20/7 9/19/7 10/21/7
f 30/22/8 10/21/8 11/23/8
f 31/24/9 11/23/9 12/25/9
f 32/26/10 12/25/10 13/27/10
f 24/28/11 13/27/11 6/13/11
f 18/29/12 1/30/12 14/31/12
f 28/32/13 15/16/13 7/18/13
f 19/33/14 14/31/14 2/34/14
f 20/35/2 3/6/2 1/30/2
f 33/36/15 2/37/15 16/38/15
f 32/39/16 35/40/16 31/41/16
f 13/42/17 12/43/17 37/44/17
f 16/45/18 36/46/18 33/47/18
f 38/48/19 35/3/19 36/46/19
f 37/1/1 17/49/1 34/2/1
f 21/4/2 22/10/2 4/5/2
f 26/7/3 34/50/3 17/8/3
f 22/10/4 23/12/4 5/11/4
f 23/12/5 24/28/5 6/13/5
f 25/14/6 26/51/6 8/15/6
f 27/17/7 28/32/7 7/18/7
f 29/20/7 27/17/7 9/19/7
f 30/22/8 29/20/8 10/21/8
f 31/24/9 30/22/9 11/23/9
f 32/26/10 31/24/10 12/25/10
f 24/28/11 32/26/11 13/27/11
f 18/29/12 20/35/12 1/30/12
f 28/32/13 25/14/13 15/16/13
f 19/33/20 18/29/20 14/31/20
f 20/35/2 21/4/2 3/6/2
f 33/36/15 19/52/15 2/37/15
f 18/53/16 19/54/16 33/55/16
f 33/55/16 36/56/16 22/57/16
f 36/56/16 35/40/16 32/39/16
f 23/58/16 36/56/16 24/59/16
f 34/60/16 26/61/16 25/62/16
f 34/60/16 25/62/16 28/63/16
f 36/56/16 23/58/16 22/57/16
f 35/40/16 34/60/16 29/64/16
f 20/65/16 18/53/16 33/55/16
f 21/66/16 20/65/16 33/55/16
f 34/60/16 28/63/16 27/67/16
f 34/60/16 27/67/16 29/64/16
f 22/57/16 21/66/16 33/55/16
f 29/64/16 30/68/16 35/40/16
f 30/68/16 31/41/16 35/40/16
f 24/59/16 36/56/16 32/39/16
f 16/69/17 2/70/17 14/71/17
f 16/69/17 14/71/17 1/72/17
f 37/44/17 38/73/17 13/42/17
f 38/73/17 16/69/17 4/74/17
f 6/75/17 38/73/17 5/76/17
f 15/77/17 8/78/17 17/79/17
f 7/80/17 15/77/17 17/79/17
f 17/79/17 37/44/17 10/81/17
f 38/73/17 6/75/17 13/42/17
f 16/69/17 1/72/17 3/82/17
f 16/69/17 3/82/17 4/74/17
f 9/83/17 7/80/17 17/79/17
f 10/81/17 9/83/17 17/79/17
f 4/74/17 5/76/17 38/73/17
f 11/84/17 10/81/17 37/44/17
f 12/43/17 11/84/17 37/44/17
f 16/45/18 38/48/18 36/46/18
f 38/48/19 37/1/19 35/3/19
