# Blender v3.0.1 OBJ File: 'Main.blend'
# www.blender.org
o Cube.5385_0172
v 1.908000 0.006000 3.081000
v 1.908000 0.366000 3.081000
v 1.938000 0.006000 3.081000
v 1.938000 0.366000 3.081000
v 1.908000 0.006000 3.147000
v 1.908000 0.366000 3.147000
v 1.938000 0.006000 3.147000
v 1.938000 0.366000 3.147000
v 1.908000 0.006000 3.219000
v 1.908000 0.366000 3.219000
v 1.938000 0.006000 3.219000
v 1.938000 0.366000 3.219000
v 1.908000 0.006000 3.285000
v 1.908000 0.366000 3.285000
v 1.938000 0.006000 3.285000
v 1.938000 0.366000 3.285000
vt 0.465550 0.899581
vt 0.466092 0.906077
vt 0.465550 0.906077
vt 0.167655 0.906096
vt 0.168196 0.899600
vt 0.168196 0.906096
vt 0.851483 0.945011
vt 0.852025 0.946202
vt 0.851483 0.946202
vt 0.006715 0.889747
vt 0.005524 0.896244
vt 0.005524 0.889747
vt 0.931264 0.433150
vt 0.931805 0.434341
vt 0.931264 0.434341
vt 0.457359 0.896218
vt 0.458550 0.889721
vt 0.458550 0.896218
vt 0.465550 0.899581
vt 0.466092 0.906077
vt 0.465550 0.906077
vt 0.167655 0.906096
vt 0.168196 0.899600
vt 0.168196 0.906096
vt 0.851483 0.945011
vt 0.852025 0.946202
vt 0.851483 0.946202
vt 0.006715 0.889747
vt 0.005524 0.896244
vt 0.005524 0.889747
vt 0.931264 0.433150
vt 0.931805 0.434341
vt 0.931264 0.434341
vt 0.457359 0.896218
vt 0.458550 0.889721
vt 0.458550 0.896218
vt 0.466092 0.899581
vt 0.167655 0.899600
vt 0.852025 0.945011
vt 0.006715 0.896244
vt 0.931805 0.433150
vt 0.457359 0.889721
vt 0.466092 0.899581
vt 0.167655 0.899600
vt 0.852025 0.945011
vt 0.006715 0.896244
vt 0.931805 0.433150
vt 0.457359 0.889721
vn 0.0000 0.0000 -1.0000
vn 0.0000 0.0000 1.0000
vn 0.0000 1.0000 0.0000
vn 1.0000 0.0000 0.0000
vn 0.0000 -1.0000 0.0000
vn -1.0000 0.0000 0.0000
s off
f 2/1/1 3/2/1 1/3/1
f 7/4/2 6/5/2 5/6/2
f 6/7/3 4/8/3 2/9/3
f 8/10/4 3/11/4 4/12/4
f 7/13/5 1/14/5 3/15/5
f 5/16/6 2/17/6 1/18/6
f 10/19/1 11/20/1 9/21/1
f 15/22/2 14/23/2 13/24/2
f 14/25/3 12/26/3 10/27/3
f 16/28/4 11/29/4 12/30/4
f 15/31/5 9/32/5 11/33/5
f 13/34/6 10/35/6 9/36/6
f 2/1/1 4/37/1 3/2/1
f 7/4/2 8/38/2 6/5/2
f 6/7/3 8/39/3 4/8/3
f 8/10/4 7/40/4 3/11/4
f 7/13/5 5/41/5 1/14/5
f 5/16/6 6/42/6 2/17/6
f 10/19/1 12/43/1 11/20/1
f 15/22/2 16/44/2 14/23/2
f 14/25/3 16/45/3 12/26/3
f 16/28/4 15/46/4 11/29/4
f 15/31/5 13/47/5 9/32/5
f 13/34/6 14/48/6 10/35/6
