# Blender v3.0.1 OBJ File: 'Main.blend'
# www.blender.org
o Cube.5080_0294
v -1.204500 0.429000 -2.197500
v -1.189500 0.429000 -2.197500
v -1.204500 0.414000 -2.197500
v -1.189500 0.414000 -2.197500
v -1.189500 0.429000 -1.957500
v -1.204500 0.429000 -1.957500
v -1.189500 0.414000 -1.957500
v -1.204500 0.414000 -1.957500
vt 0.981705 0.403636
vt 0.981435 0.403365
vt 0.981705 0.403365
vt 0.983519 0.196142
vt 0.983790 0.195871
vt 0.983790 0.196142
vt 0.382554 0.919375
vt 0.382825 0.923706
vt 0.382554 0.923706
vt 0.006499 0.919425
vt 0.006769 0.923756
vt 0.006499 0.923756
vt 0.127854 0.923717
vt 0.127583 0.919387
vt 0.127854 0.919387
vt 0.554460 0.919434
vt 0.554731 0.923765
vt 0.554460 0.923765
vt 0.981435 0.403636
vt 0.983519 0.195871
vt 0.382825 0.919375
vt 0.006769 0.919425
vt 0.127583 0.923717
vt 0.554731 0.919434
vn 0.0000 0.0000 -1.0000
vn 0.0000 0.0000 1.0000
vn -1.0000 0.0000 0.0000
vn 0.0000 1.0000 0.0000
vn 1.0000 0.0000 0.0000
vn 0.0000 -1.0000 0.0000
s off
f 2/1/1 3/2/1 1/3/1
f 8/4/2 5/5/2 6/6/2
f 8/7/3 1/8/3 3/9/3
f 6/10/4 2/11/4 1/12/4
f 5/13/5 4/14/5 2/15/5
f 7/16/6 3/17/6 4/18/6
f 2/1/1 4/19/1 3/2/1
f 8/4/2 7/20/2 5/5/2
f 8/7/3 6/21/3 1/8/3
f 6/10/4 5/22/4 2/11/4
f 5/13/5 7/23/5 4/14/5
f 7/16/6 8/24/6 3/17/6
