# Blender v3.0.1 OBJ File: 'Main.blend'
# www.blender.org
o Cube.5495_0196
v 0.450001 0.465000 3.288000
v 0.450001 0.465000 2.940000
v 0.450001 0.582000 3.288000
v 0.450001 0.582000 2.940000
v 1.380001 0.465000 2.940000
v 1.380001 0.465000 3.288000
v 1.380001 0.582000 2.940000
v 1.380001 0.582000 3.288000
vt 0.221651 0.877877
vt 0.223763 0.884155
vt 0.221651 0.884155
vt 0.874327 0.877834
vt 0.872215 0.884112
vt 0.872215 0.877834
vt 0.861110 0.022282
vt 0.858998 0.005500
vt 0.861110 0.005500
vt 0.689057 0.806434
vt 0.695335 0.823217
vt 0.689057 0.823217
vt 0.590451 0.843509
vt 0.592563 0.860292
vt 0.590451 0.860292
vt 0.022260 0.824420
vt 0.015982 0.807638
vt 0.022260 0.807638
vt 0.223763 0.877877
vt 0.874327 0.884112
vt 0.858998 0.022282
vt 0.695335 0.806434
vt 0.592563 0.843509
vt 0.015982 0.824420
vn -1.0000 0.0000 0.0000
vn 1.0000 0.0000 0.0000
vn 0.0000 0.0000 -1.0000
vn 0.0000 -1.0000 0.0000
vn 0.0000 0.0000 1.0000
vn 0.0000 1.0000 0.0000
s off
f 1/1/1 4/2/1 2/3/1
f 7/4/2 6/5/2 5/6/2
f 7/7/3 2/8/3 4/9/3
f 5/10/4 1/11/4 2/12/4
f 6/13/5 3/14/5 1/15/5
f 8/16/6 4/17/6 3/18/6
f 1/1/1 3/19/1 4/2/1
f 7/4/2 8/20/2 6/5/2
f 7/7/3 5/21/3 2/8/3
f 5/10/4 6/22/4 1/11/4
f 6/13/5 8/23/5 3/14/5
f 8/16/6 7/24/6 4/17/6
