# Blender v3.0.1 OBJ File: 'Main.blend'
# www.blender.org
o Cube.4482_0009
v 0.150000 0.060000 -1.105500
v -0.144000 0.060000 -1.105500
v 0.150000 0.222000 -1.105500
v 0.003000 0.369000 -1.105500
v 0.147175 0.250678 -1.105500
v 0.138810 0.278254 -1.105500
v 0.125226 0.303669 -1.105500
v 0.106945 0.325945 -1.105500
v 0.084669 0.344226 -1.105500
v 0.059254 0.357810 -1.105500
v 0.031678 0.366175 -1.105500
v -0.144000 0.222000 -1.105500
v -0.025678 0.366175 -1.105500
v -0.053254 0.357810 -1.105500
v -0.078669 0.344226 -1.105500
v -0.100945 0.325945 -1.105500
v -0.119226 0.303669 -1.105500
v -0.132810 0.278254 -1.105500
v -0.141176 0.250678 -1.105500
v -0.144000 0.060000 -1.102500
v -0.144000 0.222000 -1.102500
v 0.059254 0.357810 -1.102500
v 0.031678 0.366175 -1.102500
v -0.132810 0.278254 -1.102500
v -0.141176 0.250678 -1.102500
v 0.150000 0.222000 -1.102500
v 0.147175 0.250678 -1.102500
v 0.003000 0.369000 -1.102500
v -0.025678 0.366175 -1.102500
v 0.138810 0.278254 -1.102500
v -0.053254 0.357810 -1.102500
v 0.125226 0.303669 -1.102500
v -0.078669 0.344226 -1.102500
v 0.106945 0.325945 -1.102500
v -0.100945 0.325945 -1.102500
v 0.150000 0.060000 -1.102500
v 0.084669 0.344226 -1.102500
v -0.119226 0.303669 -1.102500
vt 0.000000 0.000000
vt 0.000000 0.000000
vt 0.000000 0.000000
vt 0.000000 0.000000
vt 0.000000 0.000000
vt 0.000000 0.000000
vt 0.000000 0.000000
vt 0.000000 0.000000
vt 0.000000 0.000000
vt 0.000000 0.000000
vt 0.000000 0.000000
vt 0.000000 0.000000
vt 0.000000 0.000000
vt 0.000000 0.000000
vt 0.000000 0.000000
vt 0.000000 0.000000
vt 0.000000 0.000000
vt 0.000000 0.000000
vt 0.000000 0.000000
vt 0.000000 0.000000
vt 0.000000 0.000000
vt 0.000000 0.000000
vt 0.000000 0.000000
vt 0.000000 0.000000
vt 0.000000 0.000000
vt 0.000000 0.000000
vt 0.000000 0.000000
vt 0.000000 0.000000
vt 0.000000 0.000000
vt 0.000000 0.000000
vt 0.000000 0.000000
vt 0.000000 0.000000
vt 0.000000 0.000000
vt 0.000000 0.000000
vt 0.000000 0.000000
vt 0.000000 0.000000
vt 0.000000 0.000000
vt 0.000000 0.000000
vn 0.0000 -0.0000 -1.0000
vn 0.0000 -0.0000 1.0000
vn 0.9952 0.0980 0.0000
vn -0.6344 0.7730 0.0000
vn 0.0980 0.9952 0.0000
vn 0.0000 -1.0000 0.0000
vn -0.0980 0.9952 0.0000
vn 1.0000 0.0000 0.0000
vn 0.9569 0.2903 0.0000
vn -1.0000 0.0000 0.0000
vn 0.6344 0.7730 0.0000
vn -0.2903 0.9569 0.0000
vn 0.2903 0.9569 0.0000
vn -0.7730 0.6344 0.0000
vn 0.8819 0.4714 0.0000
vn -0.9569 0.2903 0.0000
vn 0.4714 0.8819 0.0000
vn -0.4714 0.8819 0.0000
vn -0.9952 0.0980 0.0000
vn -0.8819 0.4714 0.0000
vn 0.7730 0.6344 0.0000
s off
f 16/1/1 8/2/1 3/3/1
f 32/4/2 33/5/2 25/6/2
f 27/7/3 3/3/3 5/8/3
f 35/9/4 15/10/4 16/1/4
f 28/11/5 11/12/5 4/13/5
f 36/14/6 2/15/6 1/16/6
f 29/17/7 4/13/7 13/18/7
f 26/19/8 1/16/8 3/3/8
f 30/20/9 5/8/9 6/21/9
f 20/22/10 12/23/10 2/15/10
f 37/24/11 8/2/11 9/25/11
f 31/26/12 13/18/12 14/27/12
f 23/28/13 10/29/13 11/12/13
f 38/30/14 16/1/14 17/31/14
f 32/4/15 6/21/15 7/32/15
f 25/6/16 18/33/16 19/34/16
f 22/35/17 9/25/17 10/29/17
f 33/5/18 14/27/18 15/10/18
f 21/36/19 19/34/19 12/23/19
f 24/37/20 17/31/20 18/33/20
f 34/38/21 7/32/21 8/2/21
f 1/16/1 2/15/1 12/23/1
f 12/23/1 19/34/1 16/1/1
f 19/34/1 18/33/1 16/1/1
f 18/33/1 17/31/1 16/1/1
f 16/1/1 15/10/1 14/27/1
f 14/27/1 13/18/1 4/13/1
f 4/13/1 11/12/1 10/29/1
f 10/29/1 9/25/1 8/2/1
f 8/2/1 7/32/1 6/21/1
f 6/21/1 5/8/1 8/2/1
f 5/8/1 3/3/1 8/2/1
f 3/3/1 1/16/1 12/23/1
f 16/1/1 14/27/1 4/13/1
f 4/13/1 10/29/1 16/1/1
f 10/29/1 8/2/1 16/1/1
f 3/3/1 12/23/1 16/1/1
f 21/36/2 20/22/2 36/14/2
f 36/14/2 26/19/2 21/36/2
f 26/19/2 27/7/2 25/6/2
f 27/7/2 30/20/2 32/4/2
f 32/4/2 34/38/2 37/24/2
f 37/24/2 22/35/2 23/28/2
f 23/28/2 28/11/2 29/17/2
f 29/17/2 31/26/2 23/28/2
f 31/26/2 33/5/2 23/28/2
f 33/5/2 35/9/2 25/6/2
f 35/9/2 38/30/2 25/6/2
f 38/30/2 24/37/2 25/6/2
f 25/6/2 21/36/2 26/19/2
f 27/7/2 32/4/2 25/6/2
f 32/4/2 37/24/2 33/5/2
f 37/24/2 23/28/2 33/5/2
f 27/7/3 26/19/3 3/3/3
f 35/9/4 33/5/4 15/10/4
f 28/11/5 23/28/5 11/12/5
f 36/14/6 20/22/6 2/15/6
f 29/17/7 28/11/7 4/13/7
f 26/19/8 36/14/8 1/16/8
f 30/20/9 27/7/9 5/8/9
f 20/22/10 21/36/10 12/23/10
f 37/24/11 34/38/11 8/2/11
f 31/26/12 29/17/12 13/18/12
f 23/28/13 22/35/13 10/29/13
f 38/30/14 35/9/14 16/1/14
f 32/4/15 30/20/15 6/21/15
f 25/6/16 24/37/16 18/33/16
f 22/35/17 37/24/17 9/25/17
f 33/5/18 31/26/18 14/27/18
f 21/36/19 25/6/19 19/34/19
f 24/37/20 38/30/20 17/31/20
f 34/38/21 32/4/21 7/32/21
