# Blender v3.0.1 OBJ File: 'Main.blend'
# www.blender.org
o Cube.5681_0329
v 1.115997 -0.065010 0.054000
v 1.115997 -0.065010 -0.105000
v 1.061997 -0.065010 0.054000
v 1.061997 -0.065010 -0.105000
v 1.115997 -0.067560 0.054000
v 1.115997 -0.067560 -0.105000
v 1.061997 -0.067560 0.054000
v 1.061997 -0.067560 -0.105000
vt 0.870878 0.529909
vt 0.870878 0.527040
vt 0.869904 0.527040
vt 0.921176 0.545161
vt 0.921176 0.548030
vt 0.922149 0.548030
vt 0.973172 0.072375
vt 0.973217 0.072375
vt 0.973217 0.071401
vt 0.937523 0.200989
vt 0.937569 0.200989
vt 0.937569 0.198120
vt 0.973217 0.117183
vt 0.973217 0.116209
vt 0.973171 0.116209
vt 0.937383 0.555677
vt 0.937383 0.552808
vt 0.937338 0.552808
vt 0.869904 0.529909
vt 0.922149 0.545161
vt 0.973172 0.071401
vt 0.937523 0.198120
vt 0.973171 0.117183
vt 0.937338 0.555677
vn 0.0000 1.0000 0.0000
vn 0.0000 -1.0000 0.0000
vn 0.0000 -0.0000 1.0000
vn -1.0000 0.0000 0.0000
vn 0.0000 0.0000 -1.0000
vn 1.0000 0.0000 0.0000
vn -1.0000 -0.0001 0.0000
s off
f 1/1/1 2/2/1 4/3/1
f 6/4/2 5/5/2 7/6/2
f 3/7/3 7/8/3 5/9/3
f 4/10/4 8/11/4 7/12/4
f 4/13/5 2/14/5 6/15/5
f 2/16/6 1/17/6 5/18/6
f 1/1/1 4/3/1 3/19/1
f 6/4/2 7/6/2 8/20/2
f 3/7/3 5/9/3 1/21/3
f 4/10/7 7/12/7 3/22/7
f 4/13/5 6/15/5 8/23/5
f 2/16/6 5/18/6 6/24/6
