# Blender v3.0.1 OBJ File: 'Main.blend'
# www.blender.org
o Cube.5324_0108
v -1.435502 0.465000 -1.041000
v -1.435502 0.465000 -2.961000
v 0.002999 0.465000 -2.961000
v -1.435502 0.459000 -2.961000
v -1.435502 0.459000 -1.041000
v 0.002999 0.459000 -2.961000
v -1.905002 0.459000 -1.338000
v -1.896002 0.459000 -1.338000
v -1.899002 0.459000 -1.287000
v -1.899002 0.459000 -1.041000
v -1.890002 0.459000 -1.332000
v -1.899002 0.459000 -1.332000
v -1.890002 0.459000 -1.585500
v -1.896002 0.459000 -1.041000
v -1.890002 0.459000 -1.968000
v -1.890002 0.459000 -1.932000
v -1.881002 0.459000 -1.968000
v -1.377002 0.459000 -3.396000
v -1.881002 0.459000 -1.986000
v -1.881002 0.459000 -2.892000
v -1.881002 0.459000 -2.949000
v -1.890002 0.459000 -2.949000
v -1.890002 0.459000 -3.006000
v -1.890002 0.459000 -3.405000
v -1.890002 0.459000 -3.327000
v -0.471002 0.459000 -3.396000
v -1.434001 0.459000 -3.396000
v -1.434001 0.459000 -3.405000
v -1.491002 0.459000 -3.405000
v -1.812001 0.459000 -3.405000
v -0.453001 0.459000 -3.405000
v -0.222001 0.459000 -3.405000
v -0.453001 0.459000 -3.396000
v -0.222001 0.459000 -3.477000
v 0.002999 0.459000 -3.477000
v -1.905002 0.465000 -1.338000
v -1.896002 0.465000 -1.338000
v -1.899002 0.465000 -1.287000
v -1.899002 0.465000 -1.041000
v -1.890002 0.465000 -1.332000
v -1.899002 0.465000 -1.332000
v -1.890002 0.465000 -1.585500
v -1.896002 0.465000 -1.041000
v -1.890002 0.465000 -1.968000
v -1.890002 0.465000 -1.932000
v -1.881002 0.465000 -1.968000
v -1.377002 0.465000 -3.396000
v -1.881002 0.465000 -1.986000
v -1.881002 0.465000 -2.892000
v -1.881002 0.465000 -2.949000
v -1.890002 0.465000 -2.949000
v -1.890002 0.465000 -3.006000
v -1.890002 0.465000 -3.405000
v -1.890002 0.465000 -3.327000
v -0.471002 0.465000 -3.396000
v -1.434001 0.465000 -3.396000
v -1.434001 0.465000 -3.405000
v -1.491002 0.465000 -3.405000
v -1.812001 0.465000 -3.405000
v -0.222001 0.465000 -3.405000
v -0.453001 0.465000 -3.396000
v -0.453001 0.465000 -3.405000
v -0.222001 0.465000 -3.477000
v 0.002999 0.465000 -3.477000
v -1.899002 0.459000 -1.585500
v -1.899002 0.459000 -1.932000
v -1.899002 0.465000 -1.585500
v -1.899002 0.465000 -1.932000
v -1.435502 0.465000 -0.381000
v -1.435502 0.459000 -0.381000
v -1.896002 0.459000 -0.381000
v -1.896002 0.465000 -0.381000
v -1.435502 0.465000 0.318000
v -1.435502 0.459000 0.318000
v -1.896002 0.459000 0.318000
v -1.896002 0.465000 0.318000
v -1.435502 0.465000 0.975000
v -1.435502 0.459000 0.975000
v -1.896002 0.459000 0.975000
v -1.896002 0.465000 0.975000
v -1.947002 0.459000 -0.381000
v -1.947002 0.465000 -0.381000
v -1.947002 0.459000 0.318000
v -1.947002 0.465000 0.318000
v -1.435502 0.459000 1.266000
v -1.435502 0.465000 1.266000
v -1.890002 0.459000 1.266000
v -1.890002 0.465000 1.266000
v -1.899002 0.459000 0.975000
v -1.899002 0.465000 0.975000
v -1.899002 0.459000 1.266000
v -1.899002 0.465000 1.266000
v -1.435502 0.459000 2.937000
v -1.435502 0.465000 2.937000
v -1.890002 0.459000 2.916000
v -1.890002 0.465000 2.916000
v -1.435502 0.459000 3.045000
v -1.435502 0.465000 3.045000
v -1.890002 0.459000 3.045000
v -1.890002 0.465000 3.045000
v -1.914002 0.459000 2.916000
v -1.914002 0.465000 2.916000
v -1.914002 0.459000 2.955000
v -1.914002 0.465000 2.955000
v -1.444502 0.459000 3.420000
v -1.444502 0.465000 3.420000
v -1.848002 0.459000 3.420000
v -1.848002 0.465000 3.420000
v -1.872002 0.459000 3.420000
v -1.872002 0.465000 3.420000
v -1.444502 0.459000 3.516000
v -1.444502 0.465000 3.516000
v -1.848002 0.459000 3.516000
v -1.848002 0.465000 3.516000
v -1.872002 0.459000 3.516000
v -1.872002 0.465000 3.516000
v -1.926002 0.459000 2.955000
v -1.926002 0.465000 2.955000
v -1.926002 0.459000 3.420000
v -1.926002 0.465000 3.420000
v -1.395002 0.459000 2.937000
v -1.395002 0.465000 2.937000
v -1.395002 0.459000 3.045000
v -1.395002 0.465000 3.045000
v -1.437002 0.459000 3.420000
v -1.437002 0.465000 3.420000
v -1.437002 0.465000 3.516000
v -1.437002 0.459000 3.516000
v -0.444002 0.459000 2.937000
v -0.444002 0.465000 2.937000
v -0.444002 0.459000 3.045000
v -0.444002 0.465000 3.045000
v -0.444002 0.459000 3.420000
v -0.444002 0.465000 3.420000
v -0.348002 0.459000 2.937000
v -0.348002 0.465000 2.937000
v -0.348002 0.459000 3.045000
v -0.348002 0.465000 3.045000
v -0.348002 0.459000 3.420000
v -0.348002 0.465000 3.420000
v -0.444002 0.459000 3.438000
v -0.444002 0.465000 3.438000
v -0.348002 0.459000 3.438000
v -0.348002 0.465000 3.438000
v 0.002998 0.459000 2.937000
v 0.002998 0.465000 2.937000
v 0.002998 0.459000 3.045000
v 0.002998 0.465000 3.045000
v 0.002998 0.459000 3.420000
v 0.002998 0.465000 3.420000
v 0.002998 0.459000 3.438000
v 0.002998 0.465000 3.438000
v 0.002998 0.465000 3.531000
v -0.348002 0.465000 3.531000
v -0.348002 0.459000 3.531000
v 0.002998 0.459000 3.531000
vt 0.860930 0.301034
vt 0.860930 0.275074
vt 0.860821 0.275074
vt 0.400428 0.812731
vt 0.400428 0.778080
vt 0.400319 0.778080
vt 0.904097 0.041551
vt 0.903989 0.041551
vt 0.903989 0.042956
vt 0.995251 0.577083
vt 0.995251 0.577191
vt 0.995305 0.577191
vt 0.865741 0.989799
vt 0.865741 0.989959
vt 0.865849 0.989959
vt 0.918884 0.318602
vt 0.918992 0.318602
vt 0.918992 0.317790
vt 0.871693 0.223415
vt 0.871584 0.223415
vt 0.871584 0.223740
vt 0.940498 0.487539
vt 0.940498 0.487430
vt 0.940390 0.487430
vt 0.871355 0.290207
vt 0.871355 0.290531
vt 0.871464 0.290531
vt 0.871693 0.207067
vt 0.871584 0.207067
vt 0.986513 0.741218
vt 0.986513 0.741326
vt 0.986621 0.741326
vt 0.904097 0.042956
vt 0.903989 0.048749
vt 0.888403 0.595996
vt 0.888294 0.595996
vt 0.888294 0.596646
vt 0.773160 0.989633
vt 0.773051 0.989633
vt 0.773051 0.989795
vt 0.895298 0.903291
vt 0.895298 0.902262
vt 0.895191 0.902262
vt 0.871355 0.306880
vt 0.871464 0.306880
vt 0.871355 0.307909
vt 0.895298 0.896471
vt 0.895191 0.896471
vt 0.578228 0.989644
vt 0.578119 0.989644
vt 0.578119 0.989807
vt 0.895298 0.895064
vt 0.895191 0.895064
vt 0.871584 0.206038
vt 0.926205 0.272711
vt 0.926314 0.272711
vt 0.926314 0.268541
vt 0.904097 0.048749
vt 0.903989 0.049780
vt 0.986513 0.741489
vt 0.529367 0.989823
vt 0.529259 0.989823
vt 0.529259 0.989983
vt 0.918884 0.317790
vt 0.918992 0.313351
vt 0.958858 0.923128
vt 0.958858 0.924426
vt 0.958966 0.924426
vt 0.888403 0.602898
vt 0.888294 0.602898
vt 0.888294 0.607473
vt 0.929439 0.524831
vt 0.929439 0.528894
vt 0.929547 0.528894
vt 0.888403 0.596646
vt 0.680113 0.045810
vt 0.671804 0.045810
vt 0.671804 0.057724
vt 0.898860 0.010257
vt 0.898860 0.019571
vt 0.898968 0.019571
vt 0.607990 0.004560
vt 0.609397 0.003147
vt 0.607990 0.003147
vt 0.671804 0.011166
vt 0.679843 0.012403
vt 0.679843 0.011380
vt 0.607990 0.035980
vt 0.607990 0.029733
vt 0.607827 0.029733
vt 0.680005 0.029725
vt 0.680005 0.035988
vt 0.680167 0.035988
vt 0.657876 0.972162
vt 0.657768 0.972162
vt 0.657768 0.973082
vt 0.469897 0.876110
vt 0.469788 0.876110
vt 0.469788 0.888019
vt 0.607881 0.045810
vt 0.607881 0.057717
vt 0.616191 0.057717
vt 0.400428 0.766173
vt 0.680113 0.070326
vt 0.671804 0.070326
vt 0.671804 0.082180
vt 0.680113 0.057724
vt 0.400319 0.766173
vt 0.400428 0.753563
vt 0.607881 0.070334
vt 0.671804 0.087434
vt 0.680005 0.087434
vt 0.400319 0.753563
vt 0.400428 0.741702
vt 0.616191 0.070334
vt 0.607881 0.082187
vt 0.888023 0.155599
vt 0.887914 0.155599
vt 0.887914 0.167453
vt 0.769954 0.873391
vt 0.769845 0.873391
vt 0.769845 0.886004
vt 0.606961 0.057717
vt 0.681034 0.070326
vt 0.753788 0.973086
vt 0.753897 0.973086
vt 0.753897 0.972166
vt 0.671804 0.117587
vt 0.680005 0.117205
vt 0.400319 0.741702
vt 0.400428 0.736455
vt 0.616191 0.082187
vt 0.607990 0.087434
vt 0.680113 0.082180
vt 0.680167 0.087434
vt 0.918649 0.267892
vt 0.918540 0.267892
vt 0.918540 0.273147
vt 0.995010 0.847268
vt 0.995010 0.847376
vt 0.995065 0.847376
vt 0.607827 0.082187
vt 0.607827 0.087434
vt 0.769246 0.989795
vt 0.769355 0.989795
vt 0.769355 0.989633
vt 0.616191 0.117587
vt 0.607990 0.117213
vt 0.607990 0.119542
vt 0.400319 0.736455
vt 0.400428 0.706302
vt 0.616191 0.087434
vt 0.855208 0.820950
vt 0.855100 0.820950
vt 0.855100 0.850721
vt 0.680005 0.119542
vt 0.679247 0.126309
vt 0.679680 0.126309
vt 0.680438 0.117908
vt 0.671804 0.119542
vt 0.616029 0.126309
vt 0.616029 0.128035
vt 0.616164 0.128035
vt 0.940076 0.982096
vt 0.939967 0.982096
vt 0.939967 0.982798
vt 0.984318 0.330569
vt 0.984209 0.330569
vt 0.984209 0.331003
vt 0.607557 0.117213
vt 0.607557 0.117916
vt 0.608315 0.126309
vt 0.608748 0.126309
vt 0.608315 0.128035
vt 0.608748 0.128035
vt 0.671966 0.126309
vt 0.549537 0.906056
vt 0.549428 0.906056
vt 0.549428 0.906191
vt 0.680655 0.126309
vt 0.616191 0.119542
vt 0.549537 0.898775
vt 0.549428 0.898775
vt 0.549537 0.898342
vt 0.946789 0.116179
vt 0.946680 0.116179
vt 0.946680 0.117920
vt 0.671966 0.128035
vt 0.671830 0.126309
vt 0.679247 0.128035
vt 0.903018 0.881845
vt 0.902909 0.881845
vt 0.902909 0.890231
vt 0.988979 0.917232
vt 0.988870 0.917232
vt 0.988870 0.917449
vt 0.520609 0.972976
vt 0.520718 0.972976
vt 0.520718 0.972002
vt 0.607340 0.117916
vt 0.607340 0.126309
vt 0.616922 0.117587
vt 0.616922 0.119542
vt 0.634083 0.119542
vt 0.870982 0.370966
vt 0.870873 0.370966
vt 0.870873 0.388888
vt 0.894990 0.946775
vt 0.895099 0.946775
vt 0.895099 0.945034
vt 0.671073 0.119542
vt 0.671073 0.117587
vt 0.616164 0.126309
vt 0.861293 0.658042
vt 0.861402 0.658042
vt 0.861402 0.657311
vt 0.635815 0.126309
vt 0.634083 0.126309
vt 0.634083 0.126630
vt 0.861293 0.657311
vt 0.861402 0.640151
vt 0.653912 0.117587
vt 0.653912 0.119542
vt 0.653912 0.126309
vt 0.652180 0.119542
vt 0.652180 0.117587
vt 0.645846 0.117587
vt 0.652180 0.126309
vt 0.645846 0.119542
vt 0.634083 0.117587
vt 0.635815 0.119542
vt 0.861293 0.640151
vt 0.861402 0.638418
vt 0.946966 0.461366
vt 0.946857 0.461366
vt 0.946857 0.463100
vt 0.945436 0.242002
vt 0.945328 0.242002
vt 0.945328 0.242323
vt 0.652180 0.126630
vt 0.635815 0.126630
vt 0.642149 0.126630
vt 0.891455 0.233105
vt 0.891563 0.233105
vt 0.891563 0.231150
vt 0.891455 0.231150
vt 0.891563 0.224383
vt 0.891455 0.224383
vt 0.891563 0.224063
vt 0.645846 0.126309
vt 0.642149 0.126309
vt 0.891455 0.224063
vt 0.891563 0.222382
vt 0.635815 0.117587
vt 0.642149 0.119542
vt 0.861293 0.638418
vt 0.861402 0.632085
vt 0.913064 0.002202
vt 0.912955 0.002202
vt 0.912955 0.008541
vt 0.635815 0.128310
vt 0.948754 0.749469
vt 0.948645 0.749469
vt 0.948645 0.751149
vt 0.645846 0.126630
vt 0.645846 0.128310
vt 0.860821 0.301034
vt 0.400319 0.812731
vt 0.995305 0.577083
vt 0.865849 0.989799
vt 0.871693 0.223740
vt 0.940390 0.487539
vt 0.871464 0.290207
vt 0.986621 0.741218
vt 0.773160 0.989795
vt 0.895191 0.903291
vt 0.871464 0.307909
vt 0.578228 0.989807
vt 0.871693 0.206038
vt 0.926205 0.268541
vt 0.904097 0.049780
vt 0.986621 0.741489
vt 0.529367 0.989983
vt 0.918884 0.313351
vt 0.958966 0.923128
vt 0.888403 0.607473
vt 0.929547 0.524831
vt 0.898968 0.010257
vt 0.616191 0.011159
vt 0.608152 0.028755
vt 0.616191 0.045810
vt 0.607827 0.041365
vt 0.607990 0.040555
vt 0.607827 0.045810
vt 0.607827 0.040555
vt 0.607881 0.040448
vt 0.607719 0.040448
vt 0.642149 0.001848
vt 0.638089 0.003147
vt 0.642149 0.011159
vt 0.633595 0.003315
vt 0.633920 0.003315
vt 0.608152 0.029076
vt 0.607990 0.029076
vt 0.638089 0.001848
vt 0.633920 0.003147
vt 0.617247 0.003315
vt 0.615189 0.003147
vt 0.616218 0.003315
vt 0.616218 0.003147
vt 0.608152 0.012403
vt 0.608152 0.011380
vt 0.607990 0.010349
vt 0.607990 0.011380
vt 0.680167 0.041365
vt 0.679843 0.028748
vt 0.680005 0.040555
vt 0.654399 0.003315
vt 0.645846 0.011166
vt 0.649906 0.003147
vt 0.645846 0.001848
vt 0.649906 0.001848
vt 0.654074 0.003315
vt 0.654074 0.003147
vt 0.670748 0.003315
vt 0.671777 0.003315
vt 0.672805 0.003147
vt 0.671777 0.003147
vt 0.680167 0.045810
vt 0.680005 0.010357
vt 0.678597 0.003147
vt 0.680005 0.004552
vt 0.680005 0.003147
vt 0.680005 0.011380
vt 0.680113 0.040448
vt 0.680167 0.040555
vt 0.680276 0.040448
vt 0.679843 0.029084
vt 0.680005 0.029084
vt 0.607827 0.035980
vt 0.680167 0.029725
vt 0.657876 0.973082
vt 0.469897 0.888019
vt 0.888023 0.167453
vt 0.769954 0.886004
vt 0.606961 0.070334
vt 0.681034 0.057724
vt 0.753788 0.972166
vt 0.680167 0.082180
vt 0.918649 0.273147
vt 0.995065 0.847268
vt 0.769246 0.989633
vt 0.400319 0.706302
vt 0.855208 0.850721
vt 0.680438 0.117205
vt 0.940076 0.982798
vt 0.984318 0.331003
vt 0.549537 0.906191
vt 0.680655 0.117908
vt 0.549428 0.898342
vt 0.946789 0.117920
vt 0.671830 0.128035
vt 0.679680 0.128035
vt 0.903018 0.890231
vt 0.988979 0.917449
vt 0.520609 0.972002
vt 0.870982 0.388888
vt 0.894990 0.945034
vt 0.946966 0.463100
vt 0.945436 0.242323
vt 0.653912 0.126630
vt 0.891455 0.222382
vt 0.642149 0.117587
vt 0.861293 0.632085
vt 0.913064 0.008541
vt 0.642149 0.128310
vt 0.948754 0.751149
vt 0.652180 0.128310
vn 0.0000 0.0000 1.0000
vn 1.0000 0.0000 0.0000
vn -1.0000 0.0000 0.0000
vn -0.7071 0.0000 0.7071
vn 0.0000 0.0000 -1.0000
vn 0.7071 0.0000 -0.7071
vn -0.0000 0.0001 -1.0000
vn 0.0000 -1.0000 0.0000
vn 0.0000 1.0000 0.0000
s off
f 3/1/1 2/2/1 4/3/1
f 2/4/2 1/5/2 5/6/2
f 53/7/3 24/8/3 25/9/3
f 39/10/1 10/11/1 14/12/1
f 27/13/2 28/14/2 57/15/2
f 41/16/3 12/17/3 9/18/3
f 48/19/3 19/20/3 17/21/3
f 36/22/4 7/23/4 12/24/4
f 33/25/5 26/26/5 55/27/5
f 49/28/3 20/29/3 19/20/3
f 11/30/6 8/31/6 37/32/6
f 54/33/3 25/9/3 23/34/3
f 44/35/3 15/36/3 16/37/3
f 46/38/5 17/39/5 15/40/5
f 28/41/5 29/42/5 58/43/5
f 26/26/5 18/44/5 47/45/5
f 47/45/5 18/44/5 27/46/5
f 29/42/5 30/47/5 59/48/5
f 51/49/1 22/50/1 21/51/1
f 30/47/5 24/52/5 53/53/5
f 21/54/3 20/29/3 49/28/3
f 31/55/7 62/56/7 60/57/7
f 52/58/3 23/34/3 22/59/3
f 37/32/5 8/31/5 7/60/5
f 33/61/3 61/62/3 62/63/3
f 38/64/3 9/18/3 10/65/3
f 34/66/3 32/67/3 60/68/3
f 42/69/3 13/70/3 11/71/3
f 35/72/5 34/73/5 63/74/5
f 45/75/3 16/37/3 13/70/3
f 14/76/8 5/77/8 70/78/8
f 64/79/2 3/80/2 6/81/2
f 54/82/9 59/83/9 53/84/9
f 4/85/8 20/86/8 21/87/8
f 42/88/9 45/89/9 68/90/9
f 16/91/8 13/92/8 65/93/8
f 72/94/5 71/95/5 81/96/5
f 43/97/3 14/98/3 71/99/3
f 43/100/9 72/101/9 69/102/9
f 5/6/2 1/5/2 69/103/2
f 75/104/8 74/105/8 78/106/8
f 71/107/8 70/78/8 74/105/8
f 70/108/2 69/103/2 73/109/2
f 69/102/9 72/101/9 76/110/9
f 78/106/8 85/111/8 87/112/8
f 74/113/2 73/109/2 77/114/2
f 73/115/9 76/110/9 80/116/9
f 76/117/3 75/118/3 79/119/3
f 82/120/3 81/121/3 83/122/3
f 76/110/9 72/101/9 82/123/9
f 71/107/8 75/104/8 83/124/8
f 75/125/1 76/126/1 84/127/1
f 85/111/8 93/128/8 95/129/8
f 78/130/2 77/114/2 86/131/2
f 77/132/9 80/116/9 88/133/9
f 79/134/8 87/112/8 91/135/8
f 90/136/3 89/137/3 91/138/3
f 80/139/5 79/140/5 89/141/5
f 80/116/9 90/142/9 92/143/9
f 87/144/1 88/145/1 92/146/1
f 94/147/9 96/148/9 100/149/9
f 85/150/2 86/131/2 94/151/2
f 86/152/9 88/133/9 96/148/9
f 88/153/3 87/154/3 95/155/3
f 99/156/8 107/157/8 109/158/8
f 95/129/8 99/156/8 103/159/8
f 93/128/8 97/160/8 99/156/8
f 106/161/9 112/162/9 127/163/9
f 102/164/3 101/165/3 103/166/3
f 96/167/5 95/168/5 101/169/5
f 96/148/9 102/170/9 104/171/9
f 100/149/9 104/171/9 110/172/9
f 108/173/9 110/172/9 116/174/9
f 106/161/9 108/173/9 114/175/9
f 97/160/8 105/176/8 107/157/8
f 112/177/1 111/178/1 128/179/1
f 103/159/8 109/158/8 119/180/8
f 98/181/9 100/149/9 108/173/9
f 111/178/1 112/177/1 114/182/1
f 113/183/1 114/182/1 116/184/1
f 110/185/3 109/186/3 115/187/3
f 107/157/8 105/176/8 111/188/8
f 111/188/8 105/176/8 125/189/8
f 109/158/8 107/157/8 113/190/8
f 118/191/3 117/192/3 119/193/3
f 104/194/5 103/195/5 117/196/5
f 109/197/1 110/198/1 120/199/1
f 104/171/9 118/200/9 120/201/9
f 122/202/9 124/203/9 132/204/9
f 126/205/1 125/206/1 133/207/1
f 125/208/2 126/209/2 127/210/2
f 97/160/8 123/211/8 125/189/8
f 94/147/9 98/181/9 124/203/9
f 97/160/8 93/128/8 121/212/8
f 98/181/9 106/161/9 126/213/9
f 93/214/5 94/215/5 122/216/5
f 140/217/9 134/218/9 142/219/9
f 132/204/9 134/218/9 140/217/9
f 121/220/5 122/216/5 130/221/5
f 124/203/9 126/213/9 134/218/9
f 123/211/8 121/212/8 129/222/8
f 123/211/8 131/223/8 133/224/8
f 137/225/8 135/226/8 145/227/8
f 139/228/8 137/225/8 147/229/8
f 130/230/9 132/204/9 138/231/9
f 129/232/5 130/221/5 136/233/5
f 133/224/8 131/223/8 137/225/8
f 131/223/8 129/222/8 135/226/8
f 142/234/1 141/235/1 143/236/1
f 134/237/3 133/238/3 141/239/3
f 133/224/8 139/228/8 143/240/8
f 140/217/9 144/241/9 152/242/9
f 145/243/2 146/244/2 148/245/2
f 147/246/2 148/245/2 150/247/2
f 149/248/2 150/247/2 152/249/2
f 143/240/8 139/228/8 149/250/8
f 138/231/9 140/217/9 150/251/9
f 151/252/2 152/249/2 153/253/2
f 136/254/9 138/231/9 148/255/9
f 135/256/5 136/233/5 146/257/5
f 154/258/1 155/259/1 156/260/1
f 152/242/9 144/241/9 154/261/9
f 144/262/3 143/263/3 155/264/3
f 143/240/8 151/265/8 156/266/8
f 3/1/1 4/3/1 6/267/1
f 2/4/2 5/6/2 4/268/2
f 53/7/3 25/9/3 54/33/3
f 39/10/1 14/12/1 43/269/1
f 27/13/2 57/15/2 56/270/2
f 41/16/3 9/18/3 38/64/3
f 48/19/3 17/21/3 46/271/3
f 36/22/4 12/24/4 41/272/4
f 33/25/5 55/27/5 61/273/5
f 49/28/3 19/20/3 48/19/3
f 11/30/6 37/32/6 40/274/6
f 54/33/3 23/34/3 52/58/3
f 44/35/3 16/37/3 45/75/3
f 46/38/5 15/40/5 44/275/5
f 28/41/5 58/43/5 57/276/5
f 26/26/5 47/45/5 55/27/5
f 47/45/5 27/46/5 56/277/5
f 29/42/5 59/48/5 58/43/5
f 51/49/1 21/51/1 50/278/1
f 30/47/5 53/53/5 59/48/5
f 21/54/3 49/28/3 50/279/3
f 31/55/5 60/57/5 32/280/5
f 52/58/3 22/59/3 51/281/3
f 37/32/5 7/60/5 36/282/5
f 33/61/3 62/63/3 31/283/3
f 38/64/3 10/65/3 39/284/3
f 34/66/3 60/68/3 63/285/3
f 42/69/3 11/71/3 40/286/3
f 35/72/5 63/74/5 64/287/5
f 45/75/3 13/70/3 42/69/3
f 14/76/8 70/78/8 71/107/8
f 64/79/2 6/81/2 35/288/2
f 2/289/9 48/290/9 1/291/9
f 1/291/9 38/292/9 43/100/9
f 40/293/9 38/292/9 1/291/9
f 43/100/9 38/292/9 39/294/9
f 41/295/9 37/296/9 36/297/9
f 38/292/9 40/293/9 41/295/9
f 64/298/9 60/299/9 3/300/9
f 3/300/9 55/301/9 2/289/9
f 60/299/9 61/302/9 3/300/9
f 41/295/9 40/293/9 37/296/9
f 40/293/9 1/291/9 42/88/9
f 42/88/9 1/291/9 45/89/9
f 45/89/9 46/303/9 44/304/9
f 1/291/9 46/303/9 45/89/9
f 60/299/9 64/298/9 63/305/9
f 61/302/9 60/299/9 62/306/9
f 47/307/9 2/289/9 55/301/9
f 55/301/9 3/300/9 61/302/9
f 58/308/9 56/309/9 57/310/9
f 56/309/9 2/289/9 47/307/9
f 1/291/9 48/290/9 46/303/9
f 48/290/9 2/289/9 49/311/9
f 50/312/9 52/313/9 51/314/9
f 50/312/9 2/289/9 52/313/9
f 52/313/9 58/308/9 54/82/9
f 2/289/9 58/308/9 52/313/9
f 2/289/9 50/312/9 49/311/9
f 59/83/9 54/82/9 58/308/9
f 58/308/9 2/289/9 56/309/9
f 14/76/8 9/315/8 5/77/8
f 5/77/8 19/316/8 4/85/8
f 11/317/8 13/92/8 5/77/8
f 4/85/8 26/318/8 6/319/8
f 6/319/8 32/320/8 35/321/8
f 35/321/8 32/320/8 34/322/8
f 32/320/8 33/323/8 31/324/8
f 33/323/8 6/319/8 26/318/8
f 26/318/8 4/85/8 18/325/8
f 27/326/8 29/327/8 28/328/8
f 18/325/8 4/85/8 27/326/8
f 6/319/8 33/323/8 32/320/8
f 10/329/8 9/315/8 14/76/8
f 5/77/8 9/315/8 11/317/8
f 27/326/8 4/85/8 29/327/8
f 29/327/8 23/330/8 30/331/8
f 4/85/8 23/330/8 29/327/8
f 30/331/8 25/332/8 24/333/8
f 23/330/8 21/87/8 22/334/8
f 30/331/8 23/330/8 25/332/8
f 8/335/8 12/336/8 7/337/8
f 16/91/8 5/77/8 13/92/8
f 16/91/8 17/338/8 5/77/8
f 11/317/8 12/336/8 8/335/8
f 4/85/8 21/87/8 23/330/8
f 11/317/8 9/315/8 12/336/8
f 17/338/8 16/91/8 15/339/8
f 17/338/8 19/316/8 5/77/8
f 20/86/8 4/85/8 19/316/8
f 42/88/9 68/90/9 67/340/9
f 16/91/8 65/93/8 66/341/8
f 72/94/5 81/96/5 82/342/5
f 43/97/3 71/99/3 72/343/3
f 43/100/9 69/102/9 1/291/9
f 5/6/2 69/103/2 70/108/2
f 75/104/8 78/106/8 79/134/8
f 71/107/8 74/105/8 75/104/8
f 70/108/2 73/109/2 74/113/2
f 69/102/9 76/110/9 73/115/9
f 78/106/8 87/112/8 79/134/8
f 74/113/2 77/114/2 78/130/2
f 73/115/9 80/116/9 77/132/9
f 76/117/3 79/119/3 80/344/3
f 82/120/3 83/122/3 84/345/3
f 76/110/9 82/123/9 84/346/9
f 71/107/8 83/124/8 81/347/8
f 75/125/1 84/127/1 83/348/1
f 85/111/8 95/129/8 87/112/8
f 78/130/2 86/131/2 85/150/2
f 77/132/9 88/133/9 86/152/9
f 79/134/8 91/135/8 89/349/8
f 90/136/3 91/138/3 92/350/3
f 80/139/5 89/141/5 90/351/5
f 80/116/9 92/143/9 88/133/9
f 87/144/1 92/146/1 91/352/1
f 94/147/9 100/149/9 98/181/9
f 85/150/2 94/151/2 93/353/2
f 86/152/9 96/148/9 94/147/9
f 88/153/3 95/155/3 96/354/3
f 99/156/8 109/158/8 103/159/8
f 95/129/8 103/159/8 101/355/8
f 93/128/8 99/156/8 95/129/8
f 106/161/9 127/163/9 126/213/9
f 102/164/3 103/166/3 104/356/3
f 96/167/5 101/169/5 102/357/5
f 96/148/9 104/171/9 100/149/9
f 100/149/9 110/172/9 108/173/9
f 108/173/9 116/174/9 114/175/9
f 106/161/9 114/175/9 112/162/9
f 97/160/8 107/157/8 99/156/8
f 112/177/1 128/179/1 127/358/1
f 103/159/8 119/180/8 117/359/8
f 98/181/9 108/173/9 106/161/9
f 111/178/1 114/182/1 113/183/1
f 113/183/1 116/184/1 115/360/1
f 110/185/3 115/187/3 116/361/3
f 107/157/8 111/188/8 113/190/8
f 111/188/8 125/189/8 128/362/8
f 109/158/8 113/190/8 115/363/8
f 118/191/3 119/193/3 120/364/3
f 104/194/5 117/196/5 118/365/5
f 109/197/1 120/199/1 119/366/1
f 104/171/9 120/201/9 110/172/9
f 122/202/9 132/204/9 130/230/9
f 126/205/1 133/207/1 134/367/1
f 125/208/2 127/210/2 128/368/2
f 97/160/8 125/189/8 105/176/8
f 94/147/9 124/203/9 122/202/9
f 97/160/8 121/212/8 123/211/8
f 98/181/9 126/213/9 124/203/9
f 93/214/5 122/216/5 121/220/5
f 140/217/9 142/219/9 144/241/9
f 132/204/9 140/217/9 138/231/9
f 121/220/5 130/221/5 129/232/5
f 124/203/9 134/218/9 132/204/9
f 123/211/8 129/222/8 131/223/8
f 123/211/8 133/224/8 125/189/8
f 137/225/8 145/227/8 147/229/8
f 139/228/8 147/229/8 149/250/8
f 130/230/9 138/231/9 136/254/9
f 129/232/5 136/233/5 135/256/5
f 133/224/8 137/225/8 139/228/8
f 131/223/8 135/226/8 137/225/8
f 142/234/1 143/236/1 144/369/1
f 134/237/3 141/239/3 142/370/3
f 133/224/8 143/240/8 141/371/8
f 140/217/9 152/242/9 150/251/9
f 145/243/2 148/245/2 147/246/2
f 147/246/2 150/247/2 149/248/2
f 149/248/2 152/249/2 151/252/2
f 143/240/8 149/250/8 151/265/8
f 138/231/9 150/251/9 148/255/9
f 151/252/2 153/253/2 156/372/2
f 136/254/9 148/255/9 146/373/9
f 135/256/5 146/257/5 145/374/5
f 154/258/1 156/260/1 153/375/1
f 152/242/9 154/261/9 153/376/9
f 144/262/3 155/264/3 154/377/3
f 143/240/8 156/266/8 155/378/8
