# Blender v3.0.1 OBJ File: 'Main.blend'
# www.blender.org
o Cube.5630_0267
v -1.428753 0.849068 0.287192
v -1.428753 0.849068 0.191936
v -1.428753 0.849068 0.058455
v -1.428753 0.849068 0.156977
v -1.428753 0.849068 0.023495
v -1.428753 0.849068 -0.075026
v -1.428753 0.849068 -0.208508
v -1.428753 0.849068 -0.109986
v -1.428753 0.849068 -0.338726
v -1.428753 0.849068 -0.243467
v -1.436252 0.849069 0.287192
v -1.436252 0.849069 0.058455
v -1.436252 0.849069 0.156977
v -1.436252 0.849069 0.191936
v -1.436252 0.849069 0.023495
v -1.436252 0.849069 -0.075026
v -1.436252 0.849069 -0.109986
v -1.436252 0.849069 -0.338726
v -1.436252 0.849069 -0.243467
v -1.436252 0.849069 -0.208508
v -1.436252 0.852247 -0.075026
v -1.436252 0.917080 -0.075026
v -1.436252 0.920259 -0.075026
v -1.436252 0.985092 -0.075026
v -1.436252 0.988270 -0.075026
v -1.436252 1.053104 -0.075026
v -1.436252 1.056282 -0.075026
v -1.428753 0.920258 -0.075026
v -1.428753 1.056282 -0.075026
v -1.428753 0.852247 -0.075026
v -1.428753 0.917080 -0.075026
v -1.428753 0.985092 -0.075026
v -1.428753 0.988270 -0.075026
v -1.428753 1.053104 -0.075026
v -1.436252 0.852247 0.286898
v -1.436252 0.852247 0.058455
v -1.436252 0.852247 0.156977
v -1.436252 0.852247 0.191936
v -1.436252 0.852247 0.023495
v -1.436252 0.852247 -0.109986
v -1.436252 0.852247 -0.338432
v -1.436252 0.852247 -0.243467
v -1.436252 0.852247 -0.208508
v -1.436252 0.917080 -0.109986
v -1.436252 0.920259 -0.109986
v -1.436252 0.985092 -0.109986
v -1.436252 0.988270 -0.109986
v -1.436252 1.053104 -0.109986
v -1.436252 1.056282 -0.109986
v -1.428753 0.852247 0.286898
v -1.428753 0.852247 0.191936
v -1.428753 0.852247 0.058455
v -1.428753 0.852247 0.156977
v -1.428753 0.852247 0.023495
v -1.428753 0.852247 -0.208508
v -1.428753 0.852247 -0.109986
v -1.428753 0.852247 -0.338432
v -1.428753 0.920258 -0.109986
v -1.428753 1.056282 -0.109986
v -1.428753 0.852247 -0.243467
v -1.428753 0.917080 -0.109986
v -1.428753 0.985092 -0.109986
v -1.428753 0.988270 -0.109986
v -1.428753 1.053104 -0.109986
v -1.436252 0.917080 -0.208508
v -1.436252 0.920259 -0.208508
v -1.436252 0.985092 -0.208508
v -1.436252 0.988270 -0.208508
v -1.436252 1.053104 -0.208508
v -1.436252 1.056282 -0.208508
v -1.428753 1.056282 -0.208508
v -1.428753 0.917080 -0.208508
v -1.428753 0.920258 -0.208508
v -1.428753 0.985092 -0.208508
v -1.428753 0.988270 -0.208508
v -1.428753 1.053104 -0.208508
v -1.436252 0.917080 -0.243467
v -1.436252 0.920259 -0.243467
v -1.436252 0.985092 -0.243467
v -1.436252 0.988270 -0.243467
v -1.428753 0.917080 -0.243467
v -1.428753 0.920258 -0.243467
v -1.428753 0.985092 -0.243467
v -1.428753 0.988270 -0.243467
v -1.436252 0.917080 0.023495
v -1.436252 0.920259 0.023495
v -1.436252 0.985092 0.023495
v -1.436252 0.988270 0.023495
v -1.436252 1.053104 0.023495
v -1.436252 1.056282 0.023495
v -1.428753 0.917080 0.268953
v -1.428753 0.917080 0.191936
v -1.428753 0.917080 0.023495
v -1.428753 0.917080 0.058455
v -1.428753 0.917080 0.156977
v -1.428753 0.917080 -0.320487
v -1.428753 0.920258 0.023495
v -1.428753 1.056282 0.023495
v -1.428753 0.985092 0.023495
v -1.428753 0.988270 0.023495
v -1.428753 1.053104 0.023495
v -1.436252 0.917080 0.268953
v -1.436252 0.917080 0.191936
v -1.436252 0.917080 0.156977
v -1.436252 0.917080 0.058455
v -1.428753 0.920258 0.058455
v -1.428753 0.988270 0.058455
v -1.428753 1.056282 0.058455
v -1.428753 0.985092 0.058455
v -1.428753 1.053104 0.058455
v -1.436252 0.917080 -0.320487
v -1.436252 0.920259 0.058455
v -1.436252 0.985092 0.058455
v -1.436252 1.053104 0.058455
v -1.436252 0.988270 0.058455
v -1.436252 1.056282 0.058455
v -1.436252 0.920259 0.156977
v -1.436252 0.985092 0.156977
v -1.436252 0.988270 0.156977
v -1.436252 1.053104 0.156977
v -1.436252 1.056282 0.156977
v -1.428753 1.053104 0.156977
v -1.428753 1.056282 0.156977
v -1.436252 0.920259 0.267476
v -1.436252 0.920259 0.191936
v -1.436252 0.920259 -0.319010
v -1.428753 0.988270 0.156977
v -1.428753 0.920258 0.156977
v -1.428753 0.985092 0.156977
v -1.428753 0.988270 0.191936
v -1.428753 0.920258 0.191936
v -1.428753 0.985092 0.191936
v -1.428753 0.920258 0.267476
v -1.428753 0.920258 -0.319010
v -1.436252 0.985092 0.191936
v -1.436252 0.988270 0.191936
v -1.428753 0.985092 0.231577
v -1.428753 0.988270 0.229358
v -1.436252 0.985092 0.231577
v -1.436252 0.988270 0.229358
v -1.428753 0.988270 -0.280892
v -1.428753 0.985092 -0.283110
v -1.436252 0.985092 -0.283110
v -1.436252 0.988270 -0.280892
vt 0.947551 0.942139
vt 0.947551 0.943817
vt 0.947686 0.943817
vt 0.947550 0.802547
vt 0.947550 0.800869
vt 0.947415 0.800869
vt 0.947953 0.784934
vt 0.947953 0.783255
vt 0.947818 0.783255
vt 0.022017 0.947443
vt 0.022017 0.949065
vt 0.022152 0.949065
vt 0.753761 0.947406
vt 0.753761 0.949029
vt 0.753897 0.949029
vt 0.127149 0.947402
vt 0.127149 0.945723
vt 0.127014 0.945723
vt 0.820908 0.949236
vt 0.820908 0.947619
vt 0.820773 0.947619
vt 0.949200 0.178196
vt 0.949200 0.176579
vt 0.949065 0.176579
vt 0.948269 0.078893
vt 0.948269 0.077216
vt 0.948134 0.077216
vt 0.462194 0.946517
vt 0.462058 0.946517
vt 0.462058 0.948194
vt 0.118160 0.949927
vt 0.118160 0.951605
vt 0.118214 0.951605
vt 0.951328 0.638809
vt 0.951328 0.637131
vt 0.951274 0.637131
vt 0.529152 0.952893
vt 0.529152 0.954510
vt 0.529206 0.954510
vt 0.622749 0.951377
vt 0.622749 0.949698
vt 0.622695 0.949698
vt 0.101463 0.954919
vt 0.101517 0.954924
vt 0.101517 0.953302
vt 0.708628 0.952010
vt 0.708628 0.950333
vt 0.708573 0.950333
vt 0.785396 0.954888
vt 0.785451 0.954893
vt 0.785451 0.953271
vt 0.951912 0.539484
vt 0.951912 0.537807
vt 0.951858 0.537807
vt 0.951324 0.086621
vt 0.951324 0.084942
vt 0.951270 0.084942
vt 0.817022 0.952999
vt 0.817022 0.954616
vt 0.817076 0.954616
vt 0.947573 0.086620
vt 0.947573 0.084942
vt 0.947438 0.084942
vt 0.947981 0.796729
vt 0.948117 0.796729
vt 0.948117 0.795050
vt 0.520582 0.957408
vt 0.520582 0.958720
vt 0.520717 0.958720
vt 0.833336 0.957481
vt 0.833201 0.957481
vt 0.833201 0.958793
vt 0.947469 0.924619
vt 0.947605 0.924619
vt 0.947605 0.922940
vt 0.789525 0.946723
vt 0.789525 0.948400
vt 0.789660 0.948400
vt 0.947483 0.818555
vt 0.947483 0.816877
vt 0.947347 0.816877
vt 0.732551 0.958877
vt 0.732687 0.958877
vt 0.732687 0.957591
vt 0.828990 0.946731
vt 0.828855 0.946731
vt 0.828855 0.948409
vt 0.958762 0.817270
vt 0.958762 0.818556
vt 0.958898 0.818556
vt 0.951487 0.473067
vt 0.951487 0.474745
vt 0.951541 0.474745
vt 0.877548 0.950498
vt 0.877494 0.950498
vt 0.877494 0.952177
vt 0.960435 0.269494
vt 0.960435 0.270781
vt 0.960488 0.270781
vt 0.952304 0.493246
vt 0.952358 0.493246
vt 0.952358 0.491568
vt 0.960162 0.008837
vt 0.960108 0.008837
vt 0.960108 0.010124
vt 0.809378 0.952776
vt 0.809378 0.951099
vt 0.809324 0.951099
vt 0.343567 0.960363
vt 0.343567 0.959051
vt 0.343514 0.959076
vt 0.051488 0.950288
vt 0.051488 0.951965
vt 0.051542 0.951965
vt 0.908616 0.645906
vt 0.908562 0.645906
vt 0.908562 0.647193
vt 0.512175 0.952183
vt 0.512175 0.950505
vt 0.512121 0.950505
vt 0.982132 0.421874
vt 0.982132 0.422549
vt 0.982267 0.422549
vt 0.947746 0.092609
vt 0.947746 0.090931
vt 0.947610 0.090931
vt 0.427658 0.945892
vt 0.427658 0.947570
vt 0.427793 0.947570
vt 0.477982 0.947797
vt 0.477982 0.946118
vt 0.477846 0.946118
vt 0.781423 0.981527
vt 0.781288 0.981527
vt 0.781288 0.982202
vt 0.411227 0.946806
vt 0.411091 0.946806
vt 0.411091 0.948484
vt 0.943937 0.982105
vt 0.943802 0.982105
vt 0.943802 0.982742
vt 0.549668 0.947500
vt 0.549803 0.947500
vt 0.549803 0.945822
vt 0.006770 0.946603
vt 0.006635 0.946603
vt 0.006635 0.948280
vt 0.813089 0.982098
vt 0.813089 0.982735
vt 0.813225 0.982735
vt 0.951650 0.784934
vt 0.951704 0.784934
vt 0.951704 0.783255
vt 0.163794 0.983018
vt 0.163794 0.982343
vt 0.163741 0.982381
vt 0.154351 0.950422
vt 0.154297 0.950422
vt 0.154297 0.952101
vt 0.952544 0.528892
vt 0.952544 0.527214
vt 0.952490 0.527214
vt 0.982793 0.363463
vt 0.982847 0.363501
vt 0.982847 0.362826
vt 0.302248 0.951082
vt 0.302248 0.952760
vt 0.302302 0.952760
vt 0.321193 0.983044
vt 0.321193 0.982369
vt 0.321140 0.982406
vt 0.952509 0.056174
vt 0.952509 0.057852
vt 0.952563 0.057852
vt 0.899265 0.982290
vt 0.899211 0.982290
vt 0.899211 0.982928
vt 0.952042 0.672098
vt 0.952042 0.670419
vt 0.951988 0.670419
vt 0.457765 0.947775
vt 0.457765 0.946097
vt 0.457630 0.946097
vt 0.947445 0.214025
vt 0.947445 0.215703
vt 0.947580 0.215703
vt 0.947791 0.421016
vt 0.947791 0.422694
vt 0.947927 0.422694
vt 0.500891 0.946745
vt 0.500756 0.946745
vt 0.500756 0.948422
vt 0.947276 0.416751
vt 0.947411 0.416751
vt 0.947411 0.415073
vt 0.832822 0.946731
vt 0.832687 0.946731
vt 0.832687 0.948409
vt 0.951457 0.038523
vt 0.951511 0.038523
vt 0.951511 0.036845
vt 0.952342 0.306713
vt 0.952289 0.306713
vt 0.952289 0.308391
vt 0.952386 0.287929
vt 0.952439 0.287929
vt 0.952439 0.286251
vt 0.952585 0.208315
vt 0.952585 0.206637
vt 0.952532 0.206637
vt 0.951868 0.796728
vt 0.951868 0.795050
vt 0.951814 0.795050
vt 0.952042 0.688982
vt 0.952042 0.687304
vt 0.951988 0.687304
vt 0.992659 0.169272
vt 0.992605 0.169272
vt 0.992605 0.169407
vt 0.993101 0.004323
vt 0.993047 0.004323
vt 0.993047 0.004458
vt 0.667193 0.992093
vt 0.667139 0.992093
vt 0.667139 0.992228
vt 0.296378 0.992749
vt 0.296432 0.992749
vt 0.296432 0.992613
vt 0.829505 0.993260
vt 0.829505 0.993124
vt 0.829452 0.993124
vt 0.055414 0.993297
vt 0.055414 0.993162
vt 0.055360 0.993162
vt 0.613076 0.992939
vt 0.613076 0.992804
vt 0.613022 0.992804
vt 0.993245 0.951324
vt 0.993245 0.951460
vt 0.993298 0.951460
vt 0.592209 0.992542
vt 0.592154 0.992542
vt 0.592154 0.992677
vt 0.993033 0.869958
vt 0.992979 0.869958
vt 0.992979 0.870094
vt 0.569451 0.992136
vt 0.569396 0.992136
vt 0.569396 0.992271
vt 0.524722 0.992743
vt 0.524776 0.992743
vt 0.524776 0.992608
vt 0.992605 0.173104
vt 0.992605 0.173239
vt 0.992659 0.173239
vt 0.993423 0.037485
vt 0.993423 0.037350
vt 0.993369 0.037350
vt 0.993348 0.637589
vt 0.993348 0.637454
vt 0.993295 0.637454
vt 0.992611 0.411504
vt 0.992611 0.411640
vt 0.992665 0.411640
vt 0.993219 0.736860
vt 0.993219 0.736996
vt 0.993272 0.736996
vt 0.993321 0.967865
vt 0.993321 0.968000
vt 0.993374 0.968000
vt 0.993323 0.958490
vt 0.993323 0.958625
vt 0.993376 0.958625
vt 0.265848 0.992985
vt 0.265903 0.992985
vt 0.265903 0.992850
vt 0.992659 0.122450
vt 0.992605 0.122450
vt 0.992605 0.122585
vt 0.190172 0.992085
vt 0.190117 0.992085
vt 0.190117 0.992220
vt 0.992147 0.116481
vt 0.992092 0.116481
vt 0.992092 0.116617
vt 0.993355 0.090931
vt 0.993355 0.091066
vt 0.993408 0.091066
vt 0.462064 0.992804
vt 0.462064 0.992939
vt 0.462118 0.992939
vt 0.993119 0.801501
vt 0.993119 0.801636
vt 0.993173 0.801636
vt 0.269841 0.993315
vt 0.269841 0.993450
vt 0.269895 0.993450
vt 0.478116 0.992958
vt 0.478171 0.992958
vt 0.478171 0.992822
vt 0.993093 0.790397
vt 0.993147 0.790397
vt 0.993147 0.790262
vt 0.086558 0.992288
vt 0.086504 0.992288
vt 0.086504 0.992423
vt 0.991908 0.611458
vt 0.991908 0.611594
vt 0.991963 0.611594
vt 0.992015 0.356745
vt 0.992015 0.356880
vt 0.992069 0.356880
vt 0.002114 0.992311
vt 0.002114 0.992446
vt 0.002168 0.992446
vt 0.184796 0.991893
vt 0.184741 0.991893
vt 0.184741 0.992028
vt 0.992046 0.662370
vt 0.991991 0.662370
vt 0.991991 0.662505
vt 0.200981 0.992327
vt 0.200927 0.992327
vt 0.200927 0.992463
vt 0.947686 0.942139
vt 0.947415 0.802547
vt 0.947818 0.784934
vt 0.022152 0.947443
vt 0.753897 0.947406
vt 0.127014 0.947402
vt 0.820773 0.949236
vt 0.949065 0.178196
vt 0.948134 0.078893
vt 0.462194 0.948194
vt 0.118214 0.949927
vt 0.951274 0.638809
vt 0.529206 0.952888
vt 0.622695 0.951377
vt 0.101463 0.953302
vt 0.708573 0.952010
vt 0.785396 0.953271
vt 0.951858 0.539484
vt 0.951270 0.086621
vt 0.817076 0.952994
vt 0.947438 0.086620
vt 0.947981 0.795050
vt 0.520717 0.957408
vt 0.833336 0.958793
vt 0.947469 0.922940
vt 0.789660 0.946723
vt 0.947347 0.818555
vt 0.732551 0.957591
vt 0.828990 0.948409
vt 0.958898 0.817270
vt 0.951541 0.473067
vt 0.877548 0.952177
vt 0.960488 0.269470
vt 0.952304 0.491568
vt 0.960162 0.010149
vt 0.809324 0.952776
vt 0.343514 0.960363
vt 0.051542 0.950288
vt 0.908616 0.647218
vt 0.512121 0.952183
vt 0.982267 0.421874
vt 0.947610 0.092609
vt 0.427793 0.945892
vt 0.477846 0.947797
vt 0.781423 0.982202
vt 0.411227 0.948484
vt 0.943937 0.982742
vt 0.549668 0.945822
vt 0.006770 0.948280
vt 0.813225 0.982098
vt 0.951650 0.783255
vt 0.163741 0.983018
vt 0.154351 0.952101
vt 0.952490 0.528892
vt 0.982793 0.362826
vt 0.302302 0.951082
vt 0.321140 0.983044
vt 0.952563 0.056174
vt 0.899265 0.982965
vt 0.951988 0.672098
vt 0.457630 0.947775
vt 0.947580 0.214025
vt 0.947927 0.421016
vt 0.500891 0.948422
vt 0.947276 0.415073
vt 0.832822 0.948409
vt 0.951457 0.036845
vt 0.952342 0.308391
vt 0.952386 0.286251
vt 0.952532 0.208315
vt 0.951814 0.796728
vt 0.951988 0.688982
vt 0.992659 0.169407
vt 0.993101 0.004458
vt 0.667193 0.992228
vt 0.296378 0.992613
vt 0.829452 0.993260
vt 0.055360 0.993297
vt 0.613022 0.992939
vt 0.993298 0.951324
vt 0.592209 0.992677
vt 0.993033 0.870094
vt 0.569451 0.992271
vt 0.524722 0.992608
vt 0.992659 0.173104
vt 0.993369 0.037485
vt 0.993295 0.637589
vt 0.992665 0.411504
vt 0.993272 0.736860
vt 0.993374 0.967865
vt 0.993376 0.958490
vt 0.265848 0.992850
vt 0.992659 0.122585
vt 0.190172 0.992220
vt 0.992147 0.116617
vt 0.993408 0.090931
vt 0.462118 0.992804
vt 0.993173 0.801501
vt 0.269895 0.993315
vt 0.478116 0.992822
vt 0.993093 0.790262
vt 0.086558 0.992423
vt 0.991963 0.611458
vt 0.992069 0.356745
vt 0.002168 0.992311
vt 0.184796 0.992028
vt 0.992046 0.662505
vt 0.200981 0.992463
vn -0.0000 -1.0000 0.0000
vn 0.0000 1.0000 0.0000
vn -1.0000 0.0000 0.0000
vn 1.0000 0.0000 0.0000
vn 1.0000 -0.0001 0.0000
vn 0.0000 0.0000 -1.0000
vn -0.0000 0.0000 1.0000
vn 0.0000 0.5724 0.8200
vn -0.0000 0.4216 0.9068
vn 0.0000 0.4215 0.9068
vn 0.0000 0.0920 0.9958
vn 0.0000 0.0921 0.9958
vn -0.0000 0.5724 -0.8200
vn -0.0000 0.4216 -0.9068
vn 0.0000 0.0920 -0.9958
vn 0.0000 0.4215 -0.9068
s 1
f 13/1/1 12/2/1 3/3/1
f 15/4/1 16/5/1 6/6/1
f 17/7/1 20/8/1 7/9/1
f 2/10/1 1/11/1 11/12/1
f 9/13/1 10/14/1 19/15/1
f 21/16/2 39/17/2 54/18/2
f 41/19/2 42/20/2 60/21/2
f 38/22/2 35/23/2 50/24/2
f 53/25/2 52/26/2 36/27/2
f 40/28/2 56/29/2 55/30/2
f 37/31/3 36/32/3 12/33/3
f 39/34/3 21/35/3 16/36/3
f 35/37/3 38/38/3 14/39/3
f 40/40/3 43/41/3 20/42/3
f 41/43/3 18/44/3 19/45/3
f 4/46/4 3/47/4 52/48/4
f 50/49/5 1/50/5 2/51/4
f 55/52/4 56/53/4 8/54/4
f 30/55/4 54/56/4 5/57/4
f 57/58/4 60/59/4 10/60/4
f 85/61/1 22/62/1 31/63/1
f 105/64/1 94/65/1 95/66/1
f 92/67/1 91/68/1 102/69/1
f 81/70/1 77/71/1 111/72/1
f 61/73/1 44/74/1 65/75/1
f 112/76/2 117/77/2 128/78/2
f 23/79/2 86/80/2 97/81/2
f 124/82/2 133/83/2 131/84/2
f 45/85/2 58/86/2 73/87/2
f 82/88/2 134/89/2 126/90/2
f 117/91/3 112/92/3 105/93/3
f 23/94/3 22/95/3 85/96/3
f 124/97/3 125/98/3 103/99/3
f 44/100/3 45/101/3 66/102/3
f 77/103/3 78/104/3 126/105/3
f 73/106/4 58/107/4 61/108/4
f 81/109/4 96/110/5 134/111/5
f 106/112/4 128/113/4 95/114/4
f 92/115/4 131/116/4 133/117/4
f 28/118/4 97/119/4 93/120/4
f 132/121/1 137/122/1 139/123/1
f 109/124/1 129/125/1 118/126/1
f 32/127/1 99/128/1 87/129/1
f 46/130/1 67/131/1 74/132/1
f 83/133/1 79/134/1 143/135/1
f 107/136/2 115/137/2 119/138/2
f 130/139/2 136/140/2 140/141/2
f 33/142/2 25/143/2 88/144/2
f 47/145/2 63/146/2 75/147/2
f 84/148/2 141/149/2 144/150/2
f 115/151/3 113/152/3 118/153/3
f 135/154/3 139/155/3 140/156/3
f 25/157/3 24/158/3 87/159/3
f 47/160/3 68/161/3 67/162/3
f 144/163/3 143/164/3 79/165/3
f 62/166/4 74/167/4 75/168/4
f 83/169/4 142/170/4 141/171/4
f 107/172/4 127/173/4 129/174/4
f 132/175/4 130/176/4 138/177/4
f 33/178/4 100/179/4 99/180/4
f 110/181/1 122/182/1 120/183/1
f 34/184/1 101/185/1 89/186/1
f 76/187/1 64/188/1 48/189/1
f 108/190/2 116/191/2 121/192/2
f 29/193/2 27/194/2 90/195/2
f 49/196/2 59/197/2 71/198/2
f 116/199/3 114/200/3 120/201/3
f 27/202/3 26/203/3 89/204/3
f 48/205/3 49/206/3 70/207/3
f 71/208/4 59/209/4 64/210/4
f 122/211/4 110/212/4 108/213/4
f 29/214/4 98/215/4 101/216/4
f 22/217/6 23/218/6 28/219/6
f 24/220/6 25/221/6 33/222/6
f 26/223/6 27/224/6 29/225/6
f 30/226/6 6/227/6 16/228/6
f 63/229/7 47/230/7 46/231/7
f 59/232/7 49/233/7 48/234/7
f 17/235/7 8/236/7 56/237/7
f 44/238/7 61/239/7 58/240/7
f 65/241/6 66/242/6 73/243/6
f 67/244/6 68/245/6 75/246/6
f 69/247/6 70/248/6 71/249/6
f 55/250/6 7/251/6 20/252/6
f 60/253/7 42/254/7 19/255/7
f 82/256/7 78/257/7 77/258/7
f 84/259/7 80/260/7 79/261/7
f 54/262/7 39/263/7 15/264/7
f 85/265/7 93/266/7 97/267/7
f 87/268/7 99/269/7 100/270/7
f 89/271/7 101/272/7 98/273/7
f 52/274/6 3/275/6 12/276/6
f 105/277/6 112/278/6 106/279/6
f 113/280/6 115/281/6 107/282/6
f 114/283/6 116/284/6 108/285/6
f 120/286/7 122/287/7 123/288/7
f 53/289/7 37/290/7 13/291/7
f 104/292/7 95/293/7 128/294/7
f 118/295/7 129/296/7 127/297/7
f 51/298/6 2/299/6 14/300/6
f 131/301/6 92/302/6 103/303/6
f 135/304/6 136/305/6 130/306/6
f 139/307/8 137/308/8 138/309/8
f 102/310/9 91/311/10 133/312/9
f 50/313/11 35/314/12 11/315/12
f 143/316/13 144/317/13 141/318/13
f 111/319/14 126/320/14 134/321/14
f 18/322/15 41/323/15 57/324/15
f 13/1/1 3/3/1 4/325/1
f 15/4/1 6/6/1 5/326/1
f 17/7/1 7/9/1 8/327/1
f 2/10/1 11/12/1 14/328/1
f 9/13/1 19/15/1 18/329/1
f 21/16/2 54/18/2 30/330/2
f 41/19/2 60/21/2 57/331/2
f 38/22/2 50/24/2 51/332/2
f 53/25/2 36/27/2 37/333/2
f 40/28/2 55/30/2 43/334/2
f 37/31/3 12/33/3 13/335/3
f 39/34/3 16/36/3 15/336/3
f 35/37/3 14/39/3 11/337/3
f 40/40/3 20/42/3 17/338/3
f 41/43/3 19/45/3 42/339/3
f 4/46/4 52/48/4 53/340/4
f 50/49/5 2/51/4 51/341/4
f 55/52/4 8/54/4 7/342/4
f 30/55/4 5/57/4 6/343/4
f 57/58/4 10/60/4 9/344/4
f 85/61/1 31/63/1 93/345/1
f 105/64/1 95/66/1 104/346/1
f 92/67/1 102/69/1 103/347/1
f 81/70/1 111/72/1 96/348/1
f 61/73/1 65/75/1 72/349/1
f 112/76/2 128/78/2 106/350/2
f 23/79/2 97/81/2 28/351/2
f 124/82/2 131/84/2 125/352/2
f 45/85/2 73/87/2 66/353/2
f 82/88/2 126/90/2 78/354/2
f 117/91/3 105/93/3 104/355/3
f 23/94/3 85/96/3 86/356/3
f 124/97/3 103/99/3 102/357/3
f 44/100/3 66/102/3 65/358/3
f 77/103/3 126/105/3 111/359/3
f 73/106/4 61/108/4 72/360/4
f 81/109/4 134/111/5 82/361/4
f 106/112/4 95/114/4 94/362/4
f 92/115/4 133/117/4 91/363/4
f 28/118/4 93/120/4 31/364/4
f 132/121/1 139/123/1 135/365/1
f 109/124/1 118/126/1 113/366/1
f 32/127/1 87/129/1 24/367/1
f 46/130/1 74/132/1 62/368/1
f 83/133/1 143/135/1 142/369/1
f 107/136/2 119/138/2 127/370/2
f 130/139/2 140/141/2 138/371/2
f 33/142/2 88/144/2 100/372/2
f 47/145/2 75/147/2 68/373/2
f 84/148/2 144/150/2 80/374/2
f 115/151/3 118/153/3 119/375/3
f 135/154/3 140/156/3 136/376/3
f 25/157/3 87/159/3 88/377/3
f 47/160/3 67/162/3 46/378/3
f 144/163/3 79/165/3 80/379/3
f 62/166/4 75/168/4 63/380/4
f 83/169/4 141/171/4 84/381/4
f 107/172/4 129/174/4 109/382/4
f 132/175/4 138/177/4 137/383/4
f 33/178/4 99/180/4 32/384/4
f 110/181/1 120/183/1 114/385/1
f 34/184/1 89/186/1 26/386/1
f 76/187/1 48/189/1 69/387/1
f 108/190/2 121/192/2 123/388/2
f 29/193/2 90/195/2 98/389/2
f 49/196/2 71/198/2 70/390/2
f 116/199/3 120/201/3 121/391/3
f 27/202/3 89/204/3 90/392/3
f 48/205/3 70/207/3 69/393/3
f 71/208/4 64/210/4 76/394/4
f 122/211/4 108/213/4 123/395/4
f 29/214/4 101/216/4 34/396/4
f 22/217/6 28/219/6 31/397/6
f 24/220/6 33/222/6 32/398/6
f 26/223/6 29/225/6 34/399/6
f 30/226/6 16/228/6 21/400/6
f 63/229/7 46/231/7 62/401/7
f 59/232/7 48/234/7 64/402/7
f 17/235/7 56/237/7 40/403/7
f 44/238/7 58/240/7 45/404/7
f 65/241/6 73/243/6 72/405/6
f 67/244/6 75/246/6 74/406/6
f 69/247/6 71/249/6 76/407/6
f 55/250/6 20/252/6 43/408/6
f 60/253/7 19/255/7 10/409/7
f 82/256/7 77/258/7 81/410/7
f 84/259/7 79/261/7 83/411/7
f 54/262/7 15/264/7 5/412/7
f 85/265/7 97/267/7 86/413/7
f 87/268/7 100/270/7 88/414/7
f 89/271/7 98/273/7 90/415/7
f 52/274/6 12/276/6 36/416/6
f 105/277/6 106/279/6 94/417/6
f 113/280/6 107/282/6 109/418/6
f 114/283/6 108/285/6 110/419/6
f 120/286/7 123/288/7 121/420/7
f 53/289/7 13/291/7 4/421/7
f 104/292/7 128/294/7 117/422/7
f 118/295/7 127/297/7 119/423/7
f 51/298/6 14/300/6 38/424/6
f 131/301/6 103/303/6 125/425/6
f 135/304/6 130/306/6 132/426/6
f 139/307/8 138/309/8 140/427/8
f 102/310/9 133/312/9 124/428/9
f 50/313/11 11/315/12 1/429/11
f 143/316/13 141/318/13 142/430/13
f 111/319/14 134/321/14 96/431/16
f 18/322/15 57/324/15 9/432/15
