# Blender v3.0.1 OBJ File: 'Main.blend'
# www.blender.org
o Cube.5675_0015
v -1.088998 0.699000 0.453298
v -1.088998 0.441000 0.453298
v -0.491998 0.699000 0.453298
v -0.491998 0.441000 0.453298
v -1.082998 0.693000 0.450298
v -1.082998 0.447000 0.450298
v -0.497998 0.693000 0.450298
v -0.497998 0.447000 0.450298
v -1.088998 0.699000 0.450298
v -1.088998 0.441000 0.450298
v -0.491998 0.699000 0.450298
v -0.491998 0.441000 0.450298
v -1.088998 0.699000 0.447298
v -1.088998 0.441000 0.447298
v -0.491998 0.699000 0.447298
v -0.491998 0.441000 0.447298
v -1.082998 0.693000 0.447298
v -1.082998 0.447000 0.447298
v -0.497998 0.693000 0.447298
v -0.497998 0.447000 0.447298
vt 0.126490 0.765443
vt 0.126490 0.747675
vt 0.124778 0.747675
vt 0.860148 0.481008
vt 0.861779 0.481008
vt 0.861779 0.463596
vt 0.872182 0.044560
vt 0.872202 0.044560
vt 0.872202 0.026791
vt 0.923932 0.409605
vt 0.923932 0.404950
vt 0.923899 0.404950
vt 0.872215 0.843848
vt 0.872215 0.861616
vt 0.872235 0.861616
vt 0.924039 0.914420
vt 0.924039 0.919075
vt 0.924072 0.919075
vt 0.675622 0.893442
vt 0.675622 0.897882
vt 0.675654 0.897882
vt 0.923899 0.409605
vt 0.923866 0.404950
vt 0.205622 0.731812
vt 0.205622 0.749223
vt 0.205642 0.749223
vt 0.872222 0.044560
vt 0.765721 0.858466
vt 0.764089 0.858466
vt 0.764049 0.858643
vt 0.765721 0.841052
vt 0.765761 0.840875
vt 0.764049 0.840875
vt 0.764089 0.841052
vt 0.765761 0.858643
vt 0.872235 0.843848
vt 0.872255 0.861616
vt 0.924072 0.914420
vt 0.924104 0.919075
vt 0.872619 0.312711
vt 0.872619 0.330122
vt 0.872639 0.330122
vt 0.732525 0.919759
vt 0.732525 0.924197
vt 0.732558 0.924197
vt 0.124778 0.765443
vt 0.860148 0.463596
vt 0.872182 0.026791
vt 0.675654 0.893442
vt 0.923866 0.409605
vt 0.205642 0.731812
vt 0.872222 0.026791
vt 0.872255 0.843848
vt 0.924104 0.914420
vt 0.872639 0.312711
vt 0.732558 0.919759
vn 0.0000 0.0000 1.0000
vn 0.0000 0.0000 -1.0000
vn 0.0000 -1.0000 0.0000
vn -1.0000 0.0000 0.0000
vn 0.0000 1.0000 0.0000
vn 1.0000 0.0000 0.0000
s off
f 3/1/1 1/2/1 2/3/1
f 6/4/2 5/5/2 7/6/2
f 2/7/3 10/8/3 12/9/3
f 2/10/4 1/11/4 9/12/4
f 1/13/5 3/14/5 11/15/5
f 3/16/6 4/17/6 12/18/6
f 8/19/4 7/20/4 19/21/4
f 10/22/4 9/12/4 13/23/4
f 7/24/3 5/25/3 17/26/3
f 12/9/3 10/8/3 14/27/3
f 17/28/2 18/29/2 14/30/2
f 19/31/2 15/32/2 16/33/2
f 18/29/2 20/34/2 16/33/2
f 17/28/2 13/35/2 15/32/2
f 9/36/5 11/15/5 15/37/5
f 11/38/6 12/18/6 16/39/6
f 6/40/5 8/41/5 20/42/5
f 5/43/6 6/44/6 18/45/6
f 3/1/1 2/3/1 4/46/1
f 6/4/2 7/6/2 8/47/2
f 2/7/3 12/9/3 4/48/3
f 2/10/4 9/12/4 10/22/4
f 1/13/5 11/15/5 9/36/5
f 3/16/6 12/18/6 11/38/6
f 8/19/4 19/21/4 20/49/4
f 10/22/4 13/23/4 14/50/4
f 7/24/3 17/26/3 19/51/3
f 12/9/3 14/27/3 16/52/3
f 17/28/2 14/30/2 13/35/2
f 19/31/2 16/33/2 20/34/2
f 18/29/2 16/33/2 14/30/2
f 17/28/2 15/32/2 19/31/2
f 9/36/5 15/37/5 13/53/5
f 11/38/6 16/39/6 15/54/6
f 6/40/5 20/42/5 18/55/5
f 5/43/6 18/45/6 17/56/6
