# Blender v3.0.1 OBJ File: 'Main.blend'
# www.blender.org
o Cube.5553_0151
v -1.194000 -0.231000 -0.256500
v -1.194000 -0.210000 -0.256500
v -1.194000 -0.231000 -0.367500
v -1.194000 -0.210000 -0.367500
v -1.200000 -0.231000 -0.367500
v -1.200000 -0.231000 -0.256500
v -1.200000 -0.210000 -0.256500
v -1.200000 -0.210000 -0.367500
vt 0.939832 0.924774
vt 0.939453 0.922771
vt 0.939832 0.922771
vt 0.903449 0.939804
vt 0.903828 0.937801
vt 0.903828 0.939804
vt 0.943729 0.707229
vt 0.943618 0.705226
vt 0.943729 0.705226
vt 0.943607 0.800544
vt 0.943718 0.802547
vt 0.943607 0.802547
vt 0.684969 0.984678
vt 0.684858 0.984299
vt 0.684969 0.984299
vt 0.592102 0.984526
vt 0.592212 0.984905
vt 0.592102 0.984905
vt 0.939453 0.924774
vt 0.903449 0.937801
vt 0.943618 0.707229
vt 0.943718 0.800544
vt 0.684858 0.984678
vt 0.592212 0.984526
vn 1.0000 0.0000 0.0000
vn -1.0000 0.0000 0.0000
vn 0.0000 1.0000 0.0000
vn 0.0000 -1.0000 0.0000
vn 0.0000 0.0000 -1.0000
vn 0.0000 0.0000 1.0000
s off
f 3/1/1 2/2/1 1/3/1
f 7/4/2 5/5/2 6/6/2
f 4/7/3 7/8/3 2/9/3
f 1/10/4 5/11/4 3/12/4
f 3/13/5 8/14/5 4/15/5
f 2/16/6 6/17/6 1/18/6
f 3/1/1 4/19/1 2/2/1
f 7/4/2 8/20/2 5/5/2
f 4/7/3 8/21/3 7/8/3
f 1/10/4 6/22/4 5/11/4
f 3/13/5 5/23/5 8/14/5
f 2/16/6 7/24/6 6/17/6
