# Blender v3.0.1 OBJ File: 'Main.blend'
# www.blender.org
o Cube.4973_0067
v -1.438500 0.000000 -2.963999
v -1.438500 0.477000 -2.963999
v -1.438500 0.000000 -2.951999
v -1.438500 0.477000 -2.951999
v -1.197001 0.000000 -2.951999
v -1.197001 0.477000 -2.951999
v -1.197001 0.477000 -2.963999
v -1.197001 0.000000 -2.963999
v -1.251000 0.060000 -2.951999
v -1.251000 0.237000 -2.951999
v -1.255568 0.259961 -2.951999
v -1.252153 0.248705 -2.951999
v -1.268574 0.279426 -2.951999
v -1.288039 0.292433 -2.951999
v -1.277666 0.286888 -2.951999
v -1.299295 0.295847 -2.963999
v -1.299295 0.295847 -2.951999
v -1.261112 0.270334 -2.951999
v -1.311000 0.297000 -2.951999
v -1.322706 0.295847 -2.951999
v -1.333961 0.292433 -2.951999
v -1.353427 0.279426 -2.951999
v -1.366433 0.259961 -2.951999
v -1.360888 0.270334 -2.951999
v -1.371000 0.237000 -2.951999
v -1.371000 0.060000 -2.951999
v -1.369847 0.248705 -2.951999
v -1.344334 0.286888 -2.951999
v -1.288039 0.292433 -2.963999
v -1.251000 0.060000 -2.963999
v -1.277666 0.286888 -2.963999
v -1.268574 0.279426 -2.963999
v -1.261112 0.270334 -2.963999
v -1.251000 0.237000 -2.963999
v -1.255568 0.259961 -2.963999
v -1.252153 0.248705 -2.963999
v -1.322706 0.295847 -2.963999
v -1.353427 0.279426 -2.963999
v -1.344334 0.286888 -2.963999
v -1.333961 0.292433 -2.963999
v -1.366433 0.259961 -2.963999
v -1.371000 0.237000 -2.963999
v -1.371000 0.060000 -2.963999
v -1.369847 0.248705 -2.963999
v -1.360888 0.270334 -2.963999
v -1.311000 0.297000 -2.963999
vt 0.901357 0.874852
vt 0.901574 0.866378
vt 0.901574 0.874852
vt 0.236801 0.860316
vt 0.236587 0.860337
vt 0.234738 0.857068
vt 0.865712 0.922695
vt 0.865496 0.925697
vt 0.865496 0.922695
vt 0.925965 0.178885
vt 0.926181 0.175740
vt 0.926181 0.178885
vt 0.940910 0.344422
vt 0.941126 0.342253
vt 0.941126 0.344422
vt 0.618154 0.954322
vt 0.617938 0.954116
vt 0.618154 0.954116
vt 0.617938 0.954528
vt 0.617938 0.954322
vt 0.618154 0.954727
vt 0.617938 0.954727
vt 0.618154 0.954902
vt 0.617938 0.954902
vt 0.925965 0.174931
vt 0.926181 0.175116
vt 0.925965 0.175116
vt 0.926181 0.175318
vt 0.925965 0.175318
vt 0.926181 0.175528
vt 0.925965 0.175528
vt 0.925965 0.175740
vt 0.617938 0.953902
vt 0.617938 0.953703
vt 0.618154 0.953902
vt 0.617938 0.953527
vt 0.618154 0.953703
vt 0.865712 0.921867
vt 0.865496 0.921685
vt 0.865712 0.921685
vt 0.865496 0.922067
vt 0.865496 0.921867
vt 0.865712 0.922067
vt 0.865496 0.922277
vt 0.865712 0.922277
vt 0.865496 0.922489
vt 0.865712 0.922489
vt 0.237877 0.864593
vt 0.234738 0.865676
vt 0.235716 0.864593
vt 0.106000 0.865230
vt 0.102861 0.864147
vt 0.105023 0.864147
vt 0.587782 0.923861
vt 0.587999 0.919516
vt 0.587999 0.923861
vt 0.106000 0.856622
vt 0.104152 0.859891
vt 0.103938 0.859870
vt 0.591913 0.923877
vt 0.591696 0.919516
vt 0.591913 0.919516
vt 0.902644 0.728427
vt 0.902861 0.720337
vt 0.902861 0.728427
vt 0.901357 0.866378
vt 0.235716 0.861399
vt 0.239100 0.857068
vt 0.239100 0.865676
vt 0.237877 0.861399
vt 0.235739 0.861188
vt 0.237862 0.861188
vt 0.237801 0.860985
vt 0.235800 0.860985
vt 0.235899 0.860797
vt 0.237694 0.860797
vt 0.237564 0.860633
vt 0.236029 0.860633
vt 0.236197 0.860499
vt 0.237396 0.860499
vt 0.237213 0.860399
vt 0.236381 0.860399
vt 0.237007 0.860337
vt 0.865712 0.925697
vt 0.940910 0.342253
vt 0.618154 0.954528
vt 0.926181 0.174931
vt 0.618154 0.953527
vt 0.101639 0.865230
vt 0.587782 0.919516
vt 0.102861 0.860953
vt 0.105023 0.860953
vt 0.101639 0.856622
vt 0.102877 0.860742
vt 0.105000 0.860742
vt 0.104939 0.860539
vt 0.102938 0.860539
vt 0.103045 0.860352
vt 0.104840 0.860352
vt 0.104710 0.860187
vt 0.103175 0.860187
vt 0.103343 0.860053
vt 0.103526 0.859953
vt 0.104542 0.860053
vt 0.104358 0.859953
vt 0.103732 0.859891
vt 0.591696 0.923877
vt 0.902644 0.720337
vn -1.0000 0.0000 0.0000
vn 0.0000 0.0000 1.0000
vn 1.0000 0.0000 0.0000
vn 0.0000 1.0000 0.0000
vn -0.0980 -0.9952 0.0000
vn -0.2903 -0.9569 0.0000
vn -0.4714 -0.8819 0.0000
vn -0.6344 -0.7730 0.0000
vn -0.7730 -0.6344 0.0000
vn -0.8819 -0.4714 0.0000
vn -0.9569 -0.2903 0.0000
vn -0.9952 -0.0980 0.0000
vn 0.0980 -0.9952 0.0000
vn 0.2903 -0.9569 0.0000
vn 0.4714 -0.8819 0.0000
vn 0.6344 -0.7730 0.0000
vn 0.7730 -0.6344 0.0000
vn 0.8819 -0.4714 0.0000
vn 0.9569 -0.2903 0.0000
vn 0.9952 -0.0980 0.0000
vn 0.0000 0.0000 -1.0000
vn 0.0000 -1.0000 0.0000
vn 0.0001 0.0000 1.0000
vn 0.0001 0.0000 -1.0000
vn -0.0001 0.0000 -1.0000
s off
f 3/1/1 2/2/1 1/3/1
f 19/4/2 17/5/2 6/6/2
f 25/7/3 43/8/3 42/9/3
f 9/10/1 34/11/1 30/12/1
f 26/13/4 30/14/4 43/15/4
f 16/16/5 19/17/5 46/18/5
f 16/16/6 14/19/6 17/20/6
f 14/19/7 31/21/7 15/22/7
f 15/22/8 32/23/8 13/24/8
f 13/25/9 33/26/9 18/27/9
f 18/27/10 35/28/10 11/29/10
f 11/29/11 36/30/11 12/31/11
f 12/31/12 34/11/12 10/32/12
f 20/33/13 46/18/13 19/17/13
f 21/34/14 37/35/14 20/33/14
f 28/36/15 40/37/15 21/34/15
f 22/38/16 39/39/16 28/40/16
f 22/38/17 45/41/17 38/42/17
f 24/43/18 41/44/18 45/41/18
f 23/45/19 44/46/19 41/44/19
f 27/47/20 42/9/20 44/46/20
f 26/48/2 5/49/2 9/50/2
f 8/51/21 43/52/21 30/53/21
f 5/54/22 1/55/22 8/56/22
f 7/57/21 16/58/21 46/59/21
f 6/60/4 2/61/4 4/62/4
f 8/63/3 6/64/3 5/65/3
f 3/1/1 4/66/1 2/2/1
f 9/50/2 5/49/2 10/67/2
f 5/49/2 6/6/2 10/67/2
f 4/68/2 3/69/2 25/70/2
f 3/69/2 26/48/2 25/70/2
f 12/71/2 10/67/2 6/6/2
f 4/68/2 25/70/2 27/72/2
f 4/68/2 27/72/2 23/73/2
f 11/74/2 12/71/2 6/6/2
f 18/75/2 11/74/2 6/6/2
f 4/68/2 23/73/2 24/76/2
f 4/68/2 24/76/2 22/77/2
f 13/78/2 18/75/2 6/6/2
f 15/79/23 13/78/23 6/6/23
f 6/6/2 4/68/2 19/4/2
f 4/68/2 22/77/2 28/80/2
f 4/68/2 28/80/2 21/81/2
f 14/82/2 15/79/2 6/6/2
f 17/5/2 14/82/2 6/6/2
f 4/68/2 21/81/2 20/83/2
f 4/68/2 20/83/2 19/4/2
f 25/7/3 26/84/3 43/8/3
f 9/10/1 10/32/1 34/11/1
f 26/13/4 9/85/4 30/14/4
f 16/16/5 17/20/5 19/17/5
f 16/16/6 29/86/6 14/19/6
f 14/19/7 29/86/7 31/21/7
f 15/22/8 31/21/8 32/23/8
f 13/25/9 32/87/9 33/26/9
f 18/27/10 33/26/10 35/28/10
f 11/29/11 35/28/11 36/30/11
f 12/31/12 36/30/12 34/11/12
f 20/33/13 37/35/13 46/18/13
f 21/34/14 40/37/14 37/35/14
f 28/36/15 39/88/15 40/37/15
f 22/38/16 38/42/16 39/39/16
f 22/38/17 24/43/17 45/41/17
f 24/43/18 23/45/18 41/44/18
f 23/45/19 27/47/19 44/46/19
f 27/47/20 25/7/20 42/9/20
f 26/48/2 3/69/2 5/49/2
f 8/51/21 1/89/21 43/52/21
f 5/54/22 3/90/22 1/55/22
f 42/91/21 43/52/21 1/89/21
f 7/57/21 8/51/21 34/92/21
f 8/51/21 30/53/21 34/92/21
f 42/91/21 1/89/21 2/93/21
f 44/94/24 42/91/24 2/93/24
f 7/57/25 34/92/25 36/95/25
f 7/57/21 36/95/21 35/96/21
f 41/97/21 44/94/21 2/93/21
f 45/98/21 41/97/21 2/93/21
f 7/57/21 35/96/21 33/99/21
f 7/57/21 33/99/21 32/100/21
f 45/98/21 2/93/21 38/101/21
f 2/93/21 7/57/21 46/59/21
f 38/101/21 2/93/21 39/102/21
f 39/102/21 2/93/21 40/103/21
f 7/57/21 32/100/21 31/104/21
f 7/57/21 31/104/21 29/105/21
f 40/103/21 2/93/21 37/106/21
f 37/106/25 2/93/25 46/59/25
f 7/57/21 29/105/21 16/58/21
f 6/60/4 7/107/4 2/61/4
f 8/63/3 7/108/3 6/64/3
