# Blender v3.0.1 OBJ File: 'Main.blend'
# www.blender.org
o Cube.4233_0359
v 1.450500 0.465000 -1.068000
v 1.450500 0.465000 -0.375000
v 1.450500 0.459000 -1.068000
v 1.450500 0.459000 -0.375000
v 1.203001 0.465000 -1.068000
v 1.263000 0.465000 -0.375000
v 1.203001 0.459000 -1.068000
v 1.263000 0.459000 -0.375000
v 1.263000 0.465000 -0.516000
v 1.263000 0.459000 -0.516000
v 0.009000 0.465000 -1.068000
v 0.009000 0.459000 -1.068000
v 0.009000 0.465000 -0.516000
v 0.009000 0.459000 -0.516000
vt 0.461164 0.886025
vt 0.461271 0.873520
vt 0.461271 0.886025
vt 0.860676 0.260181
vt 0.860784 0.238635
vt 0.860784 0.260181
vt 0.860676 0.264649
vt 0.860784 0.264649
vt 0.658236 0.459412
vt 0.658236 0.463880
vt 0.648273 0.462795
vt 0.933352 0.619686
vt 0.933245 0.623070
vt 0.933245 0.619686
vt 0.671027 0.132007
vt 0.671027 0.135390
vt 0.668483 0.135390
vt 0.205781 0.938597
vt 0.205673 0.936054
vt 0.205781 0.936054
vt 0.895252 0.531620
vt 0.895145 0.521657
vt 0.895252 0.521657
vt 0.658522 0.136475
vt 0.668483 0.158020
vt 0.658522 0.158020
vt 0.802179 0.026877
vt 0.802071 0.049506
vt 0.802071 0.026877
vt 0.648273 0.485425
vt 0.461164 0.873520
vt 0.860676 0.238635
vt 0.645730 0.462795
vt 0.645730 0.459412
vt 0.933352 0.623070
vt 0.658522 0.132007
vt 0.205673 0.938597
vt 0.895145 0.531620
vt 0.802179 0.049506
vt 0.658236 0.485425
vn 1.0000 0.0000 0.0000
vn 0.0000 0.0000 -1.0000
vn 0.0000 1.0000 0.0000
vn 0.0000 0.0000 1.0000
vn 0.0000 -1.0000 0.0000
vn -1.0000 0.0000 0.0000
s off
f 4/1/1 1/2/1 2/3/1
f 7/4/2 11/5/2 5/6/2
f 3/7/2 5/6/2 1/8/2
f 1/9/3 5/10/3 9/11/3
f 2/12/4 8/13/4 4/14/4
f 4/15/5 8/16/5 10/17/5
f 9/18/6 8/19/6 6/20/6
f 11/21/6 14/22/6 13/23/6
f 7/24/5 14/25/5 12/26/5
f 9/27/4 14/28/4 10/29/4
f 5/10/3 13/30/3 9/11/3
f 4/1/1 3/31/1 1/2/1
f 7/4/2 12/32/2 11/5/2
f 3/7/2 7/4/2 5/6/2
f 6/33/3 2/34/3 9/11/3
f 2/34/3 1/9/3 9/11/3
f 2/12/4 6/35/4 8/13/4
f 7/24/5 3/36/5 10/17/5
f 3/36/5 4/15/5 10/17/5
f 9/18/6 10/37/6 8/19/6
f 11/21/6 12/38/6 14/22/6
f 7/24/5 10/17/5 14/25/5
f 9/27/4 13/39/4 14/28/4
f 5/10/3 11/40/3 13/30/3
