# Blender v3.0.1 OBJ File: 'Main.blend'
# www.blender.org
o Cube.5511_0278
v 0.459001 0.465000 -2.949000
v 0.459001 0.582000 -2.949000
v 0.459001 0.465000 -3.405001
v 0.459001 0.582000 -3.405001
v 0.003001 0.465000 -2.949000
v 0.003001 0.582000 -2.949000
v 0.003001 0.465000 -3.405001
v 0.003001 0.582000 -3.405001
vt 0.876687 0.524542
vt 0.874575 0.524542
vt 0.874575 0.532776
vt 0.872619 0.333819
vt 0.872619 0.342052
vt 0.874730 0.342052
vt 0.430147 0.876166
vt 0.430147 0.867933
vt 0.428035 0.867933
vt 0.064369 0.848482
vt 0.072598 0.848482
vt 0.072598 0.840249
vt 0.101639 0.868927
vt 0.101639 0.877156
vt 0.103751 0.877156
vt 0.819695 0.510216
vt 0.811462 0.510216
vt 0.811462 0.518450
vt 0.876687 0.532776
vt 0.874730 0.333819
vt 0.428035 0.876166
vt 0.064369 0.840249
vt 0.103751 0.868927
vt 0.819695 0.518450
vn 1.0000 0.0000 0.0000
vn -1.0000 0.0000 0.0000
vn 0.0000 0.0000 -1.0000
vn 0.0000 1.0000 0.0000
vn 0.0000 0.0000 1.0000
vn 0.0000 -1.0000 0.0000
s off
f 2/1/1 1/2/1 3/3/1
f 7/4/2 5/5/2 6/6/2
f 8/7/3 4/8/3 3/9/3
f 6/10/4 2/11/4 4/12/4
f 5/13/5 1/14/5 2/15/5
f 7/16/6 3/17/6 1/18/6
f 2/1/1 3/3/1 4/19/1
f 7/4/2 6/6/2 8/20/2
f 8/7/3 3/9/3 7/21/3
f 6/10/4 4/12/4 8/22/4
f 5/13/5 2/15/5 6/23/5
f 7/16/6 1/18/6 5/24/6
