# Blender v3.0.1 OBJ File: 'Main.blend'
# www.blender.org
o Cube.5831_0194
v 1.400996 0.033000 3.382500
v 0.002996 0.033000 3.382500
v 0.002996 0.039000 3.382500
v 1.400996 0.039000 3.382500
v 1.400996 0.033000 3.390000
v 0.002996 0.033000 3.390000
v 0.002996 0.039000 3.390000
v 1.400996 0.039000 3.390000
v 1.400996 0.027450 3.390000
v 0.002996 0.027450 3.390000
v 0.002996 0.033450 3.390000
v 1.400996 0.033450 3.390000
v 1.400996 0.027450 3.397500
v 0.002996 0.027450 3.397500
v 0.002996 0.033450 3.397500
v 1.400996 0.033450 3.397500
v 1.400996 0.021900 3.397500
v 0.002996 0.021900 3.397500
v 0.002996 0.027900 3.397500
v 1.400996 0.027900 3.397500
v 1.400996 0.021900 3.405000
v 0.002996 0.021900 3.405000
v 0.002996 0.027900 3.405000
v 1.400996 0.027900 3.405000
v 1.400996 0.016350 3.405000
v 0.002996 0.016350 3.405000
v 0.002996 0.022350 3.405000
v 1.400996 0.022350 3.405000
v 1.400996 0.016350 3.412500
v 0.002996 0.016350 3.412500
v 0.002996 0.022350 3.412500
v 1.400996 0.022350 3.412500
v 1.400996 0.010800 3.412500
v 0.002996 0.010800 3.412500
v 0.002996 0.016800 3.412500
v 1.400996 0.016800 3.412500
v 1.400996 0.010800 3.420000
v 0.002996 0.010800 3.420000
v 0.002996 0.016800 3.420000
v 1.400996 0.016800 3.420000
v 1.400996 0.005250 3.420000
v 0.002996 0.005250 3.420000
v 0.002996 0.011250 3.420000
v 1.400996 0.011250 3.420000
v 1.400996 0.005250 3.427500
v 0.002996 0.005250 3.427500
v 0.002996 0.011250 3.427500
v 1.400996 0.011250 3.427500
v 1.400996 -0.000300 3.427500
v 0.002996 -0.000300 3.427500
v 0.002996 0.005700 3.427500
v 1.400996 0.005700 3.427500
v 1.400996 -0.000300 3.435000
v 0.002996 -0.000300 3.435000
v 0.002996 0.005700 3.435000
v 1.400996 0.005700 3.435000
vt 0.862163 0.105085
vt 0.862163 0.079858
vt 0.862055 0.079858
vt 0.862057 0.807210
vt 0.862165 0.807210
vt 0.862165 0.781984
vt 0.862025 0.690241
vt 0.862025 0.665014
vt 0.861888 0.665014
vt 0.861922 0.148497
vt 0.861922 0.123270
vt 0.861785 0.123270
vt 0.417235 0.990576
vt 0.417343 0.990576
vt 0.417343 0.990438
vt 0.903691 0.990431
vt 0.903583 0.990431
vt 0.903583 0.990569
vt 0.862163 0.105085
vt 0.862163 0.079858
vt 0.862055 0.079858
vt 0.862057 0.807210
vt 0.862165 0.807210
vt 0.862165 0.781984
vt 0.862025 0.690241
vt 0.862025 0.665014
vt 0.861888 0.665014
vt 0.861922 0.148497
vt 0.861922 0.123270
vt 0.861785 0.123270
vt 0.417235 0.990576
vt 0.417343 0.990576
vt 0.417343 0.990438
vt 0.903691 0.990431
vt 0.903583 0.990431
vt 0.903583 0.990569
vt 0.862163 0.105085
vt 0.862163 0.079858
vt 0.862055 0.079858
vt 0.862057 0.807210
vt 0.862165 0.807210
vt 0.862165 0.781984
vt 0.862025 0.690241
vt 0.862025 0.665014
vt 0.861888 0.665014
vt 0.861922 0.148497
vt 0.861922 0.123270
vt 0.861785 0.123270
vt 0.417235 0.990576
vt 0.417343 0.990576
vt 0.417343 0.990438
vt 0.903691 0.990431
vt 0.903583 0.990431
vt 0.903583 0.990569
vt 0.862163 0.105085
vt 0.862163 0.079858
vt 0.862055 0.079858
vt 0.862057 0.807210
vt 0.862165 0.807210
vt 0.862165 0.781984
vt 0.862025 0.690241
vt 0.862025 0.665014
vt 0.861888 0.665014
vt 0.861922 0.148497
vt 0.861922 0.123270
vt 0.861785 0.123270
vt 0.417235 0.990576
vt 0.417343 0.990576
vt 0.417343 0.990438
vt 0.903691 0.990431
vt 0.903583 0.990431
vt 0.903583 0.990569
vt 0.862163 0.105085
vt 0.862163 0.079858
vt 0.862055 0.079858
vt 0.862057 0.807210
vt 0.862165 0.807210
vt 0.862165 0.781984
vt 0.862025 0.690241
vt 0.862025 0.665014
vt 0.861888 0.665014
vt 0.861922 0.148497
vt 0.861922 0.123270
vt 0.861785 0.123270
vt 0.417235 0.990576
vt 0.417343 0.990576
vt 0.417343 0.990438
vt 0.903691 0.990431
vt 0.903583 0.990431
vt 0.903583 0.990569
vt 0.862163 0.105085
vt 0.862163 0.079858
vt 0.862055 0.079858
vt 0.862057 0.807210
vt 0.862165 0.807210
vt 0.862165 0.781984
vt 0.862025 0.690241
vt 0.862025 0.665014
vt 0.861888 0.665014
vt 0.861922 0.148497
vt 0.861922 0.123270
vt 0.861785 0.123270
vt 0.417235 0.990576
vt 0.417343 0.990576
vt 0.417343 0.990438
vt 0.903691 0.990431
vt 0.903583 0.990431
vt 0.903583 0.990569
vt 0.862163 0.105085
vt 0.862163 0.079858
vt 0.862055 0.079858
vt 0.862057 0.807210
vt 0.862165 0.807210
vt 0.862165 0.781984
vt 0.862025 0.690241
vt 0.862025 0.665014
vt 0.861888 0.665014
vt 0.861922 0.148497
vt 0.861922 0.123270
vt 0.861785 0.123270
vt 0.417235 0.990576
vt 0.417343 0.990576
vt 0.417343 0.990438
vt 0.903691 0.990431
vt 0.903583 0.990431
vt 0.903583 0.990569
vt 0.862055 0.105085
vt 0.862057 0.781984
vt 0.861888 0.690241
vt 0.861785 0.148497
vt 0.417235 0.990438
vt 0.903691 0.990569
vt 0.862055 0.105085
vt 0.862057 0.781984
vt 0.861888 0.690241
vt 0.861785 0.148497
vt 0.417235 0.990438
vt 0.903691 0.990569
vt 0.862055 0.105085
vt 0.862057 0.781984
vt 0.861888 0.690241
vt 0.861785 0.148497
vt 0.417235 0.990438
vt 0.903691 0.990569
vt 0.862055 0.105085
vt 0.862057 0.781984
vt 0.861888 0.690241
vt 0.861785 0.148497
vt 0.417235 0.990438
vt 0.903691 0.990569
vt 0.862055 0.105085
vt 0.862057 0.781984
vt 0.861888 0.690241
vt 0.861785 0.148497
vt 0.417235 0.990438
vt 0.903691 0.990569
vt 0.862055 0.105085
vt 0.862057 0.781984
vt 0.861888 0.690241
vt 0.861785 0.148497
vt 0.417235 0.990438
vt 0.903691 0.990569
vt 0.862055 0.105085
vt 0.862057 0.781984
vt 0.861888 0.690241
vt 0.861785 0.148497
vt 0.417235 0.990438
vt 0.903691 0.990569
vn 0.0000 0.0000 -1.0000
vn 0.0000 0.0000 1.0000
vn 0.0000 1.0000 0.0000
vn 0.0000 -1.0000 0.0000
vn 1.0000 0.0000 0.0000
vn -1.0000 0.0000 0.0000
s off
f 3/1/1 4/2/1 1/3/1
f 5/4/2 8/5/2 7/6/2
f 4/7/3 3/8/3 7/9/3
f 2/10/4 1/11/4 5/12/4
f 1/13/5 4/14/5 8/15/5
f 3/16/6 2/17/6 6/18/6
f 11/19/1 12/20/1 9/21/1
f 13/22/2 16/23/2 15/24/2
f 12/25/3 11/26/3 15/27/3
f 10/28/4 9/29/4 13/30/4
f 9/31/5 12/32/5 16/33/5
f 11/34/6 10/35/6 14/36/6
f 19/37/1 20/38/1 17/39/1
f 21/40/2 24/41/2 23/42/2
f 20/43/3 19/44/3 23/45/3
f 18/46/4 17/47/4 21/48/4
f 17/49/5 20/50/5 24/51/5
f 19/52/6 18/53/6 22/54/6
f 27/55/1 28/56/1 25/57/1
f 29/58/2 32/59/2 31/60/2
f 28/61/3 27/62/3 31/63/3
f 26/64/4 25/65/4 29/66/4
f 25/67/5 28/68/5 32/69/5
f 27/70/6 26/71/6 30/72/6
f 35/73/1 36/74/1 33/75/1
f 37/76/2 40/77/2 39/78/2
f 36/79/3 35/80/3 39/81/3
f 34/82/4 33/83/4 37/84/4
f 33/85/5 36/86/5 40/87/5
f 35/88/6 34/89/6 38/90/6
f 43/91/1 44/92/1 41/93/1
f 45/94/2 48/95/2 47/96/2
f 44/97/3 43/98/3 47/99/3
f 42/100/4 41/101/4 45/102/4
f 41/103/5 44/104/5 48/105/5
f 43/106/6 42/107/6 46/108/6
f 51/109/1 52/110/1 49/111/1
f 53/112/2 56/113/2 55/114/2
f 52/115/3 51/116/3 55/117/3
f 50/118/4 49/119/4 53/120/4
f 49/121/5 52/122/5 56/123/5
f 51/124/6 50/125/6 54/126/6
f 3/1/1 1/3/1 2/127/1
f 5/4/2 7/6/2 6/128/2
f 4/7/3 7/9/3 8/129/3
f 2/10/4 5/12/4 6/130/4
f 1/13/5 8/15/5 5/131/5
f 3/16/6 6/18/6 7/132/6
f 11/19/1 9/21/1 10/133/1
f 13/22/2 15/24/2 14/134/2
f 12/25/3 15/27/3 16/135/3
f 10/28/4 13/30/4 14/136/4
f 9/31/5 16/33/5 13/137/5
f 11/34/6 14/36/6 15/138/6
f 19/37/1 17/39/1 18/139/1
f 21/40/2 23/42/2 22/140/2
f 20/43/3 23/45/3 24/141/3
f 18/46/4 21/48/4 22/142/4
f 17/49/5 24/51/5 21/143/5
f 19/52/6 22/54/6 23/144/6
f 27/55/1 25/57/1 26/145/1
f 29/58/2 31/60/2 30/146/2
f 28/61/3 31/63/3 32/147/3
f 26/64/4 29/66/4 30/148/4
f 25/67/5 32/69/5 29/149/5
f 27/70/6 30/72/6 31/150/6
f 35/73/1 33/75/1 34/151/1
f 37/76/2 39/78/2 38/152/2
f 36/79/3 39/81/3 40/153/3
f 34/82/4 37/84/4 38/154/4
f 33/85/5 40/87/5 37/155/5
f 35/88/6 38/90/6 39/156/6
f 43/91/1 41/93/1 42/157/1
f 45/94/2 47/96/2 46/158/2
f 44/97/3 47/99/3 48/159/3
f 42/100/4 45/102/4 46/160/4
f 41/103/5 48/105/5 45/161/5
f 43/106/6 46/108/6 47/162/6
f 51/109/1 49/111/1 50/163/1
f 53/112/2 55/114/2 54/164/2
f 52/115/3 55/117/3 56/165/3
f 50/118/4 53/120/4 54/166/4
f 49/121/5 56/123/5 53/167/5
f 51/124/6 54/126/6 55/168/6
