# Blender v3.0.1 OBJ File: 'Main.blend'
# www.blender.org
o Cube.212_0180
v -1.254000 0.045000 0.324000
v -1.254000 0.039000 0.324000
v -1.431000 0.045000 0.324000
v -1.431000 0.039000 0.324000
v -1.254000 0.039000 0.465000
v -1.254000 0.045000 0.465000
v -1.431000 0.039000 0.465000
v -1.431000 0.045000 0.465000
v -1.194000 0.039000 1.032000
v -1.194000 0.045000 1.032000
v -1.431000 0.039000 1.032000
v -1.431000 0.045000 1.032000
v -0.399000 0.039000 0.465000
v -0.399000 0.045000 0.465000
v 0.405000 0.039000 0.465000
v 0.405000 0.045000 0.465000
v 1.263001 0.039000 0.465000
v 1.263001 0.045000 0.465000
v 1.203001 0.039000 1.032000
v 1.203001 0.045000 1.032000
v 1.446001 0.039000 0.465000
v 1.446001 0.045000 0.465000
v 1.446001 0.039000 1.032000
v 1.446001 0.045000 1.032000
v 1.263001 0.039000 0.321000
v 1.263001 0.045000 0.321000
v 1.446001 0.039000 0.321000
v 1.446001 0.045000 0.321000
v -0.396000 0.039000 2.937000
v 0.405000 0.039000 2.937000
v 0.405000 0.045000 2.937000
v -0.396000 0.045000 2.937000
v -0.396000 0.039000 1.317000
v -0.396000 0.045000 1.317000
v 0.405000 0.039000 1.320000
v 0.405000 0.045000 1.320000
v -0.597000 0.039000 1.032000
v -0.597000 0.045000 1.032000
v 0.606000 0.039000 1.032000
v 0.606000 0.045000 1.032000
v -0.597000 0.039000 1.317000
v -0.597000 0.045000 1.317000
v 0.606001 0.039000 1.320000
v 0.606001 0.045000 1.320000
v 0.195000 0.045000 0.465000
v -0.189000 0.045000 0.465000
v -0.189000 0.039000 0.465000
v 0.195000 0.039000 0.465000
v -0.189000 0.045000 1.038000
v 0.195000 0.045000 1.038000
v -0.189000 0.039000 1.038000
v 0.195000 0.039000 1.038000
vt 0.933929 0.571126
vt 0.934037 0.574320
vt 0.933929 0.574320
vt 0.623595 0.885870
vt 0.623703 0.883326
vt 0.623703 0.885870
vt 0.938586 0.183682
vt 0.938478 0.186225
vt 0.938478 0.183682
vt 0.877998 0.435839
vt 0.877890 0.440116
vt 0.877890 0.435839
vt 0.623595 0.883326
vt 0.623703 0.873094
vt 0.868485 0.026791
vt 0.868377 0.042219
vt 0.868377 0.026791
vt 0.867779 0.186860
vt 0.867887 0.183064
vt 0.867887 0.186860
vt 0.868485 0.042219
vt 0.868377 0.046007
vt 0.867779 0.202341
vt 0.885641 0.636141
vt 0.885534 0.646375
vt 0.885534 0.636141
vt 0.938208 0.314996
vt 0.938100 0.317594
vt 0.938100 0.314996
vt 0.876279 0.573112
vt 0.876386 0.568728
vt 0.876386 0.573112
vt 0.933639 0.765954
vt 0.933531 0.769262
vt 0.933531 0.765954
vt 0.885641 0.633544
vt 0.036118 0.609321
vt 0.031031 0.605533
vt 0.036225 0.601905
vt 0.858191 0.665014
vt 0.858083 0.694197
vt 0.858083 0.665014
vt 0.880140 0.330122
vt 0.880248 0.315668
vt 0.880248 0.330122
vt 0.931756 0.397539
vt 0.931648 0.401167
vt 0.931648 0.397539
vt 0.920620 0.003399
vt 0.920512 0.008541
vt 0.920512 0.003399
vt 0.877998 0.425067
vt 0.876279 0.583889
vt 0.876386 0.583889
vt 0.919961 0.097197
vt 0.919853 0.102394
vt 0.919853 0.097197
vt 0.856871 0.267868
vt 0.856979 0.238635
vt 0.856979 0.267868
vt 0.343791 0.630779
vt 0.346388 0.634084
vt 0.343791 0.634080
vt 0.931886 0.868346
vt 0.931779 0.871974
vt 0.931779 0.868346
vt 0.893985 0.145563
vt 0.894094 0.135224
vt 0.894094 0.145563
vt 0.893744 0.865696
vt 0.893853 0.876038
vt 0.893744 0.876038
vt 0.910200 0.511979
vt 0.910092 0.505052
vt 0.910200 0.505052
vt 0.934037 0.571126
vt 0.938586 0.186225
vt 0.877998 0.440116
vt 0.623595 0.873094
vt 0.867779 0.183064
vt 0.868485 0.046007
vt 0.867887 0.202341
vt 0.885641 0.646375
vt 0.938208 0.317594
vt 0.876279 0.568728
vt 0.933639 0.769262
vt 0.885534 0.633544
vt 0.049033 0.586729
vt 0.049041 0.590036
vt 0.046436 0.590036
vt 0.046459 0.605518
vt 0.046459 0.609306
vt 0.046436 0.586737
vt 0.036126 0.616248
vt 0.046467 0.616241
vt 0.046474 0.620029
vt 0.036202 0.586745
vt 0.036248 0.623611
vt 0.046490 0.635457
vt 0.049033 0.635449
vt 0.049041 0.638649
vt 0.046497 0.638649
vt 0.036263 0.638657
vt 0.036255 0.634387
vt 0.031100 0.623619
vt 0.031100 0.619991
vt 0.001864 0.620021
vt 0.001848 0.605571
vt 0.031024 0.601905
vt 0.036210 0.591129
vt 0.858191 0.694197
vt 0.880140 0.315668
vt 0.931756 0.401167
vt 0.920620 0.008541
vt 0.877890 0.425067
vt 0.919961 0.102394
vt 0.856871 0.238635
vt 0.333473 0.611496
vt 0.343814 0.611507
vt 0.343814 0.615296
vt 0.346395 0.630781
vt 0.333580 0.618912
vt 0.343829 0.600788
vt 0.343822 0.604578
vt 0.333480 0.604565
vt 0.343844 0.585360
vt 0.333603 0.597204
vt 0.346395 0.582168
vt 0.346388 0.585362
vt 0.333610 0.586432
vt 0.333618 0.582155
vt 0.343852 0.582166
vt 0.328455 0.600824
vt 0.328455 0.597199
vt 0.299203 0.615246
vt 0.299219 0.600792
vt 0.328386 0.615278
vt 0.328378 0.618906
vt 0.333557 0.634069
vt 0.333564 0.629685
vt 0.931886 0.871974
vt 0.893985 0.135224
vt 0.893853 0.865696
vt 0.910092 0.511979
vn 0.0000 0.0000 -1.0000
vn -1.0000 0.0000 0.0000
vn 1.0000 0.0000 0.0000
vn 0.0000 0.0000 1.0000
vn 0.0000 1.0000 0.0000
vn 0.0000 -1.0000 0.0000
s off
f 4/1/1 1/2/1 2/3/1
f 4/4/2 8/5/2 3/6/2
f 1/7/3 5/8/3 2/9/3
f 10/10/4 11/11/4 9/12/4
f 7/13/2 12/14/2 8/5/2
f 6/15/1 13/16/1 5/17/1
f 15/18/1 45/19/1 16/20/1
f 14/21/1 47/22/1 13/16/1
f 16/20/1 17/23/1 15/18/1
f 22/24/3 23/25/3 21/26/3
f 18/27/2 25/28/2 17/29/2
f 19/30/4 24/31/4 20/32/4
f 26/33/1 27/34/1 25/35/1
f 21/26/3 28/36/3 22/24/3
f 50/37/5 36/38/5 40/39/5
f 36/40/3 30/41/3 35/42/3
f 29/43/4 31/44/4 32/45/4
f 44/46/4 35/47/4 43/48/4
f 42/49/2 37/50/2 41/51/2
f 9/12/4 38/52/4 10/10/4
f 39/53/4 20/32/4 40/54/4
f 40/55/3 43/56/3 39/57/3
f 33/58/2 32/59/2 34/60/2
f 17/61/6 27/62/6 21/63/6
f 34/64/4 41/65/4 33/66/4
f 46/67/3 51/68/3 47/69/3
f 45/70/2 52/71/2 50/72/2
f 50/73/1 51/74/1 49/75/1
f 4/1/1 3/76/1 1/2/1
f 4/4/2 7/13/2 8/5/2
f 1/7/3 6/77/3 5/8/3
f 10/10/4 12/78/4 11/11/4
f 7/13/2 11/79/2 12/14/2
f 6/15/1 14/21/1 13/16/1
f 15/18/1 48/80/1 45/19/1
f 14/21/1 46/81/1 47/22/1
f 16/20/1 18/82/1 17/23/1
f 22/24/3 24/83/3 23/25/3
f 18/27/2 26/84/2 25/28/2
f 19/30/4 23/85/4 24/31/4
f 26/33/1 28/86/1 27/34/1
f 21/26/3 27/87/3 28/36/3
f 28/88/5 26/89/5 18/90/5
f 16/91/5 45/92/5 50/37/5
f 22/93/5 28/88/5 18/90/5
f 18/90/5 16/91/5 40/39/5
f 16/91/5 50/37/5 40/39/5
f 49/94/5 46/95/5 14/96/5
f 22/93/5 18/90/5 24/97/5
f 49/94/5 14/96/5 38/98/5
f 14/96/5 6/99/5 38/98/5
f 6/99/5 1/100/5 3/101/5
f 8/102/5 12/103/5 6/99/5
f 12/103/5 10/104/5 6/99/5
f 6/99/5 3/101/5 8/102/5
f 38/98/5 6/99/5 10/104/5
f 38/98/5 42/105/5 34/106/5
f 34/106/5 32/107/5 36/38/5
f 32/107/5 31/108/5 36/38/5
f 36/38/5 44/109/5 40/39/5
f 38/98/5 34/106/5 49/94/5
f 34/106/5 36/38/5 50/37/5
f 49/94/5 34/106/5 50/37/5
f 40/39/5 20/110/5 18/90/5
f 20/110/5 24/97/5 18/90/5
f 36/40/3 31/111/3 30/41/3
f 29/43/4 30/112/4 31/44/4
f 44/46/4 36/113/4 35/47/4
f 42/49/2 38/114/2 37/50/2
f 9/12/4 37/115/4 38/52/4
f 39/53/4 19/30/4 20/32/4
f 40/55/3 44/116/3 43/56/3
f 33/58/2 29/117/2 32/59/2
f 52/118/6 48/119/6 15/120/6
f 17/61/6 25/121/6 27/62/6
f 52/118/6 15/120/6 39/122/6
f 15/120/6 17/61/6 39/122/6
f 13/123/6 47/124/6 51/125/6
f 5/126/6 13/123/6 37/127/6
f 13/123/6 51/125/6 37/127/6
f 4/128/6 2/129/6 5/126/6
f 9/130/6 11/131/6 5/126/6
f 11/131/6 7/132/6 5/126/6
f 7/132/6 4/128/6 5/126/6
f 37/127/6 9/130/6 5/126/6
f 33/133/6 41/134/6 37/127/6
f 30/135/6 29/136/6 35/137/6
f 29/136/6 33/133/6 35/137/6
f 39/122/6 43/138/6 35/137/6
f 35/137/6 33/133/6 52/118/6
f 33/133/6 37/127/6 51/125/6
f 23/139/6 19/140/6 17/61/6
f 19/140/6 39/122/6 17/61/6
f 23/139/6 17/61/6 21/63/6
f 33/133/6 51/125/6 52/118/6
f 39/122/6 35/137/6 52/118/6
f 34/64/4 42/141/4 41/65/4
f 46/67/3 49/142/3 51/68/3
f 45/70/2 48/143/2 52/71/2
f 50/73/1 52/144/1 51/74/1
