# Blender v3.0.1 OBJ File: 'Main.blend'
# www.blender.org
o Cube.5623_0226
v 0.783248 0.775500 -0.508499
v 0.783248 1.097386 -0.508499
v 0.783248 1.097386 -0.514499
v 0.783248 0.775500 -0.514499
v 0.657248 0.775500 -0.508499
v 0.657248 1.062044 -0.508499
v 1.035248 0.775500 -0.508499
v 1.035248 0.982272 -0.508499
v 0.784748 0.775500 -0.514499
v 0.784748 1.097517 -0.514499
v 0.657248 1.062044 -0.514499
v 0.657248 0.775500 -0.514499
v 1.035248 0.982272 -0.514499
v 1.035248 0.775500 -0.514499
v 0.658748 0.775500 -0.514499
v 0.658748 1.062746 -0.514499
v 0.784748 0.775500 -0.508499
v 0.784748 1.097517 -0.508499
v 1.036748 0.775500 -0.514499
v 1.036748 0.980124 -0.514499
v 0.658748 0.775500 -0.508499
v 0.658748 1.062746 -0.508499
v 0.531248 0.775500 -0.514499
v 0.532748 0.775500 -0.514499
v 1.036748 0.775500 -0.508499
v 0.562248 0.775500 -0.514499
v 0.563748 0.775500 -0.514499
v 0.814248 0.775500 -0.508499
v 0.814248 1.097517 -0.508499
v 1.036748 0.980124 -0.508499
v 0.814248 1.097517 -0.514499
v 0.814248 0.775500 -0.514499
v 0.532748 0.775500 -0.508499
v 0.531248 0.775500 -0.508499
v 0.563748 0.775500 -0.508499
v 0.562248 0.775500 -0.508499
v 0.688248 0.775500 -0.508499
v 0.688248 1.076545 -0.508499
v 0.815748 0.775500 -0.514499
v 0.815748 1.097386 -0.514499
v 0.688248 1.076545 -0.514499
v 1.066247 0.775500 -0.508499
v 1.066247 0.932437 -0.508499
v 0.688248 0.775500 -0.514499
v 0.815748 0.775500 -0.508499
v 1.066247 0.932437 -0.514499
v 1.066247 0.775500 -0.514499
v 0.815748 1.097386 -0.508499
v 0.689748 0.775500 -0.514499
v 0.689748 1.077246 -0.514499
v 1.067748 0.775500 -0.514499
v 1.067748 0.929210 -0.514499
v 0.689748 0.775500 -0.508499
v 0.909248 0.775500 -0.508499
v 0.909248 1.077247 -0.508499
v 0.689748 1.077246 -0.508499
v 0.909248 1.077247 -0.514499
v 0.909248 0.775500 -0.514499
v 1.067748 0.775500 -0.508499
v 1.067748 0.929210 -0.508499
v 0.910748 0.775500 -0.514499
v 0.910748 1.076545 -0.514499
v 0.531248 0.929207 -0.508499
v 0.940248 0.775500 -0.514499
v 0.941748 0.775500 -0.514499
v 0.531248 0.929207 -0.514499
v 0.910748 0.775500 -0.508499
v 0.941748 0.775500 -0.508499
v 0.940248 0.775500 -0.508499
v 0.910748 1.076545 -0.508499
v 0.532748 0.932434 -0.514499
v 0.940248 1.062747 -0.508499
v 0.532748 0.932434 -0.508499
v 0.940248 1.062747 -0.514499
v 0.562248 0.980122 -0.514499
v 0.563748 0.982271 -0.514499
v 0.562248 0.980122 -0.508499
v 0.941748 1.062045 -0.514499
v 0.563748 0.982271 -0.508499
v 0.941748 1.062045 -0.508499
vt 0.545514 0.909558
vt 0.545622 0.915362
vt 0.545514 0.915362
vt 0.205673 0.911768
vt 0.205700 0.917577
vt 0.205673 0.917577
vt 0.915116 0.602877
vt 0.915224 0.597071
vt 0.915224 0.602877
vt 0.917452 0.542357
vt 0.917479 0.536549
vt 0.917479 0.542357
vt 0.055522 0.908736
vt 0.055630 0.914543
vt 0.055522 0.914543
vt 0.013555 0.917318
vt 0.013582 0.911510
vt 0.013582 0.917318
vt 0.031408 0.915342
vt 0.031516 0.909538
vt 0.031516 0.915342
vt 0.482428 0.917599
vt 0.482401 0.911791
vt 0.482428 0.911789
vt 0.917672 0.685002
vt 0.917780 0.690442
vt 0.917672 0.690442
vt 0.918990 0.239300
vt 0.919018 0.233868
vt 0.919018 0.239300
vt 0.200595 0.912383
vt 0.200703 0.917811
vt 0.200595 0.917811
vt 0.919498 0.262094
vt 0.919471 0.256662
vt 0.919498 0.256649
vt 0.919954 0.218373
vt 0.920062 0.213194
vt 0.920062 0.218373
vt 0.922043 0.887145
vt 0.922070 0.881975
vt 0.922070 0.887145
vt 0.881746 0.920459
vt 0.881638 0.915292
vt 0.881746 0.915292
vt 0.922230 0.814430
vt 0.922203 0.809259
vt 0.922230 0.809247
vt 0.920383 0.859482
vt 0.920492 0.864649
vt 0.920383 0.864649
vt 0.922241 0.173715
vt 0.922268 0.178885
vt 0.922241 0.178885
vt 0.392566 0.920307
vt 0.392458 0.915128
vt 0.392566 0.915128
vt 0.921885 0.018497
vt 0.921912 0.013327
vt 0.921912 0.018497
vt 0.917797 0.304088
vt 0.917689 0.309516
vt 0.917689 0.304088
vt 0.919315 0.043535
vt 0.919343 0.048967
vt 0.919315 0.048967
vt 0.917591 0.669481
vt 0.917699 0.674922
vt 0.917591 0.674922
vt 0.898996 0.919326
vt 0.899023 0.913894
vt 0.899023 0.919326
vt 0.937049 0.622517
vt 0.937157 0.619745
vt 0.937157 0.622517
vt 0.937671 0.225214
vt 0.937644 0.222441
vt 0.937671 0.222382
vt 0.937284 0.751149
vt 0.937176 0.748319
vt 0.937284 0.748319
vt 0.937725 0.849009
vt 0.937699 0.851782
vt 0.937699 0.848951
vt 0.545514 0.927519
vt 0.545622 0.931209
vt 0.545514 0.931209
vt 0.332650 0.932685
vt 0.332623 0.928992
vt 0.332650 0.928954
vt 0.642308 0.927578
vt 0.642200 0.931306
vt 0.642200 0.927578
vt 0.932327 0.472689
vt 0.932300 0.476382
vt 0.932300 0.472650
vt 0.500918 0.931359
vt 0.501026 0.927631
vt 0.501026 0.931359
vt 0.402432 0.932614
vt 0.402459 0.928922
vt 0.402459 0.932614
vt 0.554460 0.927501
vt 0.554568 0.931191
vt 0.554460 0.931191
vt 0.720925 0.925058
vt 0.720952 0.928750
vt 0.720925 0.928750
vt 0.937084 0.494069
vt 0.937192 0.491240
vt 0.937192 0.494069
vt 0.937663 0.029988
vt 0.937689 0.027214
vt 0.937689 0.029988
vt 0.907570 0.934385
vt 0.907678 0.937156
vt 0.907570 0.937156
vt 0.312801 0.935085
vt 0.312828 0.937858
vt 0.312801 0.937858
vt 0.545622 0.909558
vt 0.205700 0.911766
vt 0.915116 0.597071
vt 0.917452 0.536547
vt 0.055630 0.908736
vt 0.013555 0.911507
vt 0.031408 0.909538
vt 0.482401 0.917599
vt 0.917780 0.685002
vt 0.918990 0.233855
vt 0.200703 0.912383
vt 0.919471 0.262094
vt 0.919954 0.213194
vt 0.922043 0.881962
vt 0.881638 0.920459
vt 0.922203 0.814430
vt 0.920492 0.859482
vt 0.922268 0.173702
vt 0.392458 0.920307
vt 0.921885 0.013314
vt 0.917797 0.309516
vt 0.919343 0.043522
vt 0.917699 0.669481
vt 0.898996 0.913881
vt 0.937049 0.619745
vt 0.937644 0.225214
vt 0.937176 0.751149
vt 0.937725 0.851782
vt 0.545622 0.927519
vt 0.332623 0.932685
vt 0.642308 0.931306
vt 0.932327 0.476382
vt 0.500918 0.927631
vt 0.402432 0.928883
vt 0.554568 0.927501
vt 0.720952 0.925019
vt 0.937084 0.491240
vt 0.937663 0.027156
vt 0.907678 0.934385
vt 0.312828 0.935027
vt 0.996756 0.869958
vt 0.996729 0.870066
vt 0.996729 0.869958
vt 0.672485 0.996764
vt 0.672512 0.996656
vt 0.672512 0.996764
vt 0.632079 0.996251
vt 0.632052 0.996143
vt 0.632079 0.996143
vt 0.996460 0.102799
vt 0.996487 0.102691
vt 0.996487 0.102799
vt 0.837481 0.996674
vt 0.837454 0.996566
vt 0.837481 0.996566
vt 0.708670 0.995990
vt 0.708697 0.995881
vt 0.708697 0.995990
vt 0.190172 0.996025
vt 0.190145 0.995917
vt 0.190172 0.995917
vt 0.995844 0.116617
vt 0.995871 0.116508
vt 0.995871 0.116617
vt 0.679009 0.996263
vt 0.678982 0.996155
vt 0.679009 0.996155
vt 0.569396 0.996076
vt 0.569423 0.995968
vt 0.569423 0.996076
vt 0.996356 0.169380
vt 0.996383 0.169272
vt 0.996383 0.169380
vt 0.996168 0.242227
vt 0.996196 0.242119
vt 0.996196 0.242227
vt 0.996252 0.606337
vt 0.996225 0.606228
vt 0.996252 0.606228
vt 0.545622 0.931248
vt 0.545514 0.931248
vt 0.937157 0.619686
vt 0.996427 0.917341
vt 0.996454 0.917449
vt 0.996427 0.917449
vt 0.995844 0.068223
vt 0.995871 0.068115
vt 0.995871 0.068223
vt 0.996666 0.467962
vt 0.996639 0.467854
vt 0.996666 0.467854
vt 0.554568 0.927462
vt 0.907678 0.934326
vt 0.996756 0.870066
vt 0.672485 0.996656
vt 0.632052 0.996251
vt 0.996460 0.102691
vt 0.837454 0.996674
vt 0.708670 0.995881
vt 0.190145 0.996025
vt 0.995844 0.116508
vt 0.678982 0.996263
vt 0.569396 0.995968
vt 0.996356 0.169272
vt 0.996168 0.242119
vt 0.996225 0.606337
vt 0.937049 0.619686
vt 0.996454 0.917341
vt 0.995844 0.068115
vt 0.996639 0.467962
vt 0.554460 0.927462
vt 0.907570 0.934326
vn -1.0000 0.0000 0.0000
vn 0.0000 0.0000 -1.0000
vn 1.0000 0.0000 0.0000
vn 0.0000 0.0000 1.0000
vn -0.0001 0.0000 1.0000
vn -0.0001 0.0000 -1.0000
vn 0.0001 0.0000 1.0000
vn -0.5773 -0.5773 0.5773
vn 0.5773 -0.5773 -0.5773
vn 0.5773 -0.5773 0.5773
vn -0.5773 -0.5773 -0.5773
vn -0.5995 0.5492 -0.5821
vn 0.5536 0.6044 0.5729
vn 0.5536 0.6044 -0.5729
vn -0.6725 0.4278 -0.6039
vn 0.4455 0.7002 0.5577
vn 0.4455 0.7003 -0.5578
vn -0.6725 0.4278 0.6039
vn 0.4455 0.7003 0.5578
vn -0.7287 0.2292 -0.6454
vn 0.2519 0.8010 0.5430
vn 0.2519 0.8010 -0.5430
vn -0.7322 0.1618 0.6615
vn 0.1817 0.8218 -0.5401
vn -0.7322 0.1618 -0.6616
vn -0.5537 0.6043 0.5729
vn 0.5995 0.5492 -0.5821
vn -0.5536 0.6044 -0.5729
vn -0.4455 0.7002 -0.5578
vn 0.6725 0.4278 0.6039
vn 0.6724 0.4278 -0.6039
vn -0.4455 0.7003 0.5578
vn 0.7286 0.2292 -0.6454
vn -0.2519 0.8010 0.5430
vn 0.7287 0.2291 0.6454
vn 0.7322 0.1619 -0.6616
vn -0.1816 0.8218 0.5401
vn 0.7322 0.1618 0.6615
vn -0.5996 0.5492 0.5821
vn -0.6724 0.4278 0.6039
vn -0.7286 0.2292 0.6454
vn 0.1816 0.8218 0.5400
vn 0.5995 0.5493 0.5821
vn -0.4455 0.7002 -0.5577
vn -0.2519 0.8010 -0.5430
vn -0.1817 0.8218 -0.5400
s off
f 2/1/1 4/2/1 1/3/1
f 3/4/2 9/5/2 4/6/2
f 9/7/3 18/8/3 17/9/3
f 17/10/4 2/11/4 1/12/4
f 29/13/1 32/14/1 28/15/1
f 32/16/2 40/17/2 39/18/2
f 39/19/3 48/20/3 45/21/3
f 28/22/5 48/23/5 29/24/5
f 55/25/1 58/26/1 54/27/1
f 58/28/2 62/29/2 61/30/2
f 62/31/3 67/32/3 61/33/3
f 54/34/4 70/35/4 55/36/4
f 69/37/1 74/38/1 64/39/1
f 64/40/2 78/41/2 65/42/2
f 68/43/3 78/44/3 80/45/3
f 69/46/4 80/47/4 72/48/4
f 6/49/1 12/50/1 5/51/1
f 11/52/2 15/53/2 12/54/2
f 21/55/3 16/56/3 22/57/3
f 21/58/4 6/59/4 5/60/4
f 41/61/1 37/62/1 38/63/1
f 41/64/2 49/65/2 44/66/2
f 50/67/3 53/68/3 49/69/3
f 53/70/4 38/71/4 37/72/4
f 34/73/1 66/74/1 23/75/1
f 24/76/2 66/77/2 71/78/2
f 33/79/3 71/80/3 73/81/3
f 63/82/5 33/83/5 73/84/5
f 26/85/1 77/86/1 75/87/1
f 27/88/2 75/89/2 76/90/2
f 79/91/3 27/92/3 76/93/3
f 77/94/4 35/95/4 79/96/4
f 13/97/1 7/98/1 8/99/1
f 14/100/2 20/101/2 19/102/2
f 20/103/3 25/104/3 19/105/3
f 30/106/4 7/107/4 25/108/4
f 42/109/1 46/110/1 47/111/1
f 47/112/2 52/113/2 51/114/2
f 52/115/3 59/116/3 51/117/3
f 60/118/4 42/119/4 59/120/4
f 2/1/1 3/121/1 4/2/1
f 3/4/2 10/122/2 9/5/2
f 9/7/3 10/123/3 18/8/3
f 17/10/4 18/124/4 2/11/4
f 29/13/1 31/125/1 32/14/1
f 32/16/2 31/126/2 40/17/2
f 39/19/3 40/127/3 48/20/3
f 28/22/4 45/128/4 48/23/4
f 55/25/1 57/129/1 58/26/1
f 58/28/2 57/130/2 62/29/2
f 62/31/3 70/131/3 67/32/3
f 54/34/4 67/132/4 70/35/4
f 69/37/1 72/133/1 74/38/1
f 64/40/6 74/134/6 78/41/6
f 68/43/3 65/135/3 78/44/3
f 69/46/4 68/136/4 80/47/4
f 6/49/1 11/137/1 12/50/1
f 11/52/2 16/138/2 15/53/2
f 21/55/3 15/139/3 16/56/3
f 21/58/7 22/140/7 6/59/7
f 41/61/1 44/141/1 37/62/1
f 41/64/2 50/142/2 49/65/2
f 50/67/3 56/143/3 53/68/3
f 53/70/4 56/144/4 38/71/4
f 34/73/1 63/145/1 66/74/1
f 24/76/2 23/146/2 66/77/2
f 33/79/3 24/147/3 71/80/3
f 63/82/7 34/148/7 33/83/7
f 26/85/1 36/149/1 77/86/1
f 27/88/2 26/150/2 75/89/2
f 79/91/3 35/151/3 27/92/3
f 77/94/4 36/152/4 35/95/4
f 13/97/1 14/153/1 7/98/1
f 14/100/2 13/154/2 20/101/2
f 20/103/3 30/155/3 25/104/3
f 30/106/4 8/156/4 7/107/4
f 42/109/1 43/157/1 46/110/1
f 47/112/2 46/158/2 52/113/2
f 52/115/3 60/159/3 59/116/3
f 60/118/7 43/160/7 42/119/7
s 1
f 34/161/8 24/162/9 33/163/10
f 27/164/9 36/165/8 26/166/11
f 4/167/11 17/168/10 1/169/8
f 39/170/9 28/171/8 32/172/11
f 12/173/11 21/174/10 5/175/8
f 49/176/9 37/177/8 44/178/11
f 14/179/11 25/180/10 7/181/8
f 51/182/9 42/183/8 47/184/11
f 58/185/11 67/186/10 54/187/8
f 65/188/9 69/189/8 64/190/11
f 3/191/12 18/192/13 10/193/14
f 11/194/15 22/195/16 16/196/17
f 50/197/17 38/198/18 56/199/19
f 75/87/20 79/200/21 76/201/22
f 63/145/23 71/202/24 66/74/25
f 29/203/26 40/204/27 31/205/28
f 57/206/29 70/207/30 62/208/31
f 78/209/31 72/210/32 80/211/30
f 20/103/33 8/212/34 30/155/35
f 52/115/36 43/213/37 60/159/38
f 34/161/8 23/214/11 24/162/9
f 27/164/9 35/215/10 36/165/8
f 4/167/11 9/216/9 17/168/10
f 39/170/9 45/217/10 28/171/8
f 12/173/11 15/218/9 21/174/10
f 49/176/9 53/219/10 37/177/8
f 14/179/11 19/220/9 25/180/10
f 51/182/9 59/221/10 42/183/8
f 58/185/11 61/222/9 67/186/10
f 65/188/9 68/223/10 69/189/8
f 3/191/12 2/224/39 18/192/13
f 11/194/15 6/225/40 22/195/16
f 50/197/17 41/226/15 38/198/18
f 75/87/20 77/86/41 79/200/21
f 63/145/23 73/227/42 71/202/24
f 29/203/26 48/228/43 40/204/27
f 57/206/29 55/229/32 70/207/30
f 78/209/31 74/230/44 72/210/32
f 20/103/33 13/231/45 8/212/34
f 52/115/36 46/232/46 43/213/37
