# Blender v3.0.1 OBJ File: 'Main.blend'
# www.blender.org
o Cube.5518_0280
v -0.177002 -0.123000 0.453000
v -1.165503 -0.004500 0.453000
v -0.177002 0.723000 0.453000
v -1.248002 0.723000 0.429000
v -1.248002 -0.123000 0.318000
v -0.439503 -0.004500 0.453000
v -1.248002 0.723000 0.318000
v -0.177002 -0.123000 0.597000
v -0.183002 -0.123000 0.465000
v -0.177002 0.723000 0.465000
v -1.254002 -0.123000 0.465000
v -1.254002 -0.123000 0.324000
v -0.183002 -0.123000 0.591000
v -0.195002 -0.123000 0.597000
v -0.195002 -0.123000 0.591000
v -1.431002 -0.123000 0.318000
v -1.431002 -0.123000 0.324000
v -0.177002 0.657000 0.465000
v -0.177002 0.657000 0.597000
v -0.183002 0.657000 0.591000
v -0.183002 0.657000 0.465000
v -0.195002 0.657000 0.591000
v -0.195002 0.657000 0.597000
v -1.254000 0.723000 0.464998
v -1.254002 0.663000 0.324000
v -1.254000 0.723000 0.323998
v -1.431002 0.663000 0.324000
v -1.431002 0.663000 0.318000
v -1.254000 0.663000 0.318000
v -1.254000 0.723000 0.318000
v -0.358502 -0.123000 0.453000
v -0.358502 0.723000 0.453000
v -1.248002 -0.123000 0.429000
v -0.358502 -0.123000 0.429000
v -0.358502 0.723000 0.429000
v -1.165503 -0.004500 0.429000
v -0.439503 -0.004500 0.429000
v -0.439503 0.723000 0.429000
v -1.165503 0.723000 0.429000
v -0.439503 0.723000 0.453000
v -1.165503 0.723000 0.453000
vt 0.862677 0.046007
vt 0.864680 0.030741
vt 0.864680 0.046007
vt 0.141406 0.845623
vt 0.141623 0.845623
vt 0.141623 0.846814
vt 0.134869 0.864289
vt 0.137142 0.850215
vt 0.137142 0.864289
vt 0.882315 0.879388
vt 0.882207 0.865313
vt 0.882315 0.865313
vt 0.879810 0.501355
vt 0.879594 0.487280
vt 0.879810 0.487280
vt 0.876628 0.459404
vt 0.876953 0.445329
vt 0.876953 0.459404
vt 0.881837 0.647727
vt 0.881729 0.633544
vt 0.881837 0.633544
vt 0.306287 0.858637
vt 0.309483 0.844454
vt 0.309483 0.858637
vt 0.479387 0.840950
vt 0.479496 0.839867
vt 0.479496 0.855133
vt 0.329460 0.838655
vt 0.329637 0.841824
vt 0.327245 0.822647
vt 0.554568 0.937161
vt 0.554785 0.937270
vt 0.554460 0.937270
vt 0.933921 0.150281
vt 0.933812 0.147085
vt 0.933921 0.147085
vt 0.373467 0.846105
vt 0.373467 0.845022
vt 0.373574 0.846105
vt 0.708619 0.315666
vt 0.708619 0.296340
vt 0.722693 0.296340
vt 0.396919 0.857601
vt 0.400194 0.842335
vt 0.400194 0.857601
vt 0.774969 0.184377
vt 0.774969 0.197478
vt 0.772831 0.198939
vt 0.260853 0.835813
vt 0.260420 0.820547
vt 0.260853 0.820547
vt 0.850885 0.286335
vt 0.850885 0.299434
vt 0.850668 0.301034
vt 0.879895 0.856976
vt 0.880328 0.843848
vt 0.880328 0.856976
vt 0.880075 0.628265
vt 0.879641 0.615137
vt 0.880075 0.615137
vt 0.765169 0.802068
vt 0.752068 0.788940
vt 0.765169 0.788940
vt 0.879933 0.835049
vt 0.880366 0.821947
vt 0.880366 0.835049
vt 0.862677 0.030741
vt 0.144005 0.846814
vt 0.144005 0.860889
vt 0.141406 0.860889
vt 0.134869 0.850215
vt 0.882207 0.879388
vt 0.879594 0.501355
vt 0.876628 0.445329
vt 0.881729 0.647727
vt 0.306287 0.844454
vt 0.479387 0.839867
vt 0.476195 0.855133
vt 0.476195 0.840950
vt 0.329769 0.822331
vt 0.329374 0.819162
vt 0.329481 0.819149
vt 0.327903 0.822673
vt 0.329890 0.838601
vt 0.327287 0.842226
vt 0.327247 0.841904
vt 0.327381 0.842106
vt 0.327354 0.841890
vt 0.329890 0.822425
vt 0.329866 0.841904
vt 0.554785 0.937161
vt 0.554460 0.934888
vt 0.554568 0.934888
vt 0.933812 0.150281
vt 0.373467 0.860288
vt 0.370922 0.860288
vt 0.370922 0.845022
vt 0.373574 0.845022
vt 0.722693 0.296229
vt 0.723885 0.296229
vt 0.723885 0.315666
vt 0.396919 0.842335
vt 0.788096 0.197478
vt 0.788096 0.198939
vt 0.772831 0.182888
vt 0.788096 0.182888
vt 0.788096 0.184377
vt 0.260420 0.835813
vt 0.851317 0.300923
vt 0.853320 0.300923
vt 0.853213 0.301034
vt 0.853320 0.301034
vt 0.851317 0.299434
vt 0.850668 0.281596
vt 0.850885 0.281596
vt 0.850885 0.284873
vt 0.851317 0.284873
vt 0.851317 0.286335
vt 0.879895 0.843848
vt 0.879641 0.628265
vt 0.752068 0.802068
vt 0.879933 0.821947
vn 1.0000 0.0000 0.0000
vn -1.0000 0.0000 0.0000
vn 0.0000 0.0000 -1.0000
vn 0.0000 0.0000 1.0000
vn 0.0000 -1.0000 -0.0000
vn 0.0000 1.0000 0.0000
vn -1.0000 0.0000 -0.0003
s off
f 5/1/1 4/2/1 33/3/1
f 3/4/1 10/5/1 18/6/1
f 21/7/2 13/8/2 20/9/2
f 15/10/2 23/11/2 22/12/2
f 13/13/3 22/14/3 20/15/3
f 8/16/4 23/17/4 14/18/4
f 16/19/2 27/20/2 28/21/2
f 12/22/4 27/23/4 17/24/4
f 29/25/3 7/26/3 5/27/3
f 31/28/5 9/29/5 11/30/5
f 20/31/6 23/32/6 19/33/6
f 25/34/6 28/35/6 27/36/6
f 25/37/7 26/38/7 29/39/7
f 11/40/4 9/41/4 21/42/4
f 31/43/3 3/44/3 1/45/3
f 36/46/3 37/47/3 34/48/3
f 31/49/1 35/50/1 32/51/1
f 40/52/6 41/53/6 24/54/6
f 36/55/1 41/56/1 2/57/1
f 37/58/2 40/59/2 38/60/2
f 6/61/3 41/62/3 40/63/3
f 2/64/6 37/65/6 36/66/6
f 5/1/1 7/67/1 4/2/1
f 18/6/1 19/68/1 8/69/1
f 8/69/1 1/70/1 18/6/1
f 1/70/1 3/4/1 18/6/1
f 21/7/2 9/71/2 13/8/2
f 15/10/2 14/72/2 23/11/2
f 13/13/3 15/73/3 22/14/3
f 8/16/4 19/74/4 23/17/4
f 16/19/2 17/75/2 27/20/2
f 12/22/4 25/76/4 27/23/4
f 29/25/3 30/77/3 7/26/3
f 5/27/3 16/78/3 29/25/3
f 16/78/3 28/79/3 29/25/3
f 12/80/5 17/81/5 16/82/5
f 33/83/5 34/84/5 31/28/5
f 8/85/5 14/86/5 13/87/5
f 14/86/5 15/88/5 13/87/5
f 12/80/5 16/82/5 5/89/5
f 8/85/5 13/87/5 9/29/5
f 12/80/5 5/89/5 33/83/5
f 1/90/5 8/85/5 9/29/5
f 31/28/5 1/90/5 9/29/5
f 11/30/5 12/80/5 33/83/5
f 33/83/5 31/28/5 11/30/5
f 20/31/6 22/91/6 23/32/6
f 19/33/6 18/92/6 20/31/6
f 18/92/6 21/93/6 20/31/6
f 25/34/6 29/94/6 28/35/6
f 25/37/2 12/95/2 11/96/2
f 11/96/2 24/97/2 25/37/2
f 24/97/2 26/38/2 25/37/2
f 26/38/2 30/98/2 29/39/2
f 21/42/4 18/99/4 10/100/4
f 10/100/4 24/101/4 21/42/4
f 24/101/4 11/40/4 21/42/4
f 31/43/3 32/102/3 3/44/3
f 37/47/3 38/103/3 35/104/3
f 33/105/3 4/106/3 36/46/3
f 4/106/3 39/107/3 36/46/3
f 37/47/3 35/104/3 34/48/3
f 33/105/3 36/46/3 34/48/3
f 31/49/1 34/108/1 35/50/1
f 4/109/6 7/110/6 26/111/6
f 7/110/6 30/112/6 26/111/6
f 26/111/6 24/54/6 4/109/6
f 41/53/6 39/113/6 4/109/6
f 24/54/6 10/114/6 40/52/6
f 10/114/6 3/115/6 32/116/6
f 32/116/6 35/117/6 38/118/6
f 10/114/6 32/116/6 40/52/6
f 41/53/6 4/109/6 24/54/6
f 32/116/6 38/118/6 40/52/6
f 36/55/1 39/119/1 41/56/1
f 37/58/2 6/120/2 40/59/2
f 6/61/3 2/121/3 41/62/3
f 2/64/6 6/122/6 37/65/6
