# Blender v3.0.1 OBJ File: 'Main.blend'
# www.blender.org
o Cube.5656_0284
v 1.445999 0.465000 0.318000
v 1.445999 0.465000 -0.369000
v 1.445999 0.366000 0.318000
v 1.445999 0.366000 -0.369000
v 1.262999 0.465000 0.318000
v 1.262999 0.465000 -0.369000
v 1.268999 0.366000 0.318000
v 1.268999 0.366000 -0.369000
v 1.271999 0.379500 -0.369000
v 1.271999 0.462000 0.318000
v 1.265999 0.379500 -0.369000
v 1.265999 0.462000 0.318000
v 1.262999 0.433500 0.318000
v 1.268999 0.372750 -0.369000
v 1.268999 0.372750 0.318000
v 1.259999 0.433500 0.318000
v 1.267499 0.372750 -0.369000
v 1.267499 0.379500 -0.369000
v 1.267499 0.379500 0.318000
v 1.262999 0.462000 -0.369000
v 1.265999 0.379500 -0.369000
v 1.265999 0.417000 -0.369000
v 1.262999 0.462000 0.318000
v 1.265999 0.417000 0.318000
v 1.265999 0.379500 0.318000
v 1.262999 0.433500 -0.369000
v 1.256999 0.433500 -0.369000
v 1.256999 0.430500 -0.369000
v 1.259999 0.429600 -0.369000
v 1.261799 0.427800 -0.369000
v 1.262399 0.426000 -0.369000
v 1.261799 0.423900 -0.369000
v 1.259999 0.423000 -0.369000
v 1.259399 0.422100 -0.369000
v 1.259999 0.421200 -0.369000
v 1.261799 0.420300 -0.369000
v 1.261799 0.417000 -0.369000
v 1.256999 0.433500 0.318000
v 1.256999 0.430500 0.318000
v 1.259999 0.429600 0.318000
v 1.261799 0.427800 0.318000
v 1.262399 0.426000 0.318000
v 1.261799 0.423900 0.318000
v 1.259999 0.423000 0.318000
v 1.259399 0.422100 0.318000
v 1.259999 0.421200 0.318000
v 1.261799 0.420300 0.318000
v 1.261799 0.417000 0.318000
v 1.267499 0.372750 0.318000
vt 0.868597 0.328261
vt 0.866810 0.328261
vt 0.866810 0.340658
vt 0.009331 0.885975
vt 0.009453 0.885975
vt 0.009453 0.873578
vt 0.521141 0.848190
vt 0.521141 0.860587
vt 0.524310 0.860587
vt 0.860038 0.076040
vt 0.860038 0.063660
vt 0.856757 0.063641
vt 0.495910 0.162800
vt 0.495964 0.162745
vt 0.495964 0.162638
vt 0.502508 0.162822
vt 0.502541 0.162854
vt 0.502611 0.162800
vt 0.886581 0.383347
vt 0.886473 0.383347
vt 0.886527 0.383347
vt 0.158536 0.868361
vt 0.158536 0.880758
vt 0.159050 0.880758
vt 0.878651 0.552566
vt 0.878651 0.564962
vt 0.879328 0.564962
vt 0.158482 0.868361
vt 0.158482 0.880758
vt 0.578288 0.887921
vt 0.578288 0.875525
vt 0.578262 0.875525
vt 0.886824 0.719438
vt 0.886787 0.719438
vt 0.886787 0.731834
vt 0.886703 0.019571
vt 0.886759 0.019571
vt 0.886759 0.007174
vt 0.773651 0.885787
vt 0.773685 0.885787
vt 0.773685 0.873390
vt 0.887813 0.833447
vt 0.887847 0.833447
vt 0.887847 0.821066
vt 0.886795 0.019571
vt 0.886795 0.007174
vt 0.886996 0.552566
vt 0.886937 0.552566
vt 0.886937 0.564962
vt 0.886473 0.370966
vt 0.887758 0.222382
vt 0.887742 0.222382
vt 0.887742 0.234779
vt 0.886856 0.719438
vt 0.886824 0.731834
vt 0.886826 0.186525
vt 0.886752 0.186525
vt 0.886752 0.198921
vt 0.887175 0.262947
vt 0.887122 0.262947
vt 0.887122 0.275344
vt 0.887725 0.222382
vt 0.887725 0.234779
vt 0.885970 0.796059
vt 0.886091 0.796059
vt 0.886091 0.783662
vt 0.495964 0.162800
vt 0.887902 0.026791
vt 0.887875 0.026791
vt 0.887875 0.039188
vt 0.971179 0.692647
vt 0.971179 0.692566
vt 0.971179 0.692540
vt 0.496614 0.162810
vt 0.496478 0.162800
vt 0.496581 0.162822
vt 0.868597 0.340658
vt 0.009331 0.873578
vt 0.524310 0.848190
vt 0.856757 0.076021
vt 0.502438 0.162822
vt 0.502389 0.162854
vt 0.502421 0.162854
vt 0.502405 0.162865
vt 0.502373 0.162822
vt 0.502313 0.162745
vt 0.502313 0.162822
vt 0.501637 0.162745
vt 0.501637 0.162745
vt 0.501637 0.162638
vt 0.501515 0.162692
vt 0.501637 0.162719
vt 0.501515 0.162719
vt 0.502476 0.162810
vt 0.501393 0.162692
vt 0.501393 0.159498
vt 0.503179 0.159498
vt 0.503126 0.162800
vt 0.503179 0.162800
vt 0.502611 0.162908
vt 0.502557 0.162908
vt 0.159050 0.868361
vt 0.879328 0.552566
vt 0.578262 0.887921
vt 0.886703 0.007174
vt 0.773651 0.873390
vt 0.887813 0.821066
vt 0.886996 0.564962
vt 0.886581 0.370967
vt 0.887758 0.234779
vt 0.886856 0.731834
vt 0.886826 0.198921
vt 0.887175 0.275344
vt 0.885970 0.783662
vt 0.887902 0.039188
vt 0.971179 0.692540
vt 0.495910 0.159498
vt 0.496776 0.162745
vt 0.497696 0.159498
vt 0.497574 0.162692
vt 0.497696 0.162692
vt 0.497453 0.162719
vt 0.497574 0.162719
vt 0.496532 0.162908
vt 0.496478 0.162854
vt 0.496478 0.162908
vt 0.496549 0.162854
vt 0.497453 0.162745
vt 0.496716 0.162822
vt 0.496776 0.162822
vt 0.496651 0.162822
vt 0.496700 0.162854
vt 0.496668 0.162854
vt 0.496684 0.162865
vn 1.0000 0.0000 0.0000
vn -1.0000 0.0000 -0.0000
vn 0.0000 -1.0000 0.0000
vn 0.0000 1.0000 0.0000
vn 0.0000 0.0000 1.0000
vn 0.0000 0.0000 -1.0000
vn 0.0000 0.9677 0.2520
vn -0.9615 0.2747 0.0000
vn -0.2873 -0.9578 0.0000
vn -0.4472 -0.8944 0.0000
vn -0.4472 0.8944 0.0000
vn -0.7071 -0.7071 0.0000
vn -0.8320 0.5547 0.0000
vn -0.9487 -0.3162 0.0000
vn -0.8321 -0.5546 0.0000
vn 0.0001 0.0000 1.0000
vn 0.0001 0.0000 -1.0000
vn -0.8321 0.5546 0.0000
vn -0.8320 -0.5547 0.0000
vn 0.0002 0.0000 1.0000
s off
f 4/1/1 2/2/1 1/3/1
f 14/4/2 8/5/2 7/6/2
f 4/7/3 3/8/3 7/9/3
f 1/10/4 2/11/4 6/12/4
f 5/13/5 12/14/5 10/15/5
f 30/16/6 29/17/6 26/18/6
f 13/19/7 38/20/7 16/21/7
f 23/22/2 20/23/2 26/24/2
f 24/25/2 22/26/2 21/27/2
f 5/28/2 6/29/2 20/23/2
f 18/30/3 19/31/3 25/32/3
f 31/33/8 32/34/8 43/35/8
f 28/36/9 29/37/9 40/38/9
f 35/39/10 36/40/10 47/41/10
f 32/42/11 33/43/11 44/44/11
f 29/37/12 30/45/12 41/46/12
f 36/47/2 37/48/2 48/49/2
f 27/50/4 38/20/4 13/19/4
f 33/51/13 34/52/13 45/53/13
f 30/54/14 31/33/14 42/55/14
f 37/56/3 22/57/3 24/58/3
f 27/59/2 28/60/2 39/61/2
f 34/52/15 35/62/15 46/63/15
f 18/64/2 17/65/2 49/66/2
f 5/13/5 23/67/5 12/14/5
f 15/68/3 49/69/3 17/70/3
f 9/71/5 18/72/5 21/73/5
f 42/74/16 13/75/16 41/76/16
f 4/1/1 1/3/1 3/77/1
f 14/4/2 7/6/2 15/78/2
f 4/7/3 7/9/3 8/79/3
f 1/10/4 6/12/4 5/80/4
f 32/81/6 35/82/6 33/83/6
f 33/83/6 35/82/6 34/84/6
f 35/82/6 32/81/6 36/85/6
f 36/85/6 22/86/6 37/87/6
f 22/86/5 11/88/5 21/89/5
f 9/90/6 14/91/6 18/92/6
f 18/92/6 14/91/6 17/93/6
f 22/86/6 9/90/6 11/88/6
f 32/81/6 22/86/6 36/85/6
f 31/94/6 22/86/6 32/81/6
f 30/16/17 26/18/17 31/94/17
f 31/94/6 26/18/6 22/86/6
f 9/90/6 8/95/6 14/91/6
f 9/90/6 4/96/6 8/95/6
f 4/96/6 22/86/6 2/97/6
f 2/97/6 20/98/6 6/99/6
f 22/86/6 26/18/6 2/97/6
f 20/98/6 2/97/6 26/18/6
f 9/90/6 22/86/6 4/96/6
f 26/18/6 29/17/6 27/100/6
f 27/100/6 29/17/6 28/101/6
f 23/22/2 26/24/2 13/102/2
f 24/25/2 21/27/2 25/103/2
f 5/28/2 20/23/2 23/22/2
f 18/30/3 25/32/3 21/104/3
f 31/33/8 43/35/8 42/55/8
f 28/36/9 40/38/9 39/105/9
f 35/39/10 47/41/10 46/106/10
f 32/42/11 44/44/11 43/107/11
f 29/37/12 41/46/12 40/38/12
f 36/47/2 48/49/2 47/108/2
f 27/50/4 13/19/4 26/109/4
f 33/51/18 45/53/18 44/110/18
f 30/54/14 42/55/14 41/111/14
f 37/56/3 24/58/3 48/112/3
f 27/59/2 39/61/2 38/113/2
f 34/52/19 46/63/19 45/53/19
f 18/64/2 49/66/2 19/114/2
f 15/68/3 17/70/3 14/115/3
f 9/71/5 21/73/5 11/116/5
f 1/117/5 24/118/5 3/119/5
f 3/119/5 15/120/5 7/121/5
f 15/120/5 19/122/5 49/123/5
f 3/119/5 19/122/5 15/120/5
f 10/15/5 1/117/5 5/13/5
f 13/75/5 12/14/5 23/67/5
f 10/15/5 24/118/5 1/117/5
f 3/119/5 24/118/5 19/122/5
f 13/75/5 10/15/5 12/14/5
f 39/124/5 16/125/5 38/126/5
f 39/124/5 40/127/5 16/125/5
f 16/125/16 40/127/16 13/75/16
f 19/122/5 24/118/5 25/128/5
f 24/118/16 47/129/16 48/130/16
f 47/129/5 43/131/5 46/132/5
f 46/132/5 44/133/5 45/134/5
f 43/131/5 44/133/5 46/132/5
f 24/118/16 43/131/16 47/129/16
f 24/118/5 42/74/5 43/131/5
f 13/75/5 24/118/5 10/15/5
f 41/76/5 13/75/5 40/127/5
f 24/118/20 13/75/20 42/74/20
