# Blender v3.0.1 OBJ File: 'Main.blend'
# www.blender.org
o Cube.2632_0161
v -1.431000 -0.210000 1.314000
v -1.431000 -0.231000 1.314000
v -1.425000 -0.231000 1.314000
v -1.425000 -0.210000 1.314000
v -1.430999 -0.210000 0.471000
v -1.430999 -0.231000 0.471000
v -1.424999 -0.231000 0.471000
v -1.424999 -0.210000 0.471000
vt 0.516775 0.985543
vt 0.516882 0.985164
vt 0.516882 0.985543
vt 0.524620 0.984665
vt 0.524729 0.985044
vt 0.524620 0.985044
vt 0.874685 0.667059
vt 0.874306 0.682271
vt 0.874306 0.667059
vt 0.876026 0.026791
vt 0.875918 0.042003
vt 0.875918 0.026791
vt 0.875898 0.253847
vt 0.876006 0.238635
vt 0.876006 0.253847
vt 0.874204 0.148497
vt 0.874583 0.133285
vt 0.874583 0.148497
vt 0.516775 0.985164
vt 0.524729 0.984665
vt 0.874685 0.682271
vt 0.876026 0.042003
vt 0.875898 0.238635
vt 0.874204 0.133285
vn -0.0000 0.0000 1.0000
vn 0.0000 0.0000 -1.0000
vn 1.0000 0.0000 0.0000
vn 0.0000 -1.0000 -0.0000
vn 0.0000 1.0000 -0.0000
vn -1.0000 0.0000 -0.0000
s off
f 3/1/1 1/2/1 2/3/1
f 5/4/2 7/5/2 6/6/2
f 3/7/3 8/8/3 4/9/3
f 2/10/4 7/11/4 3/12/4
f 4/13/5 5/14/5 1/15/5
f 1/16/6 6/17/6 2/18/6
f 3/1/1 4/19/1 1/2/1
f 5/4/2 8/20/2 7/5/2
f 3/7/3 7/21/3 8/8/3
f 2/10/4 6/22/4 7/11/4
f 4/13/5 8/23/5 5/14/5
f 1/16/6 5/24/6 6/17/6
