# Blender v3.0.1 OBJ File: 'Main.blend'
# www.blender.org
o Cube.3564_0320
v -1.254000 -0.039000 0.324000
v -1.254000 -0.045000 0.324000
v -1.431000 -0.039000 0.324000
v -1.431000 -0.045000 0.324000
v -1.254000 -0.045000 0.465000
v -1.254000 -0.039000 0.465000
v -1.431000 -0.045000 0.465000
v -1.431000 -0.039000 0.465000
v -1.194000 -0.045000 1.032000
v -1.194000 -0.039000 1.032000
v -1.431000 -0.045000 1.032000
v -1.431000 -0.039000 1.032000
v -0.399000 -0.045000 0.465000
v -0.399000 -0.039000 0.465000
v 0.405000 -0.045000 0.465000
v 0.405000 -0.039000 0.465000
v 1.263001 -0.045000 0.465000
v 1.263001 -0.039000 0.465000
v 1.203001 -0.045000 1.032000
v 1.203001 -0.039000 1.032000
v 1.446001 -0.045000 0.465000
v 1.446001 -0.039000 0.465000
v 1.446001 -0.045000 1.032000
v 1.446001 -0.039000 1.032000
v 1.263001 -0.045000 0.321000
v 1.263001 -0.039000 0.321000
v 1.446001 -0.045000 0.321000
v 1.446001 -0.039000 0.321000
v -0.396000 -0.045000 2.940000
v 0.405000 -0.045000 2.940000
v 0.405000 -0.039000 2.940000
v -0.396000 -0.039000 2.940000
v -0.396000 -0.045000 1.317000
v -0.396000 -0.039000 1.317000
v 0.405000 -0.045000 1.320000
v 0.405000 -0.039000 1.320000
v -0.597000 -0.045000 1.032000
v -0.597000 -0.039000 1.032000
v 0.606000 -0.045000 1.032000
v 0.606000 -0.039000 1.032000
v -0.597000 -0.045000 1.317000
v -0.597000 -0.039000 1.317000
v 0.606001 -0.045000 1.320000
v 0.606001 -0.039000 1.320000
vt 0.933937 0.297975
vt 0.934045 0.301170
vt 0.933937 0.301170
vt 0.637745 0.885871
vt 0.637853 0.883327
vt 0.637853 0.885871
vt 0.820750 0.821178
vt 0.820642 0.823721
vt 0.820642 0.821178
vt 0.878038 0.711771
vt 0.877930 0.716048
vt 0.877930 0.711771
vt 0.637745 0.883327
vt 0.637853 0.873095
vt 0.838900 0.030741
vt 0.838792 0.046169
vt 0.838792 0.030741
vt 0.838900 0.046169
vt 0.838792 0.060680
vt 0.838900 0.060680
vt 0.838792 0.076162
vt 0.885642 0.083261
vt 0.885534 0.093495
vt 0.885534 0.083261
vt 0.938137 0.280381
vt 0.938029 0.282980
vt 0.938029 0.280381
vt 0.876011 0.159983
vt 0.876119 0.155599
vt 0.876119 0.159983
vt 0.933615 0.205332
vt 0.933508 0.208639
vt 0.933508 0.205332
vt 0.885642 0.080664
vt 0.292902 0.582162
vt 0.295499 0.582155
vt 0.292910 0.585462
vt 0.275772 0.827444
vt 0.275664 0.856680
vt 0.275664 0.827444
vt 0.880083 0.583182
vt 0.880191 0.568728
vt 0.880191 0.583182
vt 0.931749 0.915015
vt 0.931641 0.918643
vt 0.931641 0.915015
vt 0.163849 0.915539
vt 0.163741 0.920681
vt 0.163741 0.915539
vt 0.878038 0.700998
vt 0.876011 0.170760
vt 0.876119 0.170760
vt 0.026275 0.914645
vt 0.026167 0.919843
vt 0.026167 0.914645
vt 0.856230 0.620369
vt 0.856338 0.591079
vt 0.856338 0.620369
vt 0.453011 0.621576
vt 0.455608 0.621578
vt 0.453003 0.624877
vt 0.931546 0.731320
vt 0.931438 0.734948
vt 0.931438 0.731320
vt 0.934045 0.297975
vt 0.820750 0.823721
vt 0.878038 0.716048
vt 0.637745 0.873095
vt 0.838900 0.076162
vt 0.885642 0.093495
vt 0.938137 0.282980
vt 0.876011 0.155599
vt 0.933615 0.208639
vt 0.885534 0.080664
vt 0.292956 0.630882
vt 0.295499 0.630874
vt 0.295506 0.634074
vt 0.292963 0.634074
vt 0.282729 0.634082
vt 0.282721 0.629813
vt 0.292925 0.600943
vt 0.282691 0.597330
vt 0.292940 0.615454
vt 0.277566 0.615416
vt 0.282714 0.619036
vt 0.277566 0.619044
vt 0.248276 0.615446
vt 0.277497 0.600958
vt 0.248261 0.600996
vt 0.277490 0.597330
vt 0.282675 0.586554
vt 0.282668 0.582170
vt 0.295506 0.585462
vt 0.275772 0.856680
vt 0.880083 0.568728
vt 0.931749 0.918643
vt 0.163849 0.920681
vt 0.877930 0.700998
vt 0.026275 0.919843
vt 0.856230 0.591079
vt 0.442815 0.588001
vt 0.442823 0.577228
vt 0.453057 0.576157
vt 0.442830 0.572951
vt 0.453065 0.572963
vt 0.455608 0.572965
vt 0.455600 0.576159
vt 0.437667 0.591621
vt 0.437667 0.587995
vt 0.408362 0.606043
vt 0.408378 0.591589
vt 0.437599 0.606075
vt 0.442792 0.609709
vt 0.437591 0.609703
vt 0.453026 0.606092
vt 0.453042 0.591585
vt 0.442769 0.624865
vt 0.442777 0.620482
vt 0.455600 0.624881
vt 0.931546 0.734948
vn 0.0000 0.0000 -1.0000
vn -1.0000 0.0000 0.0000
vn 1.0000 0.0000 0.0000
vn 0.0000 0.0000 1.0000
vn 0.0000 1.0000 0.0000
vn 0.0000 -1.0000 0.0000
s off
f 4/1/1 1/2/1 2/3/1
f 4/4/2 8/5/2 3/6/2
f 1/7/3 5/8/3 2/9/3
f 10/10/4 11/11/4 9/12/4
f 7/13/2 12/14/2 8/5/2
f 6/15/1 13/16/1 5/17/1
f 14/18/1 15/19/1 13/16/1
f 16/20/1 17/21/1 15/19/1
f 22/22/3 23/23/3 21/24/3
f 18/25/2 25/26/2 17/27/2
f 19/28/4 24/29/4 20/30/4
f 26/31/1 27/32/1 25/33/1
f 21/24/3 28/34/3 22/22/3
f 22/35/5 28/36/5 18/37/5
f 36/38/3 30/39/3 35/40/3
f 29/41/4 31/42/4 32/43/4
f 44/44/4 35/45/4 43/46/4
f 42/47/2 37/48/2 41/49/2
f 9/12/4 38/50/4 10/10/4
f 39/51/4 20/30/4 40/52/4
f 40/53/3 43/54/3 39/55/3
f 33/56/2 32/57/2 34/58/2
f 17/59/6 25/60/6 21/61/6
f 34/62/4 41/63/4 33/64/4
f 4/1/1 3/65/1 1/2/1
f 4/4/2 7/13/2 8/5/2
f 1/7/3 6/66/3 5/8/3
f 10/10/4 12/67/4 11/11/4
f 7/13/2 11/68/2 12/14/2
f 6/15/1 14/18/1 13/16/1
f 14/18/1 16/20/1 15/19/1
f 16/20/1 18/69/1 17/21/1
f 22/22/3 24/70/3 23/23/3
f 18/25/2 26/71/2 25/26/2
f 19/28/4 23/72/4 24/29/4
f 26/31/1 28/73/1 27/32/1
f 21/24/3 27/74/3 28/34/3
f 6/75/5 1/76/5 3/77/5
f 8/78/5 12/79/5 6/75/5
f 12/79/5 10/80/5 6/75/5
f 6/75/5 3/77/5 8/78/5
f 18/37/5 16/81/5 40/82/5
f 16/81/5 14/83/5 34/84/5
f 34/84/5 14/83/5 38/85/5
f 14/83/5 6/75/5 38/85/5
f 6/75/5 10/80/5 38/85/5
f 38/85/5 42/86/5 34/84/5
f 34/84/5 32/87/5 36/88/5
f 32/87/5 31/89/5 36/88/5
f 36/88/5 44/90/5 40/82/5
f 40/82/5 16/81/5 36/88/5
f 34/84/5 36/88/5 16/81/5
f 40/82/5 20/91/5 18/37/5
f 20/91/5 24/92/5 18/37/5
f 18/37/5 24/92/5 22/35/5
f 28/36/5 26/93/5 18/37/5
f 36/38/3 31/94/3 30/39/3
f 29/41/4 30/95/4 31/42/4
f 44/44/4 36/96/4 35/45/4
f 42/47/2 38/97/2 37/48/2
f 9/12/4 37/98/4 38/50/4
f 39/51/4 19/28/4 20/30/4
f 40/53/3 44/99/3 43/54/3
f 33/56/2 29/100/2 32/57/2
f 37/101/6 9/102/6 5/103/6
f 9/102/6 11/104/6 5/103/6
f 5/103/6 11/104/6 7/105/6
f 7/105/6 4/106/6 2/107/6
f 33/108/6 41/109/6 37/101/6
f 30/110/6 29/111/6 35/112/6
f 29/111/6 33/108/6 35/112/6
f 39/113/6 43/114/6 35/112/6
f 35/112/6 33/108/6 15/115/6
f 33/108/6 37/101/6 13/116/6
f 23/117/6 19/118/6 17/59/6
f 19/118/6 39/113/6 17/59/6
f 23/117/6 17/59/6 21/61/6
f 39/113/6 35/112/6 15/115/6
f 33/108/6 13/116/6 15/115/6
f 7/105/6 2/107/6 5/103/6
f 15/115/6 17/59/6 39/113/6
f 5/103/6 13/116/6 37/101/6
f 25/60/6 27/119/6 21/61/6
f 34/62/4 42/120/4 41/63/4
