# Blender v3.0.1 OBJ File: 'Main.blend'
# www.blender.org
o Cube.5810_0189
v -1.392000 0.129000 3.267000
v -1.392000 0.129000 2.937000
v -0.324000 0.129000 3.267000
v -0.324000 0.129000 2.937000
v -1.392000 0.123000 2.937000
v -1.392000 0.123000 3.267000
v -0.324000 0.123000 2.937000
v -0.324000 0.123000 3.267000
v -1.392000 0.213000 3.267000
v -1.392000 0.213000 2.937000
v -0.324000 0.213000 3.267000
v -0.324000 0.213000 2.937000
v -1.392000 0.207000 2.937000
v -1.392000 0.207000 3.267000
v -0.324000 0.207000 2.937000
v -0.324000 0.207000 3.267000
v -1.392000 0.297000 3.267000
v -1.392000 0.297000 2.937000
v -0.324000 0.297000 3.267000
v -0.324000 0.297000 2.937000
v -1.392000 0.291000 2.937000
v -1.392000 0.291000 3.267000
v -0.324000 0.291000 2.937000
v -0.324000 0.291000 3.267000
v -1.392000 0.381000 3.267000
v -1.392000 0.381000 2.937000
v -0.324000 0.381000 3.267000
v -0.324000 0.381000 2.937000
v -1.392000 0.375000 2.937000
v -1.392000 0.375000 3.267000
v -0.324000 0.375000 2.937000
v -0.324000 0.375000 3.267000
vt 0.355732 0.818642
vt 0.349777 0.799369
vt 0.355732 0.799369
vt 0.813500 0.023153
vt 0.819456 0.003881
vt 0.819456 0.023153
vt 0.868394 0.257909
vt 0.868286 0.238635
vt 0.868394 0.238635
vt 0.913975 0.690957
vt 0.913867 0.685002
vt 0.913975 0.685002
vt 0.868402 0.174871
vt 0.868294 0.155599
vt 0.868402 0.155599
vt 0.913975 0.443490
vt 0.913867 0.437536
vt 0.913975 0.437536
vt 0.355732 0.818642
vt 0.349777 0.799369
vt 0.355732 0.799369
vt 0.813500 0.023153
vt 0.819456 0.003881
vt 0.819456 0.023153
vt 0.868394 0.257909
vt 0.868286 0.238635
vt 0.868394 0.238635
vt 0.913975 0.690957
vt 0.913867 0.685002
vt 0.913975 0.685002
vt 0.868402 0.174871
vt 0.868294 0.155599
vt 0.868402 0.155599
vt 0.913975 0.443490
vt 0.913867 0.437536
vt 0.913975 0.437536
vt 0.355732 0.818642
vt 0.349777 0.799369
vt 0.355732 0.799369
vt 0.813500 0.023153
vt 0.819456 0.003881
vt 0.819456 0.023153
vt 0.868394 0.257909
vt 0.868286 0.238635
vt 0.868394 0.238635
vt 0.913975 0.690957
vt 0.913867 0.685002
vt 0.913975 0.685002
vt 0.868402 0.174871
vt 0.868294 0.155599
vt 0.868402 0.155599
vt 0.913975 0.443490
vt 0.913867 0.437536
vt 0.913975 0.437536
vt 0.355732 0.818642
vt 0.349777 0.799369
vt 0.355732 0.799369
vt 0.813500 0.023153
vt 0.819456 0.003881
vt 0.819456 0.023153
vt 0.868394 0.257909
vt 0.868286 0.238635
vt 0.868394 0.238635
vt 0.913975 0.690957
vt 0.913867 0.685002
vt 0.913975 0.685002
vt 0.868402 0.174871
vt 0.868294 0.155599
vt 0.868402 0.155599
vt 0.913975 0.443490
vt 0.913867 0.437536
vt 0.913975 0.437536
vt 0.349777 0.818642
vt 0.813500 0.003881
vt 0.868286 0.257909
vt 0.913867 0.690957
vt 0.868294 0.174871
vt 0.913867 0.443490
vt 0.349777 0.818642
vt 0.813500 0.003881
vt 0.868286 0.257909
vt 0.913867 0.690957
vt 0.868294 0.174871
vt 0.913867 0.443490
vt 0.349777 0.818642
vt 0.813500 0.003881
vt 0.868286 0.257909
vt 0.913867 0.690957
vt 0.868294 0.174871
vt 0.913867 0.443490
vt 0.349777 0.818642
vt 0.813500 0.003881
vt 0.868286 0.257909
vt 0.913867 0.690957
vt 0.868294 0.174871
vt 0.913867 0.443490
vn 0.0000 1.0000 0.0000
vn 0.0000 -1.0000 0.0000
vn 0.0000 0.0000 -1.0000
vn 1.0000 0.0000 0.0000
vn 0.0000 0.0000 1.0000
vn -1.0000 0.0000 0.0000
s off
f 3/1/1 2/2/1 1/3/1
f 5/4/2 8/5/2 6/6/2
f 4/7/3 5/8/3 2/9/3
f 3/10/4 7/11/4 4/12/4
f 1/13/5 8/14/5 3/15/5
f 2/16/6 6/17/6 1/18/6
f 11/19/1 10/20/1 9/21/1
f 13/22/2 16/23/2 14/24/2
f 12/25/3 13/26/3 10/27/3
f 11/28/4 15/29/4 12/30/4
f 9/31/5 16/32/5 11/33/5
f 10/34/6 14/35/6 9/36/6
f 19/37/1 18/38/1 17/39/1
f 21/40/2 24/41/2 22/42/2
f 20/43/3 21/44/3 18/45/3
f 19/46/4 23/47/4 20/48/4
f 17/49/5 24/50/5 19/51/5
f 18/52/6 22/53/6 17/54/6
f 27/55/1 26/56/1 25/57/1
f 29/58/2 32/59/2 30/60/2
f 28/61/3 29/62/3 26/63/3
f 27/64/4 31/65/4 28/66/4
f 25/67/5 32/68/5 27/69/5
f 26/70/6 30/71/6 25/72/6
f 3/1/1 4/73/1 2/2/1
f 5/4/2 7/74/2 8/5/2
f 4/7/3 7/75/3 5/8/3
f 3/10/4 8/76/4 7/11/4
f 1/13/5 6/77/5 8/14/5
f 2/16/6 5/78/6 6/17/6
f 11/19/1 12/79/1 10/20/1
f 13/22/2 15/80/2 16/23/2
f 12/25/3 15/81/3 13/26/3
f 11/28/4 16/82/4 15/29/4
f 9/31/5 14/83/5 16/32/5
f 10/34/6 13/84/6 14/35/6
f 19/37/1 20/85/1 18/38/1
f 21/40/2 23/86/2 24/41/2
f 20/43/3 23/87/3 21/44/3
f 19/46/4 24/88/4 23/47/4
f 17/49/5 22/89/5 24/50/5
f 18/52/6 21/90/6 22/53/6
f 27/55/1 28/91/1 26/56/1
f 29/58/2 31/92/2 32/59/2
f 28/61/3 31/93/3 29/62/3
f 27/64/4 32/94/4 31/65/4
f 25/67/5 30/95/5 32/68/5
f 26/70/6 29/96/6 30/71/6
