# Blender v3.0.1 OBJ File: 'Main.blend'
# www.blender.org
o Cube.5277_0142
v 1.893000 0.369000 -2.892000
v 1.893000 0.000000 -2.892000
v 1.875000 0.369000 -2.892000
v 1.875000 0.000000 -2.892000
v 1.893000 0.000000 -2.943000
v 1.893000 0.369000 -2.943000
v 1.875000 0.000000 -2.943000
v 1.875000 0.369000 -2.943000
v 1.902000 0.000000 -3.006000
v 1.902000 0.369000 -3.006000
v 1.875000 0.000000 -3.006000
v 1.875000 0.369000 -3.006000
v 1.902000 0.000000 -2.943000
v 1.902000 0.369000 -2.943000
vt 0.487037 0.901576
vt 0.486712 0.908235
vt 0.486712 0.901576
vt 0.469951 0.936603
vt 0.470275 0.937741
vt 0.469788 0.937741
vt 0.336672 0.935319
vt 0.336347 0.936243
vt 0.336347 0.935319
vt 0.879723 0.043616
vt 0.880647 0.050274
vt 0.879723 0.050274
vt 0.470275 0.935679
vt 0.469951 0.935679
vt 0.423986 0.898839
vt 0.423062 0.892180
vt 0.423986 0.892180
vt 0.613028 0.906045
vt 0.612541 0.899386
vt 0.613028 0.899386
vt 0.336672 0.936243
vt 0.336347 0.937381
vt 0.880647 0.043616
vt 0.881785 0.050274
vt 0.638883 0.896226
vt 0.637745 0.889568
vt 0.638883 0.889568
vt 0.469788 0.936603
vt 0.910870 0.229041
vt 0.910708 0.222382
vt 0.910870 0.222382
vt 0.336834 0.937381
vt 0.336834 0.936243
vt 0.487037 0.908235
vt 0.470275 0.936603
vt 0.423062 0.898839
vt 0.612541 0.906045
vt 0.881785 0.043616
vt 0.637745 0.896226
vt 0.910708 0.229041
vn 0.0000 0.0000 1.0000
vn 0.0000 -1.0000 0.0000
vn 0.0000 1.0000 0.0000
vn -1.0000 0.0000 0.0000
vn 1.0000 0.0000 0.0000
vn 0.0000 0.0000 -1.0000
s off
f 3/1/1 2/2/1 1/3/1
f 5/4/2 11/5/2 9/6/2
f 1/7/3 8/8/3 3/9/3
f 3/10/4 7/11/4 4/12/4
f 4/13/2 5/4/2 2/14/2
f 2/15/5 6/16/5 1/17/5
f 9/18/6 12/19/6 10/20/6
f 6/21/3 12/22/3 8/8/3
f 8/23/4 11/24/4 7/11/4
f 13/25/5 10/26/5 14/27/5
f 5/4/2 9/6/2 13/28/2
f 5/29/1 14/30/1 6/31/1
f 10/32/3 6/21/3 14/33/3
f 3/1/1 4/34/1 2/2/1
f 5/4/2 7/35/2 11/5/2
f 1/7/3 6/21/3 8/8/3
f 3/10/4 8/23/4 7/11/4
f 4/13/2 7/35/2 5/4/2
f 2/15/5 5/36/5 6/16/5
f 9/18/6 11/37/6 12/19/6
f 6/21/3 10/32/3 12/22/3
f 8/23/4 12/38/4 11/24/4
f 13/25/5 9/39/5 10/26/5
f 5/29/1 13/40/1 14/30/1
