# Blender v3.0.1 OBJ File: 'Main.blend'
# www.blender.org
o Cube.5888_0095
v -1.452001 0.615000 0.318000
v -1.452001 0.615000 0.318000
v -1.452001 0.570000 0.318000
v -1.452001 0.570000 0.321000
v -1.452001 0.579000 0.321000
v -1.452001 0.579000 0.324001
v -1.452001 0.606000 0.324001
v -1.452001 0.606000 0.321000
v -1.452001 0.615000 0.321000
v -1.452001 0.615000 0.315000
v -1.905001 0.615000 0.318000
v -1.905001 0.615000 0.318000
v -1.905001 0.570000 0.318000
v -1.907122 0.570000 0.320122
v -1.907122 0.579000 0.320122
v -1.909243 0.579000 0.322243
v -1.909243 0.606000 0.322243
v -1.907122 0.606000 0.320122
v -1.907122 0.615000 0.320122
v -1.902879 0.615000 0.315879
v -1.905879 0.615000 -0.366879
v -1.905879 0.615000 -0.366879
v -1.905879 0.570000 -0.366879
v -1.908879 0.570000 -0.369879
v -1.908880 0.579000 -0.369879
v -1.911880 0.579000 -0.372880
v -1.911880 0.606000 -0.372880
v -1.908880 0.606000 -0.369879
v -1.908880 0.615000 -0.369879
v -1.902879 0.615000 -0.363879
v -1.452001 0.615000 -0.366000
v -1.452001 0.615000 -0.366000
v -1.452001 0.570000 -0.366000
v -1.452001 0.570000 -0.369001
v -1.452001 0.579000 -0.369001
v -1.452001 0.579000 -0.372001
v -1.452001 0.606000 -0.372001
v -1.452001 0.606000 -0.369001
v -1.452001 0.615000 -0.369001
v -1.452001 0.615000 -0.363000
vt 0.217844 0.830900
vt 0.217844 0.830846
vt 0.209703 0.830862
vt 0.945300 0.032747
vt 0.945300 0.032747
vt 0.945300 0.032747
vt 0.560404 0.885028
vt 0.560404 0.893204
vt 0.561215 0.893204
vt 0.653182 0.828815
vt 0.653182 0.828762
vt 0.645002 0.828762
vt 0.903142 0.230600
vt 0.903142 0.222382
vt 0.902979 0.222382
vt 0.473471 0.827661
vt 0.473471 0.827607
vt 0.465253 0.827590
vt 0.769954 0.897957
vt 0.769954 0.889701
vt 0.769467 0.889701
vt 0.222436 0.814852
vt 0.230654 0.814835
vt 0.230654 0.814782
vt 0.903075 0.211442
vt 0.903075 0.203224
vt 0.902913 0.203224
vt 0.412701 0.815426
vt 0.420843 0.815442
vt 0.420843 0.815334
vt 0.209665 0.830900
vt 0.209703 0.818595
vt 0.945300 0.032747
vt 0.945300 0.032747
vt 0.875813 0.347057
vt 0.875813 0.359415
vt 0.876624 0.359415
vt 0.644964 0.828800
vt 0.644987 0.816402
vt 0.662496 0.885734
vt 0.662496 0.873283
vt 0.662334 0.873283
vt 0.465215 0.827629
vt 0.465223 0.815139
vt 0.881735 0.700998
vt 0.881735 0.713542
vt 0.882222 0.713542
vt 0.222406 0.827303
vt 0.222398 0.814813
vt 0.658637 0.885734
vt 0.658637 0.873283
vt 0.658475 0.873283
vt 0.412701 0.827693
vt 0.412625 0.815350
vt 0.217844 0.818557
vt 0.209649 0.818542
vt 0.945300 0.032747
vt 0.945300 0.032747
vt 0.051646 0.885004
vt 0.051646 0.893199
vt 0.052458 0.893199
vt 0.653182 0.816364
vt 0.644933 0.816349
vt 0.902685 0.650455
vt 0.902685 0.658703
vt 0.902847 0.658703
vt 0.473471 0.815101
vt 0.465169 0.815086
vt 0.211294 0.897738
vt 0.211294 0.889436
vt 0.210807 0.889436
vt 0.222352 0.827357
vt 0.230654 0.827341
vt 0.902866 0.531087
vt 0.902866 0.522842
vt 0.902703 0.522842
vt 0.412594 0.827801
vt 0.420843 0.827785
vt 0.561215 0.885028
vt 0.902979 0.230600
vt 0.769467 0.897957
vt 0.902913 0.211442
vt 0.876624 0.347057
vt 0.662334 0.885734
vt 0.882222 0.700998
vt 0.658475 0.885734
vt 0.217844 0.818612
vt 0.945300 0.032747
vt 0.052458 0.885004
vt 0.653182 0.816418
vt 0.902847 0.650455
vt 0.473471 0.815156
vt 0.210807 0.897738
vt 0.230654 0.827286
vt 0.902703 0.531087
vt 0.420843 0.827676
vn -0.0000 1.0000 0.0000
vn 0.0000 0.0000 1.0000
vn 0.0019 0.0000 -1.0000
vn 0.0038 0.0000 -1.0000
vn 0.0000 -1.0000 0.0000
vn -1.0000 0.0000 0.0013
vn 1.0000 0.0000 -0.0025
vn 1.0000 0.0000 -0.0038
vn -0.0019 -0.0000 1.0000
vn 0.0000 1.0000 0.0001
s off
f 1/1/1 10/2/1 20/3/1
f 2/4/2 1/5/2 11/6/2
f 13/7/2 3/8/2 2/9/2
f 4/10/1 3/11/1 13/12/1
f 15/13/3 5/14/3 4/15/3
f 6/16/1 5/17/1 15/18/1
f 17/19/4 7/20/4 6/21/4
f 18/22/5 8/23/5 7/24/5
f 19/25/3 9/26/3 8/27/3
f 20/28/5 10/29/5 9/30/5
f 11/31/1 20/3/1 30/32/1
f 12/33/2 11/6/2 21/34/2
f 23/35/6 13/36/6 12/37/6
f 14/38/1 13/12/1 23/39/1
f 25/40/7 15/41/7 14/42/7
f 16/43/1 15/18/1 25/44/1
f 27/45/8 17/46/8 16/47/8
f 28/48/5 18/22/5 17/49/5
f 29/50/7 19/51/7 18/52/7
f 30/53/5 20/28/5 19/54/5
f 31/55/1 21/56/1 30/32/1
f 22/57/2 21/34/2 31/58/2
f 33/59/3 23/60/3 22/61/3
f 34/62/1 24/63/1 23/39/1
f 35/64/9 25/65/9 24/66/9
f 36/67/1 26/68/1 25/44/1
f 37/69/9 27/70/9 26/71/9
f 28/48/5 27/72/5 37/73/5
f 39/74/9 29/75/9 28/76/9
f 30/53/5 29/77/5 39/78/5
f 1/1/1 20/3/1 11/31/1
f 2/4/2 11/6/2 12/33/2
f 13/7/2 2/9/2 12/79/2
f 4/10/1 13/12/1 14/38/1
f 15/13/3 4/15/3 14/80/3
f 6/16/10 15/18/10 16/43/10
f 17/19/4 6/21/4 16/81/4
f 18/22/5 7/24/5 17/49/5
f 19/25/3 8/27/3 18/82/3
f 20/28/5 9/30/5 19/54/5
f 11/31/1 30/32/1 21/56/1
f 12/33/2 21/34/2 22/57/2
f 23/35/6 12/37/6 22/83/6
f 14/38/1 23/39/1 24/63/1
f 25/40/7 14/42/7 24/84/7
f 16/43/1 25/44/1 26/68/1
f 27/45/8 16/47/8 26/85/8
f 28/48/5 17/49/5 27/72/5
f 29/50/7 18/52/7 28/86/7
f 30/53/5 19/54/5 29/77/5
f 31/55/1 30/32/1 40/87/1
f 22/57/2 31/58/2 32/88/2
f 33/59/3 22/61/3 32/89/3
f 34/62/1 23/39/1 33/90/1
f 35/64/9 24/66/9 34/91/9
f 36/67/1 25/44/1 35/92/1
f 37/69/9 26/71/9 36/93/9
f 28/48/5 37/73/5 38/94/5
f 39/74/9 28/76/9 38/95/9
f 30/53/5 39/78/5 40/96/5
