# Blender v3.0.1 OBJ File: 'Main.blend'
# www.blender.org
o Cube.5287_0087
v -1.857002 -0.123000 -1.041000
v -1.857002 0.366000 -1.041000
v -1.905002 -0.123000 -1.041000
v -1.905002 0.366000 -1.041000
v -1.905002 -0.123000 -1.089000
v -1.905002 0.366000 -1.089000
v -1.893002 -0.123000 -1.089000
v -1.893002 0.366000 -1.089000
v -1.893002 -0.123000 -1.287000
v -1.893002 0.366000 -1.287000
v -1.905002 -0.123000 -1.287000
v -1.905002 0.366000 -1.287000
v -1.905002 -0.123000 -1.338000
v -1.905002 0.366000 -1.338000
v -1.896002 -0.123000 -1.338000
v -1.896002 0.366000 -1.338000
v -1.896002 -0.123000 -1.362000
v -1.896002 0.366000 -1.362000
v -1.887002 -0.123000 -1.362000
v -1.887002 0.366000 -1.362000
v -1.887002 -0.123000 -1.425000
v -1.887002 0.366000 -1.425000
v -1.896002 -0.123000 -1.425000
v -1.896002 0.366000 -1.425000
v -1.896002 -0.123000 -1.464000
v -1.896002 0.366000 -1.464000
v -1.887002 -0.123000 -1.464000
v -1.887002 0.366000 -1.464000
v -1.887002 -0.123000 -1.527000
v -1.887002 0.366000 -1.527000
v -1.896002 -0.123000 -1.527000
v -1.896002 0.366000 -1.527000
v -1.896002 -0.123000 -1.579500
v -1.896002 0.366000 -1.579500
v -1.689002 -0.123000 -1.579500
v -1.689002 0.366000 -1.579500
v -1.689002 -0.123000 -1.567500
v -1.689002 0.366000 -1.567500
v -1.602002 -0.123000 -1.567500
v -1.602002 0.366000 -1.567500
v -1.602002 -0.123000 -1.579500
v -1.602002 0.366000 -1.579500
v -1.459502 -0.123000 -1.579500
v -1.459502 0.366000 -1.579500
v -1.459502 -0.123000 -1.567500
v -1.459502 0.366000 -1.567500
v -1.438502 -0.123000 -1.567500
v -1.438502 0.366000 -1.567500
v -1.857002 -0.123000 -1.089000
v -1.857002 0.366000 -1.089000
v -1.869002 -0.123000 -1.089000
v -1.869002 0.366000 -1.089000
v -1.869002 -0.123000 -1.287000
v -1.869002 0.366000 -1.287000
v -1.846502 -0.123000 -1.287000
v -1.846502 0.366000 -1.287000
v -1.846502 -0.123000 -1.302000
v -1.846502 0.366000 -1.302000
v -1.765502 -0.123000 -1.302000
v -1.765502 0.366000 -1.302000
v -1.765502 -0.123000 -1.287000
v -1.765502 0.366000 -1.287000
v -1.702502 -0.123000 -1.287000
v -1.702502 0.366000 -1.287000
v -1.702502 -0.123000 -1.302000
v -1.702502 0.366000 -1.302000
v -1.621502 -0.123000 -1.302000
v -1.621502 0.366000 -1.302000
v -1.621502 -0.123000 -1.287000
v -1.621502 0.366000 -1.287000
v -1.558502 -0.123000 -1.287000
v -1.558502 0.366000 -1.287000
v -1.558502 -0.123000 -1.302000
v -1.558502 0.366000 -1.302000
v -1.477502 -0.123000 -1.302000
v -1.477502 0.366000 -1.302000
v -1.477502 -0.123000 -1.287000
v -1.477502 0.366000 -1.287000
v -1.438502 -0.123000 -1.287000
v -1.438502 0.366000 -1.287000
v -1.438502 -0.123000 -1.326000
v -1.438502 0.366000 -1.326000
v -1.869002 -0.123000 -1.326000
v -1.869002 0.366000 -1.326000
v -1.869002 -0.123000 -1.557000
v -1.869002 0.366000 -1.557000
v -1.438502 -0.123000 -1.557000
v -1.438502 0.366000 -1.557000
v -1.887002 0.045000 -1.473000
v -1.887002 0.153000 -1.473000
v -1.887002 0.192000 -1.473000
v -1.887002 0.261000 -1.477528
v -1.887002 0.261000 -1.473000
v -1.887002 0.297000 -1.473000
v -1.887002 0.366000 -1.473000
v -1.887002 0.045000 -1.518000
v -1.887002 0.297000 -1.518000
v -1.887002 0.261000 -1.518000
v -1.887002 0.366000 -1.518000
v -1.887002 0.153000 -1.518000
v -1.887002 0.192000 -1.518000
v -1.869002 0.192000 -1.473000
v -1.869002 0.261000 -1.473000
v -1.869002 0.297000 -1.473000
v -1.869002 0.366000 -1.473000
v -1.869002 0.261000 -1.507399
v -1.869002 0.297000 -1.502250
v -1.869002 0.297000 -1.518000
v -1.869002 0.366000 -1.518000
v -1.869002 0.192000 -1.474804
v -1.869002 0.045000 -1.473000
v -1.869002 0.153000 -1.473000
v -1.869002 0.192000 -1.518000
v -1.869002 0.261000 -1.518000
v -1.869002 0.045000 -1.518000
v -1.869002 0.153000 -1.518000
v -1.887002 0.045000 -1.371000
v -1.887002 0.153000 -1.371000
v -1.887002 0.192000 -1.371000
v -1.887002 0.261000 -1.375528
v -1.887002 0.261000 -1.371000
v -1.887002 0.297000 -1.371000
v -1.887002 0.366000 -1.371000
v -1.887002 0.045000 -1.416000
v -1.887002 0.297000 -1.416000
v -1.887002 0.261000 -1.416000
v -1.887002 0.366000 -1.416000
v -1.887002 0.153000 -1.416000
v -1.887002 0.192000 -1.416000
v -1.869002 0.045000 -1.416000
v -1.869002 0.045000 -1.371000
v -1.869002 0.153000 -1.371000
v -1.869002 0.192000 -1.371000
v -1.869002 0.297000 -1.371000
v -1.869002 0.261000 -1.371000
v -1.869002 0.153000 -1.416000
v -1.869002 0.192000 -1.416000
v -1.869002 0.261000 -1.416000
v -1.869002 0.297000 -1.416000
v -1.869002 0.366000 -1.371000
v -1.869002 0.366000 -1.416000
vt 0.163091 0.880647
vt 0.163091 0.889471
vt 0.163958 0.889471
vt 0.505924 0.880611
vt 0.505924 0.889435
vt 0.506790 0.889435
vt 0.899216 0.211442
vt 0.899216 0.202618
vt 0.898999 0.202618
vt 0.719206 0.869206
vt 0.719206 0.860382
vt 0.715633 0.860382
vt 0.899347 0.275507
vt 0.899347 0.266683
vt 0.899131 0.266683
vt 0.843385 0.887066
vt 0.843385 0.878242
vt 0.842465 0.878242
vt 0.899600 0.329269
vt 0.899600 0.320445
vt 0.899437 0.320445
vt 0.895837 0.035616
vt 0.895837 0.026791
vt 0.895404 0.026791
vt 0.899927 0.605895
vt 0.899927 0.597071
vt 0.899764 0.597071
vt 0.175040 0.876502
vt 0.175122 0.875852
vt 0.174310 0.875852
vt 0.175122 0.880399
vt 0.174147 0.883431
vt 0.175285 0.883431
vt 0.175122 0.878450
vt 0.175122 0.877747
vt 0.174310 0.877747
vt 0.899975 0.591974
vt 0.899975 0.583149
vt 0.899812 0.583149
vt 0.891423 0.180517
vt 0.891423 0.171692
vt 0.890719 0.171692
vt 0.899697 0.035616
vt 0.899697 0.026791
vt 0.899534 0.026791
vt 0.883209 0.523695
vt 0.883291 0.523046
vt 0.882479 0.523046
vt 0.883291 0.525644
vt 0.883291 0.524941
vt 0.882479 0.524941
vt 0.883291 0.527593
vt 0.882317 0.530625
vt 0.883453 0.530625
vt 0.201678 0.900225
vt 0.201678 0.891401
vt 0.201515 0.891401
vt 0.297748 0.885827
vt 0.297748 0.877003
vt 0.296801 0.877003
vt 0.326648 0.867612
vt 0.326648 0.858788
vt 0.322912 0.858788
vt 0.899370 0.817369
vt 0.899370 0.808545
vt 0.899154 0.808545
vt 0.379134 0.879579
vt 0.379134 0.870755
vt 0.377564 0.870755
vt 0.899460 0.251032
vt 0.899460 0.242208
vt 0.899244 0.242208
vt 0.286790 0.872541
vt 0.286790 0.863716
vt 0.284219 0.863716
vt 0.899461 0.578600
vt 0.899461 0.569775
vt 0.899246 0.569775
vt 0.205782 0.897010
vt 0.205782 0.888186
vt 0.205403 0.888186
vt 0.888337 0.098442
vt 0.888337 0.107266
vt 0.889204 0.107266
vt 0.899066 0.222382
vt 0.899066 0.231206
vt 0.899282 0.231206
vt 0.056154 0.860599
vt 0.056154 0.869423
vt 0.059727 0.869423
vt 0.895972 0.041213
vt 0.895972 0.050037
vt 0.896379 0.050037
vt 0.063488 0.890108
vt 0.063488 0.898932
vt 0.063758 0.898932
vt 0.533806 0.872315
vt 0.533806 0.881139
vt 0.535267 0.881139
vt 0.898536 0.359990
vt 0.898536 0.368814
vt 0.898807 0.368814
vt 0.523629 0.874764
vt 0.523629 0.883588
vt 0.524765 0.883588
vt 0.898691 0.490258
vt 0.898691 0.499082
vt 0.898961 0.499082
vt 0.089226 0.872378
vt 0.089226 0.881202
vt 0.090687 0.881202
vt 0.898539 0.188582
vt 0.898539 0.197406
vt 0.898809 0.197406
vt 0.649985 0.874635
vt 0.649985 0.883460
vt 0.651121 0.883460
vt 0.898577 0.054521
vt 0.898577 0.063345
vt 0.898847 0.063345
vt 0.559755 0.872507
vt 0.559755 0.881331
vt 0.561215 0.881331
vt 0.898498 0.333142
vt 0.898498 0.341966
vt 0.898768 0.341966
vt 0.890791 0.881407
vt 0.890791 0.890231
vt 0.891494 0.890231
vt 0.890725 0.651594
vt 0.890725 0.660418
vt 0.891429 0.660418
vt 0.570203 0.840219
vt 0.570203 0.849043
vt 0.577971 0.849043
vt 0.803582 0.858823
vt 0.803053 0.858823
vt 0.803053 0.859473
vt 0.801213 0.859473
vt 0.802026 0.859473
vt 0.802026 0.858823
vt 0.801213 0.861422
vt 0.802026 0.861422
vt 0.802026 0.860718
vt 0.803867 0.861422
vt 0.803867 0.860718
vt 0.803086 0.860718
vt 0.076295 0.840249
vt 0.076295 0.849073
vt 0.084062 0.849073
vt 0.899599 0.842591
vt 0.899599 0.833767
vt 0.899410 0.833767
vt 0.680243 0.883738
vt 0.680243 0.882168
vt 0.680054 0.886688
vt 0.947312 0.008774
vt 0.947637 0.009641
vt 0.947637 0.008938
vt 0.328055 0.855091
vt 0.327622 0.854389
vt 0.327352 0.855091
vt 0.548384 0.157561
vt 0.546516 0.157992
vt 0.549520 0.157561
vt 0.809378 0.940079
vt 0.809053 0.940079
vt 0.809053 0.942027
vt 0.291492 0.939962
vt 0.291167 0.939962
vt 0.291167 0.941911
vt 0.971352 0.336640
vt 0.971352 0.337451
vt 0.971677 0.337451
vt 0.597384 0.971661
vt 0.597709 0.971661
vt 0.597709 0.970850
vt 0.923909 0.954741
vt 0.923909 0.953496
vt 0.923584 0.953496
vt 0.274410 0.953518
vt 0.274085 0.953518
vt 0.274085 0.954763
vt 0.971679 0.440221
vt 0.971354 0.439442
vt 0.971354 0.440221
vt 0.549693 0.971038
vt 0.549693 0.971658
vt 0.550017 0.971577
vt 0.886824 0.954684
vt 0.886824 0.953438
vt 0.886499 0.953438
vt 0.781613 0.953439
vt 0.781288 0.953439
vt 0.781288 0.954685
vt 0.253957 0.971683
vt 0.253632 0.971399
vt 0.253632 0.971683
vt 0.132255 0.941979
vt 0.132580 0.941979
vt 0.132580 0.940030
vt 0.302302 0.940062
vt 0.301977 0.940062
vt 0.301977 0.942010
vt 0.086233 0.970877
vt 0.086233 0.971688
vt 0.086558 0.971688
vt 0.685179 0.970877
vt 0.684854 0.970877
vt 0.684854 0.971688
vt 0.608564 0.954764
vt 0.608889 0.954764
vt 0.608889 0.953519
vt 0.090493 0.953518
vt 0.090168 0.953518
vt 0.090168 0.954763
vt 0.291697 0.971679
vt 0.291697 0.970867
vt 0.291372 0.970867
vt 0.971351 0.724866
vt 0.971676 0.724785
vt 0.971351 0.724785
vt 0.953823 0.902027
vt 0.954148 0.902027
vt 0.954148 0.900782
vt 0.039782 0.954700
vt 0.040107 0.954700
vt 0.040107 0.953454
vt 0.631968 0.970851
vt 0.631968 0.971663
vt 0.632292 0.971663
vt 0.163958 0.880647
vt 0.506790 0.880611
vt 0.898999 0.211442
vt 0.715633 0.869206
vt 0.899131 0.275507
vt 0.842465 0.887066
vt 0.899437 0.329269
vt 0.895404 0.035616
vt 0.899764 0.605895
vt 0.174310 0.876502
vt 0.175285 0.874607
vt 0.175122 0.874607
vt 0.174310 0.878450
vt 0.174147 0.874607
vt 0.174310 0.874607
vt 0.175122 0.876502
vt 0.174310 0.880399
vt 0.899812 0.591974
vt 0.890719 0.180517
vt 0.899534 0.035616
vt 0.882479 0.523695
vt 0.882479 0.525644
vt 0.883453 0.521801
vt 0.883291 0.521801
vt 0.882317 0.521801
vt 0.882479 0.521801
vt 0.883291 0.523695
vt 0.882479 0.527593
vt 0.201515 0.900225
vt 0.296801 0.885827
vt 0.322912 0.867612
vt 0.899154 0.817369
vt 0.377564 0.879579
vt 0.899244 0.251032
vt 0.284219 0.872541
vt 0.899246 0.578600
vt 0.205403 0.897010
vt 0.889204 0.098442
vt 0.899282 0.222382
vt 0.059727 0.860599
vt 0.896379 0.041213
vt 0.063758 0.890108
vt 0.535267 0.872315
vt 0.898807 0.359990
vt 0.524765 0.874764
vt 0.898961 0.490258
vt 0.090687 0.872378
vt 0.898809 0.188582
vt 0.651121 0.874635
vt 0.898847 0.054521
vt 0.561215 0.872507
vt 0.898768 0.333142
vt 0.891494 0.881407
vt 0.891429 0.651594
vt 0.577971 0.840219
vt 0.803674 0.859473
vt 0.801213 0.858823
vt 0.801213 0.860718
vt 0.803867 0.859473
vt 0.803867 0.858823
vt 0.804569 0.857578
vt 0.803867 0.857578
vt 0.803867 0.863371
vt 0.804569 0.866402
vt 0.800401 0.866402
vt 0.800401 0.857578
vt 0.801213 0.857578
vt 0.803053 0.863371
vt 0.801213 0.863371
vt 0.802026 0.863371
vt 0.803053 0.860718
vt 0.803053 0.861422
vt 0.803053 0.857578
vt 0.802026 0.857578
vt 0.084062 0.840249
vt 0.899410 0.842591
vt 0.679350 0.878920
vt 0.679512 0.878596
vt 0.679350 0.878596
vt 0.680054 0.878920
vt 0.679512 0.878431
vt 0.680459 0.878431
vt 0.680459 0.882168
vt 0.680459 0.886310
vt 0.680459 0.883738
vt 0.680243 0.886310
vt 0.680243 0.886688
vt 0.947637 0.008774
vt 0.947800 0.009641
vt 0.947800 0.008938
vt 0.947312 0.009803
vt 0.947637 0.009803
vt 0.323778 0.847324
vt 0.322912 0.847540
vt 0.323778 0.847540
vt 0.323778 0.846891
vt 0.322912 0.846673
vt 0.323778 0.846673
vt 0.327352 0.846891
vt 0.328272 0.846835
vt 0.327352 0.846673
vt 0.328272 0.846673
vt 0.327622 0.847729
vt 0.327352 0.847324
vt 0.327352 0.847729
vt 0.328705 0.847000
vt 0.328705 0.846835
vt 0.328867 0.847324
vt 0.328867 0.847000
vt 0.328055 0.847324
vt 0.327352 0.850328
vt 0.327622 0.850328
vt 0.327352 0.849191
vt 0.327622 0.849191
vt 0.327352 0.852926
vt 0.327622 0.852926
vt 0.327352 0.851790
vt 0.327622 0.851790
vt 0.327352 0.854389
vt 0.546516 0.162163
vt 0.549764 0.162352
vt 0.554284 0.162163
vt 0.553906 0.162352
vt 0.554284 0.162352
vt 0.551334 0.162567
vt 0.553906 0.162567
vt 0.551334 0.162352
vt 0.549764 0.162567
vt 0.546028 0.162567
vt 0.546028 0.161620
vt 0.546192 0.161620
vt 0.546192 0.160484
vt 0.546028 0.159780
vt 0.546028 0.160484
vt 0.546192 0.159780
vt 0.546192 0.158644
vt 0.546028 0.158210
vt 0.546028 0.158644
vt 0.545865 0.157290
vt 0.545865 0.158210
vt 0.546083 0.157290
vt 0.553581 0.157290
vt 0.553581 0.157561
vt 0.554284 0.157290
vt 0.554284 0.157992
vt 0.552118 0.157561
vt 0.550982 0.157561
vt 0.550982 0.157290
vt 0.552118 0.157290
vt 0.546516 0.157290
vt 0.546083 0.153717
vt 0.545865 0.152850
vt 0.545865 0.153717
vt 0.546516 0.153717
vt 0.546732 0.152850
vt 0.546732 0.153717
vt 0.546921 0.157561
vt 0.546921 0.157290
vt 0.548384 0.157290
vt 0.549520 0.157290
vt 0.809378 0.942027
vt 0.291492 0.941911
vt 0.971677 0.336640
vt 0.597384 0.970850
vt 0.923584 0.954741
vt 0.274410 0.954763
vt 0.971679 0.439410
vt 0.971354 0.439410
vt 0.550017 0.970847
vt 0.549693 0.970847
vt 0.550017 0.971658
vt 0.886499 0.954684
vt 0.781613 0.954685
vt 0.253957 0.970872
vt 0.253632 0.970872
vt 0.132255 0.940030
vt 0.302302 0.942010
vt 0.086558 0.970877
vt 0.685179 0.971688
vt 0.608564 0.953519
vt 0.090493 0.954763
vt 0.291372 0.971679
vt 0.971676 0.725596
vt 0.971351 0.725596
vt 0.953823 0.900782
vt 0.039782 0.953454
vt 0.632292 0.970851
vn -1.0000 0.0000 0.0000
vn 0.0000 0.0000 1.0000
vn 0.0000 0.0000 -1.0000
vn 1.0000 0.0000 0.0000
vn 0.0000 1.0000 0.0000
vn 0.0000 -1.0000 0.0000
s off
f 6/1/1 5/2/1 3/3/1
f 4/4/2 3/5/2 1/6/2
f 5/7/3 6/8/3 8/9/3
f 7/10/1 8/11/1 10/12/1
f 9/13/2 10/14/2 12/15/2
f 11/16/1 12/17/1 14/18/1
f 13/19/3 14/20/3 16/21/3
f 15/22/1 16/23/1 18/24/1
f 17/25/3 18/26/3 20/27/3
f 120/28/1 122/29/1 125/30/1
f 117/31/1 21/32/1 19/33/1
f 118/34/1 119/35/1 129/36/1
f 21/37/2 22/38/2 24/39/2
f 23/40/1 24/41/1 26/42/1
f 25/43/3 26/44/3 28/45/3
f 92/46/1 94/47/1 97/48/1
f 90/49/1 91/50/1 101/51/1
f 89/52/1 29/53/1 27/54/1
f 29/55/2 30/56/2 32/57/2
f 31/58/1 32/59/1 34/60/1
f 33/61/3 34/62/3 36/63/3
f 35/64/4 36/65/4 38/66/4
f 37/67/3 38/68/3 40/69/3
f 39/70/1 40/71/1 42/72/1
f 41/73/3 42/74/3 44/75/3
f 43/76/4 44/77/4 46/78/4
f 45/79/3 46/80/3 48/81/3
f 2/82/4 1/83/4 49/84/4
f 50/85/3 49/86/3 51/87/3
f 52/88/4 51/89/4 53/90/4
f 54/91/2 53/92/2 55/93/2
f 56/94/4 55/95/4 57/96/4
f 58/97/2 57/98/2 59/99/2
f 60/100/1 59/101/1 61/102/1
f 62/103/2 61/104/2 63/105/2
f 64/106/4 63/107/4 65/108/4
f 66/109/2 65/110/2 67/111/2
f 68/112/1 67/113/1 69/114/1
f 70/115/2 69/116/2 71/117/2
f 72/118/4 71/119/4 73/120/4
f 74/121/2 73/122/2 75/123/2
f 76/124/1 75/125/1 77/126/1
f 78/127/2 77/128/2 79/129/2
f 80/130/4 79/131/4 81/132/4
f 82/133/3 81/134/3 83/135/3
f 107/136/4 104/137/4 103/138/4
f 135/139/4 138/140/4 139/141/4
f 132/142/4 136/143/4 137/144/4
f 138/140/4 103/138/4 139/141/4
f 116/145/4 113/146/4 110/147/4
f 86/148/2 85/149/2 87/150/2
f 47/151/4 48/152/4 88/153/4
f 40/154/5 38/155/5 88/156/5
f 141/157/5 28/158/5 22/159/5
f 82/160/5 76/161/5 80/162/5
f 59/163/6 83/164/6 65/165/6
f 96/166/2 115/167/2 116/168/2
f 90/169/3 112/170/3 111/171/3
f 111/172/5 115/173/5 96/174/5
f 112/175/6 90/176/6 100/177/6
f 113/178/2 114/179/2 98/180/2
f 93/181/3 103/182/3 102/183/3
f 101/184/5 110/185/5 113/186/5
f 106/187/6 103/188/6 92/189/6
f 108/190/2 109/191/2 99/192/2
f 95/193/3 105/194/3 104/195/3
f 97/196/5 107/197/5 108/198/5
f 124/199/2 130/200/2 136/201/2
f 118/202/3 132/203/3 131/204/3
f 131/205/5 130/206/5 124/207/5
f 132/208/6 118/209/6 128/210/6
f 129/211/2 137/212/2 138/213/2
f 121/214/3 135/215/3 133/216/3
f 129/217/5 119/218/5 133/219/5
f 120/220/6 135/221/6 121/222/6
f 125/223/2 139/224/2 141/225/2
f 134/226/3 122/227/3 123/228/3
f 134/229/5 139/230/5 125/231/5
f 6/1/1 3/3/1 4/232/1
f 4/4/2 1/6/2 2/233/2
f 5/7/3 8/9/3 7/234/3
f 7/10/1 10/12/1 9/235/1
f 9/13/2 12/15/2 11/236/2
f 11/16/1 14/18/1 13/237/1
f 13/19/3 16/21/3 15/238/3
f 15/22/1 18/24/1 17/239/1
f 17/25/3 20/27/3 19/240/3
f 120/28/1 125/30/1 126/241/1
f 122/29/1 20/242/1 123/243/1
f 21/32/1 128/244/1 22/245/1
f 22/245/1 125/30/1 127/246/1
f 125/30/1 22/245/1 126/241/1
f 126/241/1 22/245/1 129/36/1
f 22/245/1 128/244/1 129/36/1
f 122/29/1 121/247/1 20/242/1
f 20/242/1 118/34/1 19/33/1
f 121/247/1 119/35/1 20/242/1
f 121/247/1 122/29/1 120/28/1
f 117/31/1 19/33/1 118/34/1
f 118/34/1 20/242/1 119/35/1
f 128/244/1 21/32/1 124/248/1
f 124/248/1 21/32/1 117/31/1
f 118/34/1 129/36/1 128/244/1
f 21/37/2 24/39/2 23/249/2
f 23/40/1 26/42/1 25/250/1
f 25/43/3 28/45/3 27/251/3
f 92/46/1 97/48/1 98/252/1
f 90/49/1 101/51/1 100/253/1
f 94/47/1 28/254/1 95/255/1
f 29/53/1 100/253/1 30/256/1
f 30/256/1 97/48/1 99/257/1
f 97/48/1 30/256/1 98/252/1
f 98/252/1 30/256/1 101/51/1
f 30/256/1 100/253/1 101/51/1
f 94/47/1 93/258/1 28/254/1
f 28/254/1 90/49/1 27/54/1
f 93/258/1 91/50/1 28/254/1
f 93/258/1 94/47/1 92/46/1
f 89/52/1 27/54/1 90/49/1
f 90/49/1 28/254/1 91/50/1
f 100/253/1 29/53/1 96/259/1
f 96/259/1 29/53/1 89/52/1
f 29/55/2 32/57/2 31/260/2
f 31/58/1 34/60/1 33/261/1
f 33/61/3 36/63/3 35/262/3
f 35/64/4 38/66/4 37/263/4
f 37/67/3 40/69/3 39/264/3
f 39/70/1 42/72/1 41/265/1
f 41/73/3 44/75/3 43/266/3
f 43/76/4 46/78/4 45/267/4
f 45/79/3 48/81/3 47/268/3
f 2/82/4 49/84/4 50/269/4
f 50/85/3 51/87/3 52/270/3
f 52/88/4 53/90/4 54/271/4
f 54/91/2 55/93/2 56/272/2
f 56/94/4 57/96/4 58/273/4
f 58/97/2 59/99/2 60/274/2
f 60/100/1 61/102/1 62/275/1
f 62/103/2 63/105/2 64/276/2
f 64/106/4 65/108/4 66/277/4
f 66/109/2 67/111/2 68/278/2
f 68/112/1 69/114/1 70/279/1
f 70/115/2 71/117/2 72/280/2
f 72/118/4 73/120/4 74/281/4
f 74/121/2 75/123/2 76/282/2
f 76/124/1 77/126/1 78/283/1
f 78/127/2 79/129/2 80/284/2
f 80/130/4 81/132/4 82/285/4
f 82/133/3 83/135/3 84/286/3
f 107/136/4 103/138/4 106/287/4
f 135/139/4 139/141/4 134/288/4
f 132/142/4 137/144/4 133/289/4
f 114/290/4 108/291/4 106/287/4
f 106/287/4 108/291/4 107/136/4
f 108/291/4 86/292/4 109/293/4
f 115/294/4 85/295/4 116/145/4
f 116/145/4 86/292/4 113/146/4
f 85/295/4 86/292/4 116/145/4
f 114/290/4 86/292/4 108/291/4
f 113/146/4 86/292/4 114/290/4
f 83/296/4 132/142/4 84/297/4
f 84/297/4 134/288/4 140/298/4
f 134/288/4 84/297/4 135/139/4
f 135/139/4 84/297/4 133/289/4
f 84/297/4 132/142/4 133/289/4
f 111/299/4 85/295/4 115/294/4
f 132/142/4 83/296/4 131/300/4
f 111/299/4 130/301/4 85/295/4
f 85/295/4 130/301/4 83/296/4
f 102/302/4 112/303/4 110/147/4
f 130/301/4 111/299/4 136/143/4
f 136/143/4 112/303/4 137/144/4
f 111/299/4 112/303/4 136/143/4
f 83/296/4 130/301/4 131/300/4
f 102/302/4 137/144/4 112/303/4
f 105/304/4 141/305/4 104/137/4
f 104/137/4 139/141/4 103/138/4
f 141/305/4 139/141/4 104/137/4
f 103/138/4 137/144/4 102/302/4
f 137/144/4 103/138/4 138/140/4
f 116/145/4 110/147/4 112/303/4
f 86/148/2 87/150/2 88/306/2
f 47/151/4 88/153/4 87/307/4
f 109/308/5 30/309/5 99/310/5
f 30/309/5 86/311/5 32/312/5
f 32/312/5 86/311/5 34/313/5
f 34/313/5 86/311/5 36/314/5
f 36/314/5 86/311/5 38/155/5
f 40/154/5 44/315/5 42/316/5
f 40/154/5 46/317/5 44/315/5
f 46/317/5 88/156/5 48/318/5
f 86/311/5 30/309/5 109/308/5
f 46/317/5 40/154/5 88/156/5
f 88/156/5 38/155/5 86/311/5
f 141/157/5 22/159/5 127/319/5
f 22/159/5 26/320/5 24/321/5
f 28/158/5 105/322/5 95/323/5
f 22/159/5 28/158/5 26/320/5
f 105/322/5 28/158/5 141/157/5
f 52/324/5 2/325/5 50/326/5
f 2/325/5 8/327/5 4/328/5
f 4/328/5 8/327/5 6/329/5
f 52/324/5 8/327/5 2/325/5
f 10/330/5 16/331/5 12/332/5
f 12/332/5 16/331/5 14/333/5
f 52/324/5 10/330/5 8/327/5
f 58/334/5 54/335/5 56/336/5
f 54/335/5 10/330/5 52/324/5
f 16/331/5 20/337/5 18/338/5
f 20/337/5 140/339/5 123/340/5
f 20/337/5 84/341/5 140/339/5
f 10/330/5 84/341/5 16/331/5
f 16/331/5 84/341/5 20/337/5
f 58/334/5 84/341/5 54/335/5
f 54/335/5 84/341/5 10/330/5
f 64/342/5 66/343/5 62/344/5
f 62/344/5 66/343/5 60/345/5
f 72/346/5 74/347/5 70/348/5
f 70/348/5 74/347/5 68/349/5
f 66/343/5 84/341/5 60/345/5
f 60/345/5 84/341/5 58/334/5
f 74/347/5 82/160/5 68/349/5
f 68/349/5 84/341/5 66/343/5
f 82/160/5 84/341/5 68/349/5
f 80/162/5 76/161/5 78/350/5
f 76/161/5 82/160/5 74/347/5
f 85/351/6 37/352/6 87/353/6
f 87/353/6 45/354/6 47/355/6
f 45/354/6 41/356/6 43/357/6
f 87/353/6 39/358/6 45/354/6
f 45/354/6 39/358/6 41/356/6
f 37/352/6 85/351/6 35/359/6
f 35/359/6 85/351/6 33/360/6
f 87/353/6 37/352/6 39/358/6
f 33/360/6 85/351/6 31/361/6
f 31/361/6 85/351/6 29/362/6
f 27/363/6 23/364/6 25/365/6
f 27/363/6 21/366/6 23/364/6
f 85/351/6 27/363/6 29/362/6
f 83/164/6 21/366/6 85/351/6
f 85/351/6 21/366/6 27/363/6
f 21/366/6 83/164/6 19/367/6
f 19/367/6 15/368/6 17/369/6
f 15/368/6 11/370/6 13/371/6
f 15/368/6 9/372/6 11/370/6
f 83/164/6 15/368/6 19/367/6
f 77/373/6 75/374/6 79/375/6
f 79/375/6 75/374/6 81/376/6
f 83/164/6 9/372/6 15/368/6
f 75/374/6 73/377/6 81/376/6
f 81/376/6 67/378/6 83/164/6
f 73/377/6 67/378/6 81/376/6
f 69/379/6 73/377/6 71/380/6
f 67/378/6 65/165/6 83/164/6
f 83/164/6 53/381/6 9/372/6
f 9/372/6 53/381/6 7/382/6
f 7/382/6 3/383/6 5/384/6
f 3/383/6 51/385/6 1/386/6
f 1/386/6 51/385/6 49/387/6
f 7/382/6 51/385/6 3/383/6
f 53/381/6 57/388/6 55/389/6
f 7/382/6 53/381/6 51/385/6
f 67/378/6 73/377/6 69/379/6
f 61/390/6 65/165/6 63/391/6
f 83/164/6 57/388/6 53/381/6
f 59/163/6 65/165/6 61/390/6
f 83/164/6 59/163/6 57/388/6
f 96/166/2 116/168/2 100/392/2
f 90/169/3 111/171/3 89/393/3
f 111/172/5 96/174/5 89/394/5
f 112/175/6 100/177/6 116/395/6
f 113/178/2 98/180/2 101/396/2
f 93/181/3 102/183/3 91/397/3
f 110/185/5 91/398/5 102/399/5
f 91/398/5 110/185/5 101/184/5
f 106/187/6 98/400/6 114/401/6
f 98/400/6 106/187/6 92/189/6
f 92/189/6 103/188/6 93/402/6
f 108/190/2 99/192/2 97/403/2
f 95/193/3 104/195/3 94/404/3
f 107/197/5 94/405/5 104/406/5
f 94/405/5 107/197/5 97/196/5
f 124/199/2 136/201/2 128/407/2
f 118/202/3 131/204/3 117/408/3
f 131/205/5 124/207/5 117/409/5
f 132/208/6 128/210/6 136/410/6
f 129/211/2 138/213/2 126/411/2
f 121/214/3 133/216/3 119/412/3
f 129/217/5 133/219/5 137/413/5
f 135/221/6 120/220/6 138/414/6
f 138/414/6 120/220/6 126/415/6
f 125/223/2 141/225/2 127/416/2
f 134/226/3 123/228/3 140/417/3
f 134/229/5 125/231/5 122/418/5
