# Blender v3.0.1 OBJ File: 'Main.blend'
# www.blender.org
o Cube.5395_0361
v -1.947001 0.459000 0.318000
v -1.896001 0.459000 -1.041000
v -1.947001 0.459000 -0.366000
v -1.896001 0.459000 0.318000
v -1.896001 0.459000 -0.366000
v -1.896001 0.459000 0.975000
v -1.905001 0.459000 -1.041000
v -1.905001 0.459000 0.975000
v -1.947001 0.480000 0.318000
v -1.896001 0.480000 -1.041000
v -1.947001 0.480000 -0.366000
v -1.896001 0.480000 0.318000
v -1.896001 0.480000 -0.366000
v -1.896001 0.480000 0.975000
v -1.905001 0.480000 -1.041000
v -1.905001 0.480000 0.975000
v -1.953001 0.459000 0.324000
v -1.902001 0.459000 -1.035000
v -1.953001 0.459000 -0.372000
v -1.902001 0.459000 0.324000
v -1.902001 0.459000 -0.372000
v -1.902001 0.459000 0.969000
v -1.905001 0.459000 -1.035000
v -1.905001 0.459000 0.969000
v -1.953001 0.480000 0.324000
v -1.902001 0.480000 -1.035000
v -1.953001 0.480000 -0.372000
v -1.902001 0.480000 0.324000
v -1.902001 0.480000 -0.372000
v -1.902001 0.480000 0.969000
v -1.905001 0.480000 -1.035000
v -1.905001 0.480000 0.969000
vt 0.983647 0.303101
vt 0.983647 0.303480
vt 0.983810 0.303480
vt 0.883084 0.066867
vt 0.883463 0.066867
vt 0.883463 0.054521
vt 0.274409 0.958459
vt 0.274031 0.958459
vt 0.274031 0.959379
vt 0.898924 0.184478
vt 0.898924 0.184857
vt 0.899087 0.184857
vt 0.554838 0.872709
vt 0.554460 0.872709
vt 0.554460 0.884566
vt 0.884211 0.238635
vt 0.883833 0.238635
vt 0.883833 0.250816
vt 0.923909 0.958438
vt 0.923531 0.958438
vt 0.923531 0.959358
vt 0.985818 0.710674
vt 0.985872 0.710674
vt 0.985872 0.710294
vt 0.612596 0.870588
vt 0.612596 0.883148
vt 0.612974 0.883148
vt 0.958984 0.456571
vt 0.958984 0.457491
vt 0.959362 0.457491
vt 0.966712 0.985825
vt 0.966767 0.985825
vt 0.966767 0.985445
vt 0.059727 0.884759
vt 0.059727 0.873120
vt 0.059348 0.873120
vt 0.883945 0.318158
vt 0.883945 0.330122
vt 0.884323 0.330122
vt 0.740085 0.959353
vt 0.740085 0.958433
vt 0.739706 0.958433
vt 0.837432 0.522146
vt 0.837324 0.522255
vt 0.837324 0.533894
vt 0.836411 0.275181
vt 0.836411 0.275073
vt 0.836358 0.275073
vt 0.837270 0.558525
vt 0.837432 0.558525
vt 0.837324 0.558417
vt 0.055467 0.985596
vt 0.055467 0.985217
vt 0.055360 0.985217
vt 0.836411 0.238803
vt 0.836249 0.238803
vt 0.836358 0.238911
vt 0.837270 0.522146
vt 0.837270 0.522255
vt 0.985071 0.102638
vt 0.985071 0.103018
vt 0.985179 0.103018
vt 0.837169 0.250658
vt 0.837278 0.250550
vt 0.836358 0.250550
vt 0.836512 0.534002
vt 0.837432 0.534002
vt 0.837169 0.263001
vt 0.836249 0.263001
vt 0.836358 0.263109
vt 0.836512 0.546345
vt 0.836403 0.546453
vt 0.837324 0.546453
vt 0.836249 0.275181
vt 0.837432 0.546345
vt 0.837278 0.263109
vt 0.836403 0.533894
vt 0.836249 0.250658
vt 0.983810 0.303101
vt 0.883084 0.054521
vt 0.274409 0.959379
vt 0.899087 0.184478
vt 0.554838 0.884566
vt 0.884211 0.250816
vt 0.923909 0.959358
vt 0.985818 0.710294
vt 0.612974 0.870588
vt 0.959362 0.456571
vt 0.966712 0.985445
vt 0.059348 0.884759
vt 0.884323 0.318158
vt 0.739706 0.959353
vt 0.837270 0.558417
vt 0.055360 0.985596
vt 0.836411 0.238911
vt 0.985179 0.102638
vn 0.0000 0.0000 -1.0000
vn 1.0000 0.0000 0.0000
vn 0.0000 0.0000 1.0000
vn -1.0000 0.0000 0.0000
vn 0.0000 -1.0000 0.0000
vn 0.0000 1.0000 0.0000
s off
f 10/1/1 2/2/1 7/3/1
f 9/4/2 1/5/2 3/6/2
f 11/7/3 3/8/3 5/9/3
f 16/10/3 8/11/3 6/12/3
f 14/13/2 6/14/2 4/15/2
f 13/16/2 5/17/2 2/18/2
f 12/19/1 4/20/1 1/21/1
f 23/22/3 18/23/3 26/24/3
f 19/25/4 17/26/4 25/27/4
f 21/28/1 19/29/1 27/30/1
f 22/31/1 24/32/1 32/33/1
f 20/34/4 22/35/4 30/36/4
f 18/37/4 21/38/4 29/39/4
f 17/40/3 20/41/3 28/42/3
f 6/43/5 22/44/5 20/45/5
f 15/46/6 31/47/6 26/48/6
f 7/49/5 2/50/5 18/51/5
f 8/52/4 16/53/4 32/54/4
f 16/55/6 14/56/6 30/57/6
f 8/58/5 24/59/5 22/44/5
f 15/60/4 7/61/4 23/62/4
f 9/63/6 25/64/6 28/65/6
f 1/66/5 4/67/5 20/45/5
f 11/68/6 13/69/6 29/70/6
f 3/71/5 19/72/5 21/73/5
f 13/69/6 10/74/6 26/48/6
f 2/50/5 5/75/5 21/73/5
f 9/63/6 11/68/6 27/76/6
f 3/71/5 1/66/5 17/77/5
f 14/56/6 12/78/6 28/65/6
f 10/1/1 7/3/1 15/79/1
f 9/4/2 3/6/2 11/80/2
f 11/7/3 5/9/3 13/81/3
f 16/10/3 6/12/3 14/82/3
f 14/13/2 4/15/2 12/83/2
f 13/16/2 2/18/2 10/84/2
f 12/19/1 1/21/1 9/85/1
f 23/22/3 26/24/3 31/86/3
f 19/25/4 25/27/4 27/87/4
f 21/28/1 27/30/1 29/88/1
f 22/31/1 32/33/1 30/89/1
f 20/34/4 30/36/4 28/90/4
f 18/37/4 29/39/4 26/91/4
f 17/40/3 28/42/3 25/92/3
f 6/43/5 20/45/5 4/67/5
f 15/46/6 26/48/6 10/74/6
f 7/49/5 18/51/5 23/93/5
f 8/52/4 32/54/4 24/94/4
f 16/55/6 30/57/6 32/95/6
f 8/58/5 22/44/5 6/43/5
f 15/60/4 23/62/4 31/96/4
f 9/63/6 28/65/6 12/78/6
f 1/66/5 20/45/5 17/77/5
f 11/68/6 29/70/6 27/76/6
f 3/71/5 21/73/5 5/75/5
f 13/69/6 26/48/6 29/70/6
f 2/50/5 21/73/5 18/51/5
f 9/63/6 27/76/6 25/64/6
f 3/71/5 17/77/5 19/72/5
f 14/56/6 28/65/6 30/57/6
