# Blender v3.0.1 OBJ File: 'Main.blend'
# www.blender.org
o Cube.3010_0036
v 0.187500 -0.129000 3.415500
v 0.187500 -0.129000 3.400500
v 0.202500 -0.129000 3.415500
v 0.202500 -0.129000 3.400500
v 0.187500 -0.009000 3.415500
v 0.187500 -0.009000 3.400500
v 0.202500 -0.009000 3.415500
v 0.202500 -0.009000 3.400500
vt 0.939104 0.408845
vt 0.939375 0.406679
vt 0.939375 0.408845
vt 0.956047 0.042490
vt 0.955776 0.042220
vt 0.956047 0.042220
vt 0.884381 0.611440
vt 0.884652 0.611170
vt 0.884652 0.611440
vt 0.939092 0.564265
vt 0.939363 0.562100
vt 0.939363 0.564265
vt 0.939273 0.918643
vt 0.939544 0.916478
vt 0.939544 0.918643
vt 0.939075 0.370757
vt 0.939346 0.368591
vt 0.939346 0.370757
vt 0.939104 0.406679
vt 0.955776 0.042490
vt 0.884381 0.611170
vt 0.939092 0.562100
vt 0.939273 0.916478
vt 0.939075 0.368591
vn 0.0000 0.0000 1.0000
vn 0.0000 -1.0000 0.0000
vn 0.0000 1.0000 0.0000
vn 0.0000 0.0000 -1.0000
vn 1.0000 0.0000 0.0000
vn -1.0000 0.0000 0.0000
s off
f 3/1/1 5/2/1 1/3/1
f 2/4/2 3/5/2 1/6/2
f 6/7/3 7/8/3 8/9/3
f 2/10/4 8/11/4 4/12/4
f 4/13/5 7/14/5 3/15/5
f 1/16/6 6/17/6 2/18/6
f 3/1/1 7/19/1 5/2/1
f 2/4/2 4/20/2 3/5/2
f 6/7/3 5/21/3 7/8/3
f 2/10/4 6/22/4 8/11/4
f 4/13/5 8/23/5 7/14/5
f 1/16/6 5/24/6 6/17/6
