# Blender v3.0.1 OBJ File: 'Main.blend'
# www.blender.org
o Cube.5445_0126
v -1.896004 0.000000 0.277500
v -1.858504 0.000000 0.277500
v -1.896004 0.045000 0.277500
v -1.858504 0.045000 0.277500
v -1.896004 0.000000 0.318000
v -1.896004 0.045000 0.318000
v -1.947004 0.000000 0.318000
v -1.947004 0.045000 0.318000
v -1.947004 0.000000 0.054000
v -1.947004 0.045000 0.054000
v -1.858500 0.000000 0.054000
v -1.858500 0.045000 0.054000
v -1.872000 0.000000 0.277500
v -1.872000 0.000000 0.054000
v -1.858504 -0.012000 0.277500
v -1.858500 -0.012000 0.054000
v -1.872000 -0.012000 0.277500
v -1.872000 -0.012000 0.054000
vt 0.926191 0.356254
vt 0.925948 0.357066
vt 0.926191 0.357066
vt 0.724932 0.049501
vt 0.725665 0.049501
vt 0.725665 0.048689
vt 0.903158 0.681305
vt 0.903158 0.680385
vt 0.902346 0.680385
vt 0.881638 0.906830
vt 0.881638 0.911595
vt 0.882450 0.911595
vt 0.244537 0.934443
vt 0.245349 0.935797
vt 0.245349 0.934200
vt 0.899890 0.610712
vt 0.899078 0.610712
vt 0.899078 0.614749
vt 0.347943 0.921533
vt 0.347943 0.925570
vt 0.348160 0.925570
vt 0.900081 0.420643
vt 0.899161 0.416606
vt 0.898484 0.420643
vt 0.623380 0.899922
vt 0.624300 0.900652
vt 0.624300 0.899922
vt 0.205917 0.921273
vt 0.205673 0.921273
vt 0.205673 0.925310
vt 0.925948 0.357282
vt 0.898861 0.610712
vt 0.244537 0.934200
vt 0.244320 0.934200
vt 0.925514 0.356254
vt 0.925514 0.357066
vt 0.724932 0.048689
vt 0.902346 0.681305
vt 0.882450 0.906830
vt 0.244537 0.935797
vt 0.899890 0.614749
vt 0.348160 0.921533
vt 0.898484 0.416606
vt 0.900081 0.415877
vt 0.899161 0.415877
vt 0.624733 0.904688
vt 0.624733 0.900652
vt 0.623380 0.904688
vt 0.205917 0.925310
vt 0.926191 0.357282
vt 0.898861 0.614749
vt 0.244320 0.934443
vn 0.0000 0.0000 1.0000
vn 1.0000 0.0000 0.0000
vn -1.0000 0.0000 0.0000
vn 0.0000 0.0000 -1.0000
vn 0.0000 1.0000 0.0000
vn 0.0000 -1.0000 0.0000
s off
f 4/1/1 13/2/1 2/3/1
f 5/4/2 1/5/2 3/6/2
f 7/7/1 5/8/1 6/9/1
f 9/10/3 7/11/3 8/12/3
f 14/13/4 10/14/4 12/15/4
f 4/16/2 2/17/2 11/18/2
f 13/19/3 14/20/3 18/21/3
f 10/22/5 3/23/5 12/24/5
f 7/25/6 1/26/6 5/27/6
f 15/28/6 17/29/6 18/30/6
f 2/3/1 13/2/1 17/31/1
f 11/18/2 2/17/2 15/32/2
f 14/13/4 11/33/4 16/34/4
f 13/2/1 3/35/1 1/36/1
f 3/35/1 13/2/1 4/1/1
f 5/4/2 3/6/2 6/37/2
f 7/7/1 6/9/1 8/38/1
f 9/10/3 8/12/3 10/39/3
f 10/14/4 14/13/4 9/40/4
f 14/13/4 12/15/4 11/33/4
f 4/16/2 11/18/2 12/41/2
f 13/19/3 18/21/3 17/42/3
f 12/24/5 3/23/5 4/43/5
f 3/23/5 8/44/5 6/45/5
f 8/44/5 3/23/5 10/22/5
f 1/26/6 14/46/6 13/47/6
f 14/46/6 1/26/6 9/48/6
f 9/48/6 1/26/6 7/25/6
f 15/28/6 18/30/6 16/49/6
f 2/3/1 17/31/1 15/50/1
f 11/18/2 15/32/2 16/51/2
f 14/13/4 16/34/4 18/52/4
