# Blender v3.0.1 OBJ File: 'Main.blend'
# www.blender.org
o Cube.5658_0049
v -1.250999 0.000000 -0.369000
v -1.250999 0.000000 -0.105000
v -1.310999 0.000000 -0.369000
v -1.310999 0.000000 -0.105000
v -1.250999 0.045000 -0.369000
v -1.250999 0.045000 -0.105000
v -1.310999 0.045000 -0.369000
v -1.310999 0.045000 -0.105000
vt 0.201678 0.903922
vt 0.200595 0.903922
vt 0.200595 0.908686
vt 0.907134 0.481789
vt 0.907134 0.486553
vt 0.908216 0.486553
vt 0.668298 0.161717
vt 0.667486 0.161717
vt 0.667486 0.162800
vt 0.825752 0.906908
vt 0.824940 0.906908
vt 0.824940 0.911672
vt 0.738144 0.303286
vt 0.737332 0.303286
vt 0.737332 0.304369
vt 0.646153 0.906857
vt 0.645341 0.906857
vt 0.645341 0.911621
vt 0.201678 0.908686
vt 0.908216 0.481789
vt 0.668298 0.162800
vt 0.825752 0.911672
vt 0.738144 0.304369
vt 0.646153 0.911621
vn 0.0000 -1.0000 0.0000
vn 0.0000 1.0000 0.0000
vn 0.0000 0.0000 1.0000
vn 1.0000 0.0000 0.0000
vn 0.0000 0.0000 -1.0000
vn -1.0000 0.0000 -0.0000
s off
f 2/1/1 4/2/1 3/3/1
f 6/4/2 5/5/2 7/6/2
f 8/7/3 4/8/3 2/9/3
f 6/10/4 2/11/4 1/12/4
f 5/13/5 1/14/5 3/15/5
f 7/16/6 3/17/6 4/18/6
f 2/1/1 3/3/1 1/19/1
f 6/4/2 7/6/2 8/20/2
f 8/7/3 2/9/3 6/21/3
f 6/10/4 1/12/4 5/22/4
f 5/13/5 3/15/5 7/23/5
f 7/16/6 4/18/6 8/24/6
