# Blender v3.0.1 OBJ File: 'Main.blend'
# www.blender.org
o Cube.4502_0134
v -0.273590 0.249650 -1.069500
v -0.242413 0.267650 -1.069500
v -0.273590 0.249650 -1.063500
v -0.242413 0.267650 -1.063500
v -0.272840 0.248351 -1.069500
v -0.241663 0.266351 -1.069500
v -0.272840 0.248351 -1.063500
v -0.241663 0.266351 -1.063500
vt 0.158496 0.982802
vt 0.158605 0.982153
vt 0.158605 0.982802
vt 0.921122 0.369845
vt 0.921013 0.369192
vt 0.921122 0.369192
vt 0.291389 0.996279
vt 0.291362 0.996171
vt 0.291389 0.996171
vt 0.773193 0.981164
vt 0.773220 0.981817
vt 0.773193 0.981817
vt 0.296432 0.996554
vt 0.296405 0.996445
vt 0.296432 0.996445
vt 0.983097 0.009509
vt 0.983124 0.010158
vt 0.983097 0.010158
vt 0.158496 0.982153
vt 0.921013 0.369845
vt 0.291362 0.996279
vt 0.773220 0.981164
vt 0.296405 0.996554
vt 0.983124 0.009509
vn -0.5000 0.8660 0.0000
vn 0.5000 -0.8660 0.0000
vn 0.8660 0.5000 0.0000
vn 0.0000 0.0000 1.0000
vn -0.8660 -0.5000 0.0000
vn -0.0000 0.0000 -1.0000
s off
f 3/1/1 2/2/1 1/3/1
f 6/4/2 7/5/2 5/6/2
f 4/7/3 6/8/3 2/9/3
f 3/10/4 8/11/4 4/12/4
f 1/13/5 7/14/5 3/15/5
f 2/16/6 5/17/6 1/18/6
f 3/1/1 4/19/1 2/2/1
f 6/4/2 8/20/2 7/5/2
f 4/7/3 8/21/3 6/8/3
f 3/10/4 7/22/4 8/11/4
f 1/13/5 5/23/5 7/14/5
f 2/16/6 6/24/6 5/17/6
