# Blender v3.0.1 OBJ File: 'Main.blend'
# www.blender.org
o Cube.5411_0298
v -0.450000 0.369000 3.372000
v -0.450000 0.369000 3.426000
v -0.354000 0.369000 3.372000
v -0.291000 0.369000 3.372000
v -0.291000 0.369000 3.426000
v -0.450000 0.369000 3.444000
v -0.354000 0.369000 3.444000
v -0.291000 0.369000 3.444000
v -0.354000 0.369000 3.537000
v -0.291000 0.369000 3.537000
v -0.450000 0.459000 3.426000
v -0.450000 0.459000 3.372000
v -0.354000 0.459000 3.372000
v -0.291000 0.459000 3.426000
v -0.291000 0.459000 3.372000
v -0.450000 0.459000 3.444000
v -0.354000 0.459000 3.444000
v -0.291000 0.459000 3.444000
v -0.354000 0.459000 3.537000
v -0.291000 0.459000 3.537000
v 0.003000 0.369000 3.426000
v 0.003000 0.369000 3.372000
v 0.003000 0.369000 3.444000
v 0.003000 0.369000 3.537000
v 0.003000 0.459000 3.426000
v 0.003000 0.459000 3.372000
v 0.003000 0.459000 3.444000
v 0.003000 0.459000 3.537000
vt 0.354214 0.866183
vt 0.352536 0.865049
vt 0.354214 0.865049
vt 0.335590 0.868675
vt 0.336564 0.869813
vt 0.335265 0.869813
vt 0.335265 0.868675
vt 0.335590 0.863374
vt 0.886703 0.003477
vt 0.887028 0.001853
vt 0.887028 0.003477
vt 0.824940 0.874751
vt 0.826563 0.875885
vt 0.824940 0.875885
vt 0.888001 0.001853
vt 0.888001 0.003477
vt 0.147702 0.890210
vt 0.149325 0.891348
vt 0.147702 0.891348
vt 0.838993 0.516716
vt 0.840616 0.518450
vt 0.838993 0.518450
vt 0.824940 0.873017
vt 0.826563 0.874751
vt 0.840577 0.232842
vt 0.842200 0.234520
vt 0.840577 0.234520
vt 0.333587 0.868675
vt 0.335265 0.863374
vt 0.149325 0.884902
vt 0.149325 0.890210
vt 0.886431 0.129850
vt 0.888054 0.131527
vt 0.886431 0.131527
vt 0.886431 0.129524
vt 0.888054 0.129850
vt 0.886431 0.128550
vt 0.888054 0.129524
vt 0.355513 0.866183
vt 0.354539 0.871491
vt 0.354539 0.866183
vt 0.352536 0.871491
vt 0.352536 0.866183
vt 0.354214 0.871491
vt 0.824940 0.881193
vt 0.336564 0.863374
vt 0.336564 0.868675
vt 0.354539 0.863315
vt 0.355513 0.863315
vt 0.355513 0.865049
vt 0.354214 0.863315
vt 0.336564 0.871547
vt 0.335590 0.871547
vt 0.335265 0.871547
vt 0.333587 0.869813
vt 0.886703 0.001853
vt 0.840616 0.516716
vt 0.826563 0.873017
vt 0.842200 0.232842
vt 0.333587 0.863374
vt 0.147702 0.884902
vt 0.888054 0.128550
vt 0.355513 0.871491
vt 0.826563 0.881193
vn 0.0000 -1.0000 0.0000
vn 0.0000 1.0000 0.0000
vn -1.0000 0.0000 0.0000
vn 0.0000 0.0000 -1.0000
vn 0.0000 0.0000 1.0000
vn 1.0000 0.0000 0.0000
s off
f 8/1/1 9/2/1 7/3/1
f 14/4/2 13/5/2 17/6/2
f 18/7/2 25/8/2 14/4/2
f 6/9/3 11/10/3 2/11/3
f 3/12/4 15/13/4 4/14/4
f 2/11/3 12/15/3 1/16/3
f 10/17/5 19/18/5 9/19/5
f 7/20/5 16/21/5 6/22/5
f 1/23/4 13/24/4 3/12/4
f 9/25/3 17/26/3 7/27/3
f 20/28/2 27/29/2 18/7/2
f 10/17/5 28/30/5 20/31/5
f 23/32/6 28/33/6 24/34/6
f 21/35/6 27/36/6 23/32/6
f 22/37/6 25/38/6 21/35/6
f 4/39/1 21/40/1 5/41/1
f 8/1/1 24/42/1 10/43/1
f 5/41/1 23/44/1 8/1/1
f 15/13/4 22/45/4 4/14/4
f 14/4/2 26/46/2 15/47/2
f 2/48/1 1/49/1 3/50/1
f 3/50/1 4/39/1 5/41/1
f 8/1/1 10/43/1 9/2/1
f 3/50/1 5/41/1 7/3/1
f 5/41/1 8/1/1 7/3/1
f 6/51/1 2/48/1 7/3/1
f 2/48/1 3/50/1 7/3/1
f 13/5/2 12/52/2 11/53/2
f 11/53/2 16/54/2 17/6/2
f 17/6/2 19/55/2 20/28/2
f 18/7/2 14/4/2 17/6/2
f 14/4/2 15/47/2 13/5/2
f 17/6/2 20/28/2 18/7/2
f 13/5/2 11/53/2 17/6/2
f 18/7/2 27/29/2 25/8/2
f 6/9/3 16/56/3 11/10/3
f 3/12/4 13/24/4 15/13/4
f 2/11/3 11/10/3 12/15/3
f 10/17/5 20/31/5 19/18/5
f 7/20/5 17/57/5 16/21/5
f 1/23/4 12/58/4 13/24/4
f 9/25/3 19/59/3 17/26/3
f 20/28/2 28/60/2 27/29/2
f 10/17/5 24/61/5 28/30/5
f 23/32/6 27/36/6 28/33/6
f 21/35/6 25/38/6 27/36/6
f 22/37/6 26/62/6 25/38/6
f 4/39/1 22/63/1 21/40/1
f 8/1/1 23/44/1 24/42/1
f 5/41/1 21/40/1 23/44/1
f 15/13/4 26/64/4 22/45/4
f 14/4/2 25/8/2 26/46/2
