# Blender v3.0.1 OBJ File: 'Main.blend'
# www.blender.org
o Cube.4634_0035
v -0.315500 -0.090000 -1.063500
v -0.315500 -0.090000 -1.069500
v -0.272500 -0.090000 -1.063500
v -0.272500 -0.090000 -1.069500
v -0.318500 -0.090000 -1.069500
v -0.318500 -0.090000 -1.063500
v -0.269500 -0.090000 -1.063500
v -0.269500 -0.090000 -1.069500
v -0.315500 -0.006000 -1.063500
v -0.315500 -0.006000 -1.069500
v -0.272500 -0.006000 -1.063500
v -0.272500 -0.006000 -1.069500
v -0.318500 -0.006000 -1.069500
v -0.318500 -0.006000 -1.063500
v -0.269500 -0.006000 -1.063500
v -0.269500 -0.006000 -1.069500
vt 0.994934 0.203712
vt 0.994989 0.203820
vt 0.994934 0.203820
vt 0.995264 0.700341
vt 0.995210 0.700232
vt 0.995264 0.700232
vt 0.995132 0.223408
vt 0.995186 0.223300
vt 0.995186 0.223408
vt 0.995012 0.771742
vt 0.994957 0.771850
vt 0.994957 0.771742
vt 0.954960 0.432514
vt 0.955068 0.434030
vt 0.954960 0.434030
vt 0.954886 0.415079
vt 0.954994 0.416595
vt 0.954886 0.416595
vt 0.957183 0.876331
vt 0.957238 0.877847
vt 0.957183 0.877847
vt 0.957179 0.316078
vt 0.957233 0.317594
vt 0.957179 0.317594
vt 0.954891 0.731780
vt 0.954999 0.733296
vt 0.954891 0.733296
vt 0.954957 0.817039
vt 0.955065 0.818555
vt 0.954957 0.818555
vt 0.957332 0.532610
vt 0.957386 0.534126
vt 0.957332 0.534126
vt 0.957334 0.258154
vt 0.957388 0.259670
vt 0.957334 0.259670
vt 0.994989 0.203712
vt 0.995210 0.700341
vt 0.995132 0.223300
vt 0.995012 0.771850
vt 0.955068 0.432514
vt 0.954994 0.415079
vt 0.957238 0.876331
vt 0.957233 0.316078
vt 0.954999 0.731780
vt 0.955065 0.817039
vt 0.957386 0.532610
vt 0.957388 0.258154
vn 0.0000 -1.0000 0.0000
vn 0.0000 1.0000 0.0000
vn 1.0000 0.0000 0.0000
vn -1.0000 0.0000 0.0000
vn 0.0000 0.0000 -1.0000
vn 0.0000 0.0000 1.0000
s off
f 1/1/1 5/2/1 2/3/1
f 4/4/1 7/5/1 3/6/1
f 13/7/2 9/8/2 10/9/2
f 15/10/2 12/11/2 11/12/2
f 16/13/3 7/14/3 8/15/3
f 11/16/4 4/17/4 3/18/4
f 12/19/5 8/20/5 4/21/5
f 9/22/6 6/23/6 1/24/6
f 14/25/4 5/26/4 6/27/4
f 10/28/3 1/29/3 2/30/3
f 15/31/6 3/32/6 7/33/6
f 13/34/5 2/35/5 5/36/5
f 1/1/1 6/37/1 5/2/1
f 4/4/1 8/38/1 7/5/1
f 13/7/2 14/39/2 9/8/2
f 15/10/2 16/40/2 12/11/2
f 16/13/3 15/41/3 7/14/3
f 11/16/4 12/42/4 4/17/4
f 12/19/5 16/43/5 8/20/5
f 9/22/6 14/44/6 6/23/6
f 14/25/4 13/45/4 5/26/4
f 10/28/3 9/46/3 1/29/3
f 15/31/6 11/47/6 3/32/6
f 13/34/5 10/48/5 2/35/5
