# Blender v3.0.1 OBJ File: 'Main.blend'
# www.blender.org
o Cube.5274_0327
v 1.447500 0.369000 -1.950000
v 1.447500 0.000000 -1.950000
v 1.465500 0.369000 -1.950000
v 1.465500 0.000000 -1.950000
v 1.465500 0.369000 -1.938000
v 1.465500 0.000000 -1.938000
v 1.608000 0.369000 -1.938000
v 1.608000 0.000000 -1.938000
v 1.608000 0.369000 -1.950000
v 1.608000 0.000000 -1.950000
v 1.695000 0.369000 -1.950000
v 1.695000 0.000000 -1.950000
v 1.695000 0.369000 -1.938000
v 1.695000 0.000000 -1.938000
v 1.902000 0.369000 -1.938000
v 1.902000 0.000000 -1.938000
v 1.902000 0.369000 -1.974000
v 1.902000 0.000000 -1.974000
v 1.893000 0.369000 -1.974000
v 1.893000 0.000000 -1.974000
v 1.893000 0.369000 -1.986000
v 1.893000 0.000000 -1.986000
v 1.875000 0.369000 -1.986000
v 1.875000 0.000000 -1.986000
v 1.875000 0.369000 -1.962000
v 1.875000 0.000000 -1.962000
v 1.447500 0.369000 -1.962000
v 1.447500 0.000000 -1.962000
vt 0.859069 0.907759
vt 0.858744 0.901100
vt 0.859069 0.901100
vt 0.910170 0.444194
vt 0.909948 0.437536
vt 0.910170 0.437536
vt 0.784985 0.878851
vt 0.782413 0.872192
vt 0.784985 0.872192
vt 0.909764 0.477955
vt 0.909543 0.471296
vt 0.909764 0.471296
vt 0.453649 0.890644
vt 0.452079 0.883985
vt 0.453649 0.883985
vt 0.909842 0.296865
vt 0.909620 0.290207
vt 0.909842 0.290207
vt 0.607764 0.870448
vt 0.604029 0.863789
vt 0.607764 0.863789
vt 0.306936 0.903334
vt 0.306287 0.896676
vt 0.306936 0.896676
vt 0.910804 0.210765
vt 0.910641 0.204107
vt 0.910804 0.204107
vt 0.910080 0.132692
vt 0.909858 0.126033
vt 0.910080 0.126033
vt 0.604354 0.908118
vt 0.604029 0.901460
vt 0.604354 0.901460
vt 0.736472 0.906578
vt 0.736036 0.899919
vt 0.736472 0.899919
vt 0.853060 0.068326
vt 0.846401 0.076040
vt 0.846401 0.068326
vt 0.909842 0.536626
vt 0.909620 0.543284
vt 0.909620 0.536626
vt 0.891094 0.254947
vt 0.891094 0.254784
vt 0.891743 0.254784
vt 0.306287 0.884777
vt 0.306936 0.884940
vt 0.306722 0.885265
vt 0.858744 0.907759
vt 0.909948 0.444194
vt 0.782413 0.878851
vt 0.909543 0.477955
vt 0.452079 0.890644
vt 0.909620 0.296865
vt 0.604029 0.870448
vt 0.306287 0.903334
vt 0.910641 0.210765
vt 0.909858 0.132692
vt 0.604029 0.908118
vt 0.736036 0.906578
vt 0.853060 0.076040
vt 0.909842 0.543284
vt 0.891521 0.262661
vt 0.891521 0.262986
vt 0.891307 0.262986
vt 0.891307 0.255272
vt 0.890872 0.255272
vt 0.890872 0.254947
vt 0.891521 0.260090
vt 0.891521 0.258520
vt 0.891743 0.260090
vt 0.891743 0.262661
vt 0.891743 0.258520
vt 0.306509 0.892654
vt 0.306287 0.892654
vt 0.306287 0.890083
vt 0.306509 0.890083
vt 0.306722 0.892979
vt 0.306509 0.892979
vt 0.307158 0.884940
vt 0.307158 0.885265
vt 0.306509 0.888513
vt 0.306287 0.888513
vt 0.306936 0.884777
vn 0.0000 0.0000 1.0000
vn -1.0000 0.0000 0.0000
vn 1.0000 0.0000 0.0000
vn 0.0000 0.0000 -1.0000
vn 0.0000 -1.0000 0.0000
vn 0.0000 1.0000 0.0000
s off
f 2/1/1 3/2/1 1/3/1
f 4/4/2 5/5/2 3/6/2
f 6/7/1 7/8/1 5/9/1
f 8/10/3 9/11/3 7/12/3
f 10/13/1 11/14/1 9/15/1
f 12/16/2 13/17/2 11/18/2
f 14/19/1 15/20/1 13/21/1
f 16/22/3 17/23/3 15/24/3
f 18/25/4 19/26/4 17/27/4
f 20/28/3 21/29/3 19/30/3
f 22/31/4 23/32/4 21/33/4
f 24/34/2 25/35/2 23/36/2
f 26/37/4 27/38/4 25/39/4
f 27/40/2 2/41/2 1/42/2
f 20/43/5 18/44/5 16/45/5
f 15/46/6 19/47/6 25/48/6
f 2/1/1 4/49/1 3/2/1
f 4/4/2 6/50/2 5/5/2
f 6/7/1 8/51/1 7/8/1
f 8/10/3 10/52/3 9/11/3
f 10/13/1 12/53/1 11/14/1
f 12/16/2 14/54/2 13/17/2
f 14/19/1 16/55/1 15/20/1
f 16/22/3 18/56/3 17/23/3
f 18/25/4 20/57/4 19/26/4
f 20/28/3 22/58/3 21/29/3
f 22/31/4 24/59/4 23/32/4
f 24/34/2 26/60/2 25/35/2
f 26/37/4 28/61/4 27/38/4
f 27/40/2 28/62/2 2/41/2
f 4/63/5 2/64/5 28/65/5
f 26/66/5 24/67/5 20/43/5
f 24/67/5 22/68/5 20/43/5
f 4/63/5 28/65/5 10/69/5
f 28/65/5 26/66/5 12/70/5
f 10/69/5 28/65/5 12/70/5
f 8/71/5 6/72/5 4/63/5
f 10/69/5 8/71/5 4/63/5
f 16/45/5 14/73/5 26/66/5
f 14/73/5 12/70/5 26/66/5
f 26/66/5 20/43/5 16/45/5
f 3/74/6 5/75/6 7/76/6
f 3/74/6 7/76/6 9/77/6
f 27/78/6 1/79/6 3/74/6
f 21/80/6 23/81/6 19/47/6
f 23/81/6 25/48/6 19/47/6
f 25/48/6 27/78/6 11/82/6
f 27/78/6 3/74/6 9/77/6
f 9/77/6 11/82/6 27/78/6
f 11/82/6 13/83/6 25/48/6
f 13/83/6 15/46/6 25/48/6
f 15/46/6 17/84/6 19/47/6
