# Blender v3.0.1 OBJ File: 'Main.blend'
# www.blender.org
o Cube.2647_0364
v 1.362000 -0.210000 1.029000
v 1.362000 -0.231000 1.029000
v 1.368000 -0.231000 1.029000
v 1.368000 -0.210000 1.029000
v 1.362001 -0.210000 0.747000
v 1.362001 -0.231000 0.747000
v 1.368001 -0.231000 0.747000
v 1.368001 -0.210000 0.747000
vt 0.829398 0.985568
vt 0.829505 0.985189
vt 0.829505 0.985568
vt 0.296425 0.984671
vt 0.296533 0.985050
vt 0.296425 0.985050
vt 0.914746 0.520842
vt 0.915125 0.515753
vt 0.915125 0.520842
vt 0.876026 0.045700
vt 0.875918 0.050789
vt 0.875918 0.045700
vt 0.322017 0.915857
vt 0.321908 0.920946
vt 0.321908 0.915857
vt 0.222247 0.910352
vt 0.221868 0.915440
vt 0.221868 0.910352
vt 0.829398 0.985189
vt 0.296533 0.984671
vt 0.914746 0.515753
vt 0.876026 0.050789
vt 0.322017 0.920946
vt 0.222247 0.915440
vn 0.0000 0.0000 1.0000
vn 0.0000 0.0000 -1.0000
vn 1.0000 0.0000 0.0000
vn 0.0000 -1.0000 0.0000
vn 0.0000 1.0000 -0.0000
vn -1.0000 0.0000 -0.0000
s off
f 3/1/1 1/2/1 2/3/1
f 5/4/2 7/5/2 6/6/2
f 3/7/3 8/8/3 4/9/3
f 2/10/4 7/11/4 3/12/4
f 4/13/5 5/14/5 1/15/5
f 1/16/6 6/17/6 2/18/6
f 3/1/1 4/19/1 1/2/1
f 5/4/2 8/20/2 7/5/2
f 3/7/3 7/21/3 8/8/3
f 2/10/4 6/22/4 7/11/4
f 4/13/5 8/23/5 5/14/5
f 1/16/6 5/24/6 6/17/6
