# Blender v3.0.1 OBJ File: 'Main.blend'
# www.blender.org
o Cube.4712_0299
v 1.437000 -0.123000 -1.059000
v 1.437000 0.477000 -1.059000
v 1.437000 -0.123000 -1.071000
v 1.437000 0.477000 -1.071000
v 1.215000 -0.123000 -1.071000
v 1.215000 0.477000 -1.071000
v 1.210500 0.477000 -1.059000
v 1.210500 -0.123000 -1.059000
v 1.264500 0.060000 -1.071000
v 1.264500 0.237000 -1.071000
v 1.269067 0.259961 -1.071000
v 1.265653 0.248705 -1.071000
v 1.282074 0.279426 -1.071000
v 1.301539 0.292433 -1.071000
v 1.291166 0.286888 -1.071000
v 1.312795 0.295847 -1.059000
v 1.312795 0.295847 -1.071000
v 1.274612 0.270334 -1.071000
v 1.324500 0.297000 -1.071000
v 1.336206 0.295847 -1.071000
v 1.347461 0.292433 -1.071000
v 1.366927 0.279426 -1.071000
v 1.379933 0.259961 -1.071000
v 1.374388 0.270334 -1.071000
v 1.384500 0.237000 -1.071000
v 1.384500 0.060000 -1.071000
v 1.383347 0.248705 -1.071000
v 1.357834 0.286888 -1.071000
v 1.301539 0.292433 -1.059000
v 1.264500 0.060000 -1.059000
v 1.291166 0.286888 -1.059000
v 1.282074 0.279426 -1.059000
v 1.274612 0.270334 -1.059000
v 1.264500 0.237000 -1.059000
v 1.269067 0.259961 -1.059000
v 1.265653 0.248705 -1.059000
v 1.336206 0.295847 -1.059000
v 1.366927 0.279426 -1.059000
v 1.357834 0.286888 -1.059000
v 1.347461 0.292433 -1.059000
v 1.379933 0.259961 -1.059000
v 1.384500 0.237000 -1.059000
v 1.384500 0.060000 -1.059000
v 1.383347 0.248705 -1.059000
v 1.374388 0.270334 -1.059000
v 1.324500 0.297000 -1.059000
v 1.264500 -0.090000 -1.071000
v 1.264500 -0.009000 -1.071000
v 1.384500 -0.009000 -1.071000
v 1.384500 -0.090000 -1.071000
v 1.264500 -0.090000 -1.059000
v 1.264500 -0.009000 -1.059000
v 1.384500 -0.009000 -1.059000
v 1.384500 -0.090000 -1.059000
v 1.185000 -0.123000 -1.071000
v 1.186500 -0.123000 -1.059000
v 1.185000 0.477000 -1.071000
v 1.186500 0.477000 -1.059000
v 1.215000 -0.123000 -1.077000
v 1.215000 0.477000 -1.077000
v 1.185000 -0.123000 -1.077000
v 1.185000 0.477000 -1.077000
vt 0.889339 0.091407
vt 0.889555 0.080664
vt 0.889555 0.091407
vt 0.831796 0.441131
vt 0.829978 0.444400
vt 0.829764 0.444379
vt 0.828680 0.448656
vt 0.830849 0.448656
vt 0.828680 0.449901
vt 0.827786 0.451958
vt 0.830849 0.451362
vt 0.831796 0.451958
vt 0.017498 0.857367
vt 0.017062 0.846541
vt 0.017498 0.846541
vt 0.925811 0.747929
vt 0.925599 0.751098
vt 0.925594 0.747929
vt 0.924800 0.039641
vt 0.925016 0.036473
vt 0.925016 0.039641
vt 0.442101 0.940541
vt 0.442317 0.938372
vt 0.442317 0.940541
vt 0.376549 0.953947
vt 0.376765 0.954153
vt 0.376549 0.954153
vt 0.376765 0.953756
vt 0.376765 0.953947
vt 0.376549 0.953588
vt 0.376765 0.953588
vt 0.924800 0.035519
vt 0.925016 0.035674
vt 0.924800 0.035674
vt 0.925016 0.035853
vt 0.924800 0.035853
vt 0.925016 0.036052
vt 0.924800 0.036052
vt 0.925016 0.036261
vt 0.924800 0.036261
vt 0.924800 0.036473
vt 0.376765 0.954367
vt 0.376765 0.954573
vt 0.376549 0.954367
vt 0.376765 0.954780
vt 0.376549 0.954573
vt 0.376765 0.954963
vt 0.376549 0.954780
vt 0.925815 0.747130
vt 0.925596 0.747310
vt 0.925599 0.747130
vt 0.925813 0.747310
vt 0.925595 0.747508
vt 0.925812 0.747508
vt 0.925594 0.747717
vt 0.925811 0.747717
vt 0.549803 0.951197
vt 0.549587 0.952647
vt 0.549587 0.951197
vt 0.560334 0.941351
vt 0.560118 0.939212
vt 0.560334 0.939212
vt 0.569342 0.952623
vt 0.569558 0.951173
vt 0.569558 0.952623
vt 0.106906 0.940525
vt 0.107122 0.938356
vt 0.107122 0.940525
vt 0.021584 0.846541
vt 0.020637 0.849842
vt 0.020637 0.848597
vt 0.018468 0.847136
vt 0.020637 0.847136
vt 0.051716 0.918403
vt 0.051500 0.922359
vt 0.051500 0.918326
vt 0.019338 0.854098
vt 0.019552 0.854119
vt 0.920058 0.734664
vt 0.919841 0.730654
vt 0.920058 0.730654
vt 0.590559 0.877487
vt 0.590776 0.888226
vt 0.590559 0.888229
vt 0.920166 0.735206
vt 0.920058 0.735206
vt 0.051716 0.917868
vt 0.919841 0.734748
vt 0.919841 0.735175
vt 0.397544 0.884429
vt 0.397001 0.873602
vt 0.397544 0.873602
vt 0.891019 0.065264
vt 0.890910 0.054521
vt 0.891019 0.054521
vt 0.590451 0.877487
vt 0.051825 0.918403
vt 0.889339 0.080664
vt 0.828680 0.445462
vt 0.827786 0.441131
vt 0.830849 0.445462
vt 0.828703 0.445251
vt 0.830826 0.445251
vt 0.830765 0.445047
vt 0.828764 0.445047
vt 0.828863 0.444860
vt 0.830666 0.444860
vt 0.830528 0.444696
vt 0.829001 0.444696
vt 0.829161 0.444562
vt 0.829352 0.444462
vt 0.830368 0.444562
vt 0.830177 0.444462
vt 0.829551 0.444400
vt 0.830849 0.449901
vt 0.828680 0.451362
vt 0.017062 0.857367
vt 0.925815 0.751098
vt 0.442101 0.938372
vt 0.376549 0.953756
vt 0.925016 0.035519
vt 0.376549 0.954963
vt 0.549803 0.952647
vt 0.560118 0.941351
vt 0.569342 0.951173
vt 0.106906 0.938356
vt 0.018468 0.848597
vt 0.020629 0.847134
vt 0.018468 0.849842
vt 0.021576 0.846539
vt 0.051716 0.922359
vt 0.020637 0.853036
vt 0.018468 0.853036
vt 0.021584 0.857367
vt 0.020614 0.853248
vt 0.018490 0.853248
vt 0.018552 0.853451
vt 0.020553 0.853451
vt 0.020453 0.853638
vt 0.018651 0.853638
vt 0.018788 0.853802
vt 0.020316 0.853802
vt 0.020155 0.853936
vt 0.019965 0.854037
vt 0.018949 0.853936
vt 0.019140 0.854037
vt 0.019766 0.854098
vt 0.590776 0.877484
vt 0.920166 0.734664
vt 0.051500 0.917898
vt 0.397001 0.884429
vt 0.890910 0.065264
vt 0.590451 0.888229
vt 0.051825 0.917868
vn 1.0000 0.0000 0.0000
vn -0.0000 0.0000 -1.0000
vn 0.0000 0.0000 1.0000
vn -1.0000 0.0000 0.0000
vn 0.0000 1.0000 0.0000
vn 0.0980 -0.9952 0.0000
vn 0.2903 -0.9569 0.0000
vn 0.4714 -0.8819 0.0000
vn 0.6344 -0.7730 0.0000
vn 0.7730 -0.6344 0.0000
vn 0.8819 -0.4714 0.0000
vn 0.9569 -0.2903 0.0000
vn 0.9952 -0.0980 0.0000
vn -0.0980 -0.9952 0.0000
vn -0.2903 -0.9569 0.0000
vn -0.4714 -0.8819 0.0000
vn -0.6344 -0.7730 0.0000
vn -0.7730 -0.6344 0.0000
vn -0.8819 -0.4714 0.0000
vn -0.9569 -0.2903 0.0000
vn -0.9952 -0.0980 0.0000
vn 0.0000 -1.0000 0.0000
vn -0.9923 0.0000 0.1240
vn -0.0001 0.0000 -1.0000
vn -0.5322 -0.8466 0.0000
s off
f 3/1/1 2/2/1 1/3/1
f 4/4/2 20/5/2 19/6/2
f 9/7/2 26/8/2 48/9/2
f 5/10/2 50/11/2 3/12/2
f 7/13/3 56/14/3 8/15/3
f 25/16/4 43/17/4 42/18/4
f 9/19/1 34/20/1 30/21/1
f 26/22/5 30/23/5 43/24/5
f 16/25/6 19/26/6 46/27/6
f 16/25/7 14/28/7 17/29/7
f 14/28/8 31/30/8 15/31/8
f 15/32/9 32/33/9 13/34/9
f 13/34/10 33/35/10 18/36/10
f 18/36/11 35/37/11 11/38/11
f 11/38/12 36/39/12 12/40/12
f 12/40/13 34/20/13 10/41/13
f 20/42/14 46/27/14 19/26/14
f 21/43/15 37/44/15 20/42/15
f 28/45/16 40/46/16 21/43/16
f 22/47/17 39/48/17 28/45/17
f 22/49/18 45/50/18 38/51/18
f 24/52/19 41/53/19 45/50/19
f 23/54/20 44/55/20 41/53/20
f 27/56/21 42/18/21 44/55/21
f 49/57/4 54/58/4 53/59/4
f 49/60/22 52/61/22 48/62/22
f 47/63/1 52/64/1 51/65/1
f 50/66/5 51/67/5 54/68/5
f 1/69/3 43/70/3 53/71/3
f 51/72/3 1/69/3 54/73/3
f 5/74/22 1/75/22 8/76/22
f 7/13/3 16/77/3 46/78/3
f 6/79/5 2/80/5 4/81/5
f 55/82/23 58/83/23 57/84/23
f 6/79/5 62/85/5 57/86/5
f 8/76/22 55/87/22 5/74/22
f 7/88/5 57/86/5 58/89/5
f 59/90/2 62/91/2 60/92/2
f 5/93/1 60/94/1 6/95/1
f 57/84/4 61/96/4 55/82/4
f 55/87/22 59/97/22 5/74/22
f 3/1/1 4/98/1 2/2/1
f 9/7/2 5/10/2 10/99/2
f 5/10/2 6/100/2 10/99/2
f 4/4/2 3/12/2 25/101/2
f 3/12/2 26/8/2 25/101/2
f 12/102/24 10/99/24 6/100/24
f 4/4/2 25/101/2 27/103/2
f 4/4/2 27/103/2 23/104/2
f 11/105/2 12/102/2 6/100/2
f 18/106/2 11/105/2 6/100/2
f 4/4/2 23/104/2 24/107/2
f 4/4/2 24/107/2 22/108/2
f 18/106/2 6/100/2 13/109/2
f 6/100/2 4/4/2 19/6/2
f 13/109/2 6/100/2 15/110/2
f 15/110/2 6/100/2 14/111/2
f 4/4/2 22/108/2 28/112/2
f 4/4/2 28/112/2 21/113/2
f 14/111/2 6/100/2 17/114/2
f 17/114/2 6/100/2 19/6/2
f 4/4/2 21/113/2 20/5/2
f 3/12/2 50/11/2 49/115/2
f 48/9/2 47/116/2 5/10/2
f 26/8/2 3/12/2 49/115/2
f 48/9/2 5/10/2 9/7/2
f 26/8/2 49/115/2 48/9/2
f 5/10/2 47/116/2 50/11/2
f 7/13/3 58/117/3 56/14/3
f 25/16/4 26/118/4 43/17/4
f 9/19/1 10/41/1 34/20/1
f 26/22/5 9/119/5 30/23/5
f 16/25/6 17/29/6 19/26/6
f 16/25/7 29/120/7 14/28/7
f 14/28/8 29/120/8 31/30/8
f 15/32/9 31/121/9 32/33/9
f 13/34/10 32/33/10 33/35/10
f 18/36/11 33/35/11 35/37/11
f 11/38/12 35/37/12 36/39/12
f 12/40/13 36/39/13 34/20/13
f 20/42/14 37/44/14 46/27/14
f 21/43/15 40/46/15 37/44/15
f 28/45/16 39/48/16 40/46/16
f 22/47/17 38/122/17 39/48/17
f 22/49/18 24/52/18 45/50/18
f 24/52/19 23/54/19 41/53/19
f 23/54/20 27/56/20 44/55/20
f 27/56/21 25/16/21 42/18/21
f 49/57/4 50/123/4 54/58/4
f 49/60/22 53/124/22 52/61/22
f 47/63/1 48/125/1 52/64/1
f 50/66/5 47/126/5 51/67/5
f 8/15/3 51/72/3 52/127/3
f 53/71/4 50/128/4 54/73/4
f 30/129/3 8/15/3 52/127/3
f 53/71/3 54/73/3 1/69/3
f 54/73/25 3/130/25 1/69/25
f 30/129/3 52/127/3 43/70/3
f 52/127/3 53/71/3 43/70/3
f 51/72/3 8/15/3 1/69/3
f 5/74/22 3/131/22 1/75/22
f 42/132/3 43/70/3 1/69/3
f 7/13/3 8/15/3 34/133/3
f 8/15/3 30/129/3 34/133/3
f 42/132/3 1/69/3 2/134/3
f 44/135/3 42/132/3 2/134/3
f 7/13/3 34/133/3 36/136/3
f 7/13/3 36/136/3 35/137/3
f 41/138/3 44/135/3 2/134/3
f 45/139/3 41/138/3 2/134/3
f 7/13/3 35/137/3 33/140/3
f 7/13/3 33/140/3 32/141/3
f 45/139/3 2/134/3 38/142/3
f 2/134/3 7/13/3 46/78/3
f 38/142/3 2/134/3 39/143/3
f 39/143/3 2/134/3 40/144/3
f 7/13/3 32/141/3 31/145/3
f 7/13/3 31/145/3 29/146/3
f 40/144/3 2/134/3 37/147/3
f 37/147/3 2/134/3 46/78/3
f 7/13/3 29/146/3 16/77/3
f 6/79/5 7/88/5 2/80/5
f 55/82/23 56/148/23 58/83/23
f 6/79/5 60/149/5 62/85/5
f 8/76/22 56/150/22 55/87/22
f 7/88/5 6/79/5 57/86/5
f 59/90/2 61/151/2 62/91/2
f 5/93/1 59/152/1 60/94/1
f 57/84/4 62/153/4 61/96/4
f 55/87/22 61/154/22 59/97/22
