# Blender v3.0.1 OBJ File: 'Main.blend'
# www.blender.org
o Cube.5440_0307
v -1.896001 0.045000 -1.041000
v -1.896001 -0.000000 -1.041000
v -1.858500 0.045000 -1.041000
v -1.858500 -0.000000 -1.041000
v -1.896001 -0.000000 -0.553500
v -1.896001 0.045000 -0.553500
v -1.858500 -0.000000 -0.553500
v -1.858500 0.045000 -0.553500
vt 0.343513 0.955354
vt 0.344190 0.955354
vt 0.344190 0.954542
vt 0.106580 0.954538
vt 0.106580 0.955350
vt 0.107257 0.955350
vt 0.325971 0.883594
vt 0.325971 0.892391
vt 0.326648 0.892391
vt 0.890083 0.667687
vt 0.890083 0.676484
vt 0.890895 0.676484
vt 0.321597 0.883594
vt 0.321597 0.892391
vt 0.322274 0.892391
vt 0.890957 0.513848
vt 0.890957 0.505052
vt 0.890145 0.505052
vt 0.343513 0.954542
vt 0.107257 0.954538
vt 0.326648 0.883594
vt 0.890895 0.667687
vt 0.322274 0.883594
vt 0.890145 0.513848
vn 0.0000 0.0000 -1.0000
vn 0.0000 0.0000 1.0000
vn 0.0000 1.0000 0.0000
vn 1.0000 0.0000 0.0000
vn 0.0000 -1.0000 0.0000
vn -1.0000 0.0000 0.0000
s off
f 4/1/1 2/2/1 1/3/1
f 6/4/2 5/5/2 7/6/2
f 8/7/3 3/8/3 1/9/3
f 7/10/4 4/11/4 3/12/4
f 5/13/5 2/14/5 4/15/5
f 6/16/6 1/17/6 2/18/6
f 4/1/1 1/3/1 3/19/1
f 6/4/2 7/6/2 8/20/2
f 8/7/3 1/9/3 6/21/3
f 7/10/4 3/12/4 8/22/4
f 5/13/5 4/15/5 7/23/5
f 6/16/6 2/18/6 5/24/6
