# Blender v3.0.1 OBJ File: 'Main.blend'
# www.blender.org
o Cube.5690_0100
v -0.932998 -0.117930 0.060000
v -0.932998 -0.117930 -0.111000
v -0.926998 -0.117930 0.060000
v -0.926998 -0.117930 -0.111000
v -0.932998 -0.120480 0.060000
v -0.932998 -0.120480 -0.111000
v -0.926998 -0.120480 0.060000
v -0.926998 -0.120480 -0.111000
vt 0.934295 0.317594
vt 0.934403 0.314508
vt 0.934403 0.317594
vt 0.934228 0.586742
vt 0.934336 0.589828
vt 0.934228 0.589828
vt 0.995631 0.330677
vt 0.995585 0.330569
vt 0.995631 0.330569
vt 0.935294 0.640292
vt 0.935248 0.637206
vt 0.935294 0.637206
vt 0.995622 0.185251
vt 0.995576 0.185143
vt 0.995622 0.185143
vt 0.935300 0.217168
vt 0.935254 0.214082
vt 0.935300 0.214082
vt 0.934295 0.314508
vt 0.934336 0.586742
vt 0.995585 0.330677
vt 0.935248 0.640292
vt 0.995576 0.185251
vt 0.935254 0.217168
vn 0.0000 1.0000 0.0000
vn 0.0000 -1.0000 0.0000
vn 0.0000 0.0000 1.0000
vn 1.0000 0.0000 0.0000
vn 0.0000 0.0000 -1.0000
vn -1.0000 0.0000 0.0000
s off
f 3/1/1 2/2/1 1/3/1
f 6/4/2 7/5/2 5/6/2
f 1/7/3 7/8/3 3/9/3
f 3/10/4 8/11/4 4/12/4
f 4/13/5 6/14/5 2/15/5
f 2/16/6 5/17/6 1/18/6
f 3/1/1 4/19/1 2/2/1
f 6/4/2 8/20/2 7/5/2
f 1/7/3 5/21/3 7/8/3
f 3/10/4 7/22/4 8/11/4
f 4/13/5 8/23/5 6/14/5
f 2/16/6 6/24/6 5/17/6
