# Blender v3.0.1 OBJ File: 'Main.blend'
# www.blender.org
o Cube.2671_Cube.062
v -0.025500 0.081000 0.162750
v -0.025500 0.081000 0.156750
v -0.025500 0.079500 0.156750
v 0.027000 0.081000 0.162750
v 0.027000 0.081000 0.156750
v 0.027000 0.079500 0.156750
v 0.027000 0.079500 0.162750
v -0.025500 0.079500 0.162750
v -0.025500 0.076725 0.156539
v -0.025500 0.076725 0.150540
v -0.025500 0.075225 0.150540
v 0.027000 0.076725 0.156539
v 0.027000 0.076725 0.150540
v 0.027000 0.075225 0.150540
v 0.027000 0.075225 0.156539
v -0.025500 0.075225 0.156539
v -0.025500 0.072450 0.150330
v -0.025500 0.072450 0.144330
v -0.025500 0.070950 0.144330
v 0.027000 0.072450 0.150330
v 0.027000 0.072450 0.144330
v 0.027000 0.070950 0.144330
v 0.027000 0.070950 0.150330
v -0.025500 0.070950 0.150330
v -0.025500 0.068175 0.144120
v -0.025500 0.068175 0.138119
v -0.025500 0.066675 0.138119
v 0.027000 0.068175 0.144120
v 0.027000 0.068175 0.138119
v 0.027000 0.066675 0.138119
v 0.027000 0.066675 0.144120
v -0.025500 0.066675 0.144120
v -0.025500 0.063900 0.137909
v -0.025500 0.063900 0.131910
v -0.025500 0.062400 0.131910
v 0.027000 0.063900 0.137909
v 0.027000 0.063900 0.131910
v 0.027000 0.062400 0.131910
v 0.027000 0.062400 0.137909
v -0.025500 0.062400 0.137909
v -0.025500 0.059625 0.131699
v -0.025500 0.059625 0.125700
v -0.025500 0.058125 0.125700
v 0.027000 0.059625 0.131699
v 0.027000 0.059625 0.125700
v 0.027000 0.058125 0.125700
v 0.027000 0.058125 0.131699
v -0.025500 0.058125 0.131699
v -0.025500 0.055350 0.125490
v -0.025500 0.055350 0.119490
v -0.025500 0.053850 0.119490
v 0.027000 0.055350 0.125490
v 0.027000 0.055350 0.119490
v 0.027000 0.053850 0.119490
v 0.027000 0.053850 0.125490
v -0.025500 0.053850 0.125490
v -0.025500 0.051075 0.119280
v -0.025500 0.051075 0.113280
v -0.025500 0.049575 0.113280
v 0.027000 0.051075 0.119280
v 0.027000 0.051075 0.113280
v 0.027000 0.049575 0.113280
v 0.027000 0.049575 0.119280
v -0.025500 0.049575 0.119280
v -0.025500 0.046800 0.113070
v -0.025500 0.046800 0.107070
v -0.025500 0.045300 0.107070
v 0.027000 0.046800 0.113070
v 0.027000 0.046800 0.107070
v 0.027000 0.045300 0.107070
v 0.027000 0.045300 0.113070
v -0.025500 0.045300 0.113070
v -0.025500 0.042525 0.106859
v -0.025500 0.042525 0.100860
v -0.025500 0.041025 0.100860
v 0.027000 0.042525 0.106859
v 0.027000 0.042525 0.100860
v 0.027000 0.041025 0.100860
v 0.027000 0.041025 0.106859
v -0.025500 0.041025 0.106859
v -0.025500 0.038250 0.100650
v -0.025500 0.038250 0.094650
v -0.025500 0.036750 0.094650
v 0.027000 0.038250 0.100650
v 0.027000 0.038250 0.094650
v 0.027000 0.036750 0.094650
v 0.027000 0.036750 0.100650
v -0.025500 0.036750 0.100650
v -0.025500 0.033975 0.094440
v -0.025500 0.033975 0.088440
v -0.025500 0.032475 0.088440
v 0.027000 0.033975 0.094440
v 0.027000 0.033975 0.088440
v 0.027000 0.032475 0.088440
v 0.027000 0.032475 0.094440
v -0.025500 0.032475 0.094440
v -0.025500 0.029700 0.088229
v -0.025500 0.029700 0.082230
v -0.025500 0.028200 0.082230
v 0.027000 0.029700 0.088229
v 0.027000 0.029700 0.082230
v 0.027000 0.028200 0.082230
v 0.027000 0.028200 0.088229
v -0.025500 0.028200 0.088229
v -0.025500 0.025425 0.082020
v -0.025500 0.025425 0.076020
v -0.025500 0.023925 0.076020
v 0.027000 0.025425 0.082020
v 0.027000 0.025425 0.076020
v 0.027000 0.023925 0.076020
v 0.027000 0.023925 0.082020
v -0.025500 0.023925 0.082020
v -0.025500 0.021150 0.075809
v -0.025500 0.021150 0.069809
v -0.025500 0.019650 0.069809
v 0.027000 0.021150 0.075809
v 0.027000 0.021150 0.069809
v 0.027000 0.019650 0.069809
v 0.027000 0.019650 0.075809
v -0.025500 0.019650 0.075809
v -0.025500 0.016875 0.069599
v -0.025500 0.016875 0.063600
v -0.025500 0.015375 0.063600
v 0.027000 0.016875 0.069599
v 0.027000 0.016875 0.063600
v 0.027000 0.015375 0.063600
v 0.027000 0.015375 0.069599
v -0.025500 0.015375 0.069599
v -0.025500 0.012600 0.063390
v -0.025500 0.012600 0.057390
v -0.025500 0.011100 0.057390
v 0.027000 0.012600 0.063390
v 0.027000 0.012600 0.057390
v 0.027000 0.011100 0.057390
v 0.027000 0.011100 0.063390
v -0.025500 0.011100 0.063390
v -0.025500 0.008325 0.057180
v -0.025500 0.008325 0.051180
v -0.025500 0.006825 0.051180
v 0.027000 0.008325 0.057180
v 0.027000 0.008325 0.051180
v 0.027000 0.006825 0.051180
v 0.027000 0.006825 0.057180
v -0.025500 0.006825 0.057180
v -0.025500 0.004050 0.050970
v -0.025500 0.004050 0.044970
v -0.025500 0.002550 0.044970
v 0.027000 0.004050 0.050970
v 0.027000 0.004050 0.044970
v 0.027000 0.002550 0.044970
v 0.027000 0.002550 0.050970
v -0.025500 0.002550 0.050970
vt 0.000000 0.000000
vt 0.000000 0.000000
vt 0.000000 0.000000
vt 0.000000 0.000000
vt 0.000000 0.000000
vt 0.000000 0.000000
vt 0.000000 0.000000
vt 0.000000 0.000000
vt 0.000000 0.000000
vt 0.000000 0.000000
vt 0.000000 0.000000
vt 0.000000 0.000000
vt 0.000000 0.000000
vt 0.000000 0.000000
vt 0.000000 0.000000
vt 0.000000 0.000000
vt 0.000000 0.000000
vt 0.000000 0.000000
vt 0.000000 0.000000
vt 0.000000 0.000000
vt 0.000000 0.000000
vt 0.000000 0.000000
vt 0.000000 0.000000
vt 0.000000 0.000000
vt 0.000000 0.000000
vt 0.000000 0.000000
vt 0.000000 0.000000
vt 0.000000 0.000000
vt 0.000000 0.000000
vt 0.000000 0.000000
vt 0.000000 0.000000
vt 0.000000 0.000000
vt 0.000000 0.000000
vt 0.000000 0.000000
vt 0.000000 0.000000
vt 0.000000 0.000000
vt 0.000000 0.000000
vt 0.000000 0.000000
vt 0.000000 0.000000
vt 0.000000 0.000000
vt 0.000000 0.000000
vt 0.000000 0.000000
vt 0.000000 0.000000
vt 0.000000 0.000000
vt 0.000000 0.000000
vt 0.000000 0.000000
vt 0.000000 0.000000
vt 0.000000 0.000000
vt 0.000000 0.000000
vt 0.000000 0.000000
vt 0.000000 0.000000
vt 0.000000 0.000000
vt 0.000000 0.000000
vt 0.000000 0.000000
vt 0.000000 0.000000
vt 0.000000 0.000000
vt 0.000000 0.000000
vt 0.000000 0.000000
vt 0.000000 0.000000
vt 0.000000 0.000000
vt 0.000000 0.000000
vt 0.000000 0.000000
vt 0.000000 0.000000
vt 0.000000 0.000000
vt 0.000000 0.000000
vt 0.000000 0.000000
vt 0.000000 0.000000
vt 0.000000 0.000000
vt 0.000000 0.000000
vt 0.000000 0.000000
vt 0.000000 0.000000
vt 0.000000 0.000000
vt 0.000000 0.000000
vt 0.000000 0.000000
vt 0.000000 0.000000
vt 0.000000 0.000000
vt 0.000000 0.000000
vt 0.000000 0.000000
vt 0.000000 0.000000
vt 0.000000 0.000000
vt 0.000000 0.000000
vt 0.000000 0.000000
vt 0.000000 0.000000
vt 0.000000 0.000000
vt 0.000000 0.000000
vt 0.000000 0.000000
vt 0.000000 0.000000
vt 0.000000 0.000000
vt 0.000000 0.000000
vt 0.000000 0.000000
vt 0.000000 0.000000
vt 0.000000 0.000000
vt 0.000000 0.000000
vt 0.000000 0.000000
vt 0.000000 0.000000
vt 0.000000 0.000000
vt 0.000000 0.000000
vt 0.000000 0.000000
vt 0.000000 0.000000
vt 0.000000 0.000000
vt 0.000000 0.000000
vt 0.000000 0.000000
vt 0.000000 0.000000
vt 0.000000 0.000000
vt 0.000000 0.000000
vt 0.000000 0.000000
vt 0.000000 0.000000
vt 0.000000 0.000000
vt 0.000000 0.000000
vt 0.000000 0.000000
vt 0.000000 0.000000
vt 0.000000 0.000000
vt 0.000000 0.000000
vt 0.000000 0.000000
vt 0.000000 0.000000
vt 0.000000 0.000000
vt 0.000000 0.000000
vt 0.000000 0.000000
vt 0.000000 0.000000
vt 0.000000 0.000000
vt 0.000000 0.000000
vt 0.000000 0.000000
vt 0.000000 0.000000
vt 0.000000 0.000000
vt 0.000000 0.000000
vt 0.000000 0.000000
vt 0.000000 0.000000
vt 0.000000 0.000000
vt 0.000000 0.000000
vt 0.000000 0.000000
vt 0.000000 0.000000
vt 0.000000 0.000000
vt 0.000000 0.000000
vt 0.000000 0.000000
vt 0.000000 0.000000
vt 0.000000 0.000000
vt 0.000000 0.000000
vt 0.000000 0.000000
vt 0.000000 0.000000
vt 0.000000 0.000000
vt 0.000000 0.000000
vt 0.000000 0.000000
vt 0.000000 0.000000
vt 0.000000 0.000000
vt 0.000000 0.000000
vt 0.000000 0.000000
vt 0.000000 0.000000
vt 0.000000 0.000000
vt 0.000000 0.000000
vt 0.000000 0.000000
vt 0.000000 0.000000
vt 0.000000 0.000000
vn 0.0000 1.0000 0.0000
vn 0.0000 0.0000 -1.0000
vn -1.0000 0.0000 0.0000
vn 1.0000 0.0000 0.0000
vn 0.0000 -1.0000 0.0000
vn 0.0000 0.0000 1.0000
s off
f 5/1/1 1/2/1 4/3/1
f 6/4/2 2/5/2 5/1/2
f 2/5/3 8/6/3 1/2/3
f 7/7/4 5/1/4 4/3/4
f 3/8/5 7/7/5 8/6/5
f 1/2/6 7/7/6 4/3/6
f 13/9/1 9/10/1 12/11/1
f 14/12/2 10/13/2 13/9/2
f 10/13/3 16/14/3 9/10/3
f 15/15/4 13/9/4 12/11/4
f 11/16/5 15/15/5 16/14/5
f 9/10/6 15/15/6 12/11/6
f 21/17/1 17/18/1 20/19/1
f 22/20/2 18/21/2 21/17/2
f 18/21/3 24/22/3 17/18/3
f 23/23/4 21/17/4 20/19/4
f 19/24/5 23/23/5 24/22/5
f 17/18/6 23/23/6 20/19/6
f 29/25/1 25/26/1 28/27/1
f 30/28/2 26/29/2 29/25/2
f 26/29/3 32/30/3 25/26/3
f 31/31/4 29/25/4 28/27/4
f 27/32/5 31/31/5 32/30/5
f 25/26/6 31/31/6 28/27/6
f 37/33/1 33/34/1 36/35/1
f 38/36/2 34/37/2 37/33/2
f 34/37/3 40/38/3 33/34/3
f 39/39/4 37/33/4 36/35/4
f 35/40/5 39/39/5 40/38/5
f 33/34/6 39/39/6 36/35/6
f 45/41/1 41/42/1 44/43/1
f 46/44/2 42/45/2 45/41/2
f 42/45/3 48/46/3 41/42/3
f 47/47/4 45/41/4 44/43/4
f 43/48/5 47/47/5 48/46/5
f 41/42/6 47/47/6 44/43/6
f 53/49/1 49/50/1 52/51/1
f 54/52/2 50/53/2 53/49/2
f 50/53/3 56/54/3 49/50/3
f 55/55/4 53/49/4 52/51/4
f 51/56/5 55/55/5 56/54/5
f 49/50/6 55/55/6 52/51/6
f 61/57/1 57/58/1 60/59/1
f 62/60/2 58/61/2 61/57/2
f 58/61/3 64/62/3 57/58/3
f 63/63/4 61/57/4 60/59/4
f 59/64/5 63/63/5 64/62/5
f 57/58/6 63/63/6 60/59/6
f 69/65/1 65/66/1 68/67/1
f 70/68/2 66/69/2 69/65/2
f 66/69/3 72/70/3 65/66/3
f 71/71/4 69/65/4 68/67/4
f 67/72/5 71/71/5 72/70/5
f 65/66/6 71/71/6 68/67/6
f 77/73/1 73/74/1 76/75/1
f 78/76/2 74/77/2 77/73/2
f 74/77/3 80/78/3 73/74/3
f 79/79/4 77/73/4 76/75/4
f 75/80/5 79/79/5 80/78/5
f 73/74/6 79/79/6 76/75/6
f 85/81/1 81/82/1 84/83/1
f 86/84/2 82/85/2 85/81/2
f 82/85/3 88/86/3 81/82/3
f 87/87/4 85/81/4 84/83/4
f 83/88/5 87/87/5 88/86/5
f 81/82/6 87/87/6 84/83/6
f 93/89/1 89/90/1 92/91/1
f 94/92/2 90/93/2 93/89/2
f 90/93/3 96/94/3 89/90/3
f 95/95/4 93/89/4 92/91/4
f 91/96/5 95/95/5 96/94/5
f 89/90/6 95/95/6 92/91/6
f 101/97/1 97/98/1 100/99/1
f 102/100/2 98/101/2 101/97/2
f 98/101/3 104/102/3 97/98/3
f 103/103/4 101/97/4 100/99/4
f 99/104/5 103/103/5 104/102/5
f 97/98/6 103/103/6 100/99/6
f 109/105/1 105/106/1 108/107/1
f 110/108/2 106/109/2 109/105/2
f 106/109/3 112/110/3 105/106/3
f 111/111/4 109/105/4 108/107/4
f 107/112/5 111/111/5 112/110/5
f 105/106/6 111/111/6 108/107/6
f 117/113/1 113/114/1 116/115/1
f 118/116/2 114/117/2 117/113/2
f 114/117/3 120/118/3 113/114/3
f 119/119/4 117/113/4 116/115/4
f 115/120/5 119/119/5 120/118/5
f 113/114/6 119/119/6 116/115/6
f 125/121/1 121/122/1 124/123/1
f 126/124/2 122/125/2 125/121/2
f 122/125/3 128/126/3 121/122/3
f 127/127/4 125/121/4 124/123/4
f 123/128/5 127/127/5 128/126/5
f 121/122/6 127/127/6 124/123/6
f 133/129/1 129/130/1 132/131/1
f 134/132/2 130/133/2 133/129/2
f 130/133/3 136/134/3 129/130/3
f 135/135/4 133/129/4 132/131/4
f 131/136/5 135/135/5 136/134/5
f 129/130/6 135/135/6 132/131/6
f 141/137/1 137/138/1 140/139/1
f 142/140/2 138/141/2 141/137/2
f 138/141/3 144/142/3 137/138/3
f 143/143/4 141/137/4 140/139/4
f 139/144/5 143/143/5 144/142/5
f 137/138/6 143/143/6 140/139/6
f 149/145/1 145/146/1 148/147/1
f 150/148/2 146/149/2 149/145/2
f 146/149/3 152/150/3 145/146/3
f 151/151/4 149/145/4 148/147/4
f 147/152/5 151/151/5 152/150/5
f 145/146/6 151/151/6 148/147/6
f 5/1/1 2/5/1 1/2/1
f 6/4/2 3/8/2 2/5/2
f 2/5/3 3/8/3 8/6/3
f 7/7/4 6/4/4 5/1/4
f 3/8/5 6/4/5 7/7/5
f 1/2/6 8/6/6 7/7/6
f 13/9/1 10/13/1 9/10/1
f 14/12/2 11/16/2 10/13/2
f 10/13/3 11/16/3 16/14/3
f 15/15/4 14/12/4 13/9/4
f 11/16/5 14/12/5 15/15/5
f 9/10/6 16/14/6 15/15/6
f 21/17/1 18/21/1 17/18/1
f 22/20/2 19/24/2 18/21/2
f 18/21/3 19/24/3 24/22/3
f 23/23/4 22/20/4 21/17/4
f 19/24/5 22/20/5 23/23/5
f 17/18/6 24/22/6 23/23/6
f 29/25/1 26/29/1 25/26/1
f 30/28/2 27/32/2 26/29/2
f 26/29/3 27/32/3 32/30/3
f 31/31/4 30/28/4 29/25/4
f 27/32/5 30/28/5 31/31/5
f 25/26/6 32/30/6 31/31/6
f 37/33/1 34/37/1 33/34/1
f 38/36/2 35/40/2 34/37/2
f 34/37/3 35/40/3 40/38/3
f 39/39/4 38/36/4 37/33/4
f 35/40/5 38/36/5 39/39/5
f 33/34/6 40/38/6 39/39/6
f 45/41/1 42/45/1 41/42/1
f 46/44/2 43/48/2 42/45/2
f 42/45/3 43/48/3 48/46/3
f 47/47/4 46/44/4 45/41/4
f 43/48/5 46/44/5 47/47/5
f 41/42/6 48/46/6 47/47/6
f 53/49/1 50/53/1 49/50/1
f 54/52/2 51/56/2 50/53/2
f 50/53/3 51/56/3 56/54/3
f 55/55/4 54/52/4 53/49/4
f 51/56/5 54/52/5 55/55/5
f 49/50/6 56/54/6 55/55/6
f 61/57/1 58/61/1 57/58/1
f 62/60/2 59/64/2 58/61/2
f 58/61/3 59/64/3 64/62/3
f 63/63/4 62/60/4 61/57/4
f 59/64/5 62/60/5 63/63/5
f 57/58/6 64/62/6 63/63/6
f 69/65/1 66/69/1 65/66/1
f 70/68/2 67/72/2 66/69/2
f 66/69/3 67/72/3 72/70/3
f 71/71/4 70/68/4 69/65/4
f 67/72/5 70/68/5 71/71/5
f 65/66/6 72/70/6 71/71/6
f 77/73/1 74/77/1 73/74/1
f 78/76/2 75/80/2 74/77/2
f 74/77/3 75/80/3 80/78/3
f 79/79/4 78/76/4 77/73/4
f 75/80/5 78/76/5 79/79/5
f 73/74/6 80/78/6 79/79/6
f 85/81/1 82/85/1 81/82/1
f 86/84/2 83/88/2 82/85/2
f 82/85/3 83/88/3 88/86/3
f 87/87/4 86/84/4 85/81/4
f 83/88/5 86/84/5 87/87/5
f 81/82/6 88/86/6 87/87/6
f 93/89/1 90/93/1 89/90/1
f 94/92/2 91/96/2 90/93/2
f 90/93/3 91/96/3 96/94/3
f 95/95/4 94/92/4 93/89/4
f 91/96/5 94/92/5 95/95/5
f 89/90/6 96/94/6 95/95/6
f 101/97/1 98/101/1 97/98/1
f 102/100/2 99/104/2 98/101/2
f 98/101/3 99/104/3 104/102/3
f 103/103/4 102/100/4 101/97/4
f 99/104/5 102/100/5 103/103/5
f 97/98/6 104/102/6 103/103/6
f 109/105/1 106/109/1 105/106/1
f 110/108/2 107/112/2 106/109/2
f 106/109/3 107/112/3 112/110/3
f 111/111/4 110/108/4 109/105/4
f 107/112/5 110/108/5 111/111/5
f 105/106/6 112/110/6 111/111/6
f 117/113/1 114/117/1 113/114/1
f 118/116/2 115/120/2 114/117/2
f 114/117/3 115/120/3 120/118/3
f 119/119/4 118/116/4 117/113/4
f 115/120/5 118/116/5 119/119/5
f 113/114/6 120/118/6 119/119/6
f 125/121/1 122/125/1 121/122/1
f 126/124/2 123/128/2 122/125/2
f 122/125/3 123/128/3 128/126/3
f 127/127/4 126/124/4 125/121/4
f 123/128/5 126/124/5 127/127/5
f 121/122/6 128/126/6 127/127/6
f 133/129/1 130/133/1 129/130/1
f 134/132/2 131/136/2 130/133/2
f 130/133/3 131/136/3 136/134/3
f 135/135/4 134/132/4 133/129/4
f 131/136/5 134/132/5 135/135/5
f 129/130/6 136/134/6 135/135/6
f 141/137/1 138/141/1 137/138/1
f 142/140/2 139/144/2 138/141/2
f 138/141/3 139/144/3 144/142/3
f 143/143/4 142/140/4 141/137/4
f 139/144/5 142/140/5 143/143/5
f 137/138/6 144/142/6 143/143/6
f 149/145/1 146/149/1 145/146/1
f 150/148/2 147/152/2 146/149/2
f 146/149/3 147/152/3 152/150/3
f 151/151/4 150/148/4 149/145/4
f 147/152/5 150/148/5 151/151/5
f 145/146/6 152/150/6 151/151/6
