# Blender v3.0.1 OBJ File: 'Main.blend'
# www.blender.org
o Cube.5491_0098
v 0.003001 0.465000 3.438000
v 0.450001 0.465000 3.438000
v 0.003001 0.465000 2.940000
v 0.450001 0.465000 2.940000
v 0.003001 0.657000 3.438000
v 0.450001 0.657000 3.438000
v 0.003001 0.657000 2.940000
v 0.450001 0.657000 2.940000
vt 0.257262 0.840106
vt 0.249196 0.849087
vt 0.249196 0.840106
vt 0.508036 0.848945
vt 0.499967 0.839963
vt 0.508036 0.839963
vt 0.214595 0.860664
vt 0.211132 0.869646
vt 0.211132 0.860664
vt 0.483356 0.869805
vt 0.486820 0.861740
vt 0.486820 0.869805
vt 0.052458 0.860599
vt 0.048994 0.869580
vt 0.048994 0.860599
vt 0.002166 0.869794
vt 0.005631 0.861725
vt 0.005631 0.869794
vt 0.257262 0.849087
vt 0.499967 0.848945
vt 0.214595 0.869646
vt 0.483356 0.861740
vt 0.052458 0.869580
vt 0.002166 0.861725
vn 0.0000 -1.0000 0.0000
vn 0.0000 1.0000 0.0000
vn -1.0000 0.0000 0.0000
vn 0.0000 0.0000 -1.0000
vn 1.0000 0.0000 0.0000
vn 0.0000 0.0000 1.0000
s off
f 1/1/1 4/2/1 2/3/1
f 8/4/2 5/5/2 6/6/2
f 5/7/3 3/8/3 1/9/3
f 7/10/4 4/11/4 3/12/4
f 8/13/5 2/14/5 4/15/5
f 6/16/6 1/17/6 2/18/6
f 1/1/1 3/19/1 4/2/1
f 8/4/2 7/20/2 5/5/2
f 5/7/3 7/21/3 3/8/3
f 7/10/4 8/22/4 4/11/4
f 8/13/5 6/23/5 2/14/5
f 6/16/6 5/24/6 1/17/6
