# Blender v3.0.1 OBJ File: 'Main.blend'
# www.blender.org
o Cube.5716_0244
v 1.439996 0.030000 -1.555500
v 1.439996 0.030000 -1.582500
v 1.439996 -0.123000 -1.555500
v 1.439996 -0.123000 -1.582500
v 1.328995 -0.031500 -1.555500
v 1.328995 -0.031500 -1.582500
v 1.328995 -0.123000 -1.555500
v 1.328995 -0.123000 -1.582500
v 1.280995 -0.031500 -1.555500
v 1.280995 -0.031500 -1.582500
v 1.280995 -0.123000 -1.555500
v 1.280995 -0.123000 -1.582500
v 1.175996 -0.089400 -1.555500
v 1.175996 -0.123000 -1.555500
v 1.175996 -0.123000 -1.582500
v 1.175996 -0.089400 -1.582500
v 1.145996 -0.089400 -1.555500
v 1.145996 -0.123000 -1.555500
v 1.145996 -0.123000 -1.582500
v 1.145996 -0.089400 -1.582500
vt 0.891008 0.929954
vt 0.890521 0.929954
vt 0.890521 0.932715
vt 0.876330 0.392691
vt 0.876330 0.391826
vt 0.874679 0.391826
vt 0.877440 0.389823
vt 0.874679 0.389823
vt 0.240263 0.907556
vt 0.240263 0.905339
vt 0.239776 0.905339
vt 0.864807 0.007758
vt 0.867568 0.007758
vt 0.866458 0.005755
vt 0.306936 0.909034
vt 0.306936 0.907031
vt 0.306449 0.907031
vt 0.865413 0.002994
vt 0.864807 0.002994
vt 0.864807 0.004889
vt 0.240263 0.908394
vt 0.239776 0.907556
vt 0.864807 0.005755
vt 0.306936 0.909899
vt 0.306449 0.909034
vt 0.306449 0.909899
vt 0.306449 0.911795
vt 0.874679 0.392691
vt 0.874679 0.394587
vt 0.875285 0.394587
vt 0.239776 0.908394
vt 0.239776 0.910491
vt 0.874679 0.395128
vt 0.919001 0.023084
vt 0.919001 0.022478
vt 0.918514 0.022478
vt 0.865413 0.002453
vt 0.306936 0.911795
vt 0.306449 0.912335
vt 0.240263 0.910491
vt 0.239776 0.911014
vt 0.891008 0.932715
vt 0.866458 0.004889
vt 0.875285 0.395128
vt 0.918514 0.023084
vt 0.864807 0.002453
vt 0.306936 0.912335
vt 0.240263 0.911014
vn 1.0000 0.0000 0.0000
vn 0.0000 0.0000 -1.0000
vn -0.4846 0.8747 0.0000
vn -0.0000 0.0000 1.0000
vn 0.0000 -1.0000 0.0000
vn 0.0000 1.0000 0.0000
vn -0.4829 0.8757 0.0000
vn -1.0000 0.0000 0.0000
s off
f 2/1/1 1/2/1 3/3/1
f 10/4/2 6/5/2 8/6/2
f 6/5/2 2/7/2 4/8/2
f 5/9/3 1/10/3 2/11/3
f 3/12/4 1/13/4 5/14/4
f 8/15/5 4/16/5 3/17/5
f 13/18/4 14/19/4 11/20/4
f 9/21/6 5/9/6 6/22/6
f 11/20/4 7/23/4 5/14/4
f 12/24/5 8/15/5 7/25/5
f 12/24/5 11/26/5 14/27/5
f 12/28/2 15/29/2 16/30/2
f 9/21/7 10/31/7 16/32/7
f 16/30/2 15/29/2 19/33/2
f 18/34/8 17/35/8 20/36/8
f 14/19/4 13/18/4 17/37/4
f 15/38/5 14/27/5 18/39/5
f 13/40/6 16/32/6 20/41/6
f 2/1/1 3/3/1 4/42/1
f 10/4/2 8/6/2 12/28/2
f 6/5/2 4/8/2 8/6/2
f 5/9/3 2/11/3 6/22/3
f 3/12/4 5/14/4 7/23/4
f 8/15/5 3/17/5 7/25/5
f 13/18/4 11/20/4 9/43/4
f 9/21/6 6/22/6 10/31/6
f 11/20/4 5/14/4 9/43/4
f 12/24/5 7/25/5 11/26/5
f 12/24/5 14/27/5 15/38/5
f 12/28/2 16/30/2 10/4/2
f 9/21/7 16/32/7 13/40/7
f 16/30/2 19/33/2 20/44/2
f 18/34/8 20/36/8 19/45/8
f 14/19/4 17/37/4 18/46/4
f 15/38/5 18/39/5 19/47/5
f 13/40/6 20/41/6 17/48/6
