# Blender v3.0.1 OBJ File: 'Main.blend'
# www.blender.org
o Cube.5278_0200
v 1.902000 0.000000 -3.057000
v 1.902000 0.369000 -3.057000
v 1.875000 0.000000 -3.057000
v 1.875000 0.369000 -3.057000
v 1.902000 0.369000 -3.141000
v 1.875000 0.000000 -3.141000
v 1.875000 0.369000 -3.141000
v 1.902000 0.000000 -3.141000
v 1.902000 0.000000 -3.192000
v 1.902000 0.369000 -3.192000
v 1.875000 0.000000 -3.192000
v 1.875000 0.369000 -3.192000
v 1.902000 0.369000 -3.276000
v 1.875000 0.000000 -3.276000
v 1.875000 0.369000 -3.276000
v 1.902000 0.000000 -3.276000
vt 0.371599 0.899557
vt 0.371112 0.906216
vt 0.371112 0.899557
vt 0.045252 0.905779
vt 0.044765 0.899120
vt 0.045252 0.899120
vt 0.535267 0.891495
vt 0.533747 0.884836
vt 0.535267 0.884836
vt 0.332650 0.942244
vt 0.332163 0.943764
vt 0.332163 0.942244
vt 0.943735 0.096765
vt 0.943248 0.098285
vt 0.943248 0.096765
vt 0.715740 0.884816
vt 0.717260 0.891475
vt 0.715740 0.891475
vt 0.371599 0.899557
vt 0.371112 0.906216
vt 0.371112 0.899557
vt 0.045252 0.905779
vt 0.044765 0.899120
vt 0.045252 0.899120
vt 0.535267 0.891495
vt 0.533747 0.884836
vt 0.535267 0.884836
vt 0.332650 0.942244
vt 0.332163 0.943764
vt 0.332163 0.942244
vt 0.943735 0.096765
vt 0.943248 0.098285
vt 0.943248 0.096765
vt 0.715740 0.884816
vt 0.717260 0.891475
vt 0.715740 0.891475
vt 0.371599 0.906216
vt 0.044765 0.905779
vt 0.533747 0.891495
vt 0.332650 0.943764
vt 0.943735 0.098285
vt 0.717260 0.884816
vt 0.371599 0.906216
vt 0.044765 0.905779
vt 0.533747 0.891495
vt 0.332650 0.943764
vt 0.943735 0.098285
vt 0.717260 0.884816
vn 0.0000 0.0000 1.0000
vn 0.0000 0.0000 -1.0000
vn 1.0000 0.0000 0.0000
vn 0.0000 -1.0000 0.0000
vn 0.0000 1.0000 0.0000
vn -1.0000 0.0000 0.0000
s off
f 4/1/1 1/2/1 2/3/1
f 8/4/2 7/5/2 5/6/2
f 1/7/3 5/8/3 2/9/3
f 3/10/4 8/11/4 1/12/4
f 2/13/5 7/14/5 4/15/5
f 4/16/6 6/17/6 3/18/6
f 12/19/1 9/20/1 10/21/1
f 16/22/2 15/23/2 13/24/2
f 9/25/3 13/26/3 10/27/3
f 11/28/4 16/29/4 9/30/4
f 10/31/5 15/32/5 12/33/5
f 12/34/6 14/35/6 11/36/6
f 4/1/1 3/37/1 1/2/1
f 8/4/2 6/38/2 7/5/2
f 1/7/3 8/39/3 5/8/3
f 3/10/4 6/40/4 8/11/4
f 2/13/5 5/41/5 7/14/5
f 4/16/6 7/42/6 6/17/6
f 12/19/1 11/43/1 9/20/1
f 16/22/2 14/44/2 15/23/2
f 9/25/3 16/45/3 13/26/3
f 11/28/4 14/46/4 16/29/4
f 10/31/5 13/47/5 15/32/5
f 12/34/6 15/48/6 14/35/6
