# Blender v3.0.1 OBJ File: 'Main.blend'
# www.blender.org
o Cube.5412_0211
v 1.864499 0.366000 2.910000
v 1.901998 0.366000 2.910000
v 1.864498 0.366000 2.949000
v 1.925998 0.366000 2.910000
v 1.925998 0.366000 2.949000
v 1.907998 0.366000 3.003000
v 1.937998 0.366000 2.949000
v 1.937998 0.366000 3.003000
v 1.864499 0.459000 2.910000
v 1.901998 0.459000 2.910000
v 1.864498 0.459000 2.949000
v 1.925998 0.459000 2.910000
v 1.925998 0.459000 2.949000
v 1.907998 0.459000 3.003000
v 1.937998 0.459000 3.003000
v 1.937998 0.459000 2.949000
v 1.864499 0.366000 3.521999
v 1.883998 0.366000 3.521999
v 1.864498 0.366000 3.425999
v 1.883998 0.366000 3.425999
v 1.907998 0.366000 3.371999
v 1.937998 0.366000 3.425999
v 1.937998 0.366000 3.371999
v 1.864499 0.459000 3.521999
v 1.883998 0.459000 3.521999
v 1.864498 0.459000 3.425999
v 1.883998 0.459000 3.425999
v 1.907998 0.459000 3.371999
v 1.937998 0.459000 3.371999
v 1.937998 0.459000 3.425999
v 1.456498 0.366000 3.522000
v 1.456498 0.366000 3.426000
v 1.436998 0.366000 3.522000
v 1.436998 0.366000 3.426000
v 1.412998 0.366000 3.372000
v 1.382998 0.366000 3.426000
v 1.382998 0.366000 3.372000
v 1.456498 0.459000 3.522000
v 1.456498 0.459000 3.426000
v 1.436998 0.459000 3.522000
v 1.436998 0.459000 3.426000
v 1.412998 0.459000 3.372000
v 1.382998 0.459000 3.372000
v 1.382998 0.459000 3.426000
vt 0.544904 0.819103
vt 0.544227 0.819807
vt 0.543793 0.819103
vt 0.347943 0.936266
vt 0.348646 0.937943
vt 0.347943 0.937943
vt 0.924818 0.369079
vt 0.925495 0.370757
vt 0.924818 0.370757
vt 0.543577 0.811471
vt 0.544120 0.818129
vt 0.543577 0.818129
vt 0.945000 0.766397
vt 0.945217 0.768075
vt 0.945000 0.768075
vt 0.885623 0.312663
vt 0.883945 0.313914
vt 0.883945 0.312663
vt 0.885623 0.313914
vt 0.883945 0.314461
vt 0.417005 0.870681
vt 0.415326 0.871655
vt 0.415326 0.870681
vt 0.925495 0.369079
vt 0.925928 0.370757
vt 0.507386 0.819577
vt 0.506709 0.818873
vt 0.507819 0.818873
vt 0.544551 0.810496
vt 0.544120 0.811471
vt 0.543577 0.810496
vt 0.656476 0.292708
vt 0.658154 0.294441
vt 0.656476 0.294441
vt 0.879512 0.770500
vt 0.881191 0.770721
vt 0.879512 0.770721
vt 0.885623 0.307477
vt 0.321340 0.939938
vt 0.321951 0.938261
vt 0.321951 0.939938
vt 0.878427 0.341181
vt 0.880106 0.341967
vt 0.878427 0.341967
vt 0.544904 0.808764
vt 0.552267 0.810496
vt 0.544904 0.810496
vt 0.415326 0.878311
vt 0.417005 0.879289
vt 0.415326 0.879289
vt 0.507494 0.811241
vt 0.506709 0.810266
vt 0.507061 0.810266
vt 0.417005 0.871655
vt 0.507494 0.817900
vt 0.508036 0.811241
vt 0.508036 0.817900
vt 0.553052 0.811471
vt 0.552618 0.810496
vt 0.499347 0.810266
vt 0.498995 0.810266
vt 0.499347 0.808534
vt 0.881191 0.776909
vt 0.879512 0.777520
vt 0.879512 0.776909
vt 0.114367 0.850272
vt 0.115345 0.851950
vt 0.114367 0.851950
vt 0.881191 0.775560
vt 0.879512 0.775560
vt 0.154027 0.939836
vt 0.154568 0.941513
vt 0.154027 0.941513
vt 0.881191 0.777520
vt 0.879512 0.778279
vt 0.881191 0.775339
vt 0.879512 0.775339
vt 0.880106 0.333819
vt 0.880106 0.341181
vt 0.506709 0.808534
vt 0.544904 0.819807
vt 0.543793 0.819807
vt 0.543577 0.819103
vt 0.348646 0.936266
vt 0.945217 0.766397
vt 0.885623 0.314461
vt 0.925928 0.369079
vt 0.506709 0.819577
vt 0.508036 0.818873
vt 0.507819 0.819577
vt 0.544551 0.808764
vt 0.658154 0.292708
vt 0.881191 0.770500
vt 0.883945 0.307477
vt 0.321340 0.938261
vt 0.552267 0.808764
vt 0.417005 0.878311
vt 0.507061 0.808534
vt 0.508036 0.810266
vt 0.552618 0.808764
vt 0.553592 0.810496
vt 0.553592 0.811471
vt 0.498562 0.811241
vt 0.498020 0.811241
vt 0.498020 0.810266
vt 0.498995 0.808534
vt 0.115345 0.850272
vt 0.154568 0.939836
vt 0.881191 0.778279
vt 0.878427 0.333819
vn 0.0000 -1.0000 0.0000
vn 1.0000 0.0000 0.0000
vn 0.0000 0.0000 -1.0000
vn -0.7788 0.0000 0.6273
vn -1.0000 0.0000 -0.0000
vn 0.0000 1.0000 -0.0000
vn 0.0000 0.0000 1.0000
vn -0.7788 0.0000 -0.6273
vn 0.7788 0.0000 -0.6273
s off
f 3/1/1 2/2/1 5/3/1
f 12/4/2 5/5/2 4/6/2
f 9/7/3 2/8/3 1/9/3
f 23/10/1 6/11/1 8/12/1
f 13/13/3 7/14/3 5/15/3
f 14/16/4 3/17/4 6/18/4
f 11/19/5 1/20/5 3/17/5
f 16/21/2 8/22/2 7/23/2
f 10/24/3 4/25/3 2/8/3
f 10/26/6 11/27/6 13/28/6
f 20/29/1 21/30/1 22/31/1
f 20/32/2 25/33/2 18/34/2
f 18/35/7 24/36/7 17/37/7
f 6/18/5 28/38/5 14/16/5
f 22/39/7 27/40/7 20/41/7
f 19/42/8 28/43/8 21/44/8
f 17/45/1 32/46/1 19/47/1
f 23/48/2 30/49/2 22/50/2
f 28/51/6 26/52/6 27/53/6
f 15/54/2 23/48/2 8/22/2
f 14/55/6 29/56/6 15/57/6
f 35/58/1 32/46/1 34/59/1
f 39/60/6 41/61/6 38/62/6
f 41/63/7 36/64/7 34/65/7
f 42/66/9 32/67/9 35/68/9
f 40/69/5 34/65/5 33/70/5
f 43/71/3 35/72/3 37/73/3
f 44/74/5 37/75/5 36/64/5
f 38/76/7 33/70/7 31/77/7
f 19/42/3 39/78/3 26/79/3
f 24/36/7 31/77/7 17/37/7
f 39/60/6 24/80/6 26/52/6
f 3/1/1 1/81/1 2/2/1
f 2/2/1 4/82/1 5/3/1
f 5/3/1 7/83/1 8/12/1
f 8/12/1 6/11/1 5/3/1
f 6/11/1 3/1/1 5/3/1
f 12/4/2 13/84/2 5/5/2
f 9/7/3 10/24/3 2/8/3
f 23/10/1 21/30/1 6/11/1
f 13/13/3 16/85/3 7/14/3
f 14/16/4 11/19/4 3/17/4
f 11/19/5 9/86/5 1/20/5
f 16/21/2 15/54/2 8/22/2
f 10/24/3 12/87/3 4/25/3
f 10/26/6 9/88/6 11/27/6
f 11/27/6 14/55/6 13/28/6
f 14/55/6 15/57/6 13/28/6
f 15/57/6 16/89/6 13/28/6
f 13/28/6 12/90/6 10/26/6
f 18/91/1 17/45/1 20/29/1
f 17/45/1 19/47/1 20/29/1
f 19/47/1 21/30/1 20/29/1
f 21/30/1 23/10/1 22/31/1
f 20/32/2 27/92/2 25/33/2
f 18/35/7 25/93/7 24/36/7
f 6/18/5 21/94/5 28/38/5
f 22/39/7 30/95/7 27/40/7
f 19/42/8 26/79/8 28/43/8
f 17/45/1 31/96/1 32/46/1
f 23/48/2 29/97/2 30/49/2
f 26/52/6 24/80/6 27/53/6
f 24/80/6 25/98/6 27/53/6
f 27/53/6 30/99/6 28/51/6
f 30/99/6 29/56/6 28/51/6
f 15/54/2 29/97/2 23/48/2
f 14/55/6 28/51/6 29/56/6
f 32/46/1 31/96/1 33/100/1
f 34/59/1 36/101/1 35/58/1
f 36/101/1 37/102/1 35/58/1
f 32/46/1 33/100/1 34/59/1
f 39/60/6 42/103/6 41/61/6
f 42/103/6 43/104/6 44/105/6
f 41/61/6 42/103/6 44/105/6
f 41/61/6 40/106/6 38/62/6
f 41/63/7 44/74/7 36/64/7
f 42/66/9 39/107/9 32/67/9
f 40/69/5 41/63/5 34/65/5
f 43/71/3 42/108/3 35/72/3
f 44/74/5 43/109/5 37/75/5
f 38/76/7 40/69/7 33/70/7
f 19/42/3 32/110/3 39/78/3
f 24/36/7 38/76/7 31/77/7
f 39/60/6 38/62/6 24/80/6
