# Blender v3.0.1 OBJ File: 'Main.blend'
# www.blender.org
o Cube.5501_0210
v -1.734002 0.465000 2.916000
v -1.734002 0.582000 2.916000
v -1.410002 0.582000 2.916000
v -1.410002 0.465000 2.916000
v -1.410002 0.465000 1.266000
v -1.734002 0.465000 1.266000
v -1.734002 0.582000 1.266000
v -1.410002 0.582000 1.266000
vt 0.618782 0.883060
vt 0.616671 0.883060
vt 0.616671 0.888906
vt 0.271967 0.888844
vt 0.271967 0.882998
vt 0.269855 0.882998
vt 0.794302 0.518450
vt 0.794302 0.488671
vt 0.792190 0.488671
vt 0.765295 0.835543
vt 0.765295 0.805765
vt 0.763184 0.805765
vt 0.680571 0.161786
vt 0.680571 0.132007
vt 0.674724 0.132007
vt 0.381613 0.780646
vt 0.381613 0.750868
vt 0.375767 0.750868
vt 0.618782 0.888906
vt 0.269855 0.888844
vt 0.792190 0.518450
vt 0.763184 0.835543
vt 0.674724 0.161786
vt 0.375767 0.780646
vn 0.0000 0.0000 1.0000
vn 0.0000 0.0000 -1.0000
vn 1.0000 0.0000 0.0000
vn -1.0000 0.0000 0.0000
vn 0.0000 1.0000 0.0000
vn 0.0000 -1.0000 0.0000
s off
f 4/1/1 3/2/1 2/3/1
f 7/4/2 8/5/2 5/6/2
f 8/7/3 3/8/3 4/9/3
f 6/10/4 1/11/4 2/12/4
f 7/13/5 2/14/5 3/15/5
f 5/16/6 4/17/6 1/18/6
f 4/1/1 2/3/1 1/19/1
f 7/4/2 5/6/2 6/20/2
f 8/7/3 4/9/3 5/21/3
f 6/10/4 2/12/4 7/22/4
f 7/13/5 3/15/5 8/23/5
f 5/16/6 1/18/6 6/24/6
