# Blender v3.0.1 OBJ File: 'Main.blend'
# www.blender.org
o Cube.5240_0120
v 1.192500 0.330000 -2.685000
v 1.192500 0.330000 -2.691000
v 1.192500 0.414000 -2.685000
v 1.192500 0.414000 -2.691000
v 1.024530 0.333653 -2.685000
v 1.024530 0.330000 -2.685000
v 1.192470 0.330000 -2.685000
v 1.187088 0.348042 -2.685000
v 1.187088 0.348042 -2.691000
v 1.175334 0.368511 -2.691000
v 1.175334 0.368511 -2.685000
v 1.161011 0.385309 -2.691000
v 1.161011 0.385309 -2.685000
v 1.144670 0.397791 -2.685000
v 1.144670 0.397791 -2.691000
v 1.126940 0.405477 -2.685000
v 1.126940 0.405477 -2.691000
v 1.029912 0.348042 -2.685000
v 1.041666 0.368511 -2.685000
v 1.055989 0.385309 -2.685000
v 1.072330 0.397791 -2.685000
v 1.108500 0.408073 -2.685000
v 1.090061 0.405477 -2.685000
v 1.108500 0.408073 -2.691000
v 1.192470 0.333653 -2.685000
v 1.090061 0.405477 -2.691000
v 1.024530 0.330000 -2.691000
v 1.192470 0.330000 -2.691000
v 1.072330 0.397791 -2.691000
v 1.055989 0.385309 -2.691000
v 1.041666 0.368511 -2.691000
v 1.029912 0.348042 -2.691000
v 1.024530 0.333653 -2.691000
v 1.192470 0.333653 -2.691000
v 1.024500 0.330000 -2.685000
v 1.024500 0.414000 -2.685000
v 1.024500 0.330000 -2.691000
v 1.024500 0.414000 -2.691000
vt 0.956017 0.655440
vt 0.956125 0.653961
vt 0.956125 0.655440
vt 0.909244 0.715120
vt 0.909198 0.714792
vt 0.909351 0.713608
vt 0.260958 0.840214
vt 0.260958 0.840106
vt 0.260958 0.840106
vt 0.828746 0.942313
vt 0.828746 0.942421
vt 0.828746 0.942313
vt 0.905599 0.216865
vt 0.905706 0.215353
vt 0.905706 0.218385
vt 0.934809 0.110959
vt 0.934917 0.107927
vt 0.934917 0.110959
vt 0.956008 0.507796
vt 0.956116 0.509276
vt 0.956008 0.509276
vt 0.956017 0.653961
vt 0.907835 0.716640
vt 0.907835 0.716640
vt 0.907902 0.716640
vt 0.909351 0.716640
vt 0.907835 0.713608
vt 0.907835 0.713608
vt 0.907902 0.713608
vt 0.908161 0.716541
vt 0.908530 0.716327
vt 0.908161 0.713707
vt 0.908530 0.713914
vt 0.908834 0.716067
vt 0.909059 0.715777
vt 0.908834 0.714173
vt 0.909059 0.714471
vt 0.909198 0.715456
vt 0.260958 0.840214
vt 0.828746 0.942421
vt 0.904257 0.215353
vt 0.904190 0.215353
vt 0.904190 0.215353
vt 0.904190 0.218385
vt 0.904257 0.218385
vt 0.904190 0.218385
vt 0.904516 0.215452
vt 0.904516 0.218286
vt 0.904885 0.218072
vt 0.904885 0.215658
vt 0.905189 0.215918
vt 0.905189 0.217812
vt 0.905414 0.217522
vt 0.905414 0.216216
vt 0.905553 0.216537
vt 0.905553 0.217201
vt 0.934809 0.107927
vt 0.956116 0.507796
vt 0.963850 0.439882
vt 0.963741 0.440157
vt 0.963741 0.439882
vt 0.963850 0.439476
vt 0.963741 0.439476
vt 0.963850 0.439123
vt 0.963741 0.439123
vt 0.944750 0.724037
vt 0.944859 0.724327
vt 0.944750 0.724327
vt 0.944859 0.724648
vt 0.944750 0.724648
vt 0.944859 0.724984
vt 0.944750 0.724984
vt 0.944859 0.725312
vt 0.944859 0.725633
vt 0.944750 0.725312
vt 0.944859 0.725931
vt 0.944750 0.725633
vt 0.963861 0.492069
vt 0.963752 0.491716
vt 0.963861 0.491716
vt 0.963861 0.492476
vt 0.963752 0.492069
vt 0.963861 0.492749
vt 0.963752 0.492476
vt 0.963850 0.440221
vt 0.963741 0.440221
vt 0.963752 0.492749
vt 0.963861 0.492814
vt 0.963752 0.492814
vt 0.963850 0.440157
vt 0.944859 0.724037
vt 0.944750 0.725931
vn 1.0000 0.0000 0.0000
vn 0.0000 0.0000 1.0000
vn 0.0000 -1.0000 0.0000
vn 0.0000 0.0000 -1.0000
vn 0.0000 1.0000 0.0000
vn -1.0000 0.0000 0.0000
vn -0.0023 0.0000 1.0000
vn -0.6223 -0.2927 -0.7259
vn -0.6515 -0.1178 0.7494
vn -0.6223 -0.2927 0.7259
vn -0.5601 -0.3945 -0.7284
vn -0.5601 -0.3945 0.7284
vn -0.4688 -0.4947 -0.7317
vn -0.4688 -0.4947 0.7317
vn -0.3429 -0.5844 0.7354
vn -0.3429 -0.5844 -0.7354
vn -0.1827 -0.6489 0.7386
vn -0.1827 -0.6489 -0.7386
vn 0.0000 -0.6727 0.7399
vn 0.0000 -0.6727 -0.7399
vn 0.1827 -0.6489 0.7386
vn 0.3429 -0.5844 0.7354
vn 0.1827 -0.6489 -0.7386
vn 0.4688 -0.4947 0.7317
vn 0.3429 -0.5844 -0.7354
vn 0.5601 -0.3945 0.7284
vn 0.4688 -0.4947 -0.7317
vn 0.6224 -0.2927 0.7259
vn 0.5601 -0.3945 -0.7284
vn 0.6506 -0.1180 0.7502
vn 0.6224 -0.2927 -0.7259
vn -0.5773 -0.5773 -0.5773
vn -0.5773 -0.5773 0.5773
vn 0.6515 -0.1178 -0.7494
vn 0.5773 -0.5773 0.5773
vn 0.5773 -0.5773 -0.5773
vn -0.6515 -0.1178 -0.7494
s off
f 2/1/1 3/2/1 1/3/1
f 22/4/2 16/5/2 3/6/2
f 6/7/3 37/8/3 27/9/3
f 2/10/3 7/11/3 28/12/3
f 24/13/4 38/14/4 4/15/4
f 4/16/5 36/17/5 3/18/5
f 36/19/6 37/20/6 35/21/6
f 2/1/1 4/22/1 3/2/1
f 35/23/2 6/24/2 5/25/2
f 36/26/7 35/23/7 5/25/7
f 7/27/2 1/28/2 25/29/2
f 1/28/2 3/6/2 25/29/2
f 36/26/2 5/25/2 18/30/2
f 36/26/2 18/30/2 19/31/2
f 8/32/2 25/29/2 3/6/2
f 11/33/2 8/32/2 3/6/2
f 36/26/2 19/31/2 20/34/2
f 36/26/2 20/34/2 21/35/2
f 13/36/2 11/33/2 3/6/2
f 14/37/2 13/36/2 3/6/2
f 36/26/2 21/35/2 23/38/2
f 36/26/2 23/38/2 22/4/2
f 16/5/2 14/37/2 3/6/2
f 3/6/2 36/26/2 22/4/2
f 6/7/3 35/39/3 37/8/3
f 2/10/3 1/40/3 7/11/3
f 33/41/4 27/42/4 37/43/4
f 4/15/4 2/44/4 34/45/4
f 2/44/4 28/46/4 34/45/4
f 33/41/4 37/43/4 38/14/4
f 32/47/4 33/41/4 38/14/4
f 4/15/4 34/45/4 9/48/4
f 4/15/4 9/48/4 10/49/4
f 31/50/4 32/47/4 38/14/4
f 30/51/4 31/50/4 38/14/4
f 4/15/4 10/49/4 12/52/4
f 4/15/4 12/52/4 15/53/4
f 29/54/4 30/51/4 38/14/4
f 26/55/4 29/54/4 38/14/4
f 4/15/4 15/53/4 17/56/4
f 24/13/4 26/55/4 38/14/4
f 4/15/4 17/56/4 24/13/4
f 4/16/5 38/57/5 36/17/5
f 36/19/6 38/58/6 37/20/6
s 1
f 9/59/8 25/60/9 8/61/10
f 10/62/11 8/61/10 11/63/12
f 12/64/13 11/63/12 13/65/14
f 12/66/13 14/67/15 15/68/16
f 15/68/16 16/69/17 17/70/18
f 17/70/18 22/71/19 24/72/20
f 23/73/21 24/72/20 22/71/19
f 21/74/22 26/75/23 23/73/21
f 20/76/24 29/77/25 21/74/22
f 19/78/26 30/79/27 20/80/24
f 18/81/28 31/82/29 19/78/26
f 5/83/30 32/84/31 18/81/28
f 25/60/9 28/85/32 7/86/33
f 33/87/34 6/88/35 27/89/36
f 9/59/8 34/90/37 25/60/9
f 10/62/11 9/59/8 8/61/10
f 12/64/13 10/62/11 11/63/12
f 12/66/13 13/91/14 14/67/15
f 15/68/16 14/67/15 16/69/17
f 17/70/18 16/69/17 22/71/19
f 23/73/21 26/75/23 24/72/20
f 21/74/22 29/77/25 26/75/23
f 20/76/24 30/92/27 29/77/25
f 19/78/26 31/82/29 30/79/27
f 18/81/28 32/84/31 31/82/29
f 5/83/30 33/87/34 32/84/31
f 25/60/9 34/90/37 28/85/32
f 33/87/34 5/83/30 6/88/35
