# Blender v3.0.1 OBJ File: 'Main.blend'
# www.blender.org
o Cube.5397_0350
v -1.905001 0.459000 0.975000
v -1.905001 0.366000 0.975000
v -1.858501 0.459000 0.975000
v -1.858501 0.366000 0.975000
v -1.905001 0.459000 1.272000
v -1.905001 0.366000 1.272000
v -1.858501 0.459000 1.272000
v -1.858501 0.366000 1.272000
v -1.896000 0.459000 1.272000
v -1.896000 0.366000 1.272000
v -1.858501 0.459000 3.000000
v -1.858501 0.366000 3.000000
v -1.896000 0.459000 3.000000
v -1.896000 0.366000 3.000000
vt 0.592643 0.936676
vt 0.592643 0.934998
vt 0.591804 0.934998
vt 0.838835 0.455655
vt 0.837157 0.455655
vt 0.837157 0.486831
vt 0.867887 0.206288
vt 0.866209 0.206288
vt 0.866209 0.211649
vt 0.560254 0.160915
vt 0.560417 0.155553
vt 0.560254 0.155553
vt 0.280078 0.828155
vt 0.281756 0.828155
vt 0.281756 0.822794
vt 0.840975 0.275181
vt 0.841651 0.269819
vt 0.840975 0.269819
vt 0.946614 0.252617
vt 0.946451 0.252617
vt 0.946451 0.254295
vt 0.938278 0.162107
vt 0.937601 0.162107
vt 0.937601 0.163784
vt 0.841651 0.238635
vt 0.561093 0.155553
vt 0.561093 0.124370
vt 0.280078 0.822794
vt 0.281756 0.791610
vt 0.591804 0.936676
vt 0.838835 0.486831
vt 0.867887 0.211649
vt 0.561093 0.160915
vt 0.841814 0.269819
vt 0.841814 0.275181
vt 0.946614 0.254295
vt 0.938278 0.163784
vt 0.840975 0.238635
vt 0.560417 0.124370
vt 0.280078 0.791610
vn 0.0000 0.0000 -1.0000
vn -1.0000 0.0000 0.0000
vn 0.0000 -1.0000 0.0000
vn 1.0000 0.0000 0.0000
vn 0.0000 1.0000 0.0000
vn 0.0000 0.0000 1.0000
s off
f 2/1/1 1/2/1 3/3/1
f 9/4/2 10/5/2 14/6/2
f 1/7/2 2/8/2 6/9/2
f 2/10/3 10/11/3 6/12/3
f 4/13/4 3/14/4 7/15/4
f 3/16/5 9/17/5 7/18/5
f 9/19/6 5/20/6 6/21/6
f 11/22/6 13/23/6 14/24/6
f 7/18/5 9/17/5 13/25/5
f 10/11/3 8/26/3 12/27/3
f 8/28/4 7/15/4 11/29/4
f 2/1/1 3/3/1 4/30/1
f 9/4/2 14/6/2 13/31/2
f 1/7/2 6/9/2 5/32/2
f 8/26/3 10/11/3 4/33/3
f 4/33/3 10/11/3 2/10/3
f 4/13/4 7/15/4 8/28/4
f 5/34/5 9/17/5 1/35/5
f 1/35/5 9/17/5 3/16/5
f 9/19/6 6/21/6 10/36/6
f 11/22/6 14/24/6 12/37/6
f 7/18/5 13/25/5 11/38/5
f 10/11/3 12/27/3 14/39/3
f 8/28/4 11/29/4 12/40/4
