# Blender v3.0.1 OBJ File: 'Main.blend'
# www.blender.org
o Cube.5500_0201
v -1.374002 0.465000 2.940000
v -1.374002 0.465000 3.420000
v -1.374002 0.582000 2.940000
v -1.374002 0.582000 3.420000
v -1.926002 0.465000 2.955000
v -1.926002 0.465000 3.420000
v -1.926002 0.582000 2.955000
v -1.926002 0.582000 3.420000
v -1.914002 0.465000 2.955000
v -1.914002 0.582000 2.955000
v -1.386002 0.582000 2.940000
v -1.386002 0.465000 2.940000
v -1.914002 0.465000 2.916000
v -1.914002 0.582000 2.916000
v -1.386002 0.582000 2.916000
v -1.386002 0.465000 2.916000
vt 0.872474 0.556370
vt 0.872474 0.565031
vt 0.874585 0.565031
vt 0.874619 0.652508
vt 0.872507 0.652508
vt 0.872507 0.660894
vt 0.942016 0.323361
vt 0.941799 0.323361
vt 0.941799 0.325472
vt 0.520997 0.153068
vt 0.529383 0.162811
vt 0.529383 0.152850
vt 0.243091 0.862157
vt 0.243091 0.872119
vt 0.245203 0.872119
vt 0.533782 0.162594
vt 0.542168 0.152850
vt 0.533508 0.153066
vt 0.533080 0.162594
vt 0.127149 0.939916
vt 0.126933 0.939916
vt 0.126933 0.942027
vt 0.297748 0.873306
vt 0.297748 0.863778
vt 0.295636 0.863778
vt 0.763647 0.935368
vt 0.764350 0.935368
vt 0.764350 0.933257
vt 0.520722 0.162595
vt 0.520294 0.153068
vt 0.361434 0.935842
vt 0.361007 0.935842
vt 0.361007 0.937953
vt 0.874585 0.556370
vt 0.874619 0.660894
vt 0.942016 0.325472
vt 0.520722 0.162811
vt 0.520997 0.152850
vt 0.245203 0.862157
vt 0.533508 0.152850
vt 0.542168 0.162811
vt 0.533782 0.162811
vt 0.533080 0.153066
vt 0.127149 0.942027
vt 0.295636 0.873306
vt 0.763647 0.933257
vt 0.520294 0.162595
vt 0.361434 0.937953
vn 1.0000 0.0000 0.0000
vn -1.0000 0.0000 0.0000
vn 0.0000 0.0000 -1.0000
vn 0.0000 -1.0000 0.0000
vn 0.0000 0.0000 1.0000
vn 0.0000 1.0000 0.0000
s off
f 2/1/1 1/2/1 3/3/1
f 7/4/2 5/5/2 6/6/2
f 7/7/3 10/8/3 9/9/3
f 9/10/4 2/11/4 6/12/4
f 6/13/5 2/14/5 4/15/5
f 10/16/6 4/17/6 11/18/6
f 14/19/6 10/16/6 11/18/6
f 11/20/3 3/21/3 1/22/3
f 14/23/3 15/24/3 16/25/3
f 13/26/2 9/27/2 10/28/2
f 12/29/4 9/10/4 13/30/4
f 15/31/1 11/32/1 12/33/1
f 2/1/1 3/3/1 4/34/1
f 7/4/2 6/6/2 8/35/2
f 7/7/3 9/9/3 5/36/3
f 2/11/4 12/29/4 1/37/4
f 9/10/4 6/12/4 5/38/4
f 2/11/4 9/10/4 12/29/4
f 6/13/5 4/15/5 8/39/5
f 3/40/6 11/18/6 4/17/6
f 4/17/6 10/16/6 8/41/6
f 8/41/6 10/16/6 7/42/6
f 14/19/6 11/18/6 15/43/6
f 11/20/3 1/22/3 12/44/3
f 14/23/3 16/25/3 13/45/3
f 13/26/2 10/28/2 14/46/2
f 12/29/4 13/30/4 16/47/4
f 15/31/1 12/33/1 16/48/1
