# Blender v3.0.1 OBJ File: 'Main.blend'
# www.blender.org
o Cube.5840_0002
v -0.081000 -0.231000 -2.504968
v -0.081000 -0.204000 -2.504968
v -0.075000 -0.231000 -2.504968
v -0.075000 -0.204000 -2.504968
v -0.081000 -0.204000 -2.552968
v -0.081000 -0.231000 -2.561968
v -0.075000 -0.204000 -2.552968
v -0.075000 -0.231000 -2.561968
v -0.081000 -0.129000 -2.680468
v -0.081000 -0.129000 -2.725468
v -0.075000 -0.129000 -2.680468
v -0.075000 -0.129000 -2.725468
vt 0.983864 0.581294
vt 0.983972 0.580806
vt 0.983972 0.581294
vt 0.925284 0.689449
vt 0.925392 0.686112
vt 0.925392 0.689449
vt 0.925284 0.690442
vt 0.925392 0.690442
vt 0.909664 0.147427
vt 0.909771 0.148419
vt 0.909259 0.148374
vt 0.927154 0.119838
vt 0.927262 0.118983
vt 0.927262 0.119838
vt 0.910752 0.735038
vt 0.910859 0.734053
vt 0.911203 0.734847
vt 0.927262 0.116485
vt 0.927154 0.115684
vt 0.927262 0.115684
vt 0.910115 0.151062
vt 0.909794 0.151810
vt 0.927154 0.118983
vt 0.910347 0.734091
vt 0.911203 0.731403
vt 0.983864 0.580806
vt 0.925284 0.686112
vt 0.910115 0.147617
vt 0.927154 0.116485
vt 0.910882 0.730654
vn 0.0000 0.0000 1.0000
vn 0.0000 -0.8484 -0.5293
vn 0.0000 -1.0000 0.0000
vn -1.0000 -0.0000 0.0000
vn 0.0000 1.0000 0.0000
vn 1.0000 0.0000 0.0000
vn 0.0000 0.8619 0.5070
s off
f 3/1/1 2/2/1 1/3/1
f 6/4/2 12/5/2 8/6/2
f 1/7/3 8/6/3 3/8/3
f 1/9/4 5/10/4 6/11/4
f 4/12/5 5/13/5 2/14/5
f 3/15/6 7/16/6 4/17/6
f 9/18/5 12/19/5 10/20/5
f 6/11/4 9/21/4 10/22/4
f 7/23/7 9/18/7 5/13/7
f 8/24/6 11/25/6 7/16/6
f 3/1/1 4/26/1 2/2/1
f 6/4/2 10/27/2 12/5/2
f 1/7/3 6/4/3 8/6/3
f 1/9/4 2/28/4 5/10/4
f 4/12/5 7/23/5 5/13/5
f 3/15/6 8/24/6 7/16/6
f 9/18/5 11/29/5 12/19/5
f 6/11/4 5/10/4 9/21/4
f 7/23/7 11/29/7 9/18/7
f 8/24/6 12/30/6 11/25/6
