# Blender v3.0.1 OBJ File: 'Main.blend'
# www.blender.org
o Cylinder.077_0123
v 1.883248 0.045000 -1.677604
v 1.883248 0.366000 -1.677604
v 1.890479 0.045000 -1.679043
v 1.890479 0.366000 -1.679043
v 1.896609 0.045000 -1.683139
v 1.896609 0.366000 -1.683139
v 1.900705 0.045000 -1.689269
v 1.900705 0.366000 -1.689269
v 1.902144 0.045000 -1.696500
v 1.902144 0.366000 -1.696500
v 1.900705 0.045000 -1.703731
v 1.900705 0.366000 -1.703731
v 1.896609 0.045000 -1.709861
v 1.896609 0.366000 -1.709861
v 1.890479 0.045000 -1.713957
v 1.890479 0.366000 -1.713957
v 1.883248 0.045000 -1.715395
v 1.883248 0.366000 -1.715395
v 1.876017 0.045000 -1.713957
v 1.876017 0.366000 -1.713957
v 1.869887 0.045000 -1.709861
v 1.869887 0.366000 -1.709861
v 1.865791 0.045000 -1.703731
v 1.865791 0.366000 -1.703731
v 1.864353 0.045000 -1.696500
v 1.864353 0.366000 -1.696500
v 1.865791 0.045000 -1.689269
v 1.865791 0.366000 -1.689269
v 1.869887 0.045000 -1.683139
v 1.869887 0.366000 -1.683139
v 1.876017 0.045000 -1.679043
v 1.876017 0.366000 -1.679043
v 1.883248 0.098500 -1.676036
v 1.883248 0.152000 -1.676110
v 1.883248 0.205500 -1.676017
v 1.883248 0.259000 -1.676839
v 1.883248 0.312500 -1.677209
v 1.890631 0.312500 -1.678677
v 1.890772 0.259000 -1.678335
v 1.891087 0.205500 -1.677576
v 1.891051 0.152000 -1.677662
v 1.891080 0.098500 -1.677593
v 1.896889 0.312500 -1.682859
v 1.897151 0.259000 -1.682597
v 1.897732 0.205500 -1.682016
v 1.897666 0.152000 -1.682082
v 1.897719 0.098500 -1.682029
v 1.901071 0.312500 -1.689117
v 1.901413 0.259000 -1.688976
v 1.902172 0.205500 -1.688661
v 1.902086 0.152000 -1.688697
v 1.902155 0.098500 -1.688668
v 1.902540 0.312500 -1.696500
v 1.902910 0.259000 -1.696500
v 1.903731 0.205500 -1.696500
v 1.903638 0.152000 -1.696500
v 1.903713 0.098500 -1.696500
v 1.901071 0.312500 -1.703882
v 1.901413 0.259000 -1.704024
v 1.902172 0.205500 -1.704338
v 1.902086 0.152000 -1.704303
v 1.902155 0.098500 -1.704331
v 1.896889 0.312500 -1.710141
v 1.897151 0.259000 -1.710402
v 1.897732 0.205500 -1.710984
v 1.897666 0.152000 -1.710918
v 1.897719 0.098500 -1.710970
v 1.890631 0.312500 -1.714323
v 1.890772 0.259000 -1.714664
v 1.891087 0.205500 -1.715424
v 1.891051 0.152000 -1.715338
v 1.891080 0.098500 -1.715406
v 1.883248 0.312500 -1.715791
v 1.883248 0.259000 -1.716161
v 1.883248 0.205500 -1.716983
v 1.883248 0.152000 -1.716890
v 1.883248 0.098500 -1.716964
v 1.875866 0.312500 -1.714323
v 1.875724 0.259000 -1.714664
v 1.875410 0.205500 -1.715424
v 1.875445 0.152000 -1.715338
v 1.875417 0.098500 -1.715406
v 1.869607 0.312500 -1.710141
v 1.869346 0.259000 -1.710402
v 1.868765 0.205500 -1.710984
v 1.868830 0.152000 -1.710918
v 1.868778 0.098500 -1.710970
v 1.865426 0.312500 -1.703882
v 1.865084 0.259000 -1.704024
v 1.864324 0.205500 -1.704338
v 1.864410 0.152000 -1.704303
v 1.864342 0.098500 -1.704331
v 1.863957 0.312500 -1.696500
v 1.863587 0.259000 -1.696500
v 1.862765 0.205500 -1.696500
v 1.862858 0.152000 -1.696500
v 1.862784 0.098500 -1.696500
v 1.865426 0.312500 -1.689117
v 1.865084 0.259000 -1.688976
v 1.864324 0.205500 -1.688661
v 1.864410 0.152000 -1.688697
v 1.864342 0.098500 -1.688668
v 1.869607 0.312500 -1.682859
v 1.869346 0.259000 -1.682597
v 1.868765 0.205500 -1.682016
v 1.868830 0.152000 -1.682082
v 1.868778 0.098500 -1.682029
v 1.875866 0.312500 -1.678677
v 1.875724 0.259000 -1.678335
v 1.875410 0.205500 -1.677576
v 1.875445 0.152000 -1.677662
v 1.875417 0.098500 -1.677593
vt 0.907390 0.233508
vt 0.907391 0.234473
vt 0.907517 0.234473
vt 0.482992 0.908092
vt 0.482997 0.907127
vt 0.482902 0.907127
vt 0.482897 0.908092
vt 0.482776 0.907127
vt 0.482775 0.908092
vt 0.482640 0.907127
vt 0.482642 0.908092
vt 0.482515 0.907127
vt 0.482519 0.908092
vt 0.482419 0.907127
vt 0.753935 0.910865
vt 0.753938 0.909900
vt 0.753813 0.909900
vt 0.753812 0.910865
vt 0.753677 0.909900
vt 0.753678 0.910865
vt 0.753552 0.909900
vt 0.908689 0.466084
vt 0.908700 0.465119
vt 0.908604 0.465119
vt 0.908595 0.466084
vt 0.908479 0.465118
vt 0.908472 0.466083
vt 0.908343 0.465117
vt 0.908339 0.466082
vt 0.908217 0.465116
vt 0.908216 0.466082
vt 0.908121 0.465116
vt 0.754097 0.324068
vt 0.753530 0.323689
vt 0.753624 0.324162
vt 0.907134 0.233508
vt 0.907130 0.234473
vt 0.907256 0.234473
vt 0.907257 0.233508
vt 0.749382 0.323544
vt 0.749515 0.324212
vt 0.749783 0.323812
vt 0.907251 0.238335
vt 0.907257 0.239300
vt 0.907390 0.239300
vt 0.907252 0.237369
vt 0.907396 0.238335
vt 0.907251 0.236404
vt 0.907395 0.237369
vt 0.907254 0.235438
vt 0.907396 0.236404
vt 0.907393 0.235438
vt 0.907118 0.238335
vt 0.907134 0.239300
vt 0.907119 0.237369
vt 0.907118 0.236404
vt 0.907126 0.235438
vt 0.908228 0.461254
vt 0.908249 0.460289
vt 0.908155 0.460289
vt 0.908223 0.462220
vt 0.908126 0.461254
vt 0.907016 0.236404
vt 0.907018 0.237369
vt 0.907029 0.235438
vt 0.907034 0.234473
vt 0.908372 0.460290
vt 0.908356 0.462220
vt 0.908361 0.461255
vt 0.908216 0.463185
vt 0.908347 0.464152
vt 0.908350 0.463186
vt 0.908219 0.464151
vt 0.908505 0.460291
vt 0.908499 0.462221
vt 0.908505 0.461256
vt 0.908494 0.463186
vt 0.908486 0.464152
vt 0.908638 0.461257
vt 0.908628 0.460292
vt 0.908627 0.463187
vt 0.908632 0.462222
vt 0.908614 0.464152
vt 0.753555 0.905073
vt 0.753461 0.905073
vt 0.753438 0.906038
vt 0.753541 0.907003
vt 0.753540 0.906038
vt 0.753540 0.907969
vt 0.753439 0.907003
vt 0.908711 0.464153
vt 0.908729 0.463188
vt 0.753673 0.906038
vt 0.753678 0.905073
vt 0.753673 0.907003
vt 0.753676 0.908935
vt 0.753673 0.907969
vt 0.753548 0.908935
vt 0.753817 0.906038
vt 0.753812 0.905073
vt 0.753817 0.907003
vt 0.753817 0.907969
vt 0.753814 0.908935
vt 0.753950 0.906038
vt 0.753935 0.905073
vt 0.753949 0.907003
vt 0.753950 0.907969
vt 0.753942 0.908935
vt 0.482503 0.903265
vt 0.482519 0.902300
vt 0.482425 0.902300
vt 0.482504 0.904230
vt 0.482401 0.903265
vt 0.482503 0.905196
vt 0.482402 0.904230
vt 0.482511 0.906162
vt 0.482401 0.905196
vt 0.482413 0.906162
vt 0.482636 0.903265
vt 0.482642 0.902300
vt 0.482636 0.904230
vt 0.482636 0.905196
vt 0.482639 0.906162
vt 0.482780 0.903265
vt 0.482775 0.902300
vt 0.482780 0.904230
vt 0.482780 0.905196
vt 0.482777 0.906162
vt 0.482913 0.903265
vt 0.482897 0.902300
vt 0.482913 0.904230
vt 0.482913 0.905196
vt 0.482905 0.906162
vt 0.483015 0.903265
vt 0.482992 0.902300
vt 0.483014 0.904230
vt 0.907529 0.236404
vt 0.907528 0.237369
vt 0.907630 0.237369
vt 0.483015 0.905196
vt 0.483003 0.906162
vt 0.907513 0.239300
vt 0.907529 0.238335
vt 0.907521 0.235438
vt 0.907513 0.233508
vt 0.482425 0.908092
vt 0.753555 0.910865
vt 0.908122 0.466081
vt 0.753747 0.323544
vt 0.753624 0.323595
vt 0.754003 0.323595
vt 0.753880 0.323544
vt 0.754148 0.323812
vt 0.754097 0.323689
vt 0.754148 0.323945
vt 0.753880 0.324212
vt 0.754003 0.324162
vt 0.753747 0.324212
vt 0.753480 0.323945
vt 0.753530 0.324068
vt 0.753480 0.323812
vt 0.749638 0.323595
vt 0.749515 0.323544
vt 0.749732 0.323689
vt 0.749732 0.324068
vt 0.749783 0.323945
vt 0.749638 0.324162
vt 0.749259 0.324162
vt 0.749382 0.324212
vt 0.749114 0.323945
vt 0.749165 0.324068
vt 0.749165 0.323689
vt 0.749114 0.323812
vt 0.749259 0.323595
vt 0.908121 0.462219
vt 0.753438 0.907969
vt 0.907631 0.236404
vn 0.0000 0.0074 1.0000
vn -0.0000 0.0072 1.0000
vn 0.3827 0.0072 0.9239
vn 0.3827 0.0074 0.9238
vn 0.7071 0.0072 0.7071
vn 0.7071 0.0074 0.7071
vn 0.9239 0.0072 0.3827
vn 0.9238 0.0074 0.3827
vn 1.0000 0.0072 0.0000
vn 1.0000 0.0074 -0.0000
vn 0.9239 0.0072 -0.3827
vn 0.9238 0.0074 -0.3827
vn 0.7071 0.0072 -0.7071
vn 0.7071 0.0074 -0.7071
vn 0.3827 0.0072 -0.9239
vn 0.3827 0.0074 -0.9239
vn 0.0000 0.0072 -1.0000
vn -0.0000 0.0074 -1.0000
vn -0.3827 0.0072 -0.9239
vn -0.3827 0.0074 -0.9238
vn -0.7071 0.0072 -0.7071
vn -0.7071 0.0074 -0.7071
vn -0.9239 0.0072 -0.3827
vn -0.9238 0.0074 -0.3827
vn -1.0000 0.0072 -0.0000
vn -1.0000 0.0074 0.0000
vn -0.9239 0.0072 0.3827
vn -0.9238 0.0074 0.3827
vn -0.7071 0.0072 0.7071
vn 0.0000 1.0000 0.0000
vn -0.7071 0.0074 0.7071
vn -0.3827 0.0072 0.9239
vn -0.3827 0.0074 0.9239
vn 0.0000 -1.0000 -0.0000
vn -0.3827 -0.0139 0.9238
vn -0.3825 -0.0293 0.9235
vn -0.0000 -0.0293 0.9996
vn -0.3827 -0.0002 0.9239
vn -0.0000 -0.0139 0.9999
vn -0.3827 0.0068 0.9239
vn 0.0000 -0.0002 1.0000
vn -0.3826 0.0111 0.9238
vn 0.0000 0.0068 1.0000
vn -0.0000 0.0111 0.9999
vn -0.7070 -0.0139 0.7070
vn -0.7068 -0.0293 0.7068
vn -0.7071 -0.0002 0.7071
vn -0.7071 0.0068 0.7071
vn -0.7071 0.0111 0.7071
vn -0.9238 -0.0139 0.3826
vn -0.9235 -0.0293 0.3825
vn -0.9239 -0.0002 0.3827
vn -0.9239 0.0068 0.3827
vn -0.9238 0.0111 0.3827
vn -0.9996 -0.0293 0.0000
vn -1.0000 -0.0002 -0.0000
vn -0.9999 -0.0139 -0.0000
vn -0.9999 0.0111 -0.0000
vn -1.0000 0.0068 0.0000
vn -0.9235 -0.0293 -0.3825
vn -0.9239 -0.0002 -0.3827
vn -0.9238 -0.0139 -0.3827
vn -0.9239 0.0068 -0.3827
vn -0.9238 0.0111 -0.3827
vn -0.7070 -0.0139 -0.7070
vn -0.7068 -0.0293 -0.7068
vn -0.7071 0.0068 -0.7071
vn -0.7071 -0.0002 -0.7071
vn -0.7071 0.0111 -0.7071
vn -0.3825 -0.0293 -0.9235
vn -0.3827 -0.0002 -0.9239
vn -0.3826 -0.0139 -0.9238
vn -0.3827 0.0068 -0.9239
vn -0.3827 0.0111 -0.9238
vn -0.0000 -0.0139 -0.9999
vn 0.0000 -0.0293 -0.9996
vn 0.0000 -0.0002 -1.0000
vn -0.0000 0.0111 -0.9999
vn 0.0000 0.0068 -1.0000
vn 0.3826 -0.0139 -0.9238
vn 0.3825 -0.0293 -0.9235
vn 0.3827 -0.0002 -0.9239
vn 0.3827 0.0068 -0.9239
vn 0.3827 0.0111 -0.9238
vn 0.7070 -0.0139 -0.7070
vn 0.7068 -0.0293 -0.7068
vn 0.7071 -0.0002 -0.7071
vn 0.7071 0.0068 -0.7071
vn 0.7071 0.0111 -0.7071
vn 0.9238 -0.0139 -0.3826
vn 0.9235 -0.0293 -0.3825
vn 0.9239 -0.0002 -0.3827
vn 0.9239 0.0068 -0.3827
vn 0.9238 0.0111 -0.3827
vn 0.9999 -0.0139 -0.0000
vn 0.9996 -0.0293 0.0000
vn 1.0000 -0.0002 -0.0000
vn 1.0000 0.0068 0.0000
vn 0.9999 0.0111 0.0000
vn 0.9238 -0.0139 0.3826
vn 0.9235 -0.0293 0.3825
vn 0.9239 -0.0002 0.3827
vn 0.9239 0.0068 0.3827
vn 0.9238 0.0111 0.3827
vn 0.7070 -0.0139 0.7070
vn 0.7068 -0.0293 0.7068
vn 0.7071 -0.0002 0.7071
vn 0.7071 0.0068 0.7071
vn 0.7071 0.0111 0.7071
vn 0.3827 -0.0139 0.9238
vn 0.3825 -0.0293 0.9235
vn 0.3827 -0.0002 0.9239
vn 0.3827 0.0068 0.9239
vn 0.3826 0.0111 0.9238
s 1
f 2/1/1 37/2/2 38/3/3
f 4/4/4 38/5/3 43/6/5
f 6/7/6 43/6/5 48/8/7
f 8/9/8 48/8/7 53/10/9
f 10/11/10 53/10/9 58/12/11
f 12/13/12 58/12/11 63/14/13
f 14/15/14 63/16/13 68/17/15
f 16/18/16 68/17/15 73/19/17
f 18/20/18 73/19/17 78/21/19
f 20/22/20 78/23/19 83/24/21
f 22/25/22 83/24/21 88/26/23
f 24/27/24 88/26/23 93/28/25
f 26/29/26 93/28/25 98/30/27
f 28/31/28 98/30/27 103/32/29
f 22/33/30 6/34/30 14/35/30
f 30/36/31 103/37/29 108/38/32
f 32/39/33 108/38/32 37/2/2
f 31/40/34 15/41/34 7/42/34
f 112/43/35 31/44/36 1/45/37
f 111/46/38 112/43/35 33/47/39
f 110/48/40 111/46/38 34/49/41
f 109/50/42 110/48/40 35/51/43
f 108/38/32 109/50/42 36/52/44
f 107/53/45 29/54/46 31/44/36
f 106/55/47 107/53/45 112/43/35
f 105/56/48 106/55/47 111/46/38
f 104/57/49 105/56/48 110/48/40
f 103/37/29 104/57/49 109/50/42
f 102/58/50 27/59/51 29/60/46
f 101/61/52 102/58/50 107/62/45
f 100/63/53 101/64/52 106/55/47
f 99/65/54 100/63/53 105/56/48
f 98/66/27 99/65/54 104/57/49
f 25/67/55 27/59/51 102/58/50
f 96/68/56 97/69/57 102/58/50
f 96/68/56 101/61/52 100/70/53
f 94/71/58 95/72/59 100/70/53
f 93/28/25 94/71/58 99/73/54
f 23/74/60 25/67/55 97/69/57
f 91/75/61 92/76/62 97/69/57
f 90/77/63 91/75/61 96/68/56
f 89/78/64 90/77/63 95/72/59
f 88/26/23 89/78/64 94/71/58
f 87/79/65 21/80/66 23/74/60
f 87/79/65 92/76/62 91/75/61
f 85/81/67 86/82/68 91/75/61
f 84/83/69 85/81/67 90/77/63
f 83/24/21 84/83/69 89/78/64
f 19/84/70 21/85/66 87/86/65
f 81/87/71 82/88/72 87/86/65
f 80/89/73 81/87/71 86/90/68
f 79/91/74 80/92/73 85/81/67
f 78/23/19 79/91/74 84/83/69
f 77/93/75 17/94/76 19/84/70
f 76/95/77 77/93/75 82/88/72
f 76/95/77 81/87/71 80/89/73
f 74/96/78 75/97/79 80/89/73
f 73/19/17 74/96/78 79/98/74
f 72/99/80 15/100/81 17/94/76
f 71/101/82 72/99/80 77/93/75
f 70/102/83 71/101/82 76/95/77
f 70/102/83 75/97/79 74/96/78
f 69/103/84 74/96/78 73/19/17
f 67/104/85 13/105/86 15/100/81
f 66/106/87 67/104/85 72/99/80
f 65/107/88 66/106/87 71/101/82
f 64/108/89 65/107/88 70/102/83
f 63/16/13 64/108/89 69/103/84
f 62/109/90 11/110/91 13/111/86
f 61/112/92 62/109/90 67/113/85
f 60/114/93 61/112/92 66/115/87
f 59/116/94 60/114/93 65/117/88
f 58/12/11 59/116/94 64/118/89
f 57/119/95 9/120/96 11/110/91
f 56/121/97 57/119/95 62/109/90
f 55/122/98 56/121/97 61/112/92
f 54/123/99 55/122/98 60/114/93
f 53/10/9 54/123/99 59/116/94
f 52/124/100 7/125/101 9/120/96
f 51/126/102 52/124/100 57/119/95
f 50/127/103 51/126/102 56/121/97
f 50/127/103 55/122/98 54/123/99
f 48/8/7 49/128/104 54/123/99
f 47/129/105 5/130/106 7/125/101
f 46/131/107 47/129/105 52/124/100
f 45/132/108 46/131/107 51/126/102
f 44/133/109 45/132/108 50/127/103
f 43/6/5 44/133/109 49/128/104
f 42/134/110 3/135/111 5/130/106
f 41/136/112 42/134/110 47/129/105
f 40/137/113 41/138/112 46/139/107
f 40/140/113 45/132/108 44/133/109
f 38/5/3 39/141/114 44/133/109
f 33/47/39 1/45/37 3/142/111
f 33/47/39 42/143/110 41/138/112
f 34/49/41 41/138/112 40/137/113
f 35/51/43 40/137/113 39/144/114
f 36/52/44 39/144/114 38/3/3
f 2/1/1 38/3/3 4/145/4
f 4/4/4 43/6/5 6/7/6
f 6/7/6 48/8/7 8/9/8
f 8/9/8 53/10/9 10/11/10
f 10/11/10 58/12/11 12/13/12
f 12/13/12 63/14/13 14/146/14
f 14/15/14 68/17/15 16/18/16
f 16/18/16 73/19/17 18/20/18
f 18/20/18 78/21/19 20/147/20
f 20/22/20 83/24/21 22/25/22
f 22/25/22 88/26/23 24/27/24
f 24/27/24 93/28/25 26/29/26
f 26/29/26 98/30/27 28/31/28
f 28/31/28 103/32/29 30/148/31
f 6/34/30 2/149/30 4/150/30
f 2/149/30 30/151/30 32/152/30
f 30/151/30 26/153/30 28/154/30
f 26/153/30 22/33/30 24/155/30
f 22/33/30 18/156/30 20/157/30
f 18/156/30 14/35/30 16/158/30
f 14/35/30 10/159/30 12/160/30
f 10/159/30 6/34/30 8/161/30
f 6/34/30 22/33/30 2/149/30
f 2/149/30 22/33/30 30/151/30
f 30/151/30 22/33/30 26/153/30
f 22/33/30 14/35/30 18/156/30
f 14/35/30 6/34/30 10/159/30
f 30/36/31 108/38/32 32/39/33
f 32/39/33 37/2/2 2/1/1
f 31/40/34 3/162/34 1/163/34
f 3/162/34 7/42/34 5/164/34
f 7/42/34 11/165/34 9/166/34
f 11/165/34 15/41/34 13/167/34
f 15/41/34 19/168/34 17/169/34
f 19/168/34 23/170/34 21/171/34
f 23/170/34 27/172/34 25/173/34
f 27/172/34 31/40/34 29/174/34
f 31/40/34 7/42/34 3/162/34
f 7/42/34 15/41/34 11/165/34
f 15/41/34 23/170/34 19/168/34
f 23/170/34 15/41/34 27/172/34
f 27/172/34 15/41/34 31/40/34
f 112/43/35 1/45/37 33/47/39
f 111/46/38 33/47/39 34/49/41
f 110/48/40 34/49/41 35/51/43
f 109/50/42 35/51/43 36/52/44
f 108/38/32 36/52/44 37/2/2
f 107/53/45 31/44/36 112/43/35
f 106/55/47 112/43/35 111/46/38
f 105/56/48 111/46/38 110/48/40
f 104/57/49 110/48/40 109/50/42
f 103/37/29 109/50/42 108/38/32
f 102/58/50 29/60/46 107/62/45
f 101/61/52 107/62/45 106/175/47
f 100/63/53 106/55/47 105/56/48
f 99/65/54 105/56/48 104/57/49
f 98/66/27 104/57/49 103/37/29
f 25/67/55 102/58/50 97/69/57
f 96/68/56 102/58/50 101/61/52
f 96/68/56 100/70/53 95/72/59
f 94/71/58 100/70/53 99/73/54
f 93/28/25 99/73/54 98/30/27
f 23/74/60 97/69/57 92/76/62
f 91/75/61 97/69/57 96/68/56
f 90/77/63 96/68/56 95/72/59
f 89/78/64 95/72/59 94/71/58
f 88/26/23 94/71/58 93/28/25
f 87/79/65 23/74/60 92/76/62
f 87/79/65 91/75/61 86/82/68
f 85/81/67 91/75/61 90/77/63
f 84/83/69 90/77/63 89/78/64
f 83/24/21 89/78/64 88/26/23
f 19/84/70 87/86/65 82/88/72
f 81/87/71 87/86/65 86/90/68
f 80/89/73 86/90/68 85/176/67
f 79/91/74 85/81/67 84/83/69
f 78/23/19 84/83/69 83/24/21
f 77/93/75 19/84/70 82/88/72
f 76/95/77 82/88/72 81/87/71
f 76/95/77 80/89/73 75/97/79
f 74/96/78 80/89/73 79/98/74
f 73/19/17 79/98/74 78/21/19
f 72/99/80 17/94/76 77/93/75
f 71/101/82 77/93/75 76/95/77
f 70/102/83 76/95/77 75/97/79
f 70/102/83 74/96/78 69/103/84
f 69/103/84 73/19/17 68/17/15
f 67/104/85 15/100/81 72/99/80
f 66/106/87 72/99/80 71/101/82
f 65/107/88 71/101/82 70/102/83
f 64/108/89 70/102/83 69/103/84
f 63/16/13 69/103/84 68/17/15
f 62/109/90 13/111/86 67/113/85
f 61/112/92 67/113/85 66/115/87
f 60/114/93 66/115/87 65/117/88
f 59/116/94 65/117/88 64/118/89
f 58/12/11 64/118/89 63/14/13
f 57/119/95 11/110/91 62/109/90
f 56/121/97 62/109/90 61/112/92
f 55/122/98 61/112/92 60/114/93
f 54/123/99 60/114/93 59/116/94
f 53/10/9 59/116/94 58/12/11
f 52/124/100 9/120/96 57/119/95
f 51/126/102 57/119/95 56/121/97
f 50/127/103 56/121/97 55/122/98
f 50/127/103 54/123/99 49/128/104
f 48/8/7 54/123/99 53/10/9
f 47/129/105 7/125/101 52/124/100
f 46/131/107 52/124/100 51/126/102
f 45/132/108 51/126/102 50/127/103
f 44/133/109 50/127/103 49/128/104
f 43/6/5 49/128/104 48/8/7
f 42/134/110 5/130/106 47/129/105
f 41/136/112 47/129/105 46/131/107
f 40/137/113 46/139/107 45/177/108
f 40/140/113 44/133/109 39/141/114
f 38/5/3 44/133/109 43/6/5
f 33/47/39 3/142/111 42/143/110
f 33/47/39 41/138/112 34/49/41
f 34/49/41 40/137/113 35/51/43
f 35/51/43 39/144/114 36/52/44
f 36/52/44 38/3/3 37/2/2
