# Blender v3.0.1 OBJ File: 'Main.blend'
# www.blender.org
o Cylinder.038_0119
v -1.426437 0.273000 -2.434500
v -1.206695 0.296411 -2.434500
v -1.206695 0.296411 -2.449500
v -1.213008 0.318922 -2.434500
v -1.213008 0.318922 -2.449500
v -1.223259 0.339668 -2.434500
v -1.237056 0.357853 -2.434500
v -1.237056 0.357853 -2.449500
v -1.253867 0.372776 -2.434500
v -1.253867 0.372776 -2.449500
v -1.273046 0.383866 -2.434500
v -1.273046 0.383866 -2.449500
v -1.293857 0.390694 -2.434500
v -1.293857 0.390694 -2.449500
v -1.315500 0.393000 -2.434500
v -1.315500 0.393000 -2.449500
v -1.337142 0.390694 -2.434500
v -1.337142 0.390694 -2.449500
v -1.357954 0.383866 -2.434500
v -1.357954 0.383866 -2.449500
v -1.377133 0.372776 -2.434500
v -1.377133 0.372776 -2.449500
v -1.393944 0.357853 -2.434500
v -1.393944 0.357853 -2.449500
v -1.407740 0.339668 -2.434500
v -1.417992 0.318922 -2.434500
v -1.424305 0.296411 -2.434500
v -1.204563 0.322706 -2.449500
v -1.204563 0.296869 -2.449500
v -1.211673 0.348042 -2.434500
v -1.211673 0.348042 -2.449500
v -1.227203 0.368511 -2.434500
v -1.227203 0.368511 -2.449500
v -1.246125 0.385309 -2.434500
v -1.246125 0.385309 -2.449500
v -1.267714 0.397791 -2.434500
v -1.267714 0.397791 -2.449500
v -1.291139 0.405477 -2.434500
v -1.291139 0.405477 -2.449500
v -1.315500 0.408073 -2.434500
v -1.315500 0.408073 -2.449500
v -1.339861 0.405477 -2.434500
v -1.339861 0.405477 -2.449500
v -1.363286 0.397791 -2.434500
v -1.363286 0.397791 -2.449500
v -1.384874 0.385309 -2.434500
v -1.384874 0.385309 -2.449500
v -1.403797 0.368511 -2.434500
v -1.403797 0.368511 -2.449500
v -1.419326 0.348042 -2.434500
v -1.419326 0.348042 -2.449500
v -1.204563 0.273001 -2.434500
v -1.204563 0.273001 -2.449500
v -1.223259 0.339668 -2.449500
v -1.204563 0.333653 -2.449500
v -1.204563 0.333653 -2.434500
v -1.204563 0.296869 -2.434500
v -1.204563 0.322706 -2.434500
v -1.426437 0.273000 -2.449500
v -1.426437 0.333653 -2.449500
v -1.426437 0.333653 -2.434500
v -1.426437 0.296869 -2.434500
v -1.424305 0.296411 -2.449500
v -1.417992 0.318922 -2.449500
v -1.426437 0.322706 -2.449500
v -1.426437 0.322706 -2.434500
v -1.407740 0.339668 -2.449500
v -1.426437 0.296869 -2.449500
vt 0.889861 0.439914
vt 0.890259 0.440079
vt 0.889853 0.439956
vt 0.889430 0.439914
vt 0.890524 0.439914
vt 0.890784 0.440053
vt 0.890633 0.440279
vt 0.944774 0.438893
vt 0.944503 0.439140
vt 0.944503 0.438893
vt 0.945398 0.299222
vt 0.945669 0.299637
vt 0.945398 0.299637
vt 0.945398 0.298832
vt 0.945669 0.299222
vt 0.945398 0.298483
vt 0.945669 0.298832
vt 0.416804 0.933335
vt 0.417074 0.933635
vt 0.416804 0.933635
vt 0.416804 0.932982
vt 0.417074 0.933335
vt 0.416804 0.932590
vt 0.417074 0.932982
vt 0.416804 0.932173
vt 0.417074 0.932590
vt 0.416804 0.931749
vt 0.417074 0.932173
vt 0.416804 0.931332
vt 0.417074 0.931749
vt 0.416804 0.930941
vt 0.417074 0.931332
vt 0.416804 0.930587
vt 0.417074 0.930941
vt 0.902887 0.766675
vt 0.902616 0.766326
vt 0.902887 0.766326
vt 0.902887 0.767064
vt 0.902616 0.766675
vt 0.902887 0.767479
vt 0.902616 0.767064
vt 0.902616 0.767904
vt 0.902887 0.767904
vt 0.889853 0.444204
vt 0.889861 0.444245
vt 0.889430 0.444245
vt 0.890259 0.444080
vt 0.890327 0.444245
vt 0.944774 0.438550
vt 0.127853 0.927414
vt 0.127583 0.927752
vt 0.127583 0.927414
vt 0.127853 0.927752
vt 0.127583 0.928149
vt 0.127853 0.928149
vt 0.127583 0.928591
vt 0.127853 0.928591
vt 0.127583 0.929060
vt 0.127853 0.929060
vt 0.127583 0.929537
vt 0.127853 0.929537
vt 0.127583 0.930006
vt 0.127853 0.930006
vt 0.127583 0.930447
vt 0.127853 0.930447
vt 0.127583 0.930845
vt 0.944787 0.306743
vt 0.944517 0.307086
vt 0.944517 0.306743
vt 0.944787 0.307333
vt 0.944517 0.307333
vt 0.891431 0.442908
vt 0.891456 0.443434
vt 0.891230 0.443283
vt 0.353365 0.890742
vt 0.352967 0.890577
vt 0.353433 0.890577
vt 0.354537 0.893571
vt 0.354562 0.894097
vt 0.354336 0.893946
vt 0.945669 0.300061
vt 0.945398 0.300061
vt 0.891431 0.441251
vt 0.891456 0.440726
vt 0.891682 0.441147
vt 0.354537 0.891914
vt 0.354927 0.892267
vt 0.354660 0.892320
vt 0.352959 0.894867
vt 0.352967 0.894908
vt 0.352536 0.894908
vt 0.891554 0.442502
vt 0.891682 0.443012
vt 0.353630 0.890577
vt 0.354259 0.894466
vt 0.354067 0.894274
vt 0.890524 0.444245
vt 0.890633 0.443880
vt 0.890961 0.440549
vt 0.891230 0.440877
vt 0.354701 0.892743
vt 0.354973 0.892743
vt 0.891595 0.442079
vt 0.891821 0.442555
vt 0.353739 0.890943
vt 0.354259 0.891019
vt 0.354067 0.891212
vt 0.353890 0.894769
vt 0.353739 0.894543
vt 0.891153 0.443803
vt 0.890784 0.444106
vt 0.891153 0.440356
vt 0.354927 0.893219
vt 0.354660 0.893165
vt 0.891554 0.441657
vt 0.891867 0.442079
vt 0.354562 0.891389
vt 0.354336 0.891540
vt 0.353630 0.894908
vt 0.890961 0.443611
vt 0.352959 0.890619
vt 0.352536 0.890577
vt 0.354788 0.893675
vt 0.891821 0.441604
vt 0.354788 0.891810
vt 0.353365 0.894743
vt 0.944774 0.439140
vt 0.944774 0.439337
vt 0.944517 0.307530
vt 0.944787 0.307530
vt 0.890327 0.439914
vt 0.945669 0.298483
vt 0.417074 0.930587
vt 0.902616 0.767479
vt 0.944503 0.438550
vt 0.127853 0.930845
vt 0.944787 0.307086
vt 0.353890 0.890716
vt 0.353433 0.894908
vt 0.944774 0.439802
vt 0.944774 0.440231
vt 0.944503 0.440231
vt 0.944787 0.308424
vt 0.944517 0.308424
vt 0.944517 0.307995
vt 0.944787 0.307995
vn -0.0000 0.0000 -1.0000
vn 0.8504 0.5261 0.0000
vn 0.9738 0.2275 0.0000
vn -0.9337 -0.3581 0.0000
vn -0.9835 -0.1811 0.0000
vn -0.8504 -0.5261 0.0000
vn -0.7338 -0.6794 0.0000
vn -0.5852 -0.8109 0.0000
vn -0.4083 -0.9128 0.0000
vn -0.2100 -0.9777 0.0000
vn 0.0000 -1.0000 0.0000
vn 0.2100 -0.9777 0.0000
vn 0.4083 -0.9128 0.0000
vn 0.5852 -0.8109 0.0000
vn 0.7338 -0.6794 0.0000
vn 0.8504 -0.5261 0.0000
vn 0.9337 -0.3581 0.0000
vn 0.9835 -0.1811 0.0000
vn 0.9337 -0.3580 0.0000
vn 0.9959 -0.0907 0.0000
vn 0.7338 0.6794 0.0000
vn 0.5852 0.8109 0.0000
vn 0.4083 0.9128 0.0000
vn 0.2100 0.9777 0.0000
vn -0.0000 1.0000 0.0000
vn -0.2100 0.9777 0.0000
vn -0.4083 0.9128 0.0000
vn -0.5852 0.8109 0.0000
vn -0.7338 0.6794 0.0000
vn -0.8504 0.5261 0.0000
vn -0.9738 0.2275 0.0000
vn 0.0000 0.0000 1.0000
vn 0.0001 0.0000 1.0000
vn -0.9959 -0.0907 0.0000
vn -0.0001 0.0000 1.0000
vn 1.0000 0.0000 0.0000
vn -1.0000 0.0000 0.0000
s 1
f 68/1/1 64/2/1 63/3/1
f 63/3/1 59/4/1 68/1/1
f 60/5/1 51/6/1 67/7/1
f 30/8/2 55/9/3 31/10/2
f 4/11/4 3/12/5 2/13/5
f 6/14/6 5/15/4 4/11/4
f 7/16/7 54/17/6 6/14/6
f 9/18/8 8/19/7 7/20/7
f 11/21/9 10/22/8 9/18/8
f 13/23/10 12/24/9 11/21/9
f 15/25/11 14/26/10 13/23/10
f 17/27/12 16/28/11 15/25/11
f 19/29/13 18/30/12 17/27/12
f 21/31/14 20/32/13 19/29/13
f 23/33/15 22/34/14 21/31/14
f 25/35/16 24/36/15 23/37/15
f 26/38/17 67/39/16 25/35/16
f 27/40/18 64/41/19 26/38/17
f 59/42/20 27/40/18 1/43/20
f 3/44/1 29/45/1 53/46/1
f 29/45/1 5/47/1 28/48/1
f 31/10/2 32/49/21 30/8/2
f 33/50/21 34/51/22 32/52/21
f 35/53/22 36/54/23 34/51/22
f 37/55/23 38/56/24 36/54/23
f 39/57/24 40/58/25 38/56/24
f 41/59/25 42/60/26 40/58/25
f 43/61/26 44/62/27 42/60/26
f 45/63/27 46/64/28 44/62/27
f 47/65/28 48/66/29 46/64/28
f 49/67/29 50/68/30 48/69/29
f 50/68/30 60/70/31 61/71/31
f 12/72/1 35/73/1 10/74/1
f 4/75/32 57/76/33 58/77/32
f 19/78/32 46/79/32 21/80/32
f 2/13/5 53/81/34 52/82/34
f 20/83/1 47/84/1 45/85/1
f 11/86/32 38/87/32 13/88/32
f 27/89/35 62/90/35 1/91/35
f 14/92/1 37/93/1 12/72/1
f 4/75/32 58/77/32 56/94/32
f 21/80/32 48/95/32 23/96/32
f 55/97/1 5/47/1 54/98/1
f 24/99/1 47/84/1 22/100/1
f 15/101/32 38/87/32 40/102/32
f 16/103/1 39/104/1 14/92/1
f 6/105/32 32/106/32 7/107/32
f 23/96/32 50/108/32 25/109/32
f 54/98/1 33/110/1 31/111/1
f 67/7/1 49/112/1 24/99/1
f 15/101/32 42/113/32 17/114/32
f 18/115/1 41/116/1 16/103/1
f 7/107/32 34/117/32 9/118/32
f 25/109/32 50/108/32 61/119/32
f 10/74/1 33/110/1 8/120/1
f 2/121/33 52/122/33 57/76/33
f 17/114/32 44/123/32 19/78/32
f 20/83/1 43/124/1 18/115/1
f 9/118/32 36/125/32 11/86/32
f 26/126/32 62/90/35 27/89/35
f 55/9/3 56/127/3 58/128/36
f 66/129/37 60/70/31 65/130/37
f 68/1/1 65/131/1 64/2/1
f 67/7/1 64/2/1 60/5/1
f 64/2/1 65/131/1 60/5/1
f 30/8/2 56/127/3 55/9/3
f 4/11/4 5/15/4 3/12/5
f 6/14/6 54/17/6 5/15/4
f 7/16/7 8/132/7 54/17/6
f 9/18/8 10/22/8 8/19/7
f 11/21/9 12/24/9 10/22/8
f 13/23/10 14/26/10 12/24/9
f 15/25/11 16/28/11 14/26/10
f 17/27/12 18/30/12 16/28/11
f 19/29/13 20/32/13 18/30/12
f 21/31/14 22/34/14 20/32/13
f 23/33/15 24/133/15 22/34/14
f 25/35/16 67/39/16 24/36/15
f 26/38/17 64/41/19 67/39/16
f 27/40/18 63/134/18 64/41/19
f 59/42/20 63/134/18 27/40/18
f 29/45/1 3/44/1 5/47/1
f 31/10/2 33/135/21 32/49/21
f 33/50/21 35/53/22 34/51/22
f 35/53/22 37/55/23 36/54/23
f 37/55/23 39/57/24 38/56/24
f 39/57/24 41/59/25 40/58/25
f 41/59/25 43/61/26 42/60/26
f 43/61/26 45/63/27 44/62/27
f 45/63/27 47/65/28 46/64/28
f 47/65/28 49/136/29 48/66/29
f 49/67/29 51/137/30 50/68/30
f 50/68/30 51/137/30 60/70/31
f 12/72/1 37/93/1 35/73/1
f 4/75/32 2/121/33 57/76/33
f 19/78/32 44/123/32 46/79/32
f 2/13/5 3/12/5 53/81/34
f 20/83/1 22/100/1 47/84/1
f 11/86/32 36/125/32 38/87/32
f 14/92/1 39/104/1 37/93/1
f 56/94/32 30/138/32 6/105/32
f 6/105/32 4/75/32 56/94/32
f 21/80/32 46/79/32 48/95/32
f 54/98/1 31/111/1 55/97/1
f 55/97/1 28/48/1 5/47/1
f 24/99/1 49/112/1 47/84/1
f 15/101/32 13/88/32 38/87/32
f 16/103/1 41/116/1 39/104/1
f 6/105/32 30/138/32 32/106/32
f 23/96/32 48/95/32 50/108/32
f 54/98/1 8/120/1 33/110/1
f 67/7/1 51/6/1 49/112/1
f 15/101/32 40/102/32 42/113/32
f 18/115/1 43/124/1 41/116/1
f 7/107/32 32/106/32 34/117/32
f 66/139/32 26/126/32 61/119/32
f 26/126/32 25/109/32 61/119/32
f 10/74/1 35/73/1 33/110/1
f 17/114/32 42/113/32 44/123/32
f 20/83/1 45/85/1 43/124/1
f 9/118/32 34/117/32 36/125/32
f 26/126/32 66/139/32 62/90/35
f 58/128/36 57/140/36 55/9/3
f 57/140/36 52/141/36 53/142/36
f 55/9/3 57/140/36 53/142/36
f 59/143/37 1/144/37 62/145/37
f 66/129/37 61/71/31 60/70/31
f 59/143/37 62/145/37 68/146/37
f 62/145/37 66/129/37 68/146/37
f 65/130/37 68/146/37 66/129/37
