# Blender v3.0.1 OBJ File: 'Main.blend'
# www.blender.org
o Hat_Cube.009
v -0.022500 0.036000 0.000000
v 0.000000 0.036000 -0.022500
v 0.000000 0.036000 0.022500
v 0.022500 0.036000 0.000000
v 0.000000 0.039750 -0.022500
v 0.022500 0.039750 0.000000
v -0.022500 0.039750 0.000000
v 0.000000 0.039750 0.022500
v 0.027090 0.036000 -0.029272
v 0.029272 0.036000 -0.027090
v 0.029272 0.036000 0.027090
v 0.027090 0.036000 0.029272
v -0.029272 0.036000 -0.027090
v -0.027090 0.036000 -0.029272
v -0.027090 0.036000 0.029272
v -0.029272 0.036000 0.027090
v 0.027090 0.039750 -0.029272
v 0.029272 0.039750 -0.027090
v -0.027090 0.039750 0.029272
v -0.029272 0.039750 0.027090
v 0.029272 0.039750 0.027090
v 0.027090 0.039750 0.029272
v -0.029272 0.039750 -0.027090
v -0.027090 0.039750 -0.029272
v 0.000000 0.041625 -0.023400
v 0.000000 0.039750 -0.023400
v 0.023400 0.041625 0.000000
v 0.023400 0.039750 0.000000
v -0.023400 0.041625 0.000000
v -0.023400 0.039750 0.000000
v 0.000000 0.041625 0.023400
v 0.000000 0.039750 0.023400
v 0.027330 0.039750 -0.030140
v 0.030140 0.039750 -0.027330
v -0.030140 0.041625 0.027330
v -0.027330 0.041625 0.030140
v 0.030140 0.039750 0.027330
v 0.027330 0.039750 0.030140
v -0.030140 0.039750 -0.027330
v -0.027330 0.039750 -0.030140
v 0.027330 0.041625 -0.030140
v 0.030140 0.041625 -0.027330
v -0.027330 0.039750 0.030140
v -0.030140 0.039750 0.027330
v 0.030140 0.041625 0.027330
v 0.027330 0.041625 0.030140
v -0.030140 0.041625 -0.027330
v -0.027330 0.041625 -0.030140
v 0.000000 0.043500 -0.024018
v 0.000000 0.041625 -0.024018
v 0.024018 0.043500 0.000000
v 0.024018 0.041625 0.000000
v -0.024018 0.043500 0.000000
v -0.024018 0.041625 0.000000
v 0.000000 0.043500 0.024018
v 0.000000 0.041625 0.024018
v -0.030803 0.041625 0.027515
v -0.027515 0.041625 0.030803
v -0.027515 0.043500 0.030803
v -0.030803 0.043500 0.027515
v 0.027515 0.041625 -0.030803
v 0.030803 0.041625 -0.027515
v 0.030803 0.041625 0.027515
v 0.027515 0.041625 0.030803
v -0.030803 0.041625 -0.027515
v -0.027515 0.041625 -0.030803
v 0.027515 0.043500 -0.030803
v 0.030803 0.043500 -0.027515
v 0.030803 0.043500 0.027515
v 0.027515 0.043500 0.030803
v -0.030803 0.043500 -0.027515
v -0.027515 0.043500 -0.030803
v -0.027018 0.034500 0.003750
v -0.027018 0.043200 0.004500
v -0.027018 0.034500 -0.003750
v -0.027018 0.043200 -0.004500
v -0.019518 0.034500 0.003750
v -0.019518 0.043200 0.004500
v -0.019518 0.034500 -0.003750
v -0.019518 0.043200 -0.004500
v 0.027018 0.034500 -0.003750
v 0.027018 0.043200 -0.004500
v 0.027018 0.034500 0.003750
v 0.027018 0.043200 0.004500
v 0.019518 0.034500 -0.003750
v 0.019518 0.043200 -0.004500
v 0.019518 0.034500 0.003750
v 0.019518 0.043200 0.004500
v 0.003750 0.034500 0.027018
v 0.004500 0.043200 0.027018
v -0.003750 0.034500 0.027018
v -0.004500 0.043200 0.027018
v 0.003750 0.034500 0.019518
v 0.004500 0.043200 0.019518
v -0.003750 0.034500 0.019518
v -0.004500 0.043200 0.019518
v -0.003750 0.034500 -0.027018
v -0.004500 0.043200 -0.027018
v 0.003750 0.034500 -0.027018
v 0.004500 0.043200 -0.027018
v -0.003750 0.034500 -0.019518
v -0.004500 0.043200 -0.019518
v 0.003750 0.034500 -0.019518
v 0.004500 0.043200 -0.019518
vt 0.500000 0.012127
vt 0.375000 0.125000
vt 0.375000 0.012127
vt 0.500000 0.512127
vt 0.500000 0.625000
vt 0.500000 0.625000
vt 0.500000 0.375000
vt 0.375000 0.487873
vt 0.375000 0.375000
vt 0.500000 0.262127
vt 0.375000 0.262127
vt 0.500000 0.737873
vt 0.500000 0.762127
vt 0.500000 0.762127
vt 0.375000 0.737873
vt 0.375000 0.625000
vt 0.500000 0.237873
vt 0.500000 0.125000
vt 0.500000 0.237873
vt 0.500000 0.487873
vt 0.500000 0.512127
vt 0.500000 0.875000
vt 0.375000 0.987873
vt 0.375000 0.875000
vt 0.125000 0.625000
vt 0.250000 0.500000
vt 0.500000 0.125000
vt 0.375000 0.237873
vt 0.375000 0.512127
vt 0.375000 0.762127
vt 0.500000 0.375000
vt 0.500000 0.487873
vt 0.500000 0.000000
vt 0.500000 0.012127
vt 0.500000 0.262127
vt 0.500000 0.987873
vt 0.500000 0.875000
vt 0.500000 0.987873
vt 0.375000 0.000000
vt 0.500000 0.737873
vt 0.562500 0.262127
vt 0.562500 0.237873
vt 0.562500 0.262127
vt 0.562500 0.512127
vt 0.562500 0.625000
vt 0.562500 0.625000
vt 0.562500 0.987873
vt 0.562500 0.875000
vt 0.562500 0.987873
vt 0.562500 0.375000
vt 0.562500 0.125000
vt 0.562500 0.875000
vt 0.562500 0.012127
vt 0.562500 0.762127
vt 0.562500 0.487873
vt 0.562500 0.737873
vt 0.562500 0.237873
vt 0.562500 0.000000
vt 0.500000 0.000000
vt 0.562500 0.737873
vt 0.562500 0.762127
vt 0.562500 0.125000
vt 0.625000 0.262127
vt 0.562500 0.375000
vt 0.625000 0.762127
vt 0.625000 0.375000
vt 0.562500 0.487873
vt 0.625000 0.875000
vt 0.625000 0.625000
vt 0.625000 0.512127
vt 0.562500 0.512127
vt 0.625000 0.125000
vt 0.625000 0.012127
vt 0.562500 0.012127
vt 0.625000 0.000000
vt 0.562500 0.000000
vt 0.625000 0.487873
vt 0.625000 0.737873
vt 0.625000 0.237873
vt 0.875000 0.625000
vt 0.750000 0.750000
vt 0.625000 0.000000
vt 0.375000 0.250000
vt 0.375000 0.000000
vt 0.625000 0.250000
vt 0.375000 0.500000
vt 0.625000 0.500000
vt 0.375000 0.750000
vt 0.625000 0.750000
vt 0.375000 1.000000
vt 0.125000 0.750000
vt 0.125000 0.500000
vt 0.875000 0.500000
vt 0.625000 0.000000
vt 0.375000 0.250000
vt 0.375000 0.000000
vt 0.625000 0.250000
vt 0.375000 0.500000
vt 0.625000 0.500000
vt 0.375000 0.750000
vt 0.625000 0.750000
vt 0.375000 1.000000
vt 0.125000 0.750000
vt 0.125000 0.500000
vt 0.875000 0.500000
vt 0.625000 0.000000
vt 0.375000 0.250000
vt 0.375000 0.000000
vt 0.625000 0.250000
vt 0.375000 0.500000
vt 0.625000 0.500000
vt 0.375000 0.750000
vt 0.625000 0.750000
vt 0.375000 1.000000
vt 0.125000 0.750000
vt 0.125000 0.500000
vt 0.875000 0.500000
vt 0.625000 0.000000
vt 0.375000 0.250000
vt 0.375000 0.000000
vt 0.625000 0.250000
vt 0.375000 0.500000
vt 0.625000 0.500000
vt 0.375000 0.750000
vt 0.625000 0.750000
vt 0.375000 1.000000
vt 0.125000 0.750000
vt 0.125000 0.500000
vt 0.875000 0.750000
vt 0.362873 0.750000
vt 0.250000 0.750000
vt 0.137127 0.750000
vt 0.125000 0.737873
vt 0.362873 0.500000
vt 0.125000 0.512127
vt 0.137127 0.500000
vt 0.625000 0.987873
vt 0.750000 0.500000
vt 0.637127 0.500000
vt 0.862873 0.500000
vt 0.875000 0.512127
vt 0.637127 0.750000
vt 0.875000 0.737873
vt 0.862873 0.750000
vt 0.625000 1.000000
vt 0.875000 0.750000
vt 0.625000 1.000000
vt 0.875000 0.750000
vt 0.625000 1.000000
vt 0.875000 0.750000
vt 0.625000 1.000000
vt 0.875000 0.500000
vn -0.9701 0.0000 -0.2425
vn 0.0000 -1.0000 -0.0000
vn -0.2425 0.0000 -0.9701
vn 0.2425 0.0000 -0.9701
vn 0.9701 0.0000 -0.2425
vn 0.2425 0.0000 0.9701
vn -0.9701 0.0000 0.2425
vn 0.9701 0.0000 0.2425
vn -0.2425 0.0000 0.9701
vn 0.7071 0.0000 -0.7071
vn 0.7071 0.0000 0.7071
vn -0.7071 0.0000 -0.7071
vn -0.7071 0.0000 0.7071
vn -0.2394 0.0000 -0.9709
vn -0.9709 0.0000 0.2394
vn 0.2394 0.0000 0.9709
vn -0.9709 0.0000 -0.2394
vn 0.9709 0.0000 0.2394
vn -0.2394 0.0000 0.9709
vn 0.2394 0.0000 -0.9709
vn 0.9709 0.0000 -0.2394
vn 0.0000 1.0000 0.0000
vn -1.0000 0.0000 0.0000
vn 0.0000 -0.0859 -0.9963
vn 1.0000 0.0000 0.0000
vn 0.0000 -0.0859 0.9963
vn 0.0000 0.0000 1.0000
vn -0.9963 -0.0859 0.0000
vn 0.0000 0.0000 -1.0000
vn 0.9963 -0.0859 0.0000
s off
f 20/1/1 1/2/1 16/3/1
f 18/4/2 28/5/2 6/6/2
f 5/7/3 9/8/3 2/9/3
f 24/10/4 2/9/4 14/11/4
f 21/12/2 38/13/2 22/14/2
f 6/6/5 11/15/5 4/16/5
f 23/17/2 30/18/2 39/19/2
f 17/20/2 34/21/2 18/4/2
f 8/22/6 15/23/6 3/24/6
f 4/16/2 1/25/2 2/26/2
f 7/27/7 13/28/7 1/2/7
f 18/4/8 4/16/8 10/29/8
f 22/14/9 3/24/9 12/30/9
f 24/10/2 26/31/2 5/7/2
f 17/20/2 26/31/2 33/32/2
f 19/33/2 44/34/2 20/1/2
f 23/17/2 40/35/2 24/10/2
f 10/29/10 17/20/10 18/4/10
f 19/36/2 32/37/2 43/38/2
f 12/30/11 21/12/11 22/14/11
f 14/11/12 23/17/12 24/10/12
f 19/33/13 16/3/13 15/39/13
f 22/14/2 32/37/2 8/22/2
f 20/1/2 30/18/2 7/27/2
f 21/12/2 28/5/2 37/40/2
f 48/41/2 65/42/2 66/43/2
f 42/44/2 52/45/2 27/46/2
f 36/47/2 56/48/2 58/49/2
f 25/50/14 33/32/14 26/31/14
f 29/51/15 39/19/15 30/18/15
f 31/52/16 43/38/16 32/37/16
f 35/53/17 30/18/17 44/34/17
f 42/44/18 28/5/18 34/21/18
f 46/54/19 32/37/19 38/13/19
f 48/41/20 26/31/20 40/35/20
f 27/46/21 37/40/21 28/5/21
f 46/54/2 56/48/2 31/52/2
f 34/21/10 41/55/10 42/44/10
f 38/13/11 45/56/11 46/54/11
f 40/35/12 47/57/12 48/41/12
f 36/58/13 44/34/13 43/59/13
f 46/54/2 63/60/2 64/61/2
f 35/53/2 54/62/2 29/51/2
f 72/63/20 50/64/20 66/43/20
f 70/65/19 56/48/19 64/61/19
f 49/66/14 61/67/14 50/64/14
f 55/68/16 58/49/16 56/48/16
f 51/69/21 63/60/21 52/45/21
f 68/70/18 52/45/18 62/71/18
f 53/72/15 65/42/15 54/62/15
f 60/73/17 54/62/17 57/74/17
f 59/75/13 57/74/13 58/76/13
f 62/71/10 67/77/10 68/70/10
f 64/61/11 69/78/11 70/65/11
f 66/43/12 71/79/12 72/63/12
f 47/57/2 54/62/2 65/42/2
f 42/44/2 61/67/2 62/71/2
f 41/55/2 50/64/2 61/67/2
f 48/41/2 50/64/2 25/50/2
f 35/53/2 58/76/2 57/74/2
f 45/56/2 52/45/2 63/60/2
f 53/80/22 55/81/22 51/69/22
f 74/82/23 75/83/23 73/84/23
f 76/85/24 79/86/24 75/83/24
f 80/87/25 77/88/25 79/86/25
f 78/89/26 73/90/26 77/88/26
f 79/86/2 73/91/2 75/92/2
f 76/93/22 78/89/22 80/87/22
f 82/94/25 83/95/25 81/96/25
f 84/97/26 87/98/26 83/95/26
f 88/99/23 85/100/23 87/98/23
f 86/101/24 81/102/24 85/100/24
f 87/98/2 81/103/2 83/104/2
f 84/105/22 86/101/22 88/99/22
f 90/106/27 91/107/27 89/108/27
f 92/109/28 95/110/28 91/107/28
f 96/111/29 93/112/29 95/110/29
f 94/113/30 89/114/30 93/112/30
f 95/110/2 89/115/2 91/116/2
f 92/117/22 94/113/22 96/111/22
f 98/118/29 99/119/29 97/120/29
f 100/121/30 103/122/30 99/119/30
f 104/123/27 101/124/27 103/122/27
f 102/125/28 97/126/28 101/124/28
f 103/122/2 97/127/2 99/128/2
f 104/123/22 98/129/22 102/125/22
f 20/1/1 7/27/1 1/2/1
f 18/4/2 34/21/2 28/5/2
f 5/7/3 17/20/3 9/8/3
f 24/10/4 5/7/4 2/9/4
f 21/12/2 37/40/2 38/13/2
f 6/6/5 21/12/5 11/15/5
f 23/17/2 7/27/2 30/18/2
f 17/20/2 33/32/2 34/21/2
f 8/22/6 19/36/6 15/23/6
f 4/16/2 11/15/2 12/130/2
f 3/131/2 15/132/2 16/133/2
f 4/16/2 12/130/2 3/131/2
f 9/134/2 10/29/2 4/16/2
f 13/135/2 14/136/2 2/26/2
f 2/26/2 9/134/2 4/16/2
f 4/16/2 3/131/2 1/25/2
f 3/131/2 16/133/2 1/25/2
f 1/25/2 13/135/2 2/26/2
f 7/27/7 23/17/7 13/28/7
f 18/4/8 6/6/8 4/16/8
f 22/14/9 8/22/9 3/24/9
f 24/10/2 40/35/2 26/31/2
f 17/20/2 5/7/2 26/31/2
f 19/33/2 43/59/2 44/34/2
f 23/17/2 39/19/2 40/35/2
f 10/29/10 9/8/10 17/20/10
f 19/36/2 8/22/2 32/37/2
f 12/30/11 11/15/11 21/12/11
f 14/11/12 13/28/12 23/17/12
f 19/33/13 20/1/13 16/3/13
f 22/14/2 38/13/2 32/37/2
f 20/1/2 44/34/2 30/18/2
f 21/12/2 6/6/2 28/5/2
f 48/41/2 47/57/2 65/42/2
f 42/44/2 62/71/2 52/45/2
f 36/47/2 31/52/2 56/48/2
f 25/50/14 41/55/14 33/32/14
f 29/51/15 47/57/15 39/19/15
f 31/52/16 36/47/16 43/38/16
f 35/53/17 29/51/17 30/18/17
f 42/44/18 27/46/18 28/5/18
f 46/54/19 31/52/19 32/37/19
f 48/41/20 25/50/20 26/31/20
f 27/46/21 45/56/21 37/40/21
f 46/54/2 64/61/2 56/48/2
f 34/21/10 33/32/10 41/55/10
f 38/13/11 37/40/11 45/56/11
f 40/35/12 39/19/12 47/57/12
f 36/58/13 35/53/13 44/34/13
f 46/54/2 45/56/2 63/60/2
f 35/53/2 57/74/2 54/62/2
f 72/63/20 49/66/20 50/64/20
f 70/65/19 55/68/19 56/48/19
f 49/66/14 67/77/14 61/67/14
f 55/68/16 59/137/16 58/49/16
f 51/69/21 69/78/21 63/60/21
f 68/70/18 51/69/18 52/45/18
f 53/72/15 71/79/15 65/42/15
f 60/73/17 53/72/17 54/62/17
f 59/75/13 60/73/13 57/74/13
f 62/71/10 61/67/10 67/77/10
f 64/61/11 63/60/11 69/78/11
f 66/43/12 65/42/12 71/79/12
f 47/57/2 29/51/2 54/62/2
f 42/44/2 41/55/2 61/67/2
f 41/55/2 25/50/2 50/64/2
f 48/41/2 66/43/2 50/64/2
f 35/53/2 36/58/2 58/76/2
f 45/56/2 27/46/2 52/45/2
f 51/69/22 68/70/22 49/138/22
f 68/70/22 67/139/22 49/138/22
f 49/138/22 72/140/22 71/141/22
f 70/142/22 69/78/22 51/69/22
f 60/143/22 59/144/22 55/81/22
f 55/81/22 70/142/22 51/69/22
f 51/69/22 49/138/22 53/80/22
f 49/138/22 71/141/22 53/80/22
f 53/80/22 60/143/22 55/81/22
f 74/82/23 76/85/23 75/83/23
f 76/85/24 80/87/24 79/86/24
f 80/87/25 78/89/25 77/88/25
f 78/89/26 74/145/26 73/90/26
f 79/86/2 77/88/2 73/91/2
f 76/93/22 74/146/22 78/89/22
f 82/94/25 84/97/25 83/95/25
f 84/97/26 88/99/26 87/98/26
f 88/99/23 86/101/23 85/100/23
f 86/101/24 82/147/24 81/102/24
f 87/98/2 85/100/2 81/103/2
f 84/105/22 82/148/22 86/101/22
f 90/106/27 92/109/27 91/107/27
f 92/109/28 96/111/28 95/110/28
f 96/111/29 94/113/29 93/112/29
f 94/113/30 90/149/30 89/114/30
f 95/110/2 93/112/2 89/115/2
f 92/117/22 90/150/22 94/113/22
f 98/118/29 100/121/29 99/119/29
f 100/121/30 104/123/30 103/122/30
f 104/123/27 102/125/27 101/124/27
f 102/125/28 98/151/28 97/126/28
f 103/122/2 101/124/2 97/127/2
f 104/123/22 100/152/22 98/129/22
